<?xml version="1.0" encoding="UTF-8" standalone="no"?>
<svg
   width="1in"
   height="1in"
   viewBox="0 0 25.4 25.400001"
   version="1.1"
   id="svg8"
   inkscape:version="1.1 (c4e8f9ed74, 2021-05-24)"
   sodipodi:docname="spiderman-icon.svg"
   inkscape:export-filename="/home/ryan/Pictures/spiderman-icon.png"
   inkscape:export-xdpi="120"
   inkscape:export-ydpi="120"
   xmlns:inkscape="http://www.inkscape.org/namespaces/inkscape"
   xmlns:sodipodi="http://sodipodi.sourceforge.net/DTD/sodipodi-0.dtd"
   xmlns="http://www.w3.org/2000/svg"
   xmlns:svg="http://www.w3.org/2000/svg"
   xmlns:rdf="http://www.w3.org/1999/02/22-rdf-syntax-ns#"
   xmlns:cc="http://creativecommons.org/ns#"
   xmlns:dc="http://purl.org/dc/elements/1.1/">
  <defs
     id="defs2" />
  <sodipodi:namedview
     id="base"
     pagecolor="#ffffff"
     bordercolor="#666666"
     borderopacity="1.0"
     inkscape:pageopacity="0.0"
     inkscape:pageshadow="2"
     inkscape:zoom="3.5109816"
     inkscape:cx="33.466424"
     inkscape:cy="51.410124"
     inkscape:document-units="mm"
     inkscape:current-layer="layer2"
     inkscape:document-rotation="0"
     showgrid="false"
     units="in"
     inkscape:window-width="1795"
     inkscape:window-height="908"
     inkscape:window-x="117"
     inkscape:window-y="136"
     inkscape:window-maximized="0"
     inkscape:pagecheckerboard="0"
     inkscape:snap-global="false" />
  <metadata
     id="metadata5">
    <rdf:RDF>
      <cc:Work
         rdf:about="">
        <dc:format>image/svg+xml</dc:format>
        <dc:type
           rdf:resource="http://purl.org/dc/dcmitype/StillImage" />
      </cc:Work>
    </rdf:RDF>
  </metadata>
  <g
     inkscape:groupmode="layer"
     id="layer2"
     inkscape:label="BG">
    <path
       style="fill:none;stroke:#000000;stroke-width:0.13229167;stroke-linecap:butt;stroke-linejoin:miter;stroke-opacity:1;stroke-miterlimit:4;stroke-dasharray:none;opacity:0.45721401"
       d="M -0.4585645,-0.36709582 26.263992,26.410368"
       id="path17972" />
    <path
       style="fill:none;stroke:#000000;stroke-width:0.13229167;stroke-linecap:butt;stroke-linejoin:miter;stroke-opacity:1;stroke-miterlimit:4;stroke-dasharray:none;opacity:0.45721401"
       d="M 27.386854,-1.6166264 C 26.931403,-0.97914223 -2.9703019,28.461356 -2.9703019,28.461356"
       id="path17974" />
    <path
       style="fill:none;stroke:#000000;stroke-width:0.13229167;stroke-linecap:butt;stroke-linejoin:miter;stroke-opacity:1;stroke-miterlimit:4;stroke-dasharray:none;opacity:0.45721401"
       d="M 18.724134,-5.5797105 6.9306585,30.994376"
       id="path17976" />
    <path
       style="fill:none;stroke:#000000;stroke-width:0.13229167;stroke-linecap:butt;stroke-linejoin:miter;stroke-opacity:1;stroke-miterlimit:4;stroke-dasharray:none;opacity:0.45721401"
       d="M 33.803394,12.652182 -6.367151,13.183106"
       id="path17978" />
    <path
       style="fill:none;stroke:#000000;stroke-width:0.13229167;stroke-linecap:butt;stroke-linejoin:miter;stroke-opacity:1;stroke-miterlimit:4;stroke-dasharray:none;opacity:0.45721401"
       d="m 11.747959,11.922084 2.074561,-2.1014728 1.645967,0.7203148 0.679489,2.490717 -0.890056,2.287349 -3.854319,1.776166 -2.5581744,-0.375759 -1.3744744,-3.702617 1.3600596,-3.8675193 5.6788992,-1.6967134 3.633951,0.241784 0.0043,5.2599087 -0.402068,4.82754 -7.508516,2.748977 L 5.4215691,20.171351 2.4727793,13.060593 4.5383158,4.6724106 15.775588,3.6417903 21.068417,4.8584021 23.028665,12.910036 21.622555,21.999937 8.9108091,24.547814 1.5675171,24.066702 0.19127629,13.03386 1.2275425,1.4310328 16.905358,0.50550735 24.443321,1.5337611 24.854239,12.786916 24.857284,25.022274 8.6908134,25.565047 0.08502242,25.203588 -2.192364,13.103166"
       id="path17980" />
  </g>
  <g
     inkscape:label="Layer 1"
     inkscape:groupmode="layer"
     id="layer1"
     style="display:inline">
    <path
       style="fill:#be2528;fill-opacity:1;stroke:#000000;stroke-width:0.332812px;stroke-linecap:butt;stroke-linejoin:miter;stroke-opacity:1"
       d="M 4.4644635,13.665793 C 4.5445017,7.8715447 4.9297583,0.74493211 12.347334,0.5737016 19.764909,0.4024711 21.89649,7.4692445 20.900838,13.358288 19.905186,19.247332 14.014472,24.886803 10.241654,24.746843 6.4688359,24.606882 4.3844253,19.460039 4.4644635,13.665793 Z"
       id="path855"
       sodipodi:nodetypes="zzzzz" />
    <path
       style="fill:#00daff;fill-opacity:1;stroke:#000000;stroke-width:0.277665px;stroke-linecap:butt;stroke-linejoin:miter;stroke-opacity:1"
       d="m 5.5005326,5.8691639 c 1.9421393,2.0843879 3.0771829,4.1688941 3.9516818,7.6272561 0,0 -1.0583929,5.100589 -3.3592129,3.604656 C 3.7921815,15.605145 5.5005326,5.8691639 5.5005326,5.8691639 Z"
       id="path1901"
       sodipodi:nodetypes="cczc" />
    <path
       style="fill:#00daff;fill-opacity:1;stroke:#000000;stroke-width:0.277665px;stroke-linecap:butt;stroke-linejoin:miter;stroke-opacity:1"
       d="m 17.266009,6.4080933 c -2.092903,1.901595 -5.340095,3.2533455 -6.280001,7.0304047 0,0 1.44452,5.935996 3.58359,4.96564 3.527169,-1.600047 2.696411,-11.9960447 2.696411,-11.9960447 z"
       id="path1903"
       sodipodi:nodetypes="ccsc" />
    <path
       style="fill:none;stroke:#000000;stroke-width:0.138833;stroke-linecap:butt;stroke-linejoin:miter;stroke-miterlimit:4;stroke-dasharray:none;stroke-opacity:1"
       d="M 13.353035,0.81195215 C 11.78461,4.6054465 10.576962,7.9793432 10.247879,12.341079"
       id="path3595"
       sodipodi:nodetypes="cc" />
    <path
       style="fill:none;stroke:#000000;stroke-width:0.138833;stroke-linecap:butt;stroke-linejoin:miter;stroke-miterlimit:4;stroke-dasharray:none;stroke-opacity:1"
       d="M 6.7005233,3.151654 C 8.1192561,5.8230595 9.1972436,8.9008076 9.623873,12.755307"
       id="path3597"
       sodipodi:nodetypes="cc" />
    <path
       style="fill:none;stroke:#000000;stroke-width:0.138833;stroke-linecap:butt;stroke-linejoin:miter;stroke-miterlimit:4;stroke-dasharray:none;stroke-opacity:1"
       d="M 19.478284,4.3165415 C 14.445847,5.4345588 12.070565,8.7091286 10.7447,12.835408"
       id="path3599"
       sodipodi:nodetypes="cc" />
    <path
       style="fill:none;stroke:#000000;stroke-width:0.138833;stroke-linecap:butt;stroke-linejoin:miter;stroke-miterlimit:4;stroke-dasharray:none;stroke-opacity:1"
       d="M 10.349569,24.783093 C 9.4251661,22.823431 9.6876499,16.650533 10.072489,14.139358"
       id="path4037"
       sodipodi:nodetypes="cc" />
    <path
       style="fill:none;stroke:#000000;stroke-width:0.138833;stroke-linecap:butt;stroke-linejoin:miter;stroke-miterlimit:4;stroke-dasharray:none;stroke-opacity:1"
       d="M 6.3408289,22.002714 C 7.5734078,20.728563 9.1407781,16.216085 9.6464981,13.736067"
       id="path4423"
       sodipodi:nodetypes="cc" />
    <path
       style="fill:none;stroke:#000000;stroke-width:0.138833;stroke-linecap:butt;stroke-linejoin:miter;stroke-miterlimit:4;stroke-dasharray:none;stroke-opacity:1"
       d="M 15.687204,22.221805 C 13.118842,21.296369 10.913165,17.703275 10.53128,13.851636"
       id="path4425"
       sodipodi:nodetypes="cc" />
    <path
       style="fill:none;stroke:#000000;stroke-width:0.138833;stroke-linecap:butt;stroke-linejoin:miter;stroke-miterlimit:4;stroke-dasharray:none;stroke-opacity:1"
       d="m 9.2786414,12.995245 c 0.109615,-0.197543 0.2054267,-0.211728 0.3226192,-0.286128 0.2181387,-0.138488 0.4687014,-0.169023 0.6420134,-0.420003"
       id="path4859"
       sodipodi:nodetypes="csc" />
    <path
       style="fill:none;stroke:#000000;stroke-width:0.138833;stroke-linecap:butt;stroke-linejoin:miter;stroke-miterlimit:4;stroke-dasharray:none;stroke-opacity:1"
       d="m 10.262049,12.338267 c 0.135047,0.212296 0.306047,0.379157 0.544135,0.461247 0.0017,0.174603 0.06222,0.296677 0.206751,0.343783"
       id="path4861"
       sodipodi:nodetypes="ccc" />
    <path
       style="fill:none;stroke:#000000;stroke-width:0.138833;stroke-linecap:butt;stroke-linejoin:miter;stroke-miterlimit:4;stroke-dasharray:none;stroke-opacity:1"
       d="m 9.4991046,13.56924 c 5.374e-4,0.123941 0.037853,0.22233 0.1827765,0.245947 0.078174,0.241897 0.2692446,0.287945 0.4361459,0.375922 0.252218,0.05408 0.305256,-0.182014 0.413403,-0.337822 0.237375,0.03025 0.288673,-0.232875 0.395086,-0.409101"
       id="path4863"
       sodipodi:nodetypes="ccccc" />
    <path
       style="fill:none;stroke:#000000;stroke-width:0.138833;stroke-linecap:butt;stroke-linejoin:miter;stroke-miterlimit:4;stroke-dasharray:none;stroke-opacity:1"
       d="m 7.7074488,17.195407 c 0.6912514,-0.216486 0.693064,0.207512 0.7344368,0.594759 0.427806,-0.404838 0.8556122,-0.474487 1.2834184,0.08321 0.480971,-0.54721 1.0451,-0.744974 1.776615,-0.239358 -0.04147,-0.76524 0.407407,-0.656455 0.854633,-0.550601"
       id="path4865"
       sodipodi:nodetypes="ccccc" />
    <path
       style="fill:none;stroke:#000000;stroke-width:0.138833;stroke-linecap:butt;stroke-linejoin:miter;stroke-miterlimit:4;stroke-dasharray:none;stroke-opacity:1"
       d="m 4.7308598,17.012996 c 1.0221924,0.745599 2.3612223,0.622322 2.828401,2.889953 1.6097617,-0.91861 1.4971994,0.309928 2.1588356,0.573305 1.0793416,-1.328881 2.0572376,-0.815987 3.0468706,-0.516158 3.924172,-3.243099 5.869057,-3.257141 7.770765,-4.955589"
       id="path4867"
       sodipodi:nodetypes="ccccc" />
    <path
       style="fill:none;stroke:#000000;stroke-width:0.138833;stroke-linecap:butt;stroke-linejoin:miter;stroke-miterlimit:4;stroke-dasharray:none;stroke-opacity:1"
       d="m 6.3976599,21.962959 c 1.3791846,0.293608 2.6245316,1.231732 3.7777671,2.613433 1.241985,-1.571742 3.140022,-2.162062 5.26894,-2.406994"
       id="path5533"
       sodipodi:nodetypes="ccc" />
    <path
       style="fill:none;stroke:#000000;stroke-width:0.138833;stroke-linecap:butt;stroke-linejoin:miter;stroke-miterlimit:4;stroke-dasharray:none;stroke-opacity:1"
       d="m 8.7213512,10.771866 c 0.3206062,0.17859 0.4258742,-0.03197 0.5775089,-0.158727 0.3781264,0.297764 0.7652099,0.16041 1.1552209,-0.119149 0.218943,0.476796 0.607578,0.496949 1.058006,0.35082 0.07422,0.225122 0.163238,0.428381 0.433794,0.363651"
       id="path5701"
       sodipodi:nodetypes="ccccc" />
    <path
       style="fill:none;stroke:#000000;stroke-width:0.138833;stroke-linecap:butt;stroke-linejoin:miter;stroke-miterlimit:4;stroke-dasharray:none;stroke-opacity:1"
       d="M 6.9345713,7.6457787 C 7.9128744,7.8016998 8.0017595,7.1525729 8.2435563,6.6418524 9.4316948,7.1634963 10.385585,6.4642638 11.401531,6.0884616 c 0.570874,0.8449851 1.541693,1.0548931 2.676368,1.0046142 0.05951,0.5758495 0.279457,1.0266797 1.038876,1.0571625"
       id="path5703"
       sodipodi:nodetypes="ccccc" />
    <path
       style="fill:none;stroke:#000000;stroke-width:0.138833;stroke-linecap:butt;stroke-linejoin:miter;stroke-miterlimit:4;stroke-dasharray:none;stroke-opacity:1"
       d="M 5.5658578,5.7210983 C 5.9241614,6.243805 7.210284,4.4940439 7.1458743,4.2150447 8.6142857,4.9178328 10.922412,2.9753428 13.051155,1.5979499 c 0.635919,1.7924784 1.803689,3.1828592 4.893714,3.1199467 -0.412664,3.9644837 0.243319,7.7155464 0.562062,11.5339584"
       id="path5705"
       sodipodi:nodetypes="ccccc" />
  </g>
</svg>
