<?xml version="1.0" encoding="utf-8"?>
<svg xmlns="http://www.w3.org/2000/svg" xmlns:xlink="http://www.w3.org/1999/xlink" width="600" height="400" viewBox="0 0 2400 1600">
<defs>
  <clipPath id="clip110">
    <rect x="0" y="0" width="2400" height="1600"/>
  </clipPath>
</defs>
<path clip-path="url(#clip110)" d="
M0 1600 L2400 1600 L2400 0 L0 0  Z
  " fill="#ffffff" fill-rule="evenodd" fill-opacity="1"/>
<defs>
  <clipPath id="clip111">
    <rect x="480" y="0" width="1681" height="1600"/>
  </clipPath>
</defs>
<path clip-path="url(#clip110)" d="
M242.135 1423.18 L2352.76 1423.18 L2352.76 47.2441 L242.135 47.2441  Z
  " fill="#ffffff" fill-rule="evenodd" fill-opacity="1"/>
<defs>
  <clipPath id="clip112">
    <rect x="242" y="47" width="2112" height="1377"/>
  </clipPath>
</defs>
<polyline clip-path="url(#clip112)" style="stroke:#000000; stroke-linecap:butt; stroke-linejoin:round; stroke-width:2; stroke-opacity:0.1; fill:none" points="
  301.869,1423.18 301.869,47.2441 
  "/>
<polyline clip-path="url(#clip112)" style="stroke:#000000; stroke-linecap:butt; stroke-linejoin:round; stroke-width:2; stroke-opacity:0.1; fill:none" points="
  799.657,1423.18 799.657,47.2441 
  "/>
<polyline clip-path="url(#clip112)" style="stroke:#000000; stroke-linecap:butt; stroke-linejoin:round; stroke-width:2; stroke-opacity:0.1; fill:none" points="
  1297.45,1423.18 1297.45,47.2441 
  "/>
<polyline clip-path="url(#clip112)" style="stroke:#000000; stroke-linecap:butt; stroke-linejoin:round; stroke-width:2; stroke-opacity:0.1; fill:none" points="
  1795.23,1423.18 1795.23,47.2441 
  "/>
<polyline clip-path="url(#clip112)" style="stroke:#000000; stroke-linecap:butt; stroke-linejoin:round; stroke-width:2; stroke-opacity:0.1; fill:none" points="
  2293.02,1423.18 2293.02,47.2441 
  "/>
<polyline clip-path="url(#clip110)" style="stroke:#000000; stroke-linecap:butt; stroke-linejoin:round; stroke-width:4; stroke-opacity:1; fill:none" points="
  242.135,1423.18 2352.76,1423.18 
  "/>
<polyline clip-path="url(#clip110)" style="stroke:#000000; stroke-linecap:butt; stroke-linejoin:round; stroke-width:4; stroke-opacity:1; fill:none" points="
  301.869,1423.18 301.869,1404.28 
  "/>
<polyline clip-path="url(#clip110)" style="stroke:#000000; stroke-linecap:butt; stroke-linejoin:round; stroke-width:4; stroke-opacity:1; fill:none" points="
  799.657,1423.18 799.657,1404.28 
  "/>
<polyline clip-path="url(#clip110)" style="stroke:#000000; stroke-linecap:butt; stroke-linejoin:round; stroke-width:4; stroke-opacity:1; fill:none" points="
  1297.45,1423.18 1297.45,1404.28 
  "/>
<polyline clip-path="url(#clip110)" style="stroke:#000000; stroke-linecap:butt; stroke-linejoin:round; stroke-width:4; stroke-opacity:1; fill:none" points="
  1795.23,1423.18 1795.23,1404.28 
  "/>
<polyline clip-path="url(#clip110)" style="stroke:#000000; stroke-linecap:butt; stroke-linejoin:round; stroke-width:4; stroke-opacity:1; fill:none" points="
  2293.02,1423.18 2293.02,1404.28 
  "/>
<path clip-path="url(#clip110)" d="M301.869 1454.1 Q298.258 1454.1 296.429 1457.66 Q294.624 1461.2 294.624 1468.33 Q294.624 1475.44 296.429 1479.01 Q298.258 1482.55 301.869 1482.55 Q305.503 1482.55 307.309 1479.01 Q309.138 1475.44 309.138 1468.33 Q309.138 1461.2 307.309 1457.66 Q305.503 1454.1 301.869 1454.1 M301.869 1450.39 Q307.679 1450.39 310.735 1455 Q313.814 1459.58 313.814 1468.33 Q313.814 1477.06 310.735 1481.67 Q307.679 1486.25 301.869 1486.25 Q296.059 1486.25 292.98 1481.67 Q289.925 1477.06 289.925 1468.33 Q289.925 1459.58 292.98 1455 Q296.059 1450.39 301.869 1450.39 Z" fill="#000000" fill-rule="evenodd" fill-opacity="1" /><path clip-path="url(#clip110)" d="M789.935 1451.02 L808.291 1451.02 L808.291 1454.96 L794.217 1454.96 L794.217 1463.43 Q795.236 1463.08 796.254 1462.92 Q797.273 1462.73 798.292 1462.73 Q804.079 1462.73 807.458 1465.9 Q810.838 1469.08 810.838 1474.49 Q810.838 1480.07 807.366 1483.17 Q803.893 1486.25 797.574 1486.25 Q795.398 1486.25 793.13 1485.88 Q790.884 1485.51 788.477 1484.77 L788.477 1480.07 Q790.56 1481.2 792.782 1481.76 Q795.005 1482.32 797.481 1482.32 Q801.486 1482.32 803.824 1480.21 Q806.162 1478.1 806.162 1474.49 Q806.162 1470.88 803.824 1468.77 Q801.486 1466.67 797.481 1466.67 Q795.606 1466.67 793.731 1467.08 Q791.88 1467.5 789.935 1468.38 L789.935 1451.02 Z" fill="#000000" fill-rule="evenodd" fill-opacity="1" /><path clip-path="url(#clip110)" d="M1272.13 1481.64 L1279.77 1481.64 L1279.77 1455.28 L1271.46 1456.95 L1271.46 1452.69 L1279.73 1451.02 L1284.4 1451.02 L1284.4 1481.64 L1292.04 1481.64 L1292.04 1485.58 L1272.13 1485.58 L1272.13 1481.64 Z" fill="#000000" fill-rule="evenodd" fill-opacity="1" /><path clip-path="url(#clip110)" d="M1311.48 1454.1 Q1307.87 1454.1 1306.04 1457.66 Q1304.24 1461.2 1304.24 1468.33 Q1304.24 1475.44 1306.04 1479.01 Q1307.87 1482.55 1311.48 1482.55 Q1315.12 1482.55 1316.92 1479.01 Q1318.75 1475.44 1318.75 1468.33 Q1318.75 1461.2 1316.92 1457.66 Q1315.12 1454.1 1311.48 1454.1 M1311.48 1450.39 Q1317.29 1450.39 1320.35 1455 Q1323.43 1459.58 1323.43 1468.33 Q1323.43 1477.06 1320.35 1481.67 Q1317.29 1486.25 1311.48 1486.25 Q1305.67 1486.25 1302.6 1481.67 Q1299.54 1477.06 1299.54 1468.33 Q1299.54 1459.58 1302.6 1455 Q1305.67 1450.39 1311.48 1450.39 Z" fill="#000000" fill-rule="evenodd" fill-opacity="1" /><path clip-path="url(#clip110)" d="M1770.42 1481.64 L1778.06 1481.64 L1778.06 1455.28 L1769.75 1456.95 L1769.75 1452.69 L1778.01 1451.02 L1782.69 1451.02 L1782.69 1481.64 L1790.33 1481.64 L1790.33 1485.58 L1770.42 1485.58 L1770.42 1481.64 Z" fill="#000000" fill-rule="evenodd" fill-opacity="1" /><path clip-path="url(#clip110)" d="M1799.82 1451.02 L1818.17 1451.02 L1818.17 1454.96 L1804.1 1454.96 L1804.1 1463.43 Q1805.12 1463.08 1806.14 1462.92 Q1807.15 1462.73 1808.17 1462.73 Q1813.96 1462.73 1817.34 1465.9 Q1820.72 1469.08 1820.72 1474.49 Q1820.72 1480.07 1817.25 1483.17 Q1813.77 1486.25 1807.46 1486.25 Q1805.28 1486.25 1803.01 1485.88 Q1800.77 1485.51 1798.36 1484.77 L1798.36 1480.07 Q1800.44 1481.2 1802.66 1481.76 Q1804.89 1482.32 1807.36 1482.32 Q1811.37 1482.32 1813.71 1480.21 Q1816.04 1478.1 1816.04 1474.49 Q1816.04 1470.88 1813.71 1468.77 Q1811.37 1466.67 1807.36 1466.67 Q1805.49 1466.67 1803.61 1467.08 Q1801.76 1467.5 1799.82 1468.38 L1799.82 1451.02 Z" fill="#000000" fill-rule="evenodd" fill-opacity="1" /><path clip-path="url(#clip110)" d="M2271.79 1481.64 L2288.11 1481.64 L2288.11 1485.58 L2266.17 1485.58 L2266.17 1481.64 Q2268.83 1478.89 2273.41 1474.26 Q2278.02 1469.61 2279.2 1468.27 Q2281.45 1465.74 2282.33 1464.01 Q2283.23 1462.25 2283.23 1460.56 Q2283.23 1457.8 2281.29 1456.07 Q2279.36 1454.33 2276.26 1454.33 Q2274.06 1454.33 2271.61 1455.09 Q2269.18 1455.86 2266.4 1457.41 L2266.4 1452.69 Q2269.23 1451.55 2271.68 1450.97 Q2274.13 1450.39 2276.17 1450.39 Q2281.54 1450.39 2284.73 1453.08 Q2287.93 1455.77 2287.93 1460.26 Q2287.93 1462.39 2287.12 1464.31 Q2286.33 1466.2 2284.23 1468.8 Q2283.65 1469.47 2280.54 1472.69 Q2277.44 1475.88 2271.79 1481.64 Z" fill="#000000" fill-rule="evenodd" fill-opacity="1" /><path clip-path="url(#clip110)" d="M2307.93 1454.1 Q2304.32 1454.1 2302.49 1457.66 Q2300.68 1461.2 2300.68 1468.33 Q2300.68 1475.44 2302.49 1479.01 Q2304.32 1482.55 2307.93 1482.55 Q2311.56 1482.55 2313.37 1479.01 Q2315.2 1475.44 2315.2 1468.33 Q2315.2 1461.2 2313.37 1457.66 Q2311.56 1454.1 2307.93 1454.1 M2307.93 1450.39 Q2313.74 1450.39 2316.79 1455 Q2319.87 1459.58 2319.87 1468.33 Q2319.87 1477.06 2316.79 1481.67 Q2313.74 1486.25 2307.93 1486.25 Q2302.12 1486.25 2299.04 1481.67 Q2295.98 1477.06 2295.98 1468.33 Q2295.98 1459.58 2299.04 1455 Q2302.12 1450.39 2307.93 1450.39 Z" fill="#000000" fill-rule="evenodd" fill-opacity="1" /><path clip-path="url(#clip110)" d="M1184.9 1522.27 L1184.9 1532.4 L1196.96 1532.4 L1196.96 1536.95 L1184.9 1536.95 L1184.9 1556.3 Q1184.9 1560.66 1186.08 1561.9 Q1187.29 1563.14 1190.95 1563.14 L1196.96 1563.14 L1196.96 1568.04 L1190.95 1568.04 Q1184.17 1568.04 1181.59 1565.53 Q1179.01 1562.98 1179.01 1556.3 L1179.01 1536.95 L1174.71 1536.95 L1174.71 1532.4 L1179.01 1532.4 L1179.01 1522.27 L1184.9 1522.27 Z" fill="#000000" fill-rule="evenodd" fill-opacity="1" /><path clip-path="url(#clip110)" d="M1204.67 1532.4 L1210.52 1532.4 L1210.52 1568.04 L1204.67 1568.04 L1204.67 1532.4 M1204.67 1518.52 L1210.52 1518.52 L1210.52 1525.93 L1204.67 1525.93 L1204.67 1518.52 Z" fill="#000000" fill-rule="evenodd" fill-opacity="1" /><path clip-path="url(#clip110)" d="M1250.53 1539.24 Q1252.73 1535.29 1255.78 1533.41 Q1258.84 1531.54 1262.97 1531.54 Q1268.54 1531.54 1271.57 1535.45 Q1274.59 1539.33 1274.59 1546.53 L1274.59 1568.04 L1268.7 1568.04 L1268.7 1546.72 Q1268.7 1541.59 1266.89 1539.11 Q1265.08 1536.63 1261.35 1536.63 Q1256.8 1536.63 1254.16 1539.65 Q1251.52 1542.68 1251.52 1547.9 L1251.52 1568.04 L1245.63 1568.04 L1245.63 1546.72 Q1245.63 1541.56 1243.81 1539.11 Q1242 1536.63 1238.21 1536.63 Q1233.72 1536.63 1231.08 1539.68 Q1228.44 1542.71 1228.44 1547.9 L1228.44 1568.04 L1222.55 1568.04 L1222.55 1532.4 L1228.44 1532.4 L1228.44 1537.93 Q1230.45 1534.66 1233.25 1533.1 Q1236.05 1531.54 1239.9 1531.54 Q1243.78 1531.54 1246.49 1533.51 Q1249.23 1535.48 1250.53 1539.24 Z" fill="#000000" fill-rule="evenodd" fill-opacity="1" /><path clip-path="url(#clip110)" d="M1316.77 1548.76 L1316.77 1551.62 L1289.84 1551.62 Q1290.22 1557.67 1293.47 1560.85 Q1296.75 1564 1302.57 1564 Q1305.94 1564 1309.09 1563.17 Q1312.28 1562.35 1315.4 1560.69 L1315.4 1566.23 Q1312.25 1567.57 1308.94 1568.27 Q1305.63 1568.97 1302.22 1568.97 Q1293.69 1568.97 1288.69 1564 Q1283.73 1559.04 1283.73 1550.57 Q1283.73 1541.82 1288.44 1536.69 Q1293.18 1531.54 1301.2 1531.54 Q1308.39 1531.54 1312.56 1536.18 Q1316.77 1540.8 1316.77 1548.76 M1310.91 1547.04 Q1310.85 1542.23 1308.2 1539.37 Q1305.59 1536.5 1301.26 1536.5 Q1296.36 1536.5 1293.4 1539.27 Q1290.47 1542.04 1290.03 1547.07 L1310.91 1547.04 Z" fill="#000000" fill-rule="evenodd" fill-opacity="1" /><path clip-path="url(#clip110)" d="M1361.17 1518.58 Q1356.9 1525.9 1354.83 1533.06 Q1352.76 1540.23 1352.76 1547.58 Q1352.76 1554.93 1354.83 1562.16 Q1356.93 1569.35 1361.17 1576.64 L1356.07 1576.64 Q1351.3 1569.16 1348.91 1561.93 Q1346.56 1554.71 1346.56 1547.58 Q1346.56 1540.48 1348.91 1533.29 Q1351.27 1526.09 1356.07 1518.58 L1361.17 1518.58 Z" fill="#000000" fill-rule="evenodd" fill-opacity="1" /><path clip-path="url(#clip110)" d="M1395.25 1533.45 L1395.25 1538.98 Q1392.77 1537.71 1390.1 1537.07 Q1387.42 1536.44 1384.56 1536.44 Q1380.2 1536.44 1378 1537.77 Q1375.84 1539.11 1375.84 1541.79 Q1375.84 1543.82 1377.4 1545 Q1378.96 1546.15 1383.67 1547.2 L1385.67 1547.64 Q1391.91 1548.98 1394.52 1551.43 Q1397.16 1553.85 1397.16 1558.21 Q1397.16 1563.17 1393.22 1566.07 Q1389.3 1568.97 1382.43 1568.97 Q1379.56 1568.97 1376.44 1568.39 Q1373.36 1567.85 1369.92 1566.74 L1369.92 1560.69 Q1373.17 1562.38 1376.32 1563.24 Q1379.47 1564.07 1382.55 1564.07 Q1386.69 1564.07 1388.92 1562.66 Q1391.15 1561.23 1391.15 1558.65 Q1391.15 1556.27 1389.53 1554.99 Q1387.93 1553.72 1382.49 1552.54 L1380.45 1552.07 Q1375.01 1550.92 1372.59 1548.56 Q1370.17 1546.18 1370.17 1542.04 Q1370.17 1537.01 1373.74 1534.27 Q1377.3 1531.54 1383.86 1531.54 Q1387.11 1531.54 1389.97 1532.01 Q1392.84 1532.49 1395.25 1533.45 Z" fill="#000000" fill-rule="evenodd" fill-opacity="1" /><path clip-path="url(#clip110)" d="M1405.57 1518.58 L1410.66 1518.58 Q1415.43 1526.09 1417.79 1533.29 Q1420.18 1540.48 1420.18 1547.58 Q1420.18 1554.71 1417.79 1561.93 Q1415.43 1569.16 1410.66 1576.64 L1405.57 1576.64 Q1409.8 1569.35 1411.87 1562.16 Q1413.97 1554.93 1413.97 1547.58 Q1413.97 1540.23 1411.87 1533.06 Q1409.8 1525.9 1405.57 1518.58 Z" fill="#000000" fill-rule="evenodd" fill-opacity="1" /><polyline clip-path="url(#clip112)" style="stroke:#000000; stroke-linecap:butt; stroke-linejoin:round; stroke-width:2; stroke-opacity:0.1; fill:none" points="
  242.135,1320.19 2352.76,1320.19 
  "/>
<polyline clip-path="url(#clip112)" style="stroke:#000000; stroke-linecap:butt; stroke-linejoin:round; stroke-width:2; stroke-opacity:0.1; fill:none" points="
  242.135,1136.69 2352.76,1136.69 
  "/>
<polyline clip-path="url(#clip112)" style="stroke:#000000; stroke-linecap:butt; stroke-linejoin:round; stroke-width:2; stroke-opacity:0.1; fill:none" points="
  242.135,953.187 2352.76,953.187 
  "/>
<polyline clip-path="url(#clip112)" style="stroke:#000000; stroke-linecap:butt; stroke-linejoin:round; stroke-width:2; stroke-opacity:0.1; fill:none" points="
  242.135,769.686 2352.76,769.686 
  "/>
<polyline clip-path="url(#clip112)" style="stroke:#000000; stroke-linecap:butt; stroke-linejoin:round; stroke-width:2; stroke-opacity:0.1; fill:none" points="
  242.135,586.185 2352.76,586.185 
  "/>
<polyline clip-path="url(#clip112)" style="stroke:#000000; stroke-linecap:butt; stroke-linejoin:round; stroke-width:2; stroke-opacity:0.1; fill:none" points="
  242.135,402.684 2352.76,402.684 
  "/>
<polyline clip-path="url(#clip112)" style="stroke:#000000; stroke-linecap:butt; stroke-linejoin:round; stroke-width:2; stroke-opacity:0.1; fill:none" points="
  242.135,219.183 2352.76,219.183 
  "/>
<polyline clip-path="url(#clip110)" style="stroke:#000000; stroke-linecap:butt; stroke-linejoin:round; stroke-width:4; stroke-opacity:1; fill:none" points="
  242.135,1423.18 242.135,47.2441 
  "/>
<polyline clip-path="url(#clip110)" style="stroke:#000000; stroke-linecap:butt; stroke-linejoin:round; stroke-width:4; stroke-opacity:1; fill:none" points="
  242.135,1320.19 261.032,1320.19 
  "/>
<polyline clip-path="url(#clip110)" style="stroke:#000000; stroke-linecap:butt; stroke-linejoin:round; stroke-width:4; stroke-opacity:1; fill:none" points="
  242.135,1136.69 261.032,1136.69 
  "/>
<polyline clip-path="url(#clip110)" style="stroke:#000000; stroke-linecap:butt; stroke-linejoin:round; stroke-width:4; stroke-opacity:1; fill:none" points="
  242.135,953.187 261.032,953.187 
  "/>
<polyline clip-path="url(#clip110)" style="stroke:#000000; stroke-linecap:butt; stroke-linejoin:round; stroke-width:4; stroke-opacity:1; fill:none" points="
  242.135,769.686 261.032,769.686 
  "/>
<polyline clip-path="url(#clip110)" style="stroke:#000000; stroke-linecap:butt; stroke-linejoin:round; stroke-width:4; stroke-opacity:1; fill:none" points="
  242.135,586.185 261.032,586.185 
  "/>
<polyline clip-path="url(#clip110)" style="stroke:#000000; stroke-linecap:butt; stroke-linejoin:round; stroke-width:4; stroke-opacity:1; fill:none" points="
  242.135,402.684 261.032,402.684 
  "/>
<polyline clip-path="url(#clip110)" style="stroke:#000000; stroke-linecap:butt; stroke-linejoin:round; stroke-width:4; stroke-opacity:1; fill:none" points="
  242.135,219.183 261.032,219.183 
  "/>
<path clip-path="url(#clip110)" d="M115.256 1320.64 L144.931 1320.64 L144.931 1324.58 L115.256 1324.58 L115.256 1320.64 Z" fill="#000000" fill-rule="evenodd" fill-opacity="1" /><path clip-path="url(#clip110)" d="M159.052 1333.53 L175.371 1333.53 L175.371 1337.47 L153.427 1337.47 L153.427 1333.53 Q156.089 1330.78 160.672 1326.15 Q165.278 1321.5 166.459 1320.15 Q168.704 1317.63 169.584 1315.9 Q170.487 1314.14 170.487 1312.45 Q170.487 1309.69 168.542 1307.96 Q166.621 1306.22 163.519 1306.22 Q161.32 1306.22 158.866 1306.98 Q156.436 1307.75 153.658 1309.3 L153.658 1304.58 Q156.482 1303.44 158.936 1302.86 Q161.39 1302.28 163.427 1302.28 Q168.797 1302.28 171.991 1304.97 Q175.186 1307.65 175.186 1312.15 Q175.186 1314.28 174.376 1316.2 Q173.589 1318.09 171.482 1320.69 Q170.903 1321.36 167.802 1324.58 Q164.7 1327.77 159.052 1333.53 Z" fill="#000000" fill-rule="evenodd" fill-opacity="1" /><path clip-path="url(#clip110)" d="M185.232 1302.91 L203.588 1302.91 L203.588 1306.84 L189.514 1306.84 L189.514 1315.32 Q190.533 1314.97 191.551 1314.81 Q192.57 1314.62 193.588 1314.62 Q199.375 1314.62 202.755 1317.79 Q206.135 1320.96 206.135 1326.38 Q206.135 1331.96 202.662 1335.06 Q199.19 1338.14 192.871 1338.14 Q190.695 1338.14 188.426 1337.77 Q186.181 1337.4 183.774 1336.66 L183.774 1331.96 Q185.857 1333.09 188.079 1333.65 Q190.301 1334.21 192.778 1334.21 Q196.783 1334.21 199.121 1332.1 Q201.459 1329.99 201.459 1326.38 Q201.459 1322.77 199.121 1320.66 Q196.783 1318.56 192.778 1318.56 Q190.903 1318.56 189.028 1318.97 Q187.176 1319.39 185.232 1320.27 L185.232 1302.91 Z" fill="#000000" fill-rule="evenodd" fill-opacity="1" /><path clip-path="url(#clip110)" d="M114.26 1137.14 L143.936 1137.14 L143.936 1141.07 L114.26 1141.07 L114.26 1137.14 Z" fill="#000000" fill-rule="evenodd" fill-opacity="1" /><path clip-path="url(#clip110)" d="M158.056 1150.03 L174.376 1150.03 L174.376 1153.97 L152.431 1153.97 L152.431 1150.03 Q155.093 1147.28 159.677 1142.65 Q164.283 1138 165.464 1136.65 Q167.709 1134.13 168.589 1132.39 Q169.491 1130.64 169.491 1128.95 Q169.491 1126.19 167.547 1124.45 Q165.626 1122.72 162.524 1122.72 Q160.325 1122.72 157.871 1123.48 Q155.44 1124.25 152.663 1125.8 L152.663 1121.08 Q155.487 1119.94 157.94 1119.36 Q160.394 1118.78 162.431 1118.78 Q167.802 1118.78 170.996 1121.47 Q174.19 1124.15 174.19 1128.64 Q174.19 1130.77 173.38 1132.7 Q172.593 1134.59 170.487 1137.19 Q169.908 1137.86 166.806 1141.07 Q163.704 1144.27 158.056 1150.03 Z" fill="#000000" fill-rule="evenodd" fill-opacity="1" /><path clip-path="url(#clip110)" d="M194.19 1122.49 Q190.579 1122.49 188.75 1126.05 Q186.945 1129.59 186.945 1136.72 Q186.945 1143.83 188.75 1147.39 Q190.579 1150.94 194.19 1150.94 Q197.825 1150.94 199.63 1147.39 Q201.459 1143.83 201.459 1136.72 Q201.459 1129.59 199.63 1126.05 Q197.825 1122.49 194.19 1122.49 M194.19 1118.78 Q200 1118.78 203.056 1123.39 Q206.135 1127.97 206.135 1136.72 Q206.135 1145.45 203.056 1150.06 Q200 1154.64 194.19 1154.64 Q188.38 1154.64 185.301 1150.06 Q182.246 1145.45 182.246 1136.72 Q182.246 1127.97 185.301 1123.39 Q188.38 1118.78 194.19 1118.78 Z" fill="#000000" fill-rule="evenodd" fill-opacity="1" /><path clip-path="url(#clip110)" d="M115.256 953.639 L144.931 953.639 L144.931 957.574 L115.256 957.574 L115.256 953.639 Z" fill="#000000" fill-rule="evenodd" fill-opacity="1" /><path clip-path="url(#clip110)" d="M155.834 966.532 L163.473 966.532 L163.473 940.167 L155.163 941.833 L155.163 937.574 L163.427 935.907 L168.102 935.907 L168.102 966.532 L175.741 966.532 L175.741 970.467 L155.834 970.467 L155.834 966.532 Z" fill="#000000" fill-rule="evenodd" fill-opacity="1" /><path clip-path="url(#clip110)" d="M185.232 935.907 L203.588 935.907 L203.588 939.843 L189.514 939.843 L189.514 948.315 Q190.533 947.967 191.551 947.805 Q192.57 947.62 193.588 947.62 Q199.375 947.62 202.755 950.792 Q206.135 953.963 206.135 959.379 Q206.135 964.958 202.662 968.06 Q199.19 971.139 192.871 971.139 Q190.695 971.139 188.426 970.768 Q186.181 970.398 183.774 969.657 L183.774 964.958 Q185.857 966.092 188.079 966.648 Q190.301 967.203 192.778 967.203 Q196.783 967.203 199.121 965.097 Q201.459 962.991 201.459 959.379 Q201.459 955.768 199.121 953.662 Q196.783 951.555 192.778 951.555 Q190.903 951.555 189.028 951.972 Q187.176 952.389 185.232 953.268 L185.232 935.907 Z" fill="#000000" fill-rule="evenodd" fill-opacity="1" /><path clip-path="url(#clip110)" d="M114.26 770.138 L143.936 770.138 L143.936 774.073 L114.26 774.073 L114.26 770.138 Z" fill="#000000" fill-rule="evenodd" fill-opacity="1" /><path clip-path="url(#clip110)" d="M154.839 783.031 L162.477 783.031 L162.477 756.666 L154.167 758.332 L154.167 754.073 L162.431 752.406 L167.107 752.406 L167.107 783.031 L174.746 783.031 L174.746 786.966 L154.839 786.966 L154.839 783.031 Z" fill="#000000" fill-rule="evenodd" fill-opacity="1" /><path clip-path="url(#clip110)" d="M194.19 755.485 Q190.579 755.485 188.75 759.05 Q186.945 762.591 186.945 769.721 Q186.945 776.827 188.75 780.392 Q190.579 783.934 194.19 783.934 Q197.825 783.934 199.63 780.392 Q201.459 776.827 201.459 769.721 Q201.459 762.591 199.63 759.05 Q197.825 755.485 194.19 755.485 M194.19 751.781 Q200 751.781 203.056 756.388 Q206.135 760.971 206.135 769.721 Q206.135 778.448 203.056 783.054 Q200 787.638 194.19 787.638 Q188.38 787.638 185.301 783.054 Q182.246 778.448 182.246 769.721 Q182.246 760.971 185.301 756.388 Q188.38 751.781 194.19 751.781 Z" fill="#000000" fill-rule="evenodd" fill-opacity="1" /><path clip-path="url(#clip110)" d="M145.417 586.637 L175.093 586.637 L175.093 590.572 L145.417 590.572 L145.417 586.637 Z" fill="#000000" fill-rule="evenodd" fill-opacity="1" /><path clip-path="url(#clip110)" d="M185.232 568.905 L203.588 568.905 L203.588 572.84 L189.514 572.84 L189.514 581.313 Q190.533 580.965 191.551 580.803 Q192.57 580.618 193.588 580.618 Q199.375 580.618 202.755 583.789 Q206.135 586.961 206.135 592.377 Q206.135 597.956 202.662 601.058 Q199.19 604.137 192.871 604.137 Q190.695 604.137 188.426 603.766 Q186.181 603.396 183.774 602.655 L183.774 597.956 Q185.857 599.09 188.079 599.646 Q190.301 600.201 192.778 600.201 Q196.783 600.201 199.121 598.095 Q201.459 595.988 201.459 592.377 Q201.459 588.766 199.121 586.66 Q196.783 584.553 192.778 584.553 Q190.903 584.553 189.028 584.97 Q187.176 585.387 185.232 586.266 L185.232 568.905 Z" fill="#000000" fill-rule="evenodd" fill-opacity="1" /><path clip-path="url(#clip110)" d="M194.19 388.483 Q190.579 388.483 188.75 392.048 Q186.945 395.589 186.945 402.719 Q186.945 409.825 188.75 413.39 Q190.579 416.932 194.19 416.932 Q197.825 416.932 199.63 413.39 Q201.459 409.825 201.459 402.719 Q201.459 395.589 199.63 392.048 Q197.825 388.483 194.19 388.483 M194.19 384.779 Q200 384.779 203.056 389.386 Q206.135 393.969 206.135 402.719 Q206.135 411.446 203.056 416.052 Q200 420.636 194.19 420.636 Q188.38 420.636 185.301 416.052 Q182.246 411.446 182.246 402.719 Q182.246 393.969 185.301 389.386 Q188.38 384.779 194.19 384.779 Z" fill="#000000" fill-rule="evenodd" fill-opacity="1" /><path clip-path="url(#clip110)" d="M185.232 201.903 L203.588 201.903 L203.588 205.838 L189.514 205.838 L189.514 214.311 Q190.533 213.963 191.551 213.801 Q192.57 213.616 193.588 213.616 Q199.375 213.616 202.755 216.787 Q206.135 219.959 206.135 225.375 Q206.135 230.954 202.662 234.056 Q199.19 237.135 192.871 237.135 Q190.695 237.135 188.426 236.764 Q186.181 236.394 183.774 235.653 L183.774 230.954 Q185.857 232.088 188.079 232.644 Q190.301 233.199 192.778 233.199 Q196.783 233.199 199.121 231.093 Q201.459 228.986 201.459 225.375 Q201.459 221.764 199.121 219.658 Q196.783 217.551 192.778 217.551 Q190.903 217.551 189.028 217.968 Q187.176 218.385 185.232 219.264 L185.232 201.903 Z" fill="#000000" fill-rule="evenodd" fill-opacity="1" /><path clip-path="url(#clip110)" d="M32.6711 737.625 Q38.0817 737.625 44.1686 739.364 Q50.2233 741.071 55.1186 743.777 Q59.9817 746.482 63.2023 750.025 Q66.3907 753.567 66.3907 756.949 Q66.3907 759.107 65.1991 760.717 Q63.9752 762.295 61.9463 763.165 Q59.8851 764.034 57.6307 764.453 Q55.3441 764.871 52.8642 764.871 Q49.1605 764.871 45.1348 764.066 Q41.0769 763.261 37.4054 761.909 Q33.7017 760.556 30.3523 758.656 Q26.9707 756.756 24.5231 754.662 Q22.0432 752.537 20.5939 750.153 Q19.1447 747.77 19.1447 745.548 Q19.1447 743.938 19.8532 742.649 Q20.5295 741.329 21.7211 740.492 Q22.8806 739.654 24.2654 739.075 Q25.6503 738.463 27.2606 738.173 Q28.8386 737.883 30.1591 737.754 Q31.4473 737.625 32.6711 737.625 M28.581 741.973 Q26.9385 741.973 25.7147 742.102 Q24.4586 742.231 23.2026 742.585 Q21.9466 742.939 21.2703 743.712 Q20.5939 744.453 20.5939 745.612 Q20.5939 748.994 27.5182 752.794 Q29.676 754.018 32.6067 755.113 Q35.5375 756.208 36.9223 756.595 Q38.3072 756.981 41.721 757.883 L41.721 744.099 Q32.9288 741.973 28.581 741.973 M43.8144 744.678 L43.8144 758.398 Q51.8658 760.524 56.8899 760.524 Q61.2699 760.524 63.1057 759.622 Q64.9092 758.688 64.9092 756.949 Q64.9092 754.952 62.9124 753.084 Q60.8835 751.216 57.212 749.316 Q52.4455 746.804 43.8144 744.678 Z" fill="#000000" fill-rule="evenodd" fill-opacity="1" /><path clip-path="url(#clip110)" d="M84.6609 730.847 Q83.8267 730.847 83.5788 730.779 Q83.3308 730.689 82.9475 730.329 L73.0732 721.469 Q67.6175 716.622 62.8607 716.622 Q59.7722 716.622 57.5629 718.245 Q55.3535 719.846 55.3535 722.799 Q55.3535 724.828 56.5935 726.541 Q57.8334 728.255 60.0427 729.044 Q59.9976 728.908 59.9976 728.435 Q59.9976 727.285 60.719 726.654 Q61.4405 726 62.4098 726 Q63.6498 726 64.2585 726.812 Q64.8446 727.601 64.8446 728.39 Q64.8446 728.705 64.777 729.134 Q64.7093 729.54 64.0781 730.193 Q63.4243 730.847 62.2746 730.847 Q59.0508 730.847 56.4807 728.412 Q53.9107 725.955 53.9107 722.213 Q53.9107 717.974 56.4357 715.202 Q58.9381 712.406 62.8607 712.406 Q64.2359 712.406 65.4984 712.834 Q66.7383 713.24 67.7077 713.804 Q68.6771 714.345 70.2327 715.833 Q71.7882 717.321 72.8929 718.516 Q73.9975 719.71 76.3421 722.393 L81.0989 727.285 L81.0989 718.966 Q81.0989 714.908 80.7382 714.593 Q80.0844 714.142 76.6352 713.578 L76.6352 712.406 L84.6609 713.714 L84.6609 730.847 Z" fill="#000000" fill-rule="evenodd" fill-opacity="1" /><polyline clip-path="url(#clip112)" style="stroke:#009af9; stroke-linecap:butt; stroke-linejoin:round; stroke-width:4; stroke-opacity:1; fill:none" points="
  301.869,329.284 305.86,329.284 309.85,329.28 313.84,329.264 317.83,329.233 321.821,329.191 325.811,329.174 329.801,329.257 333.792,329.558 337.782,330.236 
  341.772,331.47 345.762,333.443 349.753,336.33 353.743,340.285 357.733,345.434 361.724,351.865 365.714,359.685 369.704,368.951 373.694,379.647 377.685,391.331 
  381.675,402.904 385.665,413.299 389.655,422.138 393.646,429.292 397.636,434.674 401.626,438.232 405.617,440.041 409.607,440.412 413.597,440.055 417.587,439.863 
  421.578,440.36 425.568,441.61 429.558,443.47 433.549,445.746 437.539,448.267 441.529,450.887 445.519,453.492 449.51,455.997 453.5,458.338 457.49,460.477 
  461.481,462.392 465.471,464.078 469.461,465.547 473.451,466.822 477.442,467.947 481.432,468.971 485.422,469.945 489.413,470.912 493.403,471.878 497.393,472.782 
  501.383,473.484 505.374,473.782 509.364,473.471 513.354,472.341 517.345,470.187 521.335,466.85 525.325,462.21 529.315,456.179 533.306,448.717 537.296,439.699 
  541.286,429.073 545.277,416.902 549.267,404.094 553.257,392.21 557.247,381.957 561.238,373.423 565.228,366.648 569.218,361.706 573.209,358.639 577.199,357.409 
  581.189,357.755 585.179,359.077 589.17,360.454 593.16,361.222 597.15,361.267 601.141,360.742 605.131,359.846 609.121,358.764 613.111,357.647 617.102,356.617 
  621.092,355.774 625.082,355.192 629.073,354.931 633.063,355.034 637.053,355.533 641.043,356.449 645.034,357.792 649.024,359.565 653.014,361.76 657.005,364.358 
  660.995,367.324 664.985,370.613 668.975,374.148 672.966,377.825 676.956,381.505 680.946,384.995 684.937,388.061 688.927,390.429 692.917,391.791 696.907,391.755 
  700.898,389.852 704.888,385.55 708.878,379.451 712.869,374.694 716.859,372.917 720.849,373.938 724.839,377.433 728.83,383.048 732.82,390.391 736.81,399.092 
  740.801,408.937 744.791,419.975 748.781,432.566 752.771,446.24 756.762,458.964 760.752,469.978 764.742,479.78 768.733,488.816 772.723,497.37 776.713,505.636 
  780.703,513.754 784.694,521.853 788.684,530.05 792.674,538.469 796.665,547.226 800.655,556.391 804.645,565.931 808.635,575.629 812.626,585.104 816.616,594.016 
  820.606,602.281 824.597,610.097 828.587,617.842 832.577,626.087 836.567,635.677 840.558,648.148 844.548,663.293 848.538,675.471 852.529,684.274 856.519,690.917 
  860.509,695.912 864.499,699.415 868.49,701.502 872.48,702.338 876.47,702.268 880.461,701.755 884.451,701.208 888.441,700.872 892.431,700.815 896.422,700.99 
  900.412,701.301 904.402,701.641 908.393,701.918 912.383,702.058 916.373,702.005 920.363,701.72 924.354,701.184 928.344,700.39 932.334,699.346 936.325,698.076 
  940.315,696.612 944.305,695.021 948.295,693.378 952.286,691.742 956.276,690.162 960.266,688.616 964.257,686.954 968.247,684.93 972.237,682.251 976.227,678.668 
  980.218,673.965 984.208,667.893 988.198,659.915 992.188,648.89 996.179,633.778 1000.17,620.357 1004.16,610.831 1008.15,603.537 1012.14,597.606 1016.13,592.595 
  1020.12,588.208 1024.11,584.201 1028.1,580.368 1032.09,576.575 1036.08,572.791 1040.07,569.062 1044.06,565.456 1048.05,562.027 1052.04,558.808 1056.03,555.809 
  1060.02,553.028 1064.01,550.445 1068,548.03 1071.99,545.735 1075.98,543.492 1079.97,541.216 1083.97,538.798 1087.96,536.105 1091.95,532.982 1095.94,529.256 
  1099.93,524.753 1103.92,519.314 1107.91,512.799 1111.9,505.144 1115.89,496.405 1119.88,486.709 1123.87,476.252 1127.86,465.243 1131.85,453.721 1135.84,441.474 
  1139.83,427.806 1143.82,411.342 1147.81,393.445 1151.8,378.353 1155.79,365.399 1159.78,353.486 1163.77,342.219 1167.76,331.61 1171.75,321.898 1175.74,313.38 
  1179.73,306.286 1183.72,300.71 1187.71,296.604 1191.7,293.811 1195.69,292.121 1199.68,291.304 1203.67,291.148 1207.66,291.465 1211.65,292.096 1215.64,292.914 
  1219.63,293.817 1223.63,294.731 1227.62,295.606 1231.61,296.418 1235.6,297.169 1239.59,297.89 1243.58,298.638 1247.57,299.495 1251.56,300.567 1255.55,301.986 
  1259.54,303.896 1263.53,306.448 1267.52,309.802 1271.51,314.119 1275.5,319.503 1279.49,326.014 1283.48,333.679 1287.47,342.495 1291.46,352.522 1295.45,363.973 
  1299.44,377.325 1303.43,392.569 1307.42,407.327 1311.41,420.004 1315.4,430.898 1319.39,440.219 1323.38,447.883 1327.37,453.697 1331.36,457.495 1335.35,459.199 
  1339.34,458.813 1343.33,456.341 1347.32,452.138 1351.31,447.346 1355.3,443.319 1359.29,440.371 1363.28,438.213 1367.28,436.537 1371.27,435.107 1375.26,433.744 
  1379.25,432.307 1383.24,430.681 1387.23,428.771 1391.22,426.491 1395.21,423.766 1399.2,420.524 1403.19,416.7 1407.18,412.24 1411.17,407.109 1415.16,401.304 
  1419.15,394.871 1423.14,387.907 1427.13,380.55 1431.12,372.945 1435.11,365.234 1439.1,357.536 1443.09,349.913 1447.08,342.442 1451.07,335.223 1455.06,328.402 
  1459.05,322.333 1463.04,317.389 1467.03,313.924 1471.02,312.253 1475.01,312.45 1479,314.398 1482.99,317.89 1486.98,322.784 1490.97,329.119 1494.96,337.142 
  1498.95,347.438 1502.94,359.118 1506.94,369.602 1510.93,378.531 1514.92,386.737 1518.91,394.814 1522.9,403.127 1526.89,411.907 1530.88,421.225 1534.87,430.962 
  1538.86,440.809 1542.85,450.298 1546.84,458.91 1550.83,466.127 1554.82,471.485 1558.81,474.677 1562.8,475.593 1566.79,474.344 1570.78,471.055 1574.77,465.765 
  1578.76,458.128 1582.75,447.534 1586.74,435.386 1590.73,425.295 1594.72,417.174 1598.71,410.004 1602.7,403.128 1606.69,396.11 1610.68,388.608 1614.67,380.378 
  1618.66,371.32 1622.65,361.532 1626.64,351.282 1630.63,340.855 1634.62,330.458 1638.61,320.139 1642.6,309.853 1646.6,299.51 1650.59,289.045 1654.58,278.432 
  1658.57,267.684 1662.56,256.839 1666.55,245.87 1670.54,234.643 1674.53,222.792 1678.52,209.566 1682.51,193.577 1686.5,176.039 1690.49,161.099 1694.48,148.239 
  1698.47,136.382 1702.46,125.185 1706.45,114.759 1710.44,105.477 1714.43,97.7695 1718.42,91.9563 1722.41,88.1557 1726.4,86.2959 1730.39,86.1857 1734.38,87.6113 
  1738.37,90.4041 1742.36,94.4756 1746.35,99.8688 1750.34,106.391 1754.33,113.292 1758.32,119.76 1762.31,125.571 1766.3,131.037 1770.29,136.41 1774.28,141.887 
  1778.27,147.614 1782.26,153.681 1786.26,160.127 1790.25,166.934 1794.24,173.984 1798.23,181.067 1802.22,187.809 1806.21,193.78 1810.2,198.544 1814.19,201.666 
  1818.18,202.817 1822.17,201.735 1826.16,198.115 1830.15,191.293 1834.14,180.547 1838.13,169.751 1842.12,162.711 1846.11,158.543 1850.1,156.471 1854.09,156.089 
  1858.08,157.124 1862.07,159.317 1866.06,162.393 1870.05,166.074 1874.04,170.097 1878.03,174.236 1882.02,178.307 1886.01,182.166 1890,185.709 1893.99,188.858 
  1897.98,191.562 1901.97,193.788 1905.96,195.513 1909.95,196.721 1913.94,197.405 1917.93,197.557 1921.92,197.171 1925.92,196.241 1929.91,194.761 1933.9,192.728 
  1937.89,190.136 1941.88,186.987 1945.87,183.292 1949.86,179.071 1953.85,174.364 1957.84,169.229 1961.83,163.736 1965.82,157.977 1969.81,152.049 1973.8,146.009 
  1977.79,139.915 1981.78,133.849 1985.77,127.905 1989.76,122.182 1993.75,116.895 1997.74,112.346 2001.73,108.886 2005.72,106.929 2009.71,106.744 2013.7,108.447 
  2017.69,112.034 2021.68,117.533 2025.67,125.315 2029.66,136.289 2033.65,150.41 2037.64,162.417 2041.63,171.595 2045.62,179.31 2049.61,186.415 2053.6,193.438 
  2057.59,200.775 2061.58,208.688 2065.58,217.232 2069.57,226.21 2073.56,235.265 2077.55,244.092 2081.54,252.553 2085.53,260.648 2089.52,268.465 2093.51,276.107 
  2097.5,283.683 2101.49,291.301 2105.48,299.052 2109.47,307.037 2113.46,315.363 2117.45,324.171 2121.44,333.691 2125.43,344.258 2129.42,356.374 2133.41,370.043 
  2137.4,383.386 2141.39,395.108 2145.38,405.428 2149.37,414.501 2153.36,422.185 2157.35,428.157 2161.34,432.053 2165.33,433.531 2169.32,432.278 2173.31,428.185 
  2177.3,422.631 2181.29,418.484 2185.28,416.588 2189.27,416.5 2193.26,417.752 2197.25,419.968 2201.24,422.839 2205.24,426.098 2209.23,429.527 2213.22,432.948 
  2217.21,436.225 2221.2,439.258 2225.19,441.975 2229.18,444.326 2233.17,446.278 2237.16,447.811 2241.15,448.917 2245.14,449.597 2249.13,449.862 2253.12,449.734 
  2257.11,449.244 2261.1,448.437 2265.09,447.373 2269.08,446.132 2273.07,444.812 2277.06,443.544 2281.05,442.487 2285.04,441.823 2289.03,441.779 2293.02,442.542 
  
  "/>
<polyline clip-path="url(#clip112)" style="stroke:#e26f46; stroke-linecap:butt; stroke-linejoin:round; stroke-width:4; stroke-opacity:1; fill:none" points="
  301.869,329.247 305.86,329.247 309.85,329.242 313.84,329.226 317.83,329.193 321.821,329.15 325.811,329.131 329.801,329.213 333.792,329.514 337.782,330.193 
  341.772,331.428 345.762,333.403 349.753,336.292 353.743,340.25 357.733,345.402 361.724,351.836 365.714,359.661 369.704,368.929 373.694,379.629 377.685,391.32 
  381.675,402.9 385.665,413.3 389.655,422.143 393.646,429.3 397.636,434.683 401.626,438.243 405.617,440.05 409.607,440.418 413.597,440.055 417.587,439.856 
  421.578,440.347 425.568,441.593 429.558,443.449 433.549,445.723 437.539,448.242 441.529,450.859 445.519,453.462 449.51,455.964 453.5,458.303 457.49,460.439 
  461.481,462.349 465.471,464.03 469.461,465.492 473.451,466.759 477.442,467.873 481.432,468.884 485.422,469.843 489.413,470.794 493.403,471.745 497.393,472.639 
  501.383,473.337 505.374,473.64 509.364,473.34 513.354,472.23 517.345,470.104 521.335,466.796 525.325,462.187 529.315,456.187 533.306,448.766 537.296,439.793 
  541.286,429.193 545.277,417.076 549.267,404.3 553.257,392.402 557.247,382.129 561.238,373.569 565.228,366.773 569.218,361.812 573.209,358.727 577.199,357.474 
  581.189,357.801 585.179,359.094 589.17,360.441 593.16,361.19 597.15,361.217 601.141,360.672 605.131,359.758 609.121,358.656 613.111,357.519 617.102,356.469 
  621.092,355.603 625.082,354.999 629.073,354.715 633.063,354.794 637.053,355.269 641.043,356.16 645.034,357.476 649.024,359.22 653.014,361.387 657.005,363.955 
  660.995,366.89 664.985,370.144 668.975,373.645 672.966,377.288 676.956,380.93 680.946,384.394 684.937,387.442 688.927,389.794 692.917,391.133 696.907,391.111 
  700.898,389.192 704.888,384.894 708.878,378.93 712.869,374.342 716.859,372.693 720.849,373.84 724.839,377.452 728.83,383.175 732.82,390.622 736.81,399.431 
  740.801,409.408 744.791,420.625 748.781,433.436 752.771,447.152 756.762,459.736 760.752,470.635 764.742,480.37 768.733,489.369 772.723,497.893 776.713,506.125 
  780.703,514.2 784.694,522.236 788.684,530.35 792.674,538.657 796.665,547.278 800.655,556.292 804.645,565.695 808.635,575.312 812.626,584.8 816.616,593.78 
  820.606,602.096 824.597,609.874 828.587,617.449 832.577,625.312 836.567,634.173 840.558,645.277 844.548,659.771 848.538,673.148 852.529,682.755 856.519,689.846 
  860.509,695.093 864.499,698.709 868.49,700.745 872.48,701.29 876.47,700.612 880.461,699.144 884.451,697.348 888.441,695.572 892.431,693.988 896.422,692.641 
  900.412,691.476 904.402,690.402 908.393,689.325 912.383,688.15 916.373,686.801 920.363,685.212 924.354,683.335 928.344,681.128 932.334,678.561 936.325,675.617 
  940.315,672.293 944.305,668.604 948.295,664.608 952.286,660.398 956.276,656.108 960.266,651.906 964.257,647.94 968.247,644.302 972.237,640.995 976.227,637.933 
  980.218,634.991 984.208,631.998 988.198,628.748 992.188,624.99 996.179,620.327 1000.17,614.188 1004.16,605.732 1008.15,595.193 1012.14,586.556 1016.13,581.171 
  1020.12,578.533 1024.11,578.418 1028.1,580.769 1032.09,585.486 1036.08,592.276 1040.07,600.64 1044.06,610.017 1048.05,619.898 1052.04,630.014 1056.03,640.4 
  1060.02,651.485 1064.01,664.161 1068,678.641 1071.99,691.952 1075.98,702.961 1079.97,712.528 1083.97,721.301 1087.96,729.682 1091.95,737.942 1095.94,746.3 
  1099.93,754.894 1103.92,763.709 1107.91,772.556 1111.9,781.222 1115.89,789.706 1119.88,798.232 1123.87,807.19 1127.86,817.166 1131.85,829.247 1135.84,845.092 
  1139.83,861.417 1143.82,874.158 1147.81,885.049 1151.8,895.396 1155.79,905.951 1159.78,917.175 1163.77,929.236 1167.76,941.989 1171.75,955.1 1175.74,968.264 
  1179.73,981.287 1183.72,994.031 1187.71,1006.39 1191.7,1018.32 1195.69,1029.93 1199.68,1041.5 1203.67,1053.65 1207.66,1067.5 1211.65,1084.75 1215.64,1102.33 
  1219.63,1116.55 1223.63,1129.04 1227.62,1140.98 1231.61,1152.89 1235.6,1164.86 1239.59,1176.72 1243.58,1188.14 1247.57,1198.82 1251.56,1208.56 1255.55,1217.28 
  1259.54,1224.98 1263.53,1231.74 1267.52,1237.67 1271.51,1242.93 1275.5,1247.66 1279.49,1252.03 1283.48,1256.19 1287.47,1260.28 1291.46,1264.4 1295.45,1268.67 
  1299.44,1273.15 1303.43,1277.92 1307.42,1283 1311.41,1288.39 1315.4,1294.02 1319.39,1299.76 1323.38,1305.42 1327.37,1310.83 1331.36,1315.81 1335.35,1320.29 
  1339.34,1324.27 1343.33,1327.84 1347.32,1331.13 1351.31,1334.29 1355.3,1337.52 1359.29,1341.04 1363.28,1345.17 1367.28,1350.36 1371.27,1357.25 1375.26,1366.13 
  1379.25,1374.72 1383.24,1380.55 1387.23,1383.64 1391.22,1384.24 1395.21,1382.38 1399.2,1378.12 1403.19,1371.63 1407.18,1363.33 1411.17,1353.76 1415.16,1343.37 
  1419.15,1332.41 1423.14,1320.69 1427.13,1307.48 1431.12,1291.88 1435.11,1276.69 1439.1,1264.14 1443.09,1253.24 1447.08,1243.16 1451.07,1233.41 1455.06,1223.68 
  1459.05,1213.71 1463.04,1203.32 1467.03,1192.42 1471.02,1181.07 1475.01,1169.62 1479,1158.53 1482.99,1148.14 1486.98,1138.41 1490.97,1128.96 1494.96,1119.2 
  1498.95,1108.19 1502.94,1094.18 1506.94,1077.08 1510.93,1063.12 1514.92,1052.38 1518.91,1043.22 1522.9,1034.79 1526.89,1026.59 1530.88,1018.29 1534.87,1009.76 
  1538.86,1001.11 1542.85,992.604 1546.84,984.376 1550.83,976.402 1554.82,968.556 1558.81,960.674 1562.8,952.561 1566.79,943.967 1570.78,934.545 1574.77,923.719 
  1578.76,911.113 1582.75,898.139 1586.74,886.605 1590.73,876.283 1594.72,866.668 1598.71,857.601 1602.7,849.217 1606.69,841.864 1610.68,836.015 1614.67,832.128 
  1618.66,830.568 1622.65,831.674 1626.64,835.868 1630.63,843.415 1634.62,851.728 1638.61,857.289 1642.6,860.264 1646.6,861.35 1650.59,861.014 1654.58,859.598 
  1658.57,857.391 1662.56,854.656 1666.55,851.632 1670.54,848.522 1674.53,845.494 1678.52,842.681 1682.51,840.182 1686.5,838.07 1690.49,836.397 1694.48,835.2 
  1698.47,834.507 1702.46,834.335 1706.45,834.698 1710.44,835.604 1714.43,837.061 1718.42,839.071 1722.41,841.629 1726.4,844.725 1730.39,848.338 1734.38,852.421 
  1738.37,856.902 1742.36,861.677 1746.35,866.58 1750.34,871.403 1754.33,875.898 1758.32,879.775 1762.31,882.708 1766.3,884.388 1770.29,884.541 1774.28,882.916 
  1778.27,879.157 1782.26,872.611 1786.26,862.199 1790.25,850.744 1794.24,843.095 1798.23,838.719 1802.22,836.83 1806.21,837.053 1810.2,839.135 1814.19,842.792 
  1818.18,847.666 1822.17,853.359 1826.16,859.482 1830.15,865.697 1834.14,871.745 1838.13,877.449 1842.12,882.71 1846.11,887.485 1850.1,891.769 1854.09,895.589 
  1858.08,898.983 1862.07,902.002 1866.06,904.711 1870.05,907.186 1874.04,909.524 1878.03,911.851 1882.02,914.311 1886.01,917.077 1890,920.26 1893.99,923.692 
  1897.98,926.874 1901.97,929.141 1905.96,930.107 1909.95,929.584 1913.94,927.442 1917.93,923.601 1921.92,918.032 1925.92,910.784 1929.91,901.917 1933.9,891.413 
  1937.89,879.145 1941.88,864.879 1945.87,849.997 1949.86,836.786 1953.85,825.515 1957.84,815.863 1961.83,807.717 1965.82,801.095 1969.81,796.034 1973.8,792.514 
  1977.79,790.452 1981.78,789.716 1985.77,790.149 1989.76,791.578 1993.75,793.781 1997.74,796.483 2001.73,799.363 2005.72,802.195 2009.71,804.908 2013.7,807.559 
  2017.69,810.242 2021.68,813.051 2025.67,816.058 2029.66,819.319 2033.65,822.869 2037.64,826.723 2041.63,830.88 2045.62,835.314 2049.61,839.962 2053.6,844.726 
  2057.59,849.44 2061.58,853.883 2065.58,857.786 2069.57,860.834 2073.56,862.67 2077.55,862.893 2081.54,861.051 2085.53,856.461 2089.52,849.333 2093.51,843.094 
  2097.5,840.069 2101.49,840.01 2105.48,842.463 2109.47,847.03 2113.46,853.286 2117.45,860.789 2121.44,869.172 2125.43,878.232 2129.42,888.019 2133.41,898.845 
  2137.4,910.913 2141.39,923.044 2145.38,933.756 2149.37,943.125 2153.36,951.611 2157.35,959.554 2161.34,967.192 2165.33,974.709 2169.32,982.253 2173.31,989.966 
  2177.3,997.942 2181.29,1006.18 2185.28,1014.52 2189.27,1022.75 2193.26,1030.75 2197.25,1038.71 2201.24,1046.96 2205.24,1056.01 2209.23,1066.76 2213.22,1080.91 
  2217.21,1097.9 2221.2,1111.42 2225.19,1122.04 2229.18,1131.38 2233.17,1140.33 2237.16,1149.45 2241.15,1159.1 2245.14,1169.32 2249.13,1179.81 2253.12,1190.11 
  2257.11,1199.98 2261.1,1209.37 2265.09,1218.42 2269.08,1227.31 2273.07,1236.24 2277.06,1245.47 2281.05,1255.35 2285.04,1266.45 2289.03,1279.52 2293.02,1293.92 
  
  "/>
<path clip-path="url(#clip110)" d="
M1773.58 248.629 L2282.4 248.629 L2282.4 93.1086 L1773.58 93.1086  Z
  " fill="#ffffff" fill-rule="evenodd" fill-opacity="1"/>
<polyline clip-path="url(#clip110)" style="stroke:#000000; stroke-linecap:butt; stroke-linejoin:round; stroke-width:4; stroke-opacity:1; fill:none" points="
  1773.58,248.629 2282.4,248.629 2282.4,93.1086 1773.58,93.1086 1773.58,248.629 
  "/>
<polyline clip-path="url(#clip110)" style="stroke:#009af9; stroke-linecap:butt; stroke-linejoin:round; stroke-width:4; stroke-opacity:1; fill:none" points="
  1797.03,144.949 1937.74,144.949 
  "/>
<path clip-path="url(#clip110)" d="M1981 138.778 Q1981 142.713 1979.74 147.14 Q1978.5 151.544 1976.53 155.104 Q1974.56 158.641 1971.99 160.983 Q1969.41 163.302 1966.95 163.302 Q1965.38 163.302 1964.21 162.435 Q1963.06 161.545 1962.43 160.069 Q1961.8 158.57 1961.49 156.931 Q1961.19 155.268 1961.19 153.464 Q1961.19 150.771 1961.77 147.843 Q1962.36 144.892 1963.34 142.221 Q1964.33 139.528 1965.71 137.092 Q1967.09 134.633 1968.61 132.853 Q1970.16 131.049 1971.89 129.995 Q1973.63 128.941 1975.24 128.941 Q1976.41 128.941 1977.35 129.456 Q1978.31 129.948 1978.92 130.815 Q1979.53 131.658 1979.95 132.665 Q1980.4 133.672 1980.61 134.843 Q1980.82 135.991 1980.91 136.951 Q1981 137.888 1981 138.778 M1977.84 135.804 Q1977.84 134.609 1977.75 133.719 Q1977.66 132.806 1977.4 131.892 Q1977.14 130.979 1976.58 130.487 Q1976.04 129.995 1975.2 129.995 Q1972.74 129.995 1969.97 135.031 Q1969.08 136.6 1968.29 138.732 Q1967.49 140.863 1967.21 141.87 Q1966.93 142.877 1966.27 145.36 L1976.3 145.36 Q1977.84 138.966 1977.84 135.804 M1975.88 146.883 L1965.9 146.883 Q1964.35 152.738 1964.35 156.392 Q1964.35 159.578 1965.01 160.913 Q1965.69 162.224 1966.95 162.224 Q1968.4 162.224 1969.76 160.772 Q1971.12 159.296 1972.5 156.626 Q1974.33 153.16 1975.88 146.883 Z" fill="#000000" fill-rule="evenodd" fill-opacity="1" /><path clip-path="url(#clip110)" d="M1985.92 176.583 Q1985.92 175.977 1985.97 175.796 Q1986.03 175.616 1986.3 175.337 L1992.74 168.156 Q1996.26 164.188 1996.26 160.729 Q1996.26 158.482 1995.08 156.876 Q1993.92 155.269 1991.77 155.269 Q1990.3 155.269 1989.05 156.171 Q1987.8 157.072 1987.23 158.679 Q1987.33 158.646 1987.67 158.646 Q1988.51 158.646 1988.97 159.171 Q1989.44 159.696 1989.44 160.401 Q1989.44 161.302 1988.85 161.745 Q1988.28 162.171 1987.71 162.171 Q1987.48 162.171 1987.16 162.122 Q1986.87 162.073 1986.39 161.614 Q1985.92 161.139 1985.92 160.302 Q1985.92 157.958 1987.69 156.089 Q1989.48 154.22 1992.2 154.22 Q1995.28 154.22 1997.3 156.056 Q1999.33 157.876 1999.33 160.729 Q1999.33 161.729 1999.02 162.647 Q1998.72 163.549 1998.31 164.254 Q1997.92 164.959 1996.84 166.09 Q1995.76 167.221 1994.89 168.025 Q1994.02 168.828 1992.07 170.533 L1988.51 173.993 L1994.56 173.993 Q1997.51 173.993 1997.74 173.73 Q1998.07 173.255 1998.48 170.746 L1999.33 170.746 L1998.38 176.583 L1985.92 176.583 Z" fill="#000000" fill-rule="evenodd" fill-opacity="1" /><path clip-path="url(#clip110)" d="M2004.32 150.771 Q2004.32 142.667 2007.34 136.132 Q2008.63 133.391 2010.43 131.096 Q2012.23 128.8 2013.43 127.793 Q2014.62 126.786 2014.95 126.786 Q2015.42 126.786 2015.44 127.255 Q2015.44 127.489 2014.81 128.074 Q2007.08 135.944 2007.1 150.771 Q2007.1 165.644 2014.62 173.209 Q2015.44 174.029 2015.44 174.287 Q2015.44 174.755 2014.95 174.755 Q2014.62 174.755 2013.47 173.795 Q2012.33 172.835 2010.55 170.633 Q2008.77 168.431 2007.48 165.738 Q2004.32 159.203 2004.32 150.771 Z" fill="#000000" fill-rule="evenodd" fill-opacity="1" /><path clip-path="url(#clip110)" d="M2020.04 147.421 Q2020.04 140.371 2021.82 136.53 Q2024.31 130.815 2030.16 130.815 Q2031.4 130.815 2032.69 131.166 Q2034 131.494 2035.64 132.782 Q2037.31 134.07 2038.31 136.178 Q2040.23 140.254 2040.23 147.421 Q2040.23 154.425 2038.45 158.242 Q2035.85 163.817 2030.12 163.817 Q2027.96 163.817 2025.76 162.716 Q2023.58 161.615 2022.2 158.969 Q2020.04 155.01 2020.04 147.421 M2024.03 146.836 Q2024.03 154.073 2024.54 156.954 Q2025.13 160.069 2026.72 161.428 Q2028.34 162.763 2030.12 162.763 Q2032.04 162.763 2033.63 161.334 Q2035.25 159.882 2035.74 156.767 Q2036.28 153.698 2036.25 146.836 Q2036.25 140.16 2035.78 137.49 Q2035.15 134.375 2033.47 133.134 Q2031.8 131.869 2030.12 131.869 Q2029.48 131.869 2028.8 132.056 Q2028.15 132.244 2027.19 132.782 Q2026.23 133.321 2025.48 134.656 Q2024.75 135.991 2024.4 138.005 Q2024.03 140.605 2024.03 146.836 Z" fill="#000000" fill-rule="evenodd" fill-opacity="1" /><path clip-path="url(#clip110)" d="M2044.95 174.287 Q2044.95 174.053 2045.56 173.467 Q2053.28 165.597 2053.28 150.771 Q2053.28 135.897 2045.86 128.379 Q2044.95 127.512 2044.95 127.255 Q2044.95 126.786 2045.41 126.786 Q2045.74 126.786 2046.89 127.746 Q2048.06 128.707 2049.82 130.908 Q2051.6 133.11 2052.91 135.804 Q2056.07 142.339 2056.07 150.771 Q2056.07 158.875 2053.05 165.41 Q2051.76 168.15 2049.96 170.446 Q2048.16 172.741 2046.96 173.748 Q2045.77 174.755 2045.41 174.755 Q2044.95 174.755 2044.95 174.287 Z" fill="#000000" fill-rule="evenodd" fill-opacity="1" /><path clip-path="url(#clip110)" d="M2076.67 155.479 Q2076.71 154.893 2077.63 154.893 L2107.02 154.893 Q2108.4 154.893 2108.43 155.432 Q2108.43 156.017 2107.12 155.994 L2077.95 155.994 Q2076.67 156.017 2076.67 155.479 M2076.67 146.11 Q2076.67 145.524 2077.67 145.547 L2106.98 145.547 Q2108.4 145.547 2108.43 146.11 Q2108.43 146.648 2107.21 146.648 L2077.63 146.648 Q2076.67 146.648 2076.67 146.11 Z" fill="#000000" fill-rule="evenodd" fill-opacity="1" /><path clip-path="url(#clip110)" d="M2126.92 162.763 Q2126.92 161.896 2126.99 161.639 Q2127.08 161.381 2127.46 160.983 L2136.66 150.724 Q2141.7 145.056 2141.7 140.113 Q2141.7 136.905 2140.01 134.609 Q2138.35 132.314 2135.28 132.314 Q2133.17 132.314 2131.39 133.602 Q2129.61 134.89 2128.79 137.186 Q2128.93 137.139 2129.42 137.139 Q2130.62 137.139 2131.27 137.888 Q2131.95 138.638 2131.95 139.645 Q2131.95 140.933 2131.11 141.566 Q2130.29 142.175 2129.47 142.175 Q2129.14 142.175 2128.7 142.104 Q2128.28 142.034 2127.6 141.378 Q2126.92 140.699 2126.92 139.504 Q2126.92 136.155 2129.45 133.485 Q2132 130.815 2135.89 130.815 Q2140.29 130.815 2143.17 133.438 Q2146.08 136.038 2146.08 140.113 Q2146.08 141.542 2145.63 142.854 Q2145.21 144.142 2144.63 145.149 Q2144.06 146.156 2142.52 147.773 Q2140.97 149.389 2139.73 150.536 Q2138.49 151.684 2135.7 154.12 L2130.62 159.062 L2139.26 159.062 Q2143.48 159.062 2143.81 158.687 Q2144.27 158.008 2144.86 154.425 L2146.08 154.425 L2144.72 162.763 L2126.92 162.763 Z" fill="#000000" fill-rule="evenodd" fill-opacity="1" /><path clip-path="url(#clip110)" d="M2151.39 161.99 Q2150.67 161.217 2150.67 160.21 Q2150.67 159.203 2151.39 158.477 Q2152.12 157.727 2153.22 157.727 Q2154.28 157.727 2154.98 158.43 Q2155.7 159.109 2155.7 160.233 Q2155.7 161.334 2154.93 162.06 Q2154.18 162.763 2153.22 162.763 Q2152.12 162.763 2151.39 161.99 Z" fill="#000000" fill-rule="evenodd" fill-opacity="1" /><path clip-path="url(#clip110)" d="M2163.87 147.421 Q2163.87 140.371 2165.65 136.53 Q2168.13 130.815 2173.98 130.815 Q2175.23 130.815 2176.51 131.166 Q2177.82 131.494 2179.46 132.782 Q2181.13 134.07 2182.13 136.178 Q2184.06 140.254 2184.06 147.421 Q2184.06 154.425 2182.28 158.242 Q2179.68 163.817 2173.94 163.817 Q2171.78 163.817 2169.58 162.716 Q2167.4 161.615 2166.02 158.969 Q2163.87 155.01 2163.87 147.421 M2167.85 146.836 Q2167.85 154.073 2168.36 156.954 Q2168.95 160.069 2170.54 161.428 Q2172.16 162.763 2173.94 162.763 Q2175.86 162.763 2177.45 161.334 Q2179.07 159.882 2179.56 156.767 Q2180.1 153.698 2180.07 146.836 Q2180.07 140.16 2179.61 137.49 Q2178.97 134.375 2177.29 133.134 Q2175.62 131.869 2173.94 131.869 Q2173.3 131.869 2172.63 132.056 Q2171.97 132.244 2171.01 132.782 Q2170.05 133.321 2169.3 134.656 Q2168.57 135.991 2168.22 138.005 Q2167.85 140.605 2167.85 146.836 Z" fill="#000000" fill-rule="evenodd" fill-opacity="1" /><path clip-path="url(#clip110)" d="M2187.81 147.421 Q2187.81 140.371 2189.59 136.53 Q2192.07 130.815 2197.93 130.815 Q2199.17 130.815 2200.46 131.166 Q2201.77 131.494 2203.41 132.782 Q2205.07 134.07 2206.08 136.178 Q2208 140.254 2208 147.421 Q2208 154.425 2206.22 158.242 Q2203.62 163.817 2197.88 163.817 Q2195.72 163.817 2193.52 162.716 Q2191.34 161.615 2189.96 158.969 Q2187.81 155.01 2187.81 147.421 M2191.79 146.836 Q2191.79 154.073 2192.3 156.954 Q2192.89 160.069 2194.48 161.428 Q2196.1 162.763 2197.88 162.763 Q2199.8 162.763 2201.39 161.334 Q2203.01 159.882 2203.5 156.767 Q2204.04 153.698 2204.02 146.836 Q2204.02 140.16 2203.55 137.49 Q2202.91 134.375 2201.23 133.134 Q2199.57 131.869 2197.88 131.869 Q2197.25 131.869 2196.57 132.056 Q2195.91 132.244 2194.95 132.782 Q2193.99 133.321 2193.24 134.656 Q2192.52 135.991 2192.16 138.005 Q2191.79 140.605 2191.79 146.836 Z" fill="#000000" fill-rule="evenodd" fill-opacity="1" /><path clip-path="url(#clip110)" d="M2211.75 147.421 Q2211.75 140.371 2213.53 136.53 Q2216.01 130.815 2221.87 130.815 Q2223.11 130.815 2224.4 131.166 Q2225.71 131.494 2227.35 132.782 Q2229.01 134.07 2230.02 136.178 Q2231.94 140.254 2231.94 147.421 Q2231.94 154.425 2230.16 158.242 Q2227.56 163.817 2221.82 163.817 Q2219.67 163.817 2217.46 162.716 Q2215.29 161.615 2213.9 158.969 Q2211.75 155.01 2211.75 147.421 M2215.73 146.836 Q2215.73 154.073 2216.25 156.954 Q2216.83 160.069 2218.42 161.428 Q2220.04 162.763 2221.82 162.763 Q2223.74 162.763 2225.33 161.334 Q2226.95 159.882 2227.44 156.767 Q2227.98 153.698 2227.96 146.836 Q2227.96 140.16 2227.49 137.49 Q2226.86 134.375 2225.17 133.134 Q2223.51 131.869 2221.82 131.869 Q2221.19 131.869 2220.51 132.056 Q2219.85 132.244 2218.89 132.782 Q2217.93 133.321 2217.18 134.656 Q2216.46 135.991 2216.11 138.005 Q2215.73 140.605 2215.73 146.836 Z" fill="#000000" fill-rule="evenodd" fill-opacity="1" /><polyline clip-path="url(#clip110)" style="stroke:#e26f46; stroke-linecap:butt; stroke-linejoin:round; stroke-width:4; stroke-opacity:1; fill:none" points="
  1797.03,196.789 1937.74,196.789 
  "/>
<path clip-path="url(#clip110)" d="M1981 190.618 Q1981 194.553 1979.74 198.98 Q1978.5 203.384 1976.53 206.944 Q1974.56 210.481 1971.99 212.823 Q1969.41 215.142 1966.95 215.142 Q1965.38 215.142 1964.21 214.275 Q1963.06 213.385 1962.43 211.909 Q1961.8 210.41 1961.49 208.771 Q1961.19 207.108 1961.19 205.304 Q1961.19 202.611 1961.77 199.683 Q1962.36 196.732 1963.34 194.061 Q1964.33 191.368 1965.71 188.932 Q1967.09 186.473 1968.61 184.693 Q1970.16 182.889 1971.89 181.835 Q1973.63 180.781 1975.24 180.781 Q1976.41 180.781 1977.35 181.296 Q1978.31 181.788 1978.92 182.655 Q1979.53 183.498 1979.95 184.505 Q1980.4 185.512 1980.61 186.683 Q1980.82 187.831 1980.91 188.791 Q1981 189.728 1981 190.618 M1977.84 187.644 Q1977.84 186.449 1977.75 185.559 Q1977.66 184.646 1977.4 183.732 Q1977.14 182.819 1976.58 182.327 Q1976.04 181.835 1975.2 181.835 Q1972.74 181.835 1969.97 186.871 Q1969.08 188.44 1968.29 190.572 Q1967.49 192.703 1967.21 193.71 Q1966.93 194.717 1966.27 197.2 L1976.3 197.2 Q1977.84 190.806 1977.84 187.644 M1975.88 198.723 L1965.9 198.723 Q1964.35 204.578 1964.35 208.232 Q1964.35 211.418 1965.01 212.753 Q1965.69 214.064 1966.95 214.064 Q1968.4 214.064 1969.76 212.612 Q1971.12 211.136 1972.5 208.466 Q1974.33 205 1975.88 198.723 Z" fill="#000000" fill-rule="evenodd" fill-opacity="1" /><path clip-path="url(#clip110)" d="M1985.92 228.423 Q1985.92 227.817 1985.97 227.636 Q1986.03 227.456 1986.3 227.177 L1992.74 219.996 Q1996.26 216.028 1996.26 212.569 Q1996.26 210.322 1995.08 208.716 Q1993.92 207.109 1991.77 207.109 Q1990.3 207.109 1989.05 208.011 Q1987.8 208.912 1987.23 210.519 Q1987.33 210.486 1987.67 210.486 Q1988.51 210.486 1988.97 211.011 Q1989.44 211.536 1989.44 212.241 Q1989.44 213.142 1988.85 213.585 Q1988.28 214.011 1987.71 214.011 Q1987.48 214.011 1987.16 213.962 Q1986.87 213.913 1986.39 213.454 Q1985.92 212.979 1985.92 212.142 Q1985.92 209.798 1987.69 207.929 Q1989.48 206.06 1992.2 206.06 Q1995.28 206.06 1997.3 207.896 Q1999.33 209.716 1999.33 212.569 Q1999.33 213.569 1999.02 214.487 Q1998.72 215.389 1998.31 216.094 Q1997.92 216.799 1996.84 217.93 Q1995.76 219.061 1994.89 219.865 Q1994.02 220.668 1992.07 222.373 L1988.51 225.833 L1994.56 225.833 Q1997.51 225.833 1997.74 225.57 Q1998.07 225.095 1998.48 222.586 L1999.33 222.586 L1998.38 228.423 L1985.92 228.423 Z" fill="#000000" fill-rule="evenodd" fill-opacity="1" /><path clip-path="url(#clip110)" d="M2004.32 202.611 Q2004.32 194.507 2007.34 187.972 Q2008.63 185.231 2010.43 182.936 Q2012.23 180.64 2013.43 179.633 Q2014.62 178.626 2014.95 178.626 Q2015.42 178.626 2015.44 179.095 Q2015.44 179.329 2014.81 179.914 Q2007.08 187.784 2007.1 202.611 Q2007.1 217.484 2014.62 225.049 Q2015.44 225.869 2015.44 226.127 Q2015.44 226.595 2014.95 226.595 Q2014.62 226.595 2013.47 225.635 Q2012.33 224.675 2010.55 222.473 Q2008.77 220.271 2007.48 217.578 Q2004.32 211.043 2004.32 202.611 Z" fill="#000000" fill-rule="evenodd" fill-opacity="1" /><path clip-path="url(#clip110)" d="M2020.04 199.261 Q2020.04 192.211 2021.82 188.37 Q2024.31 182.655 2030.16 182.655 Q2031.4 182.655 2032.69 183.006 Q2034 183.334 2035.64 184.622 Q2037.31 185.91 2038.31 188.018 Q2040.23 192.094 2040.23 199.261 Q2040.23 206.265 2038.45 210.082 Q2035.85 215.657 2030.12 215.657 Q2027.96 215.657 2025.76 214.556 Q2023.58 213.455 2022.2 210.809 Q2020.04 206.85 2020.04 199.261 M2024.03 198.676 Q2024.03 205.913 2024.54 208.794 Q2025.13 211.909 2026.72 213.268 Q2028.34 214.603 2030.12 214.603 Q2032.04 214.603 2033.63 213.174 Q2035.25 211.722 2035.74 208.607 Q2036.28 205.538 2036.25 198.676 Q2036.25 192 2035.78 189.33 Q2035.15 186.215 2033.47 184.974 Q2031.8 183.709 2030.12 183.709 Q2029.48 183.709 2028.8 183.896 Q2028.15 184.084 2027.19 184.622 Q2026.23 185.161 2025.48 186.496 Q2024.75 187.831 2024.4 189.845 Q2024.03 192.445 2024.03 198.676 Z" fill="#000000" fill-rule="evenodd" fill-opacity="1" /><path clip-path="url(#clip110)" d="M2044.95 226.127 Q2044.95 225.893 2045.56 225.307 Q2053.28 217.437 2053.28 202.611 Q2053.28 187.737 2045.86 180.219 Q2044.95 179.352 2044.95 179.095 Q2044.95 178.626 2045.41 178.626 Q2045.74 178.626 2046.89 179.586 Q2048.06 180.547 2049.82 182.748 Q2051.6 184.95 2052.91 187.644 Q2056.07 194.179 2056.07 202.611 Q2056.07 210.715 2053.05 217.25 Q2051.76 219.99 2049.96 222.286 Q2048.16 224.581 2046.96 225.588 Q2045.77 226.595 2045.41 226.595 Q2044.95 226.595 2044.95 226.127 Z" fill="#000000" fill-rule="evenodd" fill-opacity="1" /><path clip-path="url(#clip110)" d="M2076.67 207.319 Q2076.71 206.733 2077.63 206.733 L2107.02 206.733 Q2108.4 206.733 2108.43 207.272 Q2108.43 207.857 2107.12 207.834 L2077.95 207.834 Q2076.67 207.857 2076.67 207.319 M2076.67 197.95 Q2076.67 197.364 2077.67 197.387 L2106.98 197.387 Q2108.4 197.387 2108.43 197.95 Q2108.43 198.488 2107.21 198.488 L2077.63 198.488 Q2076.67 198.488 2076.67 197.95 Z" fill="#000000" fill-rule="evenodd" fill-opacity="1" /><path clip-path="url(#clip110)" d="M2126.92 214.603 Q2126.92 213.736 2126.99 213.479 Q2127.08 213.221 2127.46 212.823 L2136.66 202.564 Q2141.7 196.896 2141.7 191.953 Q2141.7 188.745 2140.01 186.449 Q2138.35 184.154 2135.28 184.154 Q2133.17 184.154 2131.39 185.442 Q2129.61 186.73 2128.79 189.026 Q2128.93 188.979 2129.42 188.979 Q2130.62 188.979 2131.27 189.728 Q2131.95 190.478 2131.95 191.485 Q2131.95 192.773 2131.11 193.406 Q2130.29 194.015 2129.47 194.015 Q2129.14 194.015 2128.7 193.944 Q2128.28 193.874 2127.6 193.218 Q2126.92 192.539 2126.92 191.344 Q2126.92 187.995 2129.45 185.325 Q2132 182.655 2135.89 182.655 Q2140.29 182.655 2143.17 185.278 Q2146.08 187.878 2146.08 191.953 Q2146.08 193.382 2145.63 194.694 Q2145.21 195.982 2144.63 196.989 Q2144.06 197.996 2142.52 199.613 Q2140.97 201.229 2139.73 202.376 Q2138.49 203.524 2135.7 205.96 L2130.62 210.902 L2139.26 210.902 Q2143.48 210.902 2143.81 210.527 Q2144.27 209.848 2144.86 206.265 L2146.08 206.265 L2144.72 214.603 L2126.92 214.603 Z" fill="#000000" fill-rule="evenodd" fill-opacity="1" /><path clip-path="url(#clip110)" d="M2151.39 213.83 Q2150.67 213.057 2150.67 212.05 Q2150.67 211.043 2151.39 210.317 Q2152.12 209.567 2153.22 209.567 Q2154.28 209.567 2154.98 210.27 Q2155.7 210.949 2155.7 212.073 Q2155.7 213.174 2154.93 213.9 Q2154.18 214.603 2153.22 214.603 Q2152.12 214.603 2151.39 213.83 Z" fill="#000000" fill-rule="evenodd" fill-opacity="1" /><path clip-path="url(#clip110)" d="M2163.87 199.261 Q2163.87 192.211 2165.65 188.37 Q2168.13 182.655 2173.98 182.655 Q2175.23 182.655 2176.51 183.006 Q2177.82 183.334 2179.46 184.622 Q2181.13 185.91 2182.13 188.018 Q2184.06 192.094 2184.06 199.261 Q2184.06 206.265 2182.28 210.082 Q2179.68 215.657 2173.94 215.657 Q2171.78 215.657 2169.58 214.556 Q2167.4 213.455 2166.02 210.809 Q2163.87 206.85 2163.87 199.261 M2167.85 198.676 Q2167.85 205.913 2168.36 208.794 Q2168.95 211.909 2170.54 213.268 Q2172.16 214.603 2173.94 214.603 Q2175.86 214.603 2177.45 213.174 Q2179.07 211.722 2179.56 208.607 Q2180.1 205.538 2180.07 198.676 Q2180.07 192 2179.61 189.33 Q2178.97 186.215 2177.29 184.974 Q2175.62 183.709 2173.94 183.709 Q2173.3 183.709 2172.63 183.896 Q2171.97 184.084 2171.01 184.622 Q2170.05 185.161 2169.3 186.496 Q2168.57 187.831 2168.22 189.845 Q2167.85 192.445 2167.85 198.676 Z" fill="#000000" fill-rule="evenodd" fill-opacity="1" /><path clip-path="url(#clip110)" d="M2187.81 199.261 Q2187.81 192.211 2189.59 188.37 Q2192.07 182.655 2197.93 182.655 Q2199.17 182.655 2200.46 183.006 Q2201.77 183.334 2203.41 184.622 Q2205.07 185.91 2206.08 188.018 Q2208 192.094 2208 199.261 Q2208 206.265 2206.22 210.082 Q2203.62 215.657 2197.88 215.657 Q2195.72 215.657 2193.52 214.556 Q2191.34 213.455 2189.96 210.809 Q2187.81 206.85 2187.81 199.261 M2191.79 198.676 Q2191.79 205.913 2192.3 208.794 Q2192.89 211.909 2194.48 213.268 Q2196.1 214.603 2197.88 214.603 Q2199.8 214.603 2201.39 213.174 Q2203.01 211.722 2203.5 208.607 Q2204.04 205.538 2204.02 198.676 Q2204.02 192 2203.55 189.33 Q2202.91 186.215 2201.23 184.974 Q2199.57 183.709 2197.88 183.709 Q2197.25 183.709 2196.57 183.896 Q2195.91 184.084 2194.95 184.622 Q2193.99 185.161 2193.24 186.496 Q2192.52 187.831 2192.16 189.845 Q2191.79 192.445 2191.79 198.676 Z" fill="#000000" fill-rule="evenodd" fill-opacity="1" /><path clip-path="url(#clip110)" d="M2210.1 187.222 L2210.1 185.723 Q2215.86 185.723 2218.84 182.655 Q2219.66 182.655 2219.8 182.842 Q2219.94 183.03 2219.94 183.896 L2219.94 210.809 Q2219.94 212.237 2220.64 212.682 Q2221.34 213.127 2224.41 213.127 L2225.94 213.127 L2225.94 214.603 Q2224.25 214.462 2218.16 214.462 Q2212.07 214.462 2210.41 214.603 L2210.41 213.127 L2211.93 213.127 Q2214.95 213.127 2215.68 212.706 Q2216.4 212.261 2216.4 210.809 L2216.4 185.957 Q2213.9 187.222 2210.1 187.222 Z" fill="#000000" fill-rule="evenodd" fill-opacity="1" /></svg>
