<?xml version="1.0" encoding="utf-8"?>
<svg xmlns="http://www.w3.org/2000/svg" xmlns:xlink="http://www.w3.org/1999/xlink" width="600" height="400" viewBox="0 0 2400 1600">
<defs>
  <clipPath id="clip170">
    <rect x="0" y="0" width="2400" height="1600"/>
  </clipPath>
</defs>
<path clip-path="url(#clip170)" d="
M0 1600 L2400 1600 L2400 0 L0 0  Z
  " fill="#ffffff" fill-rule="evenodd" fill-opacity="1"/>
<defs>
  <clipPath id="clip171">
    <rect x="480" y="0" width="1681" height="1600"/>
  </clipPath>
</defs>
<defs>
  <clipPath id="clip172">
    <rect x="242" y="47" width="1467" height="1397"/>
  </clipPath>
</defs>
<path clip-path="url(#clip170)" d="
M455.082 1349.74 L1586.15 1349.74 L1586.15 47.2441 L455.082 47.2441  Z
  " fill="#ffffff" fill-rule="evenodd" fill-opacity="1"/>
<defs>
  <clipPath id="clip173">
    <rect x="455" y="47" width="1132" height="1303"/>
  </clipPath>
</defs>
<polyline clip-path="url(#clip170)" style="stroke:#000000; stroke-linecap:butt; stroke-linejoin:round; stroke-width:4; stroke-opacity:1; fill:none" points="
  455.082,1349.74 1586.15,1349.74 
  "/>
<polyline clip-path="url(#clip170)" style="stroke:#000000; stroke-linecap:butt; stroke-linejoin:round; stroke-width:4; stroke-opacity:1; fill:none" points="
  487.093,1349.74 487.093,1330.84 
  "/>
<polyline clip-path="url(#clip170)" style="stroke:#000000; stroke-linecap:butt; stroke-linejoin:round; stroke-width:4; stroke-opacity:1; fill:none" points="
  753.048,1349.74 753.048,1330.84 
  "/>
<polyline clip-path="url(#clip170)" style="stroke:#000000; stroke-linecap:butt; stroke-linejoin:round; stroke-width:4; stroke-opacity:1; fill:none" points="
  1019,1349.74 1019,1330.84 
  "/>
<polyline clip-path="url(#clip170)" style="stroke:#000000; stroke-linecap:butt; stroke-linejoin:round; stroke-width:4; stroke-opacity:1; fill:none" points="
  1284.96,1349.74 1284.96,1330.84 
  "/>
<polyline clip-path="url(#clip170)" style="stroke:#000000; stroke-linecap:butt; stroke-linejoin:round; stroke-width:4; stroke-opacity:1; fill:none" points="
  1550.91,1349.74 1550.91,1330.84 
  "/>
<path clip-path="url(#clip170)" d="M436.208 1395.31 Q428.083 1395.31 423.969 1403.33 Q419.906 1411.3 419.906 1427.34 Q419.906 1443.33 423.969 1451.35 Q428.083 1459.32 436.208 1459.32 Q444.385 1459.32 448.448 1451.35 Q452.562 1443.33 452.562 1427.34 Q452.562 1411.3 448.448 1403.33 Q444.385 1395.31 436.208 1395.31 M436.208 1386.97 Q449.281 1386.97 456.156 1397.34 Q463.083 1407.65 463.083 1427.34 Q463.083 1446.97 456.156 1457.34 Q449.281 1467.65 436.208 1467.65 Q423.135 1467.65 416.208 1457.34 Q409.333 1446.97 409.333 1427.34 Q409.333 1407.65 416.208 1397.34 Q423.135 1386.97 436.208 1386.97 Z" fill="#000000" fill-rule="evenodd" fill-opacity="1" /><path clip-path="url(#clip170)" d="M481.573 1452.91 L492.562 1452.91 L492.562 1466.14 L481.573 1466.14 L481.573 1452.91 Z" fill="#000000" fill-rule="evenodd" fill-opacity="1" /><path clip-path="url(#clip170)" d="M537.979 1395.31 Q529.854 1395.31 525.739 1403.33 Q521.677 1411.3 521.677 1427.34 Q521.677 1443.33 525.739 1451.35 Q529.854 1459.32 537.979 1459.32 Q546.156 1459.32 550.218 1451.35 Q554.333 1443.33 554.333 1427.34 Q554.333 1411.3 550.218 1403.33 Q546.156 1395.31 537.979 1395.31 M537.979 1386.97 Q551.051 1386.97 557.926 1397.34 Q564.853 1407.65 564.853 1427.34 Q564.853 1446.97 557.926 1457.34 Q551.051 1467.65 537.979 1467.65 Q524.906 1467.65 517.979 1457.34 Q511.104 1446.97 511.104 1427.34 Q511.104 1407.65 517.979 1397.34 Q524.906 1386.97 537.979 1386.97 Z" fill="#000000" fill-rule="evenodd" fill-opacity="1" /><path clip-path="url(#clip170)" d="M703.283 1395.31 Q695.158 1395.31 691.043 1403.33 Q686.981 1411.3 686.981 1427.34 Q686.981 1443.33 691.043 1451.35 Q695.158 1459.32 703.283 1459.32 Q711.46 1459.32 715.522 1451.35 Q719.637 1443.33 719.637 1427.34 Q719.637 1411.3 715.522 1403.33 Q711.46 1395.31 703.283 1395.31 M703.283 1386.97 Q716.355 1386.97 723.23 1397.34 Q730.157 1407.65 730.157 1427.34 Q730.157 1446.97 723.23 1457.34 Q716.355 1467.65 703.283 1467.65 Q690.21 1467.65 683.283 1457.34 Q676.408 1446.97 676.408 1427.34 Q676.408 1407.65 683.283 1397.34 Q690.21 1386.97 703.283 1386.97 Z" fill="#000000" fill-rule="evenodd" fill-opacity="1" /><path clip-path="url(#clip170)" d="M748.647 1452.91 L759.636 1452.91 L759.636 1466.14 L748.647 1466.14 L748.647 1452.91 Z" fill="#000000" fill-rule="evenodd" fill-opacity="1" /><path clip-path="url(#clip170)" d="M782.657 1388.38 L823.959 1388.38 L823.959 1397.23 L792.293 1397.23 L792.293 1416.3 Q794.584 1415.52 796.876 1415.15 Q799.168 1414.73 801.459 1414.73 Q814.48 1414.73 822.084 1421.87 Q829.688 1429 829.688 1441.19 Q829.688 1453.74 821.876 1460.72 Q814.063 1467.65 799.845 1467.65 Q794.949 1467.65 789.845 1466.82 Q784.793 1465.98 779.376 1464.32 L779.376 1453.74 Q784.063 1456.3 789.063 1457.55 Q794.063 1458.8 799.636 1458.8 Q808.647 1458.8 813.907 1454.06 Q819.167 1449.32 819.167 1441.19 Q819.167 1433.07 813.907 1428.33 Q808.647 1423.59 799.636 1423.59 Q795.418 1423.59 791.199 1424.53 Q787.032 1425.46 782.657 1427.44 L782.657 1388.38 Z" fill="#000000" fill-rule="evenodd" fill-opacity="1" /><path clip-path="url(#clip170)" d="M945.097 1457.29 L962.284 1457.29 L962.284 1397.96 L943.586 1401.71 L943.586 1392.13 L962.18 1388.38 L972.701 1388.38 L972.701 1457.29 L989.888 1457.29 L989.888 1466.14 L945.097 1466.14 L945.097 1457.29 Z" fill="#000000" fill-rule="evenodd" fill-opacity="1" /><path clip-path="url(#clip170)" d="M1011.14 1452.91 L1022.13 1452.91 L1022.13 1466.14 L1011.14 1466.14 L1011.14 1452.91 Z" fill="#000000" fill-rule="evenodd" fill-opacity="1" /><path clip-path="url(#clip170)" d="M1067.54 1395.31 Q1059.42 1395.31 1055.3 1403.33 Q1051.24 1411.3 1051.24 1427.34 Q1051.24 1443.33 1055.3 1451.35 Q1059.42 1459.32 1067.54 1459.32 Q1075.72 1459.32 1079.78 1451.35 Q1083.9 1443.33 1083.9 1427.34 Q1083.9 1411.3 1079.78 1403.33 Q1075.72 1395.31 1067.54 1395.31 M1067.54 1386.97 Q1080.62 1386.97 1087.49 1397.34 Q1094.42 1407.65 1094.42 1427.34 Q1094.42 1446.97 1087.49 1457.34 Q1080.62 1467.65 1067.54 1467.65 Q1054.47 1467.65 1047.54 1457.34 Q1040.67 1446.97 1040.67 1427.34 Q1040.67 1407.65 1047.54 1397.34 Q1054.47 1386.97 1067.54 1386.97 Z" fill="#000000" fill-rule="evenodd" fill-opacity="1" /><path clip-path="url(#clip170)" d="M1212.17 1457.29 L1229.36 1457.29 L1229.36 1397.96 L1210.66 1401.71 L1210.66 1392.13 L1229.25 1388.38 L1239.78 1388.38 L1239.78 1457.29 L1256.96 1457.29 L1256.96 1466.14 L1212.17 1466.14 L1212.17 1457.29 Z" fill="#000000" fill-rule="evenodd" fill-opacity="1" /><path clip-path="url(#clip170)" d="M1278.21 1452.91 L1289.2 1452.91 L1289.2 1466.14 L1278.21 1466.14 L1278.21 1452.91 Z" fill="#000000" fill-rule="evenodd" fill-opacity="1" /><path clip-path="url(#clip170)" d="M1312.22 1388.38 L1353.52 1388.38 L1353.52 1397.23 L1321.86 1397.23 L1321.86 1416.3 Q1324.15 1415.52 1326.44 1415.15 Q1328.73 1414.73 1331.02 1414.73 Q1344.05 1414.73 1351.65 1421.87 Q1359.25 1429 1359.25 1441.19 Q1359.25 1453.74 1351.44 1460.72 Q1343.63 1467.65 1329.41 1467.65 Q1324.51 1467.65 1319.41 1466.82 Q1314.36 1465.98 1308.94 1464.32 L1308.94 1453.74 Q1313.63 1456.3 1318.63 1457.55 Q1323.63 1458.8 1329.2 1458.8 Q1338.21 1458.8 1343.47 1454.06 Q1348.73 1449.32 1348.73 1441.19 Q1348.73 1433.07 1343.47 1428.33 Q1338.21 1423.59 1329.2 1423.59 Q1324.98 1423.59 1320.76 1424.53 Q1316.6 1425.46 1312.22 1427.44 L1312.22 1388.38 Z" fill="#000000" fill-rule="evenodd" fill-opacity="1" /><path clip-path="url(#clip170)" d="M1486.2 1457.29 L1522.92 1457.29 L1522.92 1466.14 L1473.54 1466.14 L1473.54 1457.29 Q1479.53 1451.09 1489.84 1440.67 Q1500.21 1430.2 1502.87 1427.18 Q1507.92 1421.5 1509.9 1417.6 Q1511.93 1413.64 1511.93 1409.84 Q1511.93 1403.64 1507.55 1399.73 Q1503.23 1395.83 1496.25 1395.83 Q1491.3 1395.83 1485.78 1397.55 Q1480.31 1399.27 1474.06 1402.75 L1474.06 1392.13 Q1480.42 1389.58 1485.94 1388.28 Q1491.46 1386.97 1496.04 1386.97 Q1508.13 1386.97 1515.31 1393.02 Q1522.5 1399.06 1522.5 1409.16 Q1522.5 1413.95 1520.68 1418.28 Q1518.91 1422.55 1514.17 1428.38 Q1512.87 1429.89 1505.89 1437.13 Q1498.91 1444.32 1486.2 1457.29 Z" fill="#000000" fill-rule="evenodd" fill-opacity="1" /><path clip-path="url(#clip170)" d="M1545 1452.91 L1555.99 1452.91 L1555.99 1466.14 L1545 1466.14 L1545 1452.91 Z" fill="#000000" fill-rule="evenodd" fill-opacity="1" /><path clip-path="url(#clip170)" d="M1601.41 1395.31 Q1593.28 1395.31 1589.17 1403.33 Q1585.1 1411.3 1585.1 1427.34 Q1585.1 1443.33 1589.17 1451.35 Q1593.28 1459.32 1601.41 1459.32 Q1609.58 1459.32 1613.65 1451.35 Q1617.76 1443.33 1617.76 1427.34 Q1617.76 1411.3 1613.65 1403.33 Q1609.58 1395.31 1601.41 1395.31 M1601.41 1386.97 Q1614.48 1386.97 1621.35 1397.34 Q1628.28 1407.65 1628.28 1427.34 Q1628.28 1446.97 1621.35 1457.34 Q1614.48 1467.65 1601.41 1467.65 Q1588.33 1467.65 1581.41 1457.34 Q1574.53 1446.97 1574.53 1427.34 Q1574.53 1407.65 1581.41 1397.34 Q1588.33 1386.97 1601.41 1386.97 Z" fill="#000000" fill-rule="evenodd" fill-opacity="1" /><path clip-path="url(#clip170)" d="M836.45 1520.8 L836.45 1537.36 L856.19 1537.36 L856.19 1544.81 L836.45 1544.81 L836.45 1576.47 Q836.45 1583.61 838.377 1585.64 Q840.357 1587.67 846.346 1587.67 L856.19 1587.67 L856.19 1595.69 L846.346 1595.69 Q835.252 1595.69 831.034 1591.58 Q826.815 1587.41 826.815 1576.47 L826.815 1544.81 L819.784 1544.81 L819.784 1537.36 L826.815 1537.36 L826.815 1520.8 L836.45 1520.8 Z" fill="#000000" fill-rule="evenodd" fill-opacity="1" /><path clip-path="url(#clip170)" d="M868.794 1537.36 L878.377 1537.36 L878.377 1595.69 L868.794 1595.69 L868.794 1537.36 M868.794 1514.65 L878.377 1514.65 L878.377 1526.79 L868.794 1526.79 L868.794 1514.65 Z" fill="#000000" fill-rule="evenodd" fill-opacity="1" /><path clip-path="url(#clip170)" d="M943.846 1548.56 Q947.439 1542.1 952.439 1539.03 Q957.439 1535.95 964.21 1535.95 Q973.325 1535.95 978.273 1542.36 Q983.22 1548.71 983.22 1560.48 L983.22 1595.69 L973.585 1595.69 L973.585 1560.8 Q973.585 1552.41 970.616 1548.35 Q967.648 1544.29 961.554 1544.29 Q954.106 1544.29 949.783 1549.23 Q945.46 1554.18 945.46 1562.72 L945.46 1595.69 L935.825 1595.69 L935.825 1560.8 Q935.825 1552.36 932.856 1548.35 Q929.887 1544.29 923.689 1544.29 Q916.346 1544.29 912.023 1549.29 Q907.7 1554.23 907.7 1562.72 L907.7 1595.69 L898.065 1595.69 L898.065 1537.36 L907.7 1537.36 L907.7 1546.42 Q910.981 1541.06 915.565 1538.5 Q920.148 1535.95 926.45 1535.95 Q932.804 1535.95 937.231 1539.18 Q941.71 1542.41 943.846 1548.56 Z" fill="#000000" fill-rule="evenodd" fill-opacity="1" /><path clip-path="url(#clip170)" d="M1052.23 1564.13 L1052.23 1568.82 L1008.17 1568.82 Q1008.79 1578.71 1014.11 1583.92 Q1019.47 1589.08 1029 1589.08 Q1034.52 1589.08 1039.68 1587.72 Q1044.89 1586.37 1049.99 1583.66 L1049.99 1592.72 Q1044.83 1594.91 1039.42 1596.06 Q1034 1597.2 1028.43 1597.2 Q1014.47 1597.2 1006.29 1589.08 Q998.168 1580.95 998.168 1567.1 Q998.168 1552.78 1005.88 1544.39 Q1013.64 1535.95 1026.76 1535.95 Q1038.53 1535.95 1045.36 1543.56 Q1052.23 1551.11 1052.23 1564.13 M1042.65 1561.32 Q1042.54 1553.45 1038.22 1548.77 Q1033.95 1544.08 1026.87 1544.08 Q1018.85 1544.08 1014 1548.61 Q1009.21 1553.14 1008.48 1561.37 L1042.65 1561.32 Z" fill="#000000" fill-rule="evenodd" fill-opacity="1" /><path clip-path="url(#clip170)" d="M1124.89 1514.75 Q1117.91 1526.73 1114.52 1538.45 Q1111.14 1550.17 1111.14 1562.2 Q1111.14 1574.23 1114.52 1586.06 Q1117.96 1597.83 1124.89 1609.75 L1116.55 1609.75 Q1108.74 1597.51 1104.83 1585.69 Q1100.98 1573.87 1100.98 1562.2 Q1100.98 1550.59 1104.83 1538.82 Q1108.69 1527.05 1116.55 1514.75 L1124.89 1514.75 Z" fill="#000000" fill-rule="evenodd" fill-opacity="1" /><path clip-path="url(#clip170)" d="M1180.67 1539.08 L1180.67 1548.14 Q1176.6 1546.06 1172.23 1545.02 Q1167.85 1543.97 1163.17 1543.97 Q1156.03 1543.97 1152.44 1546.16 Q1148.9 1548.35 1148.9 1552.72 Q1148.9 1556.06 1151.45 1557.98 Q1154 1559.86 1161.71 1561.58 L1164.99 1562.31 Q1175.2 1564.49 1179.47 1568.5 Q1183.79 1572.46 1183.79 1579.6 Q1183.79 1587.72 1177.33 1592.46 Q1170.93 1597.2 1159.68 1597.2 Q1154.99 1597.2 1149.89 1596.26 Q1144.83 1595.38 1139.21 1593.56 L1139.21 1583.66 Q1144.52 1586.42 1149.68 1587.83 Q1154.83 1589.18 1159.89 1589.18 Q1166.66 1589.18 1170.3 1586.89 Q1173.95 1584.55 1173.95 1580.33 Q1173.95 1576.42 1171.29 1574.34 Q1168.69 1572.25 1159.78 1570.33 L1156.45 1569.55 Q1147.54 1567.67 1143.58 1563.82 Q1139.63 1559.91 1139.63 1553.14 Q1139.63 1544.91 1145.46 1540.43 Q1151.29 1535.95 1162.02 1535.95 Q1167.33 1535.95 1172.02 1536.73 Q1176.71 1537.52 1180.67 1539.08 Z" fill="#000000" fill-rule="evenodd" fill-opacity="1" /><path clip-path="url(#clip170)" d="M1197.54 1514.75 L1205.88 1514.75 Q1213.69 1527.05 1217.54 1538.82 Q1221.45 1550.59 1221.45 1562.2 Q1221.45 1573.87 1217.54 1585.69 Q1213.69 1597.51 1205.88 1609.75 L1197.54 1609.75 Q1204.47 1597.83 1207.85 1586.06 Q1211.29 1574.23 1211.29 1562.2 Q1211.29 1550.17 1207.85 1538.45 Q1204.47 1526.73 1197.54 1514.75 Z" fill="#000000" fill-rule="evenodd" fill-opacity="1" /><polyline clip-path="url(#clip170)" style="stroke:#000000; stroke-linecap:butt; stroke-linejoin:round; stroke-width:4; stroke-opacity:1; fill:none" points="
  455.082,1349.74 455.082,47.2441 
  "/>
<polyline clip-path="url(#clip170)" style="stroke:#000000; stroke-linecap:butt; stroke-linejoin:round; stroke-width:4; stroke-opacity:1; fill:none" points="
  455.082,1274.5 466.346,1274.5 
  "/>
<polyline clip-path="url(#clip170)" style="stroke:#000000; stroke-linecap:butt; stroke-linejoin:round; stroke-width:4; stroke-opacity:1; fill:none" points="
  455.082,1082.5 466.346,1082.5 
  "/>
<polyline clip-path="url(#clip170)" style="stroke:#000000; stroke-linecap:butt; stroke-linejoin:round; stroke-width:4; stroke-opacity:1; fill:none" points="
  455.082,890.504 466.346,890.504 
  "/>
<polyline clip-path="url(#clip170)" style="stroke:#000000; stroke-linecap:butt; stroke-linejoin:round; stroke-width:4; stroke-opacity:1; fill:none" points="
  455.082,698.505 466.346,698.505 
  "/>
<polyline clip-path="url(#clip170)" style="stroke:#000000; stroke-linecap:butt; stroke-linejoin:round; stroke-width:4; stroke-opacity:1; fill:none" points="
  455.082,506.506 466.346,506.506 
  "/>
<polyline clip-path="url(#clip170)" style="stroke:#000000; stroke-linecap:butt; stroke-linejoin:round; stroke-width:4; stroke-opacity:1; fill:none" points="
  455.082,314.506 466.346,314.506 
  "/>
<polyline clip-path="url(#clip170)" style="stroke:#000000; stroke-linecap:butt; stroke-linejoin:round; stroke-width:4; stroke-opacity:1; fill:none" points="
  455.082,122.507 466.346,122.507 
  "/>
<path clip-path="url(#clip170)" d="M144.5 1275.52 L211.271 1275.52 L211.271 1284.37 L144.5 1284.37 L144.5 1275.52 Z" fill="#000000" fill-rule="evenodd" fill-opacity="1" /><path clip-path="url(#clip170)" d="M235.802 1304.53 L252.989 1304.53 L252.989 1245.21 L234.291 1248.96 L234.291 1239.37 L252.885 1235.62 L263.406 1235.62 L263.406 1304.53 L280.593 1304.53 L280.593 1313.38 L235.802 1313.38 L235.802 1304.53 Z" fill="#000000" fill-rule="evenodd" fill-opacity="1" /><path clip-path="url(#clip170)" d="M301.947 1235.62 L343.249 1235.62 L343.249 1244.48 L311.583 1244.48 L311.583 1263.54 Q313.874 1262.76 316.166 1262.39 Q318.458 1261.98 320.749 1261.98 Q333.77 1261.98 341.374 1269.11 Q348.978 1276.25 348.978 1288.43 Q348.978 1300.99 341.166 1307.97 Q333.353 1314.89 319.135 1314.89 Q314.239 1314.89 309.135 1314.06 Q304.083 1313.23 298.666 1311.56 L298.666 1300.99 Q303.353 1303.54 308.353 1304.79 Q313.353 1306.04 318.926 1306.04 Q327.937 1306.04 333.197 1301.3 Q338.457 1296.56 338.457 1288.43 Q338.457 1280.31 333.197 1275.57 Q327.937 1270.83 318.926 1270.83 Q314.708 1270.83 310.489 1271.77 Q306.322 1272.71 301.947 1274.68 L301.947 1235.62 Z" fill="#000000" fill-rule="evenodd" fill-opacity="1" /><path clip-path="url(#clip170)" d="M392.207 1242.55 Q384.082 1242.55 379.968 1250.57 Q375.905 1258.54 375.905 1274.58 Q375.905 1290.57 379.968 1298.59 Q384.082 1306.56 392.207 1306.56 Q400.384 1306.56 404.447 1298.59 Q408.561 1290.57 408.561 1274.58 Q408.561 1258.54 404.447 1250.57 Q400.384 1242.55 392.207 1242.55 M392.207 1234.22 Q405.28 1234.22 412.155 1244.58 Q419.082 1254.89 419.082 1274.58 Q419.082 1294.22 412.155 1304.58 Q405.28 1314.89 392.207 1314.89 Q379.134 1314.89 372.207 1304.58 Q365.332 1294.22 365.332 1274.58 Q365.332 1254.89 372.207 1244.58 Q379.134 1234.22 392.207 1234.22 Z" fill="#000000" fill-rule="evenodd" fill-opacity="1" /><path clip-path="url(#clip170)" d="M144.5 1083.52 L211.271 1083.52 L211.271 1092.37 L144.5 1092.37 L144.5 1083.52 Z" fill="#000000" fill-rule="evenodd" fill-opacity="1" /><path clip-path="url(#clip170)" d="M235.802 1112.53 L252.989 1112.53 L252.989 1053.21 L234.291 1056.96 L234.291 1047.37 L252.885 1043.62 L263.406 1043.62 L263.406 1112.53 L280.593 1112.53 L280.593 1121.38 L235.802 1121.38 L235.802 1112.53 Z" fill="#000000" fill-rule="evenodd" fill-opacity="1" /><path clip-path="url(#clip170)" d="M324.343 1050.55 Q316.218 1050.55 312.103 1058.57 Q308.041 1066.54 308.041 1082.58 Q308.041 1098.57 312.103 1106.59 Q316.218 1114.56 324.343 1114.56 Q332.52 1114.56 336.582 1106.59 Q340.697 1098.57 340.697 1082.58 Q340.697 1066.54 336.582 1058.57 Q332.52 1050.55 324.343 1050.55 M324.343 1042.22 Q337.416 1042.22 344.291 1052.58 Q351.218 1062.89 351.218 1082.58 Q351.218 1102.22 344.291 1112.58 Q337.416 1122.89 324.343 1122.89 Q311.27 1122.89 304.343 1112.58 Q297.468 1102.22 297.468 1082.58 Q297.468 1062.89 304.343 1052.58 Q311.27 1042.22 324.343 1042.22 Z" fill="#000000" fill-rule="evenodd" fill-opacity="1" /><path clip-path="url(#clip170)" d="M392.207 1050.55 Q384.082 1050.55 379.968 1058.57 Q375.905 1066.54 375.905 1082.58 Q375.905 1098.57 379.968 1106.59 Q384.082 1114.56 392.207 1114.56 Q400.384 1114.56 404.447 1106.59 Q408.561 1098.57 408.561 1082.58 Q408.561 1066.54 404.447 1058.57 Q400.384 1050.55 392.207 1050.55 M392.207 1042.22 Q405.28 1042.22 412.155 1052.58 Q419.082 1062.89 419.082 1082.58 Q419.082 1102.22 412.155 1112.58 Q405.28 1122.89 392.207 1122.89 Q379.134 1122.89 372.207 1112.58 Q365.332 1102.22 365.332 1082.58 Q365.332 1062.89 372.207 1052.58 Q379.134 1042.22 392.207 1042.22 Z" fill="#000000" fill-rule="evenodd" fill-opacity="1" /><path clip-path="url(#clip170)" d="M212.364 891.52 L279.135 891.52 L279.135 900.374 L212.364 900.374 L212.364 891.52 Z" fill="#000000" fill-rule="evenodd" fill-opacity="1" /><path clip-path="url(#clip170)" d="M301.947 851.624 L343.249 851.624 L343.249 860.478 L311.583 860.478 L311.583 879.541 Q313.874 878.759 316.166 878.395 Q318.458 877.978 320.749 877.978 Q333.77 877.978 341.374 885.113 Q348.978 892.249 348.978 904.436 Q348.978 916.988 341.166 923.967 Q333.353 930.894 319.135 930.894 Q314.239 930.894 309.135 930.061 Q304.083 929.228 298.666 927.561 L298.666 916.988 Q303.353 919.54 308.353 920.79 Q313.353 922.04 318.926 922.04 Q327.937 922.04 333.197 917.301 Q338.457 912.561 338.457 904.436 Q338.457 896.311 333.197 891.572 Q327.937 886.832 318.926 886.832 Q314.708 886.832 310.489 887.77 Q306.322 888.707 301.947 890.686 L301.947 851.624 Z" fill="#000000" fill-rule="evenodd" fill-opacity="1" /><path clip-path="url(#clip170)" d="M392.207 858.551 Q384.082 858.551 379.968 866.572 Q375.905 874.541 375.905 890.582 Q375.905 906.572 379.968 914.592 Q384.082 922.561 392.207 922.561 Q400.384 922.561 404.447 914.592 Q408.561 906.572 408.561 890.582 Q408.561 874.541 404.447 866.572 Q400.384 858.551 392.207 858.551 M392.207 850.218 Q405.28 850.218 412.155 860.582 Q419.082 870.895 419.082 890.582 Q419.082 910.217 412.155 920.582 Q405.28 930.894 392.207 930.894 Q379.134 930.894 372.207 920.582 Q365.332 910.217 365.332 890.582 Q365.332 870.895 372.207 860.582 Q379.134 850.218 392.207 850.218 Z" fill="#000000" fill-rule="evenodd" fill-opacity="1" /><path clip-path="url(#clip170)" d="M392.207 666.552 Q384.082 666.552 379.968 674.573 Q375.905 682.541 375.905 698.583 Q375.905 714.572 379.968 722.593 Q384.082 730.562 392.207 730.562 Q400.384 730.562 404.447 722.593 Q408.561 714.572 408.561 698.583 Q408.561 682.541 404.447 674.573 Q400.384 666.552 392.207 666.552 M392.207 658.219 Q405.28 658.219 412.155 668.583 Q419.082 678.896 419.082 698.583 Q419.082 718.218 412.155 728.583 Q405.28 738.895 392.207 738.895 Q379.134 738.895 372.207 728.583 Q365.332 718.218 365.332 698.583 Q365.332 678.896 372.207 668.583 Q379.134 658.219 392.207 658.219 Z" fill="#000000" fill-rule="evenodd" fill-opacity="1" /><path clip-path="url(#clip170)" d="M301.947 467.626 L343.249 467.626 L343.249 476.48 L311.583 476.48 L311.583 495.542 Q313.874 494.761 316.166 494.396 Q318.458 493.98 320.749 493.98 Q333.77 493.98 341.374 501.115 Q348.978 508.25 348.978 520.438 Q348.978 532.99 341.166 539.969 Q333.353 546.896 319.135 546.896 Q314.239 546.896 309.135 546.063 Q304.083 545.229 298.666 543.563 L298.666 532.99 Q303.353 535.542 308.353 536.792 Q313.353 538.042 318.926 538.042 Q327.937 538.042 333.197 533.302 Q338.457 528.563 338.457 520.438 Q338.457 512.313 333.197 507.573 Q327.937 502.834 318.926 502.834 Q314.708 502.834 310.489 503.771 Q306.322 504.709 301.947 506.688 L301.947 467.626 Z" fill="#000000" fill-rule="evenodd" fill-opacity="1" /><path clip-path="url(#clip170)" d="M392.207 474.553 Q384.082 474.553 379.968 482.573 Q375.905 490.542 375.905 506.584 Q375.905 522.573 379.968 530.594 Q384.082 538.563 392.207 538.563 Q400.384 538.563 404.447 530.594 Q408.561 522.573 408.561 506.584 Q408.561 490.542 404.447 482.573 Q400.384 474.553 392.207 474.553 M392.207 466.219 Q405.28 466.219 412.155 476.584 Q419.082 486.896 419.082 506.584 Q419.082 526.219 412.155 536.584 Q405.28 546.896 392.207 546.896 Q379.134 546.896 372.207 536.584 Q365.332 526.219 365.332 506.584 Q365.332 486.896 372.207 476.584 Q379.134 466.219 392.207 466.219 Z" fill="#000000" fill-rule="evenodd" fill-opacity="1" /><path clip-path="url(#clip170)" d="M235.802 344.532 L252.989 344.532 L252.989 285.21 L234.291 288.96 L234.291 279.376 L252.885 275.626 L263.406 275.626 L263.406 344.532 L280.593 344.532 L280.593 353.386 L235.802 353.386 L235.802 344.532 Z" fill="#000000" fill-rule="evenodd" fill-opacity="1" /><path clip-path="url(#clip170)" d="M324.343 282.553 Q316.218 282.553 312.103 290.574 Q308.041 298.543 308.041 314.584 Q308.041 330.574 312.103 338.595 Q316.218 346.563 324.343 346.563 Q332.52 346.563 336.582 338.595 Q340.697 330.574 340.697 314.584 Q340.697 298.543 336.582 290.574 Q332.52 282.553 324.343 282.553 M324.343 274.22 Q337.416 274.22 344.291 284.585 Q351.218 294.897 351.218 314.584 Q351.218 334.22 344.291 344.584 Q337.416 354.897 324.343 354.897 Q311.27 354.897 304.343 344.584 Q297.468 334.22 297.468 314.584 Q297.468 294.897 304.343 284.585 Q311.27 274.22 324.343 274.22 Z" fill="#000000" fill-rule="evenodd" fill-opacity="1" /><path clip-path="url(#clip170)" d="M392.207 282.553 Q384.082 282.553 379.968 290.574 Q375.905 298.543 375.905 314.584 Q375.905 330.574 379.968 338.595 Q384.082 346.563 392.207 346.563 Q400.384 346.563 404.447 338.595 Q408.561 330.574 408.561 314.584 Q408.561 298.543 404.447 290.574 Q400.384 282.553 392.207 282.553 M392.207 274.22 Q405.28 274.22 412.155 284.585 Q419.082 294.897 419.082 314.584 Q419.082 334.22 412.155 344.584 Q405.28 354.897 392.207 354.897 Q379.134 354.897 372.207 344.584 Q365.332 334.22 365.332 314.584 Q365.332 294.897 372.207 284.585 Q379.134 274.22 392.207 274.22 Z" fill="#000000" fill-rule="evenodd" fill-opacity="1" /><path clip-path="url(#clip170)" d="M235.802 152.533 L252.989 152.533 L252.989 93.2103 L234.291 96.9603 L234.291 87.377 L252.885 83.627 L263.406 83.627 L263.406 152.533 L280.593 152.533 L280.593 161.387 L235.802 161.387 L235.802 152.533 Z" fill="#000000" fill-rule="evenodd" fill-opacity="1" /><path clip-path="url(#clip170)" d="M301.947 83.627 L343.249 83.627 L343.249 92.4812 L311.583 92.4812 L311.583 111.544 Q313.874 110.762 316.166 110.398 Q318.458 109.981 320.749 109.981 Q333.77 109.981 341.374 117.116 Q348.978 124.252 348.978 136.439 Q348.978 148.991 341.166 155.97 Q333.353 162.897 319.135 162.897 Q314.239 162.897 309.135 162.064 Q304.083 161.231 298.666 159.564 L298.666 148.991 Q303.353 151.543 308.353 152.793 Q313.353 154.043 318.926 154.043 Q327.937 154.043 333.197 149.304 Q338.457 144.564 338.457 136.439 Q338.457 128.314 333.197 123.575 Q327.937 118.835 318.926 118.835 Q314.708 118.835 310.489 119.773 Q306.322 120.71 301.947 122.689 L301.947 83.627 Z" fill="#000000" fill-rule="evenodd" fill-opacity="1" /><path clip-path="url(#clip170)" d="M392.207 90.5541 Q384.082 90.5541 379.968 98.5749 Q375.905 106.544 375.905 122.585 Q375.905 138.575 379.968 146.595 Q384.082 154.564 392.207 154.564 Q400.384 154.564 404.447 146.595 Q408.561 138.575 408.561 122.585 Q408.561 106.544 404.447 98.5749 Q400.384 90.5541 392.207 90.5541 M392.207 82.2208 Q405.28 82.2208 412.155 92.5853 Q419.082 102.898 419.082 122.585 Q419.082 142.22 412.155 152.585 Q405.28 162.897 392.207 162.897 Q379.134 162.897 372.207 152.585 Q365.332 142.22 365.332 122.585 Q365.332 102.898 372.207 92.5853 Q379.134 82.2208 392.207 82.2208 Z" fill="#000000" fill-rule="evenodd" fill-opacity="1" /><path clip-path="url(#clip170)" d="M48.845 867.318 Q57.6987 867.318 67.659 870.164 Q77.5667 872.957 85.5772 877.384 Q93.535 881.811 98.805 887.608 Q104.022 893.405 104.022 898.939 Q104.022 902.469 102.072 905.104 Q100.07 907.687 96.7497 909.11 Q93.3769 910.533 89.6879 911.218 Q85.9461 911.903 81.8882 911.903 Q75.8276 911.903 69.2401 910.585 Q62.5998 909.268 56.5919 907.054 Q50.5314 904.841 45.0505 901.732 Q39.517 898.622 35.5117 895.197 Q31.4538 891.719 29.0823 887.819 Q26.7108 883.919 26.7108 880.283 Q26.7108 877.647 27.8702 875.539 Q28.9769 873.379 30.9268 872.009 Q32.824 870.638 35.0901 869.69 Q37.3563 868.688 39.9913 868.214 Q42.5736 867.74 44.7343 867.529 Q46.8424 867.318 48.845 867.318 M42.152 874.433 Q39.4643 874.433 37.4617 874.644 Q35.4063 874.854 33.351 875.434 Q31.2957 876.014 30.189 877.279 Q29.0823 878.491 29.0823 880.388 Q29.0823 885.921 40.4129 892.14 Q43.9438 894.143 48.7396 895.935 Q53.5353 897.726 55.8014 898.359 Q58.0676 898.991 63.6538 900.467 L63.6538 877.911 Q49.2666 874.433 42.152 874.433 M67.0793 878.86 L67.0793 901.31 Q80.2545 904.788 88.4757 904.788 Q95.643 904.788 98.6469 903.313 Q101.598 901.784 101.598 898.939 Q101.598 895.671 98.3307 892.614 Q95.0106 889.558 89.0028 886.448 Q81.2031 882.338 67.0793 878.86 Z" fill="#000000" fill-rule="evenodd" fill-opacity="1" /><path clip-path="url(#clip170)" d="M21.8732 794.819 Q33.8523 801.798 45.571 805.184 Q57.2897 808.569 69.3209 808.569 Q81.3521 808.569 93.1749 805.184 Q104.946 801.746 116.873 794.819 L116.873 803.152 Q104.633 810.965 92.8103 814.871 Q80.9875 818.725 69.3209 818.725 Q57.7064 818.725 45.9356 814.871 Q34.1648 811.017 21.8732 803.152 L21.8732 794.819 Z" fill="#000000" fill-rule="evenodd" fill-opacity="1" /><path clip-path="url(#clip170)" d="M53.3314 737.84 L21.7691 737.84 L21.7691 728.257 L102.81 728.257 L102.81 737.84 L94.0603 737.84 Q99.2686 740.861 101.821 745.496 Q104.321 750.08 104.321 756.538 Q104.321 767.111 95.8832 773.777 Q87.4458 780.392 73.6959 780.392 Q59.9459 780.392 51.5085 773.777 Q43.071 767.111 43.071 756.538 Q43.071 750.08 45.6231 745.496 Q48.1231 740.861 53.3314 737.84 M73.6959 770.496 Q84.2687 770.496 90.3103 766.173 Q96.2999 761.798 96.2999 754.194 Q96.2999 746.59 90.3103 742.215 Q84.2687 737.84 73.6959 737.84 Q63.123 737.84 57.1334 742.215 Q51.0918 746.59 51.0918 754.194 Q51.0918 761.798 57.1334 766.173 Q63.123 770.496 73.6959 770.496 Z" fill="#000000" fill-rule="evenodd" fill-opacity="1" /><path clip-path="url(#clip170)" d="M73.6959 666.643 Q63.123 666.643 57.1334 671.018 Q51.0918 675.341 51.0918 682.945 Q51.0918 690.549 57.1334 694.924 Q63.123 699.247 73.6959 699.247 Q84.2687 699.247 90.3103 694.924 Q96.2999 690.549 96.2999 682.945 Q96.2999 675.341 90.3103 671.018 Q84.2687 666.643 73.6959 666.643 M53.3314 699.247 Q48.1231 696.226 45.6231 691.643 Q43.071 687.007 43.071 680.601 Q43.071 669.976 51.5085 663.361 Q59.9459 656.695 73.6959 656.695 Q87.4458 656.695 95.8832 663.361 Q104.321 669.976 104.321 680.601 Q104.321 687.007 101.821 691.643 Q99.2686 696.226 94.0603 699.247 L102.81 699.247 L102.81 708.882 L21.7691 708.882 L21.7691 699.247 L53.3314 699.247 Z" fill="#000000" fill-rule="evenodd" fill-opacity="1" /><path clip-path="url(#clip170)" d="M71.248 590.914 L75.9354 590.914 L75.9354 634.976 Q85.8312 634.351 91.0395 629.039 Q96.1957 623.674 96.1957 614.143 Q96.1957 608.622 94.8416 603.466 Q93.4874 598.258 90.7791 593.153 L99.8415 593.153 Q102.029 598.31 103.175 603.726 Q104.321 609.143 104.321 614.716 Q104.321 628.674 96.1957 636.851 Q88.0708 644.976 74.2167 644.976 Q59.8938 644.976 51.5085 637.268 Q43.071 629.507 43.071 616.382 Q43.071 604.612 50.6751 597.789 Q58.2272 590.914 71.248 590.914 M68.4355 600.497 Q60.5709 600.601 55.8835 604.924 Q51.196 609.195 51.196 616.278 Q51.196 624.299 55.7272 629.143 Q60.2584 633.934 68.4875 634.664 L68.4355 600.497 Z" fill="#000000" fill-rule="evenodd" fill-opacity="1" /><path clip-path="url(#clip170)" d="M72.9667 536.8 Q62.5501 536.8 56.8209 541.122 Q51.0918 545.393 51.0918 553.154 Q51.0918 560.862 56.8209 565.185 Q62.5501 569.456 72.9667 569.456 Q83.3312 569.456 89.0604 565.185 Q94.7895 560.862 94.7895 553.154 Q94.7895 545.393 89.0604 541.122 Q83.3312 536.8 72.9667 536.8 M95.5707 527.216 Q110.466 527.216 117.706 533.831 Q124.998 540.445 124.998 554.091 Q124.998 559.143 124.216 563.622 Q123.487 568.102 121.925 572.32 L112.602 572.32 Q114.894 568.102 115.987 563.987 Q117.081 559.872 117.081 555.602 Q117.081 546.175 112.133 541.487 Q107.237 536.8 97.2895 536.8 L92.5499 536.8 Q97.7061 539.768 100.258 544.404 Q102.81 549.039 102.81 555.497 Q102.81 566.227 94.6332 572.789 Q86.4562 579.351 72.9667 579.351 Q59.4251 579.351 51.2481 572.789 Q43.071 566.227 43.071 555.497 Q43.071 549.039 45.6231 544.404 Q48.1752 539.768 53.3314 536.8 L44.4773 536.8 L44.4773 527.216 L95.5707 527.216 Z" fill="#000000" fill-rule="evenodd" fill-opacity="1" /><path clip-path="url(#clip170)" d="M21.8732 508.987 L21.8732 500.654 Q34.1648 492.841 45.9356 488.987 Q57.7064 485.081 69.3209 485.081 Q80.9875 485.081 92.8103 488.987 Q104.633 492.841 116.873 500.654 L116.873 508.987 Q104.946 502.06 93.1749 498.675 Q81.3521 495.237 69.3209 495.237 Q57.2897 495.237 45.571 498.675 Q33.8523 502.06 21.8732 508.987 Z" fill="#000000" fill-rule="evenodd" fill-opacity="1" /><polyline clip-path="url(#clip173)" style="stroke:#009af9; stroke-linecap:butt; stroke-linejoin:round; stroke-width:16; stroke-opacity:1; fill:none" points="
  487.093,84.1072 492.455,84.2573 497.817,84.7081 503.179,85.4613 508.542,86.5197 513.904,87.8873 519.266,89.5693 524.628,91.5717 529.99,93.9021 535.352,96.5691 
  540.714,99.5824 546.076,102.953 551.438,106.693 556.8,110.817 562.162,115.338 567.524,120.273 572.886,125.639 578.248,131.454 583.61,137.739 588.972,144.514 
  594.334,151.801 599.696,159.625 605.058,168.008 610.42,176.977 615.782,186.558 621.144,196.776 626.506,207.659 631.868,219.235 637.23,231.533 642.592,244.579 
  647.954,258.398 653.317,273.013 658.679,288.448 664.041,304.722 669.403,321.851 674.765,339.848 680.127,358.723 685.489,378.476 690.851,399.1 696.213,420.58 
  701.575,442.894 706.937,466.011 712.299,489.893 717.661,514.492 723.023,539.74 728.385,565.563 733.747,591.879 739.109,618.601 744.471,645.637 749.833,672.887 
  755.195,700.246 760.557,727.602 765.919,754.837 771.281,781.841 776.643,808.517 782.005,834.771 787.367,860.518 792.729,885.679 798.092,910.187 803.454,933.981 
  808.816,957.008 814.178,979.224 819.54,1000.59 824.902,1021.1 830.264,1040.74 835.626,1059.5 840.988,1077.39 846.35,1094.41 851.712,1110.58 857.074,1125.91 
  862.436,1140.42 867.798,1154.14 873.16,1167.09 878.522,1179.29 883.884,1190.78 889.246,1201.58 894.608,1211.72 899.97,1221.23 905.332,1230.12 910.694,1238.43 
  916.056,1246.18 921.418,1253.4 926.78,1260.1 932.142,1266.32 937.504,1272.07 942.867,1277.38 948.229,1282.27 953.591,1286.74 958.953,1290.81 964.315,1294.51 
  969.677,1297.83 975.039,1300.8 980.401,1303.42 985.763,1305.7 991.125,1307.66 996.487,1309.3 1001.85,1310.62 1007.21,1311.64 1012.57,1312.35 1017.94,1312.77 
  1023.3,1312.88 1028.66,1312.69 1034.02,1312.2 1039.38,1311.4 1044.75,1310.3 1050.11,1308.89 1055.47,1307.16 1060.83,1305.12 1066.19,1302.74 1071.56,1300.03 
  1076.92,1296.97 1082.28,1293.55 1087.64,1289.76 1093,1285.58 1098.37,1281.01 1103.73,1276.01 1109.09,1270.59 1114.45,1264.71 1119.81,1258.35 1125.18,1251.51 
  1130.54,1244.15 1135.9,1236.25 1141.26,1227.81 1146.62,1218.77 1151.99,1209.12 1157.35,1198.82 1162.71,1187.84 1168.07,1176.16 1173.43,1163.75 1178.8,1150.58 
  1184.16,1136.64 1189.52,1121.91 1194.88,1106.35 1200.24,1089.95 1205.61,1072.7 1210.97,1054.58 1216.33,1035.58 1221.69,1015.71 1227.05,994.962 1232.42,973.359 
  1237.78,950.925 1243.14,927.694 1248.5,903.71 1253.86,879.026 1259.23,853.702 1264.59,827.81 1269.95,801.431 1275.31,774.652 1280.67,747.581 1286.04,720.338 
  1291.4,693.031 1296.76,665.769 1302.12,638.651 1307.49,611.773 1312.85,585.225 1318.21,559.092 1323.57,533.454 1328.93,508.385 1334.3,483.955 1339.66,460.228 
  1345.02,437.262 1350.38,415.111 1355.74,393.824 1361.11,373.444 1366.47,353.989 1371.83,335.419 1377.19,317.721 1382.55,300.885 1387.92,284.897 1393.28,269.743 
  1398.64,255.404 1404,241.859 1409.36,229.085 1414.73,217.058 1420.09,205.748 1425.45,195.125 1430.81,185.156 1436.17,175.813 1441.54,167.072 1446.9,158.911 
  1452.26,151.309 1457.62,144.244 1462.98,137.695 1468.35,131.643 1473.71,126.069 1479.07,120.953 1484.43,116.278 1489.79,112.026 1495.16,108.181 1500.52,104.725 
  1505.88,101.644 1511.24,98.9222 1516.6,96.5455 1521.97,94.5085 1527.33,92.8101 1532.69,91.4444 1538.05,90.4063 1543.41,89.6918 1548.78,89.2985 1554.14,89.2245 
  
  "/>
<polyline clip-path="url(#clip173)" style="stroke:#e26f46; stroke-linecap:butt; stroke-linejoin:round; stroke-width:16; stroke-opacity:1; fill:none" points="
  487.093,84.1072 492.455,85.3318 497.817,89.0006 503.179,95.0992 508.542,103.603 513.904,114.478 519.266,127.682 524.628,143.161 529.99,160.853 535.352,180.689 
  540.714,202.589 546.076,226.466 551.438,252.225 556.8,279.763 562.162,308.969 567.524,339.729 572.886,371.919 578.248,405.411 583.61,440.071 588.972,475.761 
  594.334,512.339 599.696,549.659 605.058,587.573 610.42,625.929 615.782,664.574 621.144,703.354 626.506,742.116 631.868,780.703 637.23,818.962 642.592,856.742 
  647.954,893.89 653.317,930.26 658.679,965.706 664.041,1000.09 669.403,1033.27 674.765,1065.11 680.127,1095.49 685.489,1124.29 690.851,1151.4 696.213,1176.69 
  701.575,1200.08 706.937,1221.48 712.299,1240.78 717.661,1257.93 723.023,1272.84 728.385,1285.47 733.747,1295.76 739.109,1303.66 744.471,1309.15 749.833,1312.21 
  755.195,1312.83 760.557,1310.99 765.919,1306.71 771.281,1300.01 776.643,1290.91 782.005,1279.45 787.367,1265.67 792.729,1249.63 798.092,1231.4 803.454,1211.04 
  808.816,1188.63 814.178,1164.28 819.54,1138.06 824.902,1110.1 830.264,1080.49 835.626,1049.36 840.988,1016.83 846.35,983.038 851.712,948.107 857.074,912.182 
  862.436,875.404 867.798,837.922 873.16,799.883 878.522,761.441 883.884,722.747 889.246,683.957 894.608,645.225 899.97,606.705 905.332,568.551 910.694,530.916 
  916.056,493.948 921.418,457.796 926.78,422.603 932.142,388.51 937.504,355.653 942.867,324.163 948.229,294.164 953.591,265.778 958.953,239.117 964.315,214.287 
  969.677,191.387 975.039,170.508 980.401,151.735 985.763,135.141 991.125,120.792 996.487,108.747 1001.85,99.0523 1007.21,91.7475 1012.57,86.8614 1017.94,84.4134 
  1023.3,84.4134 1028.66,86.8614 1034.02,91.7475 1039.38,99.0523 1044.75,108.747 1050.11,120.792 1055.47,135.141 1060.83,151.735 1066.19,170.508 1071.56,191.387 
  1076.92,214.287 1082.28,239.117 1087.64,265.778 1093,294.164 1098.37,324.163 1103.73,355.653 1109.09,388.51 1114.45,422.603 1119.81,457.796 1125.18,493.948 
  1130.54,530.916 1135.9,568.551 1141.26,606.705 1146.62,645.225 1151.99,683.957 1157.35,722.747 1162.71,761.441 1168.07,799.883 1173.43,837.922 1178.8,875.404 
  1184.16,912.182 1189.52,948.107 1194.88,983.038 1200.24,1016.83 1205.61,1049.36 1210.97,1080.49 1216.33,1110.1 1221.69,1138.06 1227.05,1164.28 1232.42,1188.63 
  1237.78,1211.04 1243.14,1231.4 1248.5,1249.63 1253.86,1265.67 1259.23,1279.45 1264.59,1290.91 1269.95,1300.01 1275.31,1306.71 1280.67,1310.99 1286.04,1312.83 
  1291.4,1312.21 1296.76,1309.15 1302.12,1303.66 1307.49,1295.76 1312.85,1285.47 1318.21,1272.84 1323.57,1257.93 1328.93,1240.78 1334.3,1221.48 1339.66,1200.08 
  1345.02,1176.69 1350.38,1151.4 1355.74,1124.29 1361.11,1095.49 1366.47,1065.11 1371.83,1033.27 1377.19,1000.09 1382.55,965.706 1387.92,930.26 1393.28,893.89 
  1398.64,856.742 1404,818.962 1409.36,780.703 1414.73,742.116 1420.09,703.354 1425.45,664.574 1430.81,625.929 1436.17,587.573 1441.54,549.659 1446.9,512.339 
  1452.26,475.761 1457.62,440.071 1462.98,405.411 1468.35,371.919 1473.71,339.729 1479.07,308.969 1484.43,279.763 1489.79,252.225 1495.16,226.466 1500.52,202.589 
  1505.88,180.689 1511.24,160.853 1516.6,143.161 1521.97,127.682 1527.33,114.478 1532.69,103.603 1538.05,95.0992 1543.41,89.0006 1548.78,85.3318 1554.14,84.1072 
  
  "/>
<path clip-path="url(#clip170)" d="
M1649.41 440.581 L2352.76 440.581 L2352.76 90.6606 L1649.41 90.6606  Z
  " fill="#ffffff" fill-rule="evenodd" fill-opacity="1"/>
<polyline clip-path="url(#clip170)" style="stroke:#000000; stroke-linecap:butt; stroke-linejoin:round; stroke-width:4; stroke-opacity:1; fill:none" points="
  1649.41,440.581 2352.76,440.581 2352.76,90.6606 1649.41,90.6606 1649.41,440.581 
  "/>
<polyline clip-path="url(#clip170)" style="stroke:#009af9; stroke-linecap:butt; stroke-linejoin:round; stroke-width:9; stroke-opacity:1; fill:none" points="
  1670.49,207.301 1797,207.301 
  "/>
<path clip-path="url(#clip170)" d="M1866.94 210.972 L1866.94 246.181 L1857.36 246.181 L1857.36 211.285 Q1857.36 203.004 1854.13 198.889 Q1850.9 194.775 1844.44 194.775 Q1836.68 194.775 1832.2 199.723 Q1827.72 204.67 1827.72 213.212 L1827.72 246.181 L1818.09 246.181 L1818.09 187.848 L1827.72 187.848 L1827.72 196.91 Q1831.16 191.65 1835.8 189.046 Q1840.48 186.441 1846.58 186.441 Q1856.63 186.441 1861.79 192.691 Q1866.94 198.889 1866.94 210.972 Z" fill="#000000" fill-rule="evenodd" fill-opacity="1" /><path clip-path="url(#clip170)" d="M1908.66 194.566 Q1900.95 194.566 1896.47 200.608 Q1891.99 206.597 1891.99 217.066 Q1891.99 227.535 1896.42 233.577 Q1900.9 239.566 1908.66 239.566 Q1916.32 239.566 1920.8 233.524 Q1925.27 227.483 1925.27 217.066 Q1925.27 206.702 1920.8 200.66 Q1916.32 194.566 1908.66 194.566 M1908.66 186.441 Q1921.16 186.441 1928.3 194.566 Q1935.43 202.691 1935.43 217.066 Q1935.43 231.389 1928.3 239.566 Q1921.16 247.691 1908.66 247.691 Q1896.11 247.691 1888.97 239.566 Q1881.89 231.389 1881.89 217.066 Q1881.89 202.691 1888.97 194.566 Q1896.11 186.441 1908.66 186.441 Z" fill="#000000" fill-rule="evenodd" fill-opacity="1" /><path clip-path="url(#clip170)" d="M1999.81 210.972 L1999.81 246.181 L1990.22 246.181 L1990.22 211.285 Q1990.22 203.004 1986.99 198.889 Q1983.76 194.775 1977.31 194.775 Q1969.55 194.775 1965.07 199.723 Q1960.59 204.67 1960.59 213.212 L1960.59 246.181 L1950.95 246.181 L1950.95 187.848 L1960.59 187.848 L1960.59 196.91 Q1964.02 191.65 1968.66 189.046 Q1973.35 186.441 1979.44 186.441 Q1989.49 186.441 1994.65 192.691 Q1999.81 198.889 1999.81 210.972 Z" fill="#000000" fill-rule="evenodd" fill-opacity="1" /><path clip-path="url(#clip170)" d="M2018.92 165.139 L2028.5 165.139 L2028.5 246.181 L2018.92 246.181 L2018.92 165.139 Z" fill="#000000" fill-rule="evenodd" fill-opacity="1" /><path clip-path="url(#clip170)" d="M2048.56 187.848 L2058.14 187.848 L2058.14 246.181 L2048.56 246.181 L2048.56 187.848 M2048.56 165.139 L2058.14 165.139 L2058.14 177.275 L2048.56 177.275 L2048.56 165.139 Z" fill="#000000" fill-rule="evenodd" fill-opacity="1" /><path clip-path="url(#clip170)" d="M2126.68 210.972 L2126.68 246.181 L2117.1 246.181 L2117.1 211.285 Q2117.1 203.004 2113.87 198.889 Q2110.64 194.775 2104.18 194.775 Q2096.42 194.775 2091.94 199.723 Q2087.46 204.67 2087.46 213.212 L2087.46 246.181 L2077.83 246.181 L2077.83 187.848 L2087.46 187.848 L2087.46 196.91 Q2090.9 191.65 2095.53 189.046 Q2100.22 186.441 2106.32 186.441 Q2116.37 186.441 2121.52 192.691 Q2126.68 198.889 2126.68 210.972 Z" fill="#000000" fill-rule="evenodd" fill-opacity="1" /><path clip-path="url(#clip170)" d="M2195.69 214.618 L2195.69 219.306 L2151.63 219.306 Q2152.25 229.202 2157.57 234.41 Q2162.93 239.566 2172.46 239.566 Q2177.98 239.566 2183.14 238.212 Q2188.35 236.858 2193.45 234.149 L2193.45 243.212 Q2188.29 245.399 2182.88 246.545 Q2177.46 247.691 2171.89 247.691 Q2157.93 247.691 2149.75 239.566 Q2141.63 231.441 2141.63 217.587 Q2141.63 203.264 2149.34 194.879 Q2157.1 186.441 2170.22 186.441 Q2181.99 186.441 2188.82 194.045 Q2195.69 201.598 2195.69 214.618 M2186.11 211.806 Q2186 203.941 2181.68 199.254 Q2177.41 194.566 2170.33 194.566 Q2162.3 194.566 2157.46 199.098 Q2152.67 203.629 2151.94 211.858 L2186.11 211.806 Z" fill="#000000" fill-rule="evenodd" fill-opacity="1" /><path clip-path="url(#clip170)" d="M2237.93 216.858 Q2226.31 216.858 2221.84 219.514 Q2217.36 222.17 2217.36 228.577 Q2217.36 233.681 2220.69 236.702 Q2224.08 239.67 2229.86 239.67 Q2237.83 239.67 2242.62 234.045 Q2247.46 228.368 2247.46 218.993 L2247.46 216.858 L2237.93 216.858 M2257.04 212.9 L2257.04 246.181 L2247.46 246.181 L2247.46 237.327 Q2244.18 242.639 2239.28 245.191 Q2234.39 247.691 2227.3 247.691 Q2218.35 247.691 2213.03 242.691 Q2207.77 237.639 2207.77 229.202 Q2207.77 219.358 2214.34 214.358 Q2220.95 209.358 2234.02 209.358 L2247.46 209.358 L2247.46 208.42 Q2247.46 201.806 2243.09 198.212 Q2238.76 194.566 2230.9 194.566 Q2225.9 194.566 2221.16 195.764 Q2216.42 196.962 2212.04 199.358 L2212.04 190.504 Q2217.3 188.473 2222.25 187.483 Q2227.2 186.441 2231.89 186.441 Q2244.54 186.441 2250.79 193.004 Q2257.04 199.566 2257.04 212.9 Z" fill="#000000" fill-rule="evenodd" fill-opacity="1" /><path clip-path="url(#clip170)" d="M2310.59 196.806 Q2308.97 195.868 2307.04 195.452 Q2305.17 194.983 2302.88 194.983 Q2294.75 194.983 2290.38 200.295 Q2286.05 205.556 2286.05 215.452 L2286.05 246.181 L2276.42 246.181 L2276.42 187.848 L2286.05 187.848 L2286.05 196.91 Q2289.08 191.598 2293.92 189.046 Q2298.76 186.441 2305.69 186.441 Q2306.68 186.441 2307.88 186.598 Q2309.07 186.702 2310.53 186.962 L2310.59 196.806 Z" fill="#000000" fill-rule="evenodd" fill-opacity="1" /><polyline clip-path="url(#clip170)" style="stroke:#e26f46; stroke-linecap:butt; stroke-linejoin:round; stroke-width:9; stroke-opacity:1; fill:none" points="
  1670.49,323.941 1797,323.941 
  "/>
<path clip-path="url(#clip170)" d="M1818.09 281.779 L1827.67 281.779 L1827.67 362.821 L1818.09 362.821 L1818.09 281.779 Z" fill="#000000" fill-rule="evenodd" fill-opacity="1" /><path clip-path="url(#clip170)" d="M1847.72 304.488 L1857.31 304.488 L1857.31 362.821 L1847.72 362.821 L1847.72 304.488 M1847.72 281.779 L1857.31 281.779 L1857.31 293.915 L1847.72 293.915 L1847.72 281.779 Z" fill="#000000" fill-rule="evenodd" fill-opacity="1" /><path clip-path="url(#clip170)" d="M1925.85 327.612 L1925.85 362.821 L1916.26 362.821 L1916.26 327.925 Q1916.26 319.644 1913.04 315.529 Q1909.81 311.415 1903.35 311.415 Q1895.59 311.415 1891.11 316.363 Q1886.63 321.31 1886.63 329.852 L1886.63 362.821 L1876.99 362.821 L1876.99 304.488 L1886.63 304.488 L1886.63 313.55 Q1890.07 308.29 1894.7 305.686 Q1899.39 303.081 1905.48 303.081 Q1915.54 303.081 1920.69 309.331 Q1925.85 315.529 1925.85 327.612 Z" fill="#000000" fill-rule="evenodd" fill-opacity="1" /><path clip-path="url(#clip170)" d="M1994.86 331.258 L1994.86 335.946 L1950.8 335.946 Q1951.42 345.842 1956.73 351.05 Q1962.1 356.206 1971.63 356.206 Q1977.15 356.206 1982.31 354.852 Q1987.51 353.498 1992.62 350.789 L1992.62 359.852 Q1987.46 362.039 1982.05 363.185 Q1976.63 364.331 1971.06 364.331 Q1957.1 364.331 1948.92 356.206 Q1940.8 348.081 1940.8 334.227 Q1940.8 319.904 1948.5 311.519 Q1956.26 303.081 1969.39 303.081 Q1981.16 303.081 1987.98 310.685 Q1994.86 318.238 1994.86 331.258 M1985.27 328.446 Q1985.17 320.581 1980.85 315.894 Q1976.58 311.206 1969.49 311.206 Q1961.47 311.206 1956.63 315.738 Q1951.84 320.269 1951.11 328.498 L1985.27 328.446 Z" fill="#000000" fill-rule="evenodd" fill-opacity="1" /><path clip-path="url(#clip170)" d="M2037.1 333.498 Q2025.48 333.498 2021 336.154 Q2016.52 338.81 2016.52 345.217 Q2016.52 350.321 2019.86 353.342 Q2023.24 356.31 2029.02 356.31 Q2036.99 356.31 2041.78 350.685 Q2046.63 345.008 2046.63 335.633 L2046.63 333.498 L2037.1 333.498 M2056.21 329.54 L2056.21 362.821 L2046.63 362.821 L2046.63 353.967 Q2043.35 359.279 2038.45 361.831 Q2033.56 364.331 2026.47 364.331 Q2017.51 364.331 2012.2 359.331 Q2006.94 354.279 2006.94 345.842 Q2006.94 335.998 2013.5 330.998 Q2020.12 325.998 2033.19 325.998 L2046.63 325.998 L2046.63 325.06 Q2046.63 318.446 2042.25 314.852 Q2037.93 311.206 2030.07 311.206 Q2025.07 311.206 2020.33 312.404 Q2015.59 313.602 2011.21 315.998 L2011.21 307.144 Q2016.47 305.113 2021.42 304.123 Q2026.37 303.081 2031.06 303.081 Q2043.71 303.081 2049.96 309.644 Q2056.21 316.206 2056.21 329.54 Z" fill="#000000" fill-rule="evenodd" fill-opacity="1" /><path clip-path="url(#clip170)" d="M2109.75 313.446 Q2108.14 312.508 2106.21 312.092 Q2104.34 311.623 2102.04 311.623 Q2093.92 311.623 2089.54 316.935 Q2085.22 322.196 2085.22 332.092 L2085.22 362.821 L2075.59 362.821 L2075.59 304.488 L2085.22 304.488 L2085.22 313.55 Q2088.24 308.238 2093.09 305.686 Q2097.93 303.081 2104.86 303.081 Q2105.85 303.081 2107.04 303.238 Q2108.24 303.342 2109.7 303.602 L2109.75 313.446 Z" fill="#000000" fill-rule="evenodd" fill-opacity="1" /></svg>
