<?xml version="1.0" encoding="utf-8"?>
<svg xmlns="http://www.w3.org/2000/svg" xmlns:xlink="http://www.w3.org/1999/xlink" width="600" height="400" viewBox="0 0 2400 1600">
<defs>
  <clipPath id="clip040">
    <rect x="0" y="0" width="2400" height="1600"/>
  </clipPath>
</defs>
<path clip-path="url(#clip040)" d="
M0 1600 L2400 1600 L2400 0 L0 0  Z
  " fill="#ffffff" fill-rule="evenodd" fill-opacity="1"/>
<defs>
  <clipPath id="clip041">
    <rect x="480" y="0" width="1681" height="1600"/>
  </clipPath>
</defs>
<path clip-path="url(#clip040)" d="
M379.334 1443.25 L2067.71 1443.25 L2067.71 47.2441 L379.334 47.2441  Z
  " fill="#ffffff" fill-rule="evenodd" fill-opacity="1"/>
<defs>
  <clipPath id="clip042">
    <rect x="379" y="47" width="1689" height="1397"/>
  </clipPath>
</defs>
<polyline clip-path="url(#clip040)" style="stroke:#000000; stroke-linecap:butt; stroke-linejoin:round; stroke-width:4; stroke-opacity:1; fill:none" points="
  379.334,1443.25 2067.71,1443.25 
  "/>
<polyline clip-path="url(#clip040)" style="stroke:#000000; stroke-linecap:butt; stroke-linejoin:round; stroke-width:4; stroke-opacity:1; fill:none" points="
  536.967,1443.25 536.967,1424.35 
  "/>
<polyline clip-path="url(#clip040)" style="stroke:#000000; stroke-linecap:butt; stroke-linejoin:round; stroke-width:4; stroke-opacity:1; fill:none" points="
  811.588,1443.25 811.588,1424.35 
  "/>
<polyline clip-path="url(#clip040)" style="stroke:#000000; stroke-linecap:butt; stroke-linejoin:round; stroke-width:4; stroke-opacity:1; fill:none" points="
  1086.21,1443.25 1086.21,1424.35 
  "/>
<polyline clip-path="url(#clip040)" style="stroke:#000000; stroke-linecap:butt; stroke-linejoin:round; stroke-width:4; stroke-opacity:1; fill:none" points="
  1360.83,1443.25 1360.83,1424.35 
  "/>
<polyline clip-path="url(#clip040)" style="stroke:#000000; stroke-linecap:butt; stroke-linejoin:round; stroke-width:4; stroke-opacity:1; fill:none" points="
  1635.45,1443.25 1635.45,1424.35 
  "/>
<polyline clip-path="url(#clip040)" style="stroke:#000000; stroke-linecap:butt; stroke-linejoin:round; stroke-width:4; stroke-opacity:1; fill:none" points="
  1910.07,1443.25 1910.07,1424.35 
  "/>
<path clip-path="url(#clip040)" d="M420.275 1481.89 L486.056 1481.89 L486.056 1490.74 L458.452 1490.74 L458.452 1559.65 L447.879 1559.65 L447.879 1490.74 L420.275 1490.74 L420.275 1481.89 Z" fill="#000000" fill-rule="evenodd" fill-opacity="1" /><path clip-path="url(#clip040)" d="M515.326 1503.03 L515.326 1512.1 Q511.264 1510.01 506.889 1508.97 Q502.514 1507.93 497.827 1507.93 Q490.691 1507.93 487.097 1510.12 Q483.556 1512.3 483.556 1516.68 Q483.556 1520.01 486.108 1521.94 Q488.66 1523.81 496.368 1525.53 L499.649 1526.26 Q509.858 1528.45 514.129 1532.46 Q518.451 1536.42 518.451 1543.55 Q518.451 1551.68 511.993 1556.42 Q505.587 1561.16 494.337 1561.16 Q489.649 1561.16 484.545 1560.22 Q479.493 1559.34 473.868 1557.51 L473.868 1547.62 Q479.181 1550.38 484.337 1551.78 Q489.493 1553.14 494.545 1553.14 Q501.316 1553.14 504.962 1550.85 Q508.608 1548.5 508.608 1544.28 Q508.608 1540.38 505.951 1538.29 Q503.347 1536.21 494.441 1534.28 L491.108 1533.5 Q482.202 1531.63 478.243 1527.77 Q474.285 1523.87 474.285 1517.1 Q474.285 1508.87 480.118 1504.39 Q485.952 1499.91 496.681 1499.91 Q501.993 1499.91 506.681 1500.69 Q511.368 1501.47 515.326 1503.03 Z" fill="#000000" fill-rule="evenodd" fill-opacity="1" /><path clip-path="url(#clip040)" d="M533.712 1501.31 L543.295 1501.31 L543.295 1559.65 L533.712 1559.65 L533.712 1501.31 M533.712 1478.61 L543.295 1478.61 L543.295 1490.74 L533.712 1490.74 L533.712 1478.61 Z" fill="#000000" fill-rule="evenodd" fill-opacity="1" /><path clip-path="url(#clip040)" d="M572.826 1484.75 L572.826 1501.31 L592.566 1501.31 L592.566 1508.76 L572.826 1508.76 L572.826 1540.43 Q572.826 1547.56 574.753 1549.6 Q576.732 1551.63 582.722 1551.63 L592.566 1551.63 L592.566 1559.65 L582.722 1559.65 Q571.628 1559.65 567.409 1555.53 Q563.191 1551.37 563.191 1540.43 L563.191 1508.76 L556.16 1508.76 L556.16 1501.31 L563.191 1501.31 L563.191 1484.75 L572.826 1484.75 Z" fill="#000000" fill-rule="evenodd" fill-opacity="1" /><path clip-path="url(#clip040)" d="M606.628 1481.89 L647.93 1481.89 L647.93 1490.74 L616.263 1490.74 L616.263 1509.8 Q618.555 1509.02 620.847 1508.66 Q623.138 1508.24 625.43 1508.24 Q638.451 1508.24 646.055 1515.38 Q653.659 1522.51 653.659 1534.7 Q653.659 1547.25 645.847 1554.23 Q638.034 1561.16 623.815 1561.16 Q618.92 1561.16 613.815 1560.32 Q608.763 1559.49 603.347 1557.82 L603.347 1547.25 Q608.034 1549.8 613.034 1551.05 Q618.034 1552.3 623.607 1552.3 Q632.617 1552.3 637.878 1547.56 Q643.138 1542.83 643.138 1534.7 Q643.138 1526.58 637.878 1521.84 Q632.617 1517.1 623.607 1517.1 Q619.388 1517.1 615.17 1518.03 Q611.003 1518.97 606.628 1520.95 L606.628 1481.89 Z" fill="#000000" fill-rule="evenodd" fill-opacity="1" /><path clip-path="url(#clip040)" d="M728.177 1522.51 L728.177 1551 L745.052 1551 Q753.542 1551 757.604 1547.51 Q761.719 1543.97 761.719 1536.73 Q761.719 1529.44 757.604 1526 Q753.542 1522.51 745.052 1522.51 L728.177 1522.51 M728.177 1490.53 L728.177 1513.97 L743.75 1513.97 Q751.458 1513.97 755.208 1511.11 Q759.01 1508.19 759.01 1502.25 Q759.01 1496.37 755.208 1493.45 Q751.458 1490.53 743.75 1490.53 L728.177 1490.53 M717.656 1481.89 L744.531 1481.89 Q756.563 1481.89 763.073 1486.89 Q769.583 1491.89 769.583 1501.11 Q769.583 1508.24 766.25 1512.46 Q762.917 1516.68 756.458 1517.72 Q764.219 1519.39 768.49 1524.7 Q772.812 1529.96 772.812 1537.88 Q772.812 1548.29 765.729 1553.97 Q758.646 1559.65 745.573 1559.65 L717.656 1559.65 L717.656 1481.89 Z" fill="#000000" fill-rule="evenodd" fill-opacity="1" /><path clip-path="url(#clip040)" d="M835.572 1484.44 L835.572 1494.7 Q829.583 1491.84 824.27 1490.43 Q818.958 1489.02 814.01 1489.02 Q805.416 1489.02 800.729 1492.36 Q796.094 1495.69 796.094 1501.84 Q796.094 1506.99 799.166 1509.65 Q802.291 1512.25 810.937 1513.87 L817.291 1515.17 Q829.062 1517.41 834.635 1523.09 Q840.26 1528.71 840.26 1538.19 Q840.26 1549.49 832.656 1555.32 Q825.104 1561.16 810.468 1561.16 Q804.948 1561.16 798.698 1559.91 Q792.5 1558.66 785.833 1556.21 L785.833 1545.38 Q792.239 1548.97 798.385 1550.79 Q804.531 1552.62 810.468 1552.62 Q819.479 1552.62 824.375 1549.08 Q829.27 1545.53 829.27 1538.97 Q829.27 1533.24 825.729 1530.01 Q822.239 1526.78 814.218 1525.17 L807.812 1523.92 Q796.041 1521.58 790.781 1516.58 Q785.521 1511.58 785.521 1502.67 Q785.521 1492.36 792.76 1486.42 Q800.052 1480.48 812.812 1480.48 Q818.281 1480.48 823.958 1481.47 Q829.635 1482.46 835.572 1484.44 Z" fill="#000000" fill-rule="evenodd" fill-opacity="1" /><path clip-path="url(#clip040)" d="M889.478 1517.72 Q897.031 1519.34 901.249 1524.44 Q905.52 1529.54 905.52 1537.04 Q905.52 1548.55 897.603 1554.86 Q889.687 1561.16 875.104 1561.16 Q870.208 1561.16 864.999 1560.17 Q859.843 1559.23 854.322 1557.3 L854.322 1547.15 Q858.697 1549.7 863.906 1551 Q869.114 1552.3 874.791 1552.3 Q884.687 1552.3 889.843 1548.4 Q895.051 1544.49 895.051 1537.04 Q895.051 1530.17 890.208 1526.31 Q885.416 1522.41 876.822 1522.41 L867.76 1522.41 L867.76 1513.76 L877.239 1513.76 Q884.999 1513.76 889.114 1510.69 Q893.228 1507.56 893.228 1501.73 Q893.228 1495.74 888.958 1492.56 Q884.739 1489.34 876.822 1489.34 Q872.499 1489.34 867.551 1490.27 Q862.604 1491.21 856.666 1493.19 L856.666 1483.81 Q862.656 1482.15 867.864 1481.31 Q873.124 1480.48 877.76 1480.48 Q889.739 1480.48 896.718 1485.95 Q903.697 1491.37 903.697 1500.64 Q903.697 1507.1 899.999 1511.58 Q896.301 1516 889.478 1517.72 Z" fill="#000000" fill-rule="evenodd" fill-opacity="1" /><path clip-path="url(#clip040)" d="M1003.19 1522.51 L1003.19 1551 L1020.06 1551 Q1028.55 1551 1032.62 1547.51 Q1036.73 1543.97 1036.73 1536.73 Q1036.73 1529.44 1032.62 1526 Q1028.55 1522.51 1020.06 1522.51 L1003.19 1522.51 M1003.19 1490.53 L1003.19 1513.97 L1018.76 1513.97 Q1026.47 1513.97 1030.22 1511.11 Q1034.02 1508.19 1034.02 1502.25 Q1034.02 1496.37 1030.22 1493.45 Q1026.47 1490.53 1018.76 1490.53 L1003.19 1490.53 M992.668 1481.89 L1019.54 1481.89 Q1031.57 1481.89 1038.08 1486.89 Q1044.6 1491.89 1044.6 1501.11 Q1044.6 1508.24 1041.26 1512.46 Q1037.93 1516.68 1031.47 1517.72 Q1039.23 1519.39 1043.5 1524.7 Q1047.82 1529.96 1047.82 1537.88 Q1047.82 1548.29 1040.74 1553.97 Q1033.66 1559.65 1020.58 1559.65 L992.668 1559.65 L992.668 1481.89 Z" fill="#000000" fill-rule="evenodd" fill-opacity="1" /><path clip-path="url(#clip040)" d="M1110.58 1484.44 L1110.58 1494.7 Q1104.59 1491.84 1099.28 1490.43 Q1093.97 1489.02 1089.02 1489.02 Q1080.43 1489.02 1075.74 1492.36 Q1071.11 1495.69 1071.11 1501.84 Q1071.11 1506.99 1074.18 1509.65 Q1077.3 1512.25 1085.95 1513.87 L1092.3 1515.17 Q1104.07 1517.41 1109.65 1523.09 Q1115.27 1528.71 1115.27 1538.19 Q1115.27 1549.49 1107.67 1555.32 Q1100.12 1561.16 1085.48 1561.16 Q1079.96 1561.16 1073.71 1559.91 Q1067.51 1558.66 1060.85 1556.21 L1060.85 1545.38 Q1067.25 1548.97 1073.4 1550.79 Q1079.54 1552.62 1085.48 1552.62 Q1094.49 1552.62 1099.39 1549.08 Q1104.28 1545.53 1104.28 1538.97 Q1104.28 1533.24 1100.74 1530.01 Q1097.25 1526.78 1089.23 1525.17 L1082.82 1523.92 Q1071.05 1521.58 1065.79 1516.58 Q1060.53 1511.58 1060.53 1502.67 Q1060.53 1492.36 1067.77 1486.42 Q1075.06 1480.48 1087.82 1480.48 Q1093.29 1480.48 1098.97 1481.47 Q1104.65 1482.46 1110.58 1484.44 Z" fill="#000000" fill-rule="evenodd" fill-opacity="1" /><path clip-path="url(#clip040)" d="M1132.72 1481.89 L1174.02 1481.89 L1174.02 1490.74 L1142.36 1490.74 L1142.36 1509.8 Q1144.65 1509.02 1146.94 1508.66 Q1149.23 1508.24 1151.52 1508.24 Q1164.54 1508.24 1172.15 1515.38 Q1179.75 1522.51 1179.75 1534.7 Q1179.75 1547.25 1171.94 1554.23 Q1164.13 1561.16 1149.91 1561.16 Q1145.01 1561.16 1139.91 1560.32 Q1134.86 1559.49 1129.44 1557.82 L1129.44 1547.25 Q1134.13 1549.8 1139.13 1551.05 Q1144.13 1552.3 1149.7 1552.3 Q1158.71 1552.3 1163.97 1547.56 Q1169.23 1542.83 1169.23 1534.7 Q1169.23 1526.58 1163.97 1521.84 Q1158.71 1517.1 1149.7 1517.1 Q1145.48 1517.1 1141.26 1518.03 Q1137.09 1518.97 1132.72 1520.95 L1132.72 1481.89 Z" fill="#000000" fill-rule="evenodd" fill-opacity="1" /><path clip-path="url(#clip040)" d="M1240.41 1559.65 L1210.73 1481.89 L1221.72 1481.89 L1246.35 1547.36 L1271.04 1481.89 L1281.98 1481.89 L1252.34 1559.65 L1240.41 1559.65 Z" fill="#000000" fill-rule="evenodd" fill-opacity="1" /><path clip-path="url(#clip040)" d="M1334.53 1528.09 L1334.53 1532.77 L1290.47 1532.77 Q1291.09 1542.67 1296.4 1547.88 Q1301.77 1553.03 1311.3 1553.03 Q1316.82 1553.03 1321.98 1551.68 Q1327.19 1550.33 1332.29 1547.62 L1332.29 1556.68 Q1327.13 1558.87 1321.72 1560.01 Q1316.3 1561.16 1310.73 1561.16 Q1296.77 1561.16 1288.59 1553.03 Q1280.47 1544.91 1280.47 1531.05 Q1280.47 1516.73 1288.18 1508.35 Q1295.94 1499.91 1309.06 1499.91 Q1320.83 1499.91 1327.65 1507.51 Q1334.53 1515.06 1334.53 1528.09 M1324.95 1525.27 Q1324.84 1517.41 1320.52 1512.72 Q1316.25 1508.03 1309.16 1508.03 Q1301.14 1508.03 1296.3 1512.56 Q1291.51 1517.1 1290.78 1525.33 L1324.95 1525.27 Z" fill="#000000" fill-rule="evenodd" fill-opacity="1" /><path clip-path="url(#clip040)" d="M1384.06 1510.27 Q1382.45 1509.34 1380.52 1508.92 Q1378.64 1508.45 1376.35 1508.45 Q1368.23 1508.45 1363.85 1513.76 Q1359.53 1519.02 1359.53 1528.92 L1359.53 1559.65 L1349.89 1559.65 L1349.89 1501.31 L1359.53 1501.31 L1359.53 1510.38 Q1362.55 1505.06 1367.39 1502.51 Q1372.24 1499.91 1379.16 1499.91 Q1380.15 1499.91 1381.35 1500.06 Q1382.55 1500.17 1384.01 1500.43 L1384.06 1510.27 Z" fill="#000000" fill-rule="evenodd" fill-opacity="1" /><path clip-path="url(#clip040)" d="M1440.73 1524.44 L1440.73 1559.65 L1431.14 1559.65 L1431.14 1524.75 Q1431.14 1516.47 1427.91 1512.36 Q1424.68 1508.24 1418.23 1508.24 Q1410.47 1508.24 1405.99 1513.19 Q1401.51 1518.14 1401.51 1526.68 L1401.51 1559.65 L1391.87 1559.65 L1391.87 1501.31 L1401.51 1501.31 L1401.51 1510.38 Q1404.95 1505.12 1409.58 1502.51 Q1414.27 1499.91 1420.36 1499.91 Q1430.41 1499.91 1435.57 1506.16 Q1440.73 1512.36 1440.73 1524.44 Z" fill="#000000" fill-rule="evenodd" fill-opacity="1" /><path clip-path="url(#clip040)" d="M1485 1516.58 Q1477.91 1516.58 1473.75 1521.42 Q1469.63 1526.26 1469.63 1534.7 Q1469.63 1543.09 1473.75 1547.98 Q1477.91 1552.82 1485 1552.82 Q1492.08 1552.82 1496.19 1547.98 Q1500.36 1543.09 1500.36 1534.7 Q1500.36 1526.26 1496.19 1521.42 Q1492.08 1516.58 1485 1516.58 M1505.88 1483.61 L1505.88 1493.19 Q1501.92 1491.31 1497.86 1490.33 Q1493.85 1489.34 1489.89 1489.34 Q1479.48 1489.34 1473.96 1496.37 Q1468.49 1503.4 1467.71 1517.62 Q1470.78 1513.09 1475.41 1510.69 Q1480.05 1508.24 1485.62 1508.24 Q1497.34 1508.24 1504.11 1515.38 Q1510.93 1522.46 1510.93 1534.7 Q1510.93 1546.68 1503.85 1553.92 Q1496.77 1561.16 1485 1561.16 Q1471.51 1561.16 1464.37 1550.85 Q1457.24 1540.48 1457.24 1520.85 Q1457.24 1502.41 1465.99 1491.47 Q1474.74 1480.48 1489.48 1480.48 Q1493.43 1480.48 1497.44 1481.26 Q1501.51 1482.04 1505.88 1483.61 Z" fill="#000000" fill-rule="evenodd" fill-opacity="1" /><path clip-path="url(#clip040)" d="M1515.43 1559.65 L1485.74 1481.89 L1496.73 1481.89 L1521.36 1547.36 L1546.05 1481.89 L1556.99 1481.89 L1527.35 1559.65 L1515.43 1559.65 Z" fill="#000000" fill-rule="evenodd" fill-opacity="1" /><path clip-path="url(#clip040)" d="M1609.54 1528.09 L1609.54 1532.77 L1565.48 1532.77 Q1566.1 1542.67 1571.42 1547.88 Q1576.78 1553.03 1586.31 1553.03 Q1591.83 1553.03 1596.99 1551.68 Q1602.2 1550.33 1607.3 1547.62 L1607.3 1556.68 Q1602.15 1558.87 1596.73 1560.01 Q1591.31 1561.16 1585.74 1561.16 Q1571.78 1561.16 1563.6 1553.03 Q1555.48 1544.91 1555.48 1531.05 Q1555.48 1516.73 1563.19 1508.35 Q1570.95 1499.91 1584.07 1499.91 Q1595.84 1499.91 1602.67 1507.51 Q1609.54 1515.06 1609.54 1528.09 M1599.96 1525.27 Q1599.85 1517.41 1595.53 1512.72 Q1591.26 1508.03 1584.18 1508.03 Q1576.16 1508.03 1571.31 1512.56 Q1566.52 1517.1 1565.79 1525.33 L1599.96 1525.27 Z" fill="#000000" fill-rule="evenodd" fill-opacity="1" /><path clip-path="url(#clip040)" d="M1659.07 1510.27 Q1657.46 1509.34 1655.53 1508.92 Q1653.66 1508.45 1651.36 1508.45 Q1643.24 1508.45 1638.86 1513.76 Q1634.54 1519.02 1634.54 1528.92 L1634.54 1559.65 L1624.91 1559.65 L1624.91 1501.31 L1634.54 1501.31 L1634.54 1510.38 Q1637.56 1505.06 1642.41 1502.51 Q1647.25 1499.91 1654.18 1499.91 Q1655.17 1499.91 1656.36 1500.06 Q1657.56 1500.17 1659.02 1500.43 L1659.07 1510.27 Z" fill="#000000" fill-rule="evenodd" fill-opacity="1" /><path clip-path="url(#clip040)" d="M1715.74 1524.44 L1715.74 1559.65 L1706.15 1559.65 L1706.15 1524.75 Q1706.15 1516.47 1702.93 1512.36 Q1699.7 1508.24 1693.24 1508.24 Q1685.48 1508.24 1681 1513.19 Q1676.52 1518.14 1676.52 1526.68 L1676.52 1559.65 L1666.88 1559.65 L1666.88 1501.31 L1676.52 1501.31 L1676.52 1510.38 Q1679.96 1505.12 1684.59 1502.51 Q1689.28 1499.91 1695.37 1499.91 Q1705.43 1499.91 1710.58 1506.16 Q1715.74 1512.36 1715.74 1524.44 Z" fill="#000000" fill-rule="evenodd" fill-opacity="1" /><path clip-path="url(#clip040)" d="M1736.52 1558.03 L1736.52 1548.45 Q1740.48 1550.33 1744.54 1551.31 Q1748.6 1552.3 1752.51 1552.3 Q1762.93 1552.3 1768.39 1545.33 Q1773.91 1538.29 1774.7 1524.02 Q1771.68 1528.5 1767.04 1530.9 Q1762.4 1533.29 1756.78 1533.29 Q1745.11 1533.29 1738.29 1526.26 Q1731.52 1519.18 1731.52 1506.94 Q1731.52 1494.96 1738.6 1487.72 Q1745.69 1480.48 1757.46 1480.48 Q1770.95 1480.48 1778.03 1490.85 Q1785.16 1501.16 1785.16 1520.85 Q1785.16 1539.23 1776.41 1550.22 Q1767.72 1561.16 1752.98 1561.16 Q1749.02 1561.16 1744.96 1560.38 Q1740.89 1559.6 1736.52 1558.03 M1757.46 1525.06 Q1764.54 1525.06 1768.65 1520.22 Q1772.82 1515.38 1772.82 1506.94 Q1772.82 1498.55 1768.65 1493.71 Q1764.54 1488.81 1757.46 1488.81 Q1750.37 1488.81 1746.21 1493.71 Q1742.09 1498.55 1742.09 1506.94 Q1742.09 1515.38 1746.21 1520.22 Q1750.37 1525.06 1757.46 1525.06 Z" fill="#000000" fill-rule="evenodd" fill-opacity="1" /><path clip-path="url(#clip040)" d="M1823.33 1490.53 L1823.33 1551 L1836.04 1551 Q1852.13 1551 1859.58 1543.71 Q1867.08 1536.42 1867.08 1520.69 Q1867.08 1505.06 1859.58 1497.83 Q1852.13 1490.53 1836.04 1490.53 L1823.33 1490.53 M1812.81 1481.89 L1834.42 1481.89 Q1857.03 1481.89 1867.6 1491.31 Q1878.17 1500.69 1878.17 1520.69 Q1878.17 1540.79 1867.55 1550.22 Q1856.92 1559.65 1834.42 1559.65 L1812.81 1559.65 L1812.81 1481.89 Z" fill="#000000" fill-rule="evenodd" fill-opacity="1" /><path clip-path="url(#clip040)" d="M1905.46 1490.53 L1905.46 1519.75 L1918.69 1519.75 Q1926.04 1519.75 1930.05 1515.95 Q1934.06 1512.15 1934.06 1505.12 Q1934.06 1498.14 1930.05 1494.34 Q1926.04 1490.53 1918.69 1490.53 L1905.46 1490.53 M1894.94 1481.89 L1918.69 1481.89 Q1931.77 1481.89 1938.43 1487.83 Q1945.15 1493.71 1945.15 1505.12 Q1945.15 1516.63 1938.43 1522.51 Q1931.77 1528.4 1918.69 1528.4 L1905.46 1528.4 L1905.46 1559.65 L1894.94 1559.65 L1894.94 1481.89 Z" fill="#000000" fill-rule="evenodd" fill-opacity="1" /><path clip-path="url(#clip040)" d="M1960.31 1481.89 L2001.61 1481.89 L2001.61 1490.74 L1969.94 1490.74 L1969.94 1509.8 Q1972.23 1509.02 1974.53 1508.66 Q1976.82 1508.24 1979.11 1508.24 Q1992.13 1508.24 1999.73 1515.38 Q2007.34 1522.51 2007.34 1534.7 Q2007.34 1547.25 1999.53 1554.23 Q1991.71 1561.16 1977.5 1561.16 Q1972.6 1561.16 1967.5 1560.32 Q1962.44 1559.49 1957.03 1557.82 L1957.03 1547.25 Q1961.71 1549.8 1966.71 1551.05 Q1971.71 1552.3 1977.29 1552.3 Q1986.3 1552.3 1991.56 1547.56 Q1996.82 1542.83 1996.82 1534.7 Q1996.82 1526.58 1991.56 1521.84 Q1986.3 1517.1 1977.29 1517.1 Q1973.07 1517.1 1968.85 1518.03 Q1964.68 1518.97 1960.31 1520.95 L1960.31 1481.89 Z" fill="#000000" fill-rule="evenodd" fill-opacity="1" /><polyline clip-path="url(#clip040)" style="stroke:#000000; stroke-linecap:butt; stroke-linejoin:round; stroke-width:4; stroke-opacity:1; fill:none" points="
  379.334,1443.25 379.334,47.2441 
  "/>
<polyline clip-path="url(#clip040)" style="stroke:#000000; stroke-linecap:butt; stroke-linejoin:round; stroke-width:4; stroke-opacity:1; fill:none" points="
  379.334,1443.25 395.502,1443.25 
  "/>
<polyline clip-path="url(#clip040)" style="stroke:#000000; stroke-linecap:butt; stroke-linejoin:round; stroke-width:4; stroke-opacity:1; fill:none" points="
  379.334,1164.05 395.502,1164.05 
  "/>
<polyline clip-path="url(#clip040)" style="stroke:#000000; stroke-linecap:butt; stroke-linejoin:round; stroke-width:4; stroke-opacity:1; fill:none" points="
  379.334,884.846 395.502,884.846 
  "/>
<polyline clip-path="url(#clip040)" style="stroke:#000000; stroke-linecap:butt; stroke-linejoin:round; stroke-width:4; stroke-opacity:1; fill:none" points="
  379.334,605.646 395.502,605.646 
  "/>
<polyline clip-path="url(#clip040)" style="stroke:#000000; stroke-linecap:butt; stroke-linejoin:round; stroke-width:4; stroke-opacity:1; fill:none" points="
  379.334,326.445 395.502,326.445 
  "/>
<polyline clip-path="url(#clip040)" style="stroke:#000000; stroke-linecap:butt; stroke-linejoin:round; stroke-width:4; stroke-opacity:1; fill:none" points="
  379.334,47.2441 395.502,47.2441 
  "/>
<path clip-path="url(#clip040)" d="M78.9607 1411.29 Q70.8358 1411.29 66.7212 1419.32 Q62.6587 1427.28 62.6587 1443.33 Q62.6587 1459.32 66.7212 1467.34 Q70.8358 1475.3 78.9607 1475.3 Q87.1378 1475.3 91.2002 1467.34 Q95.3148 1459.32 95.3148 1443.33 Q95.3148 1427.28 91.2002 1419.32 Q87.1378 1411.29 78.9607 1411.29 M78.9607 1402.96 Q92.0336 1402.96 98.9085 1413.33 Q105.836 1423.64 105.836 1443.33 Q105.836 1462.96 98.9085 1473.33 Q92.0336 1483.64 78.9607 1483.64 Q65.8879 1483.64 58.9608 1473.33 Q52.0859 1462.96 52.0859 1443.33 Q52.0859 1423.64 58.9608 1413.33 Q65.8879 1402.96 78.9607 1402.96 Z" fill="#000000" fill-rule="evenodd" fill-opacity="1" /><path clip-path="url(#clip040)" d="M124.325 1468.9 L135.315 1468.9 L135.315 1482.13 L124.325 1482.13 L124.325 1468.9 Z" fill="#000000" fill-rule="evenodd" fill-opacity="1" /><path clip-path="url(#clip040)" d="M180.731 1411.29 Q172.606 1411.29 168.491 1419.32 Q164.429 1427.28 164.429 1443.33 Q164.429 1459.32 168.491 1467.34 Q172.606 1475.3 180.731 1475.3 Q188.908 1475.3 192.971 1467.34 Q197.085 1459.32 197.085 1443.33 Q197.085 1427.28 192.971 1419.32 Q188.908 1411.29 180.731 1411.29 M180.731 1402.96 Q193.804 1402.96 200.679 1413.33 Q207.606 1423.64 207.606 1443.33 Q207.606 1462.96 200.679 1473.33 Q193.804 1483.64 180.731 1483.64 Q167.658 1483.64 160.731 1473.33 Q153.856 1462.96 153.856 1443.33 Q153.856 1423.64 160.731 1413.33 Q167.658 1402.96 180.731 1402.96 Z" fill="#000000" fill-rule="evenodd" fill-opacity="1" /><path clip-path="url(#clip040)" d="M248.595 1411.29 Q240.47 1411.29 236.356 1419.32 Q232.293 1427.28 232.293 1443.33 Q232.293 1459.32 236.356 1467.34 Q240.47 1475.3 248.595 1475.3 Q256.772 1475.3 260.835 1467.34 Q264.949 1459.32 264.949 1443.33 Q264.949 1427.28 260.835 1419.32 Q256.772 1411.29 248.595 1411.29 M248.595 1402.96 Q261.668 1402.96 268.543 1413.33 Q275.47 1423.64 275.47 1443.33 Q275.47 1462.96 268.543 1473.33 Q261.668 1483.64 248.595 1483.64 Q235.522 1483.64 228.595 1473.33 Q221.72 1462.96 221.72 1443.33 Q221.72 1423.64 228.595 1413.33 Q235.522 1402.96 248.595 1402.96 Z" fill="#000000" fill-rule="evenodd" fill-opacity="1" /><path clip-path="url(#clip040)" d="M316.459 1411.29 Q308.334 1411.29 304.22 1419.32 Q300.157 1427.28 300.157 1443.33 Q300.157 1459.32 304.22 1467.34 Q308.334 1475.3 316.459 1475.3 Q324.636 1475.3 328.699 1467.34 Q332.814 1459.32 332.814 1443.33 Q332.814 1427.28 328.699 1419.32 Q324.636 1411.29 316.459 1411.29 M316.459 1402.96 Q329.532 1402.96 336.407 1413.33 Q343.334 1423.64 343.334 1443.33 Q343.334 1462.96 336.407 1473.33 Q329.532 1483.64 316.459 1483.64 Q303.387 1483.64 296.46 1473.33 Q289.585 1462.96 289.585 1443.33 Q289.585 1423.64 296.46 1413.33 Q303.387 1402.96 316.459 1402.96 Z" fill="#000000" fill-rule="evenodd" fill-opacity="1" /><path clip-path="url(#clip040)" d="M81.7211 1132.09 Q73.5962 1132.09 69.4816 1140.11 Q65.4191 1148.08 65.4191 1164.13 Q65.4191 1180.11 69.4816 1188.14 Q73.5962 1196.1 81.7211 1196.1 Q89.8982 1196.1 93.9606 1188.14 Q98.0752 1180.11 98.0752 1164.13 Q98.0752 1148.08 93.9606 1140.11 Q89.8982 1132.09 81.7211 1132.09 M81.7211 1123.76 Q94.794 1123.76 101.669 1134.13 Q108.596 1144.44 108.596 1164.13 Q108.596 1183.76 101.669 1194.13 Q94.794 1204.44 81.7211 1204.44 Q68.6483 1204.44 61.7212 1194.13 Q54.8463 1183.76 54.8463 1164.13 Q54.8463 1144.44 61.7212 1134.13 Q68.6483 1123.76 81.7211 1123.76 Z" fill="#000000" fill-rule="evenodd" fill-opacity="1" /><path clip-path="url(#clip040)" d="M127.085 1189.7 L138.075 1189.7 L138.075 1202.93 L127.085 1202.93 L127.085 1189.7 Z" fill="#000000" fill-rule="evenodd" fill-opacity="1" /><path clip-path="url(#clip040)" d="M183.491 1132.09 Q175.366 1132.09 171.252 1140.11 Q167.189 1148.08 167.189 1164.13 Q167.189 1180.11 171.252 1188.14 Q175.366 1196.1 183.491 1196.1 Q191.668 1196.1 195.731 1188.14 Q199.845 1180.11 199.845 1164.13 Q199.845 1148.08 195.731 1140.11 Q191.668 1132.09 183.491 1132.09 M183.491 1123.76 Q196.564 1123.76 203.439 1134.13 Q210.366 1144.44 210.366 1164.13 Q210.366 1183.76 203.439 1194.13 Q196.564 1204.44 183.491 1204.44 Q170.419 1204.44 163.492 1194.13 Q156.617 1183.76 156.617 1164.13 Q156.617 1144.44 163.492 1134.13 Q170.419 1123.76 183.491 1123.76 Z" fill="#000000" fill-rule="evenodd" fill-opacity="1" /><path clip-path="url(#clip040)" d="M251.356 1132.09 Q243.231 1132.09 239.116 1140.11 Q235.054 1148.08 235.054 1164.13 Q235.054 1180.11 239.116 1188.14 Q243.231 1196.1 251.356 1196.1 Q259.533 1196.1 263.595 1188.14 Q267.71 1180.11 267.71 1164.13 Q267.71 1148.08 263.595 1140.11 Q259.533 1132.09 251.356 1132.09 M251.356 1123.76 Q264.428 1123.76 271.303 1134.13 Q278.23 1144.44 278.23 1164.13 Q278.23 1183.76 271.303 1194.13 Q264.428 1204.44 251.356 1204.44 Q238.283 1204.44 231.356 1194.13 Q224.481 1183.76 224.481 1164.13 Q224.481 1144.44 231.356 1134.13 Q238.283 1123.76 251.356 1123.76 Z" fill="#000000" fill-rule="evenodd" fill-opacity="1" /><path clip-path="url(#clip040)" d="M298.543 1194.07 L315.73 1194.07 L315.73 1134.75 L297.032 1138.5 L297.032 1128.92 L315.626 1125.17 L326.147 1125.17 L326.147 1194.07 L343.334 1194.07 L343.334 1202.93 L298.543 1202.93 L298.543 1194.07 Z" fill="#000000" fill-rule="evenodd" fill-opacity="1" /><path clip-path="url(#clip040)" d="M82.5545 852.893 Q74.4295 852.893 70.3149 860.914 Q66.2525 868.883 66.2525 884.924 Q66.2525 900.914 70.3149 908.935 Q74.4295 916.903 82.5545 916.903 Q90.7315 916.903 94.794 908.935 Q98.9085 900.914 98.9085 884.924 Q98.9085 868.883 94.794 860.914 Q90.7315 852.893 82.5545 852.893 M82.5545 844.56 Q95.6273 844.56 102.502 854.925 Q109.429 865.237 109.429 884.924 Q109.429 904.56 102.502 914.924 Q95.6273 925.237 82.5545 925.237 Q69.4816 925.237 62.5546 914.924 Q55.6796 904.56 55.6796 884.924 Q55.6796 865.237 62.5546 854.925 Q69.4816 844.56 82.5545 844.56 Z" fill="#000000" fill-rule="evenodd" fill-opacity="1" /><path clip-path="url(#clip040)" d="M127.919 910.497 L138.908 910.497 L138.908 923.726 L127.919 923.726 L127.919 910.497 Z" fill="#000000" fill-rule="evenodd" fill-opacity="1" /><path clip-path="url(#clip040)" d="M184.325 852.893 Q176.2 852.893 172.085 860.914 Q168.023 868.883 168.023 884.924 Q168.023 900.914 172.085 908.935 Q176.2 916.903 184.325 916.903 Q192.502 916.903 196.564 908.935 Q200.679 900.914 200.679 884.924 Q200.679 868.883 196.564 860.914 Q192.502 852.893 184.325 852.893 M184.325 844.56 Q197.398 844.56 204.273 854.925 Q211.2 865.237 211.2 884.924 Q211.2 904.56 204.273 914.924 Q197.398 925.237 184.325 925.237 Q171.252 925.237 164.325 914.924 Q157.45 904.56 157.45 884.924 Q157.45 865.237 164.325 854.925 Q171.252 844.56 184.325 844.56 Z" fill="#000000" fill-rule="evenodd" fill-opacity="1" /><path clip-path="url(#clip040)" d="M252.189 852.893 Q244.064 852.893 239.949 860.914 Q235.887 868.883 235.887 884.924 Q235.887 900.914 239.949 908.935 Q244.064 916.903 252.189 916.903 Q260.366 916.903 264.428 908.935 Q268.543 900.914 268.543 884.924 Q268.543 868.883 264.428 860.914 Q260.366 852.893 252.189 852.893 M252.189 844.56 Q265.262 844.56 272.137 854.925 Q279.064 865.237 279.064 884.924 Q279.064 904.56 272.137 914.924 Q265.262 925.237 252.189 925.237 Q239.116 925.237 232.189 914.924 Q225.314 904.56 225.314 884.924 Q225.314 865.237 232.189 854.925 Q239.116 844.56 252.189 844.56 Z" fill="#000000" fill-rule="evenodd" fill-opacity="1" /><path clip-path="url(#clip040)" d="M306.616 914.872 L343.334 914.872 L343.334 923.726 L293.96 923.726 L293.96 914.872 Q299.949 908.674 310.262 898.258 Q320.626 887.789 323.282 884.768 Q328.334 879.091 330.314 875.185 Q332.345 871.227 332.345 867.425 Q332.345 861.227 327.97 857.32 Q323.647 853.414 316.668 853.414 Q311.72 853.414 306.199 855.133 Q300.73 856.852 294.48 860.341 L294.48 849.716 Q300.835 847.164 306.355 845.862 Q311.876 844.56 316.459 844.56 Q328.543 844.56 335.73 850.602 Q342.918 856.643 342.918 866.748 Q342.918 871.539 341.095 875.862 Q339.324 880.133 334.584 885.966 Q333.282 887.477 326.303 894.716 Q319.324 901.904 306.616 914.872 Z" fill="#000000" fill-rule="evenodd" fill-opacity="1" /><path clip-path="url(#clip040)" d="M80.4191 573.693 Q72.2941 573.693 68.1795 581.713 Q64.1171 589.682 64.1171 605.724 Q64.1171 621.713 68.1795 629.734 Q72.2941 637.703 80.4191 637.703 Q88.5961 637.703 92.6586 629.734 Q96.7731 621.713 96.7731 605.724 Q96.7731 589.682 92.6586 581.713 Q88.5961 573.693 80.4191 573.693 M80.4191 565.359 Q93.4919 565.359 100.367 575.724 Q107.294 586.036 107.294 605.724 Q107.294 625.359 100.367 635.724 Q93.4919 646.036 80.4191 646.036 Q67.3462 646.036 60.4192 635.724 Q53.5442 625.359 53.5442 605.724 Q53.5442 586.036 60.4192 575.724 Q67.3462 565.359 80.4191 565.359 Z" fill="#000000" fill-rule="evenodd" fill-opacity="1" /><path clip-path="url(#clip040)" d="M125.783 631.297 L136.773 631.297 L136.773 644.526 L125.783 644.526 L125.783 631.297 Z" fill="#000000" fill-rule="evenodd" fill-opacity="1" /><path clip-path="url(#clip040)" d="M182.189 573.693 Q174.064 573.693 169.95 581.713 Q165.887 589.682 165.887 605.724 Q165.887 621.713 169.95 629.734 Q174.064 637.703 182.189 637.703 Q190.366 637.703 194.429 629.734 Q198.543 621.713 198.543 605.724 Q198.543 589.682 194.429 581.713 Q190.366 573.693 182.189 573.693 M182.189 565.359 Q195.262 565.359 202.137 575.724 Q209.064 586.036 209.064 605.724 Q209.064 625.359 202.137 635.724 Q195.262 646.036 182.189 646.036 Q169.116 646.036 162.189 635.724 Q155.314 625.359 155.314 605.724 Q155.314 586.036 162.189 575.724 Q169.116 565.359 182.189 565.359 Z" fill="#000000" fill-rule="evenodd" fill-opacity="1" /><path clip-path="url(#clip040)" d="M250.054 573.693 Q241.929 573.693 237.814 581.713 Q233.752 589.682 233.752 605.724 Q233.752 621.713 237.814 629.734 Q241.929 637.703 250.054 637.703 Q258.231 637.703 262.293 629.734 Q266.408 621.713 266.408 605.724 Q266.408 589.682 262.293 581.713 Q258.231 573.693 250.054 573.693 M250.054 565.359 Q263.126 565.359 270.001 575.724 Q276.928 586.036 276.928 605.724 Q276.928 625.359 270.001 635.724 Q263.126 646.036 250.054 646.036 Q236.981 646.036 230.054 635.724 Q223.179 625.359 223.179 605.724 Q223.179 586.036 230.054 575.724 Q236.981 565.359 250.054 565.359 Z" fill="#000000" fill-rule="evenodd" fill-opacity="1" /><path clip-path="url(#clip040)" d="M327.293 602.599 Q334.845 604.213 339.063 609.317 Q343.334 614.422 343.334 621.922 Q343.334 633.432 335.418 639.734 Q327.501 646.036 312.918 646.036 Q308.022 646.036 302.814 645.046 Q297.657 644.109 292.137 642.182 L292.137 632.026 Q296.512 634.578 301.72 635.88 Q306.928 637.182 312.605 637.182 Q322.501 637.182 327.657 633.276 Q332.866 629.369 332.866 621.922 Q332.866 615.047 328.022 611.192 Q323.23 607.286 314.637 607.286 L305.574 607.286 L305.574 598.64 L315.053 598.64 Q322.814 598.64 326.928 595.568 Q331.043 592.443 331.043 586.609 Q331.043 580.62 326.772 577.443 Q322.553 574.213 314.637 574.213 Q310.314 574.213 305.366 575.151 Q300.418 576.088 294.48 578.068 L294.48 568.693 Q300.47 567.026 305.678 566.193 Q310.939 565.359 315.574 565.359 Q327.553 565.359 334.532 570.828 Q341.511 576.245 341.511 585.516 Q341.511 591.974 337.814 596.453 Q334.116 600.88 327.293 602.599 Z" fill="#000000" fill-rule="evenodd" fill-opacity="1" /><path clip-path="url(#clip040)" d="M77.867 294.492 Q69.742 294.492 65.6275 302.513 Q61.565 310.481 61.565 326.523 Q61.565 342.512 65.6275 350.533 Q69.742 358.502 77.867 358.502 Q86.044 358.502 90.1065 350.533 Q94.2211 342.512 94.2211 326.523 Q94.2211 310.481 90.1065 302.513 Q86.044 294.492 77.867 294.492 M77.867 286.159 Q90.9398 286.159 97.8148 296.523 Q104.742 306.836 104.742 326.523 Q104.742 346.158 97.8148 356.523 Q90.9398 366.835 77.867 366.835 Q64.7941 366.835 57.8671 356.523 Q50.9921 346.158 50.9921 326.523 Q50.9921 306.836 57.8671 296.523 Q64.7941 286.159 77.867 286.159 Z" fill="#000000" fill-rule="evenodd" fill-opacity="1" /><path clip-path="url(#clip040)" d="M123.231 352.096 L134.221 352.096 L134.221 365.325 L123.231 365.325 L123.231 352.096 Z" fill="#000000" fill-rule="evenodd" fill-opacity="1" /><path clip-path="url(#clip040)" d="M179.637 294.492 Q171.512 294.492 167.398 302.513 Q163.335 310.481 163.335 326.523 Q163.335 342.512 167.398 350.533 Q171.512 358.502 179.637 358.502 Q187.814 358.502 191.877 350.533 Q195.991 342.512 195.991 326.523 Q195.991 310.481 191.877 302.513 Q187.814 294.492 179.637 294.492 M179.637 286.159 Q192.71 286.159 199.585 296.523 Q206.512 306.836 206.512 326.523 Q206.512 346.158 199.585 356.523 Q192.71 366.835 179.637 366.835 Q166.564 366.835 159.637 356.523 Q152.762 346.158 152.762 326.523 Q152.762 306.836 159.637 296.523 Q166.564 286.159 179.637 286.159 Z" fill="#000000" fill-rule="evenodd" fill-opacity="1" /><path clip-path="url(#clip040)" d="M247.501 294.492 Q239.377 294.492 235.262 302.513 Q231.199 310.481 231.199 326.523 Q231.199 342.512 235.262 350.533 Q239.377 358.502 247.501 358.502 Q255.679 358.502 259.741 350.533 Q263.856 342.512 263.856 326.523 Q263.856 310.481 259.741 302.513 Q255.679 294.492 247.501 294.492 M247.501 286.159 Q260.574 286.159 267.449 296.523 Q274.376 306.836 274.376 326.523 Q274.376 346.158 267.449 356.523 Q260.574 366.835 247.501 366.835 Q234.429 366.835 227.502 356.523 Q220.627 346.158 220.627 326.523 Q220.627 306.836 227.502 296.523 Q234.429 286.159 247.501 286.159 Z" fill="#000000" fill-rule="evenodd" fill-opacity="1" /><path clip-path="url(#clip040)" d="M321.772 296.731 L295.21 338.242 L321.772 338.242 L321.772 296.731 M319.012 287.565 L332.241 287.565 L332.241 338.242 L343.334 338.242 L343.334 346.992 L332.241 346.992 L332.241 365.325 L321.772 365.325 L321.772 346.992 L286.668 346.992 L286.668 336.835 L319.012 287.565 Z" fill="#000000" fill-rule="evenodd" fill-opacity="1" /><path clip-path="url(#clip040)" d="M81.2003 15.2911 Q73.0753 15.2911 68.9608 23.3119 Q64.8983 31.2806 64.8983 47.3222 Q64.8983 63.3117 68.9608 71.3325 Q73.0753 79.3012 81.2003 79.3012 Q89.3773 79.3012 93.4398 71.3325 Q97.5544 63.3117 97.5544 47.3222 Q97.5544 31.2806 93.4398 23.3119 Q89.3773 15.2911 81.2003 15.2911 M81.2003 6.95785 Q94.2731 6.95785 101.148 17.3224 Q108.075 27.6348 108.075 47.3222 Q108.075 66.9575 101.148 77.3221 Q94.2731 87.6345 81.2003 87.6345 Q68.1275 87.6345 61.2004 77.3221 Q54.3254 66.9575 54.3254 47.3222 Q54.3254 27.6348 61.2004 17.3224 Q68.1275 6.95785 81.2003 6.95785 Z" fill="#000000" fill-rule="evenodd" fill-opacity="1" /><path clip-path="url(#clip040)" d="M126.565 72.895 L137.554 72.895 L137.554 86.1241 L126.565 86.1241 L126.565 72.895 Z" fill="#000000" fill-rule="evenodd" fill-opacity="1" /><path clip-path="url(#clip040)" d="M182.971 15.2911 Q174.846 15.2911 170.731 23.3119 Q166.669 31.2806 166.669 47.3222 Q166.669 63.3117 170.731 71.3325 Q174.846 79.3012 182.971 79.3012 Q191.148 79.3012 195.21 71.3325 Q199.325 63.3117 199.325 47.3222 Q199.325 31.2806 195.21 23.3119 Q191.148 15.2911 182.971 15.2911 M182.971 6.95785 Q196.043 6.95785 202.918 17.3224 Q209.845 27.6348 209.845 47.3222 Q209.845 66.9575 202.918 77.3221 Q196.043 87.6345 182.971 87.6345 Q169.898 87.6345 162.971 77.3221 Q156.096 66.9575 156.096 47.3222 Q156.096 27.6348 162.971 17.3224 Q169.898 6.95785 182.971 6.95785 Z" fill="#000000" fill-rule="evenodd" fill-opacity="1" /><path clip-path="url(#clip040)" d="M250.835 15.2911 Q242.71 15.2911 238.595 23.3119 Q234.533 31.2806 234.533 47.3222 Q234.533 63.3117 238.595 71.3325 Q242.71 79.3012 250.835 79.3012 Q259.012 79.3012 263.074 71.3325 Q267.189 63.3117 267.189 47.3222 Q267.189 31.2806 263.074 23.3119 Q259.012 15.2911 250.835 15.2911 M250.835 6.95785 Q263.908 6.95785 270.783 17.3224 Q277.71 27.6348 277.71 47.3222 Q277.71 66.9575 270.783 77.3221 Q263.908 87.6345 250.835 87.6345 Q237.762 87.6345 230.835 77.3221 Q223.96 66.9575 223.96 47.3222 Q223.96 27.6348 230.835 17.3224 Q237.762 6.95785 250.835 6.95785 Z" fill="#000000" fill-rule="evenodd" fill-opacity="1" /><path clip-path="url(#clip040)" d="M296.303 8.36409 L337.605 8.36409 L337.605 17.2182 L305.939 17.2182 L305.939 36.2806 Q308.23 35.4994 310.522 35.1348 Q312.814 34.7181 315.105 34.7181 Q328.126 34.7181 335.73 41.8535 Q343.334 48.9889 343.334 61.1763 Q343.334 73.7283 335.522 80.7075 Q327.709 87.6345 313.491 87.6345 Q308.595 87.6345 303.491 86.8012 Q298.439 85.9678 293.022 84.3012 L293.022 73.7283 Q297.71 76.2804 302.71 77.5304 Q307.71 78.7804 313.282 78.7804 Q322.293 78.7804 327.553 74.0408 Q332.814 69.3013 332.814 61.1763 Q332.814 53.0514 327.553 48.3118 Q322.293 43.5722 313.282 43.5722 Q309.064 43.5722 304.845 44.5097 Q300.678 45.4472 296.303 47.4264 L296.303 8.36409 Z" fill="#000000" fill-rule="evenodd" fill-opacity="1" /><path clip-path="url(#clip042)" d="
M536.967 1052.85 L482.043 1052.85 L591.891 1052.85 L536.967 1052.85 L536.967 1036.9 L536.967 1052.85  Z
  " fill="#009af9" fill-rule="evenodd" fill-opacity="1"/>
<polyline clip-path="url(#clip042)" style="stroke:#000000; stroke-linecap:butt; stroke-linejoin:round; stroke-width:16; stroke-opacity:1; fill:none" points="
  536.967,1052.85 482.043,1052.85 591.891,1052.85 536.967,1052.85 536.967,1036.9 536.967,1052.85 
  "/>
<path clip-path="url(#clip042)" d="
M646.815 1036.9 L646.815 1024.31 L427.118 1024.31 L427.118 1036.9 L646.815 1036.9 L646.815 1024.31 L646.815 1036.9  Z
  " fill="#009af9" fill-rule="evenodd" fill-opacity="1"/>
<polyline clip-path="url(#clip042)" style="stroke:#000000; stroke-linecap:butt; stroke-linejoin:round; stroke-width:16; stroke-opacity:1; fill:none" points="
  646.815,1036.9 646.815,1024.31 427.118,1024.31 427.118,1036.9 646.815,1036.9 646.815,1024.31 646.815,1036.9 
  "/>
<path clip-path="url(#clip042)" d="
M646.815 1001.65 L427.118 1001.65 L427.118 1024.31 L646.815 1024.31 L646.815 1001.65 L536.967 1001.65 L646.815 1001.65  Z
  " fill="#009af9" fill-rule="evenodd" fill-opacity="1"/>
<polyline clip-path="url(#clip042)" style="stroke:#000000; stroke-linecap:butt; stroke-linejoin:round; stroke-width:16; stroke-opacity:1; fill:none" points="
  646.815,1001.65 427.118,1001.65 427.118,1024.31 646.815,1024.31 646.815,1001.65 536.967,1001.65 646.815,1001.65 
  "/>
<path clip-path="url(#clip042)" d="
M536.967 959.358 L482.043 959.358 L591.891 959.358 L536.967 959.358 L536.967 1001.65 L536.967 959.358  Z
  " fill="#009af9" fill-rule="evenodd" fill-opacity="1"/>
<polyline clip-path="url(#clip042)" style="stroke:#000000; stroke-linecap:butt; stroke-linejoin:round; stroke-width:16; stroke-opacity:1; fill:none" points="
  536.967,959.358 482.043,959.358 591.891,959.358 536.967,959.358 536.967,1001.65 536.967,959.358 
  "/>
<circle clip-path="url(#clip042)" cx="536.967" cy="941.984" r="36" fill="#009af9" fill-rule="evenodd" fill-opacity="1" stroke="#000000" stroke-opacity="1" stroke-width="3.2"/>
<circle clip-path="url(#clip042)" cx="536.967" cy="870.163" r="36" fill="#009af9" fill-rule="evenodd" fill-opacity="1" stroke="#000000" stroke-opacity="1" stroke-width="3.2"/>
<circle clip-path="url(#clip042)" cx="536.967" cy="804.153" r="36" fill="#009af9" fill-rule="evenodd" fill-opacity="1" stroke="#000000" stroke-opacity="1" stroke-width="3.2"/>
<circle clip-path="url(#clip042)" cx="536.967" cy="945.903" r="36" fill="#009af9" fill-rule="evenodd" fill-opacity="1" stroke="#000000" stroke-opacity="1" stroke-width="3.2"/>
<polyline clip-path="url(#clip042)" style="stroke:#009af9; stroke-linecap:butt; stroke-linejoin:round; stroke-width:0; stroke-opacity:1; fill:none" points="
  536.967,1052.85 482.043,1052.85 591.891,1052.85 536.967,1052.85 536.967,1036.9 
  "/>
<polyline clip-path="url(#clip042)" style="stroke:#009af9; stroke-linecap:butt; stroke-linejoin:round; stroke-width:0; stroke-opacity:1; fill:none" points="
  646.815,1036.9 646.815,1024.31 427.118,1024.31 427.118,1036.9 646.815,1036.9 646.815,1024.31 
  "/>
<polyline clip-path="url(#clip042)" style="stroke:#009af9; stroke-linecap:butt; stroke-linejoin:round; stroke-width:0; stroke-opacity:1; fill:none" points="
  646.815,1001.65 427.118,1001.65 427.118,1024.31 646.815,1024.31 646.815,1001.65 536.967,1001.65 
  "/>
<polyline clip-path="url(#clip042)" style="stroke:#009af9; stroke-linecap:butt; stroke-linejoin:round; stroke-width:0; stroke-opacity:1; fill:none" points="
  536.967,959.358 482.043,959.358 591.891,959.358 536.967,959.358 536.967,1001.65 
  "/>
<path clip-path="url(#clip042)" d="
M811.588 919.154 L756.664 919.154 L866.513 919.154 L811.588 919.154 L811.588 891.513 L811.588 919.154  Z
  " fill="#e26f46" fill-rule="evenodd" fill-opacity="1"/>
<polyline clip-path="url(#clip042)" style="stroke:#000000; stroke-linecap:butt; stroke-linejoin:round; stroke-width:16; stroke-opacity:1; fill:none" points="
  811.588,919.154 756.664,919.154 866.513,919.154 811.588,919.154 811.588,891.513 811.588,919.154 
  "/>
<path clip-path="url(#clip042)" d="
M921.437 891.513 L921.437 872.461 L701.74 872.461 L701.74 891.513 L921.437 891.513 L921.437 872.461 L921.437 891.513  Z
  " fill="#e26f46" fill-rule="evenodd" fill-opacity="1"/>
<polyline clip-path="url(#clip042)" style="stroke:#000000; stroke-linecap:butt; stroke-linejoin:round; stroke-width:16; stroke-opacity:1; fill:none" points="
  921.437,891.513 921.437,872.461 701.74,872.461 701.74,891.513 921.437,891.513 921.437,872.461 921.437,891.513 
  "/>
<path clip-path="url(#clip042)" d="
M921.437 845.277 L701.74 845.277 L701.74 872.461 L921.437 872.461 L921.437 845.277 L811.588 845.277 L921.437 845.277  Z
  " fill="#e26f46" fill-rule="evenodd" fill-opacity="1"/>
<polyline clip-path="url(#clip042)" style="stroke:#000000; stroke-linecap:butt; stroke-linejoin:round; stroke-width:16; stroke-opacity:1; fill:none" points="
  921.437,845.277 701.74,845.277 701.74,872.461 921.437,872.461 921.437,845.277 811.588,845.277 921.437,845.277 
  "/>
<path clip-path="url(#clip042)" d="
M811.588 805.13 L756.664 805.13 L866.513 805.13 L811.588 805.13 L811.588 845.277 L811.588 805.13  Z
  " fill="#e26f46" fill-rule="evenodd" fill-opacity="1"/>
<polyline clip-path="url(#clip042)" style="stroke:#000000; stroke-linecap:butt; stroke-linejoin:round; stroke-width:16; stroke-opacity:1; fill:none" points="
  811.588,805.13 756.664,805.13 866.513,805.13 811.588,805.13 811.588,845.277 811.588,805.13 
  "/>
<polyline clip-path="url(#clip042)" style="stroke:#e26f46; stroke-linecap:butt; stroke-linejoin:round; stroke-width:0; stroke-opacity:1; fill:none" points="
  811.588,919.154 756.664,919.154 866.513,919.154 811.588,919.154 811.588,891.513 
  "/>
<polyline clip-path="url(#clip042)" style="stroke:#e26f46; stroke-linecap:butt; stroke-linejoin:round; stroke-width:0; stroke-opacity:1; fill:none" points="
  921.437,891.513 921.437,872.461 701.74,872.461 701.74,891.513 921.437,891.513 921.437,872.461 
  "/>
<polyline clip-path="url(#clip042)" style="stroke:#e26f46; stroke-linecap:butt; stroke-linejoin:round; stroke-width:0; stroke-opacity:1; fill:none" points="
  921.437,845.277 701.74,845.277 701.74,872.461 921.437,872.461 921.437,845.277 811.588,845.277 
  "/>
<polyline clip-path="url(#clip042)" style="stroke:#e26f46; stroke-linecap:butt; stroke-linejoin:round; stroke-width:0; stroke-opacity:1; fill:none" points="
  811.588,805.13 756.664,805.13 866.513,805.13 811.588,805.13 811.588,845.277 
  "/>
<path clip-path="url(#clip042)" d="
M1086.21 1095.48 L1031.29 1095.48 L1141.13 1095.48 L1086.21 1095.48 L1086.21 1080.76 L1086.21 1095.48  Z
  " fill="#3da44d" fill-rule="evenodd" fill-opacity="1"/>
<polyline clip-path="url(#clip042)" style="stroke:#000000; stroke-linecap:butt; stroke-linejoin:round; stroke-width:16; stroke-opacity:1; fill:none" points="
  1086.21,1095.48 1031.29,1095.48 1141.13,1095.48 1086.21,1095.48 1086.21,1080.76 1086.21,1095.48 
  "/>
<path clip-path="url(#clip042)" d="
M1196.06 1080.76 L1196.06 1070.23 L976.361 1070.23 L976.361 1080.76 L1196.06 1080.76 L1196.06 1070.23 L1196.06 1080.76  Z
  " fill="#3da44d" fill-rule="evenodd" fill-opacity="1"/>
<polyline clip-path="url(#clip042)" style="stroke:#000000; stroke-linecap:butt; stroke-linejoin:round; stroke-width:16; stroke-opacity:1; fill:none" points="
  1196.06,1080.76 1196.06,1070.23 976.361,1070.23 976.361,1080.76 1196.06,1080.76 1196.06,1070.23 1196.06,1080.76 
  "/>
<path clip-path="url(#clip042)" d="
M1196.06 1049.29 L976.361 1049.29 L976.361 1070.23 L1196.06 1070.23 L1196.06 1049.29 L1086.21 1049.29 L1196.06 1049.29  Z
  " fill="#3da44d" fill-rule="evenodd" fill-opacity="1"/>
<polyline clip-path="url(#clip042)" style="stroke:#000000; stroke-linecap:butt; stroke-linejoin:round; stroke-width:16; stroke-opacity:1; fill:none" points="
  1196.06,1049.29 976.361,1049.29 976.361,1070.23 1196.06,1070.23 1196.06,1049.29 1086.21,1049.29 1196.06,1049.29 
  "/>
<path clip-path="url(#clip042)" d="
M1086.21 1006.36 L1031.29 1006.36 L1141.13 1006.36 L1086.21 1006.36 L1086.21 1049.29 L1086.21 1006.36  Z
  " fill="#3da44d" fill-rule="evenodd" fill-opacity="1"/>
<polyline clip-path="url(#clip042)" style="stroke:#000000; stroke-linecap:butt; stroke-linejoin:round; stroke-width:16; stroke-opacity:1; fill:none" points="
  1086.21,1006.36 1031.29,1006.36 1141.13,1006.36 1086.21,1006.36 1086.21,1049.29 1086.21,1006.36 
  "/>
<circle clip-path="url(#clip042)" cx="1086.21" cy="996.424" r="36" fill="#3da44d" fill-rule="evenodd" fill-opacity="1" stroke="#000000" stroke-opacity="1" stroke-width="3.2"/>
<circle clip-path="url(#clip042)" cx="1086.21" cy="991.969" r="36" fill="#3da44d" fill-rule="evenodd" fill-opacity="1" stroke="#000000" stroke-opacity="1" stroke-width="3.2"/>
<circle clip-path="url(#clip042)" cx="1086.21" cy="936.339" r="36" fill="#3da44d" fill-rule="evenodd" fill-opacity="1" stroke="#000000" stroke-opacity="1" stroke-width="3.2"/>
<circle clip-path="url(#clip042)" cx="1086.21" cy="1000.33" r="36" fill="#3da44d" fill-rule="evenodd" fill-opacity="1" stroke="#000000" stroke-opacity="1" stroke-width="3.2"/>
<polyline clip-path="url(#clip042)" style="stroke:#3da44d; stroke-linecap:butt; stroke-linejoin:round; stroke-width:0; stroke-opacity:1; fill:none" points="
  1086.21,1095.48 1031.29,1095.48 1141.13,1095.48 1086.21,1095.48 1086.21,1080.76 
  "/>
<polyline clip-path="url(#clip042)" style="stroke:#3da44d; stroke-linecap:butt; stroke-linejoin:round; stroke-width:0; stroke-opacity:1; fill:none" points="
  1196.06,1080.76 1196.06,1070.23 976.361,1070.23 976.361,1080.76 1196.06,1080.76 1196.06,1070.23 
  "/>
<polyline clip-path="url(#clip042)" style="stroke:#3da44d; stroke-linecap:butt; stroke-linejoin:round; stroke-width:0; stroke-opacity:1; fill:none" points="
  1196.06,1049.29 976.361,1049.29 976.361,1070.23 1196.06,1070.23 1196.06,1049.29 1086.21,1049.29 
  "/>
<polyline clip-path="url(#clip042)" style="stroke:#3da44d; stroke-linecap:butt; stroke-linejoin:round; stroke-width:0; stroke-opacity:1; fill:none" points="
  1086.21,1006.36 1031.29,1006.36 1141.13,1006.36 1086.21,1006.36 1086.21,1049.29 
  "/>
<path clip-path="url(#clip042)" d="
M1360.83 916.069 L1305.91 916.069 L1415.76 916.069 L1360.83 916.069 L1360.83 887.757 L1360.83 916.069  Z
  " fill="#c271d2" fill-rule="evenodd" fill-opacity="1"/>
<polyline clip-path="url(#clip042)" style="stroke:#000000; stroke-linecap:butt; stroke-linejoin:round; stroke-width:16; stroke-opacity:1; fill:none" points="
  1360.83,916.069 1305.91,916.069 1415.76,916.069 1360.83,916.069 1360.83,887.757 1360.83,916.069 
  "/>
<path clip-path="url(#clip042)" d="
M1470.68 887.757 L1470.68 868.247 L1250.98 868.247 L1250.98 887.757 L1470.68 887.757 L1470.68 868.247 L1470.68 887.757  Z
  " fill="#c271d2" fill-rule="evenodd" fill-opacity="1"/>
<polyline clip-path="url(#clip042)" style="stroke:#000000; stroke-linecap:butt; stroke-linejoin:round; stroke-width:16; stroke-opacity:1; fill:none" points="
  1470.68,887.757 1470.68,868.247 1250.98,868.247 1250.98,887.757 1470.68,887.757 1470.68,868.247 1470.68,887.757 
  "/>
<path clip-path="url(#clip042)" d="
M1470.68 845.83 L1250.98 845.83 L1250.98 868.247 L1470.68 868.247 L1470.68 845.83 L1360.83 845.83 L1470.68 845.83  Z
  " fill="#c271d2" fill-rule="evenodd" fill-opacity="1"/>
<polyline clip-path="url(#clip042)" style="stroke:#000000; stroke-linecap:butt; stroke-linejoin:round; stroke-width:16; stroke-opacity:1; fill:none" points="
  1470.68,845.83 1250.98,845.83 1250.98,868.247 1470.68,868.247 1470.68,845.83 1360.83,845.83 1470.68,845.83 
  "/>
<path clip-path="url(#clip042)" d="
M1360.83 794.091 L1305.91 794.091 L1415.76 794.091 L1360.83 794.091 L1360.83 845.83 L1360.83 794.091  Z
  " fill="#c271d2" fill-rule="evenodd" fill-opacity="1"/>
<polyline clip-path="url(#clip042)" style="stroke:#000000; stroke-linecap:butt; stroke-linejoin:round; stroke-width:16; stroke-opacity:1; fill:none" points="
  1360.83,794.091 1305.91,794.091 1415.76,794.091 1360.83,794.091 1360.83,845.83 1360.83,794.091 
  "/>
<circle clip-path="url(#clip042)" cx="1360.83" cy="782.531" r="36" fill="#c271d2" fill-rule="evenodd" fill-opacity="1" stroke="#000000" stroke-opacity="1" stroke-width="3.2"/>
<circle clip-path="url(#clip042)" cx="1360.83" cy="768.372" r="36" fill="#c271d2" fill-rule="evenodd" fill-opacity="1" stroke="#000000" stroke-opacity="1" stroke-width="3.2"/>
<polyline clip-path="url(#clip042)" style="stroke:#c271d2; stroke-linecap:butt; stroke-linejoin:round; stroke-width:0; stroke-opacity:1; fill:none" points="
  1360.83,916.069 1305.91,916.069 1415.76,916.069 1360.83,916.069 1360.83,887.757 
  "/>
<polyline clip-path="url(#clip042)" style="stroke:#c271d2; stroke-linecap:butt; stroke-linejoin:round; stroke-width:0; stroke-opacity:1; fill:none" points="
  1470.68,887.757 1470.68,868.247 1250.98,868.247 1250.98,887.757 1470.68,887.757 1470.68,868.247 
  "/>
<polyline clip-path="url(#clip042)" style="stroke:#c271d2; stroke-linecap:butt; stroke-linejoin:round; stroke-width:0; stroke-opacity:1; fill:none" points="
  1470.68,845.83 1250.98,845.83 1250.98,868.247 1470.68,868.247 1470.68,845.83 1360.83,845.83 
  "/>
<polyline clip-path="url(#clip042)" style="stroke:#c271d2; stroke-linecap:butt; stroke-linejoin:round; stroke-width:0; stroke-opacity:1; fill:none" points="
  1360.83,794.091 1305.91,794.091 1415.76,794.091 1360.83,794.091 1360.83,845.83 
  "/>
<path clip-path="url(#clip042)" d="
M1635.45 716.553 L1580.53 716.553 L1690.38 716.553 L1635.45 716.553 L1635.45 634.669 L1635.45 716.553  Z
  " fill="#ac8d18" fill-rule="evenodd" fill-opacity="1"/>
<polyline clip-path="url(#clip042)" style="stroke:#000000; stroke-linecap:butt; stroke-linejoin:round; stroke-width:16; stroke-opacity:1; fill:none" points="
  1635.45,716.553 1580.53,716.553 1690.38,716.553 1635.45,716.553 1635.45,634.669 1635.45,716.553 
  "/>
<path clip-path="url(#clip042)" d="
M1745.3 634.669 L1745.3 601.47 L1525.6 601.47 L1525.6 634.669 L1745.3 634.669 L1745.3 601.47 L1745.3 634.669  Z
  " fill="#ac8d18" fill-rule="evenodd" fill-opacity="1"/>
<polyline clip-path="url(#clip042)" style="stroke:#000000; stroke-linecap:butt; stroke-linejoin:round; stroke-width:16; stroke-opacity:1; fill:none" points="
  1745.3,634.669 1745.3,601.47 1525.6,601.47 1525.6,634.669 1745.3,634.669 1745.3,601.47 1745.3,634.669 
  "/>
<path clip-path="url(#clip042)" d="
M1745.3 571.986 L1525.6 571.986 L1525.6 601.47 L1745.3 601.47 L1745.3 571.986 L1635.45 571.986 L1745.3 571.986  Z
  " fill="#ac8d18" fill-rule="evenodd" fill-opacity="1"/>
<polyline clip-path="url(#clip042)" style="stroke:#000000; stroke-linecap:butt; stroke-linejoin:round; stroke-width:16; stroke-opacity:1; fill:none" points="
  1745.3,571.986 1525.6,571.986 1525.6,601.47 1745.3,601.47 1745.3,571.986 1635.45,571.986 1745.3,571.986 
  "/>
<path clip-path="url(#clip042)" d="
M1635.45 505.23 L1580.53 505.23 L1690.38 505.23 L1635.45 505.23 L1635.45 571.986 L1635.45 505.23  Z
  " fill="#ac8d18" fill-rule="evenodd" fill-opacity="1"/>
<polyline clip-path="url(#clip042)" style="stroke:#000000; stroke-linecap:butt; stroke-linejoin:round; stroke-width:16; stroke-opacity:1; fill:none" points="
  1635.45,505.23 1580.53,505.23 1690.38,505.23 1635.45,505.23 1635.45,571.986 1635.45,505.23 
  "/>
<circle clip-path="url(#clip042)" cx="1635.45" cy="471.313" r="36" fill="#ac8d18" fill-rule="evenodd" fill-opacity="1" stroke="#000000" stroke-opacity="1" stroke-width="3.2"/>
<circle clip-path="url(#clip042)" cx="1635.45" cy="348.34" r="36" fill="#ac8d18" fill-rule="evenodd" fill-opacity="1" stroke="#000000" stroke-opacity="1" stroke-width="3.2"/>
<circle clip-path="url(#clip042)" cx="1635.45" cy="438.961" r="36" fill="#ac8d18" fill-rule="evenodd" fill-opacity="1" stroke="#000000" stroke-opacity="1" stroke-width="3.2"/>
<circle clip-path="url(#clip042)" cx="1635.45" cy="392.804" r="36" fill="#ac8d18" fill-rule="evenodd" fill-opacity="1" stroke="#000000" stroke-opacity="1" stroke-width="3.2"/>
<circle clip-path="url(#clip042)" cx="1635.45" cy="167.305" r="36" fill="#ac8d18" fill-rule="evenodd" fill-opacity="1" stroke="#000000" stroke-opacity="1" stroke-width="3.2"/>
<circle clip-path="url(#clip042)" cx="1635.45" cy="414.442" r="36" fill="#ac8d18" fill-rule="evenodd" fill-opacity="1" stroke="#000000" stroke-opacity="1" stroke-width="3.2"/>
<circle clip-path="url(#clip042)" cx="1635.45" cy="335.05" r="36" fill="#ac8d18" fill-rule="evenodd" fill-opacity="1" stroke="#000000" stroke-opacity="1" stroke-width="3.2"/>
<circle clip-path="url(#clip042)" cx="1635.45" cy="415.319" r="36" fill="#ac8d18" fill-rule="evenodd" fill-opacity="1" stroke="#000000" stroke-opacity="1" stroke-width="3.2"/>
<polyline clip-path="url(#clip042)" style="stroke:#ac8d18; stroke-linecap:butt; stroke-linejoin:round; stroke-width:0; stroke-opacity:1; fill:none" points="
  1635.45,716.553 1580.53,716.553 1690.38,716.553 1635.45,716.553 1635.45,634.669 
  "/>
<polyline clip-path="url(#clip042)" style="stroke:#ac8d18; stroke-linecap:butt; stroke-linejoin:round; stroke-width:0; stroke-opacity:1; fill:none" points="
  1745.3,634.669 1745.3,601.47 1525.6,601.47 1525.6,634.669 1745.3,634.669 1745.3,601.47 
  "/>
<polyline clip-path="url(#clip042)" style="stroke:#ac8d18; stroke-linecap:butt; stroke-linejoin:round; stroke-width:0; stroke-opacity:1; fill:none" points="
  1745.3,571.986 1525.6,571.986 1525.6,601.47 1745.3,601.47 1745.3,571.986 1635.45,571.986 
  "/>
<polyline clip-path="url(#clip042)" style="stroke:#ac8d18; stroke-linecap:butt; stroke-linejoin:round; stroke-width:0; stroke-opacity:1; fill:none" points="
  1635.45,505.23 1580.53,505.23 1690.38,505.23 1635.45,505.23 1635.45,571.986 
  "/>
<path clip-path="url(#clip042)" d="
M1910.07 1109.35 L1855.15 1109.35 L1965 1109.35 L1910.07 1109.35 L1910.07 1072.11 L1910.07 1109.35  Z
  " fill="#00a9ad" fill-rule="evenodd" fill-opacity="1"/>
<polyline clip-path="url(#clip042)" style="stroke:#000000; stroke-linecap:butt; stroke-linejoin:round; stroke-width:16; stroke-opacity:1; fill:none" points="
  1910.07,1109.35 1855.15,1109.35 1965,1109.35 1910.07,1109.35 1910.07,1072.11 1910.07,1109.35 
  "/>
<path clip-path="url(#clip042)" d="
M2019.92 1072.11 L2019.92 1055.94 L1800.22 1055.94 L1800.22 1072.11 L2019.92 1072.11 L2019.92 1055.94 L2019.92 1072.11  Z
  " fill="#00a9ad" fill-rule="evenodd" fill-opacity="1"/>
<polyline clip-path="url(#clip042)" style="stroke:#000000; stroke-linecap:butt; stroke-linejoin:round; stroke-width:16; stroke-opacity:1; fill:none" points="
  2019.92,1072.11 2019.92,1055.94 1800.22,1055.94 1800.22,1072.11 2019.92,1072.11 2019.92,1055.94 2019.92,1072.11 
  "/>
<path clip-path="url(#clip042)" d="
M2019.92 1034.67 L1800.22 1034.67 L1800.22 1055.94 L2019.92 1055.94 L2019.92 1034.67 L1910.07 1034.67 L2019.92 1034.67  Z
  " fill="#00a9ad" fill-rule="evenodd" fill-opacity="1"/>
<polyline clip-path="url(#clip042)" style="stroke:#000000; stroke-linecap:butt; stroke-linejoin:round; stroke-width:16; stroke-opacity:1; fill:none" points="
  2019.92,1034.67 1800.22,1034.67 1800.22,1055.94 2019.92,1055.94 2019.92,1034.67 1910.07,1034.67 2019.92,1034.67 
  "/>
<path clip-path="url(#clip042)" d="
M1910.07 981.535 L1855.15 981.535 L1965 981.535 L1910.07 981.535 L1910.07 1034.67 L1910.07 981.535  Z
  " fill="#00a9ad" fill-rule="evenodd" fill-opacity="1"/>
<polyline clip-path="url(#clip042)" style="stroke:#000000; stroke-linecap:butt; stroke-linejoin:round; stroke-width:16; stroke-opacity:1; fill:none" points="
  1910.07,981.535 1855.15,981.535 1965,981.535 1910.07,981.535 1910.07,1034.67 1910.07,981.535 
  "/>
<circle clip-path="url(#clip042)" cx="1910.07" cy="959.424" r="36" fill="#00a9ad" fill-rule="evenodd" fill-opacity="1" stroke="#000000" stroke-opacity="1" stroke-width="3.2"/>
<circle clip-path="url(#clip042)" cx="1910.07" cy="933.137" r="36" fill="#00a9ad" fill-rule="evenodd" fill-opacity="1" stroke="#000000" stroke-opacity="1" stroke-width="3.2"/>
<circle clip-path="url(#clip042)" cx="1910.07" cy="944.925" r="36" fill="#00a9ad" fill-rule="evenodd" fill-opacity="1" stroke="#000000" stroke-opacity="1" stroke-width="3.2"/>
<circle clip-path="url(#clip042)" cx="1910.07" cy="970.297" r="36" fill="#00a9ad" fill-rule="evenodd" fill-opacity="1" stroke="#000000" stroke-opacity="1" stroke-width="3.2"/>
<polyline clip-path="url(#clip042)" style="stroke:#00a9ad; stroke-linecap:butt; stroke-linejoin:round; stroke-width:0; stroke-opacity:1; fill:none" points="
  1910.07,1109.35 1855.15,1109.35 1965,1109.35 1910.07,1109.35 1910.07,1072.11 
  "/>
<polyline clip-path="url(#clip042)" style="stroke:#00a9ad; stroke-linecap:butt; stroke-linejoin:round; stroke-width:0; stroke-opacity:1; fill:none" points="
  2019.92,1072.11 2019.92,1055.94 1800.22,1055.94 1800.22,1072.11 2019.92,1072.11 2019.92,1055.94 
  "/>
<polyline clip-path="url(#clip042)" style="stroke:#00a9ad; stroke-linecap:butt; stroke-linejoin:round; stroke-width:0; stroke-opacity:1; fill:none" points="
  2019.92,1034.67 1800.22,1034.67 1800.22,1055.94 2019.92,1055.94 2019.92,1034.67 1910.07,1034.67 
  "/>
<polyline clip-path="url(#clip042)" style="stroke:#00a9ad; stroke-linecap:butt; stroke-linejoin:round; stroke-width:0; stroke-opacity:1; fill:none" points="
  1910.07,981.535 1855.15,981.535 1965,981.535 1910.07,981.535 1910.07,1034.67 
  "/>
</svg>
