<?xml version="1.0" encoding="utf-8"?>
<svg xmlns="http://www.w3.org/2000/svg" xmlns:xlink="http://www.w3.org/1999/xlink" width="600" height="400" viewBox="0 0 2400 1600">
<defs>
  <clipPath id="clip110">
    <rect x="0" y="0" width="2400" height="1600"/>
  </clipPath>
</defs>
<path clip-path="url(#clip110)" d="
M0 1600 L2400 1600 L2400 0 L0 0  Z
  " fill="#ffffff" fill-rule="evenodd" fill-opacity="1"/>
<defs>
  <clipPath id="clip111">
    <rect x="480" y="0" width="1681" height="1600"/>
  </clipPath>
</defs>
<defs>
  <clipPath id="clip112">
    <rect x="336" y="47" width="1094" height="1303"/>
  </clipPath>
</defs>
<path clip-path="url(#clip110)" d="
M337.114 1349.74 L1659.71 1349.74 L1659.71 47.2441 L337.114 47.2441  Z
  " fill="#ffffff" fill-rule="evenodd" fill-opacity="1"/>
<defs>
  <clipPath id="clip113">
    <rect x="337" y="47" width="1324" height="1303"/>
  </clipPath>
</defs>
<polyline clip-path="url(#clip110)" style="stroke:#000000; stroke-linecap:butt; stroke-linejoin:round; stroke-width:4; stroke-opacity:1; fill:none" points="
  337.114,1349.74 1659.71,1349.74 
  "/>
<polyline clip-path="url(#clip110)" style="stroke:#000000; stroke-linecap:butt; stroke-linejoin:round; stroke-width:4; stroke-opacity:1; fill:none" points="
  374.546,1349.74 374.546,1330.84 
  "/>
<polyline clip-path="url(#clip110)" style="stroke:#000000; stroke-linecap:butt; stroke-linejoin:round; stroke-width:4; stroke-opacity:1; fill:none" points="
  686.478,1349.74 686.478,1330.84 
  "/>
<polyline clip-path="url(#clip110)" style="stroke:#000000; stroke-linecap:butt; stroke-linejoin:round; stroke-width:4; stroke-opacity:1; fill:none" points="
  998.411,1349.74 998.411,1330.84 
  "/>
<polyline clip-path="url(#clip110)" style="stroke:#000000; stroke-linecap:butt; stroke-linejoin:round; stroke-width:4; stroke-opacity:1; fill:none" points="
  1310.34,1349.74 1310.34,1330.84 
  "/>
<polyline clip-path="url(#clip110)" style="stroke:#000000; stroke-linecap:butt; stroke-linejoin:round; stroke-width:4; stroke-opacity:1; fill:none" points="
  1622.28,1349.74 1622.28,1330.84 
  "/>
<path clip-path="url(#clip110)" d="M289.729 1395.31 Q281.604 1395.31 277.489 1403.33 Q273.427 1411.3 273.427 1427.34 Q273.427 1443.33 277.489 1451.35 Q281.604 1459.32 289.729 1459.32 Q297.906 1459.32 301.968 1451.35 Q306.083 1443.33 306.083 1427.34 Q306.083 1411.3 301.968 1403.33 Q297.906 1395.31 289.729 1395.31 M289.729 1386.97 Q302.801 1386.97 309.676 1397.34 Q316.603 1407.65 316.603 1427.34 Q316.603 1446.97 309.676 1457.34 Q302.801 1467.65 289.729 1467.65 Q276.656 1467.65 269.729 1457.34 Q262.854 1446.97 262.854 1427.34 Q262.854 1407.65 269.729 1397.34 Q276.656 1386.97 289.729 1386.97 Z" fill="#000000" fill-rule="evenodd" fill-opacity="1" /><path clip-path="url(#clip110)" d="M335.093 1452.91 L346.082 1452.91 L346.082 1466.14 L335.093 1466.14 L335.093 1452.91 Z" fill="#000000" fill-rule="evenodd" fill-opacity="1" /><path clip-path="url(#clip110)" d="M391.499 1395.31 Q383.374 1395.31 379.259 1403.33 Q375.197 1411.3 375.197 1427.34 Q375.197 1443.33 379.259 1451.35 Q383.374 1459.32 391.499 1459.32 Q399.676 1459.32 403.738 1451.35 Q407.853 1443.33 407.853 1427.34 Q407.853 1411.3 403.738 1403.33 Q399.676 1395.31 391.499 1395.31 M391.499 1386.97 Q404.572 1386.97 411.447 1397.34 Q418.374 1407.65 418.374 1427.34 Q418.374 1446.97 411.447 1457.34 Q404.572 1467.65 391.499 1467.65 Q378.426 1467.65 371.499 1457.34 Q364.624 1446.97 364.624 1427.34 Q364.624 1407.65 371.499 1397.34 Q378.426 1386.97 391.499 1386.97 Z" fill="#000000" fill-rule="evenodd" fill-opacity="1" /><path clip-path="url(#clip110)" d="M459.363 1395.31 Q451.238 1395.31 447.124 1403.33 Q443.061 1411.3 443.061 1427.34 Q443.061 1443.33 447.124 1451.35 Q451.238 1459.32 459.363 1459.32 Q467.54 1459.32 471.603 1451.35 Q475.717 1443.33 475.717 1427.34 Q475.717 1411.3 471.603 1403.33 Q467.54 1395.31 459.363 1395.31 M459.363 1386.97 Q472.436 1386.97 479.311 1397.34 Q486.238 1407.65 486.238 1427.34 Q486.238 1446.97 479.311 1457.34 Q472.436 1467.65 459.363 1467.65 Q446.29 1467.65 439.363 1457.34 Q432.488 1446.97 432.488 1427.34 Q432.488 1407.65 439.363 1397.34 Q446.29 1386.97 459.363 1386.97 Z" fill="#000000" fill-rule="evenodd" fill-opacity="1" /><path clip-path="url(#clip110)" d="M602.781 1395.31 Q594.656 1395.31 590.541 1403.33 Q586.479 1411.3 586.479 1427.34 Q586.479 1443.33 590.541 1451.35 Q594.656 1459.32 602.781 1459.32 Q610.958 1459.32 615.02 1451.35 Q619.135 1443.33 619.135 1427.34 Q619.135 1411.3 615.02 1403.33 Q610.958 1395.31 602.781 1395.31 M602.781 1386.97 Q615.854 1386.97 622.729 1397.34 Q629.656 1407.65 629.656 1427.34 Q629.656 1446.97 622.729 1457.34 Q615.854 1467.65 602.781 1467.65 Q589.708 1467.65 582.781 1457.34 Q575.906 1446.97 575.906 1427.34 Q575.906 1407.65 582.781 1397.34 Q589.708 1386.97 602.781 1386.97 Z" fill="#000000" fill-rule="evenodd" fill-opacity="1" /><path clip-path="url(#clip110)" d="M648.145 1452.91 L659.135 1452.91 L659.135 1466.14 L648.145 1466.14 L648.145 1452.91 Z" fill="#000000" fill-rule="evenodd" fill-opacity="1" /><path clip-path="url(#clip110)" d="M691.114 1457.29 L727.832 1457.29 L727.832 1466.14 L678.458 1466.14 L678.458 1457.29 Q684.447 1451.09 694.76 1440.67 Q705.124 1430.2 707.78 1427.18 Q712.832 1421.5 714.812 1417.6 Q716.843 1413.64 716.843 1409.84 Q716.843 1403.64 712.468 1399.73 Q708.145 1395.83 701.166 1395.83 Q696.218 1395.83 690.697 1397.55 Q685.228 1399.27 678.978 1402.75 L678.978 1392.13 Q685.333 1389.58 690.853 1388.28 Q696.374 1386.97 700.958 1386.97 Q713.041 1386.97 720.228 1393.02 Q727.416 1399.06 727.416 1409.16 Q727.416 1413.95 725.593 1418.28 Q723.822 1422.55 719.082 1428.38 Q717.78 1429.89 710.801 1437.13 Q703.822 1444.32 691.114 1457.29 Z" fill="#000000" fill-rule="evenodd" fill-opacity="1" /><path clip-path="url(#clip110)" d="M750.02 1388.38 L791.322 1388.38 L791.322 1397.23 L759.655 1397.23 L759.655 1416.3 Q761.947 1415.52 764.238 1415.15 Q766.53 1414.73 768.822 1414.73 Q781.842 1414.73 789.447 1421.87 Q797.051 1429 797.051 1441.19 Q797.051 1453.74 789.238 1460.72 Q781.426 1467.65 767.207 1467.65 Q762.311 1467.65 757.207 1466.82 Q752.155 1465.98 746.739 1464.32 L746.739 1453.74 Q751.426 1456.3 756.426 1457.55 Q761.426 1458.8 766.999 1458.8 Q776.009 1458.8 781.27 1454.06 Q786.53 1449.32 786.53 1441.19 Q786.53 1433.07 781.27 1428.33 Q776.009 1423.59 766.999 1423.59 Q762.78 1423.59 758.561 1424.53 Q754.395 1425.46 750.02 1427.44 L750.02 1388.38 Z" fill="#000000" fill-rule="evenodd" fill-opacity="1" /><path clip-path="url(#clip110)" d="M913.594 1395.31 Q905.469 1395.31 901.354 1403.33 Q897.292 1411.3 897.292 1427.34 Q897.292 1443.33 901.354 1451.35 Q905.469 1459.32 913.594 1459.32 Q921.771 1459.32 925.833 1451.35 Q929.948 1443.33 929.948 1427.34 Q929.948 1411.3 925.833 1403.33 Q921.771 1395.31 913.594 1395.31 M913.594 1386.97 Q926.667 1386.97 933.542 1397.34 Q940.469 1407.65 940.469 1427.34 Q940.469 1446.97 933.542 1457.34 Q926.667 1467.65 913.594 1467.65 Q900.521 1467.65 893.594 1457.34 Q886.719 1446.97 886.719 1427.34 Q886.719 1407.65 893.594 1397.34 Q900.521 1386.97 913.594 1386.97 Z" fill="#000000" fill-rule="evenodd" fill-opacity="1" /><path clip-path="url(#clip110)" d="M958.958 1452.91 L969.948 1452.91 L969.948 1466.14 L958.958 1466.14 L958.958 1452.91 Z" fill="#000000" fill-rule="evenodd" fill-opacity="1" /><path clip-path="url(#clip110)" d="M992.968 1388.38 L1034.27 1388.38 L1034.27 1397.23 L1002.6 1397.23 L1002.6 1416.3 Q1004.9 1415.52 1007.19 1415.15 Q1009.48 1414.73 1011.77 1414.73 Q1024.79 1414.73 1032.4 1421.87 Q1040 1429 1040 1441.19 Q1040 1453.74 1032.19 1460.72 Q1024.37 1467.65 1010.16 1467.65 Q1005.26 1467.65 1000.16 1466.82 Q995.104 1465.98 989.687 1464.32 L989.687 1453.74 Q994.375 1456.3 999.375 1457.55 Q1004.37 1458.8 1009.95 1458.8 Q1018.96 1458.8 1024.22 1454.06 Q1029.48 1449.32 1029.48 1441.19 Q1029.48 1433.07 1024.22 1428.33 Q1018.96 1423.59 1009.95 1423.59 Q1005.73 1423.59 1001.51 1424.53 Q997.343 1425.46 992.968 1427.44 L992.968 1388.38 Z" fill="#000000" fill-rule="evenodd" fill-opacity="1" /><path clip-path="url(#clip110)" d="M1083.23 1395.31 Q1075.1 1395.31 1070.99 1403.33 Q1066.93 1411.3 1066.93 1427.34 Q1066.93 1443.33 1070.99 1451.35 Q1075.1 1459.32 1083.23 1459.32 Q1091.41 1459.32 1095.47 1451.35 Q1099.58 1443.33 1099.58 1427.34 Q1099.58 1411.3 1095.47 1403.33 Q1091.41 1395.31 1083.23 1395.31 M1083.23 1386.97 Q1096.3 1386.97 1103.18 1397.34 Q1110.1 1407.65 1110.1 1427.34 Q1110.1 1446.97 1103.18 1457.34 Q1096.3 1467.65 1083.23 1467.65 Q1070.16 1467.65 1063.23 1457.34 Q1056.35 1446.97 1056.35 1427.34 Q1056.35 1407.65 1063.23 1397.34 Q1070.16 1386.97 1083.23 1386.97 Z" fill="#000000" fill-rule="evenodd" fill-opacity="1" /><path clip-path="url(#clip110)" d="M1226.65 1395.31 Q1218.52 1395.31 1214.41 1403.33 Q1210.34 1411.3 1210.34 1427.34 Q1210.34 1443.33 1214.41 1451.35 Q1218.52 1459.32 1226.65 1459.32 Q1234.82 1459.32 1238.89 1451.35 Q1243 1443.33 1243 1427.34 Q1243 1411.3 1238.89 1403.33 Q1234.82 1395.31 1226.65 1395.31 M1226.65 1386.97 Q1239.72 1386.97 1246.59 1397.34 Q1253.52 1407.65 1253.52 1427.34 Q1253.52 1446.97 1246.59 1457.34 Q1239.72 1467.65 1226.65 1467.65 Q1213.57 1467.65 1206.65 1457.34 Q1199.77 1446.97 1199.77 1427.34 Q1199.77 1407.65 1206.65 1397.34 Q1213.57 1386.97 1226.65 1386.97 Z" fill="#000000" fill-rule="evenodd" fill-opacity="1" /><path clip-path="url(#clip110)" d="M1272.01 1452.91 L1283 1452.91 L1283 1466.14 L1272.01 1466.14 L1272.01 1452.91 Z" fill="#000000" fill-rule="evenodd" fill-opacity="1" /><path clip-path="url(#clip110)" d="M1303.26 1388.38 L1353.26 1388.38 L1353.26 1392.86 L1325.03 1466.14 L1314.04 1466.14 L1340.6 1397.23 L1303.26 1397.23 L1303.26 1388.38 Z" fill="#000000" fill-rule="evenodd" fill-opacity="1" /><path clip-path="url(#clip110)" d="M1373.88 1388.38 L1415.19 1388.38 L1415.19 1397.23 L1383.52 1397.23 L1383.52 1416.3 Q1385.81 1415.52 1388.1 1415.15 Q1390.4 1414.73 1392.69 1414.73 Q1405.71 1414.73 1413.31 1421.87 Q1420.92 1429 1420.92 1441.19 Q1420.92 1453.74 1413.1 1460.72 Q1405.29 1467.65 1391.07 1467.65 Q1386.18 1467.65 1381.07 1466.82 Q1376.02 1465.98 1370.6 1464.32 L1370.6 1453.74 Q1375.29 1456.3 1380.29 1457.55 Q1385.29 1458.8 1390.86 1458.8 Q1399.87 1458.8 1405.13 1454.06 Q1410.4 1449.32 1410.4 1441.19 Q1410.4 1433.07 1405.13 1428.33 Q1399.87 1423.59 1390.86 1423.59 Q1386.65 1423.59 1382.43 1424.53 Q1378.26 1425.46 1373.88 1427.44 L1373.88 1388.38 Z" fill="#000000" fill-rule="evenodd" fill-opacity="1" /><path clip-path="url(#clip110)" d="M1514.44 1457.29 L1531.63 1457.29 L1531.63 1397.96 L1512.93 1401.71 L1512.93 1392.13 L1531.52 1388.38 L1542.04 1388.38 L1542.04 1457.29 L1559.23 1457.29 L1559.23 1466.14 L1514.44 1466.14 L1514.44 1457.29 Z" fill="#000000" fill-rule="evenodd" fill-opacity="1" /><path clip-path="url(#clip110)" d="M1580.48 1452.91 L1591.47 1452.91 L1591.47 1466.14 L1580.48 1466.14 L1580.48 1452.91 Z" fill="#000000" fill-rule="evenodd" fill-opacity="1" /><path clip-path="url(#clip110)" d="M1636.89 1395.31 Q1628.76 1395.31 1624.65 1403.33 Q1620.58 1411.3 1620.58 1427.34 Q1620.58 1443.33 1624.65 1451.35 Q1628.76 1459.32 1636.89 1459.32 Q1645.06 1459.32 1649.13 1451.35 Q1653.24 1443.33 1653.24 1427.34 Q1653.24 1411.3 1649.13 1403.33 Q1645.06 1395.31 1636.89 1395.31 M1636.89 1386.97 Q1649.96 1386.97 1656.83 1397.34 Q1663.76 1407.65 1663.76 1427.34 Q1663.76 1446.97 1656.83 1457.34 Q1649.96 1467.65 1636.89 1467.65 Q1623.81 1467.65 1616.89 1457.34 Q1610.01 1446.97 1610.01 1427.34 Q1610.01 1407.65 1616.89 1397.34 Q1623.81 1386.97 1636.89 1386.97 Z" fill="#000000" fill-rule="evenodd" fill-opacity="1" /><path clip-path="url(#clip110)" d="M1704.75 1395.31 Q1696.62 1395.31 1692.51 1403.33 Q1688.45 1411.3 1688.45 1427.34 Q1688.45 1443.33 1692.51 1451.35 Q1696.62 1459.32 1704.75 1459.32 Q1712.93 1459.32 1716.99 1451.35 Q1721.1 1443.33 1721.1 1427.34 Q1721.1 1411.3 1716.99 1403.33 Q1712.93 1395.31 1704.75 1395.31 M1704.75 1386.97 Q1717.82 1386.97 1724.7 1397.34 Q1731.62 1407.65 1731.62 1427.34 Q1731.62 1446.97 1724.7 1457.34 Q1717.82 1467.65 1704.75 1467.65 Q1691.68 1467.65 1684.75 1457.34 Q1677.87 1446.97 1677.87 1427.34 Q1677.87 1407.65 1684.75 1397.34 Q1691.68 1386.97 1704.75 1386.97 Z" fill="#000000" fill-rule="evenodd" fill-opacity="1" /><path clip-path="url(#clip110)" d="M695.262 1520.8 L695.262 1537.36 L715.001 1537.36 L715.001 1544.81 L695.262 1544.81 L695.262 1576.47 Q695.262 1583.61 697.189 1585.64 Q699.168 1587.67 705.157 1587.67 L715.001 1587.67 L715.001 1595.69 L705.157 1595.69 Q694.064 1595.69 689.845 1591.58 Q685.626 1587.41 685.626 1576.47 L685.626 1544.81 L678.595 1544.81 L678.595 1537.36 L685.626 1537.36 L685.626 1520.8 L695.262 1520.8 Z" fill="#000000" fill-rule="evenodd" fill-opacity="1" /><path clip-path="url(#clip110)" d="M727.605 1537.36 L737.188 1537.36 L737.188 1595.69 L727.605 1595.69 L727.605 1537.36 M727.605 1514.65 L737.188 1514.65 L737.188 1526.79 L727.605 1526.79 L727.605 1514.65 Z" fill="#000000" fill-rule="evenodd" fill-opacity="1" /><path clip-path="url(#clip110)" d="M802.657 1548.56 Q806.251 1542.1 811.251 1539.03 Q816.251 1535.95 823.021 1535.95 Q832.136 1535.95 837.084 1542.36 Q842.032 1548.71 842.032 1560.48 L842.032 1595.69 L832.396 1595.69 L832.396 1560.8 Q832.396 1552.41 829.428 1548.35 Q826.459 1544.29 820.365 1544.29 Q812.917 1544.29 808.594 1549.23 Q804.271 1554.18 804.271 1562.72 L804.271 1595.69 L794.636 1595.69 L794.636 1560.8 Q794.636 1552.36 791.667 1548.35 Q788.699 1544.29 782.501 1544.29 Q775.157 1544.29 770.834 1549.29 Q766.511 1554.23 766.511 1562.72 L766.511 1595.69 L756.876 1595.69 L756.876 1537.36 L766.511 1537.36 L766.511 1546.42 Q769.792 1541.06 774.376 1538.5 Q778.959 1535.95 785.261 1535.95 Q791.615 1535.95 796.042 1539.18 Q800.521 1542.41 802.657 1548.56 Z" fill="#000000" fill-rule="evenodd" fill-opacity="1" /><path clip-path="url(#clip110)" d="M911.042 1564.13 L911.042 1568.82 L866.979 1568.82 Q867.604 1578.71 872.917 1583.92 Q878.281 1589.08 887.813 1589.08 Q893.333 1589.08 898.49 1587.72 Q903.698 1586.37 908.802 1583.66 L908.802 1592.72 Q903.646 1594.91 898.229 1596.06 Q892.813 1597.2 887.24 1597.2 Q873.281 1597.2 865.104 1589.08 Q856.979 1580.95 856.979 1567.1 Q856.979 1552.78 864.688 1544.39 Q872.448 1535.95 885.573 1535.95 Q897.344 1535.95 904.167 1543.56 Q911.042 1551.11 911.042 1564.13 M901.458 1561.32 Q901.354 1553.45 897.031 1548.77 Q892.761 1544.08 885.677 1544.08 Q877.656 1544.08 872.813 1548.61 Q868.021 1553.14 867.292 1561.37 L901.458 1561.32 Z" fill="#000000" fill-rule="evenodd" fill-opacity="1" /><path clip-path="url(#clip110)" d="M983.698 1514.75 Q976.718 1526.73 973.333 1538.45 Q969.948 1550.17 969.948 1562.2 Q969.948 1574.23 973.333 1586.06 Q976.771 1597.83 983.698 1609.75 L975.364 1609.75 Q967.552 1597.51 963.646 1585.69 Q959.791 1573.87 959.791 1562.2 Q959.791 1550.59 963.646 1538.82 Q967.5 1527.05 975.364 1514.75 L983.698 1514.75 Z" fill="#000000" fill-rule="evenodd" fill-opacity="1" /><path clip-path="url(#clip110)" d="M1026.56 1601.11 Q1022.5 1611.53 1018.65 1614.7 Q1014.79 1617.88 1008.33 1617.88 L1000.68 1617.88 L1000.68 1609.86 L1006.3 1609.86 Q1010.26 1609.86 1012.45 1607.98 Q1014.63 1606.11 1017.29 1599.13 L1019.01 1594.75 L995.416 1537.36 L1005.57 1537.36 L1023.8 1582.98 L1042.03 1537.36 L1052.19 1537.36 L1026.56 1601.11 Z" fill="#000000" fill-rule="evenodd" fill-opacity="1" /><path clip-path="url(#clip110)" d="M1115.31 1564.13 L1115.31 1568.82 L1071.25 1568.82 Q1071.87 1578.71 1077.19 1583.92 Q1082.55 1589.08 1092.08 1589.08 Q1097.6 1589.08 1102.76 1587.72 Q1107.97 1586.37 1113.07 1583.66 L1113.07 1592.72 Q1107.92 1594.91 1102.5 1596.06 Q1097.08 1597.2 1091.51 1597.2 Q1077.55 1597.2 1069.37 1589.08 Q1061.25 1580.95 1061.25 1567.1 Q1061.25 1552.78 1068.96 1544.39 Q1076.72 1535.95 1089.84 1535.95 Q1101.61 1535.95 1108.44 1543.56 Q1115.31 1551.11 1115.31 1564.13 M1105.73 1561.32 Q1105.62 1553.45 1101.3 1548.77 Q1097.03 1544.08 1089.95 1544.08 Q1081.93 1544.08 1077.08 1548.61 Q1072.29 1553.14 1071.56 1561.37 L1105.73 1561.32 Z" fill="#000000" fill-rule="evenodd" fill-opacity="1" /><path clip-path="url(#clip110)" d="M1157.55 1566.37 Q1145.94 1566.37 1141.46 1569.03 Q1136.98 1571.68 1136.98 1578.09 Q1136.98 1583.19 1140.31 1586.21 Q1143.7 1589.18 1149.48 1589.18 Q1157.45 1589.18 1162.24 1583.56 Q1167.08 1577.88 1167.08 1568.5 L1167.08 1566.37 L1157.55 1566.37 M1176.67 1562.41 L1176.67 1595.69 L1167.08 1595.69 L1167.08 1586.84 Q1163.8 1592.15 1158.9 1594.7 Q1154.01 1597.2 1146.93 1597.2 Q1137.97 1597.2 1132.66 1592.2 Q1127.39 1587.15 1127.39 1578.71 Q1127.39 1568.87 1133.96 1563.87 Q1140.57 1558.87 1153.64 1558.87 L1167.08 1558.87 L1167.08 1557.93 Q1167.08 1551.32 1162.71 1547.72 Q1158.38 1544.08 1150.52 1544.08 Q1145.52 1544.08 1140.78 1545.28 Q1136.04 1546.47 1131.67 1548.87 L1131.67 1540.02 Q1136.93 1537.98 1141.87 1536.99 Q1146.82 1535.95 1151.51 1535.95 Q1164.17 1535.95 1170.42 1542.52 Q1176.67 1549.08 1176.67 1562.41 Z" fill="#000000" fill-rule="evenodd" fill-opacity="1" /><path clip-path="url(#clip110)" d="M1230.21 1546.32 Q1228.59 1545.38 1226.67 1544.96 Q1224.79 1544.49 1222.5 1544.49 Q1214.37 1544.49 1210 1549.81 Q1205.68 1555.07 1205.68 1564.96 L1205.68 1595.69 L1196.04 1595.69 L1196.04 1537.36 L1205.68 1537.36 L1205.68 1546.42 Q1208.7 1541.11 1213.54 1538.56 Q1218.38 1535.95 1225.31 1535.95 Q1226.3 1535.95 1227.5 1536.11 Q1228.7 1536.21 1230.15 1536.47 L1230.21 1546.32 Z" fill="#000000" fill-rule="evenodd" fill-opacity="1" /><path clip-path="url(#clip110)" d="M1277.45 1539.08 L1277.45 1548.14 Q1273.38 1546.06 1269.01 1545.02 Q1264.63 1543.97 1259.95 1543.97 Q1252.81 1543.97 1249.22 1546.16 Q1245.68 1548.35 1245.68 1552.72 Q1245.68 1556.06 1248.23 1557.98 Q1250.78 1559.86 1258.49 1561.58 L1261.77 1562.31 Q1271.98 1564.49 1276.25 1568.5 Q1280.57 1572.46 1280.57 1579.6 Q1280.57 1587.72 1274.11 1592.46 Q1267.71 1597.2 1256.46 1597.2 Q1251.77 1597.2 1246.66 1596.26 Q1241.61 1595.38 1235.99 1593.56 L1235.99 1583.66 Q1241.3 1586.42 1246.46 1587.83 Q1251.61 1589.18 1256.66 1589.18 Q1263.44 1589.18 1267.08 1586.89 Q1270.73 1584.55 1270.73 1580.33 Q1270.73 1576.42 1268.07 1574.34 Q1265.47 1572.25 1256.56 1570.33 L1253.23 1569.55 Q1244.32 1567.67 1240.36 1563.82 Q1236.4 1559.91 1236.4 1553.14 Q1236.4 1544.91 1242.24 1540.43 Q1248.07 1535.95 1258.8 1535.95 Q1264.11 1535.95 1268.8 1536.73 Q1273.49 1537.52 1277.45 1539.08 Z" fill="#000000" fill-rule="evenodd" fill-opacity="1" /><path clip-path="url(#clip110)" d="M1294.32 1514.75 L1302.65 1514.75 Q1310.47 1527.05 1314.32 1538.82 Q1318.23 1550.59 1318.23 1562.2 Q1318.23 1573.87 1314.32 1585.69 Q1310.47 1597.51 1302.65 1609.75 L1294.32 1609.75 Q1301.25 1597.83 1304.63 1586.06 Q1308.07 1574.23 1308.07 1562.2 Q1308.07 1550.17 1304.63 1538.45 Q1301.25 1526.73 1294.32 1514.75 Z" fill="#000000" fill-rule="evenodd" fill-opacity="1" /><polyline clip-path="url(#clip110)" style="stroke:#000000; stroke-linecap:butt; stroke-linejoin:round; stroke-width:4; stroke-opacity:1; fill:none" points="
  337.114,1349.74 337.114,47.2441 
  "/>
<polyline clip-path="url(#clip110)" style="stroke:#000000; stroke-linecap:butt; stroke-linejoin:round; stroke-width:4; stroke-opacity:1; fill:none" points="
  337.114,1199.52 349.514,1199.52 
  "/>
<polyline clip-path="url(#clip110)" style="stroke:#000000; stroke-linecap:butt; stroke-linejoin:round; stroke-width:4; stroke-opacity:1; fill:none" points="
  337.114,1028.19 349.514,1028.19 
  "/>
<polyline clip-path="url(#clip110)" style="stroke:#000000; stroke-linecap:butt; stroke-linejoin:round; stroke-width:4; stroke-opacity:1; fill:none" points="
  337.114,856.863 349.514,856.863 
  "/>
<polyline clip-path="url(#clip110)" style="stroke:#000000; stroke-linecap:butt; stroke-linejoin:round; stroke-width:4; stroke-opacity:1; fill:none" points="
  337.114,685.536 349.514,685.536 
  "/>
<polyline clip-path="url(#clip110)" style="stroke:#000000; stroke-linecap:butt; stroke-linejoin:round; stroke-width:4; stroke-opacity:1; fill:none" points="
  337.114,514.209 349.514,514.209 
  "/>
<polyline clip-path="url(#clip110)" style="stroke:#000000; stroke-linecap:butt; stroke-linejoin:round; stroke-width:4; stroke-opacity:1; fill:none" points="
  337.114,342.882 349.514,342.882 
  "/>
<polyline clip-path="url(#clip110)" style="stroke:#000000; stroke-linecap:butt; stroke-linejoin:round; stroke-width:4; stroke-opacity:1; fill:none" points="
  337.114,171.555 349.514,171.555 
  "/>
<path clip-path="url(#clip110)" d="M176.062 1167.56 Q167.938 1167.56 163.823 1175.58 Q159.76 1183.55 159.76 1199.59 Q159.76 1215.58 163.823 1223.6 Q167.938 1231.57 176.062 1231.57 Q184.24 1231.57 188.302 1223.6 Q192.417 1215.58 192.417 1199.59 Q192.417 1183.55 188.302 1175.58 Q184.24 1167.56 176.062 1167.56 M176.062 1159.23 Q189.135 1159.23 196.01 1169.59 Q202.937 1179.91 202.937 1199.59 Q202.937 1219.23 196.01 1229.59 Q189.135 1239.91 176.062 1239.91 Q162.99 1239.91 156.063 1229.59 Q149.188 1219.23 149.188 1199.59 Q149.188 1179.91 156.063 1169.59 Q162.99 1159.23 176.062 1159.23 Z" fill="#000000" fill-rule="evenodd" fill-opacity="1" /><path clip-path="url(#clip110)" d="M221.427 1225.17 L232.416 1225.17 L232.416 1238.4 L221.427 1238.4 L221.427 1225.17 Z" fill="#000000" fill-rule="evenodd" fill-opacity="1" /><path clip-path="url(#clip110)" d="M264.395 1229.54 L301.114 1229.54 L301.114 1238.4 L251.739 1238.4 L251.739 1229.54 Q257.729 1223.34 268.041 1212.93 Q278.406 1202.46 281.062 1199.44 Q286.114 1193.76 288.093 1189.86 Q290.124 1185.9 290.124 1182.09 Q290.124 1175.9 285.749 1171.99 Q281.427 1168.08 274.447 1168.08 Q269.499 1168.08 263.979 1169.8 Q258.51 1171.52 252.26 1175.01 L252.26 1164.39 Q258.614 1161.83 264.135 1160.53 Q269.656 1159.23 274.239 1159.23 Q286.322 1159.23 293.51 1165.27 Q300.697 1171.31 300.697 1181.42 Q300.697 1186.21 298.874 1190.53 Q297.104 1194.8 292.364 1200.64 Q291.062 1202.15 284.083 1209.39 Q277.104 1216.57 264.395 1229.54 Z" fill="#000000" fill-rule="evenodd" fill-opacity="1" /><path clip-path="url(#clip110)" d="M171.375 996.237 Q163.25 996.237 159.135 1004.26 Q155.073 1012.23 155.073 1028.27 Q155.073 1044.26 159.135 1052.28 Q163.25 1060.25 171.375 1060.25 Q179.552 1060.25 183.615 1052.28 Q187.729 1044.26 187.729 1028.27 Q187.729 1012.23 183.615 1004.26 Q179.552 996.237 171.375 996.237 M171.375 987.903 Q184.448 987.903 191.323 998.268 Q198.25 1008.58 198.25 1028.27 Q198.25 1047.9 191.323 1058.27 Q184.448 1068.58 171.375 1068.58 Q158.302 1068.58 151.375 1058.27 Q144.5 1047.9 144.5 1028.27 Q144.5 1008.58 151.375 998.268 Q158.302 987.903 171.375 987.903 Z" fill="#000000" fill-rule="evenodd" fill-opacity="1" /><path clip-path="url(#clip110)" d="M216.739 1053.84 L227.729 1053.84 L227.729 1067.07 L216.739 1067.07 L216.739 1053.84 Z" fill="#000000" fill-rule="evenodd" fill-opacity="1" /><path clip-path="url(#clip110)" d="M279.552 998.476 L252.989 1039.99 L279.552 1039.99 L279.552 998.476 M276.791 989.31 L290.02 989.31 L290.02 1039.99 L301.114 1039.99 L301.114 1048.74 L290.02 1048.74 L290.02 1067.07 L279.552 1067.07 L279.552 1048.74 L244.448 1048.74 L244.448 1038.58 L276.791 989.31 Z" fill="#000000" fill-rule="evenodd" fill-opacity="1" /><path clip-path="url(#clip110)" d="M172.104 824.91 Q163.979 824.91 159.865 832.93 Q155.802 840.899 155.802 856.941 Q155.802 872.93 159.865 880.951 Q163.979 888.92 172.104 888.92 Q180.281 888.92 184.344 880.951 Q188.458 872.93 188.458 856.941 Q188.458 840.899 184.344 832.93 Q180.281 824.91 172.104 824.91 M172.104 816.576 Q185.177 816.576 192.052 826.941 Q198.979 837.253 198.979 856.941 Q198.979 876.576 192.052 886.941 Q185.177 897.253 172.104 897.253 Q159.031 897.253 152.104 886.941 Q145.229 876.576 145.229 856.941 Q145.229 837.253 152.104 826.941 Q159.031 816.576 172.104 816.576 Z" fill="#000000" fill-rule="evenodd" fill-opacity="1" /><path clip-path="url(#clip110)" d="M217.469 882.513 L228.458 882.513 L228.458 895.743 L217.469 895.743 L217.469 882.513 Z" fill="#000000" fill-rule="evenodd" fill-opacity="1" /><path clip-path="url(#clip110)" d="M275.177 852.67 Q268.093 852.67 263.927 857.514 Q259.812 862.357 259.812 870.795 Q259.812 879.18 263.927 884.076 Q268.093 888.92 275.177 888.92 Q282.26 888.92 286.374 884.076 Q290.541 879.18 290.541 870.795 Q290.541 862.357 286.374 857.514 Q282.26 852.67 275.177 852.67 M296.062 819.701 L296.062 829.285 Q292.104 827.41 288.041 826.42 Q284.031 825.43 280.072 825.43 Q269.656 825.43 264.135 832.462 Q258.666 839.493 257.885 853.712 Q260.958 849.18 265.593 846.785 Q270.229 844.337 275.802 844.337 Q287.52 844.337 294.291 851.472 Q301.114 858.555 301.114 870.795 Q301.114 882.774 294.031 890.013 Q286.947 897.253 275.177 897.253 Q261.687 897.253 254.552 886.941 Q247.416 876.576 247.416 856.941 Q247.416 838.503 256.166 827.566 Q264.916 816.576 279.656 816.576 Q283.614 816.576 287.624 817.358 Q291.687 818.139 296.062 819.701 Z" fill="#000000" fill-rule="evenodd" fill-opacity="1" /><path clip-path="url(#clip110)" d="M172.677 653.583 Q164.552 653.583 160.438 661.603 Q156.375 669.572 156.375 685.614 Q156.375 701.603 160.438 709.624 Q164.552 717.593 172.677 717.593 Q180.854 717.593 184.917 709.624 Q189.031 701.603 189.031 685.614 Q189.031 669.572 184.917 661.603 Q180.854 653.583 172.677 653.583 M172.677 645.249 Q185.75 645.249 192.625 655.614 Q199.552 665.926 199.552 685.614 Q199.552 705.249 192.625 715.614 Q185.75 725.926 172.677 725.926 Q159.604 725.926 152.677 715.614 Q145.802 705.249 145.802 685.614 Q145.802 665.926 152.677 655.614 Q159.604 645.249 172.677 645.249 Z" fill="#000000" fill-rule="evenodd" fill-opacity="1" /><path clip-path="url(#clip110)" d="M218.041 711.187 L229.031 711.187 L229.031 724.416 L218.041 724.416 L218.041 711.187 Z" fill="#000000" fill-rule="evenodd" fill-opacity="1" /><path clip-path="url(#clip110)" d="M274.447 687.489 Q266.947 687.489 262.625 691.499 Q258.354 695.51 258.354 702.541 Q258.354 709.572 262.625 713.582 Q266.947 717.593 274.447 717.593 Q281.947 717.593 286.27 713.582 Q290.593 709.52 290.593 702.541 Q290.593 695.51 286.27 691.499 Q281.999 687.489 274.447 687.489 M263.927 683.01 Q257.156 681.343 253.354 676.708 Q249.604 672.072 249.604 665.406 Q249.604 656.083 256.218 650.666 Q262.885 645.249 274.447 645.249 Q286.062 645.249 292.676 650.666 Q299.291 656.083 299.291 665.406 Q299.291 672.072 295.489 676.708 Q291.739 681.343 285.02 683.01 Q292.624 684.78 296.843 689.937 Q301.114 695.093 301.114 702.541 Q301.114 713.843 294.187 719.884 Q287.312 725.926 274.447 725.926 Q261.583 725.926 254.656 719.884 Q247.781 713.843 247.781 702.541 Q247.781 695.093 252.052 689.937 Q256.322 684.78 263.927 683.01 M260.072 666.395 Q260.072 672.437 263.822 675.822 Q267.624 679.208 274.447 679.208 Q281.218 679.208 285.02 675.822 Q288.874 672.437 288.874 666.395 Q288.874 660.353 285.02 656.968 Q281.218 653.583 274.447 653.583 Q267.624 653.583 263.822 656.968 Q260.072 660.353 260.072 666.395 Z" fill="#000000" fill-rule="evenodd" fill-opacity="1" /><path clip-path="url(#clip110)" d="M151.792 544.235 L168.979 544.235 L168.979 484.912 L150.281 488.662 L150.281 479.079 L168.875 475.329 L179.396 475.329 L179.396 544.235 L196.583 544.235 L196.583 553.089 L151.792 553.089 L151.792 544.235 Z" fill="#000000" fill-rule="evenodd" fill-opacity="1" /><path clip-path="url(#clip110)" d="M217.833 539.86 L228.823 539.86 L228.823 553.089 L217.833 553.089 L217.833 539.86 Z" fill="#000000" fill-rule="evenodd" fill-opacity="1" /><path clip-path="url(#clip110)" d="M274.239 482.256 Q266.114 482.256 262 490.277 Q257.937 498.245 257.937 514.287 Q257.937 530.276 262 538.297 Q266.114 546.266 274.239 546.266 Q282.416 546.266 286.479 538.297 Q290.593 530.276 290.593 514.287 Q290.593 498.245 286.479 490.277 Q282.416 482.256 274.239 482.256 M274.239 473.922 Q287.312 473.922 294.187 484.287 Q301.114 494.599 301.114 514.287 Q301.114 533.922 294.187 544.287 Q287.312 554.599 274.239 554.599 Q261.166 554.599 254.239 544.287 Q247.364 533.922 247.364 514.287 Q247.364 494.599 254.239 484.287 Q261.166 473.922 274.239 473.922 Z" fill="#000000" fill-rule="evenodd" fill-opacity="1" /><path clip-path="url(#clip110)" d="M155.386 372.908 L172.573 372.908 L172.573 313.585 L153.875 317.335 L153.875 307.752 L172.469 304.002 L182.99 304.002 L182.99 372.908 L200.177 372.908 L200.177 381.762 L155.386 381.762 L155.386 372.908 Z" fill="#000000" fill-rule="evenodd" fill-opacity="1" /><path clip-path="url(#clip110)" d="M221.427 368.533 L232.416 368.533 L232.416 381.762 L221.427 381.762 L221.427 368.533 Z" fill="#000000" fill-rule="evenodd" fill-opacity="1" /><path clip-path="url(#clip110)" d="M264.395 372.908 L301.114 372.908 L301.114 381.762 L251.739 381.762 L251.739 372.908 Q257.729 366.71 268.041 356.293 Q278.406 345.824 281.062 342.804 Q286.114 337.127 288.093 333.22 Q290.124 329.262 290.124 325.46 Q290.124 319.262 285.749 315.356 Q281.427 311.45 274.447 311.45 Q269.499 311.45 263.979 313.168 Q258.51 314.887 252.26 318.377 L252.26 307.752 Q258.614 305.2 264.135 303.898 Q269.656 302.596 274.239 302.596 Q286.322 302.596 293.51 308.637 Q300.697 314.679 300.697 324.783 Q300.697 329.575 298.874 333.897 Q297.104 338.168 292.364 344.002 Q291.062 345.512 284.083 352.752 Q277.104 359.939 264.395 372.908 Z" fill="#000000" fill-rule="evenodd" fill-opacity="1" /><path clip-path="url(#clip110)" d="M150.698 201.581 L167.885 201.581 L167.885 142.258 L149.188 146.008 L149.188 136.425 L167.781 132.675 L178.302 132.675 L178.302 201.581 L195.489 201.581 L195.489 210.435 L150.698 210.435 L150.698 201.581 Z" fill="#000000" fill-rule="evenodd" fill-opacity="1" /><path clip-path="url(#clip110)" d="M216.739 197.206 L227.729 197.206 L227.729 210.435 L216.739 210.435 L216.739 197.206 Z" fill="#000000" fill-rule="evenodd" fill-opacity="1" /><path clip-path="url(#clip110)" d="M279.552 141.841 L252.989 183.352 L279.552 183.352 L279.552 141.841 M276.791 132.675 L290.02 132.675 L290.02 183.352 L301.114 183.352 L301.114 192.102 L290.02 192.102 L290.02 210.435 L279.552 210.435 L279.552 192.102 L244.448 192.102 L244.448 181.945 L276.791 132.675 Z" fill="#000000" fill-rule="evenodd" fill-opacity="1" /><path clip-path="url(#clip110)" d="M29.0787 1001.59 L38.037 1001.59 Q35.7974 1005.65 34.7037 1009.77 Q33.5579 1013.83 33.5579 1018 Q33.5579 1027.32 39.4953 1032.47 Q45.3807 1037.63 56.0577 1037.63 Q66.7348 1037.63 72.6722 1032.47 Q78.5576 1027.32 78.5576 1018 Q78.5576 1013.83 77.4639 1009.77 Q76.318 1005.65 74.0785 1001.59 L82.9326 1001.59 Q84.8076 1005.6 85.7451 1009.92 Q86.6826 1014.19 86.6826 1019.04 Q86.6826 1032.21 78.4014 1039.97 Q70.1202 1047.73 56.0577 1047.73 Q41.787 1047.73 33.6099 1039.92 Q25.4329 1032.06 25.4329 1018.41 Q25.4329 1013.99 26.3704 1009.77 Q27.2558 1005.55 29.0787 1001.59 Z" fill="#000000" fill-rule="evenodd" fill-opacity="1" /><path clip-path="url(#clip110)" d="M62.1514 985.912 L26.8391 985.912 L26.8391 976.329 L61.7869 976.329 Q70.0681 976.329 74.2347 973.1 Q78.3493 969.871 78.3493 963.412 Q78.3493 955.652 73.4014 951.173 Q68.4535 946.642 59.9119 946.642 L26.8391 946.642 L26.8391 937.058 L85.1722 937.058 L85.1722 946.642 L76.2139 946.642 Q81.5263 950.131 84.1305 954.767 Q86.6826 959.35 86.6826 965.444 Q86.6826 975.496 80.4326 980.704 Q74.1826 985.912 62.1514 985.912 M25.4329 961.798 L25.4329 961.798 Z" fill="#000000" fill-rule="evenodd" fill-opacity="1" /><path clip-path="url(#clip110)" d="M35.7974 883.517 Q34.8599 885.132 34.4433 887.059 Q33.9745 888.934 33.9745 891.225 Q33.9745 899.35 39.287 903.725 Q44.5474 908.048 54.4432 908.048 L85.1722 908.048 L85.1722 917.684 L26.8391 917.684 L26.8391 908.048 L35.9016 908.048 Q30.5891 905.027 28.037 900.184 Q25.4329 895.34 25.4329 888.413 Q25.4329 887.423 25.5891 886.225 Q25.6933 885.027 25.9537 883.569 L35.7974 883.517 Z" fill="#000000" fill-rule="evenodd" fill-opacity="1" /><path clip-path="url(#clip110)" d="M35.7974 841.538 Q34.8599 843.153 34.4433 845.08 Q33.9745 846.955 33.9745 849.246 Q33.9745 857.371 39.287 861.746 Q44.5474 866.069 54.4432 866.069 L85.1722 866.069 L85.1722 875.705 L26.8391 875.705 L26.8391 866.069 L35.9016 866.069 Q30.5891 863.048 28.037 858.205 Q25.4329 853.361 25.4329 846.434 Q25.4329 845.444 25.5891 844.246 Q25.6933 843.048 25.9537 841.59 L35.7974 841.538 Z" fill="#000000" fill-rule="evenodd" fill-opacity="1" /><path clip-path="url(#clip110)" d="M53.6098 783.934 L58.2973 783.934 L58.2973 827.996 Q68.1931 827.371 73.4014 822.059 Q78.5576 816.694 78.5576 807.163 Q78.5576 801.642 77.2035 796.486 Q75.8493 791.278 73.141 786.174 L82.2034 786.174 Q84.3909 791.33 85.5367 796.747 Q86.6826 802.163 86.6826 807.736 Q86.6826 821.694 78.5576 829.871 Q70.4327 837.996 56.5786 837.996 Q42.2557 837.996 33.8703 830.288 Q25.4329 822.528 25.4329 809.403 Q25.4329 797.632 33.037 790.809 Q40.5891 783.934 53.6098 783.934 M50.7973 793.518 Q42.9328 793.622 38.2453 797.945 Q33.5579 802.215 33.5579 809.299 Q33.5579 817.319 38.0891 822.163 Q42.6203 826.955 50.8494 827.684 L50.7973 793.518 Z" fill="#000000" fill-rule="evenodd" fill-opacity="1" /><path clip-path="url(#clip110)" d="M49.964 719.716 L85.1722 719.716 L85.1722 729.299 L50.2765 729.299 Q41.9953 729.299 37.8807 732.528 Q33.7662 735.757 33.7662 742.216 Q33.7662 749.976 38.7141 754.455 Q43.662 758.934 52.2036 758.934 L85.1722 758.934 L85.1722 768.57 L26.8391 768.57 L26.8391 758.934 L35.9016 758.934 Q30.6412 755.497 28.037 750.861 Q25.4329 746.174 25.4329 740.08 Q25.4329 730.028 31.6829 724.872 Q37.8807 719.716 49.964 719.716 Z" fill="#000000" fill-rule="evenodd" fill-opacity="1" /><path clip-path="url(#clip110)" d="M10.2767 691.122 L26.8391 691.122 L26.8391 671.383 L34.287 671.383 L34.287 691.122 L65.9535 691.122 Q73.0889 691.122 75.1201 689.195 Q77.1514 687.216 77.1514 681.226 L77.1514 671.383 L85.1722 671.383 L85.1722 681.226 Q85.1722 692.32 81.0576 696.539 Q76.891 700.758 65.9535 700.758 L34.287 700.758 L34.287 707.789 L26.8391 707.789 L26.8391 700.758 L10.2767 700.758 L10.2767 691.122 Z" fill="#000000" fill-rule="evenodd" fill-opacity="1" /><path clip-path="url(#clip110)" d="M26.8391 631.748 L26.8391 621.591 L75.7972 603.362 L26.8391 585.133 L26.8391 574.977 L85.1722 596.852 L85.1722 609.873 L26.8391 631.748 Z" fill="#000000" fill-rule="evenodd" fill-opacity="1" /><path clip-path="url(#clip110)" d="M55.8494 535.238 Q55.8494 546.852 58.5056 551.331 Q61.1619 555.81 67.5681 555.81 Q72.6722 555.81 75.693 552.477 Q78.6618 549.092 78.6618 543.311 Q78.6618 535.342 73.0368 530.55 Q67.3598 525.706 57.9848 525.706 L55.8494 525.706 L55.8494 535.238 M51.8911 516.123 L85.1722 516.123 L85.1722 525.706 L76.318 525.706 Q81.6305 528.988 84.1826 533.883 Q86.6826 538.779 86.6826 545.863 Q86.6826 554.821 81.6826 560.133 Q76.6305 565.394 68.1931 565.394 Q58.3494 565.394 53.3494 558.831 Q48.3494 552.217 48.3494 539.144 L48.3494 525.706 L47.4119 525.706 Q40.7974 525.706 37.2037 530.081 Q33.5579 534.404 33.5579 542.269 Q33.5579 547.269 34.7558 552.008 Q35.9537 556.748 38.3495 561.123 L29.4954 561.123 Q27.4641 555.863 26.4746 550.915 Q25.4329 545.967 25.4329 541.279 Q25.4329 528.623 31.9954 522.373 Q38.5578 516.123 51.8911 516.123 Z" fill="#000000" fill-rule="evenodd" fill-opacity="1" /><path clip-path="url(#clip110)" d="M4.13093 496.384 L4.13093 486.8 L85.1722 486.8 L85.1722 496.384 L4.13093 496.384 Z" fill="#000000" fill-rule="evenodd" fill-opacity="1" /><path clip-path="url(#clip110)" d="M62.1514 467.738 L26.8391 467.738 L26.8391 458.155 L61.7869 458.155 Q70.0681 458.155 74.2347 454.926 Q78.3493 451.696 78.3493 445.238 Q78.3493 437.478 73.4014 432.999 Q68.4535 428.467 59.9119 428.467 L26.8391 428.467 L26.8391 418.884 L85.1722 418.884 L85.1722 428.467 L76.2139 428.467 Q81.5263 431.957 84.1305 436.592 Q86.6826 441.176 86.6826 447.269 Q86.6826 457.321 80.4326 462.53 Q74.1826 467.738 62.1514 467.738 M25.4329 443.624 L25.4329 443.624 Z" fill="#000000" fill-rule="evenodd" fill-opacity="1" /><path clip-path="url(#clip110)" d="M53.6098 349.249 L58.2973 349.249 L58.2973 393.311 Q68.1931 392.686 73.4014 387.374 Q78.5576 382.009 78.5576 372.478 Q78.5576 366.957 77.2035 361.801 Q75.8493 356.593 73.141 351.489 L82.2034 351.489 Q84.3909 356.645 85.5367 362.061 Q86.6826 367.478 86.6826 373.051 Q86.6826 387.009 78.5576 395.186 Q70.4327 403.311 56.5786 403.311 Q42.2557 403.311 33.8703 395.603 Q25.4329 387.843 25.4329 374.718 Q25.4329 362.947 33.037 356.124 Q40.5891 349.249 53.6098 349.249 M50.7973 358.832 Q42.9328 358.936 38.2453 363.259 Q33.5579 367.53 33.5579 374.613 Q33.5579 382.634 38.0891 387.478 Q42.6203 392.27 50.8494 392.999 L50.7973 358.832 Z" fill="#000000" fill-rule="evenodd" fill-opacity="1" /><polyline clip-path="url(#clip113)" style="stroke:#009af9; stroke-linecap:butt; stroke-linejoin:round; stroke-width:16; stroke-opacity:1; fill:none" points="
  374.546,942.526 499.319,892.722 624.092,837.127 748.865,775.068 873.638,705.792 998.411,628.461 1123.18,542.138 1247.96,445.778 1372.73,338.214 1497.5,218.142 
  1622.28,84.1072 
  "/>
<polyline clip-path="url(#clip113)" style="stroke:#e26f46; stroke-linecap:butt; stroke-linejoin:round; stroke-width:16; stroke-opacity:1; fill:none" points="
  374.546,942.526 499.319,897.006 624.092,846.648 748.865,790.938 873.638,729.308 998.411,661.128 1123.18,585.702 1247.96,502.259 1372.73,409.949 1497.5,307.829 
  1622.28,194.855 
  "/>
<polyline clip-path="url(#clip113)" style="stroke:#3da44d; stroke-linecap:butt; stroke-linejoin:round; stroke-width:16; stroke-opacity:1; fill:none" points="
  374.546,942.526 499.319,942.526 624.092,942.526 748.865,942.526 873.638,942.526 998.411,942.526 1123.18,942.526 1247.96,942.526 1372.73,942.526 1497.5,942.526 
  1622.28,942.526 
  "/>
<polyline clip-path="url(#clip113)" style="stroke:#c271d2; stroke-linecap:butt; stroke-linejoin:round; stroke-width:16; stroke-opacity:1; fill:none" points="
  374.546,942.526 499.319,983.286 624.092,1020.17 748.865,1053.54 873.638,1083.73 998.411,1111.06 1123.18,1135.78 1247.96,1158.15 1372.73,1178.39 1497.5,1196.7 
  1622.28,1213.27 
  "/>
<polyline clip-path="url(#clip113)" style="stroke:#ac8d18; stroke-linecap:butt; stroke-linejoin:round; stroke-width:16; stroke-opacity:1; fill:none" points="
  374.546,942.526 499.319,1020.17 624.092,1083.73 748.865,1135.78 873.638,1178.39 998.411,1213.27 1123.18,1241.84 1247.96,1265.22 1372.73,1284.37 1497.5,1300.04 
  1622.28,1312.88 
  "/>
<path clip-path="url(#clip110)" d="
M1726.9 790.501 L2352.76 790.501 L2352.76 90.6606 L1726.9 90.6606  Z
  " fill="#ffffff" fill-rule="evenodd" fill-opacity="1"/>
<polyline clip-path="url(#clip110)" style="stroke:#000000; stroke-linecap:butt; stroke-linejoin:round; stroke-width:4; stroke-opacity:1; fill:none" points="
  1726.9,790.501 2352.76,790.501 2352.76,90.6606 1726.9,90.6606 1726.9,790.501 
  "/>
<polyline clip-path="url(#clip110)" style="stroke:#009af9; stroke-linecap:butt; stroke-linejoin:round; stroke-width:9; stroke-opacity:1; fill:none" points="
  1749.29,207.301 1883.67,207.301 
  "/>
<path clip-path="url(#clip110)" d="M1959.45 259.341 Q1959.45 260.342 1958.29 260.448 L1955.92 260.448 Q1953.49 260.448 1952.44 260.079 Q1951.39 259.71 1950.17 258.023 Q1949.44 256.969 1947.59 252.068 Q1945.8 247.114 1943.17 239.631 Q1940.58 232.147 1938.84 227.721 L1912.86 258.392 Q1911.07 260.658 1909.28 260.658 Q1907.96 260.658 1907.01 259.762 Q1906.06 258.867 1906.06 257.496 Q1906.06 256.495 1906.43 255.915 Q1906.85 255.336 1907.96 254.176 L1937.79 224.611 L1927.3 195.257 Q1925.3 189.829 1924.14 188.459 Q1923.03 187.088 1920.29 186.614 Q1919.29 186.351 1919.29 185.507 Q1919.29 184.348 1921.24 184.348 Q1931.68 184.348 1934.42 191.99 L1956.45 253.386 Q1957.66 256.917 1958.92 258.392 Q1959.45 259.077 1959.45 259.341 Z" fill="#000000" fill-rule="evenodd" fill-opacity="1" /><path clip-path="url(#clip110)" d="M1968.33 210.798 L2035.1 210.798 L2035.1 219.548 L1968.33 219.548 L1968.33 210.798 M1968.33 232.048 L2035.1 232.048 L2035.1 240.902 L1968.33 240.902 L1968.33 232.048 Z" fill="#000000" fill-rule="evenodd" fill-opacity="1" /><path clip-path="url(#clip110)" d="M2093.54 250.381 L2110.73 250.381 L2110.73 191.059 L2092.03 194.809 L2092.03 185.225 L2110.62 181.475 L2121.14 181.475 L2121.14 250.381 L2138.33 250.381 L2138.33 259.235 L2093.54 259.235 L2093.54 250.381 Z" fill="#000000" fill-rule="evenodd" fill-opacity="1" /><path clip-path="url(#clip110)" d="M2159.58 246.006 L2170.57 246.006 L2170.57 259.235 L2159.58 259.235 L2159.58 246.006 Z" fill="#000000" fill-rule="evenodd" fill-opacity="1" /><path clip-path="url(#clip110)" d="M2195.31 250.381 L2212.5 250.381 L2212.5 191.059 L2193.8 194.809 L2193.8 185.225 L2212.39 181.475 L2222.91 181.475 L2222.91 250.381 L2240.1 250.381 L2240.1 259.235 L2195.31 259.235 L2195.31 250.381 Z" fill="#000000" fill-rule="evenodd" fill-opacity="1" /><polyline clip-path="url(#clip110)" style="stroke:#e26f46; stroke-linecap:butt; stroke-linejoin:round; stroke-width:9; stroke-opacity:1; fill:none" points="
  1749.29,323.941 1883.67,323.941 
  "/>
<path clip-path="url(#clip110)" d="M1959.45 375.981 Q1959.45 376.982 1958.29 377.088 L1955.92 377.088 Q1953.49 377.088 1952.44 376.719 Q1951.39 376.35 1950.17 374.663 Q1949.44 373.609 1947.59 368.708 Q1945.8 363.754 1943.17 356.271 Q1940.58 348.787 1938.84 344.361 L1912.86 375.032 Q1911.07 377.298 1909.28 377.298 Q1907.96 377.298 1907.01 376.402 Q1906.06 375.507 1906.06 374.136 Q1906.06 373.135 1906.43 372.555 Q1906.85 371.976 1907.96 370.816 L1937.79 341.251 L1927.3 311.897 Q1925.3 306.469 1924.14 305.099 Q1923.03 303.728 1920.29 303.254 Q1919.29 302.991 1919.29 302.147 Q1919.29 300.988 1921.24 300.988 Q1931.68 300.988 1934.42 308.63 L1956.45 370.026 Q1957.66 373.557 1958.92 375.032 Q1959.45 375.717 1959.45 375.981 Z" fill="#000000" fill-rule="evenodd" fill-opacity="1" /><path clip-path="url(#clip110)" d="M1968.33 327.438 L2035.1 327.438 L2035.1 336.188 L1968.33 336.188 L1968.33 327.438 M1968.33 348.688 L2035.1 348.688 L2035.1 357.542 L1968.33 357.542 L1968.33 348.688 Z" fill="#000000" fill-rule="evenodd" fill-opacity="1" /><path clip-path="url(#clip110)" d="M2093.54 367.021 L2110.73 367.021 L2110.73 307.699 L2092.03 311.449 L2092.03 301.865 L2110.62 298.115 L2121.14 298.115 L2121.14 367.021 L2138.33 367.021 L2138.33 375.875 L2093.54 375.875 L2093.54 367.021 Z" fill="#000000" fill-rule="evenodd" fill-opacity="1" /><path clip-path="url(#clip110)" d="M2159.58 362.646 L2170.57 362.646 L2170.57 375.875 L2159.58 375.875 L2159.58 362.646 Z" fill="#000000" fill-rule="evenodd" fill-opacity="1" /><path clip-path="url(#clip110)" d="M2215.99 305.042 Q2207.86 305.042 2203.75 313.063 Q2199.68 321.032 2199.68 337.074 Q2199.68 353.063 2203.75 361.084 Q2207.86 369.053 2215.99 369.053 Q2224.16 369.053 2228.22 361.084 Q2232.34 353.063 2232.34 337.074 Q2232.34 321.032 2228.22 313.063 Q2224.16 305.042 2215.99 305.042 M2215.99 296.709 Q2229.06 296.709 2235.93 307.074 Q2242.86 317.386 2242.86 337.074 Q2242.86 356.709 2235.93 367.073 Q2229.06 377.386 2215.99 377.386 Q2202.91 377.386 2195.99 367.073 Q2189.11 356.709 2189.11 337.074 Q2189.11 317.386 2195.99 307.074 Q2202.91 296.709 2215.99 296.709 Z" fill="#000000" fill-rule="evenodd" fill-opacity="1" /><path clip-path="url(#clip110)" d="M2263.17 367.021 L2280.36 367.021 L2280.36 307.699 L2261.66 311.449 L2261.66 301.865 L2280.26 298.115 L2290.78 298.115 L2290.78 367.021 L2307.96 367.021 L2307.96 375.875 L2263.17 375.875 L2263.17 367.021 Z" fill="#000000" fill-rule="evenodd" fill-opacity="1" /><polyline clip-path="url(#clip110)" style="stroke:#3da44d; stroke-linecap:butt; stroke-linejoin:round; stroke-width:9; stroke-opacity:1; fill:none" points="
  1749.29,440.581 1883.67,440.581 
  "/>
<path clip-path="url(#clip110)" d="M1959.45 492.621 Q1959.45 493.622 1958.29 493.728 L1955.92 493.728 Q1953.49 493.728 1952.44 493.359 Q1951.39 492.99 1950.17 491.303 Q1949.44 490.249 1947.59 485.348 Q1945.8 480.394 1943.17 472.911 Q1940.58 465.427 1938.84 461.001 L1912.86 491.672 Q1911.07 493.938 1909.28 493.938 Q1907.96 493.938 1907.01 493.042 Q1906.06 492.147 1906.06 490.776 Q1906.06 489.775 1906.43 489.195 Q1906.85 488.616 1907.96 487.456 L1937.79 457.891 L1927.3 428.537 Q1925.3 423.109 1924.14 421.739 Q1923.03 420.368 1920.29 419.894 Q1919.29 419.631 1919.29 418.787 Q1919.29 417.628 1921.24 417.628 Q1931.68 417.628 1934.42 425.27 L1956.45 486.666 Q1957.66 490.197 1958.92 491.672 Q1959.45 492.357 1959.45 492.621 Z" fill="#000000" fill-rule="evenodd" fill-opacity="1" /><path clip-path="url(#clip110)" d="M1968.33 444.078 L2035.1 444.078 L2035.1 452.828 L1968.33 452.828 L1968.33 444.078 M1968.33 465.328 L2035.1 465.328 L2035.1 474.182 L1968.33 474.182 L1968.33 465.328 Z" fill="#000000" fill-rule="evenodd" fill-opacity="1" /><path clip-path="url(#clip110)" d="M2114.21 421.682 Q2106.09 421.682 2101.98 429.703 Q2097.91 437.672 2097.91 453.714 Q2097.91 469.703 2101.98 477.724 Q2106.09 485.693 2114.21 485.693 Q2122.39 485.693 2126.45 477.724 Q2130.57 469.703 2130.57 453.714 Q2130.57 437.672 2126.45 429.703 Q2122.39 421.682 2114.21 421.682 M2114.21 413.349 Q2127.29 413.349 2134.16 423.714 Q2141.09 434.026 2141.09 453.714 Q2141.09 473.349 2134.16 483.713 Q2127.29 494.026 2114.21 494.026 Q2101.14 494.026 2094.22 483.713 Q2087.34 473.349 2087.34 453.714 Q2087.34 434.026 2094.22 423.714 Q2101.14 413.349 2114.21 413.349 Z" fill="#000000" fill-rule="evenodd" fill-opacity="1" /><path clip-path="url(#clip110)" d="M2159.58 479.286 L2170.57 479.286 L2170.57 492.515 L2159.58 492.515 L2159.58 479.286 Z" fill="#000000" fill-rule="evenodd" fill-opacity="1" /><path clip-path="url(#clip110)" d="M2215.99 421.682 Q2207.86 421.682 2203.75 429.703 Q2199.68 437.672 2199.68 453.714 Q2199.68 469.703 2203.75 477.724 Q2207.86 485.693 2215.99 485.693 Q2224.16 485.693 2228.22 477.724 Q2232.34 469.703 2232.34 453.714 Q2232.34 437.672 2228.22 429.703 Q2224.16 421.682 2215.99 421.682 M2215.99 413.349 Q2229.06 413.349 2235.93 423.714 Q2242.86 434.026 2242.86 453.714 Q2242.86 473.349 2235.93 483.713 Q2229.06 494.026 2215.99 494.026 Q2202.91 494.026 2195.99 483.713 Q2189.11 473.349 2189.11 453.714 Q2189.11 434.026 2195.99 423.714 Q2202.91 413.349 2215.99 413.349 Z" fill="#000000" fill-rule="evenodd" fill-opacity="1" /><polyline clip-path="url(#clip110)" style="stroke:#c271d2; stroke-linecap:butt; stroke-linejoin:round; stroke-width:9; stroke-opacity:1; fill:none" points="
  1749.29,557.221 1883.67,557.221 
  "/>
<path clip-path="url(#clip110)" d="M1959.45 609.261 Q1959.45 610.262 1958.29 610.368 L1955.92 610.368 Q1953.49 610.368 1952.44 609.999 Q1951.39 609.63 1950.17 607.943 Q1949.44 606.889 1947.59 601.988 Q1945.8 597.034 1943.17 589.551 Q1940.58 582.067 1938.84 577.641 L1912.86 608.312 Q1911.07 610.578 1909.28 610.578 Q1907.96 610.578 1907.01 609.682 Q1906.06 608.787 1906.06 607.416 Q1906.06 606.415 1906.43 605.835 Q1906.85 605.256 1907.96 604.096 L1937.79 574.531 L1927.3 545.177 Q1925.3 539.749 1924.14 538.379 Q1923.03 537.008 1920.29 536.534 Q1919.29 536.271 1919.29 535.427 Q1919.29 534.268 1921.24 534.268 Q1931.68 534.268 1934.42 541.91 L1956.45 603.306 Q1957.66 606.837 1958.92 608.312 Q1959.45 608.997 1959.45 609.261 Z" fill="#000000" fill-rule="evenodd" fill-opacity="1" /><path clip-path="url(#clip110)" d="M1968.33 560.718 L2035.1 560.718 L2035.1 569.468 L1968.33 569.468 L1968.33 560.718 M1968.33 581.968 L2035.1 581.968 L2035.1 590.822 L1968.33 590.822 L1968.33 581.968 Z" fill="#000000" fill-rule="evenodd" fill-opacity="1" /><path clip-path="url(#clip110)" d="M2085.52 575.666 L2113.59 575.666 L2113.59 584.208 L2085.52 584.208 L2085.52 575.666 Z" fill="#000000" fill-rule="evenodd" fill-opacity="1" /><path clip-path="url(#clip110)" d="M2132.03 600.301 L2149.21 600.301 L2149.21 540.979 L2130.52 544.729 L2130.52 535.145 L2149.11 531.395 L2159.63 531.395 L2159.63 600.301 L2176.82 600.301 L2176.82 609.155 L2132.03 609.155 L2132.03 600.301 Z" fill="#000000" fill-rule="evenodd" fill-opacity="1" /><path clip-path="url(#clip110)" d="M2198.07 595.926 L2209.06 595.926 L2209.06 609.155 L2198.07 609.155 L2198.07 595.926 Z" fill="#000000" fill-rule="evenodd" fill-opacity="1" /><path clip-path="url(#clip110)" d="M2254.47 538.322 Q2246.35 538.322 2242.24 546.343 Q2238.17 554.312 2238.17 570.354 Q2238.17 586.343 2242.24 594.364 Q2246.35 602.333 2254.47 602.333 Q2262.65 602.333 2266.71 594.364 Q2270.83 586.343 2270.83 570.354 Q2270.83 554.312 2266.71 546.343 Q2262.65 538.322 2254.47 538.322 M2254.47 529.989 Q2267.55 529.989 2274.42 540.354 Q2281.35 550.666 2281.35 570.354 Q2281.35 589.989 2274.42 600.353 Q2267.55 610.666 2254.47 610.666 Q2241.4 610.666 2234.47 600.353 Q2227.6 589.989 2227.6 570.354 Q2227.6 550.666 2234.47 540.354 Q2241.4 529.989 2254.47 529.989 Z" fill="#000000" fill-rule="evenodd" fill-opacity="1" /><polyline clip-path="url(#clip110)" style="stroke:#ac8d18; stroke-linecap:butt; stroke-linejoin:round; stroke-width:9; stroke-opacity:1; fill:none" points="
  1749.29,673.861 1883.67,673.861 
  "/>
<path clip-path="url(#clip110)" d="M1959.45 725.901 Q1959.45 726.902 1958.29 727.008 L1955.92 727.008 Q1953.49 727.008 1952.44 726.639 Q1951.39 726.27 1950.17 724.583 Q1949.44 723.529 1947.59 718.628 Q1945.8 713.674 1943.17 706.191 Q1940.58 698.707 1938.84 694.281 L1912.86 724.952 Q1911.07 727.218 1909.28 727.218 Q1907.96 727.218 1907.01 726.322 Q1906.06 725.427 1906.06 724.056 Q1906.06 723.055 1906.43 722.475 Q1906.85 721.896 1907.96 720.736 L1937.79 691.171 L1927.3 661.817 Q1925.3 656.389 1924.14 655.019 Q1923.03 653.648 1920.29 653.174 Q1919.29 652.911 1919.29 652.067 Q1919.29 650.908 1921.24 650.908 Q1931.68 650.908 1934.42 658.55 L1956.45 719.946 Q1957.66 723.477 1958.92 724.952 Q1959.45 725.637 1959.45 725.901 Z" fill="#000000" fill-rule="evenodd" fill-opacity="1" /><path clip-path="url(#clip110)" d="M1968.33 677.358 L2035.1 677.358 L2035.1 686.108 L1968.33 686.108 L1968.33 677.358 M1968.33 698.608 L2035.1 698.608 L2035.1 707.462 L1968.33 707.462 L1968.33 698.608 Z" fill="#000000" fill-rule="evenodd" fill-opacity="1" /><path clip-path="url(#clip110)" d="M2085.52 692.306 L2113.59 692.306 L2113.59 700.848 L2085.52 700.848 L2085.52 692.306 Z" fill="#000000" fill-rule="evenodd" fill-opacity="1" /><path clip-path="url(#clip110)" d="M2139.27 716.941 L2175.99 716.941 L2175.99 725.795 L2126.61 725.795 L2126.61 716.941 Q2132.6 710.743 2142.91 700.327 Q2153.28 689.858 2155.93 686.837 Q2160.99 681.16 2162.96 677.254 Q2165 673.296 2165 669.494 Q2165 663.296 2160.62 659.39 Q2156.3 655.483 2149.32 655.483 Q2144.37 655.483 2138.85 657.202 Q2133.38 658.921 2127.13 662.41 L2127.13 651.785 Q2133.49 649.233 2139.01 647.931 Q2144.53 646.629 2149.11 646.629 Q2161.19 646.629 2168.38 652.671 Q2175.57 658.712 2175.57 668.817 Q2175.57 673.608 2173.75 677.931 Q2171.98 682.202 2167.24 688.035 Q2165.93 689.546 2158.95 696.785 Q2151.98 703.973 2139.27 716.941 Z" fill="#000000" fill-rule="evenodd" fill-opacity="1" /><path clip-path="url(#clip110)" d="M2198.07 712.566 L2209.06 712.566 L2209.06 725.795 L2198.07 725.795 L2198.07 712.566 Z" fill="#000000" fill-rule="evenodd" fill-opacity="1" /><path clip-path="url(#clip110)" d="M2254.47 654.962 Q2246.35 654.962 2242.24 662.983 Q2238.17 670.952 2238.17 686.994 Q2238.17 702.983 2242.24 711.004 Q2246.35 718.973 2254.47 718.973 Q2262.65 718.973 2266.71 711.004 Q2270.83 702.983 2270.83 686.994 Q2270.83 670.952 2266.71 662.983 Q2262.65 654.962 2254.47 654.962 M2254.47 646.629 Q2267.55 646.629 2274.42 656.994 Q2281.35 667.306 2281.35 686.994 Q2281.35 706.629 2274.42 716.993 Q2267.55 727.306 2254.47 727.306 Q2241.4 727.306 2234.47 716.993 Q2227.6 706.629 2227.6 686.994 Q2227.6 667.306 2234.47 656.994 Q2241.4 646.629 2254.47 646.629 Z" fill="#000000" fill-rule="evenodd" fill-opacity="1" /></svg>
