<?xml version="1.0" encoding="utf-8"?>
<svg xmlns="http://www.w3.org/2000/svg" xmlns:xlink="http://www.w3.org/1999/xlink" width="600" height="400" viewBox="0 0 2400 1600">
<defs>
  <clipPath id="clip430">
    <rect x="0" y="0" width="2400" height="1600"/>
  </clipPath>
</defs>
<path clip-path="url(#clip430)" d="
M0 1600 L2400 1600 L2400 0 L0 0  Z
  " fill="#ffffff" fill-rule="evenodd" fill-opacity="1"/>
<defs>
  <clipPath id="clip431">
    <rect x="480" y="0" width="1681" height="1600"/>
  </clipPath>
</defs>
<path clip-path="url(#clip430)" d="
M209.029 1486.45 L2352.76 1486.45 L2352.76 47.2441 L209.029 47.2441  Z
  " fill="#ffffff" fill-rule="evenodd" fill-opacity="1"/>
<defs>
  <clipPath id="clip432">
    <rect x="209" y="47" width="2145" height="1440"/>
  </clipPath>
</defs>
<polyline clip-path="url(#clip432)" style="stroke:#000000; stroke-linecap:butt; stroke-linejoin:round; stroke-width:2; stroke-opacity:0.1; fill:none" points="
  471.938,1486.45 471.938,47.2441 
  "/>
<polyline clip-path="url(#clip432)" style="stroke:#000000; stroke-linecap:butt; stroke-linejoin:round; stroke-width:2; stroke-opacity:0.1; fill:none" points="
  876.415,1486.45 876.415,47.2441 
  "/>
<polyline clip-path="url(#clip432)" style="stroke:#000000; stroke-linecap:butt; stroke-linejoin:round; stroke-width:2; stroke-opacity:0.1; fill:none" points="
  1280.89,1486.45 1280.89,47.2441 
  "/>
<polyline clip-path="url(#clip432)" style="stroke:#000000; stroke-linecap:butt; stroke-linejoin:round; stroke-width:2; stroke-opacity:0.1; fill:none" points="
  1685.37,1486.45 1685.37,47.2441 
  "/>
<polyline clip-path="url(#clip432)" style="stroke:#000000; stroke-linecap:butt; stroke-linejoin:round; stroke-width:2; stroke-opacity:0.1; fill:none" points="
  2089.85,1486.45 2089.85,47.2441 
  "/>
<polyline clip-path="url(#clip430)" style="stroke:#000000; stroke-linecap:butt; stroke-linejoin:round; stroke-width:4; stroke-opacity:1; fill:none" points="
  209.029,1486.45 2352.76,1486.45 
  "/>
<polyline clip-path="url(#clip430)" style="stroke:#000000; stroke-linecap:butt; stroke-linejoin:round; stroke-width:4; stroke-opacity:1; fill:none" points="
  471.938,1486.45 471.938,1467.55 
  "/>
<polyline clip-path="url(#clip430)" style="stroke:#000000; stroke-linecap:butt; stroke-linejoin:round; stroke-width:4; stroke-opacity:1; fill:none" points="
  876.415,1486.45 876.415,1467.55 
  "/>
<polyline clip-path="url(#clip430)" style="stroke:#000000; stroke-linecap:butt; stroke-linejoin:round; stroke-width:4; stroke-opacity:1; fill:none" points="
  1280.89,1486.45 1280.89,1467.55 
  "/>
<polyline clip-path="url(#clip430)" style="stroke:#000000; stroke-linecap:butt; stroke-linejoin:round; stroke-width:4; stroke-opacity:1; fill:none" points="
  1685.37,1486.45 1685.37,1467.55 
  "/>
<polyline clip-path="url(#clip430)" style="stroke:#000000; stroke-linecap:butt; stroke-linejoin:round; stroke-width:4; stroke-opacity:1; fill:none" points="
  2089.85,1486.45 2089.85,1467.55 
  "/>
<path clip-path="url(#clip430)" d="M440.839 1532.02 L470.515 1532.02 L470.515 1535.95 L440.839 1535.95 L440.839 1532.02 Z" fill="#000000" fill-rule="evenodd" fill-opacity="1" /><path clip-path="url(#clip430)" d="M493.455 1518.36 L481.649 1536.81 L493.455 1536.81 L493.455 1518.36 M492.228 1514.29 L498.107 1514.29 L498.107 1536.81 L503.038 1536.81 L503.038 1540.7 L498.107 1540.7 L498.107 1548.85 L493.455 1548.85 L493.455 1540.7 L477.853 1540.7 L477.853 1536.19 L492.228 1514.29 Z" fill="#000000" fill-rule="evenodd" fill-opacity="1" /><path clip-path="url(#clip430)" d="M846.358 1532.02 L876.033 1532.02 L876.033 1535.95 L846.358 1535.95 L846.358 1532.02 Z" fill="#000000" fill-rule="evenodd" fill-opacity="1" /><path clip-path="url(#clip430)" d="M890.154 1544.91 L906.473 1544.91 L906.473 1548.85 L884.529 1548.85 L884.529 1544.91 Q887.191 1542.16 891.774 1537.53 Q896.381 1532.88 897.561 1531.53 Q899.806 1529.01 900.686 1527.27 Q901.589 1525.51 901.589 1523.82 Q901.589 1521.07 899.644 1519.33 Q897.723 1517.6 894.621 1517.6 Q892.422 1517.6 889.969 1518.36 Q887.538 1519.13 884.76 1520.68 L884.76 1515.95 Q887.584 1514.82 890.038 1514.24 Q892.492 1513.66 894.529 1513.66 Q899.899 1513.66 903.093 1516.35 Q906.288 1519.03 906.288 1523.52 Q906.288 1525.65 905.478 1527.57 Q904.691 1529.47 902.584 1532.07 Q902.005 1532.74 898.904 1535.95 Q895.802 1539.15 890.154 1544.91 Z" fill="#000000" fill-rule="evenodd" fill-opacity="1" /><path clip-path="url(#clip430)" d="M1280.89 1517.37 Q1277.28 1517.37 1275.45 1520.93 Q1273.65 1524.47 1273.65 1531.6 Q1273.65 1538.71 1275.45 1542.27 Q1277.28 1545.82 1280.89 1545.82 Q1284.53 1545.82 1286.33 1542.27 Q1288.16 1538.71 1288.16 1531.6 Q1288.16 1524.47 1286.33 1520.93 Q1284.53 1517.37 1280.89 1517.37 M1280.89 1513.66 Q1286.7 1513.66 1289.76 1518.27 Q1292.84 1522.85 1292.84 1531.6 Q1292.84 1540.33 1289.76 1544.94 Q1286.7 1549.52 1280.89 1549.52 Q1275.08 1549.52 1272 1544.94 Q1268.95 1540.33 1268.95 1531.6 Q1268.95 1522.85 1272 1518.27 Q1275.08 1513.66 1280.89 1513.66 Z" fill="#000000" fill-rule="evenodd" fill-opacity="1" /><path clip-path="url(#clip430)" d="M1680.02 1544.91 L1696.34 1544.91 L1696.34 1548.85 L1674.4 1548.85 L1674.4 1544.91 Q1677.06 1542.16 1681.64 1537.53 Q1686.25 1532.88 1687.43 1531.53 Q1689.67 1529.01 1690.55 1527.27 Q1691.46 1525.51 1691.46 1523.82 Q1691.46 1521.07 1689.51 1519.33 Q1687.59 1517.6 1684.49 1517.6 Q1682.29 1517.6 1679.84 1518.36 Q1677.41 1519.13 1674.63 1520.68 L1674.63 1515.95 Q1677.45 1514.82 1679.91 1514.24 Q1682.36 1513.66 1684.4 1513.66 Q1689.77 1513.66 1692.96 1516.35 Q1696.16 1519.03 1696.16 1523.52 Q1696.16 1525.65 1695.35 1527.57 Q1694.56 1529.47 1692.45 1532.07 Q1691.87 1532.74 1688.77 1535.95 Q1685.67 1539.15 1680.02 1544.91 Z" fill="#000000" fill-rule="evenodd" fill-opacity="1" /><path clip-path="url(#clip430)" d="M2092.86 1518.36 L2081.05 1536.81 L2092.86 1536.81 L2092.86 1518.36 M2091.63 1514.29 L2097.51 1514.29 L2097.51 1536.81 L2102.44 1536.81 L2102.44 1540.7 L2097.51 1540.7 L2097.51 1548.85 L2092.86 1548.85 L2092.86 1540.7 L2077.25 1540.7 L2077.25 1536.19 L2091.63 1514.29 Z" fill="#000000" fill-rule="evenodd" fill-opacity="1" /><polyline clip-path="url(#clip432)" style="stroke:#000000; stroke-linecap:butt; stroke-linejoin:round; stroke-width:2; stroke-opacity:0.1; fill:none" points="
  209.029,1309.94 2352.76,1309.94 
  "/>
<polyline clip-path="url(#clip432)" style="stroke:#000000; stroke-linecap:butt; stroke-linejoin:round; stroke-width:2; stroke-opacity:0.1; fill:none" points="
  209.029,1038.39 2352.76,1038.39 
  "/>
<polyline clip-path="url(#clip432)" style="stroke:#000000; stroke-linecap:butt; stroke-linejoin:round; stroke-width:2; stroke-opacity:0.1; fill:none" points="
  209.029,766.846 2352.76,766.846 
  "/>
<polyline clip-path="url(#clip432)" style="stroke:#000000; stroke-linecap:butt; stroke-linejoin:round; stroke-width:2; stroke-opacity:0.1; fill:none" points="
  209.029,495.298 2352.76,495.298 
  "/>
<polyline clip-path="url(#clip432)" style="stroke:#000000; stroke-linecap:butt; stroke-linejoin:round; stroke-width:2; stroke-opacity:0.1; fill:none" points="
  209.029,223.75 2352.76,223.75 
  "/>
<polyline clip-path="url(#clip430)" style="stroke:#000000; stroke-linecap:butt; stroke-linejoin:round; stroke-width:4; stroke-opacity:1; fill:none" points="
  209.029,1486.45 209.029,47.2441 
  "/>
<polyline clip-path="url(#clip430)" style="stroke:#000000; stroke-linecap:butt; stroke-linejoin:round; stroke-width:4; stroke-opacity:1; fill:none" points="
  209.029,1309.94 227.926,1309.94 
  "/>
<polyline clip-path="url(#clip430)" style="stroke:#000000; stroke-linecap:butt; stroke-linejoin:round; stroke-width:4; stroke-opacity:1; fill:none" points="
  209.029,1038.39 227.926,1038.39 
  "/>
<polyline clip-path="url(#clip430)" style="stroke:#000000; stroke-linecap:butt; stroke-linejoin:round; stroke-width:4; stroke-opacity:1; fill:none" points="
  209.029,766.846 227.926,766.846 
  "/>
<polyline clip-path="url(#clip430)" style="stroke:#000000; stroke-linecap:butt; stroke-linejoin:round; stroke-width:4; stroke-opacity:1; fill:none" points="
  209.029,495.298 227.926,495.298 
  "/>
<polyline clip-path="url(#clip430)" style="stroke:#000000; stroke-linecap:butt; stroke-linejoin:round; stroke-width:4; stroke-opacity:1; fill:none" points="
  209.029,223.75 227.926,223.75 
  "/>
<path clip-path="url(#clip430)" d="M50.9921 1310.39 L80.6679 1310.39 L80.6679 1314.33 L50.9921 1314.33 L50.9921 1310.39 Z" fill="#000000" fill-rule="evenodd" fill-opacity="1" /><path clip-path="url(#clip430)" d="M91.5706 1323.29 L99.2095 1323.29 L99.2095 1296.92 L90.8993 1298.59 L90.8993 1294.33 L99.1632 1292.66 L103.839 1292.66 L103.839 1323.29 L111.478 1323.29 L111.478 1327.22 L91.5706 1327.22 L91.5706 1323.29 Z" fill="#000000" fill-rule="evenodd" fill-opacity="1" /><path clip-path="url(#clip430)" d="M130.922 1295.74 Q127.311 1295.74 125.482 1299.31 Q123.677 1302.85 123.677 1309.98 Q123.677 1317.08 125.482 1320.65 Q127.311 1324.19 130.922 1324.19 Q134.556 1324.19 136.362 1320.65 Q138.191 1317.08 138.191 1309.98 Q138.191 1302.85 136.362 1299.31 Q134.556 1295.74 130.922 1295.74 M130.922 1292.04 Q136.732 1292.04 139.788 1296.64 Q142.867 1301.23 142.867 1309.98 Q142.867 1318.7 139.788 1323.31 Q136.732 1327.89 130.922 1327.89 Q125.112 1327.89 122.033 1323.31 Q118.978 1318.7 118.978 1309.98 Q118.978 1301.23 122.033 1296.64 Q125.112 1292.04 130.922 1292.04 Z" fill="#000000" fill-rule="evenodd" fill-opacity="1" /><path clip-path="url(#clip430)" d="M161.084 1295.74 Q157.473 1295.74 155.644 1299.31 Q153.839 1302.85 153.839 1309.98 Q153.839 1317.08 155.644 1320.65 Q157.473 1324.19 161.084 1324.19 Q164.718 1324.19 166.524 1320.65 Q168.353 1317.08 168.353 1309.98 Q168.353 1302.85 166.524 1299.31 Q164.718 1295.74 161.084 1295.74 M161.084 1292.04 Q166.894 1292.04 169.95 1296.64 Q173.029 1301.23 173.029 1309.98 Q173.029 1318.7 169.95 1323.31 Q166.894 1327.89 161.084 1327.89 Q155.274 1327.89 152.195 1323.31 Q149.14 1318.7 149.14 1309.98 Q149.14 1301.23 152.195 1296.64 Q155.274 1292.04 161.084 1292.04 Z" fill="#000000" fill-rule="evenodd" fill-opacity="1" /><path clip-path="url(#clip430)" d="M81.154 1038.85 L110.83 1038.85 L110.83 1042.78 L81.154 1042.78 L81.154 1038.85 Z" fill="#000000" fill-rule="evenodd" fill-opacity="1" /><path clip-path="url(#clip430)" d="M120.969 1021.11 L139.325 1021.11 L139.325 1025.05 L125.251 1025.05 L125.251 1033.52 Q126.27 1033.17 127.288 1033.01 Q128.307 1032.83 129.325 1032.83 Q135.112 1032.83 138.492 1036 Q141.871 1039.17 141.871 1044.59 Q141.871 1050.16 138.399 1053.27 Q134.927 1056.35 128.607 1056.35 Q126.432 1056.35 124.163 1055.97 Q121.918 1055.6 119.51 1054.86 L119.51 1050.16 Q121.594 1051.3 123.816 1051.85 Q126.038 1052.41 128.515 1052.41 Q132.519 1052.41 134.857 1050.3 Q137.195 1048.2 137.195 1044.59 Q137.195 1040.97 134.857 1038.87 Q132.519 1036.76 128.515 1036.76 Q126.64 1036.76 124.765 1037.18 Q122.913 1037.6 120.969 1038.47 L120.969 1021.11 Z" fill="#000000" fill-rule="evenodd" fill-opacity="1" /><path clip-path="url(#clip430)" d="M161.084 1024.19 Q157.473 1024.19 155.644 1027.76 Q153.839 1031.3 153.839 1038.43 Q153.839 1045.54 155.644 1049.1 Q157.473 1052.64 161.084 1052.64 Q164.718 1052.64 166.524 1049.1 Q168.353 1045.54 168.353 1038.43 Q168.353 1031.3 166.524 1027.76 Q164.718 1024.19 161.084 1024.19 M161.084 1020.49 Q166.894 1020.49 169.95 1025.1 Q173.029 1029.68 173.029 1038.43 Q173.029 1047.16 169.95 1051.76 Q166.894 1056.35 161.084 1056.35 Q155.274 1056.35 152.195 1051.76 Q149.14 1047.16 149.14 1038.43 Q149.14 1029.68 152.195 1025.1 Q155.274 1020.49 161.084 1020.49 Z" fill="#000000" fill-rule="evenodd" fill-opacity="1" /><path clip-path="url(#clip430)" d="M161.084 752.645 Q157.473 752.645 155.644 756.209 Q153.839 759.751 153.839 766.881 Q153.839 773.987 155.644 777.552 Q157.473 781.094 161.084 781.094 Q164.718 781.094 166.524 777.552 Q168.353 773.987 168.353 766.881 Q168.353 759.751 166.524 756.209 Q164.718 752.645 161.084 752.645 M161.084 748.941 Q166.894 748.941 169.95 753.547 Q173.029 758.131 173.029 766.881 Q173.029 775.608 169.95 780.214 Q166.894 784.797 161.084 784.797 Q155.274 784.797 152.195 780.214 Q149.14 775.608 149.14 766.881 Q149.14 758.131 152.195 753.547 Q155.274 748.941 161.084 748.941 Z" fill="#000000" fill-rule="evenodd" fill-opacity="1" /><path clip-path="url(#clip430)" d="M120.969 478.018 L139.325 478.018 L139.325 481.953 L125.251 481.953 L125.251 490.425 Q126.27 490.078 127.288 489.916 Q128.307 489.731 129.325 489.731 Q135.112 489.731 138.492 492.902 Q141.871 496.074 141.871 501.49 Q141.871 507.069 138.399 510.171 Q134.927 513.249 128.607 513.249 Q126.432 513.249 124.163 512.879 Q121.918 512.509 119.51 511.768 L119.51 507.069 Q121.594 508.203 123.816 508.759 Q126.038 509.314 128.515 509.314 Q132.519 509.314 134.857 507.208 Q137.195 505.101 137.195 501.49 Q137.195 497.879 134.857 495.773 Q132.519 493.666 128.515 493.666 Q126.64 493.666 124.765 494.083 Q122.913 494.499 120.969 495.379 L120.969 478.018 Z" fill="#000000" fill-rule="evenodd" fill-opacity="1" /><path clip-path="url(#clip430)" d="M161.084 481.097 Q157.473 481.097 155.644 484.662 Q153.839 488.203 153.839 495.333 Q153.839 502.439 155.644 506.004 Q157.473 509.546 161.084 509.546 Q164.718 509.546 166.524 506.004 Q168.353 502.439 168.353 495.333 Q168.353 488.203 166.524 484.662 Q164.718 481.097 161.084 481.097 M161.084 477.393 Q166.894 477.393 169.95 482 Q173.029 486.583 173.029 495.333 Q173.029 504.06 169.95 508.666 Q166.894 513.249 161.084 513.249 Q155.274 513.249 152.195 508.666 Q149.14 504.06 149.14 495.333 Q149.14 486.583 152.195 482 Q155.274 477.393 161.084 477.393 Z" fill="#000000" fill-rule="evenodd" fill-opacity="1" /><path clip-path="url(#clip430)" d="M91.5706 237.095 L99.2095 237.095 L99.2095 210.729 L90.8993 212.396 L90.8993 208.137 L99.1632 206.47 L103.839 206.47 L103.839 237.095 L111.478 237.095 L111.478 241.03 L91.5706 241.03 L91.5706 237.095 Z" fill="#000000" fill-rule="evenodd" fill-opacity="1" /><path clip-path="url(#clip430)" d="M130.922 209.549 Q127.311 209.549 125.482 213.114 Q123.677 216.655 123.677 223.785 Q123.677 230.891 125.482 234.456 Q127.311 237.998 130.922 237.998 Q134.556 237.998 136.362 234.456 Q138.191 230.891 138.191 223.785 Q138.191 216.655 136.362 213.114 Q134.556 209.549 130.922 209.549 M130.922 205.845 Q136.732 205.845 139.788 210.452 Q142.867 215.035 142.867 223.785 Q142.867 232.512 139.788 237.118 Q136.732 241.702 130.922 241.702 Q125.112 241.702 122.033 237.118 Q118.978 232.512 118.978 223.785 Q118.978 215.035 122.033 210.452 Q125.112 205.845 130.922 205.845 Z" fill="#000000" fill-rule="evenodd" fill-opacity="1" /><path clip-path="url(#clip430)" d="M161.084 209.549 Q157.473 209.549 155.644 213.114 Q153.839 216.655 153.839 223.785 Q153.839 230.891 155.644 234.456 Q157.473 237.998 161.084 237.998 Q164.718 237.998 166.524 234.456 Q168.353 230.891 168.353 223.785 Q168.353 216.655 166.524 213.114 Q164.718 209.549 161.084 209.549 M161.084 205.845 Q166.894 205.845 169.95 210.452 Q173.029 215.035 173.029 223.785 Q173.029 232.512 169.95 237.118 Q166.894 241.702 161.084 241.702 Q155.274 241.702 152.195 237.118 Q149.14 232.512 149.14 223.785 Q149.14 215.035 152.195 210.452 Q155.274 205.845 161.084 205.845 Z" fill="#000000" fill-rule="evenodd" fill-opacity="1" /><polyline clip-path="url(#clip432)" style="stroke:#009af9; stroke-linecap:butt; stroke-linejoin:round; stroke-width:4; stroke-opacity:1; fill:none" points="
  269.7,1445.72 310.973,1365.94 352.246,1292.66 393.519,1225.63 434.793,1164.54 476.066,1109.13 517.339,1059.13 558.612,1014.25 599.885,974.213 641.158,938.749 
  682.432,907.578 723.705,880.423 764.978,857.007 806.251,837.053 847.524,820.285 888.797,806.424 930.07,795.195 971.344,786.321 1012.62,779.523 1053.89,774.526 
  1095.16,771.053 1136.44,768.825 1177.71,767.567 1218.98,767.002 1260.26,766.852 1301.53,766.84 1342.8,766.69 1384.08,766.125 1425.35,764.867 1466.62,762.639 
  1507.89,759.166 1549.17,754.169 1590.44,747.371 1631.71,738.497 1672.99,727.268 1714.26,713.407 1755.53,696.639 1796.81,676.685 1838.08,653.269 1879.35,626.114 
  1920.63,594.943 1961.9,559.479 2003.17,519.444 2044.45,474.563 2085.72,424.558 2126.99,369.151 2168.26,308.067 2209.54,241.028 2250.81,167.756 2292.08,87.9763 
  
  "/>
<polyline clip-path="url(#clip432)" style="stroke:#e26f46; stroke-linecap:butt; stroke-linejoin:round; stroke-width:4; stroke-opacity:1; fill:none" points="
  269.7,631.072 310.973,641.929 352.246,652.334 393.519,662.287 434.793,671.787 476.066,680.835 517.339,689.431 558.612,697.574 599.885,705.264 641.158,712.502 
  682.432,719.288 723.705,725.622 764.978,731.503 806.251,736.932 847.524,741.908 888.797,746.432 930.07,750.503 971.344,754.122 1012.62,757.289 1053.89,760.004 
  1095.16,762.266 1136.44,764.075 1177.71,765.432 1218.98,766.337 1260.26,766.789 1301.53,766.789 1342.8,766.337 1384.08,765.432 1425.35,764.075 1466.62,762.266 
  1507.89,760.004 1549.17,757.289 1590.44,754.122 1631.71,750.503 1672.99,746.432 1714.26,741.908 1755.53,736.932 1796.81,731.503 1838.08,725.622 1879.35,719.288 
  1920.63,712.502 1961.9,705.264 2003.17,697.574 2044.45,689.431 2085.72,680.835 2126.99,671.787 2168.26,662.287 2209.54,652.334 2250.81,641.929 2292.08,631.072 
  
  "/>
<polyline clip-path="url(#clip432)" style="stroke:#3da44d; stroke-linecap:butt; stroke-linejoin:round; stroke-width:4; stroke-opacity:1; fill:none" points="
  269.7,780.423 310.973,779.869 352.246,779.315 393.519,778.761 434.793,778.207 476.066,777.652 517.339,777.098 558.612,776.544 599.885,775.99 641.158,775.436 
  682.432,774.882 723.705,774.327 764.978,773.773 806.251,773.219 847.524,772.665 888.797,772.111 930.07,771.557 971.344,771.002 1012.62,770.448 1053.89,769.894 
  1095.16,769.34 1136.44,768.786 1177.71,768.231 1218.98,767.677 1260.26,767.123 1301.53,766.569 1342.8,766.015 1384.08,765.461 1425.35,764.906 1466.62,764.352 
  1507.89,763.798 1549.17,763.244 1590.44,762.69 1631.71,762.135 1672.99,761.581 1714.26,761.027 1755.53,760.473 1796.81,759.919 1838.08,759.365 1879.35,758.81 
  1920.63,758.256 1961.9,757.702 2003.17,757.148 2044.45,756.594 2085.72,756.039 2126.99,755.485 2168.26,754.931 2209.54,754.377 2250.81,753.823 2292.08,753.269 
  
  "/>
<path clip-path="url(#clip430)" d="
M1990.1 302.578 L2281.3 302.578 L2281.3 95.2176 L1990.1 95.2176  Z
  " fill="#ffffff" fill-rule="evenodd" fill-opacity="1"/>
<polyline clip-path="url(#clip430)" style="stroke:#000000; stroke-linecap:butt; stroke-linejoin:round; stroke-width:4; stroke-opacity:1; fill:none" points="
  1990.1,302.578 2281.3,302.578 2281.3,95.2176 1990.1,95.2176 1990.1,302.578 
  "/>
<polyline clip-path="url(#clip430)" style="stroke:#009af9; stroke-linecap:butt; stroke-linejoin:round; stroke-width:4; stroke-opacity:1; fill:none" points="
  2013.92,147.058 2156.83,147.058 
  "/>
<path clip-path="url(#clip430)" d="M2194.49 166.745 Q2192.69 171.375 2190.97 172.787 Q2189.26 174.199 2186.39 174.199 L2182.99 174.199 L2182.99 170.634 L2185.49 170.634 Q2187.25 170.634 2188.22 169.8 Q2189.19 168.967 2190.37 165.865 L2191.14 163.921 L2180.65 138.412 L2185.16 138.412 L2193.27 158.689 L2201.37 138.412 L2205.88 138.412 L2194.49 166.745 Z" fill="#000000" fill-rule="evenodd" fill-opacity="1" /><path clip-path="url(#clip430)" d="M2213.17 160.402 L2220.81 160.402 L2220.81 134.037 L2212.5 135.703 L2212.5 131.444 L2220.77 129.778 L2225.44 129.778 L2225.44 160.402 L2233.08 160.402 L2233.08 164.338 L2213.17 164.338 L2213.17 160.402 Z" fill="#000000" fill-rule="evenodd" fill-opacity="1" /><polyline clip-path="url(#clip430)" style="stroke:#e26f46; stroke-linecap:butt; stroke-linejoin:round; stroke-width:4; stroke-opacity:1; fill:none" points="
  2013.92,198.898 2156.83,198.898 
  "/>
<path clip-path="url(#clip430)" d="M2194.49 218.585 Q2192.69 223.215 2190.97 224.627 Q2189.26 226.039 2186.39 226.039 L2182.99 226.039 L2182.99 222.474 L2185.49 222.474 Q2187.25 222.474 2188.22 221.64 Q2189.19 220.807 2190.37 217.705 L2191.14 215.761 L2180.65 190.252 L2185.16 190.252 L2193.27 210.529 L2201.37 190.252 L2205.88 190.252 L2194.49 218.585 Z" fill="#000000" fill-rule="evenodd" fill-opacity="1" /><path clip-path="url(#clip430)" d="M2216.39 212.242 L2232.71 212.242 L2232.71 216.178 L2210.77 216.178 L2210.77 212.242 Q2213.43 209.488 2218.01 204.858 Q2222.62 200.205 2223.8 198.863 Q2226.04 196.34 2226.92 194.604 Q2227.83 192.844 2227.83 191.155 Q2227.83 188.4 2225.88 186.664 Q2223.96 184.928 2220.86 184.928 Q2218.66 184.928 2216.21 185.692 Q2213.78 186.455 2211 188.006 L2211 183.284 Q2213.82 182.15 2216.28 181.571 Q2218.73 180.993 2220.77 180.993 Q2226.14 180.993 2229.33 183.678 Q2232.53 186.363 2232.53 190.854 Q2232.53 192.983 2231.72 194.905 Q2230.93 196.803 2228.82 199.395 Q2228.24 200.067 2225.14 203.284 Q2222.04 206.479 2216.39 212.242 Z" fill="#000000" fill-rule="evenodd" fill-opacity="1" /><polyline clip-path="url(#clip430)" style="stroke:#3da44d; stroke-linecap:butt; stroke-linejoin:round; stroke-width:4; stroke-opacity:1; fill:none" points="
  2013.92,250.738 2156.83,250.738 
  "/>
<path clip-path="url(#clip430)" d="M2194.49 270.425 Q2192.69 275.055 2190.97 276.467 Q2189.26 277.879 2186.39 277.879 L2182.99 277.879 L2182.99 274.314 L2185.49 274.314 Q2187.25 274.314 2188.22 273.48 Q2189.19 272.647 2190.37 269.545 L2191.14 267.601 L2180.65 242.092 L2185.16 242.092 L2193.27 262.369 L2201.37 242.092 L2205.88 242.092 L2194.49 270.425 Z" fill="#000000" fill-rule="evenodd" fill-opacity="1" /><path clip-path="url(#clip430)" d="M2226.53 249.383 Q2229.89 250.101 2231.76 252.369 Q2233.66 254.638 2233.66 257.971 Q2233.66 263.087 2230.14 265.888 Q2226.62 268.689 2220.14 268.689 Q2217.97 268.689 2215.65 268.249 Q2213.36 267.832 2210.91 266.976 L2210.91 262.462 Q2212.85 263.596 2215.16 264.175 Q2217.48 264.754 2220 264.754 Q2224.4 264.754 2226.69 263.018 Q2229.01 261.281 2229.01 257.971 Q2229.01 254.916 2226.85 253.203 Q2224.72 251.467 2220.91 251.467 L2216.88 251.467 L2216.88 247.624 L2221.09 247.624 Q2224.54 247.624 2226.37 246.258 Q2228.2 244.87 2228.2 242.277 Q2228.2 239.615 2226.3 238.203 Q2224.42 236.768 2220.91 236.768 Q2218.98 236.768 2216.79 237.184 Q2214.59 237.601 2211.95 238.481 L2211.95 234.314 Q2214.61 233.573 2216.92 233.203 Q2219.26 232.833 2221.32 232.833 Q2226.65 232.833 2229.75 235.263 Q2232.85 237.67 2232.85 241.791 Q2232.85 244.661 2231.21 246.652 Q2229.56 248.62 2226.53 249.383 Z" fill="#000000" fill-rule="evenodd" fill-opacity="1" /></svg>
