<?xml version="1.0" encoding="utf-8"?>
<svg xmlns="http://www.w3.org/2000/svg" xmlns:xlink="http://www.w3.org/1999/xlink" width="600" height="400" viewBox="0 0 2400 1600">
<defs>
  <clipPath id="clip910">
    <rect x="0" y="0" width="2400" height="1600"/>
  </clipPath>
</defs>
<path clip-path="url(#clip910)" d="
M0 1600 L2400 1600 L2400 0 L0 0  Z
  " fill="#ffffff" fill-rule="evenodd" fill-opacity="1"/>
<defs>
  <clipPath id="clip911">
    <rect x="480" y="0" width="1681" height="1600"/>
  </clipPath>
</defs>
<defs>
  <clipPath id="clip912">
    <rect x="387" y="47" width="1565" height="1303"/>
  </clipPath>
</defs>
<path clip-path="url(#clip910)" d="
M387.218 1349.74 L1576.35 1349.74 L1576.35 47.2441 L387.218 47.2441  Z
  " fill="#ffffff" fill-rule="evenodd" fill-opacity="1"/>
<defs>
  <clipPath id="clip913">
    <rect x="387" y="47" width="1190" height="1303"/>
  </clipPath>
</defs>
<polyline clip-path="url(#clip910)" style="stroke:#000000; stroke-linecap:butt; stroke-linejoin:round; stroke-width:4; stroke-opacity:1; fill:none" points="
  387.218,1349.74 1576.35,1349.74 
  "/>
<polyline clip-path="url(#clip910)" style="stroke:#000000; stroke-linecap:butt; stroke-linejoin:round; stroke-width:4; stroke-opacity:1; fill:none" points="
  420.872,1349.74 420.872,1330.84 
  "/>
<polyline clip-path="url(#clip910)" style="stroke:#000000; stroke-linecap:butt; stroke-linejoin:round; stroke-width:4; stroke-opacity:1; fill:none" points="
  700.479,1349.74 700.479,1330.84 
  "/>
<polyline clip-path="url(#clip910)" style="stroke:#000000; stroke-linecap:butt; stroke-linejoin:round; stroke-width:4; stroke-opacity:1; fill:none" points="
  980.086,1349.74 980.086,1330.84 
  "/>
<polyline clip-path="url(#clip910)" style="stroke:#000000; stroke-linecap:butt; stroke-linejoin:round; stroke-width:4; stroke-opacity:1; fill:none" points="
  1259.69,1349.74 1259.69,1330.84 
  "/>
<polyline clip-path="url(#clip910)" style="stroke:#000000; stroke-linecap:butt; stroke-linejoin:round; stroke-width:4; stroke-opacity:1; fill:none" points="
  1539.3,1349.74 1539.3,1330.84 
  "/>
<path clip-path="url(#clip910)" d="M369.987 1395.31 Q361.862 1395.31 357.748 1403.33 Q353.685 1411.3 353.685 1427.34 Q353.685 1443.33 357.748 1451.35 Q361.862 1459.32 369.987 1459.32 Q378.164 1459.32 382.227 1451.35 Q386.341 1443.33 386.341 1427.34 Q386.341 1411.3 382.227 1403.33 Q378.164 1395.31 369.987 1395.31 M369.987 1386.97 Q383.06 1386.97 389.935 1397.34 Q396.862 1407.65 396.862 1427.34 Q396.862 1446.97 389.935 1457.34 Q383.06 1467.65 369.987 1467.65 Q356.914 1467.65 349.987 1457.34 Q343.112 1446.97 343.112 1427.34 Q343.112 1407.65 349.987 1397.34 Q356.914 1386.97 369.987 1386.97 Z" fill="#000000" fill-rule="evenodd" fill-opacity="1" /><path clip-path="url(#clip910)" d="M415.352 1452.91 L426.341 1452.91 L426.341 1466.14 L415.352 1466.14 L415.352 1452.91 Z" fill="#000000" fill-rule="evenodd" fill-opacity="1" /><path clip-path="url(#clip910)" d="M471.758 1395.31 Q463.633 1395.31 459.518 1403.33 Q455.456 1411.3 455.456 1427.34 Q455.456 1443.33 459.518 1451.35 Q463.633 1459.32 471.758 1459.32 Q479.935 1459.32 483.997 1451.35 Q488.112 1443.33 488.112 1427.34 Q488.112 1411.3 483.997 1403.33 Q479.935 1395.31 471.758 1395.31 M471.758 1386.97 Q484.83 1386.97 491.705 1397.34 Q498.632 1407.65 498.632 1427.34 Q498.632 1446.97 491.705 1457.34 Q484.83 1467.65 471.758 1467.65 Q458.685 1467.65 451.758 1457.34 Q444.883 1446.97 444.883 1427.34 Q444.883 1407.65 451.758 1397.34 Q458.685 1386.97 471.758 1386.97 Z" fill="#000000" fill-rule="evenodd" fill-opacity="1" /><path clip-path="url(#clip910)" d="M650.714 1395.31 Q642.589 1395.31 638.475 1403.33 Q634.412 1411.3 634.412 1427.34 Q634.412 1443.33 638.475 1451.35 Q642.589 1459.32 650.714 1459.32 Q658.891 1459.32 662.954 1451.35 Q667.068 1443.33 667.068 1427.34 Q667.068 1411.3 662.954 1403.33 Q658.891 1395.31 650.714 1395.31 M650.714 1386.97 Q663.787 1386.97 670.662 1397.34 Q677.589 1407.65 677.589 1427.34 Q677.589 1446.97 670.662 1457.34 Q663.787 1467.65 650.714 1467.65 Q637.641 1467.65 630.714 1457.34 Q623.839 1446.97 623.839 1427.34 Q623.839 1407.65 630.714 1397.34 Q637.641 1386.97 650.714 1386.97 Z" fill="#000000" fill-rule="evenodd" fill-opacity="1" /><path clip-path="url(#clip910)" d="M696.078 1452.91 L707.068 1452.91 L707.068 1466.14 L696.078 1466.14 L696.078 1452.91 Z" fill="#000000" fill-rule="evenodd" fill-opacity="1" /><path clip-path="url(#clip910)" d="M730.089 1388.38 L771.39 1388.38 L771.39 1397.23 L739.724 1397.23 L739.724 1416.3 Q742.016 1415.52 744.307 1415.15 Q746.599 1414.73 748.891 1414.73 Q761.911 1414.73 769.515 1421.87 Q777.12 1429 777.12 1441.19 Q777.12 1453.74 769.307 1460.72 Q761.495 1467.65 747.276 1467.65 Q742.38 1467.65 737.276 1466.82 Q732.224 1465.98 726.807 1464.32 L726.807 1453.74 Q731.495 1456.3 736.495 1457.55 Q741.495 1458.8 747.068 1458.8 Q756.078 1458.8 761.338 1454.06 Q766.599 1449.32 766.599 1441.19 Q766.599 1433.07 761.338 1428.33 Q756.078 1423.59 747.068 1423.59 Q742.849 1423.59 738.63 1424.53 Q734.464 1425.46 730.089 1427.44 L730.089 1388.38 Z" fill="#000000" fill-rule="evenodd" fill-opacity="1" /><path clip-path="url(#clip910)" d="M906.181 1457.29 L923.368 1457.29 L923.368 1397.96 L904.67 1401.71 L904.67 1392.13 L923.264 1388.38 L933.785 1388.38 L933.785 1457.29 L950.972 1457.29 L950.972 1466.14 L906.181 1466.14 L906.181 1457.29 Z" fill="#000000" fill-rule="evenodd" fill-opacity="1" /><path clip-path="url(#clip910)" d="M972.222 1452.91 L983.211 1452.91 L983.211 1466.14 L972.222 1466.14 L972.222 1452.91 Z" fill="#000000" fill-rule="evenodd" fill-opacity="1" /><path clip-path="url(#clip910)" d="M1028.63 1395.31 Q1020.5 1395.31 1016.39 1403.33 Q1012.33 1411.3 1012.33 1427.34 Q1012.33 1443.33 1016.39 1451.35 Q1020.5 1459.32 1028.63 1459.32 Q1036.8 1459.32 1040.87 1451.35 Q1044.98 1443.33 1044.98 1427.34 Q1044.98 1411.3 1040.87 1403.33 Q1036.8 1395.31 1028.63 1395.31 M1028.63 1386.97 Q1041.7 1386.97 1048.58 1397.34 Q1055.5 1407.65 1055.5 1427.34 Q1055.5 1446.97 1048.58 1457.34 Q1041.7 1467.65 1028.63 1467.65 Q1015.55 1467.65 1008.63 1457.34 Q1001.75 1446.97 1001.75 1427.34 Q1001.75 1407.65 1008.63 1397.34 Q1015.55 1386.97 1028.63 1386.97 Z" fill="#000000" fill-rule="evenodd" fill-opacity="1" /><path clip-path="url(#clip910)" d="M1186.91 1457.29 L1204.09 1457.29 L1204.09 1397.96 L1185.4 1401.71 L1185.4 1392.13 L1203.99 1388.38 L1214.51 1388.38 L1214.51 1457.29 L1231.7 1457.29 L1231.7 1466.14 L1186.91 1466.14 L1186.91 1457.29 Z" fill="#000000" fill-rule="evenodd" fill-opacity="1" /><path clip-path="url(#clip910)" d="M1252.95 1452.91 L1263.94 1452.91 L1263.94 1466.14 L1252.95 1466.14 L1252.95 1452.91 Z" fill="#000000" fill-rule="evenodd" fill-opacity="1" /><path clip-path="url(#clip910)" d="M1286.96 1388.38 L1328.26 1388.38 L1328.26 1397.23 L1296.59 1397.23 L1296.59 1416.3 Q1298.89 1415.52 1301.18 1415.15 Q1303.47 1414.73 1305.76 1414.73 Q1318.78 1414.73 1326.39 1421.87 Q1333.99 1429 1333.99 1441.19 Q1333.99 1453.74 1326.18 1460.72 Q1318.36 1467.65 1304.15 1467.65 Q1299.25 1467.65 1294.15 1466.82 Q1289.09 1465.98 1283.68 1464.32 L1283.68 1453.74 Q1288.37 1456.3 1293.37 1457.55 Q1298.36 1458.8 1303.94 1458.8 Q1312.95 1458.8 1318.21 1454.06 Q1323.47 1449.32 1323.47 1441.19 Q1323.47 1433.07 1318.21 1428.33 Q1312.95 1423.59 1303.94 1423.59 Q1299.72 1423.59 1295.5 1424.53 Q1291.33 1425.46 1286.96 1427.44 L1286.96 1388.38 Z" fill="#000000" fill-rule="evenodd" fill-opacity="1" /><path clip-path="url(#clip910)" d="M1474.59 1457.29 L1511.31 1457.29 L1511.31 1466.14 L1461.93 1466.14 L1461.93 1457.29 Q1467.92 1451.09 1478.23 1440.67 Q1488.6 1430.2 1491.25 1427.18 Q1496.31 1421.5 1498.28 1417.6 Q1500.32 1413.64 1500.32 1409.84 Q1500.32 1403.64 1495.94 1399.73 Q1491.62 1395.83 1484.64 1395.83 Q1479.69 1395.83 1474.17 1397.55 Q1468.7 1399.27 1462.45 1402.75 L1462.45 1392.13 Q1468.81 1389.58 1474.33 1388.28 Q1479.85 1386.97 1484.43 1386.97 Q1496.51 1386.97 1503.7 1393.02 Q1510.89 1399.06 1510.89 1409.16 Q1510.89 1413.95 1509.07 1418.28 Q1507.3 1422.55 1502.56 1428.38 Q1501.25 1429.89 1494.27 1437.13 Q1487.3 1444.32 1474.59 1457.29 Z" fill="#000000" fill-rule="evenodd" fill-opacity="1" /><path clip-path="url(#clip910)" d="M1533.39 1452.91 L1544.38 1452.91 L1544.38 1466.14 L1533.39 1466.14 L1533.39 1452.91 Z" fill="#000000" fill-rule="evenodd" fill-opacity="1" /><path clip-path="url(#clip910)" d="M1589.79 1395.31 Q1581.67 1395.31 1577.56 1403.33 Q1573.49 1411.3 1573.49 1427.34 Q1573.49 1443.33 1577.56 1451.35 Q1581.67 1459.32 1589.79 1459.32 Q1597.97 1459.32 1602.03 1451.35 Q1606.15 1443.33 1606.15 1427.34 Q1606.15 1411.3 1602.03 1403.33 Q1597.97 1395.31 1589.79 1395.31 M1589.79 1386.97 Q1602.87 1386.97 1609.74 1397.34 Q1616.67 1407.65 1616.67 1427.34 Q1616.67 1446.97 1609.74 1457.34 Q1602.87 1467.65 1589.79 1467.65 Q1576.72 1467.65 1569.79 1457.34 Q1562.92 1446.97 1562.92 1427.34 Q1562.92 1407.65 1569.79 1397.34 Q1576.72 1386.97 1589.79 1386.97 Z" fill="#000000" fill-rule="evenodd" fill-opacity="1" /><path clip-path="url(#clip910)" d="M797.617 1520.8 L797.617 1537.36 L817.356 1537.36 L817.356 1544.81 L797.617 1544.81 L797.617 1576.47 Q797.617 1583.61 799.544 1585.64 Q801.523 1587.67 807.513 1587.67 L817.356 1587.67 L817.356 1595.69 L807.513 1595.69 Q796.419 1595.69 792.2 1591.58 Q787.982 1587.41 787.982 1576.47 L787.982 1544.81 L780.95 1544.81 L780.95 1537.36 L787.982 1537.36 L787.982 1520.8 L797.617 1520.8 Z" fill="#000000" fill-rule="evenodd" fill-opacity="1" /><path clip-path="url(#clip910)" d="M829.961 1537.36 L839.544 1537.36 L839.544 1595.69 L829.961 1595.69 L829.961 1537.36 M829.961 1514.65 L839.544 1514.65 L839.544 1526.79 L829.961 1526.79 L829.961 1514.65 Z" fill="#000000" fill-rule="evenodd" fill-opacity="1" /><path clip-path="url(#clip910)" d="M905.012 1548.56 Q908.606 1542.1 913.606 1539.03 Q918.606 1535.95 925.377 1535.95 Q934.491 1535.95 939.439 1542.36 Q944.387 1548.71 944.387 1560.48 L944.387 1595.69 L934.752 1595.69 L934.752 1560.8 Q934.752 1552.41 931.783 1548.35 Q928.814 1544.29 922.72 1544.29 Q915.273 1544.29 910.95 1549.23 Q906.627 1554.18 906.627 1562.72 L906.627 1595.69 L896.991 1595.69 L896.991 1560.8 Q896.991 1552.36 894.023 1548.35 Q891.054 1544.29 884.856 1544.29 Q877.512 1544.29 873.189 1549.29 Q868.867 1554.23 868.867 1562.72 L868.867 1595.69 L859.231 1595.69 L859.231 1537.36 L868.867 1537.36 L868.867 1546.42 Q872.148 1541.06 876.731 1538.5 Q881.314 1535.95 887.616 1535.95 Q893.971 1535.95 898.398 1539.18 Q902.877 1542.41 905.012 1548.56 Z" fill="#000000" fill-rule="evenodd" fill-opacity="1" /><path clip-path="url(#clip910)" d="M1013.4 1564.13 L1013.4 1568.82 L969.335 1568.82 Q969.96 1578.71 975.272 1583.92 Q980.637 1589.08 990.168 1589.08 Q995.689 1589.08 1000.85 1587.72 Q1006.05 1586.37 1011.16 1583.66 L1011.16 1592.72 Q1006 1594.91 1000.58 1596.06 Q995.168 1597.2 989.595 1597.2 Q975.637 1597.2 967.46 1589.08 Q959.335 1580.95 959.335 1567.1 Q959.335 1552.78 967.043 1544.39 Q974.804 1535.95 987.928 1535.95 Q999.699 1535.95 1006.52 1543.56 Q1013.4 1551.11 1013.4 1564.13 M1003.81 1561.32 Q1003.71 1553.45 999.387 1548.77 Q995.116 1544.08 988.033 1544.08 Q980.012 1544.08 975.168 1548.61 Q970.376 1553.14 969.647 1561.37 L1003.81 1561.32 Z" fill="#000000" fill-rule="evenodd" fill-opacity="1" /><path clip-path="url(#clip910)" d="M1086.05 1514.75 Q1079.07 1526.73 1075.69 1538.45 Q1072.3 1550.17 1072.3 1562.2 Q1072.3 1574.23 1075.69 1586.06 Q1079.13 1597.83 1086.05 1609.75 L1077.72 1609.75 Q1069.91 1597.51 1066 1585.69 Q1062.15 1573.87 1062.15 1562.2 Q1062.15 1550.59 1066 1538.82 Q1069.86 1527.05 1077.72 1514.75 L1086.05 1514.75 Z" fill="#000000" fill-rule="evenodd" fill-opacity="1" /><path clip-path="url(#clip910)" d="M1141.83 1539.08 L1141.83 1548.14 Q1137.77 1546.06 1133.4 1545.02 Q1129.02 1543.97 1124.33 1543.97 Q1117.2 1543.97 1113.6 1546.16 Q1110.06 1548.35 1110.06 1552.72 Q1110.06 1556.06 1112.62 1557.98 Q1115.17 1559.86 1122.88 1561.58 L1126.16 1562.31 Q1136.37 1564.49 1140.64 1568.5 Q1144.96 1572.46 1144.96 1579.6 Q1144.96 1587.72 1138.5 1592.46 Q1132.09 1597.2 1120.84 1597.2 Q1116.16 1597.2 1111.05 1596.26 Q1106 1595.38 1100.38 1593.56 L1100.38 1583.66 Q1105.69 1586.42 1110.84 1587.83 Q1116 1589.18 1121.05 1589.18 Q1127.82 1589.18 1131.47 1586.89 Q1135.12 1584.55 1135.12 1580.33 Q1135.12 1576.42 1132.46 1574.34 Q1129.85 1572.25 1120.95 1570.33 L1117.62 1569.55 Q1108.71 1567.67 1104.75 1563.82 Q1100.79 1559.91 1100.79 1553.14 Q1100.79 1544.91 1106.63 1540.43 Q1112.46 1535.95 1123.19 1535.95 Q1128.5 1535.95 1133.19 1536.73 Q1137.88 1537.52 1141.83 1539.08 Z" fill="#000000" fill-rule="evenodd" fill-opacity="1" /><path clip-path="url(#clip910)" d="M1158.71 1514.75 L1167.04 1514.75 Q1174.85 1527.05 1178.71 1538.82 Q1182.61 1550.59 1182.61 1562.2 Q1182.61 1573.87 1178.71 1585.69 Q1174.85 1597.51 1167.04 1609.75 L1158.71 1609.75 Q1165.64 1597.83 1169.02 1586.06 Q1172.46 1574.23 1172.46 1562.2 Q1172.46 1550.17 1169.02 1538.45 Q1165.64 1526.73 1158.71 1514.75 Z" fill="#000000" fill-rule="evenodd" fill-opacity="1" /><polyline clip-path="url(#clip910)" style="stroke:#000000; stroke-linecap:butt; stroke-linejoin:round; stroke-width:4; stroke-opacity:1; fill:none" points="
  387.218,1349.74 387.218,47.2441 
  "/>
<polyline clip-path="url(#clip910)" style="stroke:#000000; stroke-linecap:butt; stroke-linejoin:round; stroke-width:4; stroke-opacity:1; fill:none" points="
  387.218,1210.41 398.651,1210.41 
  "/>
<polyline clip-path="url(#clip910)" style="stroke:#000000; stroke-linecap:butt; stroke-linejoin:round; stroke-width:4; stroke-opacity:1; fill:none" points="
  387.218,1039.76 398.651,1039.76 
  "/>
<polyline clip-path="url(#clip910)" style="stroke:#000000; stroke-linecap:butt; stroke-linejoin:round; stroke-width:4; stroke-opacity:1; fill:none" points="
  387.218,869.121 398.651,869.121 
  "/>
<polyline clip-path="url(#clip910)" style="stroke:#000000; stroke-linecap:butt; stroke-linejoin:round; stroke-width:4; stroke-opacity:1; fill:none" points="
  387.218,698.477 398.651,698.477 
  "/>
<polyline clip-path="url(#clip910)" style="stroke:#000000; stroke-linecap:butt; stroke-linejoin:round; stroke-width:4; stroke-opacity:1; fill:none" points="
  387.218,527.833 398.651,527.833 
  "/>
<polyline clip-path="url(#clip910)" style="stroke:#000000; stroke-linecap:butt; stroke-linejoin:round; stroke-width:4; stroke-opacity:1; fill:none" points="
  387.218,357.189 398.651,357.189 
  "/>
<polyline clip-path="url(#clip910)" style="stroke:#000000; stroke-linecap:butt; stroke-linejoin:round; stroke-width:4; stroke-opacity:1; fill:none" points="
  387.218,186.545 398.651,186.545 
  "/>
<path clip-path="url(#clip910)" d="M146.74 1211.42 L213.51 1211.42 L213.51 1220.28 L146.74 1220.28 L146.74 1211.42 Z" fill="#000000" fill-rule="evenodd" fill-opacity="1" /><path clip-path="url(#clip910)" d="M238.041 1240.43 L255.229 1240.43 L255.229 1181.11 L236.531 1184.86 L236.531 1175.28 L255.125 1171.53 L265.645 1171.53 L265.645 1240.43 L282.833 1240.43 L282.833 1249.29 L238.041 1249.29 L238.041 1240.43 Z" fill="#000000" fill-rule="evenodd" fill-opacity="1" /><path clip-path="url(#clip910)" d="M304.187 1171.53 L345.489 1171.53 L345.489 1180.38 L313.822 1180.38 L313.822 1199.45 Q316.114 1198.66 318.405 1198.3 Q320.697 1197.88 322.989 1197.88 Q336.01 1197.88 343.614 1205.02 Q351.218 1212.15 351.218 1224.34 Q351.218 1236.89 343.405 1243.87 Q335.593 1250.8 321.374 1250.8 Q316.478 1250.8 311.374 1249.97 Q306.322 1249.13 300.906 1247.47 L300.906 1236.89 Q305.593 1239.45 310.593 1240.69 Q315.593 1241.94 321.166 1241.94 Q330.176 1241.94 335.437 1237.21 Q340.697 1232.47 340.697 1224.34 Q340.697 1216.22 335.437 1211.48 Q330.176 1206.74 321.166 1206.74 Q316.947 1206.74 312.728 1207.67 Q308.562 1208.61 304.187 1210.59 L304.187 1171.53 Z" fill="#000000" fill-rule="evenodd" fill-opacity="1" /><path clip-path="url(#clip910)" d="M144.5 1040.78 L211.271 1040.78 L211.271 1049.63 L144.5 1049.63 L144.5 1040.78 Z" fill="#000000" fill-rule="evenodd" fill-opacity="1" /><path clip-path="url(#clip910)" d="M235.802 1069.79 L252.989 1069.79 L252.989 1010.47 L234.291 1014.22 L234.291 1004.63 L252.885 1000.88 L263.406 1000.88 L263.406 1069.79 L280.593 1069.79 L280.593 1078.64 L235.802 1078.64 L235.802 1069.79 Z" fill="#000000" fill-rule="evenodd" fill-opacity="1" /><path clip-path="url(#clip910)" d="M324.343 1007.81 Q316.218 1007.81 312.103 1015.83 Q308.041 1023.8 308.041 1039.84 Q308.041 1055.83 312.103 1063.85 Q316.218 1071.82 324.343 1071.82 Q332.52 1071.82 336.582 1063.85 Q340.697 1055.83 340.697 1039.84 Q340.697 1023.8 336.582 1015.83 Q332.52 1007.81 324.343 1007.81 M324.343 999.479 Q337.416 999.479 344.291 1009.84 Q351.218 1020.16 351.218 1039.84 Q351.218 1059.48 344.291 1069.84 Q337.416 1080.16 324.343 1080.16 Q311.27 1080.16 304.343 1069.84 Q297.468 1059.48 297.468 1039.84 Q297.468 1020.16 304.343 1009.84 Q311.27 999.479 324.343 999.479 Z" fill="#000000" fill-rule="evenodd" fill-opacity="1" /><path clip-path="url(#clip910)" d="M214.604 870.137 L281.374 870.137 L281.374 878.991 L214.604 878.991 L214.604 870.137 Z" fill="#000000" fill-rule="evenodd" fill-opacity="1" /><path clip-path="url(#clip910)" d="M304.187 830.241 L345.489 830.241 L345.489 839.095 L313.822 839.095 L313.822 858.157 Q316.114 857.376 318.405 857.012 Q320.697 856.595 322.989 856.595 Q336.01 856.595 343.614 863.73 Q351.218 870.866 351.218 883.053 Q351.218 895.605 343.405 902.584 Q335.593 909.511 321.374 909.511 Q316.478 909.511 311.374 908.678 Q306.322 907.845 300.906 906.178 L300.906 895.605 Q305.593 898.157 310.593 899.407 Q315.593 900.657 321.166 900.657 Q330.176 900.657 335.437 895.918 Q340.697 891.178 340.697 883.053 Q340.697 874.928 335.437 870.189 Q330.176 865.449 321.166 865.449 Q316.947 865.449 312.728 866.387 Q308.562 867.324 304.187 869.303 L304.187 830.241 Z" fill="#000000" fill-rule="evenodd" fill-opacity="1" /><path clip-path="url(#clip910)" d="M324.343 666.524 Q316.218 666.524 312.103 674.545 Q308.041 682.514 308.041 698.555 Q308.041 714.545 312.103 722.565 Q316.218 730.534 324.343 730.534 Q332.52 730.534 336.582 722.565 Q340.697 714.545 340.697 698.555 Q340.697 682.514 336.582 674.545 Q332.52 666.524 324.343 666.524 M324.343 658.191 Q337.416 658.191 344.291 668.555 Q351.218 678.868 351.218 698.555 Q351.218 718.19 344.291 728.555 Q337.416 738.867 324.343 738.867 Q311.27 738.867 304.343 728.555 Q297.468 718.19 297.468 698.555 Q297.468 678.868 304.343 668.555 Q311.27 658.191 324.343 658.191 Z" fill="#000000" fill-rule="evenodd" fill-opacity="1" /><path clip-path="url(#clip910)" d="M304.187 488.953 L345.489 488.953 L345.489 497.807 L313.822 497.807 L313.822 516.87 Q316.114 516.088 318.405 515.724 Q320.697 515.307 322.989 515.307 Q336.01 515.307 343.614 522.443 Q351.218 529.578 351.218 541.765 Q351.218 554.317 343.405 561.297 Q335.593 568.224 321.374 568.224 Q316.478 568.224 311.374 567.39 Q306.322 566.557 300.906 564.89 L300.906 554.317 Q305.593 556.869 310.593 558.119 Q315.593 559.369 321.166 559.369 Q330.176 559.369 335.437 554.63 Q340.697 549.89 340.697 541.765 Q340.697 533.64 335.437 528.901 Q330.176 524.161 321.166 524.161 Q316.947 524.161 312.728 525.099 Q308.562 526.036 304.187 528.015 L304.187 488.953 Z" fill="#000000" fill-rule="evenodd" fill-opacity="1" /><path clip-path="url(#clip910)" d="M235.802 387.215 L252.989 387.215 L252.989 327.893 L234.291 331.643 L234.291 322.059 L252.885 318.309 L263.406 318.309 L263.406 387.215 L280.593 387.215 L280.593 396.069 L235.802 396.069 L235.802 387.215 Z" fill="#000000" fill-rule="evenodd" fill-opacity="1" /><path clip-path="url(#clip910)" d="M324.343 325.236 Q316.218 325.236 312.103 333.257 Q308.041 341.226 308.041 357.267 Q308.041 373.257 312.103 381.278 Q316.218 389.246 324.343 389.246 Q332.52 389.246 336.582 381.278 Q340.697 373.257 340.697 357.267 Q340.697 341.226 336.582 333.257 Q332.52 325.236 324.343 325.236 M324.343 316.903 Q337.416 316.903 344.291 327.268 Q351.218 337.58 351.218 357.267 Q351.218 376.903 344.291 387.267 Q337.416 397.58 324.343 397.58 Q311.27 397.58 304.343 387.267 Q297.468 376.903 297.468 357.267 Q297.468 337.58 304.343 327.268 Q311.27 316.903 324.343 316.903 Z" fill="#000000" fill-rule="evenodd" fill-opacity="1" /><path clip-path="url(#clip910)" d="M238.041 216.571 L255.229 216.571 L255.229 157.249 L236.531 160.999 L236.531 151.415 L255.125 147.665 L265.645 147.665 L265.645 216.571 L282.833 216.571 L282.833 225.425 L238.041 225.425 L238.041 216.571 Z" fill="#000000" fill-rule="evenodd" fill-opacity="1" /><path clip-path="url(#clip910)" d="M304.187 147.665 L345.489 147.665 L345.489 156.52 L313.822 156.52 L313.822 175.582 Q316.114 174.801 318.405 174.436 Q320.697 174.019 322.989 174.019 Q336.01 174.019 343.614 181.155 Q351.218 188.29 351.218 200.478 Q351.218 213.03 343.405 220.009 Q335.593 226.936 321.374 226.936 Q316.478 226.936 311.374 226.103 Q306.322 225.269 300.906 223.603 L300.906 213.03 Q305.593 215.582 310.593 216.832 Q315.593 218.082 321.166 218.082 Q330.176 218.082 335.437 213.342 Q340.697 208.603 340.697 200.478 Q340.697 192.353 335.437 187.613 Q330.176 182.874 321.166 182.874 Q316.947 182.874 312.728 183.811 Q308.562 184.749 304.187 186.728 L304.187 147.665 Z" fill="#000000" fill-rule="evenodd" fill-opacity="1" /><path clip-path="url(#clip910)" d="M48.845 833.464 Q57.6987 833.464 67.659 836.31 Q77.5667 839.103 85.5772 843.53 Q93.535 847.957 98.805 853.754 Q104.022 859.551 104.022 865.085 Q104.022 868.615 102.072 871.25 Q100.07 873.833 96.7497 875.256 Q93.3769 876.679 89.6879 877.364 Q85.9461 878.049 81.8882 878.049 Q75.8276 878.049 69.2401 876.731 Q62.5998 875.414 56.5919 873.2 Q50.5314 870.987 45.0505 867.878 Q39.517 864.768 35.5117 861.343 Q31.4538 857.865 29.0823 853.965 Q26.7108 850.065 26.7108 846.429 Q26.7108 843.794 27.8702 841.685 Q28.9769 839.525 30.9268 838.155 Q32.824 836.784 35.0901 835.836 Q37.3563 834.834 39.9913 834.36 Q42.5736 833.886 44.7343 833.675 Q46.8424 833.464 48.845 833.464 M42.152 840.579 Q39.4643 840.579 37.4617 840.79 Q35.4063 841 33.351 841.58 Q31.2957 842.16 30.189 843.425 Q29.0823 844.637 29.0823 846.534 Q29.0823 852.067 40.4129 858.286 Q43.9438 860.289 48.7396 862.081 Q53.5353 863.872 55.8014 864.505 Q58.0676 865.137 63.6538 866.613 L63.6538 844.057 Q49.2666 840.579 42.152 840.579 M67.0793 845.006 L67.0793 867.456 Q80.2545 870.934 88.4757 870.934 Q95.643 870.934 98.6469 869.459 Q101.598 867.93 101.598 865.085 Q101.598 861.817 98.3307 858.76 Q95.0106 855.704 89.0028 852.594 Q81.2031 848.484 67.0793 845.006 Z" fill="#000000" fill-rule="evenodd" fill-opacity="1" /><path clip-path="url(#clip910)" d="M21.8732 760.965 Q33.8523 767.944 45.571 771.33 Q57.2897 774.715 69.3209 774.715 Q81.3521 774.715 93.1749 771.33 Q104.946 767.892 116.873 760.965 L116.873 769.298 Q104.633 777.111 92.8103 781.017 Q80.9875 784.871 69.3209 784.871 Q57.7064 784.871 45.9356 781.017 Q34.1648 777.163 21.8732 769.298 L21.8732 760.965 Z" fill="#000000" fill-rule="evenodd" fill-opacity="1" /><path clip-path="url(#clip910)" d="M53.3314 703.986 L21.7691 703.986 L21.7691 694.403 L102.81 694.403 L102.81 703.986 L94.0603 703.986 Q99.2686 707.007 101.821 711.642 Q104.321 716.226 104.321 722.684 Q104.321 733.257 95.8832 739.923 Q87.4458 746.538 73.6959 746.538 Q59.9459 746.538 51.5085 739.923 Q43.071 733.257 43.071 722.684 Q43.071 716.226 45.6231 711.642 Q48.1231 707.007 53.3314 703.986 M73.6959 736.642 Q84.2687 736.642 90.3103 732.319 Q96.2999 727.944 96.2999 720.34 Q96.2999 712.736 90.3103 708.361 Q84.2687 703.986 73.6959 703.986 Q63.123 703.986 57.1334 708.361 Q51.0918 712.736 51.0918 720.34 Q51.0918 727.944 57.1334 732.319 Q63.123 736.642 73.6959 736.642 Z" fill="#000000" fill-rule="evenodd" fill-opacity="1" /><path clip-path="url(#clip910)" d="M71.248 624.768 L75.9354 624.768 L75.9354 668.83 Q85.8312 668.205 91.0395 662.893 Q96.1957 657.528 96.1957 647.997 Q96.1957 642.476 94.8416 637.32 Q93.4874 632.112 90.7791 627.007 L99.8415 627.007 Q102.029 632.164 103.175 637.58 Q104.321 642.997 104.321 648.57 Q104.321 662.528 96.1957 670.705 Q88.0708 678.83 74.2167 678.83 Q59.8938 678.83 51.5085 671.122 Q43.071 663.361 43.071 650.236 Q43.071 638.466 50.6751 631.643 Q58.2272 624.768 71.248 624.768 M68.4355 634.351 Q60.5709 634.455 55.8835 638.778 Q51.196 643.049 51.196 650.132 Q51.196 658.153 55.7272 662.997 Q60.2584 667.788 68.4875 668.518 L68.4355 634.351 Z" fill="#000000" fill-rule="evenodd" fill-opacity="1" /><path clip-path="url(#clip910)" d="M72.9667 570.654 Q62.5501 570.654 56.8209 574.976 Q51.0918 579.247 51.0918 587.008 Q51.0918 594.716 56.8209 599.039 Q62.5501 603.31 72.9667 603.31 Q83.3312 603.31 89.0604 599.039 Q94.7895 594.716 94.7895 587.008 Q94.7895 579.247 89.0604 574.976 Q83.3312 570.654 72.9667 570.654 M95.5707 561.07 Q110.466 561.07 117.706 567.685 Q124.998 574.299 124.998 587.945 Q124.998 592.997 124.216 597.476 Q123.487 601.955 121.925 606.174 L112.602 606.174 Q114.894 601.955 115.987 597.841 Q117.081 593.726 117.081 589.456 Q117.081 580.029 112.133 575.341 Q107.237 570.654 97.2895 570.654 L92.5499 570.654 Q97.7061 573.622 100.258 578.258 Q102.81 582.893 102.81 589.351 Q102.81 600.08 94.6332 606.643 Q86.4562 613.205 72.9667 613.205 Q59.4251 613.205 51.2481 606.643 Q43.071 600.08 43.071 589.351 Q43.071 582.893 45.6231 578.258 Q48.1752 573.622 53.3314 570.654 L44.4773 570.654 L44.4773 561.07 L95.5707 561.07 Z" fill="#000000" fill-rule="evenodd" fill-opacity="1" /><path clip-path="url(#clip910)" d="M21.8732 542.841 L21.8732 534.508 Q34.1648 526.695 45.9356 522.841 Q57.7064 518.935 69.3209 518.935 Q80.9875 518.935 92.8103 522.841 Q104.633 526.695 116.873 534.508 L116.873 542.841 Q104.946 535.914 93.1749 532.529 Q81.3521 529.091 69.3209 529.091 Q57.2897 529.091 45.571 532.529 Q33.8523 535.914 21.8732 542.841 Z" fill="#000000" fill-rule="evenodd" fill-opacity="1" /><polyline clip-path="url(#clip913)" style="stroke:#009af9; stroke-linecap:butt; stroke-linejoin:round; stroke-width:16; stroke-opacity:1; fill:none" points="
  420.872,84.1591 426.51,85.3635 432.147,88.9721 437.784,94.9713 443.422,103.338 449.059,114.041 454.696,127.039 460.333,142.283 465.971,159.714 471.608,179.266 
  477.245,200.864 482.883,224.423 488.52,249.854 494.157,277.058 499.794,305.928 505.432,336.353 511.069,368.213 516.706,401.383 522.344,435.734 527.981,471.128 
  533.618,507.427 539.255,544.485 544.893,582.156 550.53,620.292 556.167,658.74 561.805,697.346 567.442,735.956 573.079,774.417 578.716,812.575 584.354,850.277 
  589.991,887.375 595.628,923.723 601.266,959.175 606.903,993.591 612.54,1026.84 618.178,1058.78 623.815,1089.29 629.452,1118.25 635.089,1145.56 640.727,1171.09 
  646.364,1194.76 652.001,1216.48 657.639,1236.16 663.276,1253.72 668.913,1269.1 674.55,1282.23 680.188,1293.06 685.825,1301.57 691.462,1307.7 697.1,1311.45 
  702.737,1312.79 708.374,1311.73 714.011,1308.26 719.649,1302.41 725.286,1294.18 730.923,1283.61 736.561,1270.75 742.198,1255.63 747.835,1238.32 753.472,1218.89 
  759.11,1197.4 764.747,1173.96 770.384,1148.63 776.022,1121.53 781.659,1092.76 787.296,1062.43 792.933,1030.65 798.571,997.551 804.208,963.263 809.845,927.919 
  815.483,891.662 821.12,854.641 826.757,816.998 832.394,778.883 838.032,740.45 843.669,701.852 849.306,663.243 854.944,624.773 860.581,586.595 866.218,548.859 
  871.856,511.715 877.493,475.312 883.13,439.797 888.767,405.316 894.405,371.997 900.042,339.972 905.679,309.371 911.317,280.312 916.954,252.91 922.591,227.27 
  928.228,203.491 933.866,181.663 939.503,161.87 945.14,144.189 950.778,128.685 956.415,115.412 962.052,104.426 967.689,95.7715 973.327,89.485 978.964,85.5916 
  984.601,84.1072 990.239,85.0374 995.876,88.3779 1001.51,94.1147 1007.15,102.224 1012.79,112.67 1018.43,125.411 1024.06,140.397 1029.7,157.576 1035.34,176.882 
  1040.97,198.242 1046.61,221.576 1052.25,246.794 1057.89,273.801 1063.52,302.491 1069.16,332.751 1074.8,364.462 1080.44,397.495 1086.07,431.718 1091.71,467.001 
  1097.35,503.202 1102.98,540.176 1108.62,577.777 1114.26,615.859 1119.9,654.272 1125.53,692.866 1131.17,731.489 1136.81,769.988 1142.45,808.208 1148.08,845.993 
  1153.72,883.185 1159.36,919.631 1164.99,955.199 1170.63,989.748 1176.27,1023.14 1181.91,1055.24 1187.54,1085.92 1193.18,1115.07 1198.82,1142.56 1204.46,1168.31 
  1210.09,1192.2 1215.73,1214.14 1221.37,1234.05 1227,1251.86 1232.64,1267.5 1238.28,1280.91 1243.92,1292.03 1249.55,1300.82 1255.19,1307.24 1260.83,1311.26 
  1266.47,1312.88 1272.1,1312.08 1277.74,1308.87 1283.38,1303.26 1289.01,1295.28 1294.65,1284.96 1300.29,1272.35 1305.93,1257.48 1311.56,1240.43 1317.2,1221.24 
  1322.84,1200 1328.48,1176.77 1334.11,1151.66 1339.75,1124.74 1345.39,1096.14 1351.03,1065.96 1356.66,1034.32 1362.3,1001.35 1367.94,967.187 1373.57,931.956 
  1379.21,895.799 1384.85,858.859 1390.49,821.286 1396.12,783.226 1401.76,744.828 1407.4,706.243 1413.04,667.622 1418.67,629.115 1424.31,590.877 1429.95,553.06 
  1435.58,515.82 1441.22,479.312 1446.86,443.689 1452.5,409.078 1458.13,375.614 1463.77,343.433 1469.41,312.662 1475.05,283.423 1480.68,255.828 1486.32,229.985 
  1491.96,205.991 1497.59,183.939 1503.23,163.912 1508.87,145.99 1514.51,130.24 1520.14,116.724 1525.78,105.493 1531.42,96.5905 1537.06,90.0493 1542.69,85.8946 
  
  "/>
<polyline clip-path="url(#clip913)" style="stroke:#e26f46; stroke-linecap:butt; stroke-linejoin:round; stroke-width:16; stroke-opacity:1; fill:none" points="
  420.872,84.1591 426.51,85.3835 432.147,89.0519 437.784,95.1497 443.422,103.652 449.059,114.526 454.696,127.728 460.333,143.205 465.971,160.895 471.608,180.729 
  477.245,202.626 482.883,226.5 488.52,252.255 494.157,279.789 499.794,308.992 505.432,339.748 511.069,371.934 516.706,405.421 522.344,440.076 527.981,475.762 
  533.618,512.336 539.255,549.651 544.893,587.56 550.53,625.911 556.167,664.551 561.805,703.326 567.442,742.082 573.079,780.664 578.716,818.919 584.354,856.693 
  589.991,893.837 595.628,930.202 601.266,965.644 606.903,1000.02 612.54,1033.19 618.178,1065.03 623.815,1095.41 629.452,1124.21 635.089,1151.31 640.727,1176.6 
  646.364,1199.99 652.001,1221.38 657.639,1240.69 663.276,1257.83 668.913,1272.74 674.55,1285.37 680.188,1295.65 685.825,1303.56 691.462,1309.05 697.1,1312.11 
  702.737,1312.72 708.374,1310.88 714.011,1306.6 719.649,1299.9 725.286,1290.8 730.923,1279.34 736.561,1265.57 742.198,1249.53 747.835,1231.3 753.472,1210.94 
  759.11,1188.54 764.747,1164.19 770.384,1137.98 776.022,1110.02 781.659,1080.41 787.296,1049.29 792.933,1016.77 798.571,982.974 804.208,948.047 809.845,912.126 
  815.483,875.354 821.12,837.876 826.757,799.842 832.394,761.405 838.032,722.716 843.669,683.931 849.306,645.204 854.944,606.689 860.581,568.541 866.218,530.91 
  871.856,493.947 877.493,457.799 883.13,422.611 888.767,388.523 894.405,355.67 900.042,324.183 905.679,294.189 911.317,265.806 916.954,239.148 922.591,214.322 
  928.228,191.425 933.866,170.549 939.503,151.778 945.14,135.186 950.778,120.839 956.415,108.796 962.052,99.1023 967.689,91.7984 973.327,86.9129 978.964,84.4653 
  984.601,84.4653 990.239,86.9129 995.876,91.7984 1001.51,99.1023 1007.15,108.796 1012.79,120.839 1018.43,135.186 1024.06,151.778 1029.7,170.549 1035.34,191.425 
  1040.97,214.322 1046.61,239.148 1052.25,265.806 1057.89,294.189 1063.52,324.183 1069.16,355.67 1074.8,388.523 1080.44,422.611 1086.07,457.799 1091.71,493.947 
  1097.35,530.91 1102.98,568.541 1108.62,606.689 1114.26,645.204 1119.9,683.931 1125.53,722.716 1131.17,761.405 1136.81,799.842 1142.45,837.876 1148.08,875.354 
  1153.72,912.126 1159.36,948.047 1164.99,982.974 1170.63,1016.77 1176.27,1049.29 1181.91,1080.41 1187.54,1110.02 1193.18,1137.98 1198.82,1164.19 1204.46,1188.54 
  1210.09,1210.94 1215.73,1231.3 1221.37,1249.53 1227,1265.57 1232.64,1279.34 1238.28,1290.8 1243.92,1299.9 1249.55,1306.6 1255.19,1310.88 1260.83,1312.72 
  1266.47,1312.11 1272.1,1309.05 1277.74,1303.56 1283.38,1295.65 1289.01,1285.37 1294.65,1272.74 1300.29,1257.83 1305.93,1240.69 1311.56,1221.38 1317.2,1199.99 
  1322.84,1176.6 1328.48,1151.31 1334.11,1124.21 1339.75,1095.41 1345.39,1065.03 1351.03,1033.19 1356.66,1000.02 1362.3,965.644 1367.94,930.202 1373.57,893.837 
  1379.21,856.693 1384.85,818.919 1390.49,780.664 1396.12,742.082 1401.76,703.326 1407.4,664.551 1413.04,625.911 1418.67,587.56 1424.31,549.651 1429.95,512.336 
  1435.58,475.762 1441.22,440.076 1446.86,405.421 1452.5,371.934 1458.13,339.748 1463.77,308.992 1469.41,279.789 1475.05,252.255 1480.68,226.5 1486.32,202.626 
  1491.96,180.729 1497.59,160.895 1503.23,143.205 1508.87,127.728 1514.51,114.526 1520.14,103.652 1525.78,95.1497 1531.42,89.0519 1537.06,85.3835 1542.69,84.1591 
  
  "/>
<path clip-path="url(#clip910)" d="
M1641.87 440.581 L2352.76 440.581 L2352.76 90.6606 L1641.87 90.6606  Z
  " fill="#ffffff" fill-rule="evenodd" fill-opacity="1"/>
<polyline clip-path="url(#clip910)" style="stroke:#000000; stroke-linecap:butt; stroke-linejoin:round; stroke-width:4; stroke-opacity:1; fill:none" points="
  1641.87,440.581 2352.76,440.581 2352.76,90.6606 1641.87,90.6606 1641.87,440.581 
  "/>
<polyline clip-path="url(#clip910)" style="stroke:#009af9; stroke-linecap:butt; stroke-linejoin:round; stroke-width:9; stroke-opacity:1; fill:none" points="
  1663.7,207.301 1794.74,207.301 
  "/>
<path clip-path="url(#clip910)" d="M1865.43 210.972 L1865.43 246.181 L1855.85 246.181 L1855.85 211.285 Q1855.85 203.004 1852.62 198.889 Q1849.39 194.775 1842.93 194.775 Q1835.17 194.775 1830.69 199.723 Q1826.22 204.67 1826.22 213.212 L1826.22 246.181 L1816.58 246.181 L1816.58 187.848 L1826.22 187.848 L1826.22 196.91 Q1829.65 191.65 1834.29 189.046 Q1838.98 186.441 1845.07 186.441 Q1855.12 186.441 1860.28 192.691 Q1865.43 198.889 1865.43 210.972 Z" fill="#000000" fill-rule="evenodd" fill-opacity="1" /><path clip-path="url(#clip910)" d="M1907.15 194.566 Q1899.44 194.566 1894.96 200.608 Q1890.49 206.597 1890.49 217.066 Q1890.49 227.535 1894.91 233.577 Q1899.39 239.566 1907.15 239.566 Q1914.81 239.566 1919.29 233.524 Q1923.77 227.483 1923.77 217.066 Q1923.77 206.702 1919.29 200.66 Q1914.81 194.566 1907.15 194.566 M1907.15 186.441 Q1919.65 186.441 1926.79 194.566 Q1933.92 202.691 1933.92 217.066 Q1933.92 231.389 1926.79 239.566 Q1919.65 247.691 1907.15 247.691 Q1894.6 247.691 1887.46 239.566 Q1880.38 231.389 1880.38 217.066 Q1880.38 202.691 1887.46 194.566 Q1894.6 186.441 1907.15 186.441 Z" fill="#000000" fill-rule="evenodd" fill-opacity="1" /><path clip-path="url(#clip910)" d="M1998.3 210.972 L1998.3 246.181 L1988.71 246.181 L1988.71 211.285 Q1988.71 203.004 1985.49 198.889 Q1982.26 194.775 1975.8 194.775 Q1968.04 194.775 1963.56 199.723 Q1959.08 204.67 1959.08 213.212 L1959.08 246.181 L1949.44 246.181 L1949.44 187.848 L1959.08 187.848 L1959.08 196.91 Q1962.52 191.65 1967.15 189.046 Q1971.84 186.441 1977.93 186.441 Q1987.99 186.441 1993.14 192.691 Q1998.3 198.889 1998.3 210.972 Z" fill="#000000" fill-rule="evenodd" fill-opacity="1" /><path clip-path="url(#clip910)" d="M2017.41 165.139 L2027 165.139 L2027 246.181 L2017.41 246.181 L2017.41 165.139 Z" fill="#000000" fill-rule="evenodd" fill-opacity="1" /><path clip-path="url(#clip910)" d="M2047.05 187.848 L2056.63 187.848 L2056.63 246.181 L2047.05 246.181 L2047.05 187.848 M2047.05 165.139 L2056.63 165.139 L2056.63 177.275 L2047.05 177.275 L2047.05 165.139 Z" fill="#000000" fill-rule="evenodd" fill-opacity="1" /><path clip-path="url(#clip910)" d="M2125.17 210.972 L2125.17 246.181 L2115.59 246.181 L2115.59 211.285 Q2115.59 203.004 2112.36 198.889 Q2109.13 194.775 2102.67 194.775 Q2094.91 194.775 2090.43 199.723 Q2085.95 204.67 2085.95 213.212 L2085.95 246.181 L2076.32 246.181 L2076.32 187.848 L2085.95 187.848 L2085.95 196.91 Q2089.39 191.65 2094.03 189.046 Q2098.71 186.441 2104.81 186.441 Q2114.86 186.441 2120.02 192.691 Q2125.17 198.889 2125.17 210.972 Z" fill="#000000" fill-rule="evenodd" fill-opacity="1" /><path clip-path="url(#clip910)" d="M2194.18 214.618 L2194.18 219.306 L2150.12 219.306 Q2150.74 229.202 2156.06 234.41 Q2161.42 239.566 2170.95 239.566 Q2176.47 239.566 2181.63 238.212 Q2186.84 236.858 2191.94 234.149 L2191.94 243.212 Q2186.79 245.399 2181.37 246.545 Q2175.95 247.691 2170.38 247.691 Q2156.42 247.691 2148.24 239.566 Q2140.12 231.441 2140.12 217.587 Q2140.12 203.264 2147.83 194.879 Q2155.59 186.441 2168.71 186.441 Q2180.48 186.441 2187.31 194.045 Q2194.18 201.598 2194.18 214.618 M2184.6 211.806 Q2184.49 203.941 2180.17 199.254 Q2175.9 194.566 2168.82 194.566 Q2160.8 194.566 2155.95 199.098 Q2151.16 203.629 2150.43 211.858 L2184.6 211.806 Z" fill="#000000" fill-rule="evenodd" fill-opacity="1" /><path clip-path="url(#clip910)" d="M2236.42 216.858 Q2224.81 216.858 2220.33 219.514 Q2215.85 222.17 2215.85 228.577 Q2215.85 233.681 2219.18 236.702 Q2222.57 239.67 2228.35 239.67 Q2236.32 239.67 2241.11 234.045 Q2245.95 228.368 2245.95 218.993 L2245.95 216.858 L2236.42 216.858 M2255.54 212.9 L2255.54 246.181 L2245.95 246.181 L2245.95 237.327 Q2242.67 242.639 2237.78 245.191 Q2232.88 247.691 2225.8 247.691 Q2216.84 247.691 2211.53 242.691 Q2206.27 237.639 2206.27 229.202 Q2206.27 219.358 2212.83 214.358 Q2219.44 209.358 2232.52 209.358 L2245.95 209.358 L2245.95 208.42 Q2245.95 201.806 2241.58 198.212 Q2237.25 194.566 2229.39 194.566 Q2224.39 194.566 2219.65 195.764 Q2214.91 196.962 2210.54 199.358 L2210.54 190.504 Q2215.8 188.473 2220.74 187.483 Q2225.69 186.441 2230.38 186.441 Q2243.04 186.441 2249.29 193.004 Q2255.54 199.566 2255.54 212.9 Z" fill="#000000" fill-rule="evenodd" fill-opacity="1" /><path clip-path="url(#clip910)" d="M2309.08 196.806 Q2307.46 195.868 2305.54 195.452 Q2303.66 194.983 2301.37 194.983 Q2293.24 194.983 2288.87 200.295 Q2284.55 205.556 2284.55 215.452 L2284.55 246.181 L2274.91 246.181 L2274.91 187.848 L2284.55 187.848 L2284.55 196.91 Q2287.57 191.598 2292.41 189.046 Q2297.25 186.441 2304.18 186.441 Q2305.17 186.441 2306.37 186.598 Q2307.57 186.702 2309.03 186.962 L2309.08 196.806 Z" fill="#000000" fill-rule="evenodd" fill-opacity="1" /><polyline clip-path="url(#clip910)" style="stroke:#e26f46; stroke-linecap:butt; stroke-linejoin:round; stroke-width:9; stroke-opacity:1; fill:none" points="
  1663.7,323.941 1794.74,323.941 
  "/>
<path clip-path="url(#clip910)" d="M1816.58 281.779 L1826.16 281.779 L1826.16 362.821 L1816.58 362.821 L1816.58 281.779 Z" fill="#000000" fill-rule="evenodd" fill-opacity="1" /><path clip-path="url(#clip910)" d="M1846.22 304.488 L1855.8 304.488 L1855.8 362.821 L1846.22 362.821 L1846.22 304.488 M1846.22 281.779 L1855.8 281.779 L1855.8 293.915 L1846.22 293.915 L1846.22 281.779 Z" fill="#000000" fill-rule="evenodd" fill-opacity="1" /><path clip-path="url(#clip910)" d="M1924.34 327.612 L1924.34 362.821 L1914.76 362.821 L1914.76 327.925 Q1914.76 319.644 1911.53 315.529 Q1908.3 311.415 1901.84 311.415 Q1894.08 311.415 1889.6 316.363 Q1885.12 321.31 1885.12 329.852 L1885.12 362.821 L1875.49 362.821 L1875.49 304.488 L1885.12 304.488 L1885.12 313.55 Q1888.56 308.29 1893.19 305.686 Q1897.88 303.081 1903.98 303.081 Q1914.03 303.081 1919.18 309.331 Q1924.34 315.529 1924.34 327.612 Z" fill="#000000" fill-rule="evenodd" fill-opacity="1" /><path clip-path="url(#clip910)" d="M1993.35 331.258 L1993.35 335.946 L1949.29 335.946 Q1949.91 345.842 1955.23 351.05 Q1960.59 356.206 1970.12 356.206 Q1975.64 356.206 1980.8 354.852 Q1986.01 353.498 1991.11 350.789 L1991.11 359.852 Q1985.95 362.039 1980.54 363.185 Q1975.12 364.331 1969.55 364.331 Q1955.59 364.331 1947.41 356.206 Q1939.29 348.081 1939.29 334.227 Q1939.29 319.904 1947 311.519 Q1954.76 303.081 1967.88 303.081 Q1979.65 303.081 1986.47 310.685 Q1993.35 318.238 1993.35 331.258 M1983.77 328.446 Q1983.66 320.581 1979.34 315.894 Q1975.07 311.206 1967.99 311.206 Q1959.96 311.206 1955.12 315.738 Q1950.33 320.269 1949.6 328.498 L1983.77 328.446 Z" fill="#000000" fill-rule="evenodd" fill-opacity="1" /><path clip-path="url(#clip910)" d="M2035.59 333.498 Q2023.97 333.498 2019.5 336.154 Q2015.02 338.81 2015.02 345.217 Q2015.02 350.321 2018.35 353.342 Q2021.74 356.31 2027.52 356.31 Q2035.48 356.31 2040.28 350.685 Q2045.12 345.008 2045.12 335.633 L2045.12 333.498 L2035.59 333.498 M2054.7 329.54 L2054.7 362.821 L2045.12 362.821 L2045.12 353.967 Q2041.84 359.279 2036.94 361.831 Q2032.05 364.331 2024.96 364.331 Q2016.01 364.331 2010.69 359.331 Q2005.43 354.279 2005.43 345.842 Q2005.43 335.998 2012 330.998 Q2018.61 325.998 2031.68 325.998 L2045.12 325.998 L2045.12 325.06 Q2045.12 318.446 2040.75 314.852 Q2036.42 311.206 2028.56 311.206 Q2023.56 311.206 2018.82 312.404 Q2014.08 313.602 2009.7 315.998 L2009.7 307.144 Q2014.96 305.113 2019.91 304.123 Q2024.86 303.081 2029.55 303.081 Q2042.2 303.081 2048.45 309.644 Q2054.7 316.206 2054.7 329.54 Z" fill="#000000" fill-rule="evenodd" fill-opacity="1" /><path clip-path="url(#clip910)" d="M2108.25 313.446 Q2106.63 312.508 2104.7 312.092 Q2102.83 311.623 2100.54 311.623 Q2092.41 311.623 2088.04 316.935 Q2083.71 322.196 2083.71 332.092 L2083.71 362.821 L2074.08 362.821 L2074.08 304.488 L2083.71 304.488 L2083.71 313.55 Q2086.73 308.238 2091.58 305.686 Q2096.42 303.081 2103.35 303.081 Q2104.34 303.081 2105.54 303.238 Q2106.73 303.342 2108.19 303.602 L2108.25 313.446 Z" fill="#000000" fill-rule="evenodd" fill-opacity="1" /></svg>
