<?xml version="1.0" encoding="utf-8"?>
<svg xmlns="http://www.w3.org/2000/svg" xmlns:xlink="http://www.w3.org/1999/xlink" width="600" height="400" viewBox="0 0 2400 1600">
<defs>
  <clipPath id="clip040">
    <rect x="0" y="0" width="2400" height="1600"/>
  </clipPath>
</defs>
<path clip-path="url(#clip040)" d="
M0 1600 L2400 1600 L2400 0 L0 0  Z
  " fill="#ffffff" fill-rule="evenodd" fill-opacity="1"/>
<defs>
  <clipPath id="clip041">
    <rect x="480" y="0" width="1681" height="1600"/>
  </clipPath>
</defs>
<path clip-path="url(#clip040)" d="
M327.616 643.248 L1893.62 643.248 L1893.62 47.2441 L327.616 47.2441  Z
  " fill="#ffffff" fill-rule="evenodd" fill-opacity="1"/>
<defs>
  <clipPath id="clip042">
    <rect x="327" y="47" width="1567" height="597"/>
  </clipPath>
</defs>
<polyline clip-path="url(#clip040)" style="stroke:#000000; stroke-linecap:butt; stroke-linejoin:round; stroke-width:4; stroke-opacity:1; fill:none" points="
  327.616,643.248 1893.62,643.248 
  "/>
<polyline clip-path="url(#clip040)" style="stroke:#000000; stroke-linecap:butt; stroke-linejoin:round; stroke-width:4; stroke-opacity:1; fill:none" points="
  371.937,643.248 371.937,624.35 
  "/>
<polyline clip-path="url(#clip040)" style="stroke:#000000; stroke-linecap:butt; stroke-linejoin:round; stroke-width:4; stroke-opacity:1; fill:none" points="
  607.067,643.248 607.067,624.35 
  "/>
<polyline clip-path="url(#clip040)" style="stroke:#000000; stroke-linecap:butt; stroke-linejoin:round; stroke-width:4; stroke-opacity:1; fill:none" points="
  842.196,643.248 842.196,624.35 
  "/>
<polyline clip-path="url(#clip040)" style="stroke:#000000; stroke-linecap:butt; stroke-linejoin:round; stroke-width:4; stroke-opacity:1; fill:none" points="
  1077.33,643.248 1077.33,624.35 
  "/>
<polyline clip-path="url(#clip040)" style="stroke:#000000; stroke-linecap:butt; stroke-linejoin:round; stroke-width:4; stroke-opacity:1; fill:none" points="
  1312.46,643.248 1312.46,624.35 
  "/>
<polyline clip-path="url(#clip040)" style="stroke:#000000; stroke-linecap:butt; stroke-linejoin:round; stroke-width:4; stroke-opacity:1; fill:none" points="
  1547.59,643.248 1547.59,624.35 
  "/>
<polyline clip-path="url(#clip040)" style="stroke:#000000; stroke-linecap:butt; stroke-linejoin:round; stroke-width:4; stroke-opacity:1; fill:none" points="
  1782.72,643.248 1782.72,624.35 
  "/>
<path clip-path="url(#clip040)" d="M371.937 688.815 Q363.812 688.815 359.697 696.836 Q355.635 704.804 355.635 720.846 Q355.635 736.835 359.697 744.856 Q363.812 752.825 371.937 752.825 Q380.114 752.825 384.176 744.856 Q388.291 736.835 388.291 720.846 Q388.291 704.804 384.176 696.836 Q380.114 688.815 371.937 688.815 M371.937 680.482 Q385.01 680.482 391.885 690.846 Q398.812 701.159 398.812 720.846 Q398.812 740.481 391.885 750.846 Q385.01 761.158 371.937 761.158 Q358.864 761.158 351.937 750.846 Q345.062 740.481 345.062 720.846 Q345.062 701.159 351.937 690.846 Q358.864 680.482 371.937 680.482 Z" fill="#000000" fill-rule="evenodd" fill-opacity="1" /><path clip-path="url(#clip040)" d="M585.426 750.794 L602.613 750.794 L602.613 691.471 L583.916 695.221 L583.916 685.638 L602.509 681.888 L613.03 681.888 L613.03 750.794 L630.218 750.794 L630.218 759.648 L585.426 759.648 L585.426 750.794 Z" fill="#000000" fill-rule="evenodd" fill-opacity="1" /><path clip-path="url(#clip040)" d="M830.165 750.794 L866.884 750.794 L866.884 759.648 L817.509 759.648 L817.509 750.794 Q823.499 744.596 833.811 734.179 Q844.176 723.711 846.832 720.69 Q851.884 715.013 853.863 711.106 Q855.894 707.148 855.894 703.346 Q855.894 697.148 851.519 693.242 Q847.196 689.336 840.217 689.336 Q835.269 689.336 829.749 691.054 Q824.28 692.773 818.03 696.263 L818.03 685.638 Q824.384 683.086 829.905 681.784 Q835.426 680.482 840.009 680.482 Q852.092 680.482 859.28 686.523 Q866.467 692.565 866.467 702.669 Q866.467 707.461 864.644 711.784 Q862.873 716.054 858.134 721.888 Q856.832 723.398 849.853 730.638 Q842.874 737.825 830.165 750.794 Z" fill="#000000" fill-rule="evenodd" fill-opacity="1" /><path clip-path="url(#clip040)" d="M1086.88 717.721 Q1094.44 719.336 1098.65 724.44 Q1102.93 729.544 1102.93 737.044 Q1102.93 748.554 1095.01 754.856 Q1087.09 761.158 1072.51 761.158 Q1067.61 761.158 1062.4 760.169 Q1057.25 759.231 1051.73 757.304 L1051.73 747.148 Q1056.1 749.7 1061.31 751.002 Q1066.52 752.304 1072.2 752.304 Q1082.09 752.304 1087.25 748.398 Q1092.46 744.492 1092.46 737.044 Q1092.46 730.169 1087.61 726.315 Q1082.82 722.408 1074.23 722.408 L1065.16 722.408 L1065.16 713.763 L1074.64 713.763 Q1082.4 713.763 1086.52 710.69 Q1090.63 707.565 1090.63 701.732 Q1090.63 695.742 1086.36 692.565 Q1082.14 689.336 1074.23 689.336 Q1069.9 689.336 1064.96 690.273 Q1060.01 691.211 1054.07 693.19 L1054.07 683.815 Q1060.06 682.148 1065.27 681.315 Q1070.53 680.482 1075.16 680.482 Q1087.14 680.482 1094.12 685.95 Q1101.1 691.367 1101.1 700.638 Q1101.1 707.096 1097.4 711.575 Q1093.71 716.002 1086.88 717.721 Z" fill="#000000" fill-rule="evenodd" fill-opacity="1" /><path clip-path="url(#clip040)" d="M1319.23 691.054 L1292.66 732.565 L1319.23 732.565 L1319.23 691.054 M1316.47 681.888 L1329.7 681.888 L1329.7 732.565 L1340.79 732.565 L1340.79 741.315 L1329.7 741.315 L1329.7 759.648 L1319.23 759.648 L1319.23 741.315 L1284.12 741.315 L1284.12 731.158 L1316.47 681.888 Z" fill="#000000" fill-rule="evenodd" fill-opacity="1" /><path clip-path="url(#clip040)" d="M1525.71 681.888 L1567.01 681.888 L1567.01 690.742 L1535.35 690.742 L1535.35 709.804 Q1537.64 709.023 1539.93 708.659 Q1542.22 708.242 1544.51 708.242 Q1557.53 708.242 1565.14 715.377 Q1572.74 722.513 1572.74 734.7 Q1572.74 747.252 1564.93 754.231 Q1557.12 761.158 1542.9 761.158 Q1538 761.158 1532.9 760.325 Q1527.85 759.492 1522.43 757.825 L1522.43 747.252 Q1527.12 749.804 1532.12 751.054 Q1537.12 752.304 1542.69 752.304 Q1551.7 752.304 1556.96 747.565 Q1562.22 742.825 1562.22 734.7 Q1562.22 726.575 1556.96 721.836 Q1551.7 717.096 1542.69 717.096 Q1538.47 717.096 1534.25 718.034 Q1530.09 718.971 1525.71 720.95 L1525.71 681.888 Z" fill="#000000" fill-rule="evenodd" fill-opacity="1" /><path clip-path="url(#clip040)" d="M1783.63 716.575 Q1776.54 716.575 1772.38 721.419 Q1768.26 726.263 1768.26 734.7 Q1768.26 743.085 1772.38 747.981 Q1776.54 752.825 1783.63 752.825 Q1790.71 752.825 1794.83 747.981 Q1798.99 743.085 1798.99 734.7 Q1798.99 726.263 1794.83 721.419 Q1790.71 716.575 1783.63 716.575 M1804.51 683.607 L1804.51 693.19 Q1800.55 691.315 1796.49 690.325 Q1792.48 689.336 1788.52 689.336 Q1778.11 689.336 1772.59 696.367 Q1767.12 703.398 1766.34 717.617 Q1769.41 713.086 1774.04 710.69 Q1778.68 708.242 1784.25 708.242 Q1795.97 708.242 1802.74 715.377 Q1809.56 722.461 1809.56 734.7 Q1809.56 746.679 1802.48 753.919 Q1795.4 761.158 1783.63 761.158 Q1770.14 761.158 1763 750.846 Q1755.87 740.481 1755.87 720.846 Q1755.87 702.409 1764.62 691.471 Q1773.37 680.482 1788.11 680.482 Q1792.06 680.482 1796.08 681.263 Q1800.14 682.044 1804.51 683.607 Z" fill="#000000" fill-rule="evenodd" fill-opacity="1" /><polyline clip-path="url(#clip040)" style="stroke:#000000; stroke-linecap:butt; stroke-linejoin:round; stroke-width:4; stroke-opacity:1; fill:none" points="
  327.616,643.248 327.616,47.2441 
  "/>
<polyline clip-path="url(#clip040)" style="stroke:#000000; stroke-linecap:butt; stroke-linejoin:round; stroke-width:4; stroke-opacity:1; fill:none" points="
  327.616,626.381 342.229,626.381 
  "/>
<polyline clip-path="url(#clip040)" style="stroke:#000000; stroke-linecap:butt; stroke-linejoin:round; stroke-width:4; stroke-opacity:1; fill:none" points="
  327.616,485.813 342.229,485.813 
  "/>
<polyline clip-path="url(#clip040)" style="stroke:#000000; stroke-linecap:butt; stroke-linejoin:round; stroke-width:4; stroke-opacity:1; fill:none" points="
  327.616,345.246 342.229,345.246 
  "/>
<polyline clip-path="url(#clip040)" style="stroke:#000000; stroke-linecap:butt; stroke-linejoin:round; stroke-width:4; stroke-opacity:1; fill:none" points="
  327.616,204.679 342.229,204.679 
  "/>
<polyline clip-path="url(#clip040)" style="stroke:#000000; stroke-linecap:butt; stroke-linejoin:round; stroke-width:4; stroke-opacity:1; fill:none" points="
  327.616,64.1112 342.229,64.1112 
  "/>
<path clip-path="url(#clip040)" d="M50.9921 627.396 L117.763 627.396 L117.763 636.251 L50.9921 636.251 L50.9921 627.396 Z" fill="#000000" fill-rule="evenodd" fill-opacity="1" /><path clip-path="url(#clip040)" d="M142.294 656.407 L159.481 656.407 L159.481 597.084 L140.783 600.834 L140.783 591.251 L159.377 587.501 L169.898 587.501 L169.898 656.407 L187.085 656.407 L187.085 665.261 L142.294 665.261 L142.294 656.407 Z" fill="#000000" fill-rule="evenodd" fill-opacity="1" /><path clip-path="url(#clip040)" d="M208.335 652.032 L219.325 652.032 L219.325 665.261 L208.335 665.261 L208.335 652.032 Z" fill="#000000" fill-rule="evenodd" fill-opacity="1" /><path clip-path="url(#clip040)" d="M264.741 594.428 Q256.616 594.428 252.501 602.449 Q248.439 610.417 248.439 626.459 Q248.439 642.448 252.501 650.469 Q256.616 658.438 264.741 658.438 Q272.918 658.438 276.98 650.469 Q281.095 642.448 281.095 626.459 Q281.095 610.417 276.98 602.449 Q272.918 594.428 264.741 594.428 M264.741 586.095 Q277.814 586.095 284.689 596.459 Q291.616 606.772 291.616 626.459 Q291.616 646.094 284.689 656.459 Q277.814 666.771 264.741 666.771 Q251.668 666.771 244.741 656.459 Q237.866 646.094 237.866 626.459 Q237.866 606.772 244.741 596.459 Q251.668 586.095 264.741 586.095 Z" fill="#000000" fill-rule="evenodd" fill-opacity="1" /><path clip-path="url(#clip040)" d="M53.2317 486.829 L120.002 486.829 L120.002 495.683 L53.2317 495.683 L53.2317 486.829 Z" fill="#000000" fill-rule="evenodd" fill-opacity="1" /><path clip-path="url(#clip040)" d="M165.21 453.86 Q157.085 453.86 152.971 461.881 Q148.908 469.85 148.908 485.892 Q148.908 501.881 152.971 509.902 Q157.085 517.871 165.21 517.871 Q173.387 517.871 177.45 509.902 Q181.564 501.881 181.564 485.892 Q181.564 469.85 177.45 461.881 Q173.387 453.86 165.21 453.86 M165.21 445.527 Q178.283 445.527 185.158 455.892 Q192.085 466.204 192.085 485.892 Q192.085 505.527 185.158 515.891 Q178.283 526.204 165.21 526.204 Q152.137 526.204 145.21 515.891 Q138.335 505.527 138.335 485.892 Q138.335 466.204 145.21 455.892 Q152.137 445.527 165.21 445.527 Z" fill="#000000" fill-rule="evenodd" fill-opacity="1" /><path clip-path="url(#clip040)" d="M210.575 511.464 L221.564 511.464 L221.564 524.693 L210.575 524.693 L210.575 511.464 Z" fill="#000000" fill-rule="evenodd" fill-opacity="1" /><path clip-path="url(#clip040)" d="M244.585 446.933 L285.887 446.933 L285.887 455.788 L254.22 455.788 L254.22 474.85 Q256.512 474.069 258.804 473.704 Q261.095 473.287 263.387 473.287 Q276.408 473.287 284.012 480.423 Q291.616 487.558 291.616 499.746 Q291.616 512.298 283.803 519.277 Q275.991 526.204 261.772 526.204 Q256.876 526.204 251.772 525.371 Q246.72 524.537 241.304 522.871 L241.304 512.298 Q245.991 514.85 250.991 516.1 Q255.991 517.35 261.564 517.35 Q270.574 517.35 275.835 512.61 Q281.095 507.871 281.095 499.746 Q281.095 491.621 275.835 486.881 Q270.574 482.142 261.564 482.142 Q257.345 482.142 253.126 483.079 Q248.96 484.017 244.585 485.996 L244.585 446.933 Z" fill="#000000" fill-rule="evenodd" fill-opacity="1" /><path clip-path="url(#clip040)" d="M162.971 313.293 Q154.846 313.293 150.731 321.314 Q146.669 329.283 146.669 345.324 Q146.669 361.314 150.731 369.334 Q154.846 377.303 162.971 377.303 Q171.148 377.303 175.21 369.334 Q179.325 361.314 179.325 345.324 Q179.325 329.283 175.21 321.314 Q171.148 313.293 162.971 313.293 M162.971 304.96 Q176.044 304.96 182.919 315.324 Q189.846 325.637 189.846 345.324 Q189.846 364.959 182.919 375.324 Q176.044 385.636 162.971 385.636 Q149.898 385.636 142.971 375.324 Q136.096 364.959 136.096 345.324 Q136.096 325.637 142.971 315.324 Q149.898 304.96 162.971 304.96 Z" fill="#000000" fill-rule="evenodd" fill-opacity="1" /><path clip-path="url(#clip040)" d="M208.335 370.897 L219.325 370.897 L219.325 384.126 L208.335 384.126 L208.335 370.897 Z" fill="#000000" fill-rule="evenodd" fill-opacity="1" /><path clip-path="url(#clip040)" d="M264.741 313.293 Q256.616 313.293 252.501 321.314 Q248.439 329.283 248.439 345.324 Q248.439 361.314 252.501 369.334 Q256.616 377.303 264.741 377.303 Q272.918 377.303 276.98 369.334 Q281.095 361.314 281.095 345.324 Q281.095 329.283 276.98 321.314 Q272.918 313.293 264.741 313.293 M264.741 304.96 Q277.814 304.96 284.689 315.324 Q291.616 325.637 291.616 345.324 Q291.616 364.959 284.689 375.324 Q277.814 385.636 264.741 385.636 Q251.668 385.636 244.741 375.324 Q237.866 364.959 237.866 345.324 Q237.866 325.637 244.741 315.324 Q251.668 304.96 264.741 304.96 Z" fill="#000000" fill-rule="evenodd" fill-opacity="1" /><path clip-path="url(#clip040)" d="M165.21 172.726 Q157.085 172.726 152.971 180.746 Q148.908 188.715 148.908 204.757 Q148.908 220.746 152.971 228.767 Q157.085 236.736 165.21 236.736 Q173.387 236.736 177.45 228.767 Q181.564 220.746 181.564 204.757 Q181.564 188.715 177.45 180.746 Q173.387 172.726 165.21 172.726 M165.21 164.392 Q178.283 164.392 185.158 174.757 Q192.085 185.069 192.085 204.757 Q192.085 224.392 185.158 234.757 Q178.283 245.069 165.21 245.069 Q152.137 245.069 145.21 234.757 Q138.335 224.392 138.335 204.757 Q138.335 185.069 145.21 174.757 Q152.137 164.392 165.21 164.392 Z" fill="#000000" fill-rule="evenodd" fill-opacity="1" /><path clip-path="url(#clip040)" d="M210.575 230.33 L221.564 230.33 L221.564 243.559 L210.575 243.559 L210.575 230.33 Z" fill="#000000" fill-rule="evenodd" fill-opacity="1" /><path clip-path="url(#clip040)" d="M244.585 165.799 L285.887 165.799 L285.887 174.653 L254.22 174.653 L254.22 193.715 Q256.512 192.934 258.804 192.569 Q261.095 192.153 263.387 192.153 Q276.408 192.153 284.012 199.288 Q291.616 206.423 291.616 218.611 Q291.616 231.163 283.803 238.142 Q275.991 245.069 261.772 245.069 Q256.876 245.069 251.772 244.236 Q246.72 243.402 241.304 241.736 L241.304 231.163 Q245.991 233.715 250.991 234.965 Q255.991 236.215 261.564 236.215 Q270.574 236.215 275.835 231.475 Q281.095 226.736 281.095 218.611 Q281.095 210.486 275.835 205.746 Q270.574 201.007 261.564 201.007 Q257.345 201.007 253.126 201.944 Q248.96 202.882 244.585 204.861 L244.585 165.799 Z" fill="#000000" fill-rule="evenodd" fill-opacity="1" /><path clip-path="url(#clip040)" d="M142.294 94.1371 L159.481 94.1371 L159.481 34.8145 L140.783 38.5645 L140.783 28.9812 L159.377 25.2312 L169.898 25.2312 L169.898 94.1371 L187.085 94.1371 L187.085 102.991 L142.294 102.991 L142.294 94.1371 Z" fill="#000000" fill-rule="evenodd" fill-opacity="1" /><path clip-path="url(#clip040)" d="M208.335 89.7621 L219.325 89.7621 L219.325 102.991 L208.335 102.991 L208.335 89.7621 Z" fill="#000000" fill-rule="evenodd" fill-opacity="1" /><path clip-path="url(#clip040)" d="M264.741 32.1582 Q256.616 32.1582 252.501 40.179 Q248.439 48.1477 248.439 64.1893 Q248.439 80.1788 252.501 88.1996 Q256.616 96.1683 264.741 96.1683 Q272.918 96.1683 276.98 88.1996 Q281.095 80.1788 281.095 64.1893 Q281.095 48.1477 276.98 40.179 Q272.918 32.1582 264.741 32.1582 M264.741 23.825 Q277.814 23.825 284.689 34.1895 Q291.616 44.5019 291.616 64.1893 Q291.616 83.8246 284.689 94.1892 Q277.814 104.502 264.741 104.502 Q251.668 104.502 244.741 94.1892 Q237.866 83.8246 237.866 64.1893 Q237.866 44.5019 244.741 34.1895 Q251.668 23.825 264.741 23.825 Z" fill="#000000" fill-rule="evenodd" fill-opacity="1" /><polyline clip-path="url(#clip042)" style="stroke:#009af9; stroke-linecap:butt; stroke-linejoin:round; stroke-width:16; stroke-opacity:1; fill:none" points="
  371.937,345.246 379.361,336.371 386.785,327.505 394.209,318.656 401.633,309.834 409.056,301.048 416.48,292.305 423.904,283.615 431.328,274.987 438.752,266.428 
  446.176,257.949 453.6,249.556 461.024,241.258 468.448,233.065 475.872,224.983 483.296,217.021 490.72,209.186 498.144,201.488 505.568,193.933 512.992,186.528 
  520.416,179.282 527.84,172.201 535.263,165.293 542.687,158.564 550.111,152.021 557.535,145.671 564.959,139.519 572.383,133.573 579.807,127.838 587.231,122.319 
  594.655,117.023 602.079,111.954 609.503,107.118 616.927,102.519 624.351,98.1623 631.775,94.0517 639.199,90.1914 646.623,86.5855 654.047,83.2373 661.47,80.1504 
  668.894,77.3277 676.318,74.772 683.742,72.486 691.166,70.4718 698.59,68.7316 706.014,67.267 713.438,66.0795 720.862,65.1703 728.286,64.5402 735.71,64.19 
  743.134,64.12 750.558,64.3301 757.982,64.8203 765.406,65.59 772.83,66.6385 780.254,67.9648 787.677,69.5674 795.101,71.4448 802.525,73.5951 809.949,76.0163 
  817.373,78.7058 824.797,81.661 832.221,84.879 839.645,88.3564 847.069,92.09 854.493,96.0759 861.917,100.31 869.341,104.789 876.765,109.507 884.189,114.46 
  891.613,119.643 899.037,125.051 906.461,130.679 913.884,136.52 921.308,142.57 928.732,148.821 936.156,155.269 943.58,161.905 951.004,168.725 958.428,175.72 
  965.852,182.885 973.276,190.211 980.7,197.692 988.124,205.32 995.548,213.087 1002.97,220.986 1010.4,229.009 1017.82,237.148 1025.24,245.395 1032.67,253.741 
  1040.09,262.178 1047.52,270.698 1054.94,279.293 1062.36,287.953 1069.79,296.67 1077.21,305.436 1084.64,314.241 1092.06,323.078 1099.48,331.936 1106.91,340.808 
  1114.33,349.684 1121.75,358.556 1129.18,367.414 1136.6,376.251 1144.03,385.056 1151.45,393.822 1158.87,402.539 1166.3,411.199 1173.72,419.794 1181.15,428.314 
  1188.57,436.751 1195.99,445.097 1203.42,453.344 1210.84,461.483 1218.27,469.506 1225.69,477.405 1233.11,485.172 1240.54,492.8 1247.96,500.281 1255.39,507.607 
  1262.81,514.772 1270.23,521.767 1277.66,528.587 1285.08,535.223 1292.51,541.671 1299.93,547.922 1307.35,553.972 1314.78,559.813 1322.2,565.441 1329.63,570.849 
  1337.05,576.032 1344.47,580.985 1351.9,585.703 1359.32,590.182 1366.74,594.416 1374.17,598.402 1381.59,602.136 1389.02,605.613 1396.44,608.831 1403.86,611.786 
  1411.29,614.476 1418.71,616.897 1426.14,619.047 1433.56,620.925 1440.98,622.527 1448.41,623.853 1455.83,624.902 1463.26,625.672 1470.68,626.162 1478.1,626.372 
  1485.53,626.302 1492.95,625.952 1500.38,625.322 1507.8,624.413 1515.22,623.225 1522.65,621.76 1530.07,620.02 1537.5,618.006 1544.92,615.72 1552.34,613.164 
  1559.77,610.342 1567.19,607.255 1574.62,603.907 1582.04,600.301 1589.46,596.44 1596.89,592.33 1604.31,587.973 1611.73,583.374 1619.16,578.538 1626.58,573.469 
  1634.01,568.173 1641.43,562.654 1648.85,556.919 1656.28,550.973 1663.7,544.821 1671.13,538.471 1678.55,531.928 1685.97,525.199 1693.4,518.291 1700.82,511.21 
  1708.25,503.964 1715.67,496.56 1723.09,489.004 1730.52,481.306 1737.94,473.471 1745.37,465.509 1752.79,457.427 1760.21,449.234 1767.64,440.936 1775.06,432.543 
  1782.49,424.064 1789.91,415.505 1797.33,406.877 1804.76,398.187 1812.18,389.444 1819.61,380.658 1827.03,371.836 1834.45,362.987 1841.88,354.121 1849.3,345.246 
  
  "/>
<polyline clip-path="url(#clip042)" style="stroke:#e26f46; stroke-linecap:butt; stroke-linejoin:round; stroke-width:16; stroke-opacity:1; fill:none" points="
  371.937,289.393 379.361,280.723 386.785,272.117 394.209,263.584 401.633,255.132 409.056,246.77 416.48,238.507 423.904,230.349 431.328,222.307 438.752,214.387 
  446.176,206.597 453.6,198.945 461.024,191.44 468.448,184.087 475.872,176.895 483.296,169.872 490.72,163.022 498.144,156.355 505.568,149.876 512.992,143.591 
  520.416,137.508 527.84,131.632 535.263,125.968 542.687,120.523 550.111,115.303 557.535,110.311 564.959,105.554 572.383,101.035 579.807,96.7602 587.231,92.7329 
  594.655,88.9572 602.079,85.4371 609.503,82.1759 616.927,79.177 624.351,76.4433 631.775,73.9775 639.199,71.7822 646.623,69.8594 654.047,68.2111 661.47,66.8391 
  668.894,65.7445 676.318,64.9285 683.742,64.392 691.166,64.1354 698.59,64.1591 706.014,64.4629 713.438,65.0466 720.862,65.9097 728.286,67.0511 735.71,68.4699 
  743.134,70.1646 750.558,72.1335 757.982,74.3747 765.406,76.8858 772.83,79.6645 780.254,82.7079 787.677,86.013 795.101,89.5765 802.525,93.3949 809.949,97.4643 
  817.373,101.781 824.797,106.34 832.221,111.137 839.645,116.168 847.069,121.427 854.493,126.909 861.917,132.608 869.341,138.52 876.765,144.638 884.189,150.956 
  891.613,157.467 899.037,164.166 906.461,171.045 913.884,178.097 921.308,185.317 928.732,192.695 936.156,200.226 943.58,207.902 951.004,215.714 958.428,223.655 
  965.852,231.718 973.276,239.894 980.7,248.175 988.124,256.552 995.548,265.018 1002.97,273.564 1010.4,282.182 1017.82,290.862 1025.24,299.596 1032.67,308.376 
  1040.09,317.193 1047.52,326.038 1054.94,334.902 1062.36,343.776 1069.79,352.651 1077.21,361.52 1084.64,370.372 1092.06,379.199 1099.48,387.992 1106.91,396.742 
  1114.33,405.442 1121.75,414.081 1129.18,422.651 1136.6,431.145 1144.03,439.552 1151.45,447.866 1158.87,456.078 1166.3,464.179 1173.72,472.161 1181.15,480.017 
  1188.57,487.739 1195.99,495.318 1203.42,502.748 1210.84,510.021 1218.27,517.13 1225.69,524.067 1233.11,530.826 1240.54,537.401 1247.96,543.783 1255.39,549.968 
  1262.81,555.948 1270.23,561.719 1277.66,567.274 1285.08,572.607 1292.51,577.714 1299.93,582.589 1307.35,587.228 1314.78,591.625 1322.2,595.777 1329.63,599.679 
  1337.05,603.327 1344.47,606.718 1351.9,609.849 1359.32,612.715 1366.74,615.315 1374.17,617.646 1381.59,619.705 1389.02,621.491 1396.44,623.002 1403.86,624.235 
  1411.29,625.19 1418.71,625.867 1426.14,626.263 1433.56,626.38 1440.98,626.216 1448.41,625.772 1455.83,625.049 1463.26,624.046 1470.68,622.766 1478.1,621.209 
  1485.53,619.377 1492.95,617.272 1500.38,614.895 1507.8,612.25 1515.22,609.339 1522.65,606.164 1530.07,602.729 1537.5,599.038 1544.92,595.094 1552.34,590.9 
  1559.77,586.462 1567.19,581.783 1574.62,576.869 1582.04,571.723 1589.46,566.352 1596.89,560.76 1604.31,554.954 1611.73,548.938 1619.16,542.72 1626.58,536.305 
  1634.01,529.699 1641.43,522.909 1648.85,515.942 1656.28,508.805 1663.7,501.505 1671.13,494.05 1678.55,486.446 1685.97,478.701 1693.4,470.823 1700.82,462.82 
  1708.25,454.7 1715.67,446.47 1723.09,438.14 1730.52,429.717 1737.94,421.21 1745.37,412.628 1752.79,403.978 1760.21,395.269 1767.64,386.511 1775.06,377.711 
  1782.49,368.88 1789.91,360.024 1797.33,351.154 1804.76,342.278 1812.18,333.405 1819.61,324.544 1827.03,315.703 1834.45,306.892 1841.88,298.119 1849.3,289.393 
  
  "/>
<polyline clip-path="url(#clip042)" style="stroke:#3da44d; stroke-linecap:butt; stroke-linejoin:round; stroke-width:16; stroke-opacity:1; fill:none" points="
  371.937,235.767 379.361,227.647 386.785,219.644 394.209,211.767 401.633,204.023 409.056,196.419 416.48,188.964 423.904,181.664 431.328,174.528 438.752,167.562 
  446.176,160.773 453.6,154.167 461.024,147.753 468.448,141.535 475.872,135.52 483.296,129.714 490.72,124.123 498.144,118.753 505.568,113.608 512.992,108.694 
  520.416,104.016 527.84,99.5785 535.263,95.3858 542.687,91.4422 550.111,87.7516 557.535,84.3177 564.959,81.1438 572.383,78.2333 579.807,75.5889 587.231,73.2133 
  594.655,71.1088 602.079,69.2776 609.503,67.7216 616.927,66.4421 624.351,65.4406 631.775,64.718 639.199,64.275 646.623,64.1121 654.047,64.2295 661.47,64.6269 
  668.894,65.3041 676.318,66.2604 683.742,67.4947 691.166,69.006 698.59,70.7925 706.014,72.8527 713.438,75.1844 720.862,77.7853 728.286,80.6528 735.71,83.784 
  743.134,87.1759 750.558,90.8251 757.982,94.7278 765.406,98.8803 772.83,103.278 780.254,107.918 787.677,112.793 795.101,117.901 802.525,123.235 809.949,128.791 
  817.373,134.562 824.797,140.543 832.221,146.728 839.645,153.112 847.069,159.686 854.493,166.446 861.917,173.384 869.341,180.493 876.765,187.767 884.189,195.197 
  891.613,202.777 899.037,210.499 906.461,218.355 913.884,226.338 921.308,234.44 928.732,242.651 936.156,250.965 943.58,259.374 951.004,267.867 958.428,276.438 
  965.852,285.077 973.276,293.777 980.7,302.527 988.124,311.321 995.548,320.148 1002.97,329 1010.4,337.868 1017.82,346.744 1025.24,355.618 1032.67,364.482 
  1040.09,373.326 1047.52,382.143 1054.94,390.923 1062.36,399.657 1069.79,408.337 1077.21,416.954 1084.64,425.5 1092.06,433.966 1099.48,442.343 1106.91,450.624 
  1114.33,458.799 1121.75,466.861 1129.18,474.802 1136.6,482.614 1144.03,490.289 1151.45,497.82 1158.87,505.198 1166.3,512.417 1173.72,519.469 1181.15,526.348 
  1188.57,533.046 1195.99,539.556 1203.42,545.873 1210.84,551.991 1218.27,557.902 1225.69,563.601 1233.11,569.082 1240.54,574.34 1247.96,579.37 1255.39,584.167 
  1262.81,588.725 1270.23,593.041 1277.66,597.109 1285.08,600.927 1292.51,604.49 1299.93,607.794 1307.35,610.837 1314.78,613.614 1322.2,616.125 1329.63,618.365 
  1337.05,620.333 1344.47,622.027 1351.9,623.445 1359.32,624.585 1366.74,625.448 1374.17,626.031 1381.59,626.333 1389.02,626.356 1396.44,626.099 1403.86,625.561 
  1411.29,624.745 1418.71,623.649 1426.14,622.276 1433.56,620.627 1440.98,618.703 1448.41,616.507 1455.83,614.041 1463.26,611.306 1470.68,608.306 1478.1,605.044 
  1485.53,601.523 1492.95,597.747 1500.38,593.719 1507.8,589.443 1515.22,584.924 1522.65,580.166 1530.07,575.174 1537.5,569.952 1544.92,564.507 1552.34,558.842 
  1559.77,552.965 1567.19,546.881 1574.62,540.596 1582.04,534.117 1589.46,527.449 1596.89,520.599 1604.31,513.575 1611.73,506.382 1619.16,499.029 1626.58,491.523 
  1634.01,483.871 1641.43,476.081 1648.85,468.161 1656.28,460.117 1663.7,451.96 1671.13,443.696 1678.55,435.334 1685.97,426.882 1693.4,418.349 1700.82,409.742 
  1708.25,401.072 1715.67,392.346 1723.09,383.573 1730.52,374.761 1737.94,365.921 1745.37,357.06 1752.79,348.186 1760.21,339.31 1767.64,330.44 1775.06,321.585 
  1782.49,312.753 1789.91,303.954 1797.33,295.196 1804.76,286.487 1812.18,277.838 1819.61,269.255 1827.03,260.748 1834.45,252.326 1841.88,243.996 1849.3,235.767 
  
  "/>
<polyline clip-path="url(#clip042)" style="stroke:#c271d2; stroke-linecap:butt; stroke-linejoin:round; stroke-width:16; stroke-opacity:1; fill:none" points="
  371.937,186.505 379.361,179.26 386.785,172.179 394.209,165.272 401.633,158.543 409.056,152.001 416.48,145.651 423.904,139.501 431.328,133.555 438.752,127.82 
  446.176,122.303 453.6,117.007 461.024,111.939 468.448,107.103 475.872,102.505 483.296,98.1492 490.72,94.0393 498.144,90.1799 505.568,86.5747 512.992,83.2274 
  520.416,80.1412 527.84,77.3193 535.263,74.7645 542.687,72.4793 550.111,70.466 557.535,68.7266 564.959,67.2629 572.383,66.0763 579.807,65.1679 587.231,64.5387 
  594.655,64.1894 602.079,64.1202 609.503,64.3312 616.927,64.8223 624.351,65.5929 631.775,66.6422 639.199,67.9693 646.623,69.5728 654.047,71.451 661.47,73.6022 
  668.894,76.0242 676.318,78.7145 683.742,81.6706 691.166,84.8893 698.59,88.3676 706.014,92.102 713.438,96.0887 720.862,100.324 728.286,104.803 735.71,109.522 
  743.134,114.476 750.558,119.66 757.982,125.068 765.406,130.697 772.83,136.539 780.254,142.589 787.677,148.841 795.101,155.289 802.525,161.926 809.949,168.746 
  817.373,175.742 824.797,182.907 832.221,190.234 839.645,197.715 847.069,205.344 854.493,213.111 861.917,221.011 869.341,229.034 876.765,237.173 884.189,245.42 
  891.613,253.767 899.037,262.204 906.461,270.725 913.884,279.32 921.308,287.98 928.732,296.697 936.156,305.463 943.58,314.269 951.004,323.105 958.428,331.964 
  965.852,340.835 973.276,349.712 980.7,358.583 988.124,367.442 995.548,376.278 1002.97,385.083 1010.4,393.849 1017.82,402.566 1025.24,411.226 1032.67,419.82 
  1040.09,428.34 1047.52,436.777 1054.94,445.123 1062.36,453.369 1069.79,461.508 1077.21,469.531 1084.64,477.429 1092.06,485.196 1099.48,492.824 1106.91,500.304 
  1114.33,507.63 1121.75,514.794 1129.18,521.789 1136.6,528.608 1144.03,535.244 1151.45,541.69 1158.87,547.941 1166.3,553.99 1173.72,559.831 1181.15,565.458 
  1188.57,570.865 1195.99,576.048 1203.42,581 1210.84,585.718 1218.27,590.195 1225.69,594.429 1233.11,598.414 1240.54,602.147 1247.96,605.623 1255.39,608.841 
  1262.81,611.795 1270.23,614.484 1277.66,616.904 1285.08,619.053 1292.51,620.93 1299.93,622.532 1307.35,623.857 1314.78,624.905 1322.2,625.674 1329.63,626.163 
  1337.05,626.372 1344.47,626.301 1351.9,625.95 1359.32,625.319 1366.74,624.409 1374.17,623.221 1381.59,621.755 1389.02,620.014 1396.44,617.999 1403.86,615.713 
  1411.29,613.156 1418.71,610.333 1426.14,607.245 1433.56,603.896 1440.98,600.289 1448.41,596.428 1455.83,592.317 1463.26,587.959 1470.68,583.359 1478.1,578.522 
  1485.53,573.453 1492.95,568.156 1500.38,562.637 1507.8,556.901 1515.22,550.954 1522.65,544.802 1530.07,538.451 1537.5,531.908 1544.92,525.178 1552.34,518.269 
  1559.77,511.188 1567.19,503.941 1574.62,496.536 1582.04,488.981 1589.46,481.282 1596.89,473.447 1604.31,465.484 1611.73,457.402 1619.16,449.208 1626.58,440.91 
  1634.01,432.517 1641.43,424.037 1648.85,415.479 1656.28,406.85 1663.7,398.16 1671.13,389.417 1678.55,380.63 1685.97,371.808 1693.4,362.96 1700.82,354.094 
  1708.25,345.219 1715.67,336.343 1723.09,327.477 1730.52,318.629 1737.94,309.807 1745.37,301.021 1752.79,292.278 1760.21,283.588 1767.64,274.96 1775.06,266.402 
  1782.49,257.922 1789.91,249.53 1797.33,241.233 1804.76,233.039 1812.18,224.958 1819.61,216.996 1827.03,209.162 1834.45,201.464 1841.88,193.909 1849.3,186.505 
  
  "/>
<path clip-path="url(#clip040)" d="
M1961.13 650.311 L2352.76 650.311 L2352.76 67.1109 L1961.13 67.1109  Z
  " fill="#ffffff" fill-rule="evenodd" fill-opacity="1"/>
<polyline clip-path="url(#clip040)" style="stroke:#000000; stroke-linecap:butt; stroke-linejoin:round; stroke-width:4; stroke-opacity:1; fill:none" points="
  1961.13,650.311 2352.76,650.311 2352.76,67.1109 1961.13,67.1109 1961.13,650.311 
  "/>
<polyline clip-path="url(#clip040)" style="stroke:#009af9; stroke-linecap:butt; stroke-linejoin:round; stroke-width:9; stroke-opacity:1; fill:none" points="
  1983.63,183.751 2118.64,183.751 
  "/>
<path clip-path="url(#clip040)" d="M2142.44 164.298 L2187.96 164.298 L2187.96 173.048 L2151.92 214.975 L2187.96 214.975 L2187.96 222.631 L2141.14 222.631 L2141.14 213.881 L2177.18 171.954 L2142.44 171.954 L2142.44 164.298 Z" fill="#000000" fill-rule="evenodd" fill-opacity="1" /><path clip-path="url(#clip040)" d="M2246.92 240.339 L2246.92 247.787 L2191.5 247.787 L2191.5 240.339 L2246.92 240.339 Z" fill="#000000" fill-rule="evenodd" fill-opacity="1" /><path clip-path="url(#clip040)" d="M2259.11 213.777 L2276.29 213.777 L2276.29 154.454 L2257.6 158.204 L2257.6 148.621 L2276.19 144.871 L2286.71 144.871 L2286.71 213.777 L2303.9 213.777 L2303.9 222.631 L2259.11 222.631 L2259.11 213.777 Z" fill="#000000" fill-rule="evenodd" fill-opacity="1" /><polyline clip-path="url(#clip040)" style="stroke:#e26f46; stroke-linecap:butt; stroke-linejoin:round; stroke-width:9; stroke-opacity:1; fill:none" points="
  1983.63,300.391 2118.64,300.391 
  "/>
<path clip-path="url(#clip040)" d="M2142.44 280.938 L2187.96 280.938 L2187.96 289.688 L2151.92 331.615 L2187.96 331.615 L2187.96 339.271 L2141.14 339.271 L2141.14 330.521 L2177.18 288.594 L2142.44 288.594 L2142.44 280.938 Z" fill="#000000" fill-rule="evenodd" fill-opacity="1" /><path clip-path="url(#clip040)" d="M2246.92 356.979 L2246.92 364.427 L2191.5 364.427 L2191.5 356.979 L2246.92 356.979 Z" fill="#000000" fill-rule="evenodd" fill-opacity="1" /><path clip-path="url(#clip040)" d="M2266.35 330.417 L2303.07 330.417 L2303.07 339.271 L2253.69 339.271 L2253.69 330.417 Q2259.68 324.219 2269.99 313.802 Q2280.36 303.334 2283.01 300.313 Q2288.07 294.636 2290.04 290.729 Q2292.08 286.771 2292.08 282.969 Q2292.08 276.771 2287.7 272.865 Q2283.38 268.959 2276.4 268.959 Q2271.45 268.959 2265.93 270.678 Q2260.46 272.396 2254.21 275.886 L2254.21 265.261 Q2260.57 262.709 2266.09 261.407 Q2271.61 260.105 2276.19 260.105 Q2288.27 260.105 2295.46 266.146 Q2302.65 272.188 2302.65 282.292 Q2302.65 287.084 2300.83 291.407 Q2299.05 295.677 2294.32 301.511 Q2293.01 303.021 2286.03 310.261 Q2279.06 317.448 2266.35 330.417 Z" fill="#000000" fill-rule="evenodd" fill-opacity="1" /><polyline clip-path="url(#clip040)" style="stroke:#3da44d; stroke-linecap:butt; stroke-linejoin:round; stroke-width:9; stroke-opacity:1; fill:none" points="
  1983.63,417.031 2118.64,417.031 
  "/>
<path clip-path="url(#clip040)" d="M2142.44 397.578 L2187.96 397.578 L2187.96 406.328 L2151.92 448.255 L2187.96 448.255 L2187.96 455.911 L2141.14 455.911 L2141.14 447.161 L2177.18 405.234 L2142.44 405.234 L2142.44 397.578 Z" fill="#000000" fill-rule="evenodd" fill-opacity="1" /><path clip-path="url(#clip040)" d="M2246.92 473.619 L2246.92 481.067 L2191.5 481.067 L2191.5 473.619 L2246.92 473.619 Z" fill="#000000" fill-rule="evenodd" fill-opacity="1" /><path clip-path="url(#clip040)" d="M2289.16 413.984 Q2296.71 415.599 2300.93 420.703 Q2305.2 425.807 2305.2 433.307 Q2305.2 444.817 2297.28 451.119 Q2289.37 457.421 2274.78 457.421 Q2269.89 457.421 2264.68 456.432 Q2259.52 455.494 2254 453.567 L2254 443.411 Q2258.38 445.963 2263.59 447.265 Q2268.79 448.567 2274.47 448.567 Q2284.37 448.567 2289.52 444.661 Q2294.73 440.755 2294.73 433.307 Q2294.73 426.432 2289.89 422.578 Q2285.1 418.672 2276.5 418.672 L2267.44 418.672 L2267.44 410.026 L2276.92 410.026 Q2284.68 410.026 2288.79 406.953 Q2292.91 403.828 2292.91 397.995 Q2292.91 392.005 2288.64 388.828 Q2284.42 385.599 2276.5 385.599 Q2272.18 385.599 2267.23 386.536 Q2262.28 387.474 2256.35 389.453 L2256.35 380.078 Q2262.34 378.411 2267.54 377.578 Q2272.81 376.745 2277.44 376.745 Q2289.42 376.745 2296.4 382.213 Q2303.38 387.63 2303.38 396.901 Q2303.38 403.359 2299.68 407.838 Q2295.98 412.265 2289.16 413.984 Z" fill="#000000" fill-rule="evenodd" fill-opacity="1" /><polyline clip-path="url(#clip040)" style="stroke:#c271d2; stroke-linecap:butt; stroke-linejoin:round; stroke-width:9; stroke-opacity:1; fill:none" points="
  1983.63,533.671 2118.64,533.671 
  "/>
<path clip-path="url(#clip040)" d="M2142.44 514.218 L2187.96 514.218 L2187.96 522.968 L2151.92 564.895 L2187.96 564.895 L2187.96 572.551 L2141.14 572.551 L2141.14 563.801 L2177.18 521.874 L2142.44 521.874 L2142.44 514.218 Z" fill="#000000" fill-rule="evenodd" fill-opacity="1" /><path clip-path="url(#clip040)" d="M2246.92 590.259 L2246.92 597.707 L2191.5 597.707 L2191.5 590.259 L2246.92 590.259 Z" fill="#000000" fill-rule="evenodd" fill-opacity="1" /><path clip-path="url(#clip040)" d="M2286.19 503.958 L2259.63 545.468 L2286.19 545.468 L2286.19 503.958 M2283.43 494.791 L2296.66 494.791 L2296.66 545.468 L2307.75 545.468 L2307.75 554.218 L2296.66 554.218 L2296.66 572.551 L2286.19 572.551 L2286.19 554.218 L2251.09 554.218 L2251.09 544.061 L2283.43 494.791 Z" fill="#000000" fill-rule="evenodd" fill-opacity="1" /><path clip-path="url(#clip040)" d="
M327.616 1443.25 L1678.31 1443.25 L1678.31 847.244 L327.616 847.244  Z
  " fill="#ffffff" fill-rule="evenodd" fill-opacity="1"/>
<defs>
  <clipPath id="clip043">
    <rect x="327" y="847" width="1352" height="597"/>
  </clipPath>
</defs>
<polyline clip-path="url(#clip040)" style="stroke:#000000; stroke-linecap:butt; stroke-linejoin:round; stroke-width:4; stroke-opacity:1; fill:none" points="
  327.616,1443.25 1678.31,1443.25 
  "/>
<polyline clip-path="url(#clip040)" style="stroke:#000000; stroke-linecap:butt; stroke-linejoin:round; stroke-width:4; stroke-opacity:1; fill:none" points="
  365.843,1443.25 365.843,1424.35 
  "/>
<polyline clip-path="url(#clip040)" style="stroke:#000000; stroke-linecap:butt; stroke-linejoin:round; stroke-width:4; stroke-opacity:1; fill:none" points="
  568.645,1443.25 568.645,1424.35 
  "/>
<polyline clip-path="url(#clip040)" style="stroke:#000000; stroke-linecap:butt; stroke-linejoin:round; stroke-width:4; stroke-opacity:1; fill:none" points="
  771.446,1443.25 771.446,1424.35 
  "/>
<polyline clip-path="url(#clip040)" style="stroke:#000000; stroke-linecap:butt; stroke-linejoin:round; stroke-width:4; stroke-opacity:1; fill:none" points="
  974.248,1443.25 974.248,1424.35 
  "/>
<polyline clip-path="url(#clip040)" style="stroke:#000000; stroke-linecap:butt; stroke-linejoin:round; stroke-width:4; stroke-opacity:1; fill:none" points="
  1177.05,1443.25 1177.05,1424.35 
  "/>
<polyline clip-path="url(#clip040)" style="stroke:#000000; stroke-linecap:butt; stroke-linejoin:round; stroke-width:4; stroke-opacity:1; fill:none" points="
  1379.85,1443.25 1379.85,1424.35 
  "/>
<polyline clip-path="url(#clip040)" style="stroke:#000000; stroke-linecap:butt; stroke-linejoin:round; stroke-width:4; stroke-opacity:1; fill:none" points="
  1582.65,1443.25 1582.65,1424.35 
  "/>
<path clip-path="url(#clip040)" d="M365.843 1488.81 Q357.718 1488.81 353.604 1496.84 Q349.541 1504.8 349.541 1520.85 Q349.541 1536.84 353.604 1544.86 Q357.718 1552.82 365.843 1552.82 Q374.02 1552.82 378.083 1544.86 Q382.197 1536.84 382.197 1520.85 Q382.197 1504.8 378.083 1496.84 Q374.02 1488.81 365.843 1488.81 M365.843 1480.48 Q378.916 1480.48 385.791 1490.85 Q392.718 1501.16 392.718 1520.85 Q392.718 1540.48 385.791 1550.85 Q378.916 1561.16 365.843 1561.16 Q352.77 1561.16 345.843 1550.85 Q338.968 1540.48 338.968 1520.85 Q338.968 1501.16 345.843 1490.85 Q352.77 1480.48 365.843 1480.48 Z" fill="#000000" fill-rule="evenodd" fill-opacity="1" /><path clip-path="url(#clip040)" d="M547.004 1550.79 L564.192 1550.79 L564.192 1491.47 L545.494 1495.22 L545.494 1485.64 L564.087 1481.89 L574.608 1481.89 L574.608 1550.79 L591.796 1550.79 L591.796 1559.65 L547.004 1559.65 L547.004 1550.79 Z" fill="#000000" fill-rule="evenodd" fill-opacity="1" /><path clip-path="url(#clip040)" d="M759.415 1550.79 L796.134 1550.79 L796.134 1559.65 L746.759 1559.65 L746.759 1550.79 Q752.749 1544.6 763.061 1534.18 Q773.426 1523.71 776.082 1520.69 Q781.134 1515.01 783.113 1511.11 Q785.144 1507.15 785.144 1503.35 Q785.144 1497.15 780.769 1493.24 Q776.446 1489.34 769.467 1489.34 Q764.519 1489.34 758.999 1491.05 Q753.53 1492.77 747.28 1496.26 L747.28 1485.64 Q753.634 1483.09 759.155 1481.78 Q764.676 1480.48 769.259 1480.48 Q781.342 1480.48 788.53 1486.52 Q795.717 1492.56 795.717 1502.67 Q795.717 1507.46 793.894 1511.78 Q792.123 1516.05 787.384 1521.89 Q786.082 1523.4 779.103 1530.64 Q772.123 1537.83 759.415 1550.79 Z" fill="#000000" fill-rule="evenodd" fill-opacity="1" /><path clip-path="url(#clip040)" d="M983.805 1517.72 Q991.357 1519.34 995.576 1524.44 Q999.847 1529.54 999.847 1537.04 Q999.847 1548.55 991.93 1554.86 Q984.014 1561.16 969.43 1561.16 Q964.535 1561.16 959.326 1560.17 Q954.17 1559.23 948.649 1557.3 L948.649 1547.15 Q953.024 1549.7 958.232 1551 Q963.441 1552.3 969.118 1552.3 Q979.014 1552.3 984.17 1548.4 Q989.378 1544.49 989.378 1537.04 Q989.378 1530.17 984.534 1526.31 Q979.743 1522.41 971.149 1522.41 L962.087 1522.41 L962.087 1513.76 L971.566 1513.76 Q979.326 1513.76 983.441 1510.69 Q987.555 1507.56 987.555 1501.73 Q987.555 1495.74 983.284 1492.56 Q979.066 1489.34 971.149 1489.34 Q966.826 1489.34 961.878 1490.27 Q956.93 1491.21 950.993 1493.19 L950.993 1483.81 Q956.982 1482.15 962.191 1481.31 Q967.451 1480.48 972.087 1480.48 Q984.066 1480.48 991.045 1485.95 Q998.024 1491.37 998.024 1500.64 Q998.024 1507.1 994.326 1511.58 Q990.628 1516 983.805 1517.72 Z" fill="#000000" fill-rule="evenodd" fill-opacity="1" /><path clip-path="url(#clip040)" d="M1183.82 1491.05 L1157.26 1532.56 L1183.82 1532.56 L1183.82 1491.05 M1181.06 1481.89 L1194.29 1481.89 L1194.29 1532.56 L1205.38 1532.56 L1205.38 1541.31 L1194.29 1541.31 L1194.29 1559.65 L1183.82 1559.65 L1183.82 1541.31 L1148.72 1541.31 L1148.72 1531.16 L1181.06 1481.89 Z" fill="#000000" fill-rule="evenodd" fill-opacity="1" /><path clip-path="url(#clip040)" d="M1357.98 1481.89 L1399.28 1481.89 L1399.28 1490.74 L1367.61 1490.74 L1367.61 1509.8 Q1369.9 1509.02 1372.2 1508.66 Q1374.49 1508.24 1376.78 1508.24 Q1389.8 1508.24 1397.4 1515.38 Q1405.01 1522.51 1405.01 1534.7 Q1405.01 1547.25 1397.19 1554.23 Q1389.38 1561.16 1375.16 1561.16 Q1370.27 1561.16 1365.16 1560.32 Q1360.11 1559.49 1354.7 1557.82 L1354.7 1547.25 Q1359.38 1549.8 1364.38 1551.05 Q1369.38 1552.3 1374.96 1552.3 Q1383.97 1552.3 1389.23 1547.56 Q1394.49 1542.83 1394.49 1534.7 Q1394.49 1526.58 1389.23 1521.84 Q1383.97 1517.1 1374.96 1517.1 Q1370.74 1517.1 1366.52 1518.03 Q1362.35 1518.97 1357.98 1520.95 L1357.98 1481.89 Z" fill="#000000" fill-rule="evenodd" fill-opacity="1" /><path clip-path="url(#clip040)" d="M1583.56 1516.58 Q1576.48 1516.58 1572.31 1521.42 Q1568.2 1526.26 1568.2 1534.7 Q1568.2 1543.09 1572.31 1547.98 Q1576.48 1552.82 1583.56 1552.82 Q1590.65 1552.82 1594.76 1547.98 Q1598.93 1543.09 1598.93 1534.7 Q1598.93 1526.26 1594.76 1521.42 Q1590.65 1516.58 1583.56 1516.58 M1604.45 1483.61 L1604.45 1493.19 Q1600.49 1491.31 1596.43 1490.33 Q1592.42 1489.34 1588.46 1489.34 Q1578.04 1489.34 1572.52 1496.37 Q1567.05 1503.4 1566.27 1517.62 Q1569.35 1513.09 1573.98 1510.69 Q1578.62 1508.24 1584.19 1508.24 Q1595.91 1508.24 1602.68 1515.38 Q1609.5 1522.46 1609.5 1534.7 Q1609.5 1546.68 1602.42 1553.92 Q1595.34 1561.16 1583.56 1561.16 Q1570.07 1561.16 1562.94 1550.85 Q1555.8 1540.48 1555.8 1520.85 Q1555.8 1502.41 1564.55 1491.47 Q1573.3 1480.48 1588.04 1480.48 Q1592 1480.48 1596.01 1481.26 Q1600.07 1482.04 1604.45 1483.61 Z" fill="#000000" fill-rule="evenodd" fill-opacity="1" /><polyline clip-path="url(#clip040)" style="stroke:#000000; stroke-linecap:butt; stroke-linejoin:round; stroke-width:4; stroke-opacity:1; fill:none" points="
  327.616,1443.25 327.616,847.244 
  "/>
<polyline clip-path="url(#clip040)" style="stroke:#000000; stroke-linecap:butt; stroke-linejoin:round; stroke-width:4; stroke-opacity:1; fill:none" points="
  327.616,1426.38 340.22,1426.38 
  "/>
<polyline clip-path="url(#clip040)" style="stroke:#000000; stroke-linecap:butt; stroke-linejoin:round; stroke-width:4; stroke-opacity:1; fill:none" points="
  327.616,1285.82 340.22,1285.82 
  "/>
<polyline clip-path="url(#clip040)" style="stroke:#000000; stroke-linecap:butt; stroke-linejoin:round; stroke-width:4; stroke-opacity:1; fill:none" points="
  327.616,1145.25 340.22,1145.25 
  "/>
<polyline clip-path="url(#clip040)" style="stroke:#000000; stroke-linecap:butt; stroke-linejoin:round; stroke-width:4; stroke-opacity:1; fill:none" points="
  327.616,1004.68 340.22,1004.68 
  "/>
<polyline clip-path="url(#clip040)" style="stroke:#000000; stroke-linecap:butt; stroke-linejoin:round; stroke-width:4; stroke-opacity:1; fill:none" points="
  327.616,864.112 340.22,864.112 
  "/>
<path clip-path="url(#clip040)" d="M50.9921 1427.4 L117.763 1427.4 L117.763 1436.25 L50.9921 1436.25 L50.9921 1427.4 Z" fill="#000000" fill-rule="evenodd" fill-opacity="1" /><path clip-path="url(#clip040)" d="M142.294 1456.41 L159.481 1456.41 L159.481 1397.09 L140.783 1400.84 L140.783 1391.25 L159.377 1387.5 L169.898 1387.5 L169.898 1456.41 L187.085 1456.41 L187.085 1465.26 L142.294 1465.26 L142.294 1456.41 Z" fill="#000000" fill-rule="evenodd" fill-opacity="1" /><path clip-path="url(#clip040)" d="M208.335 1452.03 L219.325 1452.03 L219.325 1465.26 L208.335 1465.26 L208.335 1452.03 Z" fill="#000000" fill-rule="evenodd" fill-opacity="1" /><path clip-path="url(#clip040)" d="M264.741 1394.43 Q256.616 1394.43 252.501 1402.45 Q248.439 1410.42 248.439 1426.46 Q248.439 1442.45 252.501 1450.47 Q256.616 1458.44 264.741 1458.44 Q272.918 1458.44 276.98 1450.47 Q281.095 1442.45 281.095 1426.46 Q281.095 1410.42 276.98 1402.45 Q272.918 1394.43 264.741 1394.43 M264.741 1386.1 Q277.814 1386.1 284.689 1396.46 Q291.616 1406.77 291.616 1426.46 Q291.616 1446.1 284.689 1456.46 Q277.814 1466.77 264.741 1466.77 Q251.668 1466.77 244.741 1456.46 Q237.866 1446.1 237.866 1426.46 Q237.866 1406.77 244.741 1396.46 Q251.668 1386.1 264.741 1386.1 Z" fill="#000000" fill-rule="evenodd" fill-opacity="1" /><path clip-path="url(#clip040)" d="M53.2317 1286.83 L120.002 1286.83 L120.002 1295.69 L53.2317 1295.69 L53.2317 1286.83 Z" fill="#000000" fill-rule="evenodd" fill-opacity="1" /><path clip-path="url(#clip040)" d="M165.21 1253.86 Q157.085 1253.86 152.971 1261.88 Q148.908 1269.85 148.908 1285.89 Q148.908 1301.88 152.971 1309.9 Q157.085 1317.87 165.21 1317.87 Q173.387 1317.87 177.45 1309.9 Q181.564 1301.88 181.564 1285.89 Q181.564 1269.85 177.45 1261.88 Q173.387 1253.86 165.21 1253.86 M165.21 1245.53 Q178.283 1245.53 185.158 1255.89 Q192.085 1266.21 192.085 1285.89 Q192.085 1305.53 185.158 1315.89 Q178.283 1326.21 165.21 1326.21 Q152.137 1326.21 145.21 1315.89 Q138.335 1305.53 138.335 1285.89 Q138.335 1266.21 145.21 1255.89 Q152.137 1245.53 165.21 1245.53 Z" fill="#000000" fill-rule="evenodd" fill-opacity="1" /><path clip-path="url(#clip040)" d="M210.575 1311.47 L221.564 1311.47 L221.564 1324.7 L210.575 1324.7 L210.575 1311.47 Z" fill="#000000" fill-rule="evenodd" fill-opacity="1" /><path clip-path="url(#clip040)" d="M244.585 1246.94 L285.887 1246.94 L285.887 1255.79 L254.22 1255.79 L254.22 1274.85 Q256.512 1274.07 258.804 1273.71 Q261.095 1273.29 263.387 1273.29 Q276.408 1273.29 284.012 1280.43 Q291.616 1287.56 291.616 1299.75 Q291.616 1312.3 283.803 1319.28 Q275.991 1326.21 261.772 1326.21 Q256.876 1326.21 251.772 1325.37 Q246.72 1324.54 241.304 1322.87 L241.304 1312.3 Q245.991 1314.85 250.991 1316.1 Q255.991 1317.35 261.564 1317.35 Q270.574 1317.35 275.835 1312.61 Q281.095 1307.87 281.095 1299.75 Q281.095 1291.62 275.835 1286.88 Q270.574 1282.14 261.564 1282.14 Q257.345 1282.14 253.126 1283.08 Q248.96 1284.02 244.585 1286 L244.585 1246.94 Z" fill="#000000" fill-rule="evenodd" fill-opacity="1" /><path clip-path="url(#clip040)" d="M162.971 1113.29 Q154.846 1113.29 150.731 1121.32 Q146.669 1129.28 146.669 1145.33 Q146.669 1161.32 150.731 1169.34 Q154.846 1177.31 162.971 1177.31 Q171.148 1177.31 175.21 1169.34 Q179.325 1161.32 179.325 1145.33 Q179.325 1129.28 175.21 1121.32 Q171.148 1113.29 162.971 1113.29 M162.971 1104.96 Q176.044 1104.96 182.919 1115.33 Q189.846 1125.64 189.846 1145.33 Q189.846 1164.96 182.919 1175.33 Q176.044 1185.64 162.971 1185.64 Q149.898 1185.64 142.971 1175.33 Q136.096 1164.96 136.096 1145.33 Q136.096 1125.64 142.971 1115.33 Q149.898 1104.96 162.971 1104.96 Z" fill="#000000" fill-rule="evenodd" fill-opacity="1" /><path clip-path="url(#clip040)" d="M208.335 1170.9 L219.325 1170.9 L219.325 1184.13 L208.335 1184.13 L208.335 1170.9 Z" fill="#000000" fill-rule="evenodd" fill-opacity="1" /><path clip-path="url(#clip040)" d="M264.741 1113.29 Q256.616 1113.29 252.501 1121.32 Q248.439 1129.28 248.439 1145.33 Q248.439 1161.32 252.501 1169.34 Q256.616 1177.31 264.741 1177.31 Q272.918 1177.31 276.98 1169.34 Q281.095 1161.32 281.095 1145.33 Q281.095 1129.28 276.98 1121.32 Q272.918 1113.29 264.741 1113.29 M264.741 1104.96 Q277.814 1104.96 284.689 1115.33 Q291.616 1125.64 291.616 1145.33 Q291.616 1164.96 284.689 1175.33 Q277.814 1185.64 264.741 1185.64 Q251.668 1185.64 244.741 1175.33 Q237.866 1164.96 237.866 1145.33 Q237.866 1125.64 244.741 1115.33 Q251.668 1104.96 264.741 1104.96 Z" fill="#000000" fill-rule="evenodd" fill-opacity="1" /><path clip-path="url(#clip040)" d="M165.21 972.727 Q157.085 972.727 152.971 980.748 Q148.908 988.717 148.908 1004.76 Q148.908 1020.75 152.971 1028.77 Q157.085 1036.74 165.21 1036.74 Q173.387 1036.74 177.45 1028.77 Q181.564 1020.75 181.564 1004.76 Q181.564 988.717 177.45 980.748 Q173.387 972.727 165.21 972.727 M165.21 964.394 Q178.283 964.394 185.158 974.758 Q192.085 985.071 192.085 1004.76 Q192.085 1024.39 185.158 1034.76 Q178.283 1045.07 165.21 1045.07 Q152.137 1045.07 145.21 1034.76 Q138.335 1024.39 138.335 1004.76 Q138.335 985.071 145.21 974.758 Q152.137 964.394 165.21 964.394 Z" fill="#000000" fill-rule="evenodd" fill-opacity="1" /><path clip-path="url(#clip040)" d="M210.575 1030.33 L221.564 1030.33 L221.564 1043.56 L210.575 1043.56 L210.575 1030.33 Z" fill="#000000" fill-rule="evenodd" fill-opacity="1" /><path clip-path="url(#clip040)" d="M244.585 965.8 L285.887 965.8 L285.887 974.654 L254.22 974.654 L254.22 993.717 Q256.512 992.935 258.804 992.571 Q261.095 992.154 263.387 992.154 Q276.408 992.154 284.012 999.289 Q291.616 1006.42 291.616 1018.61 Q291.616 1031.16 283.803 1038.14 Q275.991 1045.07 261.772 1045.07 Q256.876 1045.07 251.772 1044.24 Q246.72 1043.4 241.304 1041.74 L241.304 1031.16 Q245.991 1033.72 250.991 1034.97 Q255.991 1036.22 261.564 1036.22 Q270.574 1036.22 275.835 1031.48 Q281.095 1026.74 281.095 1018.61 Q281.095 1010.49 275.835 1005.75 Q270.574 1001.01 261.564 1001.01 Q257.345 1001.01 253.126 1001.95 Q248.96 1002.88 244.585 1004.86 L244.585 965.8 Z" fill="#000000" fill-rule="evenodd" fill-opacity="1" /><path clip-path="url(#clip040)" d="M142.294 894.138 L159.481 894.138 L159.481 834.815 L140.783 838.565 L140.783 828.982 L159.377 825.232 L169.898 825.232 L169.898 894.138 L187.085 894.138 L187.085 902.992 L142.294 902.992 L142.294 894.138 Z" fill="#000000" fill-rule="evenodd" fill-opacity="1" /><path clip-path="url(#clip040)" d="M208.335 889.763 L219.325 889.763 L219.325 902.992 L208.335 902.992 L208.335 889.763 Z" fill="#000000" fill-rule="evenodd" fill-opacity="1" /><path clip-path="url(#clip040)" d="M264.741 832.159 Q256.616 832.159 252.501 840.18 Q248.439 848.149 248.439 864.19 Q248.439 880.18 252.501 888.201 Q256.616 896.169 264.741 896.169 Q272.918 896.169 276.98 888.201 Q281.095 880.18 281.095 864.19 Q281.095 848.149 276.98 840.18 Q272.918 832.159 264.741 832.159 M264.741 823.826 Q277.814 823.826 284.689 834.19 Q291.616 844.503 291.616 864.19 Q291.616 883.826 284.689 894.19 Q277.814 904.503 264.741 904.503 Q251.668 904.503 244.741 894.19 Q237.866 883.826 237.866 864.19 Q237.866 844.503 244.741 834.19 Q251.668 823.826 264.741 823.826 Z" fill="#000000" fill-rule="evenodd" fill-opacity="1" /><polyline clip-path="url(#clip043)" style="stroke:#009af9; stroke-linecap:butt; stroke-linejoin:round; stroke-width:16; stroke-opacity:1; fill:none" points="
  365.843,864.112 372.246,864.252 378.649,864.672 385.053,865.372 391.456,866.351 397.859,867.608 404.262,869.142 410.666,870.951 417.069,873.033 423.472,875.387 
  429.875,878.009 436.278,880.898 442.682,884.051 449.085,887.464 455.488,891.134 461.891,895.057 468.295,899.23 474.698,903.647 481.101,908.306 487.504,913.201 
  493.907,918.327 500.311,923.68 506.714,929.253 513.117,935.041 519.52,941.039 525.923,947.241 532.327,953.64 538.73,960.23 545.133,967.004 551.536,973.957 
  557.94,981.079 564.343,988.366 570.746,995.809 577.149,1003.4 583.552,1011.13 589.956,1019 596.359,1026.99 602.762,1035.1 609.165,1043.32 615.569,1051.65 
  621.972,1060.06 628.375,1068.56 634.778,1077.14 641.181,1085.78 647.585,1094.49 653.988,1103.24 660.391,1112.04 666.794,1120.87 673.198,1129.72 679.601,1138.59 
  686.004,1147.47 692.407,1156.34 698.81,1165.2 705.214,1174.05 711.617,1182.86 718.02,1191.64 724.423,1200.37 730.826,1209.04 737.23,1217.65 743.633,1226.19 
  750.036,1234.65 756.439,1243.02 762.843,1251.29 769.246,1259.46 775.649,1267.51 782.052,1275.44 788.455,1283.25 794.859,1290.91 801.262,1298.43 807.665,1305.79 
  814.068,1313 820.472,1320.04 826.875,1326.9 833.278,1333.58 839.681,1340.08 846.084,1346.38 852.488,1352.48 858.891,1358.38 865.294,1364.06 871.697,1369.52 
  878.1,1374.76 884.504,1379.77 890.907,1384.55 897.31,1389.09 903.713,1393.38 910.117,1397.43 916.52,1401.23 922.923,1404.77 929.326,1408.05 935.729,1411.08 
  942.133,1413.83 948.536,1416.32 954.939,1418.54 961.342,1420.48 967.746,1422.16 974.149,1423.55 980.552,1424.67 986.955,1425.51 993.358,1426.07 999.762,1426.35 
  1006.16,1426.35 1012.57,1426.07 1018.97,1425.51 1025.37,1424.67 1031.78,1423.55 1038.18,1422.16 1044.58,1420.48 1050.99,1418.54 1057.39,1416.32 1063.79,1413.83 
  1070.2,1411.08 1076.6,1408.05 1083,1404.77 1089.41,1401.23 1095.81,1397.43 1102.21,1393.38 1108.62,1389.09 1115.02,1384.55 1121.42,1379.77 1127.83,1374.76 
  1134.23,1369.52 1140.63,1364.06 1147.04,1358.38 1153.44,1352.48 1159.84,1346.38 1166.25,1340.08 1172.65,1333.58 1179.05,1326.9 1185.45,1320.04 1191.86,1313 
  1198.26,1305.79 1204.66,1298.43 1211.07,1290.91 1217.47,1283.25 1223.87,1275.44 1230.28,1267.51 1236.68,1259.46 1243.08,1251.29 1249.49,1243.02 1255.89,1234.65 
  1262.29,1226.19 1268.7,1217.65 1275.1,1209.04 1281.5,1200.37 1287.91,1191.64 1294.31,1182.86 1300.71,1174.05 1307.12,1165.2 1313.52,1156.34 1319.92,1147.47 
  1326.33,1138.59 1332.73,1129.72 1339.13,1120.87 1345.54,1112.04 1351.94,1103.24 1358.34,1094.49 1364.75,1085.78 1371.15,1077.14 1377.55,1068.56 1383.95,1060.06 
  1390.36,1051.65 1396.76,1043.32 1403.16,1035.1 1409.57,1026.99 1415.97,1019 1422.37,1011.13 1428.78,1003.4 1435.18,995.809 1441.58,988.366 1447.99,981.079 
  1454.39,973.957 1460.79,967.004 1467.2,960.23 1473.6,953.64 1480,947.241 1486.41,941.039 1492.81,935.041 1499.21,929.253 1505.62,923.68 1512.02,918.327 
  1518.42,913.201 1524.83,908.306 1531.23,903.647 1537.63,899.23 1544.04,895.057 1550.44,891.134 1556.84,887.464 1563.24,884.051 1569.65,880.898 1576.05,878.009 
  1582.45,875.387 1588.86,873.033 1595.26,870.951 1601.66,869.142 1608.07,867.608 1614.47,866.351 1620.87,865.372 1627.28,864.672 1633.68,864.252 1640.08,864.112 
  
  "/>
<polyline clip-path="url(#clip043)" style="stroke:#e26f46; stroke-linecap:butt; stroke-linejoin:round; stroke-width:16; stroke-opacity:1; fill:none" points="
  365.843,869.716 372.246,871.617 378.649,873.79 385.053,876.234 391.456,878.946 397.859,881.923 404.262,885.163 410.666,888.663 417.069,892.418 423.472,896.425 
  429.875,900.68 436.278,905.179 442.682,909.917 449.085,914.89 455.488,920.092 461.891,925.519 468.295,931.165 474.698,937.024 481.101,943.091 487.504,949.359 
  493.907,955.823 500.311,962.475 506.714,969.31 513.117,976.32 519.52,983.498 525.923,990.838 532.327,998.331 538.73,1005.97 545.133,1013.75 551.536,1021.66 
  557.94,1029.69 564.343,1037.84 570.746,1046.1 577.149,1054.45 583.552,1062.9 589.956,1071.42 596.359,1080.02 602.762,1088.69 609.165,1097.41 615.569,1106.18 
  621.972,1114.99 628.375,1123.83 634.778,1132.69 641.181,1141.56 647.585,1150.43 653.988,1159.31 660.391,1168.16 666.794,1177 673.198,1185.8 679.601,1194.56 
  686.004,1203.27 692.407,1211.93 698.81,1220.52 705.214,1229.03 711.617,1237.46 718.02,1245.8 724.423,1254.04 730.826,1262.17 737.23,1270.18 743.633,1278.07 
  750.036,1285.82 756.439,1293.44 762.843,1300.91 769.246,1308.22 775.649,1315.37 782.052,1322.35 788.455,1329.16 794.859,1335.78 801.262,1342.21 807.665,1348.44 
  814.068,1354.48 820.472,1360.3 826.875,1365.91 833.278,1371.3 839.681,1376.46 846.084,1381.4 852.488,1386.09 858.891,1390.55 865.294,1394.76 871.697,1398.73 
  878.1,1402.44 884.504,1405.9 890.907,1409.09 897.31,1412.03 903.713,1414.69 910.117,1417.09 916.52,1419.22 922.923,1421.07 929.326,1422.65 935.729,1423.96 
  942.133,1424.98 948.536,1425.73 954.939,1426.19 961.342,1426.38 967.746,1426.29 974.149,1425.91 980.552,1425.26 986.955,1424.33 993.358,1423.11 999.762,1421.63 
  1006.16,1419.86 1012.57,1417.83 1018.97,1415.52 1025.37,1412.94 1031.78,1410.09 1038.18,1406.99 1044.58,1403.62 1050.99,1399.99 1057.39,1396.11 1063.79,1391.97 
  1070.2,1387.6 1076.6,1382.98 1083,1378.12 1089.41,1373.03 1095.81,1367.72 1102.21,1362.18 1108.62,1356.43 1115.02,1350.46 1121.42,1344.3 1127.83,1337.93 
  1134.23,1331.37 1140.63,1324.63 1147.04,1317.7 1153.44,1310.61 1159.84,1303.35 1166.25,1295.93 1172.65,1288.36 1179.05,1280.65 1185.45,1272.81 1191.86,1264.83 
  1198.26,1256.74 1204.66,1248.54 1211.07,1240.23 1217.47,1231.83 1223.87,1223.35 1230.28,1214.78 1236.68,1206.15 1243.08,1197.45 1249.49,1188.71 1255.89,1179.92 
  1262.29,1171.09 1268.7,1162.24 1275.1,1153.37 1281.5,1144.5 1287.91,1135.62 1294.31,1126.76 1300.71,1117.91 1307.12,1109.09 1313.52,1100.31 1319.92,1091.57 
  1326.33,1082.89 1332.73,1074.26 1339.13,1065.71 1345.54,1057.24 1351.94,1048.85 1358.34,1040.56 1364.75,1032.38 1371.15,1024.31 1377.55,1016.36 1383.95,1008.53 
  1390.36,1000.85 1396.76,993.303 1403.16,985.912 1409.57,978.679 1415.97,971.613 1422.37,964.719 1428.78,958.006 1435.18,951.479 1441.58,945.145 1447.99,939.011 
  1454.39,933.082 1460.79,927.365 1467.2,921.865 1473.6,916.588 1480,911.538 1486.41,906.722 1492.81,902.143 1499.21,897.807 1505.62,893.717 1512.02,889.878 
  1518.42,886.294 1524.83,882.968 1531.23,879.903 1537.63,877.103 1544.04,874.57 1550.44,872.306 1556.84,870.315 1563.24,868.598 1569.65,867.157 1576.05,865.993 
  1582.45,865.107 1588.86,864.501 1595.26,864.174 1601.66,864.128 1608.07,864.362 1614.47,864.875 1620.87,865.669 1627.28,866.741 1633.68,868.09 1640.08,869.716 
  
  "/>
<polyline clip-path="url(#clip043)" style="stroke:#3da44d; stroke-linecap:butt; stroke-linejoin:round; stroke-width:16; stroke-opacity:1; fill:none" points="
  365.843,886.305 372.246,889.89 378.649,893.73 385.053,897.82 391.456,902.157 397.859,906.736 404.262,911.554 410.666,916.604 417.069,921.882 423.472,927.382 
  429.875,933.1 436.278,939.03 442.682,945.164 449.085,951.499 455.488,958.026 461.891,964.74 468.295,971.634 474.698,978.701 481.101,985.935 487.504,993.326 
  493.907,1000.87 500.311,1008.56 506.714,1016.38 513.117,1024.33 519.52,1032.41 525.923,1040.59 532.327,1048.88 538.73,1057.26 545.133,1065.74 551.536,1074.29 
  557.94,1082.91 564.343,1091.6 570.746,1100.34 577.149,1109.12 583.552,1117.94 589.956,1126.79 596.359,1135.65 602.762,1144.53 609.165,1153.4 615.569,1162.27 
  621.972,1171.12 628.375,1179.94 634.778,1188.73 641.181,1197.48 647.585,1206.17 653.988,1214.81 660.391,1223.37 666.794,1231.86 673.198,1240.26 679.601,1248.57 
  686.004,1256.77 692.407,1264.86 698.81,1272.83 705.214,1280.68 711.617,1288.39 718.02,1295.95 724.423,1303.37 730.826,1310.63 737.23,1317.72 743.633,1324.65 
  750.036,1331.39 756.439,1337.95 762.843,1344.32 769.246,1350.48 775.649,1356.45 782.052,1362.2 788.455,1367.74 794.859,1373.05 801.262,1378.14 807.665,1382.99 
  814.068,1387.61 820.472,1391.99 826.875,1396.12 833.278,1400 839.681,1403.63 846.084,1407 852.488,1410.1 858.891,1412.95 865.294,1415.53 871.697,1417.83 
  878.1,1419.87 884.504,1421.63 890.907,1423.12 897.31,1424.33 903.713,1425.26 910.117,1425.91 916.52,1426.29 922.923,1426.38 929.326,1426.19 935.729,1425.72 
  942.133,1424.98 948.536,1423.95 954.939,1422.65 961.342,1421.07 967.746,1419.21 974.149,1417.08 980.552,1414.69 986.955,1412.02 993.358,1409.08 999.762,1405.89 
  1006.16,1402.43 1012.57,1398.72 1018.97,1394.75 1025.37,1390.54 1031.78,1386.08 1038.18,1381.38 1044.58,1376.45 1050.99,1371.28 1057.39,1365.89 1063.79,1360.28 
  1070.2,1354.46 1076.6,1348.42 1083,1342.19 1089.41,1335.76 1095.81,1329.14 1102.21,1322.33 1108.62,1315.35 1115.02,1308.2 1121.42,1300.88 1127.83,1293.42 
  1134.23,1285.8 1140.63,1278.04 1147.04,1270.15 1153.44,1262.14 1159.84,1254.01 1166.25,1245.77 1172.65,1237.44 1179.05,1229 1185.45,1220.49 1191.86,1211.9 
  1198.26,1203.25 1204.66,1194.53 1211.07,1185.77 1217.47,1176.97 1223.87,1168.14 1230.28,1159.28 1236.68,1150.41 1243.08,1141.53 1249.49,1132.66 1255.89,1123.8 
  1262.29,1114.96 1268.7,1106.15 1275.1,1097.38 1281.5,1088.66 1287.91,1080 1294.31,1071.4 1300.71,1062.87 1307.12,1054.42 1313.52,1046.07 1319.92,1037.82 
  1326.33,1029.67 1332.73,1021.64 1339.13,1013.73 1345.54,1005.95 1351.94,998.308 1358.34,990.815 1364.75,983.475 1371.15,976.298 1377.55,969.288 1383.95,962.454 
  1390.36,955.802 1396.76,949.339 1403.16,943.072 1409.57,937.005 1415.97,931.147 1422.37,925.502 1428.78,920.075 1435.18,914.874 1441.58,909.902 1447.99,905.164 
  1454.39,900.666 1460.79,896.412 1467.2,892.406 1473.6,888.651 1480,885.153 1486.41,881.914 1492.81,878.937 1499.21,876.226 1505.62,873.783 1512.02,871.61 
  1518.42,869.711 1524.83,868.086 1531.23,866.737 1537.63,865.666 1544.04,864.873 1550.44,864.36 1556.84,864.128 1563.24,864.175 1569.65,864.502 1576.05,865.11 
  1582.45,865.996 1588.86,867.161 1595.26,868.603 1601.66,870.321 1608.07,872.313 1614.47,874.577 1620.87,877.111 1627.28,879.912 1633.68,882.978 1640.08,886.305 
  
  "/>
<polyline clip-path="url(#clip043)" style="stroke:#c271d2; stroke-linecap:butt; stroke-linejoin:round; stroke-width:16; stroke-opacity:1; fill:none" points="
  365.843,913.217 372.246,918.343 378.649,923.696 385.053,929.27 391.456,935.06 397.859,941.058 404.262,947.261 410.666,953.66 417.069,960.251 423.472,967.026 
  429.875,973.978 436.278,981.102 442.682,988.389 449.085,995.832 455.488,1003.42 461.891,1011.16 468.295,1019.03 474.698,1027.02 481.101,1035.13 487.504,1043.35 
  493.907,1051.67 500.311,1060.09 506.714,1068.59 513.117,1077.17 519.52,1085.81 525.923,1094.51 532.327,1103.27 538.73,1112.07 545.133,1120.9 551.536,1129.75 
  557.94,1138.62 564.343,1147.49 570.746,1156.37 577.149,1165.23 583.552,1174.07 589.956,1182.89 596.359,1191.66 602.762,1200.39 609.165,1209.07 615.569,1217.68 
  621.972,1226.22 628.375,1234.68 634.778,1243.05 641.181,1251.32 647.585,1259.49 653.988,1267.54 660.391,1275.47 666.794,1283.27 673.198,1290.93 679.601,1298.45 
  686.004,1305.82 692.407,1313.02 698.81,1320.06 705.214,1326.92 711.617,1333.6 718.02,1340.1 724.423,1346.4 730.826,1352.5 737.23,1358.39 743.633,1364.07 
  750.036,1369.54 756.439,1374.78 762.843,1379.79 769.246,1384.56 775.649,1389.1 782.052,1393.4 788.455,1397.44 794.859,1401.24 801.262,1404.78 807.665,1408.06 
  814.068,1411.08 820.472,1413.84 826.875,1416.33 833.278,1418.54 839.681,1420.49 846.084,1422.16 852.488,1423.55 858.891,1424.67 865.294,1425.51 871.697,1426.07 
  878.1,1426.35 884.504,1426.35 890.907,1426.07 897.31,1425.51 903.713,1424.67 910.117,1423.55 916.52,1422.15 922.923,1420.48 929.326,1418.53 935.729,1416.31 
  942.133,1413.82 948.536,1411.07 954.939,1408.04 961.342,1404.76 967.746,1401.22 974.149,1397.42 980.552,1393.37 986.955,1389.07 993.358,1384.53 999.762,1379.76 
  1006.16,1374.74 1012.57,1369.5 1018.97,1364.04 1025.37,1358.36 1031.78,1352.46 1038.18,1346.36 1044.58,1340.06 1050.99,1333.56 1057.39,1326.88 1063.79,1320.02 
  1070.2,1312.98 1076.6,1305.77 1083,1298.4 1089.41,1290.89 1095.81,1283.22 1102.21,1275.42 1108.62,1267.49 1115.02,1259.44 1121.42,1251.27 1127.83,1243 
  1134.23,1234.63 1140.63,1226.17 1147.04,1217.63 1153.44,1209.02 1159.84,1200.34 1166.25,1191.61 1172.65,1182.83 1179.05,1174.02 1185.45,1165.18 1191.86,1156.31 
  1198.26,1147.44 1204.66,1138.56 1211.07,1129.69 1217.47,1120.84 1223.87,1112.01 1230.28,1103.22 1236.68,1094.46 1243.08,1085.76 1249.49,1077.11 1255.89,1068.54 
  1262.29,1060.04 1268.7,1051.62 1275.1,1043.3 1281.5,1035.08 1287.91,1026.97 1294.31,1018.98 1300.71,1011.11 1307.12,1003.38 1313.52,995.786 1319.92,988.343 
  1326.33,981.057 1332.73,973.935 1339.13,966.983 1345.54,960.209 1351.94,953.62 1358.34,947.221 1364.75,941.02 1371.15,935.023 1377.55,929.235 1383.95,923.663 
  1390.36,918.311 1396.76,913.185 1403.16,908.291 1409.57,903.633 1415.97,899.216 1422.37,895.044 1428.78,891.122 1435.18,887.453 1441.58,884.041 1447.99,880.889 
  1454.39,878.001 1460.79,875.379 1467.2,873.026 1473.6,870.945 1480,869.137 1486.41,867.604 1492.81,866.348 1499.21,865.37 1505.62,864.671 1512.02,864.251 
  1518.42,864.112 1524.83,864.253 1531.23,864.674 1537.63,865.375 1544.04,866.355 1550.44,867.613 1556.84,869.147 1563.24,870.957 1569.65,873.04 1576.05,875.394 
  1582.45,878.018 1588.86,880.908 1595.26,884.061 1601.66,887.475 1608.07,891.146 1614.47,895.07 1620.87,899.243 1627.28,903.662 1633.68,908.321 1640.08,913.217 
  
  "/>
<path clip-path="url(#clip040)" d="
M1745.82 1450.31 L2352.76 1450.31 L2352.76 867.111 L1745.82 867.111  Z
  " fill="#ffffff" fill-rule="evenodd" fill-opacity="1"/>
<polyline clip-path="url(#clip040)" style="stroke:#000000; stroke-linecap:butt; stroke-linejoin:round; stroke-width:4; stroke-opacity:1; fill:none" points="
  1745.82,1450.31 2352.76,1450.31 2352.76,867.111 1745.82,867.111 1745.82,1450.31 
  "/>
<polyline clip-path="url(#clip040)" style="stroke:#009af9; stroke-linecap:butt; stroke-linejoin:round; stroke-width:9; stroke-opacity:1; fill:none" points="
  1768.32,983.751 1903.33,983.751 
  "/>
<path clip-path="url(#clip040)" d="M1968.38 973.152 L1968.38 941.59 L1977.96 941.59 L1977.96 1022.63 L1968.38 1022.63 L1968.38 1013.88 Q1965.36 1019.09 1960.72 1021.64 Q1956.14 1024.14 1949.68 1024.14 Q1939.11 1024.14 1932.44 1015.7 Q1925.83 1007.27 1925.83 993.516 Q1925.83 979.767 1932.44 971.329 Q1939.11 962.892 1949.68 962.892 Q1956.14 962.892 1960.72 965.444 Q1965.36 967.944 1968.38 973.152 M1935.72 993.516 Q1935.72 1004.09 1940.05 1010.13 Q1944.42 1016.12 1952.03 1016.12 Q1959.63 1016.12 1964 1010.13 Q1968.38 1004.09 1968.38 993.516 Q1968.38 982.944 1964 976.954 Q1959.63 970.912 1952.03 970.912 Q1944.42 970.912 1940.05 976.954 Q1935.72 982.944 1935.72 993.516 Z" fill="#000000" fill-rule="evenodd" fill-opacity="1" /><path clip-path="url(#clip040)" d="M1993.54 964.298 L2039.06 964.298 L2039.06 973.048 L2003.01 1014.97 L2039.06 1014.97 L2039.06 1022.63 L1992.23 1022.63 L1992.23 1013.88 L2028.28 971.954 L1993.54 971.954 L1993.54 964.298 Z" fill="#000000" fill-rule="evenodd" fill-opacity="1" /><path clip-path="url(#clip040)" d="M2098.01 1040.34 L2098.01 1047.79 L2042.6 1047.79 L2042.6 1040.34 L2098.01 1040.34 Z" fill="#000000" fill-rule="evenodd" fill-opacity="1" /><path clip-path="url(#clip040)" d="M2110.2 1013.78 L2127.39 1013.78 L2127.39 954.454 L2108.69 958.204 L2108.69 948.621 L2127.29 944.871 L2137.81 944.871 L2137.81 1013.78 L2154.99 1013.78 L2154.99 1022.63 L2110.2 1022.63 L2110.2 1013.78 Z" fill="#000000" fill-rule="evenodd" fill-opacity="1" /><path clip-path="url(#clip040)" d="M2191.92 944.871 L2200.77 944.871 L2173.69 1032.53 L2164.84 1032.53 L2191.92 944.871 Z" fill="#000000" fill-rule="evenodd" fill-opacity="1" /><path clip-path="url(#clip040)" d="M2249.21 973.152 L2249.21 941.59 L2258.79 941.59 L2258.79 1022.63 L2249.21 1022.63 L2249.21 1013.88 Q2246.19 1019.09 2241.56 1021.64 Q2236.97 1024.14 2230.51 1024.14 Q2219.94 1024.14 2213.27 1015.7 Q2206.66 1007.27 2206.66 993.516 Q2206.66 979.767 2213.27 971.329 Q2219.94 962.892 2230.51 962.892 Q2236.97 962.892 2241.56 965.444 Q2246.19 967.944 2249.21 973.152 M2216.56 993.516 Q2216.56 1004.09 2220.88 1010.13 Q2225.25 1016.12 2232.86 1016.12 Q2240.46 1016.12 2244.84 1010.13 Q2249.21 1004.09 2249.21 993.516 Q2249.21 982.944 2244.84 976.954 Q2240.46 970.912 2232.86 970.912 Q2225.25 970.912 2220.88 976.954 Q2216.56 982.944 2216.56 993.516 Z" fill="#000000" fill-rule="evenodd" fill-opacity="1" /><path clip-path="url(#clip040)" d="M2288.01 947.735 L2288.01 964.298 L2307.75 964.298 L2307.75 971.746 L2288.01 971.746 L2288.01 1003.41 Q2288.01 1010.55 2289.94 1012.58 Q2291.92 1014.61 2297.91 1014.61 L2307.75 1014.61 L2307.75 1022.63 L2297.91 1022.63 Q2286.82 1022.63 2282.6 1018.52 Q2278.38 1014.35 2278.38 1003.41 L2278.38 971.746 L2271.35 971.746 L2271.35 964.298 L2278.38 964.298 L2278.38 947.735 L2288.01 947.735 Z" fill="#000000" fill-rule="evenodd" fill-opacity="1" /><polyline clip-path="url(#clip040)" style="stroke:#e26f46; stroke-linecap:butt; stroke-linejoin:round; stroke-width:9; stroke-opacity:1; fill:none" points="
  1768.32,1100.39 1903.33,1100.39 
  "/>
<path clip-path="url(#clip040)" d="M1968.38 1089.79 L1968.38 1058.23 L1977.96 1058.23 L1977.96 1139.27 L1968.38 1139.27 L1968.38 1130.52 Q1965.36 1135.73 1960.72 1138.28 Q1956.14 1140.78 1949.68 1140.78 Q1939.11 1140.78 1932.44 1132.34 Q1925.83 1123.91 1925.83 1110.16 Q1925.83 1096.41 1932.44 1087.97 Q1939.11 1079.53 1949.68 1079.53 Q1956.14 1079.53 1960.72 1082.08 Q1965.36 1084.58 1968.38 1089.79 M1935.72 1110.16 Q1935.72 1120.73 1940.05 1126.77 Q1944.42 1132.76 1952.03 1132.76 Q1959.63 1132.76 1964 1126.77 Q1968.38 1120.73 1968.38 1110.16 Q1968.38 1099.58 1964 1093.59 Q1959.63 1087.55 1952.03 1087.55 Q1944.42 1087.55 1940.05 1093.59 Q1935.72 1099.58 1935.72 1110.16 Z" fill="#000000" fill-rule="evenodd" fill-opacity="1" /><path clip-path="url(#clip040)" d="M1993.54 1080.94 L2039.06 1080.94 L2039.06 1089.69 L2003.01 1131.61 L2039.06 1131.61 L2039.06 1139.27 L1992.23 1139.27 L1992.23 1130.52 L2028.28 1088.59 L1993.54 1088.59 L1993.54 1080.94 Z" fill="#000000" fill-rule="evenodd" fill-opacity="1" /><path clip-path="url(#clip040)" d="M2098.01 1156.98 L2098.01 1164.43 L2042.6 1164.43 L2042.6 1156.98 L2098.01 1156.98 Z" fill="#000000" fill-rule="evenodd" fill-opacity="1" /><path clip-path="url(#clip040)" d="M2117.44 1130.42 L2154.16 1130.42 L2154.16 1139.27 L2104.79 1139.27 L2104.79 1130.42 Q2110.77 1124.22 2121.09 1113.8 Q2131.45 1103.33 2134.11 1100.31 Q2139.16 1094.64 2141.14 1090.73 Q2143.17 1086.77 2143.17 1082.97 Q2143.17 1076.77 2138.8 1072.86 Q2134.47 1068.96 2127.49 1068.96 Q2122.55 1068.96 2117.02 1070.68 Q2111.56 1072.4 2105.31 1075.89 L2105.31 1065.26 Q2111.66 1062.71 2117.18 1061.41 Q2122.7 1060.1 2127.29 1060.1 Q2139.37 1060.1 2146.56 1066.15 Q2153.74 1072.19 2153.74 1082.29 Q2153.74 1087.08 2151.92 1091.41 Q2150.15 1095.68 2145.41 1101.51 Q2144.11 1103.02 2137.13 1110.26 Q2130.15 1117.45 2117.44 1130.42 Z" fill="#000000" fill-rule="evenodd" fill-opacity="1" /><path clip-path="url(#clip040)" d="M2191.92 1061.51 L2200.77 1061.51 L2173.69 1149.17 L2164.84 1149.17 L2191.92 1061.51 Z" fill="#000000" fill-rule="evenodd" fill-opacity="1" /><path clip-path="url(#clip040)" d="M2249.21 1089.79 L2249.21 1058.23 L2258.79 1058.23 L2258.79 1139.27 L2249.21 1139.27 L2249.21 1130.52 Q2246.19 1135.73 2241.56 1138.28 Q2236.97 1140.78 2230.51 1140.78 Q2219.94 1140.78 2213.27 1132.34 Q2206.66 1123.91 2206.66 1110.16 Q2206.66 1096.41 2213.27 1087.97 Q2219.94 1079.53 2230.51 1079.53 Q2236.97 1079.53 2241.56 1082.08 Q2246.19 1084.58 2249.21 1089.79 M2216.56 1110.16 Q2216.56 1120.73 2220.88 1126.77 Q2225.25 1132.76 2232.86 1132.76 Q2240.46 1132.76 2244.84 1126.77 Q2249.21 1120.73 2249.21 1110.16 Q2249.21 1099.58 2244.84 1093.59 Q2240.46 1087.55 2232.86 1087.55 Q2225.25 1087.55 2220.88 1093.59 Q2216.56 1099.58 2216.56 1110.16 Z" fill="#000000" fill-rule="evenodd" fill-opacity="1" /><path clip-path="url(#clip040)" d="M2288.01 1064.38 L2288.01 1080.94 L2307.75 1080.94 L2307.75 1088.39 L2288.01 1088.39 L2288.01 1120.05 Q2288.01 1127.19 2289.94 1129.22 Q2291.92 1131.25 2297.91 1131.25 L2307.75 1131.25 L2307.75 1139.27 L2297.91 1139.27 Q2286.82 1139.27 2282.6 1135.16 Q2278.38 1130.99 2278.38 1120.05 L2278.38 1088.39 L2271.35 1088.39 L2271.35 1080.94 L2278.38 1080.94 L2278.38 1064.38 L2288.01 1064.38 Z" fill="#000000" fill-rule="evenodd" fill-opacity="1" /><polyline clip-path="url(#clip040)" style="stroke:#3da44d; stroke-linecap:butt; stroke-linejoin:round; stroke-width:9; stroke-opacity:1; fill:none" points="
  1768.32,1217.03 1903.33,1217.03 
  "/>
<path clip-path="url(#clip040)" d="M1968.38 1206.43 L1968.38 1174.87 L1977.96 1174.87 L1977.96 1255.91 L1968.38 1255.91 L1968.38 1247.16 Q1965.36 1252.37 1960.72 1254.92 Q1956.14 1257.42 1949.68 1257.42 Q1939.11 1257.42 1932.44 1248.98 Q1925.83 1240.55 1925.83 1226.8 Q1925.83 1213.05 1932.44 1204.61 Q1939.11 1196.17 1949.68 1196.17 Q1956.14 1196.17 1960.72 1198.72 Q1965.36 1201.22 1968.38 1206.43 M1935.72 1226.8 Q1935.72 1237.37 1940.05 1243.41 Q1944.42 1249.4 1952.03 1249.4 Q1959.63 1249.4 1964 1243.41 Q1968.38 1237.37 1968.38 1226.8 Q1968.38 1216.22 1964 1210.23 Q1959.63 1204.19 1952.03 1204.19 Q1944.42 1204.19 1940.05 1210.23 Q1935.72 1216.22 1935.72 1226.8 Z" fill="#000000" fill-rule="evenodd" fill-opacity="1" /><path clip-path="url(#clip040)" d="M1993.54 1197.58 L2039.06 1197.58 L2039.06 1206.33 L2003.01 1248.25 L2039.06 1248.25 L2039.06 1255.91 L1992.23 1255.91 L1992.23 1247.16 L2028.28 1205.23 L1993.54 1205.23 L1993.54 1197.58 Z" fill="#000000" fill-rule="evenodd" fill-opacity="1" /><path clip-path="url(#clip040)" d="M2098.01 1273.62 L2098.01 1281.07 L2042.6 1281.07 L2042.6 1273.62 L2098.01 1273.62 Z" fill="#000000" fill-rule="evenodd" fill-opacity="1" /><path clip-path="url(#clip040)" d="M2140.25 1213.98 Q2147.81 1215.6 2152.02 1220.7 Q2156.3 1225.81 2156.3 1233.31 Q2156.3 1244.82 2148.38 1251.12 Q2140.46 1257.42 2125.88 1257.42 Q2120.98 1257.42 2115.77 1256.43 Q2110.62 1255.49 2105.1 1253.57 L2105.1 1243.41 Q2109.47 1245.96 2114.68 1247.27 Q2119.89 1248.57 2125.57 1248.57 Q2135.46 1248.57 2140.62 1244.66 Q2145.83 1240.75 2145.83 1233.31 Q2145.83 1226.43 2140.98 1222.58 Q2136.19 1218.67 2127.6 1218.67 L2118.54 1218.67 L2118.54 1210.03 L2128.01 1210.03 Q2135.77 1210.03 2139.89 1206.95 Q2144 1203.83 2144 1197.99 Q2144 1192 2139.73 1188.83 Q2135.51 1185.6 2127.6 1185.6 Q2123.27 1185.6 2118.33 1186.54 Q2113.38 1187.47 2107.44 1189.45 L2107.44 1180.08 Q2113.43 1178.41 2118.64 1177.58 Q2123.9 1176.74 2128.54 1176.74 Q2140.51 1176.74 2147.49 1182.21 Q2154.47 1187.63 2154.47 1196.9 Q2154.47 1203.36 2150.77 1207.84 Q2147.08 1212.27 2140.25 1213.98 Z" fill="#000000" fill-rule="evenodd" fill-opacity="1" /><path clip-path="url(#clip040)" d="M2191.92 1178.15 L2200.77 1178.15 L2173.69 1265.81 L2164.84 1265.81 L2191.92 1178.15 Z" fill="#000000" fill-rule="evenodd" fill-opacity="1" /><path clip-path="url(#clip040)" d="M2249.21 1206.43 L2249.21 1174.87 L2258.79 1174.87 L2258.79 1255.91 L2249.21 1255.91 L2249.21 1247.16 Q2246.19 1252.37 2241.56 1254.92 Q2236.97 1257.42 2230.51 1257.42 Q2219.94 1257.42 2213.27 1248.98 Q2206.66 1240.55 2206.66 1226.8 Q2206.66 1213.05 2213.27 1204.61 Q2219.94 1196.17 2230.51 1196.17 Q2236.97 1196.17 2241.56 1198.72 Q2246.19 1201.22 2249.21 1206.43 M2216.56 1226.8 Q2216.56 1237.37 2220.88 1243.41 Q2225.25 1249.4 2232.86 1249.4 Q2240.46 1249.4 2244.84 1243.41 Q2249.21 1237.37 2249.21 1226.8 Q2249.21 1216.22 2244.84 1210.23 Q2240.46 1204.19 2232.86 1204.19 Q2225.25 1204.19 2220.88 1210.23 Q2216.56 1216.22 2216.56 1226.8 Z" fill="#000000" fill-rule="evenodd" fill-opacity="1" /><path clip-path="url(#clip040)" d="M2288.01 1181.02 L2288.01 1197.58 L2307.75 1197.58 L2307.75 1205.03 L2288.01 1205.03 L2288.01 1236.69 Q2288.01 1243.83 2289.94 1245.86 Q2291.92 1247.89 2297.91 1247.89 L2307.75 1247.89 L2307.75 1255.91 L2297.91 1255.91 Q2286.82 1255.91 2282.6 1251.8 Q2278.38 1247.63 2278.38 1236.69 L2278.38 1205.03 L2271.35 1205.03 L2271.35 1197.58 L2278.38 1197.58 L2278.38 1181.02 L2288.01 1181.02 Z" fill="#000000" fill-rule="evenodd" fill-opacity="1" /><polyline clip-path="url(#clip040)" style="stroke:#c271d2; stroke-linecap:butt; stroke-linejoin:round; stroke-width:9; stroke-opacity:1; fill:none" points="
  1768.32,1333.67 1903.33,1333.67 
  "/>
<path clip-path="url(#clip040)" d="M1968.38 1323.07 L1968.38 1291.51 L1977.96 1291.51 L1977.96 1372.55 L1968.38 1372.55 L1968.38 1363.8 Q1965.36 1369.01 1960.72 1371.56 Q1956.14 1374.06 1949.68 1374.06 Q1939.11 1374.06 1932.44 1365.62 Q1925.83 1357.19 1925.83 1343.44 Q1925.83 1329.69 1932.44 1321.25 Q1939.11 1312.81 1949.68 1312.81 Q1956.14 1312.81 1960.72 1315.36 Q1965.36 1317.86 1968.38 1323.07 M1935.72 1343.44 Q1935.72 1354.01 1940.05 1360.05 Q1944.42 1366.04 1952.03 1366.04 Q1959.63 1366.04 1964 1360.05 Q1968.38 1354.01 1968.38 1343.44 Q1968.38 1332.86 1964 1326.87 Q1959.63 1320.83 1952.03 1320.83 Q1944.42 1320.83 1940.05 1326.87 Q1935.72 1332.86 1935.72 1343.44 Z" fill="#000000" fill-rule="evenodd" fill-opacity="1" /><path clip-path="url(#clip040)" d="M1993.54 1314.22 L2039.06 1314.22 L2039.06 1322.97 L2003.01 1364.89 L2039.06 1364.89 L2039.06 1372.55 L1992.23 1372.55 L1992.23 1363.8 L2028.28 1321.87 L1993.54 1321.87 L1993.54 1314.22 Z" fill="#000000" fill-rule="evenodd" fill-opacity="1" /><path clip-path="url(#clip040)" d="M2098.01 1390.26 L2098.01 1397.71 L2042.6 1397.71 L2042.6 1390.26 L2098.01 1390.26 Z" fill="#000000" fill-rule="evenodd" fill-opacity="1" /><path clip-path="url(#clip040)" d="M2137.28 1303.96 L2110.72 1345.47 L2137.28 1345.47 L2137.28 1303.96 M2134.52 1294.79 L2147.75 1294.79 L2147.75 1345.47 L2158.85 1345.47 L2158.85 1354.22 L2147.75 1354.22 L2147.75 1372.55 L2137.28 1372.55 L2137.28 1354.22 L2102.18 1354.22 L2102.18 1344.06 L2134.52 1294.79 Z" fill="#000000" fill-rule="evenodd" fill-opacity="1" /><path clip-path="url(#clip040)" d="M2191.92 1294.79 L2200.77 1294.79 L2173.69 1382.45 L2164.84 1382.45 L2191.92 1294.79 Z" fill="#000000" fill-rule="evenodd" fill-opacity="1" /><path clip-path="url(#clip040)" d="M2249.21 1323.07 L2249.21 1291.51 L2258.79 1291.51 L2258.79 1372.55 L2249.21 1372.55 L2249.21 1363.8 Q2246.19 1369.01 2241.56 1371.56 Q2236.97 1374.06 2230.51 1374.06 Q2219.94 1374.06 2213.27 1365.62 Q2206.66 1357.19 2206.66 1343.44 Q2206.66 1329.69 2213.27 1321.25 Q2219.94 1312.81 2230.51 1312.81 Q2236.97 1312.81 2241.56 1315.36 Q2246.19 1317.86 2249.21 1323.07 M2216.56 1343.44 Q2216.56 1354.01 2220.88 1360.05 Q2225.25 1366.04 2232.86 1366.04 Q2240.46 1366.04 2244.84 1360.05 Q2249.21 1354.01 2249.21 1343.44 Q2249.21 1332.86 2244.84 1326.87 Q2240.46 1320.83 2232.86 1320.83 Q2225.25 1320.83 2220.88 1326.87 Q2216.56 1332.86 2216.56 1343.44 Z" fill="#000000" fill-rule="evenodd" fill-opacity="1" /><path clip-path="url(#clip040)" d="M2288.01 1297.66 L2288.01 1314.22 L2307.75 1314.22 L2307.75 1321.67 L2288.01 1321.67 L2288.01 1353.33 Q2288.01 1360.47 2289.94 1362.5 Q2291.92 1364.53 2297.91 1364.53 L2307.75 1364.53 L2307.75 1372.55 L2297.91 1372.55 Q2286.82 1372.55 2282.6 1368.44 Q2278.38 1364.27 2278.38 1353.33 L2278.38 1321.67 L2271.35 1321.67 L2271.35 1314.22 L2278.38 1314.22 L2278.38 1297.66 L2288.01 1297.66 Z" fill="#000000" fill-rule="evenodd" fill-opacity="1" /></svg>
