<?xml version="1.0" encoding="utf-8"?>
<svg xmlns="http://www.w3.org/2000/svg" xmlns:xlink="http://www.w3.org/1999/xlink" width="600" height="400" viewBox="0 0 2400 1600">
<defs>
  <clipPath id="clip080">
    <rect x="0" y="0" width="2400" height="1600"/>
  </clipPath>
</defs>
<path clip-path="url(#clip080)" d="
M0 1600 L2400 1600 L2400 0 L0 0  Z
  " fill="#ffffff" fill-rule="evenodd" fill-opacity="1"/>
<defs>
  <clipPath id="clip081">
    <rect x="480" y="0" width="1681" height="1600"/>
  </clipPath>
</defs>
<path clip-path="url(#clip080)" d="
M47.2441 659.248 L1845.26 659.248 L1845.26 47.2441 L47.2441 47.2441  Z
  " fill="#ffffff" fill-rule="evenodd" fill-opacity="1"/>
<defs>
  <clipPath id="clip082">
    <rect x="47" y="47" width="1799" height="613"/>
  </clipPath>
</defs>
<polyline clip-path="url(#clip080)" style="stroke:#000000; stroke-linecap:butt; stroke-linejoin:round; stroke-width:4; stroke-opacity:1; fill:none" points="
  47.2441,659.248 1845.26,659.248 
  "/>
<path clip-path="url(#clip080)" d="M846.695 713.664 L846.695 730.227 L866.434 730.227 L866.434 737.675 L846.695 737.675 L846.695 769.341 Q846.695 776.477 848.622 778.508 Q850.601 780.539 856.591 780.539 L866.434 780.539 L866.434 788.56 L856.591 788.56 Q845.497 788.56 841.278 784.445 Q837.06 780.279 837.06 769.341 L837.06 737.675 L830.028 737.675 L830.028 730.227 L837.06 730.227 L837.06 713.664 L846.695 713.664 Z" fill="#000000" fill-rule="evenodd" fill-opacity="1" /><path clip-path="url(#clip080)" d="M879.039 730.227 L888.622 730.227 L888.622 788.56 L879.039 788.56 L879.039 730.227 M879.039 707.519 L888.622 707.519 L888.622 719.654 L879.039 719.654 L879.039 707.519 Z" fill="#000000" fill-rule="evenodd" fill-opacity="1" /><path clip-path="url(#clip080)" d="M954.09 741.425 Q957.684 734.966 962.684 731.894 Q967.684 728.821 974.455 728.821 Q983.569 728.821 988.517 735.227 Q993.465 741.581 993.465 753.352 L993.465 788.56 L983.83 788.56 L983.83 753.664 Q983.83 745.279 980.861 741.216 Q977.892 737.154 971.798 737.154 Q964.351 737.154 960.028 742.102 Q955.705 747.05 955.705 755.591 L955.705 788.56 L946.069 788.56 L946.069 753.664 Q946.069 745.227 943.101 741.216 Q940.132 737.154 933.934 737.154 Q926.59 737.154 922.267 742.154 Q917.945 747.102 917.945 755.591 L917.945 788.56 L908.309 788.56 L908.309 730.227 L917.945 730.227 L917.945 739.289 Q921.226 733.925 925.809 731.373 Q930.392 728.821 936.694 728.821 Q943.049 728.821 947.476 732.05 Q951.955 735.279 954.09 741.425 Z" fill="#000000" fill-rule="evenodd" fill-opacity="1" /><path clip-path="url(#clip080)" d="M1062.48 756.998 L1062.48 761.685 L1018.41 761.685 Q1019.04 771.581 1024.35 776.789 Q1029.71 781.945 1039.25 781.945 Q1044.77 781.945 1049.92 780.591 Q1055.13 779.237 1060.24 776.529 L1060.24 785.591 Q1055.08 787.779 1049.66 788.924 Q1044.25 790.07 1038.67 790.07 Q1024.71 790.07 1016.54 781.945 Q1008.41 773.82 1008.41 759.966 Q1008.41 745.643 1016.12 737.258 Q1023.88 728.821 1037.01 728.821 Q1048.78 728.821 1055.6 736.425 Q1062.48 743.977 1062.48 756.998 M1052.89 754.185 Q1052.79 746.321 1048.46 741.633 Q1044.19 736.946 1037.11 736.946 Q1029.09 736.946 1024.25 741.477 Q1019.45 746.008 1018.73 754.237 L1052.89 754.185 Z" fill="#000000" fill-rule="evenodd" fill-opacity="1" /><polyline clip-path="url(#clip080)" style="stroke:#000000; stroke-linecap:butt; stroke-linejoin:round; stroke-width:4; stroke-opacity:1; fill:none" points="
  47.2441,659.248 47.2441,47.2441 
  "/>
<polyline clip-path="url(#clip082)" style="stroke:#009af9; stroke-linecap:butt; stroke-linejoin:round; stroke-width:16; stroke-opacity:1; fill:none" points="
  47.2441,353.246 56.2793,352.803 65.3146,352.241 74.3499,351.565 83.3851,350.775 92.4204,349.876 101.456,348.87 110.491,347.763 119.526,346.558 128.561,345.26 
  137.597,343.874 146.632,342.406 155.667,340.861 164.702,339.247 173.738,337.569 182.773,335.833 191.808,334.048 200.843,332.219 209.879,330.355 218.914,328.463 
  227.949,326.549 236.984,324.623 246.02,322.691 255.055,320.762 264.09,318.842 273.125,316.94 282.161,315.063 291.196,313.219 300.231,311.415 309.266,309.658 
  318.302,307.955 327.337,306.313 336.372,304.739 345.407,303.238 354.443,301.818 363.478,300.482 372.513,299.238 381.548,298.089 390.584,297.041 399.619,296.097 
  408.654,295.262 417.689,294.538 426.725,293.928 435.76,293.435 444.795,293.062 453.83,292.808 462.866,292.676 471.901,292.666 480.936,292.778 489.971,293.011 
  499.007,293.365 508.042,293.838 517.077,294.429 526.112,295.134 535.148,295.951 544.183,296.877 553.218,297.909 562.253,299.041 571.289,300.27 580.324,301.59 
  589.359,302.997 598.394,304.485 607.43,306.047 616.465,307.678 625.5,309.372 634.535,311.12 643.571,312.917 652.606,314.755 661.641,316.627 670.677,318.525 
  679.712,320.443 688.747,322.371 697.782,324.303 706.818,326.231 715.853,328.147 724.888,330.043 733.923,331.913 742.959,333.748 751.994,335.541 761.029,337.285 
  770.064,338.973 779.1,340.599 788.135,342.155 797.17,343.636 806.205,345.036 815.241,346.349 824.276,347.57 833.311,348.694 842.346,349.716 851.382,350.634 
  860.417,351.442 869.452,352.137 878.487,352.718 887.523,353.181 896.558,353.525 905.593,353.748 914.628,353.849 923.664,353.829 932.699,353.687 941.734,353.423 
  950.769,353.039 959.805,352.537 968.84,351.917 977.875,351.184 986.91,350.339 995.946,349.386 1004.98,348.329 1014.02,347.172 1023.05,345.92 1032.09,344.577 
  1041.12,343.15 1050.16,341.643 1059.19,340.063 1068.23,338.415 1077.26,336.708 1086.3,334.946 1095.33,333.139 1104.37,331.291 1113.4,329.412 1122.44,327.508 
  1131.47,325.587 1140.51,323.657 1149.54,321.726 1158.58,319.8 1167.62,317.888 1176.65,315.998 1185.69,314.136 1194.72,312.311 1203.76,310.53 1212.79,308.799 
  1221.83,307.126 1230.86,305.517 1239.9,303.979 1248.93,302.518 1257.97,301.139 1267,299.849 1276.04,298.651 1285.07,297.552 1294.11,296.556 1303.14,295.666 
  1312.18,294.885 1321.21,294.218 1330.25,293.667 1339.29,293.234 1348.32,292.92 1357.36,292.727 1366.39,292.656 1375.43,292.707 1384.46,292.88 1393.5,293.173 
  1402.53,293.587 1411.57,294.119 1420.6,294.767 1429.64,295.529 1438.67,296.401 1447.71,297.38 1456.74,298.462 1465.78,299.644 1474.81,300.919 1483.85,302.283 
  1492.88,303.731 1501.92,305.257 1510.95,306.855 1519.99,308.518 1529.03,310.239 1538.06,312.013 1547.1,313.831 1556.13,315.687 1565.17,317.573 1574.2,319.482 
  1583.24,321.406 1592.27,323.337 1601.31,325.268 1610.34,327.191 1619.38,329.098 1628.41,330.982 1637.45,332.835 1646.48,334.65 1655.52,336.419 1664.55,338.136 
  1673.59,339.794 1682.62,341.386 1691.66,342.905 1700.7,344.347 1709.73,345.704 1718.77,346.971 1727.8,348.144 1736.84,349.218 1745.87,350.188 1754.91,351.051 
  1763.94,351.804 1772.98,352.442 1782.01,352.964 1791.05,353.368 1800.08,353.651 1809.12,353.814 1818.15,353.854 1827.19,353.773 1836.22,353.57 1845.26,353.246 
  
  "/>
<polyline clip-path="url(#clip082)" style="stroke:#e26f46; stroke-linecap:butt; stroke-linejoin:round; stroke-width:16; stroke-opacity:1; fill:none" points="
  47.2441,248.142 56.2793,241.332 65.3146,234.634 74.3499,228.054 83.3851,221.599 92.4204,215.275 101.456,209.089 110.491,203.046 119.526,197.153 128.561,191.416 
  137.597,185.84 146.632,180.431 155.667,175.194 164.702,170.134 173.738,165.258 182.773,160.568 191.808,156.071 200.843,151.77 209.879,147.67 218.914,143.775 
  227.949,140.088 236.984,136.615 246.02,133.357 255.055,130.318 264.09,127.501 273.125,124.91 282.161,122.546 291.196,120.412 300.231,118.51 309.266,116.843 
  318.302,115.411 327.337,114.216 336.372,113.259 345.407,112.541 354.443,112.064 363.478,111.826 372.513,111.83 381.548,112.074 390.584,112.558 399.619,113.283 
  408.654,114.246 417.689,115.448 426.725,116.887 435.76,118.562 444.795,120.47 453.83,122.611 462.866,124.981 471.901,127.579 480.936,130.402 489.971,133.447 
  499.007,136.711 508.042,140.191 517.077,143.883 526.112,147.784 535.148,151.89 544.183,156.197 553.218,160.7 562.253,165.395 571.289,170.277 580.324,175.341 
  589.359,180.583 598.394,185.997 607.43,191.578 616.465,197.32 625.5,203.217 634.535,209.264 643.571,215.454 652.606,221.782 661.641,228.241 670.677,234.824 
  679.712,241.526 688.747,248.339 697.782,255.256 706.818,262.271 715.853,269.377 724.888,276.566 733.923,283.832 742.959,291.167 751.994,298.564 761.029,306.015 
  770.064,313.514 779.1,321.052 788.135,328.622 797.17,336.217 806.205,343.828 815.241,351.449 824.276,359.072 833.311,366.689 842.346,374.293 851.382,381.875 
  860.417,389.43 869.452,396.948 878.487,404.422 887.523,411.846 896.558,419.211 905.593,426.51 914.628,433.736 923.664,440.882 932.699,447.941 941.734,454.905 
  950.769,461.768 959.805,468.523 968.84,475.163 977.875,481.681 986.91,488.072 995.946,494.327 1004.98,500.443 1014.02,506.411 1023.05,512.227 1032.09,517.885 
  1041.12,523.378 1050.16,528.702 1059.19,533.85 1068.23,538.819 1077.26,543.603 1086.3,548.197 1095.33,552.597 1104.37,556.798 1113.4,560.796 1122.44,564.587 
  1131.47,568.167 1140.51,571.534 1149.54,574.682 1158.58,577.61 1167.62,580.315 1176.65,582.793 1185.69,585.042 1194.72,587.06 1203.76,588.845 1212.79,590.395 
  1221.83,591.709 1230.86,592.785 1239.9,593.622 1248.93,594.22 1257.97,594.577 1267,594.694 1276.04,594.57 1285.07,594.206 1294.11,593.601 1303.14,592.757 
  1312.18,591.674 1321.21,590.354 1330.25,588.797 1339.29,587.005 1348.32,584.98 1357.36,582.725 1366.39,580.24 1375.43,577.53 1384.46,574.595 1393.5,571.44 
  1402.53,568.068 1411.57,564.481 1420.6,560.684 1429.64,556.68 1438.67,552.473 1447.71,548.068 1456.74,543.469 1465.78,538.679 1474.81,533.705 1483.85,528.552 
  1492.88,523.223 1501.92,517.725 1510.95,512.063 1519.99,506.243 1529.03,500.27 1538.06,494.15 1547.1,487.89 1556.13,481.496 1565.17,474.974 1574.2,468.331 
  1583.24,461.573 1592.27,454.707 1601.31,447.74 1610.34,440.679 1619.38,433.53 1628.41,426.302 1637.45,419.001 1646.48,411.634 1655.52,404.209 1664.55,396.733 
  1673.59,389.214 1682.62,381.659 1691.66,374.075 1700.7,366.471 1709.73,358.854 1718.77,351.231 1727.8,343.61 1736.84,335.999 1745.87,328.405 1754.91,320.835 
  1763.94,313.298 1772.98,305.801 1782.01,298.351 1791.05,290.956 1800.08,283.623 1809.12,276.359 1818.15,269.172 1827.19,262.069 1836.22,255.057 1845.26,248.142 
  
  "/>
<polyline clip-path="url(#clip082)" style="stroke:#3da44d; stroke-linecap:butt; stroke-linejoin:round; stroke-width:16; stroke-opacity:1; fill:none" points="
  47.2441,372.758 56.2793,374.519 65.3146,376.195 74.3499,377.78 83.3851,379.266 92.4204,380.65 101.456,381.923 110.491,383.083 119.526,384.124 128.561,385.041 
  137.597,385.832 146.632,386.493 155.667,387.021 164.702,387.415 173.738,387.672 182.773,387.793 191.808,387.775 200.843,387.62 209.879,387.328 218.914,386.9 
  227.949,386.338 236.984,385.644 246.02,384.821 255.055,383.872 264.09,382.801 273.125,381.612 282.161,380.31 291.196,378.9 300.231,377.388 309.266,375.779 
  318.302,374.081 327.337,372.3 336.372,370.442 345.407,368.517 354.443,366.53 363.478,364.49 372.513,362.406 381.548,360.285 390.584,358.136 399.619,355.967 
  408.654,353.788 417.689,351.607 426.725,349.432 435.76,347.272 444.795,345.136 453.83,343.032 462.866,340.969 471.901,338.955 480.936,336.998 489.971,335.106 
  499.007,333.286 508.042,331.546 517.077,329.892 526.112,328.331 535.148,326.87 544.183,325.513 553.218,324.268 562.253,323.137 571.289,322.127 580.324,321.241 
  589.359,320.483 598.394,319.855 607.43,319.36 616.465,319 625.5,318.777 634.535,318.691 643.571,318.743 652.606,318.932 661.641,319.258 670.677,319.72 
  679.712,320.315 688.747,321.042 697.782,321.897 706.818,322.877 715.853,323.978 724.888,325.195 733.923,326.525 742.959,327.961 751.994,329.498 761.029,331.129 
  770.064,332.849 779.1,334.65 788.135,336.525 797.17,338.467 806.205,340.467 815.241,342.519 824.276,344.613 833.311,346.742 842.346,348.897 851.382,351.069 
  860.417,353.249 869.452,355.43 878.487,357.602 887.523,359.757 896.558,361.885 905.593,363.98 914.628,366.031 923.664,368.031 932.699,369.973 941.734,371.848 
  950.769,373.649 959.805,375.368 968.84,376.999 977.875,378.536 986.91,379.971 995.946,381.301 1004.98,382.518 1014.02,383.618 1023.05,384.598 1032.09,385.453 
  1041.12,386.179 1050.16,386.774 1059.19,387.235 1068.23,387.561 1077.26,387.75 1086.3,387.801 1095.33,387.715 1104.37,387.491 1113.4,387.131 1122.44,386.636 
  1131.47,386.007 1140.51,385.248 1149.54,384.362 1158.58,383.351 1167.62,382.221 1176.65,380.974 1185.69,379.618 1194.72,378.156 1203.76,376.595 1212.79,374.941 
  1221.83,373.2 1230.86,371.38 1239.9,369.488 1248.93,367.53 1257.97,365.516 1267,363.453 1276.04,361.349 1285.07,359.213 1294.11,357.054 1303.14,354.879 
  1312.18,352.697 1321.21,350.518 1330.25,348.349 1339.29,346.2 1348.32,344.08 1357.36,341.995 1366.39,339.956 1375.43,337.969 1384.46,336.044 1393.5,334.187 
  1402.53,332.406 1411.57,330.708 1420.6,329.1 1429.64,327.588 1438.67,326.178 1447.71,324.876 1456.74,323.688 1465.78,322.617 1474.81,321.668 1483.85,320.846 
  1492.88,320.152 1501.92,319.59 1510.95,319.163 1519.99,318.871 1529.03,318.716 1538.06,318.699 1547.1,318.82 1556.13,319.078 1565.17,319.472 1574.2,320.001 
  1583.24,320.662 1592.27,321.453 1601.31,322.371 1610.34,323.412 1619.38,324.572 1628.41,325.847 1637.45,327.23 1646.48,328.717 1655.52,330.302 1664.55,331.978 
  1673.59,333.74 1682.62,335.579 1691.66,337.488 1700.7,339.46 1709.73,341.487 1718.77,343.561 1727.8,345.674 1736.84,347.817 1745.87,349.981 1754.91,352.158 
  1763.94,354.34 1772.98,356.518 1782.01,358.682 1791.05,360.825 1800.08,362.937 1809.12,365.011 1818.15,367.038 1827.19,369.01 1836.22,370.919 1845.26,372.758 
  
  "/>
<path clip-path="url(#clip080)" d="
M1922.11 534.204 L2352.76 534.204 L2352.76 67.6442 L1922.11 67.6442  Z
  " fill="#ffffff" fill-rule="evenodd" fill-opacity="1"/>
<polyline clip-path="url(#clip080)" style="stroke:#000000; stroke-linecap:butt; stroke-linejoin:round; stroke-width:4; stroke-opacity:1; fill:none" points="
  1922.11,534.204 2352.76,534.204 2352.76,67.6442 1922.11,67.6442 1922.11,534.204 
  "/>
<polyline clip-path="url(#clip080)" style="stroke:#009af9; stroke-linecap:butt; stroke-linejoin:round; stroke-width:9; stroke-opacity:1; fill:none" points="
  1947.73,184.284 2101.43,184.284 
  "/>
<path clip-path="url(#clip080)" d="M2169.6 193.321 Q2169.6 182.904 2165.27 177.175 Q2161 171.446 2153.24 171.446 Q2145.53 171.446 2141.21 177.175 Q2136.94 182.904 2136.94 193.321 Q2136.94 203.685 2141.21 209.414 Q2145.53 215.143 2153.24 215.143 Q2161 215.143 2165.27 209.414 Q2169.6 203.685 2169.6 193.321 M2179.18 215.925 Q2179.18 230.82 2172.56 238.06 Q2165.95 245.352 2152.3 245.352 Q2147.25 245.352 2142.77 244.57 Q2138.29 243.841 2134.08 242.279 L2134.08 232.956 Q2138.29 235.247 2142.41 236.341 Q2146.52 237.435 2150.79 237.435 Q2160.22 237.435 2164.91 232.487 Q2169.6 227.591 2169.6 217.643 L2169.6 212.904 Q2166.63 218.06 2161.99 220.612 Q2157.36 223.164 2150.9 223.164 Q2140.17 223.164 2133.61 214.987 Q2127.04 206.81 2127.04 193.321 Q2127.04 179.779 2133.61 171.602 Q2140.17 163.425 2150.9 163.425 Q2157.36 163.425 2161.99 165.977 Q2166.63 168.529 2169.6 173.685 L2169.6 164.831 L2179.18 164.831 L2179.18 215.925 Z" fill="#000000" fill-rule="evenodd" fill-opacity="1" /><path clip-path="url(#clip080)" d="M2243.24 240.872 L2243.24 248.32 L2187.83 248.32 L2187.83 240.872 L2243.24 240.872 Z" fill="#000000" fill-rule="evenodd" fill-opacity="1" /><path clip-path="url(#clip080)" d="M2255.43 214.31 L2272.62 214.31 L2272.62 154.988 L2253.92 158.737 L2253.92 149.154 L2272.51 145.404 L2283.03 145.404 L2283.03 214.31 L2300.22 214.31 L2300.22 223.164 L2255.43 223.164 L2255.43 214.31 Z" fill="#000000" fill-rule="evenodd" fill-opacity="1" /><polyline clip-path="url(#clip080)" style="stroke:#e26f46; stroke-linecap:butt; stroke-linejoin:round; stroke-width:9; stroke-opacity:1; fill:none" points="
  1947.73,300.924 2101.43,300.924 
  "/>
<path clip-path="url(#clip080)" d="M2169.6 309.961 Q2169.6 299.544 2165.27 293.815 Q2161 288.086 2153.24 288.086 Q2145.53 288.086 2141.21 293.815 Q2136.94 299.544 2136.94 309.961 Q2136.94 320.325 2141.21 326.054 Q2145.53 331.783 2153.24 331.783 Q2161 331.783 2165.27 326.054 Q2169.6 320.325 2169.6 309.961 M2179.18 332.565 Q2179.18 347.46 2172.56 354.7 Q2165.95 361.992 2152.3 361.992 Q2147.25 361.992 2142.77 361.21 Q2138.29 360.481 2134.08 358.919 L2134.08 349.596 Q2138.29 351.887 2142.41 352.981 Q2146.52 354.075 2150.79 354.075 Q2160.22 354.075 2164.91 349.127 Q2169.6 344.231 2169.6 334.283 L2169.6 329.544 Q2166.63 334.7 2161.99 337.252 Q2157.36 339.804 2150.9 339.804 Q2140.17 339.804 2133.61 331.627 Q2127.04 323.45 2127.04 309.961 Q2127.04 296.419 2133.61 288.242 Q2140.17 280.065 2150.9 280.065 Q2157.36 280.065 2161.99 282.617 Q2166.63 285.169 2169.6 290.325 L2169.6 281.471 L2179.18 281.471 L2179.18 332.565 Z" fill="#000000" fill-rule="evenodd" fill-opacity="1" /><path clip-path="url(#clip080)" d="M2243.24 357.512 L2243.24 364.96 L2187.83 364.96 L2187.83 357.512 L2243.24 357.512 Z" fill="#000000" fill-rule="evenodd" fill-opacity="1" /><path clip-path="url(#clip080)" d="M2262.67 330.95 L2299.39 330.95 L2299.39 339.804 L2250.01 339.804 L2250.01 330.95 Q2256 324.752 2266.31 314.336 Q2276.68 303.867 2279.33 300.846 Q2284.39 295.169 2286.37 291.263 Q2288.4 287.305 2288.4 283.502 Q2288.4 277.305 2284.02 273.398 Q2279.7 269.492 2272.72 269.492 Q2267.77 269.492 2262.25 271.211 Q2256.78 272.93 2250.53 276.419 L2250.53 265.794 Q2256.89 263.242 2262.41 261.94 Q2267.93 260.638 2272.51 260.638 Q2284.6 260.638 2291.78 266.68 Q2298.97 272.721 2298.97 282.825 Q2298.97 287.617 2297.15 291.94 Q2295.38 296.211 2290.64 302.044 Q2289.33 303.554 2282.36 310.794 Q2275.38 317.981 2262.67 330.95 Z" fill="#000000" fill-rule="evenodd" fill-opacity="1" /><polyline clip-path="url(#clip080)" style="stroke:#3da44d; stroke-linecap:butt; stroke-linejoin:round; stroke-width:9; stroke-opacity:1; fill:none" points="
  1947.73,417.564 2101.43,417.564 
  "/>
<path clip-path="url(#clip080)" d="M2169.6 426.601 Q2169.6 416.184 2165.27 410.455 Q2161 404.726 2153.24 404.726 Q2145.53 404.726 2141.21 410.455 Q2136.94 416.184 2136.94 426.601 Q2136.94 436.965 2141.21 442.694 Q2145.53 448.423 2153.24 448.423 Q2161 448.423 2165.27 442.694 Q2169.6 436.965 2169.6 426.601 M2179.18 449.205 Q2179.18 464.1 2172.56 471.34 Q2165.95 478.632 2152.3 478.632 Q2147.25 478.632 2142.77 477.85 Q2138.29 477.121 2134.08 475.559 L2134.08 466.236 Q2138.29 468.527 2142.41 469.621 Q2146.52 470.715 2150.79 470.715 Q2160.22 470.715 2164.91 465.767 Q2169.6 460.871 2169.6 450.923 L2169.6 446.184 Q2166.63 451.34 2161.99 453.892 Q2157.36 456.444 2150.9 456.444 Q2140.17 456.444 2133.61 448.267 Q2127.04 440.09 2127.04 426.601 Q2127.04 413.059 2133.61 404.882 Q2140.17 396.705 2150.9 396.705 Q2157.36 396.705 2161.99 399.257 Q2166.63 401.809 2169.6 406.965 L2169.6 398.111 L2179.18 398.111 L2179.18 449.205 Z" fill="#000000" fill-rule="evenodd" fill-opacity="1" /><path clip-path="url(#clip080)" d="M2243.24 474.152 L2243.24 481.6 L2187.83 481.6 L2187.83 474.152 L2243.24 474.152 Z" fill="#000000" fill-rule="evenodd" fill-opacity="1" /><path clip-path="url(#clip080)" d="M2285.48 414.517 Q2293.03 416.132 2297.25 421.236 Q2301.52 426.34 2301.52 433.84 Q2301.52 445.351 2293.61 451.653 Q2285.69 457.955 2271.11 457.955 Q2266.21 457.955 2261 456.965 Q2255.85 456.028 2250.32 454.1 L2250.32 443.944 Q2254.7 446.496 2259.91 447.798 Q2265.12 449.101 2270.79 449.101 Q2280.69 449.101 2285.85 445.194 Q2291.05 441.288 2291.05 433.84 Q2291.05 426.965 2286.21 423.111 Q2281.42 419.205 2272.82 419.205 L2263.76 419.205 L2263.76 410.559 L2273.24 410.559 Q2281 410.559 2285.12 407.486 Q2289.23 404.361 2289.23 398.528 Q2289.23 392.538 2284.96 389.361 Q2280.74 386.132 2272.82 386.132 Q2268.5 386.132 2263.55 387.07 Q2258.61 388.007 2252.67 389.986 L2252.67 380.611 Q2258.66 378.945 2263.87 378.111 Q2269.13 377.278 2273.76 377.278 Q2285.74 377.278 2292.72 382.747 Q2299.7 388.163 2299.7 397.434 Q2299.7 403.892 2296 408.372 Q2292.3 412.799 2285.48 414.517 Z" fill="#000000" fill-rule="evenodd" fill-opacity="1" /><path clip-path="url(#clip080)" d="
M47.2441 1459.25 L1626.09 1459.25 L1626.09 847.244 L47.2441 847.244  Z
  " fill="#ffffff" fill-rule="evenodd" fill-opacity="1"/>
<defs>
  <clipPath id="clip083">
    <rect x="47" y="847" width="1580" height="613"/>
  </clipPath>
</defs>
<polyline clip-path="url(#clip080)" style="stroke:#000000; stroke-linecap:butt; stroke-linejoin:round; stroke-width:4; stroke-opacity:1; fill:none" points="
  47.2441,1459.25 1626.09,1459.25 
  "/>
<path clip-path="url(#clip080)" d="M737.112 1513.66 L737.112 1530.23 L756.852 1530.23 L756.852 1537.67 L737.112 1537.67 L737.112 1569.34 Q737.112 1576.48 739.039 1578.51 Q741.018 1580.54 747.008 1580.54 L756.852 1580.54 L756.852 1588.56 L747.008 1588.56 Q735.914 1588.56 731.696 1584.45 Q727.477 1580.28 727.477 1569.34 L727.477 1537.67 L720.446 1537.67 L720.446 1530.23 L727.477 1530.23 L727.477 1513.66 L737.112 1513.66 Z" fill="#000000" fill-rule="evenodd" fill-opacity="1" /><path clip-path="url(#clip080)" d="M769.456 1530.23 L779.039 1530.23 L779.039 1588.56 L769.456 1588.56 L769.456 1530.23 M769.456 1507.52 L779.039 1507.52 L779.039 1519.65 L769.456 1519.65 L769.456 1507.52 Z" fill="#000000" fill-rule="evenodd" fill-opacity="1" /><path clip-path="url(#clip080)" d="M844.507 1541.42 Q848.101 1534.97 853.101 1531.89 Q858.101 1528.82 864.872 1528.82 Q873.986 1528.82 878.934 1535.23 Q883.882 1541.58 883.882 1553.35 L883.882 1588.56 L874.247 1588.56 L874.247 1553.66 Q874.247 1545.28 871.278 1541.22 Q868.309 1537.15 862.216 1537.15 Q854.768 1537.15 850.445 1542.1 Q846.122 1547.05 846.122 1555.59 L846.122 1588.56 L836.487 1588.56 L836.487 1553.66 Q836.487 1545.23 833.518 1541.22 Q830.549 1537.15 824.351 1537.15 Q817.008 1537.15 812.685 1542.15 Q808.362 1547.1 808.362 1555.59 L808.362 1588.56 L798.726 1588.56 L798.726 1530.23 L808.362 1530.23 L808.362 1539.29 Q811.643 1533.92 816.226 1531.37 Q820.81 1528.82 827.112 1528.82 Q833.466 1528.82 837.893 1532.05 Q842.372 1535.28 844.507 1541.42 Z" fill="#000000" fill-rule="evenodd" fill-opacity="1" /><path clip-path="url(#clip080)" d="M952.892 1557 L952.892 1561.69 L908.83 1561.69 Q909.455 1571.58 914.767 1576.79 Q920.132 1581.95 929.663 1581.95 Q935.184 1581.95 940.34 1580.59 Q945.549 1579.24 950.653 1576.53 L950.653 1585.59 Q945.496 1587.78 940.08 1588.92 Q934.663 1590.07 929.09 1590.07 Q915.132 1590.07 906.955 1581.95 Q898.83 1573.82 898.83 1559.97 Q898.83 1545.64 906.538 1537.26 Q914.299 1528.82 927.424 1528.82 Q939.194 1528.82 946.017 1536.42 Q952.892 1543.98 952.892 1557 M943.309 1554.19 Q943.205 1546.32 938.882 1541.63 Q934.611 1536.95 927.528 1536.95 Q919.507 1536.95 914.663 1541.48 Q909.872 1546.01 909.143 1554.24 L943.309 1554.19 Z" fill="#000000" fill-rule="evenodd" fill-opacity="1" /><polyline clip-path="url(#clip080)" style="stroke:#000000; stroke-linecap:butt; stroke-linejoin:round; stroke-width:4; stroke-opacity:1; fill:none" points="
  47.2441,1459.25 47.2441,847.244 
  "/>
<polyline clip-path="url(#clip083)" style="stroke:#009af9; stroke-linecap:butt; stroke-linejoin:round; stroke-width:16; stroke-opacity:1; fill:none" points="
  47.2441,1141.09 55.178,1137.33 63.1119,1133.63 71.0458,1130.01 78.9798,1126.48 86.9137,1123.06 94.8476,1119.76 102.782,1116.6 110.715,1113.58 118.649,1110.72 
  126.583,1108.02 134.517,1105.51 142.451,1103.19 150.385,1101.07 158.319,1099.15 166.253,1097.45 174.187,1095.98 182.121,1094.73 190.055,1093.72 197.989,1092.94 
  205.922,1092.4 213.856,1092.11 221.79,1092.06 229.724,1092.25 237.658,1092.69 245.592,1093.36 253.526,1094.28 261.46,1095.43 269.394,1096.81 277.328,1098.42 
  285.262,1100.25 293.196,1102.28 301.129,1104.52 309.063,1106.96 316.997,1109.58 324.931,1112.37 332.865,1115.32 340.799,1118.43 348.733,1121.68 356.667,1125.05 
  364.601,1128.53 372.535,1132.11 380.469,1135.78 388.403,1139.52 396.336,1143.31 404.27,1147.14 412.204,1150.99 420.138,1154.86 428.072,1158.72 436.006,1162.55 
  443.94,1166.35 451.874,1170.1 459.808,1173.78 467.742,1177.37 475.676,1180.87 483.61,1184.27 491.544,1187.53 499.477,1190.66 507.411,1193.65 515.345,1196.47 
  523.279,1199.11 531.213,1201.58 539.147,1203.85 547.081,1205.92 555.015,1207.78 562.949,1209.43 570.883,1210.85 578.817,1212.04 586.751,1212.99 594.684,1213.71 
  602.618,1214.19 610.552,1214.42 618.486,1214.41 626.42,1214.16 634.354,1213.66 642.288,1212.92 650.222,1211.95 658.156,1210.74 666.09,1209.3 674.024,1207.64 
  681.958,1205.76 689.891,1203.67 697.825,1201.38 705.759,1198.9 713.693,1196.23 721.627,1193.4 729.561,1190.4 737.495,1187.26 745.429,1183.98 753.363,1180.58 
  761.297,1177.07 769.231,1173.47 777.165,1169.78 785.098,1166.03 793.032,1162.23 800.966,1158.39 808.9,1154.53 816.834,1150.67 824.768,1146.81 832.702,1142.99 
  840.636,1139.2 848.57,1135.47 856.504,1131.81 864.438,1128.23 872.372,1124.76 880.306,1121.4 888.239,1118.16 896.173,1115.07 904.107,1112.13 912.041,1109.35 
  919.975,1106.74 927.909,1104.33 935.843,1102.1 943.777,1100.08 951.711,1098.28 959.645,1096.69 967.579,1095.33 975.513,1094.19 983.446,1093.3 991.38,1092.64 
  999.314,1092.22 1007.25,1092.05 1015.18,1092.12 1023.12,1092.44 1031.05,1092.99 1038.98,1093.79 1046.92,1094.83 1054.85,1096.09 1062.79,1097.59 1070.72,1099.31 
  1078.65,1101.24 1086.59,1103.38 1094.52,1105.72 1102.46,1108.24 1110.39,1110.95 1118.32,1113.83 1126.26,1116.86 1134.19,1120.04 1142.12,1123.35 1150.06,1126.78 
  1157.99,1130.31 1165.93,1133.94 1173.86,1137.64 1181.79,1141.41 1189.73,1145.22 1197.66,1149.06 1205.6,1152.93 1213.53,1156.79 1221.46,1160.64 1229.4,1164.46 
  1237.33,1168.23 1245.27,1171.95 1253.2,1175.59 1261.13,1179.14 1269.07,1182.58 1277,1185.92 1284.94,1189.12 1292.87,1192.17 1300.8,1195.08 1308.74,1197.81 
  1316.67,1200.37 1324.6,1202.74 1332.54,1204.91 1340.47,1206.88 1348.41,1208.63 1356.34,1210.17 1364.27,1211.47 1372.21,1212.54 1380.14,1213.38 1388.08,1213.98 
  1396.01,1214.33 1403.94,1214.45 1411.88,1214.31 1419.81,1213.94 1427.75,1213.32 1435.68,1212.46 1443.61,1211.37 1451.55,1210.05 1459.48,1208.49 1467.42,1206.72 
  1475.35,1204.74 1483.28,1202.55 1491.22,1200.16 1499.15,1197.59 1507.09,1194.84 1515.02,1191.92 1522.95,1188.85 1530.89,1185.64 1538.82,1182.3 1546.75,1178.84 
  1554.69,1175.28 1562.62,1171.63 1570.56,1167.91 1578.49,1164.14 1586.42,1160.31 1594.36,1156.46 1602.29,1152.6 1610.23,1148.74 1618.16,1144.9 1626.09,1141.09 
  
  "/>
<polyline clip-path="url(#clip083)" style="stroke:#e26f46; stroke-linecap:butt; stroke-linejoin:round; stroke-width:16; stroke-opacity:1; fill:none" points="
  47.2441,935.875 55.178,939.301 63.1119,942.94 71.0458,946.79 78.9798,950.845 86.9137,955.101 94.8476,959.556 102.782,964.203 110.715,969.039 118.649,974.058 
  126.583,979.256 134.517,984.628 142.451,990.167 150.385,995.87 158.319,1001.73 166.253,1007.74 174.187,1013.89 182.121,1020.19 190.055,1026.61 197.989,1033.17 
  205.922,1039.84 213.856,1046.63 221.79,1053.52 229.724,1060.51 237.658,1067.59 245.592,1074.76 253.526,1082.01 261.46,1089.33 269.394,1096.71 277.328,1104.15 
  285.262,1111.64 293.196,1119.16 301.129,1126.73 309.063,1134.32 316.997,1141.92 324.931,1149.54 332.865,1157.17 340.799,1164.79 348.733,1172.39 356.667,1179.98 
  364.601,1187.54 372.535,1195.07 380.469,1202.56 388.403,1209.99 396.336,1217.38 404.27,1224.69 412.204,1231.94 420.138,1239.1 428.072,1246.18 436.006,1253.17 
  443.94,1260.06 451.874,1266.84 459.808,1273.51 467.742,1280.06 475.676,1286.49 483.61,1292.78 491.544,1298.93 499.477,1304.93 507.411,1310.79 515.345,1316.49 
  523.279,1322.02 531.213,1327.39 539.147,1332.58 547.081,1337.59 555.015,1342.42 562.949,1347.07 570.883,1351.52 578.817,1355.77 586.751,1359.82 594.684,1363.66 
  602.618,1367.29 610.552,1370.71 618.486,1373.92 626.42,1376.9 634.354,1379.66 642.288,1382.19 650.222,1384.5 658.156,1386.58 666.09,1388.42 674.024,1390.03 
  681.958,1391.4 689.891,1392.54 697.825,1393.44 705.759,1394.09 713.693,1394.51 721.627,1394.69 729.561,1394.62 737.495,1394.32 745.429,1393.77 753.363,1392.99 
  761.297,1391.97 769.231,1390.71 777.165,1389.21 785.098,1387.48 793.032,1385.51 800.966,1383.31 808.9,1380.88 816.834,1378.23 824.768,1375.35 832.702,1372.25 
  840.636,1368.93 848.57,1365.4 856.504,1361.65 864.438,1357.7 872.372,1353.54 880.306,1349.19 888.239,1344.64 896.173,1339.89 904.107,1334.97 912.041,1329.86 
  919.975,1324.57 927.909,1319.11 935.843,1313.49 943.777,1307.71 951.711,1301.78 959.645,1295.69 967.579,1289.47 975.513,1283.11 983.446,1276.62 991.38,1270 
  999.314,1263.27 1007.25,1256.43 1015.18,1249.49 1023.12,1242.45 1031.05,1235.33 1038.98,1228.12 1046.92,1220.83 1054.85,1213.48 1062.79,1206.07 1070.72,1198.61 
  1078.65,1191.1 1086.59,1183.55 1094.52,1175.97 1102.46,1168.37 1110.39,1160.76 1118.32,1153.14 1126.26,1145.51 1134.19,1137.9 1142.12,1130.3 1150.06,1122.73 
  1157.99,1115.18 1165.93,1107.67 1173.86,1100.21 1181.79,1092.8 1189.73,1085.45 1197.66,1078.17 1205.6,1070.96 1213.53,1063.84 1221.46,1056.8 1229.4,1049.86 
  1237.33,1043.02 1245.27,1036.3 1253.2,1029.69 1261.13,1023.2 1269.07,1016.84 1277,1010.62 1284.94,1004.54 1292.87,998.612 1300.8,992.835 1308.74,987.219 
  1316.67,981.767 1324.6,976.487 1332.54,971.382 1340.47,966.459 1348.41,961.723 1356.34,957.177 1364.27,952.826 1372.21,948.676 1380.14,944.729 1388.08,940.99 
  1396.01,937.463 1403.94,934.151 1411.88,931.057 1419.81,928.185 1427.75,925.537 1435.68,923.116 1443.61,920.924 1451.55,918.964 1459.48,917.238 1467.42,915.746 
  1475.35,914.492 1483.28,913.476 1491.22,912.698 1499.15,912.16 1507.09,911.863 1515.02,911.806 1522.95,911.99 1530.89,912.415 1538.82,913.079 1546.75,913.983 
  1554.69,915.126 1562.62,916.505 1570.56,918.121 1578.49,919.971 1586.42,922.054 1594.36,924.367 1602.29,926.908 1610.23,929.675 1618.16,932.665 1626.09,935.875 
  
  "/>
<polyline clip-path="url(#clip083)" style="stroke:#3da44d; stroke-linecap:butt; stroke-linejoin:round; stroke-width:16; stroke-opacity:1; fill:none" points="
  47.2441,1210.29 55.178,1207.71 63.1119,1204.92 71.0458,1201.92 78.9798,1198.72 86.9137,1195.35 94.8476,1191.81 102.782,1188.11 110.715,1184.28 118.649,1180.32 
  126.583,1176.25 134.517,1172.09 142.451,1167.86 150.385,1163.57 158.319,1159.23 166.253,1154.88 174.187,1150.51 182.121,1146.16 190.055,1141.84 197.989,1137.56 
  205.922,1133.34 213.856,1129.2 221.79,1125.16 229.724,1121.23 237.658,1117.43 245.592,1113.77 253.526,1110.27 261.46,1106.94 269.394,1103.8 277.328,1100.85 
  285.262,1098.11 293.196,1095.59 301.129,1093.3 309.063,1091.25 316.997,1089.44 324.931,1087.89 332.865,1086.61 340.799,1085.58 348.733,1084.83 356.667,1084.35 
  364.601,1084.14 372.535,1084.21 380.469,1084.56 388.403,1085.17 396.336,1086.06 404.27,1087.22 412.204,1088.64 420.138,1090.32 428.072,1092.25 436.006,1094.42 
  443.94,1096.83 451.874,1099.46 459.808,1102.31 467.742,1105.35 475.676,1108.59 483.61,1112.01 491.544,1115.59 499.477,1119.33 507.411,1123.2 515.345,1127.18 
  523.279,1131.27 531.213,1135.45 539.147,1139.7 547.081,1144.01 555.015,1148.35 562.949,1152.71 570.883,1157.07 578.817,1161.42 586.751,1165.73 594.684,1170 
  602.618,1174.19 610.552,1178.31 618.486,1182.32 626.42,1186.22 634.354,1189.99 642.288,1193.61 650.222,1197.07 658.156,1200.35 666.09,1203.45 674.024,1206.35 
  681.958,1209.03 689.891,1211.5 697.825,1213.73 705.759,1215.72 713.693,1217.46 721.627,1218.94 729.561,1220.17 737.495,1221.12 745.429,1221.81 753.363,1222.22 
  761.297,1222.36 769.231,1222.22 777.165,1221.81 785.098,1221.12 793.032,1220.16 800.966,1218.94 808.9,1217.45 816.834,1215.71 824.768,1213.72 832.702,1211.49 
  840.636,1209.03 848.57,1206.34 856.504,1203.44 864.438,1200.34 872.372,1197.06 880.306,1193.6 888.239,1189.98 896.173,1186.21 904.107,1182.31 912.041,1178.3 
  919.975,1174.18 927.909,1169.98 935.843,1165.72 943.777,1161.4 951.711,1157.06 959.645,1152.69 967.579,1148.33 975.513,1143.99 983.446,1139.69 991.38,1135.44 
  999.314,1131.26 1007.25,1127.17 1015.18,1123.18 1023.12,1119.32 1031.05,1115.58 1038.98,1112 1046.92,1108.58 1054.85,1105.34 1062.79,1102.3 1070.72,1099.45 
  1078.65,1096.82 1086.59,1094.41 1094.52,1092.24 1102.46,1090.31 1110.39,1088.64 1118.32,1087.22 1126.26,1086.06 1134.19,1085.17 1142.12,1084.55 1150.06,1084.21 
  1157.99,1084.14 1165.93,1084.35 1173.86,1084.83 1181.79,1085.59 1189.73,1086.61 1197.66,1087.9 1205.6,1089.45 1213.53,1091.25 1221.46,1093.31 1229.4,1095.6 
  1237.33,1098.12 1245.27,1100.86 1253.2,1103.81 1261.13,1106.95 1269.07,1110.28 1277,1113.78 1284.94,1117.44 1292.87,1121.25 1300.8,1125.17 1308.74,1129.22 
  1316.67,1133.35 1324.6,1137.57 1332.54,1141.85 1340.47,1146.17 1348.41,1150.53 1356.34,1154.89 1364.27,1159.25 1372.21,1163.58 1380.14,1167.87 1388.08,1172.1 
  1396.01,1176.26 1403.94,1180.33 1411.88,1184.29 1419.81,1188.12 1427.75,1191.82 1435.68,1195.36 1443.61,1198.73 1451.55,1201.93 1459.48,1204.93 1467.42,1207.72 
  1475.35,1210.29 1483.28,1212.64 1491.22,1214.75 1499.15,1216.62 1507.09,1218.23 1515.02,1219.59 1522.95,1220.68 1530.89,1221.5 1538.82,1222.05 1546.75,1222.32 
  1554.69,1222.32 1562.62,1222.05 1570.56,1221.5 1578.49,1220.68 1586.42,1219.59 1594.36,1218.23 1602.29,1216.62 1610.23,1214.75 1618.16,1212.64 1626.09,1210.29 
  
  "/>
<path clip-path="url(#clip080)" d="
M1702.94 1334.2 L2352.76 1334.2 L2352.76 867.644 L1702.94 867.644  Z
  " fill="#ffffff" fill-rule="evenodd" fill-opacity="1"/>
<polyline clip-path="url(#clip080)" style="stroke:#000000; stroke-linecap:butt; stroke-linejoin:round; stroke-width:4; stroke-opacity:1; fill:none" points="
  1702.94,1334.2 2352.76,1334.2 2352.76,867.644 1702.94,867.644 1702.94,1334.2 
  "/>
<polyline clip-path="url(#clip080)" style="stroke:#009af9; stroke-linecap:butt; stroke-linejoin:round; stroke-width:9; stroke-opacity:1; fill:none" points="
  1728.56,984.284 1882.26,984.284 
  "/>
<path clip-path="url(#clip080)" d="M1950.43 973.685 L1950.43 942.123 L1960.01 942.123 L1960.01 1023.16 L1950.43 1023.16 L1950.43 1014.41 Q1947.41 1019.62 1942.77 1022.17 Q1938.19 1024.67 1931.73 1024.67 Q1921.16 1024.67 1914.49 1016.24 Q1907.88 1007.8 1907.88 994.05 Q1907.88 980.3 1914.49 971.862 Q1921.16 963.425 1931.73 963.425 Q1938.19 963.425 1942.77 965.977 Q1947.41 968.477 1950.43 973.685 M1917.77 994.05 Q1917.77 1004.62 1922.1 1010.66 Q1926.47 1016.65 1934.08 1016.65 Q1941.68 1016.65 1946.06 1010.66 Q1950.43 1004.62 1950.43 994.05 Q1950.43 983.477 1946.06 977.487 Q1941.68 971.446 1934.08 971.446 Q1926.47 971.446 1922.1 977.487 Q1917.77 983.477 1917.77 994.05 Z" fill="#000000" fill-rule="evenodd" fill-opacity="1" /><path clip-path="url(#clip080)" d="M2018.14 993.321 Q2018.14 982.904 2013.82 977.175 Q2009.54 971.446 2001.78 971.446 Q1994.08 971.446 1989.75 977.175 Q1985.48 982.904 1985.48 993.321 Q1985.48 1003.69 1989.75 1009.41 Q1994.08 1015.14 2001.78 1015.14 Q2009.54 1015.14 2013.82 1009.41 Q2018.14 1003.69 2018.14 993.321 M2027.72 1015.92 Q2027.72 1030.82 2021.11 1038.06 Q2014.49 1045.35 2000.85 1045.35 Q1995.79 1045.35 1991.32 1044.57 Q1986.84 1043.84 1982.62 1042.28 L1982.62 1032.96 Q1986.84 1035.25 1990.95 1036.34 Q1995.07 1037.43 1999.34 1037.43 Q2008.76 1037.43 2013.45 1032.49 Q2018.14 1027.59 2018.14 1017.64 L2018.14 1012.9 Q2015.17 1018.06 2010.53 1020.61 Q2005.9 1023.16 1999.44 1023.16 Q1988.71 1023.16 1982.15 1014.99 Q1975.59 1006.81 1975.59 993.321 Q1975.59 979.779 1982.15 971.602 Q1988.71 963.425 1999.44 963.425 Q2005.9 963.425 2010.53 965.977 Q2015.17 968.529 2018.14 973.685 L2018.14 964.831 L2027.72 964.831 L2027.72 1015.92 Z" fill="#000000" fill-rule="evenodd" fill-opacity="1" /><path clip-path="url(#clip080)" d="M2091.78 1040.87 L2091.78 1048.32 L2036.37 1048.32 L2036.37 1040.87 L2091.78 1040.87 Z" fill="#000000" fill-rule="evenodd" fill-opacity="1" /><path clip-path="url(#clip080)" d="M2103.97 1014.31 L2121.16 1014.31 L2121.16 954.988 L2102.46 958.737 L2102.46 949.154 L2121.05 945.404 L2131.58 945.404 L2131.58 1014.31 L2148.76 1014.31 L2148.76 1023.16 L2103.97 1023.16 L2103.97 1014.31 Z" fill="#000000" fill-rule="evenodd" fill-opacity="1" /><path clip-path="url(#clip080)" d="M2185.69 945.404 L2194.54 945.404 L2167.46 1033.06 L2158.61 1033.06 L2185.69 945.404 Z" fill="#000000" fill-rule="evenodd" fill-opacity="1" /><path clip-path="url(#clip080)" d="M2242.98 973.685 L2242.98 942.123 L2252.56 942.123 L2252.56 1023.16 L2242.98 1023.16 L2242.98 1014.41 Q2239.96 1019.62 2235.32 1022.17 Q2230.74 1024.67 2224.28 1024.67 Q2213.71 1024.67 2207.04 1016.24 Q2200.43 1007.8 2200.43 994.05 Q2200.43 980.3 2207.04 971.862 Q2213.71 963.425 2224.28 963.425 Q2230.74 963.425 2235.32 965.977 Q2239.96 968.477 2242.98 973.685 M2210.32 994.05 Q2210.32 1004.62 2214.65 1010.66 Q2219.02 1016.65 2226.63 1016.65 Q2234.23 1016.65 2238.61 1010.66 Q2242.98 1004.62 2242.98 994.05 Q2242.98 983.477 2238.61 977.487 Q2234.23 971.446 2226.63 971.446 Q2219.02 971.446 2214.65 977.487 Q2210.32 983.477 2210.32 994.05 Z" fill="#000000" fill-rule="evenodd" fill-opacity="1" /><path clip-path="url(#clip080)" d="M2281.78 948.269 L2281.78 964.831 L2301.52 964.831 L2301.52 972.279 L2281.78 972.279 L2281.78 1003.95 Q2281.78 1011.08 2283.71 1013.11 Q2285.69 1015.14 2291.68 1015.14 L2301.52 1015.14 L2301.52 1023.16 L2291.68 1023.16 Q2280.58 1023.16 2276.37 1019.05 Q2272.15 1014.88 2272.15 1003.95 L2272.15 972.279 L2265.12 972.279 L2265.12 964.831 L2272.15 964.831 L2272.15 948.269 L2281.78 948.269 Z" fill="#000000" fill-rule="evenodd" fill-opacity="1" /><polyline clip-path="url(#clip080)" style="stroke:#e26f46; stroke-linecap:butt; stroke-linejoin:round; stroke-width:9; stroke-opacity:1; fill:none" points="
  1728.56,1100.92 1882.26,1100.92 
  "/>
<path clip-path="url(#clip080)" d="M1950.43 1090.33 L1950.43 1058.76 L1960.01 1058.76 L1960.01 1139.8 L1950.43 1139.8 L1950.43 1131.05 Q1947.41 1136.26 1942.77 1138.81 Q1938.19 1141.31 1931.73 1141.31 Q1921.16 1141.31 1914.49 1132.88 Q1907.88 1124.44 1907.88 1110.69 Q1907.88 1096.94 1914.49 1088.5 Q1921.16 1080.06 1931.73 1080.06 Q1938.19 1080.06 1942.77 1082.62 Q1947.41 1085.12 1950.43 1090.33 M1917.77 1110.69 Q1917.77 1121.26 1922.1 1127.3 Q1926.47 1133.29 1934.08 1133.29 Q1941.68 1133.29 1946.06 1127.3 Q1950.43 1121.26 1950.43 1110.69 Q1950.43 1100.12 1946.06 1094.13 Q1941.68 1088.09 1934.08 1088.09 Q1926.47 1088.09 1922.1 1094.13 Q1917.77 1100.12 1917.77 1110.69 Z" fill="#000000" fill-rule="evenodd" fill-opacity="1" /><path clip-path="url(#clip080)" d="M2018.14 1109.96 Q2018.14 1099.54 2013.82 1093.81 Q2009.54 1088.09 2001.78 1088.09 Q1994.08 1088.09 1989.75 1093.81 Q1985.48 1099.54 1985.48 1109.96 Q1985.48 1120.33 1989.75 1126.05 Q1994.08 1131.78 2001.78 1131.78 Q2009.54 1131.78 2013.82 1126.05 Q2018.14 1120.33 2018.14 1109.96 M2027.72 1132.56 Q2027.72 1147.46 2021.11 1154.7 Q2014.49 1161.99 2000.85 1161.99 Q1995.79 1161.99 1991.32 1161.21 Q1986.84 1160.48 1982.62 1158.92 L1982.62 1149.6 Q1986.84 1151.89 1990.95 1152.98 Q1995.07 1154.07 1999.34 1154.07 Q2008.76 1154.07 2013.45 1149.13 Q2018.14 1144.23 2018.14 1134.28 L2018.14 1129.54 Q2015.17 1134.7 2010.53 1137.25 Q2005.9 1139.8 1999.44 1139.8 Q1988.71 1139.8 1982.15 1131.63 Q1975.59 1123.45 1975.59 1109.96 Q1975.59 1096.42 1982.15 1088.24 Q1988.71 1080.06 1999.44 1080.06 Q2005.9 1080.06 2010.53 1082.62 Q2015.17 1085.17 2018.14 1090.33 L2018.14 1081.47 L2027.72 1081.47 L2027.72 1132.56 Z" fill="#000000" fill-rule="evenodd" fill-opacity="1" /><path clip-path="url(#clip080)" d="M2091.78 1157.51 L2091.78 1164.96 L2036.37 1164.96 L2036.37 1157.51 L2091.78 1157.51 Z" fill="#000000" fill-rule="evenodd" fill-opacity="1" /><path clip-path="url(#clip080)" d="M2111.21 1130.95 L2147.93 1130.95 L2147.93 1139.8 L2098.55 1139.8 L2098.55 1130.95 Q2104.54 1124.75 2114.86 1114.34 Q2125.22 1103.87 2127.88 1100.85 Q2132.93 1095.17 2134.91 1091.26 Q2136.94 1087.3 2136.94 1083.5 Q2136.94 1077.3 2132.56 1073.4 Q2128.24 1069.49 2121.26 1069.49 Q2116.31 1069.49 2110.79 1071.21 Q2105.33 1072.93 2099.08 1076.42 L2099.08 1065.79 Q2105.43 1063.24 2110.95 1061.94 Q2116.47 1060.64 2121.05 1060.64 Q2133.14 1060.64 2140.33 1066.68 Q2147.51 1072.72 2147.51 1082.83 Q2147.51 1087.62 2145.69 1091.94 Q2143.92 1096.21 2139.18 1102.04 Q2137.88 1103.55 2130.9 1110.79 Q2123.92 1117.98 2111.21 1130.95 Z" fill="#000000" fill-rule="evenodd" fill-opacity="1" /><path clip-path="url(#clip080)" d="M2185.69 1062.04 L2194.54 1062.04 L2167.46 1149.7 L2158.61 1149.7 L2185.69 1062.04 Z" fill="#000000" fill-rule="evenodd" fill-opacity="1" /><path clip-path="url(#clip080)" d="M2242.98 1090.33 L2242.98 1058.76 L2252.56 1058.76 L2252.56 1139.8 L2242.98 1139.8 L2242.98 1131.05 Q2239.96 1136.26 2235.32 1138.81 Q2230.74 1141.31 2224.28 1141.31 Q2213.71 1141.31 2207.04 1132.88 Q2200.43 1124.44 2200.43 1110.69 Q2200.43 1096.94 2207.04 1088.5 Q2213.71 1080.06 2224.28 1080.06 Q2230.74 1080.06 2235.32 1082.62 Q2239.96 1085.12 2242.98 1090.33 M2210.32 1110.69 Q2210.32 1121.26 2214.65 1127.3 Q2219.02 1133.29 2226.63 1133.29 Q2234.23 1133.29 2238.61 1127.3 Q2242.98 1121.26 2242.98 1110.69 Q2242.98 1100.12 2238.61 1094.13 Q2234.23 1088.09 2226.63 1088.09 Q2219.02 1088.09 2214.65 1094.13 Q2210.32 1100.12 2210.32 1110.69 Z" fill="#000000" fill-rule="evenodd" fill-opacity="1" /><path clip-path="url(#clip080)" d="M2281.78 1064.91 L2281.78 1081.47 L2301.52 1081.47 L2301.52 1088.92 L2281.78 1088.92 L2281.78 1120.59 Q2281.78 1127.72 2283.71 1129.75 Q2285.69 1131.78 2291.68 1131.78 L2301.52 1131.78 L2301.52 1139.8 L2291.68 1139.8 Q2280.58 1139.8 2276.37 1135.69 Q2272.15 1131.52 2272.15 1120.59 L2272.15 1088.92 L2265.12 1088.92 L2265.12 1081.47 L2272.15 1081.47 L2272.15 1064.91 L2281.78 1064.91 Z" fill="#000000" fill-rule="evenodd" fill-opacity="1" /><polyline clip-path="url(#clip080)" style="stroke:#3da44d; stroke-linecap:butt; stroke-linejoin:round; stroke-width:9; stroke-opacity:1; fill:none" points="
  1728.56,1217.56 1882.26,1217.56 
  "/>
<path clip-path="url(#clip080)" d="M1950.43 1206.97 L1950.43 1175.4 L1960.01 1175.4 L1960.01 1256.44 L1950.43 1256.44 L1950.43 1247.69 Q1947.41 1252.9 1942.77 1255.45 Q1938.19 1257.95 1931.73 1257.95 Q1921.16 1257.95 1914.49 1249.52 Q1907.88 1241.08 1907.88 1227.33 Q1907.88 1213.58 1914.49 1205.14 Q1921.16 1196.7 1931.73 1196.7 Q1938.19 1196.7 1942.77 1199.26 Q1947.41 1201.76 1950.43 1206.97 M1917.77 1227.33 Q1917.77 1237.9 1922.1 1243.94 Q1926.47 1249.93 1934.08 1249.93 Q1941.68 1249.93 1946.06 1243.94 Q1950.43 1237.9 1950.43 1227.33 Q1950.43 1216.76 1946.06 1210.77 Q1941.68 1204.73 1934.08 1204.73 Q1926.47 1204.73 1922.1 1210.77 Q1917.77 1216.76 1917.77 1227.33 Z" fill="#000000" fill-rule="evenodd" fill-opacity="1" /><path clip-path="url(#clip080)" d="M2018.14 1226.6 Q2018.14 1216.18 2013.82 1210.45 Q2009.54 1204.73 2001.78 1204.73 Q1994.08 1204.73 1989.75 1210.45 Q1985.48 1216.18 1985.48 1226.6 Q1985.48 1236.97 1989.75 1242.69 Q1994.08 1248.42 2001.78 1248.42 Q2009.54 1248.42 2013.82 1242.69 Q2018.14 1236.97 2018.14 1226.6 M2027.72 1249.2 Q2027.72 1264.1 2021.11 1271.34 Q2014.49 1278.63 2000.85 1278.63 Q1995.79 1278.63 1991.32 1277.85 Q1986.84 1277.12 1982.62 1275.56 L1982.62 1266.24 Q1986.84 1268.53 1990.95 1269.62 Q1995.07 1270.71 1999.34 1270.71 Q2008.76 1270.71 2013.45 1265.77 Q2018.14 1260.87 2018.14 1250.92 L2018.14 1246.18 Q2015.17 1251.34 2010.53 1253.89 Q2005.9 1256.44 1999.44 1256.44 Q1988.71 1256.44 1982.15 1248.27 Q1975.59 1240.09 1975.59 1226.6 Q1975.59 1213.06 1982.15 1204.88 Q1988.71 1196.7 1999.44 1196.7 Q2005.9 1196.7 2010.53 1199.26 Q2015.17 1201.81 2018.14 1206.97 L2018.14 1198.11 L2027.72 1198.11 L2027.72 1249.2 Z" fill="#000000" fill-rule="evenodd" fill-opacity="1" /><path clip-path="url(#clip080)" d="M2091.78 1274.15 L2091.78 1281.6 L2036.37 1281.6 L2036.37 1274.15 L2091.78 1274.15 Z" fill="#000000" fill-rule="evenodd" fill-opacity="1" /><path clip-path="url(#clip080)" d="M2134.02 1214.52 Q2141.58 1216.13 2145.79 1221.24 Q2150.06 1226.34 2150.06 1233.84 Q2150.06 1245.35 2142.15 1251.65 Q2134.23 1257.95 2119.65 1257.95 Q2114.75 1257.95 2109.54 1256.97 Q2104.39 1256.03 2098.87 1254.1 L2098.87 1243.94 Q2103.24 1246.5 2108.45 1247.8 Q2113.66 1249.1 2119.34 1249.1 Q2129.23 1249.1 2134.39 1245.19 Q2139.6 1241.29 2139.6 1233.84 Q2139.6 1226.97 2134.75 1223.11 Q2129.96 1219.2 2121.37 1219.2 L2112.3 1219.2 L2112.3 1210.56 L2121.78 1210.56 Q2129.54 1210.56 2133.66 1207.49 Q2137.77 1204.36 2137.77 1198.53 Q2137.77 1192.54 2133.5 1189.36 Q2129.28 1186.13 2121.37 1186.13 Q2117.04 1186.13 2112.1 1187.07 Q2107.15 1188.01 2101.21 1189.99 L2101.21 1180.61 Q2107.2 1178.94 2112.41 1178.11 Q2117.67 1177.28 2122.3 1177.28 Q2134.28 1177.28 2141.26 1182.75 Q2148.24 1188.16 2148.24 1197.43 Q2148.24 1203.89 2144.54 1208.37 Q2140.85 1212.8 2134.02 1214.52 Z" fill="#000000" fill-rule="evenodd" fill-opacity="1" /><path clip-path="url(#clip080)" d="M2185.69 1178.68 L2194.54 1178.68 L2167.46 1266.34 L2158.61 1266.34 L2185.69 1178.68 Z" fill="#000000" fill-rule="evenodd" fill-opacity="1" /><path clip-path="url(#clip080)" d="M2242.98 1206.97 L2242.98 1175.4 L2252.56 1175.4 L2252.56 1256.44 L2242.98 1256.44 L2242.98 1247.69 Q2239.96 1252.9 2235.32 1255.45 Q2230.74 1257.95 2224.28 1257.95 Q2213.71 1257.95 2207.04 1249.52 Q2200.43 1241.08 2200.43 1227.33 Q2200.43 1213.58 2207.04 1205.14 Q2213.71 1196.7 2224.28 1196.7 Q2230.74 1196.7 2235.32 1199.26 Q2239.96 1201.76 2242.98 1206.97 M2210.32 1227.33 Q2210.32 1237.9 2214.65 1243.94 Q2219.02 1249.93 2226.63 1249.93 Q2234.23 1249.93 2238.61 1243.94 Q2242.98 1237.9 2242.98 1227.33 Q2242.98 1216.76 2238.61 1210.77 Q2234.23 1204.73 2226.63 1204.73 Q2219.02 1204.73 2214.65 1210.77 Q2210.32 1216.76 2210.32 1227.33 Z" fill="#000000" fill-rule="evenodd" fill-opacity="1" /><path clip-path="url(#clip080)" d="M2281.78 1181.55 L2281.78 1198.11 L2301.52 1198.11 L2301.52 1205.56 L2281.78 1205.56 L2281.78 1237.23 Q2281.78 1244.36 2283.71 1246.39 Q2285.69 1248.42 2291.68 1248.42 L2301.52 1248.42 L2301.52 1256.44 L2291.68 1256.44 Q2280.58 1256.44 2276.37 1252.33 Q2272.15 1248.16 2272.15 1237.23 L2272.15 1205.56 L2265.12 1205.56 L2265.12 1198.11 L2272.15 1198.11 L2272.15 1181.55 L2281.78 1181.55 Z" fill="#000000" fill-rule="evenodd" fill-opacity="1" /></svg>
