<?xml version="1.0" encoding="utf-8"?>
<svg xmlns="http://www.w3.org/2000/svg" xmlns:xlink="http://www.w3.org/1999/xlink" width="600" height="400" viewBox="0 0 2400 1600">
<defs>
  <clipPath id="clip480">
    <rect x="0" y="0" width="2400" height="1600"/>
  </clipPath>
</defs>
<path clip-path="url(#clip480)" d="
M0 1600 L2400 1600 L2400 0 L0 0  Z
  " fill="#ffffff" fill-rule="evenodd" fill-opacity="1"/>
<defs>
  <clipPath id="clip481">
    <rect x="480" y="0" width="1681" height="1600"/>
  </clipPath>
</defs>
<path clip-path="url(#clip480)" d="
M387.218 1349.74 L1451.52 1349.74 L1451.52 47.2441 L387.218 47.2441  Z
  " fill="#ffffff" fill-rule="evenodd" fill-opacity="1"/>
<defs>
  <clipPath id="clip482">
    <rect x="387" y="47" width="1065" height="1303"/>
  </clipPath>
</defs>
<polyline clip-path="url(#clip480)" style="stroke:#000000; stroke-linecap:butt; stroke-linejoin:round; stroke-width:4; stroke-opacity:1; fill:none" points="
  387.218,1349.74 1451.52,1349.74 
  "/>
<polyline clip-path="url(#clip480)" style="stroke:#000000; stroke-linecap:butt; stroke-linejoin:round; stroke-width:4; stroke-opacity:1; fill:none" points="
  417.34,1349.74 417.34,1330.84 
  "/>
<polyline clip-path="url(#clip480)" style="stroke:#000000; stroke-linecap:butt; stroke-linejoin:round; stroke-width:4; stroke-opacity:1; fill:none" points="
  668.355,1349.74 668.355,1330.84 
  "/>
<polyline clip-path="url(#clip480)" style="stroke:#000000; stroke-linecap:butt; stroke-linejoin:round; stroke-width:4; stroke-opacity:1; fill:none" points="
  919.371,1349.74 919.371,1330.84 
  "/>
<polyline clip-path="url(#clip480)" style="stroke:#000000; stroke-linecap:butt; stroke-linejoin:round; stroke-width:4; stroke-opacity:1; fill:none" points="
  1170.39,1349.74 1170.39,1330.84 
  "/>
<polyline clip-path="url(#clip480)" style="stroke:#000000; stroke-linecap:butt; stroke-linejoin:round; stroke-width:4; stroke-opacity:1; fill:none" points="
  1421.4,1349.74 1421.4,1330.84 
  "/>
<path clip-path="url(#clip480)" d="M417.34 1395.31 Q409.215 1395.31 405.1 1403.33 Q401.038 1411.3 401.038 1427.34 Q401.038 1443.33 405.1 1451.35 Q409.215 1459.32 417.34 1459.32 Q425.517 1459.32 429.579 1451.35 Q433.694 1443.33 433.694 1427.34 Q433.694 1411.3 429.579 1403.33 Q425.517 1395.31 417.34 1395.31 M417.34 1386.97 Q430.413 1386.97 437.287 1397.34 Q444.215 1407.65 444.215 1427.34 Q444.215 1446.97 437.287 1457.34 Q430.413 1467.65 417.34 1467.65 Q404.267 1467.65 397.34 1457.34 Q390.465 1446.97 390.465 1427.34 Q390.465 1407.65 397.34 1397.34 Q404.267 1386.97 417.34 1386.97 Z" fill="#000000" fill-rule="evenodd" fill-opacity="1" /><path clip-path="url(#clip480)" d="M646.481 1388.38 L687.782 1388.38 L687.782 1397.23 L656.116 1397.23 L656.116 1416.3 Q658.408 1415.52 660.699 1415.15 Q662.991 1414.73 665.283 1414.73 Q678.303 1414.73 685.907 1421.87 Q693.512 1429 693.512 1441.19 Q693.512 1453.74 685.699 1460.72 Q677.887 1467.65 663.668 1467.65 Q658.772 1467.65 653.668 1466.82 Q648.616 1465.98 643.199 1464.32 L643.199 1453.74 Q647.887 1456.3 652.887 1457.55 Q657.887 1458.8 663.46 1458.8 Q672.47 1458.8 677.73 1454.06 Q682.991 1449.32 682.991 1441.19 Q682.991 1433.07 677.73 1428.33 Q672.47 1423.59 663.46 1423.59 Q659.241 1423.59 655.022 1424.53 Q650.856 1425.46 646.481 1427.44 L646.481 1388.38 Z" fill="#000000" fill-rule="evenodd" fill-opacity="1" /><path clip-path="url(#clip480)" d="M862.418 1457.29 L879.606 1457.29 L879.606 1397.96 L860.908 1401.71 L860.908 1392.13 L879.502 1388.38 L890.022 1388.38 L890.022 1457.29 L907.21 1457.29 L907.21 1466.14 L862.418 1466.14 L862.418 1457.29 Z" fill="#000000" fill-rule="evenodd" fill-opacity="1" /><path clip-path="url(#clip480)" d="M950.96 1395.31 Q942.835 1395.31 938.72 1403.33 Q934.658 1411.3 934.658 1427.34 Q934.658 1443.33 938.72 1451.35 Q942.835 1459.32 950.96 1459.32 Q959.137 1459.32 963.199 1451.35 Q967.314 1443.33 967.314 1427.34 Q967.314 1411.3 963.199 1403.33 Q959.137 1395.31 950.96 1395.31 M950.96 1386.97 Q964.032 1386.97 970.907 1397.34 Q977.834 1407.65 977.834 1427.34 Q977.834 1446.97 970.907 1457.34 Q964.032 1467.65 950.96 1467.65 Q937.887 1467.65 930.96 1457.34 Q924.085 1446.97 924.085 1427.34 Q924.085 1407.65 930.96 1397.34 Q937.887 1386.97 950.96 1386.97 Z" fill="#000000" fill-rule="evenodd" fill-opacity="1" /><path clip-path="url(#clip480)" d="M1114.55 1457.29 L1131.74 1457.29 L1131.74 1397.96 L1113.04 1401.71 L1113.04 1392.13 L1131.64 1388.38 L1142.16 1388.38 L1142.16 1457.29 L1159.35 1457.29 L1159.35 1466.14 L1114.55 1466.14 L1114.55 1457.29 Z" fill="#000000" fill-rule="evenodd" fill-opacity="1" /><path clip-path="url(#clip480)" d="M1180.7 1388.38 L1222 1388.38 L1222 1397.23 L1190.33 1397.23 L1190.33 1416.3 Q1192.63 1415.52 1194.92 1415.15 Q1197.21 1414.73 1199.5 1414.73 Q1212.52 1414.73 1220.13 1421.87 Q1227.73 1429 1227.73 1441.19 Q1227.73 1453.74 1219.92 1460.72 Q1212.11 1467.65 1197.89 1467.65 Q1192.99 1467.65 1187.89 1466.82 Q1182.83 1465.98 1177.42 1464.32 L1177.42 1453.74 Q1182.11 1456.3 1187.11 1457.55 Q1192.11 1458.8 1197.68 1458.8 Q1206.69 1458.8 1211.95 1454.06 Q1217.21 1449.32 1217.21 1441.19 Q1217.21 1433.07 1211.95 1428.33 Q1206.69 1423.59 1197.68 1423.59 Q1193.46 1423.59 1189.24 1424.53 Q1185.07 1425.46 1180.7 1427.44 L1180.7 1388.38 Z" fill="#000000" fill-rule="evenodd" fill-opacity="1" /><path clip-path="url(#clip480)" d="M1373.64 1457.29 L1410.36 1457.29 L1410.36 1466.14 L1360.99 1466.14 L1360.99 1457.29 Q1366.98 1451.09 1377.29 1440.67 Q1387.65 1430.2 1390.31 1427.18 Q1395.36 1421.5 1397.34 1417.6 Q1399.37 1413.64 1399.37 1409.84 Q1399.37 1403.64 1395 1399.73 Q1390.67 1395.83 1383.69 1395.83 Q1378.75 1395.83 1373.23 1397.55 Q1367.76 1399.27 1361.51 1402.75 L1361.51 1392.13 Q1367.86 1389.58 1373.38 1388.28 Q1378.9 1386.97 1383.49 1386.97 Q1395.57 1386.97 1402.76 1393.02 Q1409.94 1399.06 1409.94 1409.16 Q1409.94 1413.95 1408.12 1418.28 Q1406.35 1422.55 1401.61 1428.38 Q1400.31 1429.89 1393.33 1437.13 Q1386.35 1444.32 1373.64 1457.29 Z" fill="#000000" fill-rule="evenodd" fill-opacity="1" /><path clip-path="url(#clip480)" d="M1454.94 1395.31 Q1446.82 1395.31 1442.7 1403.33 Q1438.64 1411.3 1438.64 1427.34 Q1438.64 1443.33 1442.7 1451.35 Q1446.82 1459.32 1454.94 1459.32 Q1463.12 1459.32 1467.18 1451.35 Q1471.3 1443.33 1471.3 1427.34 Q1471.3 1411.3 1467.18 1403.33 Q1463.12 1395.31 1454.94 1395.31 M1454.94 1386.97 Q1468.02 1386.97 1474.89 1397.34 Q1481.82 1407.65 1481.82 1427.34 Q1481.82 1446.97 1474.89 1457.34 Q1468.02 1467.65 1454.94 1467.65 Q1441.87 1467.65 1434.94 1457.34 Q1428.07 1446.97 1428.07 1427.34 Q1428.07 1407.65 1434.94 1397.34 Q1441.87 1386.97 1454.94 1386.97 Z" fill="#000000" fill-rule="evenodd" fill-opacity="1" /><path clip-path="url(#clip480)" d="M735.205 1520.8 L735.205 1537.36 L754.945 1537.36 L754.945 1544.81 L735.205 1544.81 L735.205 1576.47 Q735.205 1583.61 737.133 1585.64 Q739.112 1587.67 745.101 1587.67 L754.945 1587.67 L754.945 1595.69 L745.101 1595.69 Q734.008 1595.69 729.789 1591.58 Q725.57 1587.41 725.57 1576.47 L725.57 1544.81 L718.539 1544.81 L718.539 1537.36 L725.57 1537.36 L725.57 1520.8 L735.205 1520.8 Z" fill="#000000" fill-rule="evenodd" fill-opacity="1" /><path clip-path="url(#clip480)" d="M767.549 1537.36 L777.132 1537.36 L777.132 1595.69 L767.549 1595.69 L767.549 1537.36 M767.549 1514.65 L777.132 1514.65 L777.132 1526.79 L767.549 1526.79 L767.549 1514.65 Z" fill="#000000" fill-rule="evenodd" fill-opacity="1" /><path clip-path="url(#clip480)" d="M842.601 1548.56 Q846.194 1542.1 851.194 1539.03 Q856.194 1535.95 862.965 1535.95 Q872.08 1535.95 877.028 1542.36 Q881.976 1548.71 881.976 1560.48 L881.976 1595.69 L872.34 1595.69 L872.34 1560.8 Q872.34 1552.41 869.371 1548.35 Q866.403 1544.29 860.309 1544.29 Q852.861 1544.29 848.538 1549.23 Q844.215 1554.18 844.215 1562.72 L844.215 1595.69 L834.58 1595.69 L834.58 1560.8 Q834.58 1552.36 831.611 1548.35 Q828.642 1544.29 822.445 1544.29 Q815.101 1544.29 810.778 1549.29 Q806.455 1554.23 806.455 1562.72 L806.455 1595.69 L796.82 1595.69 L796.82 1537.36 L806.455 1537.36 L806.455 1546.42 Q809.736 1541.06 814.32 1538.5 Q818.903 1535.95 825.205 1535.95 Q831.559 1535.95 835.986 1539.18 Q840.465 1542.41 842.601 1548.56 Z" fill="#000000" fill-rule="evenodd" fill-opacity="1" /><path clip-path="url(#clip480)" d="M950.986 1564.13 L950.986 1568.82 L906.923 1568.82 Q907.548 1578.71 912.861 1583.92 Q918.225 1589.08 927.757 1589.08 Q933.277 1589.08 938.434 1587.72 Q943.642 1586.37 948.746 1583.66 L948.746 1592.72 Q943.59 1594.91 938.173 1596.06 Q932.756 1597.2 927.184 1597.2 Q913.225 1597.2 905.048 1589.08 Q896.923 1580.95 896.923 1567.1 Q896.923 1552.78 904.632 1544.39 Q912.392 1535.95 925.517 1535.95 Q937.288 1535.95 944.111 1543.56 Q950.986 1551.11 950.986 1564.13 M941.402 1561.32 Q941.298 1553.45 936.975 1548.77 Q932.704 1544.08 925.621 1544.08 Q917.6 1544.08 912.757 1548.61 Q907.965 1553.14 907.236 1561.37 L941.402 1561.32 Z" fill="#000000" fill-rule="evenodd" fill-opacity="1" /><path clip-path="url(#clip480)" d="M1023.64 1514.75 Q1016.66 1526.73 1013.28 1538.45 Q1009.89 1550.17 1009.89 1562.2 Q1009.89 1574.23 1013.28 1586.06 Q1016.71 1597.83 1023.64 1609.75 L1015.31 1609.75 Q1007.5 1597.51 1003.59 1585.69 Q999.735 1573.87 999.735 1562.2 Q999.735 1550.59 1003.59 1538.82 Q1007.44 1527.05 1015.31 1514.75 L1023.64 1514.75 Z" fill="#000000" fill-rule="evenodd" fill-opacity="1" /><path clip-path="url(#clip480)" d="M1079.42 1539.08 L1079.42 1548.14 Q1075.36 1546.06 1070.98 1545.02 Q1066.61 1543.97 1061.92 1543.97 Q1054.79 1543.97 1051.19 1546.16 Q1047.65 1548.35 1047.65 1552.72 Q1047.65 1556.06 1050.2 1557.98 Q1052.76 1559.86 1060.46 1561.58 L1063.75 1562.31 Q1073.95 1564.49 1078.22 1568.5 Q1082.55 1572.46 1082.55 1579.6 Q1082.55 1587.72 1076.09 1592.46 Q1069.68 1597.2 1058.43 1597.2 Q1053.75 1597.2 1048.64 1596.26 Q1043.59 1595.38 1037.96 1593.56 L1037.96 1583.66 Q1043.28 1586.42 1048.43 1587.83 Q1053.59 1589.18 1058.64 1589.18 Q1065.41 1589.18 1069.06 1586.89 Q1072.7 1584.55 1072.7 1580.33 Q1072.7 1576.42 1070.05 1574.34 Q1067.44 1572.25 1058.54 1570.33 L1055.2 1569.55 Q1046.3 1567.67 1042.34 1563.82 Q1038.38 1559.91 1038.38 1553.14 Q1038.38 1544.91 1044.21 1540.43 Q1050.05 1535.95 1060.78 1535.95 Q1066.09 1535.95 1070.78 1536.73 Q1075.46 1537.52 1079.42 1539.08 Z" fill="#000000" fill-rule="evenodd" fill-opacity="1" /><path clip-path="url(#clip480)" d="M1096.3 1514.75 L1104.63 1514.75 Q1112.44 1527.05 1116.3 1538.82 Q1120.2 1550.59 1120.2 1562.2 Q1120.2 1573.87 1116.3 1585.69 Q1112.44 1597.51 1104.63 1609.75 L1096.3 1609.75 Q1103.22 1597.83 1106.61 1586.06 Q1110.05 1574.23 1110.05 1562.2 Q1110.05 1550.17 1106.61 1538.45 Q1103.22 1526.73 1096.3 1514.75 Z" fill="#000000" fill-rule="evenodd" fill-opacity="1" /><polyline clip-path="url(#clip480)" style="stroke:#000000; stroke-linecap:butt; stroke-linejoin:round; stroke-width:4; stroke-opacity:1; fill:none" points="
  387.218,1349.74 387.218,47.2441 
  "/>
<polyline clip-path="url(#clip480)" style="stroke:#000000; stroke-linecap:butt; stroke-linejoin:round; stroke-width:4; stroke-opacity:1; fill:none" points="
  387.218,1252.25 397.451,1252.25 
  "/>
<polyline clip-path="url(#clip480)" style="stroke:#000000; stroke-linecap:butt; stroke-linejoin:round; stroke-width:4; stroke-opacity:1; fill:none" points="
  387.218,1078.54 397.451,1078.54 
  "/>
<polyline clip-path="url(#clip480)" style="stroke:#000000; stroke-linecap:butt; stroke-linejoin:round; stroke-width:4; stroke-opacity:1; fill:none" points="
  387.218,904.833 397.451,904.833 
  "/>
<polyline clip-path="url(#clip480)" style="stroke:#000000; stroke-linecap:butt; stroke-linejoin:round; stroke-width:4; stroke-opacity:1; fill:none" points="
  387.218,731.126 397.451,731.126 
  "/>
<polyline clip-path="url(#clip480)" style="stroke:#000000; stroke-linecap:butt; stroke-linejoin:round; stroke-width:4; stroke-opacity:1; fill:none" points="
  387.218,557.42 397.451,557.42 
  "/>
<polyline clip-path="url(#clip480)" style="stroke:#000000; stroke-linecap:butt; stroke-linejoin:round; stroke-width:4; stroke-opacity:1; fill:none" points="
  387.218,383.713 397.451,383.713 
  "/>
<polyline clip-path="url(#clip480)" style="stroke:#000000; stroke-linecap:butt; stroke-linejoin:round; stroke-width:4; stroke-opacity:1; fill:none" points="
  387.218,210.006 397.451,210.006 
  "/>
<path clip-path="url(#clip480)" d="M146.74 1253.26 L213.51 1253.26 L213.51 1262.12 L146.74 1262.12 L146.74 1253.26 Z" fill="#000000" fill-rule="evenodd" fill-opacity="1" /><path clip-path="url(#clip480)" d="M245.281 1282.27 L281.999 1282.27 L281.999 1291.13 L232.625 1291.13 L232.625 1282.27 Q238.614 1276.07 248.927 1265.66 Q259.291 1255.19 261.947 1252.17 Q267 1246.49 268.979 1242.59 Q271.01 1238.63 271.01 1234.82 Q271.01 1228.63 266.635 1224.72 Q262.312 1220.81 255.333 1220.81 Q250.385 1220.81 244.864 1222.53 Q239.395 1224.25 233.146 1227.74 L233.146 1217.12 Q239.5 1214.56 245.02 1213.26 Q250.541 1211.96 255.125 1211.96 Q267.208 1211.96 274.395 1218 Q281.583 1224.04 281.583 1234.15 Q281.583 1238.94 279.76 1243.26 Q277.989 1247.53 273.249 1253.37 Q271.947 1254.88 264.968 1262.12 Q257.989 1269.3 245.281 1282.27 Z" fill="#000000" fill-rule="evenodd" fill-opacity="1" /><path clip-path="url(#clip480)" d="M304.187 1213.37 L345.489 1213.37 L345.489 1222.22 L313.822 1222.22 L313.822 1241.28 Q316.114 1240.5 318.405 1240.14 Q320.697 1239.72 322.989 1239.72 Q336.01 1239.72 343.614 1246.86 Q351.218 1253.99 351.218 1266.18 Q351.218 1278.73 343.405 1285.71 Q335.593 1292.64 321.374 1292.64 Q316.478 1292.64 311.374 1291.8 Q306.322 1290.97 300.906 1289.3 L300.906 1278.73 Q305.593 1281.28 310.593 1282.53 Q315.593 1283.78 321.166 1283.78 Q330.176 1283.78 335.437 1279.04 Q340.697 1274.3 340.697 1266.18 Q340.697 1258.05 335.437 1253.31 Q330.176 1248.57 321.166 1248.57 Q316.947 1248.57 312.728 1249.51 Q308.562 1250.45 304.187 1252.43 L304.187 1213.37 Z" fill="#000000" fill-rule="evenodd" fill-opacity="1" /><path clip-path="url(#clip480)" d="M144.5 1079.56 L211.271 1079.56 L211.271 1088.41 L144.5 1088.41 L144.5 1079.56 Z" fill="#000000" fill-rule="evenodd" fill-opacity="1" /><path clip-path="url(#clip480)" d="M243.041 1108.57 L279.76 1108.57 L279.76 1117.42 L230.385 1117.42 L230.385 1108.57 Q236.375 1102.37 246.687 1091.95 Q257.052 1081.48 259.708 1078.46 Q264.76 1072.78 266.739 1068.88 Q268.77 1064.92 268.77 1061.12 Q268.77 1054.92 264.395 1051.01 Q260.072 1047.11 253.093 1047.11 Q248.145 1047.11 242.625 1048.83 Q237.156 1050.55 230.906 1054.03 L230.906 1043.41 Q237.26 1040.86 242.781 1039.56 Q248.302 1038.25 252.885 1038.25 Q264.968 1038.25 272.156 1044.3 Q279.343 1050.34 279.343 1060.44 Q279.343 1065.23 277.52 1069.56 Q275.749 1073.83 271.01 1079.66 Q269.708 1081.17 262.729 1088.41 Q255.75 1095.6 243.041 1108.57 Z" fill="#000000" fill-rule="evenodd" fill-opacity="1" /><path clip-path="url(#clip480)" d="M324.343 1046.59 Q316.218 1046.59 312.103 1054.61 Q308.041 1062.58 308.041 1078.62 Q308.041 1094.61 312.103 1102.63 Q316.218 1110.6 324.343 1110.6 Q332.52 1110.6 336.582 1102.63 Q340.697 1094.61 340.697 1078.62 Q340.697 1062.58 336.582 1054.61 Q332.52 1046.59 324.343 1046.59 M324.343 1038.25 Q337.416 1038.25 344.291 1048.62 Q351.218 1058.93 351.218 1078.62 Q351.218 1098.25 344.291 1108.62 Q337.416 1118.93 324.343 1118.93 Q311.27 1118.93 304.343 1108.62 Q297.468 1098.25 297.468 1078.62 Q297.468 1058.93 304.343 1048.62 Q311.27 1038.25 324.343 1038.25 Z" fill="#000000" fill-rule="evenodd" fill-opacity="1" /><path clip-path="url(#clip480)" d="M146.74 905.849 L213.51 905.849 L213.51 914.703 L146.74 914.703 L146.74 905.849 Z" fill="#000000" fill-rule="evenodd" fill-opacity="1" /><path clip-path="url(#clip480)" d="M238.041 934.859 L255.229 934.859 L255.229 875.536 L236.531 879.286 L236.531 869.703 L255.125 865.953 L265.645 865.953 L265.645 934.859 L282.833 934.859 L282.833 943.713 L238.041 943.713 L238.041 934.859 Z" fill="#000000" fill-rule="evenodd" fill-opacity="1" /><path clip-path="url(#clip480)" d="M304.187 865.953 L345.489 865.953 L345.489 874.807 L313.822 874.807 L313.822 893.87 Q316.114 893.088 318.405 892.724 Q320.697 892.307 322.989 892.307 Q336.01 892.307 343.614 899.442 Q351.218 906.578 351.218 918.765 Q351.218 931.317 343.405 938.296 Q335.593 945.223 321.374 945.223 Q316.478 945.223 311.374 944.39 Q306.322 943.557 300.906 941.89 L300.906 931.317 Q305.593 933.869 310.593 935.119 Q315.593 936.369 321.166 936.369 Q330.176 936.369 335.437 931.63 Q340.697 926.89 340.697 918.765 Q340.697 910.64 335.437 905.901 Q330.176 901.161 321.166 901.161 Q316.947 901.161 312.728 902.099 Q308.562 903.036 304.187 905.015 L304.187 865.953 Z" fill="#000000" fill-rule="evenodd" fill-opacity="1" /><path clip-path="url(#clip480)" d="M144.5 732.142 L211.271 732.142 L211.271 740.996 L144.5 740.996 L144.5 732.142 Z" fill="#000000" fill-rule="evenodd" fill-opacity="1" /><path clip-path="url(#clip480)" d="M235.802 761.152 L252.989 761.152 L252.989 701.83 L234.291 705.58 L234.291 695.996 L252.885 692.246 L263.406 692.246 L263.406 761.152 L280.593 761.152 L280.593 770.006 L235.802 770.006 L235.802 761.152 Z" fill="#000000" fill-rule="evenodd" fill-opacity="1" /><path clip-path="url(#clip480)" d="M324.343 699.173 Q316.218 699.173 312.103 707.194 Q308.041 715.163 308.041 731.204 Q308.041 747.194 312.103 755.215 Q316.218 763.183 324.343 763.183 Q332.52 763.183 336.582 755.215 Q340.697 747.194 340.697 731.204 Q340.697 715.163 336.582 707.194 Q332.52 699.173 324.343 699.173 M324.343 690.84 Q337.416 690.84 344.291 701.205 Q351.218 711.517 351.218 731.204 Q351.218 750.84 344.291 761.204 Q337.416 771.517 324.343 771.517 Q311.27 771.517 304.343 761.204 Q297.468 750.84 297.468 731.204 Q297.468 711.517 304.343 701.205 Q311.27 690.84 324.343 690.84 Z" fill="#000000" fill-rule="evenodd" fill-opacity="1" /><path clip-path="url(#clip480)" d="M214.604 558.435 L281.374 558.435 L281.374 567.289 L214.604 567.289 L214.604 558.435 Z" fill="#000000" fill-rule="evenodd" fill-opacity="1" /><path clip-path="url(#clip480)" d="M304.187 518.54 L345.489 518.54 L345.489 527.394 L313.822 527.394 L313.822 546.456 Q316.114 545.675 318.405 545.31 Q320.697 544.894 322.989 544.894 Q336.01 544.894 343.614 552.029 Q351.218 559.164 351.218 571.352 Q351.218 583.904 343.405 590.883 Q335.593 597.81 321.374 597.81 Q316.478 597.81 311.374 596.977 Q306.322 596.143 300.906 594.477 L300.906 583.904 Q305.593 586.456 310.593 587.706 Q315.593 588.956 321.166 588.956 Q330.176 588.956 335.437 584.216 Q340.697 579.477 340.697 571.352 Q340.697 563.227 335.437 558.487 Q330.176 553.748 321.166 553.748 Q316.947 553.748 312.728 554.685 Q308.562 555.623 304.187 557.602 L304.187 518.54 Z" fill="#000000" fill-rule="evenodd" fill-opacity="1" /><path clip-path="url(#clip480)" d="M324.343 351.76 Q316.218 351.76 312.103 359.781 Q308.041 367.749 308.041 383.791 Q308.041 399.78 312.103 407.801 Q316.218 415.77 324.343 415.77 Q332.52 415.77 336.582 407.801 Q340.697 399.78 340.697 383.791 Q340.697 367.749 336.582 359.781 Q332.52 351.76 324.343 351.76 M324.343 343.427 Q337.416 343.427 344.291 353.791 Q351.218 364.104 351.218 383.791 Q351.218 403.426 344.291 413.791 Q337.416 424.103 324.343 424.103 Q311.27 424.103 304.343 413.791 Q297.468 403.426 297.468 383.791 Q297.468 364.104 304.343 353.791 Q311.27 343.427 324.343 343.427 Z" fill="#000000" fill-rule="evenodd" fill-opacity="1" /><path clip-path="url(#clip480)" d="M304.187 171.126 L345.489 171.126 L345.489 179.98 L313.822 179.98 L313.822 199.043 Q316.114 198.261 318.405 197.897 Q320.697 197.48 322.989 197.48 Q336.01 197.48 343.614 204.615 Q351.218 211.751 351.218 223.938 Q351.218 236.49 343.405 243.469 Q335.593 250.396 321.374 250.396 Q316.478 250.396 311.374 249.563 Q306.322 248.73 300.906 247.063 L300.906 236.49 Q305.593 239.042 310.593 240.292 Q315.593 241.542 321.166 241.542 Q330.176 241.542 335.437 236.803 Q340.697 232.063 340.697 223.938 Q340.697 215.813 335.437 211.074 Q330.176 206.334 321.166 206.334 Q316.947 206.334 312.728 207.272 Q308.562 208.209 304.187 210.188 L304.187 171.126 Z" fill="#000000" fill-rule="evenodd" fill-opacity="1" /><path clip-path="url(#clip480)" d="M33.8956 702.446 Q42.7493 702.446 52.7097 705.292 Q62.6174 708.085 70.6278 712.512 Q78.5856 716.939 83.8557 722.736 Q89.073 728.533 89.073 734.066 Q89.073 737.597 87.1231 740.232 Q85.1205 742.815 81.8003 744.238 Q78.4275 745.661 74.7385 746.346 Q70.9967 747.031 66.9388 747.031 Q60.8783 747.031 54.2907 745.713 Q47.6504 744.396 41.6426 742.182 Q35.582 739.969 30.1012 736.86 Q24.5676 733.75 20.5624 730.325 Q16.5044 726.846 14.1329 722.947 Q11.7614 719.047 11.7614 715.41 Q11.7614 712.775 12.9208 710.667 Q14.0275 708.507 15.9774 707.136 Q17.8746 705.766 20.1408 704.818 Q22.4069 703.816 25.0419 703.342 Q27.6242 702.868 29.785 702.657 Q31.893 702.446 33.8956 702.446 M27.2026 709.561 Q24.5149 709.561 22.5123 709.771 Q20.457 709.982 18.4016 710.562 Q16.3463 711.142 15.2396 712.406 Q14.1329 713.619 14.1329 715.516 Q14.1329 721.049 25.4635 727.268 Q28.9944 729.271 33.7902 731.062 Q38.5859 732.854 40.8521 733.487 Q43.1182 734.119 48.7044 735.595 L48.7044 713.039 Q34.3172 709.561 27.2026 709.561 M52.13 713.988 L52.13 736.438 Q65.3051 739.916 73.5264 739.916 Q80.6936 739.916 83.6976 738.441 Q86.6488 736.912 86.6488 734.066 Q86.6488 730.799 83.3814 727.742 Q80.0612 724.686 74.0534 721.576 Q66.2537 717.466 52.13 713.988 Z" fill="#000000" fill-rule="evenodd" fill-opacity="1" /><path clip-path="url(#clip480)" d="M118.963 691.354 Q117.598 691.354 117.192 691.244 Q116.786 691.096 116.159 690.506 L100.001 676.008 Q91.0737 668.077 83.2898 668.077 Q78.2358 668.077 74.6206 670.733 Q71.0053 673.352 71.0053 678.185 Q71.0053 681.505 73.0343 684.308 Q75.0633 687.112 78.6785 688.403 Q78.6047 688.182 78.6047 687.407 Q78.6047 685.526 79.7852 684.493 Q80.9657 683.423 82.552 683.423 Q84.581 683.423 85.577 684.751 Q86.5362 686.042 86.5362 687.333 Q86.5362 687.85 86.4255 688.551 Q86.3148 689.215 85.2819 690.285 Q84.2121 691.354 82.3307 691.354 Q77.0553 691.354 72.8498 687.37 Q68.6443 683.349 68.6443 677.225 Q68.6443 670.29 72.7761 665.753 Q76.8709 661.178 83.2898 661.178 Q85.5401 661.178 87.606 661.879 Q89.635 662.543 91.2212 663.465 Q92.8075 664.351 95.353 666.785 Q97.8984 669.22 99.706 671.175 Q101.514 673.131 105.35 677.521 L113.134 685.526 L113.134 671.913 Q113.134 665.273 112.544 664.757 Q111.474 664.019 105.83 663.096 L105.83 661.178 L118.963 663.318 L118.963 691.354 Z" fill="#000000" fill-rule="evenodd" fill-opacity="1" /><polyline clip-path="url(#clip482)" style="stroke:#009af9; stroke-linecap:butt; stroke-linejoin:round; stroke-width:16; stroke-opacity:1; fill:none" points="
  417.34,314.23 419.352,314.23 421.364,314.226 423.376,314.212 425.388,314.182 427.4,314.142 429.413,314.126 431.425,314.204 433.437,314.49 435.449,315.131 
  437.461,316.3 439.473,318.167 441.485,320.9 443.498,324.644 445.51,329.518 447.522,335.606 449.534,343.009 451.546,351.78 453.558,361.905 455.571,372.966 
  457.583,383.921 459.595,393.761 461.607,402.128 463.619,408.9 465.631,413.995 467.643,417.363 469.656,419.075 471.668,419.427 473.68,419.089 475.692,418.907 
  477.704,419.377 479.716,420.561 481.728,422.321 483.741,424.476 485.753,426.863 487.765,429.343 489.777,431.809 491.789,434.18 493.801,436.396 495.814,438.421 
  497.826,440.234 499.838,441.83 501.85,443.22 503.862,444.427 505.874,445.492 507.886,446.462 509.899,447.383 511.911,448.299 513.923,449.214 515.935,450.069 
  517.947,450.733 519.959,451.016 521.971,450.721 523.984,449.652 525.996,447.613 528.008,444.454 530.02,440.061 532.032,434.352 534.044,427.288 536.057,418.752 
  538.069,408.693 540.081,397.172 542.093,385.047 544.105,373.797 546.117,364.092 548.129,356.013 550.142,349.6 552.154,344.921 554.166,342.018 556.178,340.854 
  558.19,341.181 560.202,342.433 562.214,343.736 564.227,344.463 566.239,344.506 568.251,344.009 570.263,343.161 572.275,342.136 574.287,341.079 576.3,340.105 
  578.312,339.306 580.324,338.756 582.336,338.508 584.348,338.606 586.36,339.079 588.372,339.945 590.385,341.217 592.397,342.895 594.409,344.973 596.421,347.432 
  598.433,350.24 600.445,353.353 602.458,356.7 604.47,360.18 606.482,363.664 608.494,366.968 610.506,369.87 612.518,372.112 614.53,373.401 616.543,373.367 
  618.555,371.566 620.567,367.493 622.579,361.719 624.591,357.217 626.603,355.534 628.615,356.501 630.628,359.81 632.64,365.124 634.652,372.076 636.664,380.312 
  638.676,389.632 640.688,400.081 642.701,412 644.713,424.944 646.725,436.989 648.737,447.414 650.749,456.693 652.761,465.247 654.773,473.345 656.786,481.169 
  658.798,488.855 660.81,496.521 662.822,504.28 664.834,512.25 666.846,520.539 668.858,529.216 670.871,538.246 672.883,547.426 674.895,556.396 676.907,564.832 
  678.919,572.656 680.931,580.055 682.944,587.386 684.956,595.192 686.968,604.269 688.98,616.075 690.992,630.411 693.004,641.94 695.016,650.273 697.029,656.562 
  699.041,661.289 701.053,664.606 703.065,666.581 705.077,667.373 707.089,667.307 709.101,666.82 711.114,666.303 713.126,665.985 715.138,665.931 717.15,666.096 
  719.162,666.391 721.174,666.713 723.187,666.975 725.199,667.108 727.211,667.057 729.223,666.788 731.235,666.28 733.247,665.528 735.259,664.54 737.272,663.338 
  739.284,661.952 741.296,660.447 743.308,658.89 745.32,657.342 747.332,655.846 749.344,654.383 751.357,652.81 753.369,650.894 755.381,648.357 757.393,644.966 
  759.405,640.514 761.417,634.767 763.43,627.214 765.442,616.777 767.454,602.472 769.466,589.767 771.478,580.75 773.49,573.845 775.502,568.231 777.515,563.487 
  779.527,559.334 781.539,555.541 783.551,551.913 785.563,548.322 787.575,544.74 789.587,541.21 791.6,537.797 793.612,534.551 795.624,531.503 797.636,528.665 
  799.648,526.032 801.66,523.587 803.673,521.301 805.685,519.128 807.697,517.005 809.709,514.851 811.721,512.561 813.733,510.012 815.745,507.056 817.758,503.529 
  819.77,499.266 821.782,494.118 823.794,487.95 825.806,480.704 827.818,472.431 829.83,463.253 831.843,453.354 833.855,442.933 835.867,432.025 837.879,420.433 
  839.891,407.493 841.903,391.908 843.916,374.967 845.928,360.681 847.94,348.418 849.952,337.141 851.964,326.475 853.976,316.432 855.988,307.238 858.001,299.175 
  860.013,292.46 862.025,287.181 864.037,283.294 866.049,280.65 868.061,279.051 870.073,278.278 872.086,278.13 874.098,278.43 876.11,279.027 878.122,279.801 
  880.134,280.656 882.146,281.522 884.159,282.35 886.171,283.118 888.183,283.829 890.195,284.512 892.207,285.22 894.219,286.031 896.231,287.046 898.244,288.389 
  900.256,290.197 902.268,292.613 904.28,295.788 906.292,299.875 908.304,304.972 910.316,311.135 912.329,318.39 914.341,326.736 916.353,336.228 918.365,347.068 
  920.377,359.707 922.389,374.137 924.402,388.108 926.414,400.108 928.426,410.42 930.438,419.244 932.45,426.499 934.462,432.003 936.474,435.598 938.487,437.211 
  940.499,436.845 942.511,434.506 944.523,430.527 946.535,425.991 948.547,422.178 950.559,419.388 952.572,417.345 954.584,415.759 956.596,414.405 958.608,413.115 
  960.62,411.754 962.632,410.215 964.645,408.407 966.657,406.248 968.669,403.669 970.681,400.6 972.693,396.98 974.705,392.759 976.717,387.901 978.73,382.406 
  980.742,376.317 982.754,369.724 984.766,362.76 986.778,355.561 988.79,348.262 990.802,340.974 992.815,333.758 994.827,326.686 996.839,319.852 998.851,313.395 
  1000.86,307.65 1002.88,302.97 1004.89,299.69 1006.9,298.109 1008.91,298.295 1010.92,300.139 1012.94,303.445 1014.95,308.077 1016.96,314.074 1018.97,321.668 
  1020.98,331.415 1023,342.472 1025.01,352.397 1027.02,360.849 1029.03,368.617 1031.05,376.262 1033.06,384.132 1035.07,392.444 1037.08,401.264 1039.09,410.482 
  1041.11,419.802 1043.12,428.785 1045.13,436.937 1047.14,443.769 1049.15,448.842 1051.17,451.863 1053.18,452.73 1055.19,451.548 1057.2,448.434 1059.22,443.427 
  1061.23,436.197 1063.24,426.169 1065.25,414.669 1067.26,405.117 1069.28,397.429 1071.29,390.642 1073.3,384.133 1075.31,377.49 1077.32,370.388 1079.34,362.597 
  1081.35,354.023 1083.36,344.757 1085.37,335.054 1087.39,325.183 1089.4,315.341 1091.41,305.573 1093.42,295.837 1095.43,286.045 1097.45,276.139 1099.46,266.092 
  1101.47,255.918 1103.48,245.652 1105.5,235.269 1107.51,224.641 1109.52,213.422 1111.53,200.902 1113.54,185.767 1115.56,169.165 1117.57,155.022 1119.58,142.848 
  1121.59,131.624 1123.6,121.025 1125.62,111.156 1127.63,102.369 1129.64,95.0728 1131.65,89.5698 1133.67,85.9721 1135.68,84.2115 1137.69,84.1072 1139.7,85.4567 
  1141.71,88.1004 1143.73,91.9546 1145.74,97.06 1147.75,103.234 1149.76,109.766 1151.77,115.889 1153.79,121.391 1155.8,126.565 1157.81,131.651 1159.82,136.835 
  1161.84,142.257 1163.85,148 1165.86,154.102 1167.87,160.545 1169.88,167.22 1171.9,173.925 1173.91,180.306 1175.92,185.959 1177.93,190.468 1179.94,193.424 
  1181.96,194.513 1183.97,193.489 1185.98,190.062 1187.99,183.604 1190.01,173.432 1192.02,163.212 1194.03,156.548 1196.04,152.603 1198.05,150.641 1200.07,150.279 
  1202.08,151.259 1204.09,153.335 1206.1,156.247 1208.11,159.731 1210.13,163.54 1212.14,167.458 1214.15,171.311 1216.16,174.965 1218.18,178.318 1220.19,181.299 
  1222.2,183.859 1224.21,185.966 1226.22,187.599 1228.24,188.743 1230.25,189.39 1232.26,189.534 1234.27,189.169 1236.28,188.288 1238.3,186.887 1240.31,184.962 
  1242.32,182.509 1244.33,179.528 1246.35,176.03 1248.36,172.034 1250.37,167.579 1252.38,162.718 1254.39,157.519 1256.41,152.066 1258.42,146.456 1260.43,140.737 
  1262.44,134.969 1264.45,129.227 1266.47,123.6 1268.48,118.182 1270.49,113.178 1272.5,108.872 1274.52,105.596 1276.53,103.743 1278.54,103.568 1280.55,105.181 
  1282.56,108.576 1284.58,113.781 1286.59,121.148 1288.6,131.537 1290.61,144.903 1292.63,156.27 1294.64,164.958 1296.65,172.261 1298.66,178.987 1300.67,185.635 
  1302.69,192.58 1304.7,200.071 1306.71,208.159 1308.72,216.657 1310.73,225.229 1312.75,233.585 1314.76,241.595 1316.77,249.258 1318.78,256.657 1320.8,263.891 
  1322.81,271.064 1324.82,278.274 1326.83,285.612 1328.84,293.171 1330.86,301.052 1332.87,309.39 1334.88,318.402 1336.89,328.405 1338.9,339.874 1340.92,352.814 
  1342.93,365.444 1344.94,376.541 1346.95,386.31 1348.97,394.899 1350.98,402.173 1352.99,407.826 1355,411.514 1357.01,412.913 1359.03,411.727 1361.04,407.852 
  1363.05,402.595 1365.06,398.669 1367.07,396.874 1369.09,396.791 1371.1,397.976 1373.11,400.074 1375.12,402.791 1377.14,405.877 1379.15,409.122 1381.16,412.361 
  1383.17,415.463 1385.18,418.334 1387.2,420.906 1389.21,423.132 1391.22,424.979 1393.23,426.431 1395.24,427.478 1397.26,428.122 1399.27,428.373 1401.28,428.251 
  1403.29,427.788 1405.31,427.023 1407.32,426.017 1409.33,424.842 1411.34,423.592 1413.35,422.392 1415.37,421.391 1417.38,420.763 1419.39,420.721 1421.4,421.443 
  
  "/>
<polyline clip-path="url(#clip482)" style="stroke:#e26f46; stroke-linecap:butt; stroke-linejoin:round; stroke-width:16; stroke-opacity:1; fill:none" points="
  417.34,314.195 419.352,314.195 421.364,314.19 423.376,314.175 425.388,314.144 427.4,314.103 429.413,314.086 431.425,314.163 433.437,314.448 435.449,315.09 
  437.461,316.26 439.473,318.129 441.485,320.864 443.498,324.611 445.51,329.487 447.522,335.579 449.534,342.986 451.546,351.759 453.558,361.888 455.571,372.955 
  457.583,383.917 459.595,393.762 461.607,402.133 463.619,408.907 465.631,414.004 467.643,417.373 469.656,419.084 471.668,419.432 473.68,419.089 475.692,418.901 
  477.704,419.365 479.716,420.545 481.728,422.302 483.741,424.454 485.753,426.838 487.765,429.317 489.777,431.781 491.789,434.149 493.801,436.363 495.814,438.385 
  497.826,440.193 499.838,441.785 501.85,443.168 503.862,444.367 505.874,445.422 507.886,446.379 509.899,447.286 511.911,448.187 513.923,449.088 515.935,449.933 
  517.947,450.595 519.959,450.881 521.971,450.597 523.984,449.547 525.996,447.534 528.008,444.403 530.02,440.04 532.032,434.36 534.044,427.335 536.057,418.841 
  538.069,408.807 540.081,397.337 542.093,385.243 544.105,373.979 546.117,364.255 548.129,356.152 550.142,349.718 552.154,345.022 554.166,342.102 556.178,340.916 
  558.19,341.225 560.202,342.449 562.214,343.725 564.227,344.433 566.239,344.459 568.251,343.943 570.263,343.077 572.275,342.034 574.287,340.958 576.3,339.964 
  578.312,339.145 580.324,338.573 582.336,338.304 584.348,338.379 586.36,338.828 588.372,339.671 590.385,340.917 592.397,342.569 594.409,344.619 596.421,347.05 
  598.433,349.829 600.445,352.91 602.458,356.224 604.47,359.672 606.482,363.12 608.494,366.399 610.506,369.284 612.518,371.511 614.53,372.778 616.543,372.757 
  618.555,370.941 620.567,366.872 622.579,361.226 624.591,356.883 626.603,355.322 628.615,356.408 630.628,359.827 632.64,365.245 634.652,372.295 636.664,380.633 
  638.676,390.078 640.688,400.696 642.701,412.824 644.713,425.807 646.725,437.719 648.737,448.037 650.749,457.252 652.761,465.77 654.773,473.84 656.786,481.633 
  658.798,489.276 660.81,496.883 662.822,504.564 664.834,512.428 666.846,520.589 668.858,529.121 670.871,538.023 672.883,547.127 674.895,556.108 676.907,564.609 
  678.919,572.481 680.931,579.843 682.944,587.015 684.956,594.458 686.968,602.846 688.98,613.357 690.992,627.077 693.004,639.74 695.016,648.835 697.029,655.548 
  699.041,660.514 701.053,663.938 703.065,665.865 705.077,666.381 707.089,665.739 709.101,664.349 711.114,662.649 713.126,660.967 715.138,659.468 717.15,658.194 
  719.162,657.09 721.174,656.074 723.187,655.054 725.199,653.942 727.211,652.665 729.223,651.161 731.235,649.384 733.247,647.295 735.259,644.865 737.272,642.078 
  739.284,638.931 741.296,635.439 743.308,631.656 745.32,627.671 747.332,623.61 749.344,619.632 751.357,615.878 753.369,612.434 755.381,609.304 757.393,606.406 
  759.405,603.62 761.417,600.787 763.43,597.71 765.442,594.153 767.454,589.739 769.466,583.928 771.478,575.923 773.49,565.947 775.502,557.771 777.515,552.672 
  779.527,550.176 781.539,550.067 783.551,552.293 785.563,556.757 787.575,563.185 789.587,571.103 791.6,579.979 793.612,589.333 795.624,598.909 797.636,608.74 
  799.648,619.233 801.66,631.233 803.673,644.941 805.685,657.541 807.697,667.962 809.709,677.018 811.721,685.324 813.733,693.257 815.745,701.077 817.758,708.988 
  819.77,717.123 821.782,725.468 823.794,733.843 825.806,742.046 827.818,750.077 829.83,758.149 831.843,766.628 833.855,776.072 835.867,787.508 837.879,802.507 
  839.891,817.961 841.903,830.022 843.916,840.332 845.928,850.126 847.94,860.118 849.952,870.743 851.964,882.16 853.976,894.233 855.988,906.644 858.001,919.105 
  860.013,931.433 862.025,943.496 864.037,955.198 866.049,966.492 868.061,977.476 870.073,988.435 872.086,999.937 874.098,1013.04 876.11,1029.37 878.122,1046.01 
  880.134,1059.47 882.146,1071.3 884.159,1082.61 886.171,1093.87 888.183,1105.21 890.195,1116.43 892.207,1127.25 894.219,1137.36 896.231,1146.58 898.244,1154.83 
  900.256,1162.12 902.268,1168.51 904.28,1174.13 906.292,1179.11 908.304,1183.59 910.316,1187.73 912.329,1191.67 914.341,1195.53 916.353,1199.44 918.365,1203.47 
  920.377,1207.72 922.389,1212.23 924.402,1217.04 926.414,1222.14 928.426,1227.48 930.438,1232.9 932.45,1238.27 934.462,1243.39 936.474,1248.1 938.487,1252.34 
  940.499,1256.11 942.511,1259.49 944.523,1262.6 946.535,1265.59 948.547,1268.65 950.559,1271.99 952.572,1275.9 954.584,1280.81 956.596,1287.33 958.608,1295.73 
  960.62,1303.87 962.632,1309.39 964.645,1312.31 966.657,1312.88 968.669,1311.12 970.681,1307.08 972.693,1300.94 974.705,1293.09 976.717,1284.02 978.73,1274.19 
  980.742,1263.81 982.754,1252.72 984.766,1240.21 986.778,1225.45 988.79,1211.06 990.802,1199.19 992.815,1188.87 994.827,1179.33 996.839,1170.1 998.851,1160.88 
  1000.86,1151.45 1002.88,1141.61 1004.89,1131.29 1006.9,1120.55 1008.91,1109.71 1010.92,1099.22 1012.94,1089.38 1014.95,1080.17 1016.96,1071.22 1018.97,1061.99 
  1020.98,1051.57 1023,1038.3 1025.01,1022.11 1027.02,1008.9 1029.03,998.734 1031.05,990.059 1033.06,982.079 1035.07,974.32 1037.08,966.464 1039.09,958.384 
  1041.11,950.2 1043.12,942.145 1045.13,934.357 1047.14,926.809 1049.15,919.382 1051.17,911.92 1053.18,904.24 1055.19,896.105 1057.2,887.186 1059.22,876.938 
  1061.23,865.005 1063.24,852.723 1065.25,841.805 1067.26,832.033 1069.28,822.932 1071.29,814.349 1073.3,806.412 1075.31,799.452 1077.32,793.915 1079.34,790.235 
  1081.35,788.758 1083.36,789.806 1085.37,793.776 1087.39,800.92 1089.4,808.789 1091.41,814.053 1093.42,816.869 1095.43,817.898 1097.45,817.58 1099.46,816.239 
  1101.47,814.15 1103.48,811.561 1105.5,808.698 1107.51,805.754 1109.52,802.888 1111.53,800.225 1113.54,797.859 1115.56,795.86 1117.57,794.276 1119.58,793.144 
  1121.59,792.487 1123.6,792.325 1125.62,792.668 1127.63,793.526 1129.64,794.905 1131.65,796.808 1133.67,799.229 1135.68,802.16 1137.69,805.58 1139.7,809.445 
  1141.71,813.687 1143.73,818.207 1145.74,822.848 1147.75,827.413 1149.76,831.669 1151.77,835.339 1153.79,838.115 1155.8,839.706 1157.81,839.851 1159.82,838.313 
  1161.84,834.754 1163.85,828.558 1165.86,818.701 1167.87,807.858 1169.88,800.617 1171.9,796.474 1173.91,794.686 1175.92,794.898 1177.93,796.869 1179.94,800.33 
  1181.96,804.943 1183.97,810.333 1185.98,816.129 1187.99,822.012 1190.01,827.737 1192.02,833.137 1194.03,838.118 1196.04,842.637 1198.05,846.693 1200.07,850.309 
  1202.08,853.521 1204.09,856.38 1206.1,858.944 1208.11,861.287 1210.13,863.501 1212.14,865.703 1214.15,868.032 1216.16,870.65 1218.18,873.663 1220.19,876.912 
  1222.2,879.924 1224.21,882.07 1226.22,882.985 1228.24,882.489 1230.25,880.461 1232.26,876.826 1234.27,871.554 1236.28,864.693 1238.3,856.299 1240.31,846.356 
  1242.32,834.743 1244.33,821.238 1246.35,807.15 1248.36,794.645 1250.37,783.975 1252.38,774.839 1254.39,767.127 1256.41,760.859 1258.42,756.067 1260.43,752.735 
  1262.44,750.784 1264.45,750.087 1266.47,750.497 1268.48,751.85 1270.49,753.935 1272.5,756.493 1274.52,759.219 1276.53,761.9 1278.54,764.468 1280.55,766.977 
  1282.56,769.518 1284.58,772.176 1286.59,775.023 1288.6,778.11 1290.61,781.471 1292.63,785.119 1294.64,789.053 1296.65,793.251 1298.66,797.651 1300.67,802.16 
  1302.69,806.623 1304.7,810.829 1306.71,814.523 1308.72,817.409 1310.73,819.147 1312.75,819.358 1314.76,817.614 1316.77,813.269 1318.78,806.522 1320.8,800.616 
  1322.81,797.752 1324.82,797.697 1326.83,800.019 1328.84,804.342 1330.86,810.263 1332.87,817.366 1334.88,825.302 1336.89,833.878 1338.9,843.143 1340.92,853.391 
  1342.93,864.815 1344.94,876.299 1346.95,886.439 1348.97,895.307 1350.98,903.34 1352.99,910.859 1355,918.09 1357.01,925.206 1359.03,932.348 1361.04,939.649 
  1363.05,947.199 1365.06,954.997 1367.07,962.896 1369.09,970.678 1371.1,978.26 1373.11,985.793 1375.12,993.597 1377.14,1002.17 1379.15,1012.34 1381.16,1025.74 
  1383.17,1041.83 1385.18,1054.62 1387.2,1064.67 1389.21,1073.51 1391.22,1081.99 1393.23,1090.62 1395.24,1099.76 1397.26,1109.43 1399.27,1119.36 1401.28,1129.11 
  1403.29,1138.45 1405.31,1147.34 1407.32,1155.91 1409.33,1164.32 1411.34,1172.78 1413.35,1181.51 1415.37,1190.87 1417.38,1201.38 1419.39,1213.74 1421.4,1227.38 
  
  "/>
<path clip-path="url(#clip480)" d="
M1517.04 440.581 L2352.76 440.581 L2352.76 90.6606 L1517.04 90.6606  Z
  " fill="#ffffff" fill-rule="evenodd" fill-opacity="1"/>
<polyline clip-path="url(#clip480)" style="stroke:#000000; stroke-linecap:butt; stroke-linejoin:round; stroke-width:4; stroke-opacity:1; fill:none" points="
  1517.04,440.581 2352.76,440.581 2352.76,90.6606 1517.04,90.6606 1517.04,440.581 
  "/>
<polyline clip-path="url(#clip480)" style="stroke:#009af9; stroke-linecap:butt; stroke-linejoin:round; stroke-width:9; stroke-opacity:1; fill:none" points="
  1538.88,207.301 1669.92,207.301 
  "/>
<path clip-path="url(#clip480)" d="M1736.34 193.422 Q1736.34 202.276 1733.5 212.236 Q1730.7 222.144 1726.28 230.155 Q1721.85 238.112 1716.05 243.382 Q1710.25 248.6 1704.72 248.6 Q1701.19 248.6 1698.56 246.65 Q1695.97 244.647 1694.55 241.327 Q1693.13 237.954 1692.44 234.265 Q1691.76 230.523 1691.76 226.466 Q1691.76 220.405 1693.07 213.817 Q1694.39 207.177 1696.61 201.169 Q1698.82 195.109 1701.93 189.628 Q1705.04 184.094 1708.46 180.089 Q1711.94 176.031 1715.84 173.66 Q1719.74 171.288 1723.38 171.288 Q1726.01 171.288 1728.12 172.448 Q1730.28 173.554 1731.65 175.504 Q1733.02 177.401 1733.97 179.667 Q1734.97 181.934 1735.45 184.569 Q1735.92 187.151 1736.13 189.312 Q1736.34 191.42 1736.34 193.422 M1729.23 186.729 Q1729.23 184.042 1729.02 182.039 Q1728.81 179.984 1728.23 177.928 Q1727.65 175.873 1726.38 174.766 Q1725.17 173.66 1723.27 173.66 Q1717.74 173.66 1711.52 184.99 Q1709.52 188.521 1707.73 193.317 Q1705.93 198.113 1705.3 200.379 Q1704.67 202.645 1703.19 208.231 L1725.75 208.231 Q1729.23 193.844 1729.23 186.729 M1724.8 211.657 L1702.35 211.657 Q1698.87 224.832 1698.87 233.053 Q1698.87 240.22 1700.35 243.224 Q1701.88 246.176 1704.72 246.176 Q1707.99 246.176 1711.05 242.908 Q1714.1 239.588 1717.21 233.58 Q1721.32 225.78 1724.8 211.657 Z" fill="#000000" fill-rule="evenodd" fill-opacity="1" /><path clip-path="url(#clip480)" d="M1747.43 278.489 Q1747.43 277.125 1747.54 276.719 Q1747.69 276.313 1748.28 275.686 L1762.78 259.528 Q1770.71 250.6 1770.71 242.817 Q1770.71 237.763 1768.05 234.147 Q1765.44 230.532 1760.6 230.532 Q1757.28 230.532 1754.48 232.561 Q1751.68 234.59 1750.38 238.205 Q1750.61 238.131 1751.38 238.131 Q1753.26 238.131 1754.29 239.312 Q1755.36 240.492 1755.36 242.079 Q1755.36 244.108 1754.04 245.104 Q1752.75 246.063 1751.45 246.063 Q1750.94 246.063 1750.24 245.952 Q1749.57 245.842 1748.5 244.809 Q1747.43 243.739 1747.43 241.857 Q1747.43 236.582 1751.42 232.377 Q1755.44 228.171 1761.56 228.171 Q1768.5 228.171 1773.04 232.303 Q1777.61 236.398 1777.61 242.817 Q1777.61 245.067 1776.91 247.133 Q1776.24 249.162 1775.32 250.748 Q1774.44 252.334 1772 254.88 Q1769.57 257.425 1767.61 259.233 Q1765.66 261.04 1761.27 264.877 L1753.26 272.661 L1766.87 272.661 Q1773.51 272.661 1774.03 272.071 Q1774.77 271.001 1775.69 265.357 L1777.61 265.357 L1775.47 278.489 L1747.43 278.489 Z" fill="#000000" fill-rule="evenodd" fill-opacity="1" /><path clip-path="url(#clip480)" d="M1788.83 220.405 Q1788.83 202.171 1795.63 187.467 Q1798.53 181.301 1802.59 176.137 Q1806.65 170.972 1809.33 168.706 Q1812.02 166.44 1812.76 166.44 Q1813.81 166.44 1813.87 167.494 Q1813.87 168.021 1812.44 169.338 Q1795.05 187.046 1795.11 220.405 Q1795.11 253.87 1812.02 270.892 Q1813.87 272.737 1813.87 273.316 Q1813.87 274.37 1812.76 274.37 Q1812.02 274.37 1809.44 272.21 Q1806.86 270.049 1802.85 265.095 Q1798.85 260.141 1795.95 254.081 Q1788.83 239.377 1788.83 220.405 Z" fill="#000000" fill-rule="evenodd" fill-opacity="1" /><path clip-path="url(#clip480)" d="M1824.23 212.869 Q1824.23 197.006 1828.23 188.363 Q1833.82 175.504 1846.99 175.504 Q1849.79 175.504 1852.69 176.295 Q1855.64 177.032 1859.33 179.931 Q1863.07 182.83 1865.33 187.573 Q1869.66 196.742 1869.66 212.869 Q1869.66 228.626 1865.65 237.216 Q1859.8 249.759 1846.89 249.759 Q1842.04 249.759 1837.09 247.282 Q1832.19 244.805 1829.08 238.85 Q1824.23 229.944 1824.23 212.869 M1833.19 211.551 Q1833.19 227.836 1834.35 234.318 Q1835.66 241.327 1839.25 244.384 Q1842.88 247.388 1846.89 247.388 Q1851.21 247.388 1854.79 244.173 Q1858.43 240.905 1859.54 233.896 Q1860.75 226.993 1860.7 211.551 Q1860.7 196.532 1859.64 190.524 Q1858.22 183.515 1854.42 180.721 Q1850.68 177.876 1846.89 177.876 Q1845.47 177.876 1843.94 178.297 Q1842.46 178.719 1840.3 179.931 Q1838.14 181.143 1836.45 184.147 Q1834.82 187.151 1834.03 191.683 Q1833.19 197.533 1833.19 211.551 Z" fill="#000000" fill-rule="evenodd" fill-opacity="1" /><path clip-path="url(#clip480)" d="M1880.26 273.316 Q1880.26 272.789 1881.63 271.472 Q1899.03 253.764 1899.03 220.405 Q1899.03 186.94 1882.32 170.023 Q1880.26 168.073 1880.26 167.494 Q1880.26 166.44 1881.32 166.44 Q1882.06 166.44 1884.64 168.6 Q1887.27 170.761 1891.23 175.715 Q1895.23 180.669 1898.18 186.729 Q1905.3 201.433 1905.3 220.405 Q1905.3 238.639 1898.5 253.343 Q1895.6 259.509 1891.54 264.673 Q1887.48 269.838 1884.8 272.104 Q1882.11 274.37 1881.32 274.37 Q1880.26 274.37 1880.26 273.316 Z" fill="#000000" fill-rule="evenodd" fill-opacity="1" /><path clip-path="url(#clip480)" d="M1951.65 230.998 Q1951.75 229.68 1953.81 229.68 L2019.95 229.68 Q2023.06 229.68 2023.11 230.892 Q2023.11 232.21 2020.16 232.157 L1954.55 232.157 Q1951.65 232.21 1951.65 230.998 M1951.65 209.918 Q1951.65 208.6 1953.91 208.653 L2019.84 208.653 Q2023.06 208.653 2023.11 209.918 Q2023.11 211.13 2020.37 211.13 L1953.81 211.13 Q1951.65 211.13 1951.65 209.918 Z" fill="#000000" fill-rule="evenodd" fill-opacity="1" /><path clip-path="url(#clip480)" d="M2064.73 247.388 Q2064.73 245.438 2064.89 244.858 Q2065.1 244.278 2065.95 243.382 L2086.66 220.3 Q2097.99 207.546 2097.99 196.426 Q2097.99 189.206 2094.19 184.042 Q2090.45 178.877 2083.55 178.877 Q2078.81 178.877 2074.8 181.775 Q2070.79 184.674 2068.95 189.839 Q2069.27 189.733 2070.37 189.733 Q2073.06 189.733 2074.54 191.42 Q2076.07 193.106 2076.07 195.372 Q2076.07 198.271 2074.17 199.694 Q2072.32 201.064 2070.48 201.064 Q2069.74 201.064 2068.74 200.906 Q2067.79 200.748 2066.26 199.272 Q2064.73 197.744 2064.73 195.056 Q2064.73 187.52 2070.43 181.512 Q2076.17 175.504 2084.92 175.504 Q2094.83 175.504 2101.31 181.407 Q2107.84 187.256 2107.84 196.426 Q2107.84 199.641 2106.84 202.592 Q2105.89 205.491 2104.58 207.757 Q2103.31 210.023 2099.83 213.659 Q2096.35 217.296 2093.56 219.878 Q2090.77 222.46 2084.5 227.941 L2073.06 239.061 L2092.51 239.061 Q2101.99 239.061 2102.73 238.218 Q2103.79 236.689 2105.1 228.626 L2107.84 228.626 L2104.79 247.388 L2064.73 247.388 Z" fill="#000000" fill-rule="evenodd" fill-opacity="1" /><path clip-path="url(#clip480)" d="M2119.81 245.649 Q2118.18 243.909 2118.18 241.643 Q2118.18 239.377 2119.81 237.743 Q2121.45 236.057 2123.92 236.057 Q2126.3 236.057 2127.88 237.638 Q2129.51 239.166 2129.51 241.696 Q2129.51 244.173 2127.77 245.807 Q2126.08 247.388 2123.92 247.388 Q2121.45 247.388 2119.81 245.649 Z" fill="#000000" fill-rule="evenodd" fill-opacity="1" /><path clip-path="url(#clip480)" d="M2147.88 212.869 Q2147.88 197.006 2151.88 188.363 Q2157.47 175.504 2170.64 175.504 Q2173.44 175.504 2176.34 176.295 Q2179.29 177.032 2182.98 179.931 Q2186.72 182.83 2188.98 187.573 Q2193.31 196.742 2193.31 212.869 Q2193.31 228.626 2189.3 237.216 Q2183.45 249.759 2170.54 249.759 Q2165.69 249.759 2160.74 247.282 Q2155.84 244.805 2152.73 238.85 Q2147.88 229.944 2147.88 212.869 M2156.84 211.551 Q2156.84 227.836 2158 234.318 Q2159.31 241.327 2162.9 244.384 Q2166.53 247.388 2170.54 247.388 Q2174.86 247.388 2178.44 244.173 Q2182.08 240.905 2183.19 233.896 Q2184.4 226.993 2184.35 211.551 Q2184.35 196.532 2183.29 190.524 Q2181.87 183.515 2178.07 180.721 Q2174.33 177.876 2170.54 177.876 Q2169.12 177.876 2167.59 178.297 Q2166.11 178.719 2163.95 179.931 Q2161.79 181.143 2160.1 184.147 Q2158.47 187.151 2157.68 191.683 Q2156.84 197.533 2156.84 211.551 Z" fill="#000000" fill-rule="evenodd" fill-opacity="1" /><path clip-path="url(#clip480)" d="M2201.75 212.869 Q2201.75 197.006 2205.76 188.363 Q2211.35 175.504 2224.52 175.504 Q2227.31 175.504 2230.21 176.295 Q2233.16 177.032 2236.85 179.931 Q2240.59 182.83 2242.86 187.573 Q2247.18 196.742 2247.18 212.869 Q2247.18 228.626 2243.18 237.216 Q2237.33 249.759 2224.42 249.759 Q2219.57 249.759 2214.61 247.282 Q2209.71 244.805 2206.6 238.85 Q2201.75 229.944 2201.75 212.869 M2210.71 211.551 Q2210.71 227.836 2211.87 234.318 Q2213.19 241.327 2216.77 244.384 Q2220.41 247.388 2224.42 247.388 Q2228.74 247.388 2232.32 244.173 Q2235.96 240.905 2237.06 233.896 Q2238.28 226.993 2238.22 211.551 Q2238.22 196.532 2237.17 190.524 Q2235.75 183.515 2231.95 180.721 Q2228.21 177.876 2224.42 177.876 Q2222.99 177.876 2221.46 178.297 Q2219.99 178.719 2217.83 179.931 Q2215.67 181.143 2213.98 184.147 Q2212.35 187.151 2211.56 191.683 Q2210.71 197.533 2210.71 211.551 Z" fill="#000000" fill-rule="evenodd" fill-opacity="1" /><path clip-path="url(#clip480)" d="M2255.63 212.869 Q2255.63 197.006 2259.64 188.363 Q2265.22 175.504 2278.4 175.504 Q2281.19 175.504 2284.09 176.295 Q2287.04 177.032 2290.73 179.931 Q2294.47 182.83 2296.74 187.573 Q2301.06 196.742 2301.06 212.869 Q2301.06 228.626 2297.05 237.216 Q2291.2 249.759 2278.29 249.759 Q2273.44 249.759 2268.49 247.282 Q2263.59 244.805 2260.48 238.85 Q2255.63 229.944 2255.63 212.869 M2264.59 211.551 Q2264.59 227.836 2265.75 234.318 Q2267.07 241.327 2270.65 244.384 Q2274.29 247.388 2278.29 247.388 Q2282.61 247.388 2286.2 244.173 Q2289.83 240.905 2290.94 233.896 Q2292.15 226.993 2292.1 211.551 Q2292.1 196.532 2291.05 190.524 Q2289.62 183.515 2285.83 180.721 Q2282.09 177.876 2278.29 177.876 Q2276.87 177.876 2275.34 178.297 Q2273.87 178.719 2271.71 179.931 Q2269.54 181.143 2267.86 184.147 Q2266.22 187.151 2265.43 191.683 Q2264.59 197.533 2264.59 211.551 Z" fill="#000000" fill-rule="evenodd" fill-opacity="1" /><polyline clip-path="url(#clip480)" style="stroke:#e26f46; stroke-linecap:butt; stroke-linejoin:round; stroke-width:9; stroke-opacity:1; fill:none" points="
  1538.88,323.941 1669.92,323.941 
  "/>
<path clip-path="url(#clip480)" d="M1736.34 310.062 Q1736.34 318.916 1733.5 328.876 Q1730.7 338.784 1726.28 346.795 Q1721.85 354.752 1716.05 360.022 Q1710.25 365.24 1704.72 365.24 Q1701.19 365.24 1698.56 363.29 Q1695.97 361.287 1694.55 357.967 Q1693.13 354.594 1692.44 350.905 Q1691.76 347.163 1691.76 343.106 Q1691.76 337.045 1693.07 330.457 Q1694.39 323.817 1696.61 317.809 Q1698.82 311.749 1701.93 306.268 Q1705.04 300.734 1708.46 296.729 Q1711.94 292.671 1715.84 290.3 Q1719.74 287.928 1723.38 287.928 Q1726.01 287.928 1728.12 289.088 Q1730.28 290.194 1731.65 292.144 Q1733.02 294.041 1733.97 296.307 Q1734.97 298.574 1735.45 301.209 Q1735.92 303.791 1736.13 305.952 Q1736.34 308.06 1736.34 310.062 M1729.23 303.369 Q1729.23 300.682 1729.02 298.679 Q1728.81 296.624 1728.23 294.568 Q1727.65 292.513 1726.38 291.406 Q1725.17 290.3 1723.27 290.3 Q1717.74 290.3 1711.52 301.63 Q1709.52 305.161 1707.73 309.957 Q1705.93 314.753 1705.3 317.019 Q1704.67 319.285 1703.19 324.871 L1725.75 324.871 Q1729.23 310.484 1729.23 303.369 M1724.8 328.297 L1702.35 328.297 Q1698.87 341.472 1698.87 349.693 Q1698.87 356.86 1700.35 359.864 Q1701.88 362.816 1704.72 362.816 Q1707.99 362.816 1711.05 359.548 Q1714.1 356.228 1717.21 350.22 Q1721.32 342.42 1724.8 328.297 Z" fill="#000000" fill-rule="evenodd" fill-opacity="1" /><path clip-path="url(#clip480)" d="M1747.43 395.129 Q1747.43 393.765 1747.54 393.359 Q1747.69 392.953 1748.28 392.326 L1762.78 376.168 Q1770.71 367.24 1770.71 359.457 Q1770.71 354.403 1768.05 350.787 Q1765.44 347.172 1760.6 347.172 Q1757.28 347.172 1754.48 349.201 Q1751.68 351.23 1750.38 354.845 Q1750.61 354.771 1751.38 354.771 Q1753.26 354.771 1754.29 355.952 Q1755.36 357.132 1755.36 358.719 Q1755.36 360.748 1754.04 361.744 Q1752.75 362.703 1751.45 362.703 Q1750.94 362.703 1750.24 362.592 Q1749.57 362.482 1748.5 361.449 Q1747.43 360.379 1747.43 358.497 Q1747.43 353.222 1751.42 349.017 Q1755.44 344.811 1761.56 344.811 Q1768.5 344.811 1773.04 348.943 Q1777.61 353.038 1777.61 359.457 Q1777.61 361.707 1776.91 363.773 Q1776.24 365.802 1775.32 367.388 Q1774.44 368.974 1772 371.52 Q1769.57 374.065 1767.61 375.873 Q1765.66 377.68 1761.27 381.517 L1753.26 389.301 L1766.87 389.301 Q1773.51 389.301 1774.03 388.711 Q1774.77 387.641 1775.69 381.997 L1777.61 381.997 L1775.47 395.129 L1747.43 395.129 Z" fill="#000000" fill-rule="evenodd" fill-opacity="1" /><path clip-path="url(#clip480)" d="M1788.83 337.045 Q1788.83 318.811 1795.63 304.107 Q1798.53 297.941 1802.59 292.777 Q1806.65 287.612 1809.33 285.346 Q1812.02 283.08 1812.76 283.08 Q1813.81 283.08 1813.87 284.134 Q1813.87 284.661 1812.44 285.978 Q1795.05 303.686 1795.11 337.045 Q1795.11 370.51 1812.02 387.532 Q1813.87 389.377 1813.87 389.956 Q1813.87 391.01 1812.76 391.01 Q1812.02 391.01 1809.44 388.85 Q1806.86 386.689 1802.85 381.735 Q1798.85 376.781 1795.95 370.721 Q1788.83 356.017 1788.83 337.045 Z" fill="#000000" fill-rule="evenodd" fill-opacity="1" /><path clip-path="url(#clip480)" d="M1824.23 329.509 Q1824.23 313.646 1828.23 305.003 Q1833.82 292.144 1846.99 292.144 Q1849.79 292.144 1852.69 292.935 Q1855.64 293.672 1859.33 296.571 Q1863.07 299.47 1865.33 304.213 Q1869.66 313.382 1869.66 329.509 Q1869.66 345.266 1865.65 353.856 Q1859.8 366.399 1846.89 366.399 Q1842.04 366.399 1837.09 363.922 Q1832.19 361.445 1829.08 355.49 Q1824.23 346.584 1824.23 329.509 M1833.19 328.191 Q1833.19 344.476 1834.35 350.958 Q1835.66 357.967 1839.25 361.024 Q1842.88 364.028 1846.89 364.028 Q1851.21 364.028 1854.79 360.813 Q1858.43 357.545 1859.54 350.536 Q1860.75 343.633 1860.7 328.191 Q1860.7 313.172 1859.64 307.164 Q1858.22 300.155 1854.42 297.361 Q1850.68 294.516 1846.89 294.516 Q1845.47 294.516 1843.94 294.937 Q1842.46 295.359 1840.3 296.571 Q1838.14 297.783 1836.45 300.787 Q1834.82 303.791 1834.03 308.323 Q1833.19 314.173 1833.19 328.191 Z" fill="#000000" fill-rule="evenodd" fill-opacity="1" /><path clip-path="url(#clip480)" d="M1880.26 389.956 Q1880.26 389.429 1881.63 388.112 Q1899.03 370.404 1899.03 337.045 Q1899.03 303.58 1882.32 286.663 Q1880.26 284.713 1880.26 284.134 Q1880.26 283.08 1881.32 283.08 Q1882.06 283.08 1884.64 285.24 Q1887.27 287.401 1891.23 292.355 Q1895.23 297.309 1898.18 303.369 Q1905.3 318.073 1905.3 337.045 Q1905.3 355.279 1898.5 369.983 Q1895.6 376.149 1891.54 381.313 Q1887.48 386.478 1884.8 388.744 Q1882.11 391.01 1881.32 391.01 Q1880.26 391.01 1880.26 389.956 Z" fill="#000000" fill-rule="evenodd" fill-opacity="1" /><path clip-path="url(#clip480)" d="M1951.65 347.638 Q1951.75 346.32 1953.81 346.32 L2019.95 346.32 Q2023.06 346.32 2023.11 347.532 Q2023.11 348.85 2020.16 348.797 L1954.55 348.797 Q1951.65 348.85 1951.65 347.638 M1951.65 326.558 Q1951.65 325.24 1953.91 325.293 L2019.84 325.293 Q2023.06 325.293 2023.11 326.558 Q2023.11 327.77 2020.37 327.77 L1953.81 327.77 Q1951.65 327.77 1951.65 326.558 Z" fill="#000000" fill-rule="evenodd" fill-opacity="1" /><path clip-path="url(#clip480)" d="M2064.73 364.028 Q2064.73 362.078 2064.89 361.498 Q2065.1 360.918 2065.95 360.022 L2086.66 336.94 Q2097.99 324.186 2097.99 313.066 Q2097.99 305.846 2094.19 300.682 Q2090.45 295.517 2083.55 295.517 Q2078.81 295.517 2074.8 298.415 Q2070.79 301.314 2068.95 306.479 Q2069.27 306.373 2070.37 306.373 Q2073.06 306.373 2074.54 308.06 Q2076.07 309.746 2076.07 312.012 Q2076.07 314.911 2074.17 316.334 Q2072.32 317.704 2070.48 317.704 Q2069.74 317.704 2068.74 317.546 Q2067.79 317.388 2066.26 315.912 Q2064.73 314.384 2064.73 311.696 Q2064.73 304.16 2070.43 298.152 Q2076.17 292.144 2084.92 292.144 Q2094.83 292.144 2101.31 298.047 Q2107.84 303.896 2107.84 313.066 Q2107.84 316.281 2106.84 319.232 Q2105.89 322.131 2104.58 324.397 Q2103.31 326.663 2099.83 330.299 Q2096.35 333.936 2093.56 336.518 Q2090.77 339.1 2084.5 344.581 L2073.06 355.701 L2092.51 355.701 Q2101.99 355.701 2102.73 354.858 Q2103.79 353.329 2105.1 345.266 L2107.84 345.266 L2104.79 364.028 L2064.73 364.028 Z" fill="#000000" fill-rule="evenodd" fill-opacity="1" /><path clip-path="url(#clip480)" d="M2119.81 362.289 Q2118.18 360.549 2118.18 358.283 Q2118.18 356.017 2119.81 354.383 Q2121.45 352.697 2123.92 352.697 Q2126.3 352.697 2127.88 354.278 Q2129.51 355.806 2129.51 358.336 Q2129.51 360.813 2127.77 362.447 Q2126.08 364.028 2123.92 364.028 Q2121.45 364.028 2119.81 362.289 Z" fill="#000000" fill-rule="evenodd" fill-opacity="1" /><path clip-path="url(#clip480)" d="M2147.88 329.509 Q2147.88 313.646 2151.88 305.003 Q2157.47 292.144 2170.64 292.144 Q2173.44 292.144 2176.34 292.935 Q2179.29 293.672 2182.98 296.571 Q2186.72 299.47 2188.98 304.213 Q2193.31 313.382 2193.31 329.509 Q2193.31 345.266 2189.3 353.856 Q2183.45 366.399 2170.54 366.399 Q2165.69 366.399 2160.74 363.922 Q2155.84 361.445 2152.73 355.49 Q2147.88 346.584 2147.88 329.509 M2156.84 328.191 Q2156.84 344.476 2158 350.958 Q2159.31 357.967 2162.9 361.024 Q2166.53 364.028 2170.54 364.028 Q2174.86 364.028 2178.44 360.813 Q2182.08 357.545 2183.19 350.536 Q2184.4 343.633 2184.35 328.191 Q2184.35 313.172 2183.29 307.164 Q2181.87 300.155 2178.07 297.361 Q2174.33 294.516 2170.54 294.516 Q2169.12 294.516 2167.59 294.937 Q2166.11 295.359 2163.95 296.571 Q2161.79 297.783 2160.1 300.787 Q2158.47 303.791 2157.68 308.323 Q2156.84 314.173 2156.84 328.191 Z" fill="#000000" fill-rule="evenodd" fill-opacity="1" /><path clip-path="url(#clip480)" d="M2201.75 329.509 Q2201.75 313.646 2205.76 305.003 Q2211.35 292.144 2224.52 292.144 Q2227.31 292.144 2230.21 292.935 Q2233.16 293.672 2236.85 296.571 Q2240.59 299.47 2242.86 304.213 Q2247.18 313.382 2247.18 329.509 Q2247.18 345.266 2243.18 353.856 Q2237.33 366.399 2224.42 366.399 Q2219.57 366.399 2214.61 363.922 Q2209.71 361.445 2206.6 355.49 Q2201.75 346.584 2201.75 329.509 M2210.71 328.191 Q2210.71 344.476 2211.87 350.958 Q2213.19 357.967 2216.77 361.024 Q2220.41 364.028 2224.42 364.028 Q2228.74 364.028 2232.32 360.813 Q2235.96 357.545 2237.06 350.536 Q2238.28 343.633 2238.22 328.191 Q2238.22 313.172 2237.17 307.164 Q2235.75 300.155 2231.95 297.361 Q2228.21 294.516 2224.42 294.516 Q2222.99 294.516 2221.46 294.937 Q2219.99 295.359 2217.83 296.571 Q2215.67 297.783 2213.98 300.787 Q2212.35 303.791 2211.56 308.323 Q2210.71 314.173 2210.71 328.191 Z" fill="#000000" fill-rule="evenodd" fill-opacity="1" /><path clip-path="url(#clip480)" d="M2252.02 302.421 L2252.02 299.048 Q2264.98 299.048 2271.68 292.144 Q2273.52 292.144 2273.84 292.566 Q2274.15 292.987 2274.15 294.937 L2274.15 355.49 Q2274.15 358.705 2275.74 359.706 Q2277.32 360.707 2284.22 360.707 L2287.65 360.707 L2287.65 364.028 Q2283.85 363.711 2270.15 363.711 Q2256.45 363.711 2252.71 364.028 L2252.71 360.707 L2256.13 360.707 Q2262.93 360.707 2264.56 359.759 Q2266.2 358.758 2266.2 355.49 L2266.2 299.575 Q2260.56 302.421 2252.02 302.421 Z" fill="#000000" fill-rule="evenodd" fill-opacity="1" /></svg>
