<?xml version="1.0" encoding="utf-8"?>
<svg xmlns="http://www.w3.org/2000/svg" xmlns:xlink="http://www.w3.org/1999/xlink" width="600" height="400" viewBox="0 0 2400 1600">
<defs>
  <clipPath id="clip090">
    <rect x="0" y="0" width="2400" height="1600"/>
  </clipPath>
</defs>
<path clip-path="url(#clip090)" d="
M0 1600 L2400 1600 L2400 0 L0 0  Z
  " fill="#ffffff" fill-rule="evenodd" fill-opacity="1"/>
<defs>
  <clipPath id="clip091">
    <rect x="480" y="0" width="1681" height="1600"/>
  </clipPath>
</defs>
<defs>
  <clipPath id="clip092">
    <rect x="387" y="47" width="1190" height="1303"/>
  </clipPath>
</defs>
<path clip-path="url(#clip090)" d="
M421.124 1349.74 L2073.74 1349.74 L2073.74 166.672 L421.124 166.672  Z
  " fill="#ffffff" fill-rule="evenodd" fill-opacity="1"/>
<defs>
  <clipPath id="clip093">
    <rect x="421" y="166" width="1654" height="1184"/>
  </clipPath>
</defs>
<polyline clip-path="url(#clip090)" style="stroke:#000000; stroke-linecap:butt; stroke-linejoin:round; stroke-width:4; stroke-opacity:1; fill:none" points="
  421.124,1349.74 2073.74,1349.74 
  "/>
<polyline clip-path="url(#clip090)" style="stroke:#000000; stroke-linecap:butt; stroke-linejoin:round; stroke-width:4; stroke-opacity:1; fill:none" points="
  467.896,1349.74 467.896,1330.84 
  "/>
<polyline clip-path="url(#clip090)" style="stroke:#000000; stroke-linecap:butt; stroke-linejoin:round; stroke-width:4; stroke-opacity:1; fill:none" points="
  856.486,1349.74 856.486,1330.84 
  "/>
<polyline clip-path="url(#clip090)" style="stroke:#000000; stroke-linecap:butt; stroke-linejoin:round; stroke-width:4; stroke-opacity:1; fill:none" points="
  1245.08,1349.74 1245.08,1330.84 
  "/>
<polyline clip-path="url(#clip090)" style="stroke:#000000; stroke-linecap:butt; stroke-linejoin:round; stroke-width:4; stroke-opacity:1; fill:none" points="
  1633.67,1349.74 1633.67,1330.84 
  "/>
<polyline clip-path="url(#clip090)" style="stroke:#000000; stroke-linecap:butt; stroke-linejoin:round; stroke-width:4; stroke-opacity:1; fill:none" points="
  2022.26,1349.74 2022.26,1330.84 
  "/>
<path clip-path="url(#clip090)" d="M417.011 1395.31 Q408.886 1395.31 404.771 1403.33 Q400.709 1411.3 400.709 1427.34 Q400.709 1443.33 404.771 1451.35 Q408.886 1459.32 417.011 1459.32 Q425.188 1459.32 429.25 1451.35 Q433.365 1443.33 433.365 1427.34 Q433.365 1411.3 429.25 1403.33 Q425.188 1395.31 417.011 1395.31 M417.011 1386.97 Q430.084 1386.97 436.959 1397.34 Q443.886 1407.65 443.886 1427.34 Q443.886 1446.97 436.959 1457.34 Q430.084 1467.65 417.011 1467.65 Q403.938 1467.65 397.011 1457.34 Q390.136 1446.97 390.136 1427.34 Q390.136 1407.65 397.011 1397.34 Q403.938 1386.97 417.011 1386.97 Z" fill="#000000" fill-rule="evenodd" fill-opacity="1" /><path clip-path="url(#clip090)" d="M462.375 1452.91 L473.365 1452.91 L473.365 1466.14 L462.375 1466.14 L462.375 1452.91 Z" fill="#000000" fill-rule="evenodd" fill-opacity="1" /><path clip-path="url(#clip090)" d="M518.781 1395.31 Q510.656 1395.31 506.542 1403.33 Q502.479 1411.3 502.479 1427.34 Q502.479 1443.33 506.542 1451.35 Q510.656 1459.32 518.781 1459.32 Q526.958 1459.32 531.021 1451.35 Q535.135 1443.33 535.135 1427.34 Q535.135 1411.3 531.021 1403.33 Q526.958 1395.31 518.781 1395.31 M518.781 1386.97 Q531.854 1386.97 538.729 1397.34 Q545.656 1407.65 545.656 1427.34 Q545.656 1446.97 538.729 1457.34 Q531.854 1467.65 518.781 1467.65 Q505.708 1467.65 498.781 1457.34 Q491.906 1446.97 491.906 1427.34 Q491.906 1407.65 498.781 1397.34 Q505.708 1386.97 518.781 1386.97 Z" fill="#000000" fill-rule="evenodd" fill-opacity="1" /><path clip-path="url(#clip090)" d="M806.721 1395.31 Q798.596 1395.31 794.481 1403.33 Q790.419 1411.3 790.419 1427.34 Q790.419 1443.33 794.481 1451.35 Q798.596 1459.32 806.721 1459.32 Q814.898 1459.32 818.96 1451.35 Q823.075 1443.33 823.075 1427.34 Q823.075 1411.3 818.96 1403.33 Q814.898 1395.31 806.721 1395.31 M806.721 1386.97 Q819.793 1386.97 826.668 1397.34 Q833.595 1407.65 833.595 1427.34 Q833.595 1446.97 826.668 1457.34 Q819.793 1467.65 806.721 1467.65 Q793.648 1467.65 786.721 1457.34 Q779.846 1446.97 779.846 1427.34 Q779.846 1407.65 786.721 1397.34 Q793.648 1386.97 806.721 1386.97 Z" fill="#000000" fill-rule="evenodd" fill-opacity="1" /><path clip-path="url(#clip090)" d="M852.085 1452.91 L863.074 1452.91 L863.074 1466.14 L852.085 1466.14 L852.085 1452.91 Z" fill="#000000" fill-rule="evenodd" fill-opacity="1" /><path clip-path="url(#clip090)" d="M886.095 1388.38 L927.397 1388.38 L927.397 1397.23 L895.73 1397.23 L895.73 1416.3 Q898.022 1415.52 900.314 1415.15 Q902.605 1414.73 904.897 1414.73 Q917.918 1414.73 925.522 1421.87 Q933.126 1429 933.126 1441.19 Q933.126 1453.74 925.314 1460.72 Q917.501 1467.65 903.283 1467.65 Q898.387 1467.65 893.283 1466.82 Q888.231 1465.98 882.814 1464.32 L882.814 1453.74 Q887.501 1456.3 892.501 1457.55 Q897.501 1458.8 903.074 1458.8 Q912.085 1458.8 917.345 1454.06 Q922.605 1449.32 922.605 1441.19 Q922.605 1433.07 917.345 1428.33 Q912.085 1423.59 903.074 1423.59 Q898.855 1423.59 894.637 1424.53 Q890.47 1425.46 886.095 1427.44 L886.095 1388.38 Z" fill="#000000" fill-rule="evenodd" fill-opacity="1" /><path clip-path="url(#clip090)" d="M1171.17 1457.29 L1188.36 1457.29 L1188.36 1397.96 L1169.66 1401.71 L1169.66 1392.13 L1188.25 1388.38 L1198.77 1388.38 L1198.77 1457.29 L1215.96 1457.29 L1215.96 1466.14 L1171.17 1466.14 L1171.17 1457.29 Z" fill="#000000" fill-rule="evenodd" fill-opacity="1" /><path clip-path="url(#clip090)" d="M1237.21 1452.91 L1248.2 1452.91 L1248.2 1466.14 L1237.21 1466.14 L1237.21 1452.91 Z" fill="#000000" fill-rule="evenodd" fill-opacity="1" /><path clip-path="url(#clip090)" d="M1293.62 1395.31 Q1285.49 1395.31 1281.38 1403.33 Q1277.32 1411.3 1277.32 1427.34 Q1277.32 1443.33 1281.38 1451.35 Q1285.49 1459.32 1293.62 1459.32 Q1301.79 1459.32 1305.86 1451.35 Q1309.97 1443.33 1309.97 1427.34 Q1309.97 1411.3 1305.86 1403.33 Q1301.79 1395.31 1293.62 1395.31 M1293.62 1386.97 Q1306.69 1386.97 1313.56 1397.34 Q1320.49 1407.65 1320.49 1427.34 Q1320.49 1446.97 1313.56 1457.34 Q1306.69 1467.65 1293.62 1467.65 Q1280.54 1467.65 1273.62 1457.34 Q1266.74 1446.97 1266.74 1427.34 Q1266.74 1407.65 1273.62 1397.34 Q1280.54 1386.97 1293.62 1386.97 Z" fill="#000000" fill-rule="evenodd" fill-opacity="1" /><path clip-path="url(#clip090)" d="M1560.88 1457.29 L1578.07 1457.29 L1578.07 1397.96 L1559.37 1401.71 L1559.37 1392.13 L1577.96 1388.38 L1588.48 1388.38 L1588.48 1457.29 L1605.67 1457.29 L1605.67 1466.14 L1560.88 1466.14 L1560.88 1457.29 Z" fill="#000000" fill-rule="evenodd" fill-opacity="1" /><path clip-path="url(#clip090)" d="M1626.92 1452.91 L1637.91 1452.91 L1637.91 1466.14 L1626.92 1466.14 L1626.92 1452.91 Z" fill="#000000" fill-rule="evenodd" fill-opacity="1" /><path clip-path="url(#clip090)" d="M1660.93 1388.38 L1702.23 1388.38 L1702.23 1397.23 L1670.57 1397.23 L1670.57 1416.3 Q1672.86 1415.52 1675.15 1415.15 Q1677.44 1414.73 1679.73 1414.73 Q1692.75 1414.73 1700.36 1421.87 Q1707.96 1429 1707.96 1441.19 Q1707.96 1453.74 1700.15 1460.72 Q1692.34 1467.65 1678.12 1467.65 Q1673.22 1467.65 1668.12 1466.82 Q1663.07 1465.98 1657.65 1464.32 L1657.65 1453.74 Q1662.34 1456.3 1667.34 1457.55 Q1672.34 1458.8 1677.91 1458.8 Q1686.92 1458.8 1692.18 1454.06 Q1697.44 1449.32 1697.44 1441.19 Q1697.44 1433.07 1692.18 1428.33 Q1686.92 1423.59 1677.91 1423.59 Q1673.69 1423.59 1669.47 1424.53 Q1665.31 1425.46 1660.93 1427.44 L1660.93 1388.38 Z" fill="#000000" fill-rule="evenodd" fill-opacity="1" /><path clip-path="url(#clip090)" d="M1957.54 1457.29 L1994.26 1457.29 L1994.26 1466.14 L1944.89 1466.14 L1944.89 1457.29 Q1950.88 1451.09 1961.19 1440.67 Q1971.55 1430.2 1974.21 1427.18 Q1979.26 1421.5 1981.24 1417.6 Q1983.27 1413.64 1983.27 1409.84 Q1983.27 1403.64 1978.9 1399.73 Q1974.57 1395.83 1967.59 1395.83 Q1962.65 1395.83 1957.13 1397.55 Q1951.66 1399.27 1945.41 1402.75 L1945.41 1392.13 Q1951.76 1389.58 1957.28 1388.28 Q1962.8 1386.97 1967.39 1386.97 Q1979.47 1386.97 1986.66 1393.02 Q1993.84 1399.06 1993.84 1409.16 Q1993.84 1413.95 1992.02 1418.28 Q1990.25 1422.55 1985.51 1428.38 Q1984.21 1429.89 1977.23 1437.13 Q1970.25 1444.32 1957.54 1457.29 Z" fill="#000000" fill-rule="evenodd" fill-opacity="1" /><path clip-path="url(#clip090)" d="M2016.34 1452.91 L2027.33 1452.91 L2027.33 1466.14 L2016.34 1466.14 L2016.34 1452.91 Z" fill="#000000" fill-rule="evenodd" fill-opacity="1" /><path clip-path="url(#clip090)" d="M2072.75 1395.31 Q2064.62 1395.31 2060.51 1403.33 Q2056.45 1411.3 2056.45 1427.34 Q2056.45 1443.33 2060.51 1451.35 Q2064.62 1459.32 2072.75 1459.32 Q2080.93 1459.32 2084.99 1451.35 Q2089.1 1443.33 2089.1 1427.34 Q2089.1 1411.3 2084.99 1403.33 Q2080.93 1395.31 2072.75 1395.31 M2072.75 1386.97 Q2085.82 1386.97 2092.7 1397.34 Q2099.62 1407.65 2099.62 1427.34 Q2099.62 1446.97 2092.7 1457.34 Q2085.82 1467.65 2072.75 1467.65 Q2059.68 1467.65 2052.75 1457.34 Q2045.87 1446.97 2045.87 1427.34 Q2045.87 1407.65 2052.75 1397.34 Q2059.68 1386.97 2072.75 1386.97 Z" fill="#000000" fill-rule="evenodd" fill-opacity="1" /><path clip-path="url(#clip090)" d="M1063.27 1520.8 L1063.27 1537.36 L1083.01 1537.36 L1083.01 1544.81 L1063.27 1544.81 L1063.27 1576.47 Q1063.27 1583.61 1065.19 1585.64 Q1067.17 1587.67 1073.16 1587.67 L1083.01 1587.67 L1083.01 1595.69 L1073.16 1595.69 Q1062.07 1595.69 1057.85 1591.58 Q1053.63 1587.41 1053.63 1576.47 L1053.63 1544.81 L1046.6 1544.81 L1046.6 1537.36 L1053.63 1537.36 L1053.63 1520.8 L1063.27 1520.8 Z" fill="#000000" fill-rule="evenodd" fill-opacity="1" /><path clip-path="url(#clip090)" d="M1095.61 1537.36 L1105.19 1537.36 L1105.19 1595.69 L1095.61 1595.69 L1095.61 1537.36 M1095.61 1514.65 L1105.19 1514.65 L1105.19 1526.79 L1095.61 1526.79 L1095.61 1514.65 Z" fill="#000000" fill-rule="evenodd" fill-opacity="1" /><path clip-path="url(#clip090)" d="M1170.66 1548.56 Q1174.26 1542.1 1179.26 1539.03 Q1184.26 1535.95 1191.03 1535.95 Q1200.14 1535.95 1205.09 1542.36 Q1210.04 1548.71 1210.04 1560.48 L1210.04 1595.69 L1200.4 1595.69 L1200.4 1560.8 Q1200.4 1552.41 1197.43 1548.35 Q1194.46 1544.29 1188.37 1544.29 Q1180.92 1544.29 1176.6 1549.23 Q1172.28 1554.18 1172.28 1562.72 L1172.28 1595.69 L1162.64 1595.69 L1162.64 1560.8 Q1162.64 1552.36 1159.67 1548.35 Q1156.7 1544.29 1150.51 1544.29 Q1143.16 1544.29 1138.84 1549.29 Q1134.52 1554.23 1134.52 1562.72 L1134.52 1595.69 L1124.88 1595.69 L1124.88 1537.36 L1134.52 1537.36 L1134.52 1546.42 Q1137.8 1541.06 1142.38 1538.5 Q1146.96 1535.95 1153.27 1535.95 Q1159.62 1535.95 1164.05 1539.18 Q1168.53 1542.41 1170.66 1548.56 Z" fill="#000000" fill-rule="evenodd" fill-opacity="1" /><path clip-path="url(#clip090)" d="M1279.05 1564.13 L1279.05 1568.82 L1234.99 1568.82 Q1235.61 1578.71 1240.92 1583.92 Q1246.29 1589.08 1255.82 1589.08 Q1261.34 1589.08 1266.5 1587.72 Q1271.7 1586.37 1276.81 1583.66 L1276.81 1592.72 Q1271.65 1594.91 1266.24 1596.06 Q1260.82 1597.2 1255.25 1597.2 Q1241.29 1597.2 1233.11 1589.08 Q1224.99 1580.95 1224.99 1567.1 Q1224.99 1552.78 1232.69 1544.39 Q1240.45 1535.95 1253.58 1535.95 Q1265.35 1535.95 1272.17 1543.56 Q1279.05 1551.11 1279.05 1564.13 M1269.46 1561.32 Q1269.36 1553.45 1265.04 1548.77 Q1260.77 1544.08 1253.68 1544.08 Q1245.66 1544.08 1240.82 1548.61 Q1236.03 1553.14 1235.3 1561.37 L1269.46 1561.32 Z" fill="#000000" fill-rule="evenodd" fill-opacity="1" /><path clip-path="url(#clip090)" d="M1351.7 1514.75 Q1344.72 1526.73 1341.34 1538.45 Q1337.95 1550.17 1337.95 1562.2 Q1337.95 1574.23 1341.34 1586.06 Q1344.78 1597.83 1351.7 1609.75 L1343.37 1609.75 Q1335.56 1597.51 1331.65 1585.69 Q1327.8 1573.87 1327.8 1562.2 Q1327.8 1550.59 1331.65 1538.82 Q1335.51 1527.05 1343.37 1514.75 L1351.7 1514.75 Z" fill="#000000" fill-rule="evenodd" fill-opacity="1" /><path clip-path="url(#clip090)" d="M1407.48 1539.08 L1407.48 1548.14 Q1403.42 1546.06 1399.05 1545.02 Q1394.67 1543.97 1389.98 1543.97 Q1382.85 1543.97 1379.26 1546.16 Q1375.71 1548.35 1375.71 1552.72 Q1375.71 1556.06 1378.27 1557.98 Q1380.82 1559.86 1388.53 1561.58 L1391.81 1562.31 Q1402.02 1564.49 1406.29 1568.5 Q1410.61 1572.46 1410.61 1579.6 Q1410.61 1587.72 1404.15 1592.46 Q1397.74 1597.2 1386.49 1597.2 Q1381.81 1597.2 1376.7 1596.26 Q1371.65 1595.38 1366.03 1593.56 L1366.03 1583.66 Q1371.34 1586.42 1376.49 1587.83 Q1381.65 1589.18 1386.7 1589.18 Q1393.47 1589.18 1397.12 1586.89 Q1400.77 1584.55 1400.77 1580.33 Q1400.77 1576.42 1398.11 1574.34 Q1395.51 1572.25 1386.6 1570.33 L1383.27 1569.55 Q1374.36 1567.67 1370.4 1563.82 Q1366.44 1559.91 1366.44 1553.14 Q1366.44 1544.91 1372.28 1540.43 Q1378.11 1535.95 1388.84 1535.95 Q1394.15 1535.95 1398.84 1536.73 Q1403.53 1537.52 1407.48 1539.08 Z" fill="#000000" fill-rule="evenodd" fill-opacity="1" /><path clip-path="url(#clip090)" d="M1424.36 1514.75 L1432.69 1514.75 Q1440.51 1527.05 1444.36 1538.82 Q1448.27 1550.59 1448.27 1562.2 Q1448.27 1573.87 1444.36 1585.69 Q1440.51 1597.51 1432.69 1609.75 L1424.36 1609.75 Q1431.29 1597.83 1434.67 1586.06 Q1438.11 1574.23 1438.11 1562.2 Q1438.11 1550.17 1434.67 1538.45 Q1431.29 1526.73 1424.36 1514.75 Z" fill="#000000" fill-rule="evenodd" fill-opacity="1" /><polyline clip-path="url(#clip090)" style="stroke:#000000; stroke-linecap:butt; stroke-linejoin:round; stroke-width:4; stroke-opacity:1; fill:none" points="
  421.124,1349.74 421.124,166.672 
  "/>
<polyline clip-path="url(#clip090)" style="stroke:#000000; stroke-linecap:butt; stroke-linejoin:round; stroke-width:4; stroke-opacity:1; fill:none" points="
  421.124,1198.11 437.292,1198.11 
  "/>
<polyline clip-path="url(#clip090)" style="stroke:#000000; stroke-linecap:butt; stroke-linejoin:round; stroke-width:4; stroke-opacity:1; fill:none" points="
  421.124,932.207 437.292,932.207 
  "/>
<polyline clip-path="url(#clip090)" style="stroke:#000000; stroke-linecap:butt; stroke-linejoin:round; stroke-width:4; stroke-opacity:1; fill:none" points="
  421.124,666.309 437.292,666.309 
  "/>
<polyline clip-path="url(#clip090)" style="stroke:#000000; stroke-linecap:butt; stroke-linejoin:round; stroke-width:4; stroke-opacity:1; fill:none" points="
  421.124,400.411 437.292,400.411 
  "/>
<path clip-path="url(#clip090)" d="M144.5 1199.12 L211.271 1199.12 L211.271 1207.98 L144.5 1207.98 L144.5 1199.12 Z" fill="#000000" fill-rule="evenodd" fill-opacity="1" /><path clip-path="url(#clip090)" d="M235.802 1228.13 L252.989 1228.13 L252.989 1168.81 L234.291 1172.56 L234.291 1162.98 L252.885 1159.23 L263.406 1159.23 L263.406 1228.13 L280.593 1228.13 L280.593 1236.99 L235.802 1236.99 L235.802 1228.13 Z" fill="#000000" fill-rule="evenodd" fill-opacity="1" /><path clip-path="url(#clip090)" d="M301.843 1223.76 L312.833 1223.76 L312.833 1236.99 L301.843 1236.99 L301.843 1223.76 Z" fill="#000000" fill-rule="evenodd" fill-opacity="1" /><path clip-path="url(#clip090)" d="M358.249 1166.15 Q350.124 1166.15 346.009 1174.17 Q341.947 1182.14 341.947 1198.18 Q341.947 1214.17 346.009 1222.19 Q350.124 1230.16 358.249 1230.16 Q366.426 1230.16 370.489 1222.19 Q374.603 1214.17 374.603 1198.18 Q374.603 1182.14 370.489 1174.17 Q366.426 1166.15 358.249 1166.15 M358.249 1157.82 Q371.322 1157.82 378.197 1168.18 Q385.124 1178.5 385.124 1198.18 Q385.124 1217.82 378.197 1228.18 Q371.322 1238.5 358.249 1238.5 Q345.176 1238.5 338.249 1228.18 Q331.374 1217.82 331.374 1198.18 Q331.374 1178.5 338.249 1168.18 Q345.176 1157.82 358.249 1157.82 Z" fill="#000000" fill-rule="evenodd" fill-opacity="1" /><path clip-path="url(#clip090)" d="M146.74 933.223 L213.51 933.223 L213.51 942.077 L146.74 942.077 L146.74 933.223 Z" fill="#000000" fill-rule="evenodd" fill-opacity="1" /><path clip-path="url(#clip090)" d="M258.718 900.254 Q250.593 900.254 246.479 908.275 Q242.416 916.244 242.416 932.285 Q242.416 948.275 246.479 956.296 Q250.593 964.264 258.718 964.264 Q266.895 964.264 270.958 956.296 Q275.072 948.275 275.072 932.285 Q275.072 916.244 270.958 908.275 Q266.895 900.254 258.718 900.254 M258.718 891.921 Q271.791 891.921 278.666 902.286 Q285.593 912.598 285.593 932.285 Q285.593 951.921 278.666 962.285 Q271.791 972.598 258.718 972.598 Q245.645 972.598 238.718 962.285 Q231.843 951.921 231.843 932.285 Q231.843 912.598 238.718 902.286 Q245.645 891.921 258.718 891.921 Z" fill="#000000" fill-rule="evenodd" fill-opacity="1" /><path clip-path="url(#clip090)" d="M304.083 957.858 L315.072 957.858 L315.072 971.087 L304.083 971.087 L304.083 957.858 Z" fill="#000000" fill-rule="evenodd" fill-opacity="1" /><path clip-path="url(#clip090)" d="M338.093 893.327 L379.395 893.327 L379.395 902.181 L347.728 902.181 L347.728 921.244 Q350.02 920.463 352.312 920.098 Q354.603 919.681 356.895 919.681 Q369.916 919.681 377.52 926.817 Q385.124 933.952 385.124 946.14 Q385.124 958.692 377.311 965.671 Q369.499 972.598 355.28 972.598 Q350.384 972.598 345.28 971.764 Q340.228 970.931 334.812 969.264 L334.812 958.692 Q339.499 961.244 344.499 962.494 Q349.499 963.744 355.072 963.744 Q364.082 963.744 369.343 959.004 Q374.603 954.265 374.603 946.14 Q374.603 938.015 369.343 933.275 Q364.082 928.536 355.072 928.536 Q350.853 928.536 346.634 929.473 Q342.468 930.41 338.093 932.39 L338.093 893.327 Z" fill="#000000" fill-rule="evenodd" fill-opacity="1" /><path clip-path="url(#clip090)" d="M256.479 634.356 Q248.354 634.356 244.239 642.377 Q240.177 650.346 240.177 666.387 Q240.177 682.377 244.239 690.398 Q248.354 698.366 256.479 698.366 Q264.656 698.366 268.718 690.398 Q272.833 682.377 272.833 666.387 Q272.833 650.346 268.718 642.377 Q264.656 634.356 256.479 634.356 M256.479 626.023 Q269.552 626.023 276.427 636.387 Q283.354 646.7 283.354 666.387 Q283.354 686.023 276.427 696.387 Q269.552 706.7 256.479 706.7 Q243.406 706.7 236.479 696.387 Q229.604 686.023 229.604 666.387 Q229.604 646.7 236.479 636.387 Q243.406 626.023 256.479 626.023 Z" fill="#000000" fill-rule="evenodd" fill-opacity="1" /><path clip-path="url(#clip090)" d="M301.843 691.96 L312.833 691.96 L312.833 705.189 L301.843 705.189 L301.843 691.96 Z" fill="#000000" fill-rule="evenodd" fill-opacity="1" /><path clip-path="url(#clip090)" d="M358.249 634.356 Q350.124 634.356 346.009 642.377 Q341.947 650.346 341.947 666.387 Q341.947 682.377 346.009 690.398 Q350.124 698.366 358.249 698.366 Q366.426 698.366 370.489 690.398 Q374.603 682.377 374.603 666.387 Q374.603 650.346 370.489 642.377 Q366.426 634.356 358.249 634.356 M358.249 626.023 Q371.322 626.023 378.197 636.387 Q385.124 646.7 385.124 666.387 Q385.124 686.023 378.197 696.387 Q371.322 706.7 358.249 706.7 Q345.176 706.7 338.249 696.387 Q331.374 686.023 331.374 666.387 Q331.374 646.7 338.249 636.387 Q345.176 626.023 358.249 626.023 Z" fill="#000000" fill-rule="evenodd" fill-opacity="1" /><path clip-path="url(#clip090)" d="M258.718 368.458 Q250.593 368.458 246.479 376.479 Q242.416 384.448 242.416 400.489 Q242.416 416.479 246.479 424.499 Q250.593 432.468 258.718 432.468 Q266.895 432.468 270.958 424.499 Q275.072 416.479 275.072 400.489 Q275.072 384.448 270.958 376.479 Q266.895 368.458 258.718 368.458 M258.718 360.125 Q271.791 360.125 278.666 370.489 Q285.593 380.802 285.593 400.489 Q285.593 420.124 278.666 430.489 Q271.791 440.801 258.718 440.801 Q245.645 440.801 238.718 430.489 Q231.843 420.124 231.843 400.489 Q231.843 380.802 238.718 370.489 Q245.645 360.125 258.718 360.125 Z" fill="#000000" fill-rule="evenodd" fill-opacity="1" /><path clip-path="url(#clip090)" d="M304.083 426.062 L315.072 426.062 L315.072 439.291 L304.083 439.291 L304.083 426.062 Z" fill="#000000" fill-rule="evenodd" fill-opacity="1" /><path clip-path="url(#clip090)" d="M338.093 361.531 L379.395 361.531 L379.395 370.385 L347.728 370.385 L347.728 389.447 Q350.02 388.666 352.312 388.302 Q354.603 387.885 356.895 387.885 Q369.916 387.885 377.52 395.02 Q385.124 402.156 385.124 414.343 Q385.124 426.895 377.311 433.874 Q369.499 440.801 355.28 440.801 Q350.384 440.801 345.28 439.968 Q340.228 439.135 334.812 437.468 L334.812 426.895 Q339.499 429.447 344.499 430.697 Q349.499 431.947 355.072 431.947 Q364.082 431.947 369.343 427.208 Q374.603 422.468 374.603 414.343 Q374.603 406.218 369.343 401.479 Q364.082 396.739 355.072 396.739 Q350.853 396.739 346.634 397.677 Q342.468 398.614 338.093 400.593 L338.093 361.531 Z" fill="#000000" fill-rule="evenodd" fill-opacity="1" /><path clip-path="url(#clip090)" d="M102.334 982.473 Q101.913 982.473 99.1724 981.05 Q96.3792 979.627 86.4188 974.621 Q76.4058 969.614 65.9184 964.45 L28.501 945.846 Q26.1295 944.529 26.1295 942.842 Q26.1295 941.314 27.0781 940.629 Q28.0267 939.944 34.4035 936.782 Q37.5128 935.148 39.5154 934.199 L100.595 903.686 Q101.913 903.159 102.334 903.106 Q103.388 903.106 103.388 904.951 L103.388 979.627 Q103.388 982.473 102.334 982.473 M95.1671 975.359 L95.1671 917.283 L36.8804 946.321 L95.1671 975.359 Z" fill="#000000" fill-rule="evenodd" fill-opacity="1" /><path clip-path="url(#clip090)" d="M49.4231 848.468 Q58.2768 848.468 68.2372 851.314 Q78.1449 854.107 86.1553 858.534 Q94.1131 862.961 99.3832 868.758 Q104.601 874.555 104.601 880.088 Q104.601 883.619 102.651 886.254 Q100.648 888.837 97.3278 890.259 Q93.955 891.682 90.266 892.367 Q86.5242 893.053 82.4663 893.053 Q76.4058 893.053 69.8182 891.735 Q63.1779 890.418 57.1701 888.204 Q51.1095 885.991 45.6287 882.881 Q40.0951 879.772 36.0899 876.347 Q32.0319 872.868 29.6604 868.968 Q27.2889 865.069 27.2889 861.432 Q27.2889 858.797 28.4483 856.689 Q29.555 854.529 31.5049 853.158 Q33.4021 851.788 35.6683 850.839 Q37.9344 849.838 40.5694 849.364 Q43.1517 848.89 45.3125 848.679 Q47.4205 848.468 49.4231 848.468 M42.7301 855.583 Q40.0424 855.583 38.0398 855.793 Q35.9845 856.004 33.9291 856.584 Q31.8738 857.164 30.7671 858.428 Q29.6604 859.64 29.6604 861.538 Q29.6604 867.071 40.991 873.29 Q44.5219 875.293 49.3177 877.084 Q54.1134 878.876 56.3796 879.509 Q58.6457 880.141 64.2319 881.617 L64.2319 859.061 Q49.8447 855.583 42.7301 855.583 M67.6575 860.009 L67.6575 882.46 Q80.8326 885.938 89.0539 885.938 Q96.2211 885.938 99.2251 884.462 Q102.176 882.934 102.176 880.088 Q102.176 876.821 98.9089 873.764 Q95.5887 870.708 89.5809 867.598 Q81.7812 863.488 67.6575 860.009 Z" fill="#000000" fill-rule="evenodd" fill-opacity="1" /><path clip-path="url(#clip090)" d="M22.4513 775.969 Q34.4304 782.948 46.1491 786.333 Q57.8678 789.719 69.899 789.719 Q81.9302 789.719 93.753 786.333 Q105.524 782.896 117.451 775.969 L117.451 784.302 Q105.211 792.115 93.3885 796.021 Q81.5656 799.875 69.899 799.875 Q58.2845 799.875 46.5137 796.021 Q34.7429 792.167 22.4513 784.302 L22.4513 775.969 Z" fill="#000000" fill-rule="evenodd" fill-opacity="1" /><path clip-path="url(#clip090)" d="M53.9095 718.99 L22.3472 718.99 L22.3472 709.407 L103.388 709.407 L103.388 718.99 L94.6385 718.99 Q99.8468 722.011 102.399 726.646 Q104.899 731.229 104.899 737.688 Q104.899 748.261 96.4614 754.927 Q88.0239 761.542 74.274 761.542 Q60.5241 761.542 52.0866 754.927 Q43.6491 748.261 43.6491 737.688 Q43.6491 731.229 46.2012 726.646 Q48.7012 722.011 53.9095 718.99 M74.274 751.646 Q84.8468 751.646 90.8885 747.323 Q96.878 742.948 96.878 735.344 Q96.878 727.74 90.8885 723.365 Q84.8468 718.99 74.274 718.99 Q63.7011 718.99 57.7116 723.365 Q51.6699 727.74 51.6699 735.344 Q51.6699 742.948 57.7116 747.323 Q63.7011 751.646 74.274 751.646 Z" fill="#000000" fill-rule="evenodd" fill-opacity="1" /><path clip-path="url(#clip090)" d="M71.8261 639.772 L76.5136 639.772 L76.5136 683.834 Q86.4093 683.209 91.6176 677.896 Q96.7739 672.532 96.7739 663.001 Q96.7739 657.48 95.4197 652.324 Q94.0655 647.115 91.3572 642.011 L100.42 642.011 Q102.607 647.167 103.753 652.584 Q104.899 658.001 104.899 663.574 Q104.899 677.532 96.7739 685.709 Q88.6489 693.834 74.7948 693.834 Q60.472 693.834 52.0866 686.126 Q43.6491 678.365 43.6491 665.24 Q43.6491 653.469 51.2533 646.647 Q58.8053 639.772 71.8261 639.772 M69.0136 649.355 Q61.1491 649.459 56.4616 653.782 Q51.7741 658.053 51.7741 665.136 Q51.7741 673.157 56.3053 678.001 Q60.8366 682.792 69.0657 683.521 L69.0136 649.355 Z" fill="#000000" fill-rule="evenodd" fill-opacity="1" /><path clip-path="url(#clip090)" d="M73.5448 585.657 Q63.1282 585.657 57.3991 589.98 Q51.6699 594.251 51.6699 602.011 Q51.6699 609.72 57.3991 614.043 Q63.1282 618.313 73.5448 618.313 Q83.9093 618.313 89.6385 614.043 Q95.3676 609.72 95.3676 602.011 Q95.3676 594.251 89.6385 589.98 Q83.9093 585.657 73.5448 585.657 M96.1489 576.074 Q111.045 576.074 118.284 582.689 Q125.576 589.303 125.576 602.949 Q125.576 608.001 124.795 612.48 Q124.065 616.959 122.503 621.178 L113.18 621.178 Q115.472 616.959 116.565 612.845 Q117.659 608.73 117.659 604.459 Q117.659 595.032 112.711 590.345 Q107.815 585.657 97.8676 585.657 L93.128 585.657 Q98.2843 588.626 100.836 593.261 Q103.388 597.897 103.388 604.355 Q103.388 615.084 95.2114 621.647 Q87.0343 628.209 73.5448 628.209 Q60.0032 628.209 51.8262 621.647 Q43.6491 615.084 43.6491 604.355 Q43.6491 597.897 46.2012 593.261 Q48.7533 588.626 53.9095 585.657 L45.0554 585.657 L45.0554 576.074 L96.1489 576.074 Z" fill="#000000" fill-rule="evenodd" fill-opacity="1" /><path clip-path="url(#clip090)" d="M22.4513 557.845 L22.4513 549.512 Q34.7429 541.699 46.5137 537.845 Q58.2845 533.939 69.899 533.939 Q81.5656 533.939 93.3885 537.845 Q105.211 541.699 117.451 549.512 L117.451 557.845 Q105.524 550.918 93.753 547.533 Q81.9302 544.095 69.899 544.095 Q57.8678 544.095 46.1491 547.533 Q34.4304 550.918 22.4513 557.845 Z" fill="#000000" fill-rule="evenodd" fill-opacity="1" /><path clip-path="url(#clip090)" d="M494.486 20.736 L513.375 20.736 L559.347 107.472 L559.347 20.736 L572.958 20.736 L572.958 124.416 L554.069 124.416 L508.097 37.6804 L508.097 124.416 L494.486 124.416 L494.486 20.736 Z" fill="#000000" fill-rule="evenodd" fill-opacity="1" /><path clip-path="url(#clip090)" d="M630.457 55.5969 Q620.18 55.5969 614.207 63.6524 Q608.235 71.6385 608.235 85.5968 Q608.235 99.555 614.138 107.611 Q620.11 115.597 630.457 115.597 Q640.666 115.597 646.638 107.541 Q652.61 99.4856 652.61 85.5968 Q652.61 71.7774 646.638 63.7219 Q640.666 55.5969 630.457 55.5969 M630.457 44.7636 Q647.124 44.7636 656.638 55.5969 Q666.152 66.4302 666.152 85.5968 Q666.152 104.694 656.638 115.597 Q647.124 126.43 630.457 126.43 Q613.721 126.43 604.207 115.597 Q594.763 104.694 594.763 85.5968 Q594.763 66.4302 604.207 55.5969 Q613.721 44.7636 630.457 44.7636 Z" fill="#000000" fill-rule="evenodd" fill-opacity="1" /><path clip-path="url(#clip090)" d="M751.984 77.4718 L751.984 124.416 L739.207 124.416 L739.207 77.8885 Q739.207 66.8469 734.901 61.3608 Q730.596 55.8747 721.985 55.8747 Q711.637 55.8747 705.665 62.4719 Q699.693 69.0691 699.693 80.4579 L699.693 124.416 L686.846 124.416 L686.846 46.6386 L699.693 46.6386 L699.693 58.7219 Q704.276 51.7081 710.457 48.2359 Q716.707 44.7636 724.832 44.7636 Q738.234 44.7636 745.109 53.0969 Q751.984 61.3608 751.984 77.4718 Z" fill="#000000" fill-rule="evenodd" fill-opacity="1" /><path clip-path="url(#clip090)" d="M777.47 16.361 L790.248 16.361 L790.248 124.416 L777.47 124.416 L777.47 16.361 Z" fill="#000000" fill-rule="evenodd" fill-opacity="1" /><path clip-path="url(#clip090)" d="M816.984 46.6386 L829.762 46.6386 L829.762 124.416 L816.984 124.416 L816.984 46.6386 M816.984 16.361 L829.762 16.361 L829.762 32.5415 L816.984 32.5415 L816.984 16.361 Z" fill="#000000" fill-rule="evenodd" fill-opacity="1" /><path clip-path="url(#clip090)" d="M921.15 77.4718 L921.15 124.416 L908.372 124.416 L908.372 77.8885 Q908.372 66.8469 904.067 61.3608 Q899.761 55.8747 891.15 55.8747 Q880.803 55.8747 874.831 62.4719 Q868.859 69.0691 868.859 80.4579 L868.859 124.416 L856.012 124.416 L856.012 46.6386 L868.859 46.6386 L868.859 58.7219 Q873.442 51.7081 879.623 48.2359 Q885.873 44.7636 893.998 44.7636 Q907.4 44.7636 914.275 53.0969 Q921.15 61.3608 921.15 77.4718 Z" fill="#000000" fill-rule="evenodd" fill-opacity="1" /><path clip-path="url(#clip090)" d="M1013.16 82.3329 L1013.16 88.5829 L954.414 88.5829 Q955.247 101.777 962.33 108.722 Q969.483 115.597 982.191 115.597 Q989.553 115.597 996.428 113.791 Q1003.37 111.986 1010.18 108.374 L1010.18 120.458 Q1003.3 123.374 996.08 124.902 Q988.858 126.43 981.428 126.43 Q962.817 126.43 951.914 115.597 Q941.081 104.763 941.081 86.2912 Q941.081 67.1941 951.358 56.0136 Q961.705 44.7636 979.205 44.7636 Q994.9 44.7636 1004 54.9025 Q1013.16 64.9719 1013.16 82.3329 M1000.39 78.5829 Q1000.25 68.0969 994.483 61.8469 Q988.789 55.5969 979.344 55.5969 Q968.65 55.5969 962.192 61.6386 Q955.803 67.6802 954.831 78.6524 L1000.39 78.5829 Z" fill="#000000" fill-rule="evenodd" fill-opacity="1" /><path clip-path="url(#clip090)" d="M1069.48 85.319 Q1054 85.319 1048.02 88.8606 Q1042.05 92.4023 1042.05 100.944 Q1042.05 107.749 1046.5 111.777 Q1051.01 115.735 1058.72 115.735 Q1069.34 115.735 1075.73 108.236 Q1082.19 100.666 1082.19 88.1662 L1082.19 85.319 L1069.48 85.319 M1094.97 80.0412 L1094.97 124.416 L1082.19 124.416 L1082.19 112.611 Q1077.82 119.694 1071.29 123.097 Q1064.76 126.43 1055.32 126.43 Q1043.37 126.43 1036.29 119.763 Q1029.27 113.027 1029.27 101.777 Q1029.27 88.6523 1038.02 81.9857 Q1046.84 75.319 1064.27 75.319 L1082.19 75.319 L1082.19 74.069 Q1082.19 65.2497 1076.36 60.458 Q1070.59 55.5969 1060.11 55.5969 Q1053.44 55.5969 1047.12 57.1941 Q1040.8 58.7914 1034.97 61.9858 L1034.97 50.1803 Q1041.98 47.472 1048.58 46.1525 Q1055.18 44.7636 1061.43 44.7636 Q1078.3 44.7636 1086.64 53.5136 Q1094.97 62.2636 1094.97 80.0412 Z" fill="#000000" fill-rule="evenodd" fill-opacity="1" /><path clip-path="url(#clip090)" d="M1166.36 58.583 Q1164.2 57.333 1161.63 56.7775 Q1159.13 56.1525 1156.08 56.1525 Q1145.25 56.1525 1139.41 63.2358 Q1133.65 70.2496 1133.65 83.444 L1133.65 124.416 L1120.8 124.416 L1120.8 46.6386 L1133.65 46.6386 L1133.65 58.7219 Q1137.68 51.6386 1144.14 48.2359 Q1150.59 44.7636 1159.83 44.7636 Q1161.15 44.7636 1162.75 44.972 Q1164.34 45.1109 1166.29 45.4581 L1166.36 58.583 Z" fill="#000000" fill-rule="evenodd" fill-opacity="1" /><path clip-path="url(#clip090)" d="M1164.2 79.7635 L1201.63 79.7635 L1201.63 91.1523 L1164.2 91.1523 L1164.2 79.7635 Z" fill="#000000" fill-rule="evenodd" fill-opacity="1" /><path clip-path="url(#clip090)" d="M1221.98 16.361 L1234.76 16.361 L1234.76 124.416 L1221.98 124.416 L1221.98 16.361 Z" fill="#000000" fill-rule="evenodd" fill-opacity="1" /><path clip-path="url(#clip090)" d="M1261.5 46.6386 L1274.27 46.6386 L1274.27 124.416 L1261.5 124.416 L1261.5 46.6386 M1261.5 16.361 L1274.27 16.361 L1274.27 32.5415 L1261.5 32.5415 L1261.5 16.361 Z" fill="#000000" fill-rule="evenodd" fill-opacity="1" /><path clip-path="url(#clip090)" d="M1365.66 77.4718 L1365.66 124.416 L1352.88 124.416 L1352.88 77.8885 Q1352.88 66.8469 1348.58 61.3608 Q1344.27 55.8747 1335.66 55.8747 Q1325.31 55.8747 1319.34 62.4719 Q1313.37 69.0691 1313.37 80.4579 L1313.37 124.416 L1300.52 124.416 L1300.52 46.6386 L1313.37 46.6386 L1313.37 58.7219 Q1317.95 51.7081 1324.13 48.2359 Q1330.38 44.7636 1338.51 44.7636 Q1351.91 44.7636 1358.79 53.0969 Q1365.66 61.3608 1365.66 77.4718 Z" fill="#000000" fill-rule="evenodd" fill-opacity="1" /><path clip-path="url(#clip090)" d="M1457.68 82.3329 L1457.68 88.5829 L1398.93 88.5829 Q1399.76 101.777 1406.84 108.722 Q1413.99 115.597 1426.7 115.597 Q1434.06 115.597 1440.94 113.791 Q1447.88 111.986 1454.69 108.374 L1454.69 120.458 Q1447.81 123.374 1440.59 124.902 Q1433.37 126.43 1425.94 126.43 Q1407.33 126.43 1396.43 115.597 Q1385.59 104.763 1385.59 86.2912 Q1385.59 67.1941 1395.87 56.0136 Q1406.22 44.7636 1423.72 44.7636 Q1439.41 44.7636 1448.51 54.9025 Q1457.68 64.9719 1457.68 82.3329 M1444.9 78.5829 Q1444.76 68.0969 1438.99 61.8469 Q1433.3 55.5969 1423.86 55.5969 Q1413.16 55.5969 1406.7 61.6386 Q1400.31 67.6802 1399.34 78.6524 L1444.9 78.5829 Z" fill="#000000" fill-rule="evenodd" fill-opacity="1" /><path clip-path="url(#clip090)" d="M1513.99 85.319 Q1498.51 85.319 1492.54 88.8606 Q1486.56 92.4023 1486.56 100.944 Q1486.56 107.749 1491.01 111.777 Q1495.52 115.735 1503.23 115.735 Q1513.86 115.735 1520.24 108.236 Q1526.7 100.666 1526.7 88.1662 L1526.7 85.319 L1513.99 85.319 M1539.48 80.0412 L1539.48 124.416 L1526.7 124.416 L1526.7 112.611 Q1522.33 119.694 1515.8 123.097 Q1509.27 126.43 1499.83 126.43 Q1487.88 126.43 1480.8 119.763 Q1473.79 113.027 1473.79 101.777 Q1473.79 88.6523 1482.54 81.9857 Q1491.36 75.319 1508.79 75.319 L1526.7 75.319 L1526.7 74.069 Q1526.7 65.2497 1520.87 60.458 Q1515.11 55.5969 1504.62 55.5969 Q1497.95 55.5969 1491.63 57.1941 Q1485.31 58.7914 1479.48 61.9858 L1479.48 50.1803 Q1486.49 47.472 1493.09 46.1525 Q1499.69 44.7636 1505.94 44.7636 Q1522.81 44.7636 1531.15 53.5136 Q1539.48 62.2636 1539.48 80.0412 Z" fill="#000000" fill-rule="evenodd" fill-opacity="1" /><path clip-path="url(#clip090)" d="M1610.87 58.583 Q1608.72 57.333 1606.15 56.7775 Q1603.65 56.1525 1600.59 56.1525 Q1589.76 56.1525 1583.92 63.2358 Q1578.16 70.2496 1578.16 83.444 L1578.16 124.416 L1565.31 124.416 L1565.31 46.6386 L1578.16 46.6386 L1578.16 58.7219 Q1582.19 51.6386 1588.65 48.2359 Q1595.1 44.7636 1604.34 44.7636 Q1605.66 44.7636 1607.26 44.972 Q1608.85 45.1109 1610.8 45.4581 L1610.87 58.583 Z" fill="#000000" fill-rule="evenodd" fill-opacity="1" /><path clip-path="url(#clip090)" d="M1736.01 82.3329 L1736.01 88.5829 L1677.26 88.5829 Q1678.09 101.777 1685.17 108.722 Q1692.33 115.597 1705.03 115.597 Q1712.4 115.597 1719.27 113.791 Q1726.22 111.986 1733.02 108.374 L1733.02 120.458 Q1726.15 123.374 1718.92 124.902 Q1711.7 126.43 1704.27 126.43 Q1685.66 126.43 1674.76 115.597 Q1663.92 104.763 1663.92 86.2912 Q1663.92 67.1941 1674.2 56.0136 Q1684.55 44.7636 1702.05 44.7636 Q1717.74 44.7636 1726.84 54.9025 Q1736.01 64.9719 1736.01 82.3329 M1723.23 78.5829 Q1723.09 68.0969 1717.33 61.8469 Q1711.63 55.5969 1702.19 55.5969 Q1691.49 55.5969 1685.03 61.6386 Q1678.65 67.6802 1677.67 78.6524 L1723.23 78.5829 Z" fill="#000000" fill-rule="evenodd" fill-opacity="1" /><path clip-path="url(#clip090)" d="M1802.05 58.583 Q1799.9 57.333 1797.33 56.7775 Q1794.83 56.1525 1791.77 56.1525 Q1780.94 56.1525 1775.1 63.2358 Q1769.34 70.2496 1769.34 83.444 L1769.34 124.416 L1756.49 124.416 L1756.49 46.6386 L1769.34 46.6386 L1769.34 58.7219 Q1773.37 51.6386 1779.83 48.2359 Q1786.28 44.7636 1795.52 44.7636 Q1796.84 44.7636 1798.44 44.972 Q1800.03 45.1109 1801.98 45.4581 L1802.05 58.583 Z" fill="#000000" fill-rule="evenodd" fill-opacity="1" /><path clip-path="url(#clip090)" d="M1858.02 58.583 Q1855.87 57.333 1853.3 56.7775 Q1850.8 56.1525 1847.74 56.1525 Q1836.91 56.1525 1831.08 63.2358 Q1825.31 70.2496 1825.31 83.444 L1825.31 124.416 L1812.46 124.416 L1812.46 46.6386 L1825.31 46.6386 L1825.31 58.7219 Q1829.34 51.6386 1835.8 48.2359 Q1842.26 44.7636 1851.49 44.7636 Q1852.81 44.7636 1854.41 44.972 Q1856.01 45.1109 1857.95 45.4581 L1858.02 58.583 Z" fill="#000000" fill-rule="evenodd" fill-opacity="1" /><path clip-path="url(#clip090)" d="M1898.44 55.5969 Q1888.16 55.5969 1882.19 63.6524 Q1876.21 71.6385 1876.21 85.5968 Q1876.21 99.555 1882.12 107.611 Q1888.09 115.597 1898.44 115.597 Q1908.64 115.597 1914.62 107.541 Q1920.59 99.4856 1920.59 85.5968 Q1920.59 71.7774 1914.62 63.7219 Q1908.64 55.5969 1898.44 55.5969 M1898.44 44.7636 Q1915.1 44.7636 1924.62 55.5969 Q1934.13 66.4302 1934.13 85.5968 Q1934.13 104.694 1924.62 115.597 Q1915.1 126.43 1898.44 126.43 Q1881.7 126.43 1872.19 115.597 Q1862.74 104.694 1862.74 85.5968 Q1862.74 66.4302 1872.19 55.5969 Q1881.7 44.7636 1898.44 44.7636 Z" fill="#000000" fill-rule="evenodd" fill-opacity="1" /><path clip-path="url(#clip090)" d="M2000.38 58.583 Q1998.23 57.333 1995.66 56.7775 Q1993.16 56.1525 1990.1 56.1525 Q1979.27 56.1525 1973.44 63.2358 Q1967.67 70.2496 1967.67 83.444 L1967.67 124.416 L1954.83 124.416 L1954.83 46.6386 L1967.67 46.6386 L1967.67 58.7219 Q1971.7 51.6386 1978.16 48.2359 Q1984.62 44.7636 1993.85 44.7636 Q1995.17 44.7636 1996.77 44.972 Q1998.37 45.1109 2000.31 45.4581 L2000.38 58.583 Z" fill="#000000" fill-rule="evenodd" fill-opacity="1" /><polyline clip-path="url(#clip093)" style="stroke:#009af9; stroke-linecap:butt; stroke-linejoin:round; stroke-width:16; stroke-opacity:1; fill:none" points="
  467.896,666.309 475.731,665.997 483.565,665.066 491.4,663.53 499.234,661.414 507.069,658.749 514.903,655.578 522.738,651.946 530.572,647.908 538.407,643.52 
  546.242,638.847 554.076,633.952 561.911,628.898 569.745,623.749 577.58,618.563 585.414,613.404 593.249,608.331 601.083,603.396 608.918,598.639 616.752,594.106 
  624.587,589.819 632.421,585.809 640.256,582.113 648.091,578.759 655.925,575.762 663.76,573.12 671.594,570.858 679.429,568.966 687.263,567.45 695.098,566.327 
  702.932,565.62 710.767,565.346 718.601,565.509 726.436,566.128 734.271,567.227 742.105,568.803 749.94,570.878 757.774,573.484 765.609,576.659 773.443,580.441 
  781.278,584.859 789.112,589.944 796.947,595.751 804.781,602.267 812.616,609.483 820.451,617.398 828.285,626.011 836.12,635.326 843.954,645.339 851.789,656.046 
  859.623,667.435 867.458,679.485 875.292,692.14 883.127,705.315 890.961,718.919 898.796,732.861 906.631,747.044 914.465,761.375 922.3,775.766 930.134,790.136 
  937.969,804.421 945.803,818.535 953.638,832.35 961.472,845.773 969.307,858.703 977.141,871.03 984.976,882.649 992.81,893.463 1000.65,903.394 1008.48,912.391 
  1016.31,920.436 1024.15,927.55 1031.98,933.632 1039.82,938.654 1047.65,942.632 1055.49,945.552 1063.32,947.385 1071.16,948.093 1078.99,947.64 1086.82,946.003 
  1094.66,943.177 1102.49,939.189 1110.33,934.104 1118.16,927.987 1126,920.718 1133.83,912.334 1141.67,902.871 1149.5,892.342 1157.34,880.747 1165.17,868.078 
  1173,854.326 1180.84,839.488 1188.67,823.57 1196.51,806.597 1204.34,788.556 1212.18,769.407 1220.01,749.259 1227.85,728.219 1235.68,706.387 1243.52,683.86 
  1251.35,660.729 1259.18,637.084 1267.02,613.011 1274.85,588.592 1282.69,563.904 1290.52,539.019 1298.36,513.997 1306.19,488.982 1314.03,464.166 1321.86,439.705 
  1329.7,415.76 1337.53,392.492 1345.36,370.063 1353.2,348.619 1361.03,328.293 1368.87,309.194 1376.7,291.399 1384.54,274.945 1392.37,259.91 1400.21,246.443 
  1408.04,234.568 1415.88,224.332 1423.71,215.802 1431.54,209.052 1439.38,204.154 1447.21,201.174 1455.05,200.155 1462.88,201.112 1470.72,204.021 1478.55,208.809 
  1486.39,215.346 1494.22,223.519 1502.06,233.53 1509.89,245.323 1517.72,258.83 1525.56,274.008 1533.39,290.831 1541.23,309.28 1549.06,329.342 1556.9,350.997 
  1564.73,374.212 1572.57,398.939 1580.4,425.105 1588.24,452.685 1596.07,481.731 1603.9,512.085 1611.74,543.593 1619.57,576.107 1627.41,609.488 1635.24,643.601 
  1643.08,678.316 1650.91,713.508 1658.75,749.053 1666.58,784.834 1674.42,820.74 1682.25,856.668 1690.08,892.518 1697.92,928.075 1705.75,963.112 1713.59,997.426 
  1721.42,1030.81 1729.26,1063.06 1737.09,1093.97 1744.93,1123.36 1752.76,1151.05 1760.6,1176.91 1768.43,1200.82 1776.26,1222.73 1784.1,1242.61 1791.93,1260.28 
  1799.77,1275.65 1807.6,1288.66 1815.44,1299.27 1823.27,1307.41 1831.11,1313 1838.94,1315.97 1846.78,1316.26 1854.61,1313.83 1862.44,1308.7 1870.28,1300.88 
  1878.11,1290.49 1885.95,1277.67 1893.78,1262.61 1901.62,1245.1 1909.45,1225.18 1917.29,1202.97 1925.12,1178.54 1932.96,1151.97 1940.79,1123.31 1948.62,1092.61 
  1956.46,1059.94 1964.29,1025.37 1972.13,988.974 1979.96,950.861 1987.8,911.161 1995.63,869.994 2003.47,827.485 2011.3,783.776 2019.14,739.012 2026.97,693.352 
  
  "/>
</svg>
