<?xml version="1.0" encoding="utf-8"?>
<svg xmlns="http://www.w3.org/2000/svg" xmlns:xlink="http://www.w3.org/1999/xlink" width="600" height="400" viewBox="0 0 2400 1600">
<defs>
  <clipPath id="clip990">
    <rect x="0" y="0" width="2400" height="1600"/>
  </clipPath>
</defs>
<path clip-path="url(#clip990)" d="
M0 1600 L2400 1600 L2400 0 L0 0  Z
  " fill="#ffffff" fill-rule="evenodd" fill-opacity="1"/>
<defs>
  <clipPath id="clip991">
    <rect x="480" y="0" width="1681" height="1600"/>
  </clipPath>
</defs>
<defs>
  <clipPath id="clip992">
    <rect x="602" y="901" width="652" height="652"/>
  </clipPath>
</defs>
<path clip-path="url(#clip990)" d="
M242.512 1443.25 L1708.48 1443.25 L1708.48 47.2441 L242.512 47.2441  Z
  " fill="#ffffff" fill-rule="evenodd" fill-opacity="1"/>
<defs>
  <clipPath id="clip993">
    <rect x="242" y="47" width="1467" height="1397"/>
  </clipPath>
</defs>
<polyline clip-path="url(#clip990)" style="stroke:#000000; stroke-linecap:butt; stroke-linejoin:round; stroke-width:4; stroke-opacity:1; fill:none" points="
  242.512,1443.25 1708.48,1443.25 
  "/>
<polyline clip-path="url(#clip990)" style="stroke:#000000; stroke-linecap:butt; stroke-linejoin:round; stroke-width:4; stroke-opacity:1; fill:none" points="
  284.002,1443.25 284.002,1424.35 
  "/>
<polyline clip-path="url(#clip990)" style="stroke:#000000; stroke-linecap:butt; stroke-linejoin:round; stroke-width:4; stroke-opacity:1; fill:none" points="
  591.332,1443.25 591.332,1424.35 
  "/>
<polyline clip-path="url(#clip990)" style="stroke:#000000; stroke-linecap:butt; stroke-linejoin:round; stroke-width:4; stroke-opacity:1; fill:none" points="
  898.662,1443.25 898.662,1424.35 
  "/>
<polyline clip-path="url(#clip990)" style="stroke:#000000; stroke-linecap:butt; stroke-linejoin:round; stroke-width:4; stroke-opacity:1; fill:none" points="
  1205.99,1443.25 1205.99,1424.35 
  "/>
<polyline clip-path="url(#clip990)" style="stroke:#000000; stroke-linecap:butt; stroke-linejoin:round; stroke-width:4; stroke-opacity:1; fill:none" points="
  1513.32,1443.25 1513.32,1424.35 
  "/>
<path clip-path="url(#clip990)" d="M284.002 1488.81 Q275.877 1488.81 271.762 1496.84 Q267.7 1504.8 267.7 1520.85 Q267.7 1536.84 271.762 1544.86 Q275.877 1552.82 284.002 1552.82 Q292.179 1552.82 296.241 1544.86 Q300.356 1536.84 300.356 1520.85 Q300.356 1504.8 296.241 1496.84 Q292.179 1488.81 284.002 1488.81 M284.002 1480.48 Q297.075 1480.48 303.949 1490.85 Q310.877 1501.16 310.877 1520.85 Q310.877 1540.48 303.949 1550.85 Q297.075 1561.16 284.002 1561.16 Q270.929 1561.16 264.002 1550.85 Q257.127 1540.48 257.127 1520.85 Q257.127 1501.16 264.002 1490.85 Q270.929 1480.48 284.002 1480.48 Z" fill="#000000" fill-rule="evenodd" fill-opacity="1" /><path clip-path="url(#clip990)" d="M543.571 1550.79 L580.29 1550.79 L580.29 1559.65 L530.915 1559.65 L530.915 1550.79 Q536.905 1544.6 547.217 1534.18 Q557.582 1523.71 560.238 1520.69 Q565.29 1515.01 567.269 1511.11 Q569.301 1507.15 569.301 1503.35 Q569.301 1497.15 564.926 1493.24 Q560.603 1489.34 553.624 1489.34 Q548.676 1489.34 543.155 1491.05 Q537.686 1492.77 531.436 1496.26 L531.436 1485.64 Q537.79 1483.09 543.311 1481.78 Q548.832 1480.48 553.415 1480.48 Q565.498 1480.48 572.686 1486.52 Q579.873 1492.56 579.873 1502.67 Q579.873 1507.46 578.05 1511.78 Q576.28 1516.05 571.54 1521.89 Q570.238 1523.4 563.259 1530.64 Q556.28 1537.83 543.571 1550.79 Z" fill="#000000" fill-rule="evenodd" fill-opacity="1" /><path clip-path="url(#clip990)" d="M624.873 1488.81 Q616.748 1488.81 612.634 1496.84 Q608.571 1504.8 608.571 1520.85 Q608.571 1536.84 612.634 1544.86 Q616.748 1552.82 624.873 1552.82 Q633.05 1552.82 637.113 1544.86 Q641.227 1536.84 641.227 1520.85 Q641.227 1504.8 637.113 1496.84 Q633.05 1488.81 624.873 1488.81 M624.873 1480.48 Q637.946 1480.48 644.821 1490.85 Q651.748 1501.16 651.748 1520.85 Q651.748 1540.48 644.821 1550.85 Q637.946 1561.16 624.873 1561.16 Q611.8 1561.16 604.873 1550.85 Q597.998 1540.48 597.998 1520.85 Q597.998 1501.16 604.873 1490.85 Q611.8 1480.48 624.873 1480.48 Z" fill="#000000" fill-rule="evenodd" fill-opacity="1" /><path clip-path="url(#clip990)" d="M872.047 1491.05 L845.485 1532.56 L872.047 1532.56 L872.047 1491.05 M869.287 1481.89 L882.516 1481.89 L882.516 1532.56 L893.61 1532.56 L893.61 1541.31 L882.516 1541.31 L882.516 1559.65 L872.047 1559.65 L872.047 1541.31 L836.943 1541.31 L836.943 1531.16 L869.287 1481.89 Z" fill="#000000" fill-rule="evenodd" fill-opacity="1" /><path clip-path="url(#clip990)" d="M933.505 1488.81 Q925.38 1488.81 921.266 1496.84 Q917.203 1504.8 917.203 1520.85 Q917.203 1536.84 921.266 1544.86 Q925.38 1552.82 933.505 1552.82 Q941.682 1552.82 945.745 1544.86 Q949.859 1536.84 949.859 1520.85 Q949.859 1504.8 945.745 1496.84 Q941.682 1488.81 933.505 1488.81 M933.505 1480.48 Q946.578 1480.48 953.453 1490.85 Q960.38 1501.16 960.38 1520.85 Q960.38 1540.48 953.453 1550.85 Q946.578 1561.16 933.505 1561.16 Q920.432 1561.16 913.505 1550.85 Q906.63 1540.48 906.63 1520.85 Q906.63 1501.16 913.505 1490.85 Q920.432 1480.48 933.505 1480.48 Z" fill="#000000" fill-rule="evenodd" fill-opacity="1" /><path clip-path="url(#clip990)" d="M1173.15 1516.58 Q1166.07 1516.58 1161.9 1521.42 Q1157.79 1526.26 1157.79 1534.7 Q1157.79 1543.09 1161.9 1547.98 Q1166.07 1552.82 1173.15 1552.82 Q1180.24 1552.82 1184.35 1547.98 Q1188.52 1543.09 1188.52 1534.7 Q1188.52 1526.26 1184.35 1521.42 Q1180.24 1516.58 1173.15 1516.58 M1194.04 1483.61 L1194.04 1493.19 Q1190.08 1491.31 1186.02 1490.33 Q1182.01 1489.34 1178.05 1489.34 Q1167.63 1489.34 1162.11 1496.37 Q1156.64 1503.4 1155.86 1517.62 Q1158.93 1513.09 1163.57 1510.69 Q1168.21 1508.24 1173.78 1508.24 Q1185.5 1508.24 1192.27 1515.38 Q1199.09 1522.46 1199.09 1534.7 Q1199.09 1546.68 1192.01 1553.92 Q1184.92 1561.16 1173.15 1561.16 Q1159.66 1561.16 1152.53 1550.85 Q1145.39 1540.48 1145.39 1520.85 Q1145.39 1502.41 1154.14 1491.47 Q1162.89 1480.48 1177.63 1480.48 Q1181.59 1480.48 1185.6 1481.26 Q1189.66 1482.04 1194.04 1483.61 Z" fill="#000000" fill-rule="evenodd" fill-opacity="1" /><path clip-path="url(#clip990)" d="M1239.72 1488.81 Q1231.59 1488.81 1227.48 1496.84 Q1223.41 1504.8 1223.41 1520.85 Q1223.41 1536.84 1227.48 1544.86 Q1231.59 1552.82 1239.72 1552.82 Q1247.89 1552.82 1251.95 1544.86 Q1256.07 1536.84 1256.07 1520.85 Q1256.07 1504.8 1251.95 1496.84 Q1247.89 1488.81 1239.72 1488.81 M1239.72 1480.48 Q1252.79 1480.48 1259.66 1490.85 Q1266.59 1501.16 1266.59 1520.85 Q1266.59 1540.48 1259.66 1550.85 Q1252.79 1561.16 1239.72 1561.16 Q1226.64 1561.16 1219.72 1550.85 Q1212.84 1540.48 1212.84 1520.85 Q1212.84 1501.16 1219.72 1490.85 Q1226.64 1480.48 1239.72 1480.48 Z" fill="#000000" fill-rule="evenodd" fill-opacity="1" /><path clip-path="url(#clip990)" d="M1479.29 1522.72 Q1471.79 1522.72 1467.46 1526.73 Q1463.19 1530.74 1463.19 1537.77 Q1463.19 1544.8 1467.46 1548.81 Q1471.79 1552.82 1479.29 1552.82 Q1486.79 1552.82 1491.11 1548.81 Q1495.43 1544.75 1495.43 1537.77 Q1495.43 1530.74 1491.11 1526.73 Q1486.84 1522.72 1479.29 1522.72 M1468.76 1518.24 Q1461.99 1516.58 1458.19 1511.94 Q1454.44 1507.3 1454.44 1500.64 Q1454.44 1491.31 1461.06 1485.9 Q1467.72 1480.48 1479.29 1480.48 Q1490.9 1480.48 1497.51 1485.9 Q1504.13 1491.31 1504.13 1500.64 Q1504.13 1507.3 1500.33 1511.94 Q1496.58 1516.58 1489.86 1518.24 Q1497.46 1520.01 1501.68 1525.17 Q1505.95 1530.33 1505.95 1537.77 Q1505.95 1549.08 1499.02 1555.12 Q1492.15 1561.16 1479.29 1561.16 Q1466.42 1561.16 1459.49 1555.12 Q1452.62 1549.08 1452.62 1537.77 Q1452.62 1530.33 1456.89 1525.17 Q1461.16 1520.01 1468.76 1518.24 M1464.91 1501.63 Q1464.91 1507.67 1468.66 1511.05 Q1472.46 1514.44 1479.29 1514.44 Q1486.06 1514.44 1489.86 1511.05 Q1493.71 1507.67 1493.71 1501.63 Q1493.71 1495.59 1489.86 1492.2 Q1486.06 1488.81 1479.29 1488.81 Q1472.46 1488.81 1468.66 1492.2 Q1464.91 1495.59 1464.91 1501.63 Z" fill="#000000" fill-rule="evenodd" fill-opacity="1" /><path clip-path="url(#clip990)" d="M1547.15 1488.81 Q1539.02 1488.81 1534.91 1496.84 Q1530.85 1504.8 1530.85 1520.85 Q1530.85 1536.84 1534.91 1544.86 Q1539.02 1552.82 1547.15 1552.82 Q1555.33 1552.82 1559.39 1544.86 Q1563.5 1536.84 1563.5 1520.85 Q1563.5 1504.8 1559.39 1496.84 Q1555.33 1488.81 1547.15 1488.81 M1547.15 1480.48 Q1560.22 1480.48 1567.1 1490.85 Q1574.02 1501.16 1574.02 1520.85 Q1574.02 1540.48 1567.1 1550.85 Q1560.22 1561.16 1547.15 1561.16 Q1534.08 1561.16 1527.15 1550.85 Q1520.27 1540.48 1520.27 1520.85 Q1520.27 1501.16 1527.15 1490.85 Q1534.08 1480.48 1547.15 1480.48 Z" fill="#000000" fill-rule="evenodd" fill-opacity="1" /><polyline clip-path="url(#clip990)" style="stroke:#000000; stroke-linecap:butt; stroke-linejoin:round; stroke-width:4; stroke-opacity:1; fill:none" points="
  242.512,1443.25 242.512,47.2441 
  "/>
<polyline clip-path="url(#clip990)" style="stroke:#000000; stroke-linecap:butt; stroke-linejoin:round; stroke-width:4; stroke-opacity:1; fill:none" points="
  242.512,1403.74 255.64,1403.74 
  "/>
<polyline clip-path="url(#clip990)" style="stroke:#000000; stroke-linecap:butt; stroke-linejoin:round; stroke-width:4; stroke-opacity:1; fill:none" points="
  242.512,984.529 255.64,984.529 
  "/>
<polyline clip-path="url(#clip990)" style="stroke:#000000; stroke-linecap:butt; stroke-linejoin:round; stroke-width:4; stroke-opacity:1; fill:none" points="
  242.512,565.32 255.64,565.32 
  "/>
<polyline clip-path="url(#clip990)" style="stroke:#000000; stroke-linecap:butt; stroke-linejoin:round; stroke-width:4; stroke-opacity:1; fill:none" points="
  242.512,146.111 255.64,146.111 
  "/>
<path clip-path="url(#clip990)" d="M77.867 1371.79 Q69.742 1371.79 65.6275 1379.81 Q61.565 1387.77 61.565 1403.82 Q61.565 1419.81 65.6275 1427.83 Q69.742 1435.8 77.867 1435.8 Q86.044 1435.8 90.1065 1427.83 Q94.2211 1419.81 94.2211 1403.82 Q94.2211 1387.77 90.1065 1379.81 Q86.044 1371.79 77.867 1371.79 M77.867 1363.45 Q90.9398 1363.45 97.8148 1373.82 Q104.742 1384.13 104.742 1403.82 Q104.742 1423.45 97.8148 1433.82 Q90.9398 1444.13 77.867 1444.13 Q64.7941 1444.13 57.8671 1433.82 Q50.9921 1423.45 50.9921 1403.82 Q50.9921 1384.13 57.8671 1373.82 Q64.7941 1363.45 77.867 1363.45 Z" fill="#000000" fill-rule="evenodd" fill-opacity="1" /><path clip-path="url(#clip990)" d="M123.231 1429.39 L134.221 1429.39 L134.221 1442.62 L123.231 1442.62 L123.231 1429.39 Z" fill="#000000" fill-rule="evenodd" fill-opacity="1" /><path clip-path="url(#clip990)" d="M179.637 1371.79 Q171.512 1371.79 167.398 1379.81 Q163.335 1387.77 163.335 1403.82 Q163.335 1419.81 167.398 1427.83 Q171.512 1435.8 179.637 1435.8 Q187.814 1435.8 191.877 1427.83 Q195.991 1419.81 195.991 1403.82 Q195.991 1387.77 191.877 1379.81 Q187.814 1371.79 179.637 1371.79 M179.637 1363.45 Q192.71 1363.45 199.585 1373.82 Q206.512 1384.13 206.512 1403.82 Q206.512 1423.45 199.585 1433.82 Q192.71 1444.13 179.637 1444.13 Q166.564 1444.13 159.637 1433.82 Q152.762 1423.45 152.762 1403.82 Q152.762 1384.13 159.637 1373.82 Q166.564 1363.45 179.637 1363.45 Z" fill="#000000" fill-rule="evenodd" fill-opacity="1" /><path clip-path="url(#clip990)" d="M80.1066 952.576 Q71.9816 952.576 67.867 960.597 Q63.8046 968.566 63.8046 984.607 Q63.8046 1000.6 67.867 1008.62 Q71.9816 1016.59 80.1066 1016.59 Q88.2836 1016.59 92.3461 1008.62 Q96.4606 1000.6 96.4606 984.607 Q96.4606 968.566 92.3461 960.597 Q88.2836 952.576 80.1066 952.576 M80.1066 944.243 Q93.1794 944.243 100.054 954.607 Q106.981 964.92 106.981 984.607 Q106.981 1004.24 100.054 1014.61 Q93.1794 1024.92 80.1066 1024.92 Q67.0337 1024.92 60.1067 1014.61 Q53.2317 1004.24 53.2317 984.607 Q53.2317 964.92 60.1067 954.607 Q67.0337 944.243 80.1066 944.243 Z" fill="#000000" fill-rule="evenodd" fill-opacity="1" /><path clip-path="url(#clip990)" d="M125.471 1010.18 L136.46 1010.18 L136.46 1023.41 L125.471 1023.41 L125.471 1010.18 Z" fill="#000000" fill-rule="evenodd" fill-opacity="1" /><path clip-path="url(#clip990)" d="M159.481 945.649 L200.783 945.649 L200.783 954.503 L169.116 954.503 L169.116 973.566 Q171.408 972.784 173.7 972.42 Q175.991 972.003 178.283 972.003 Q191.304 972.003 198.908 979.138 Q206.512 986.274 206.512 998.461 Q206.512 1011.01 198.7 1017.99 Q190.887 1024.92 176.669 1024.92 Q171.773 1024.92 166.669 1024.09 Q161.617 1023.25 156.2 1021.59 L156.2 1011.01 Q160.887 1013.57 165.887 1014.82 Q170.887 1016.07 176.46 1016.07 Q185.471 1016.07 190.731 1011.33 Q195.991 1006.59 195.991 998.461 Q195.991 990.336 190.731 985.597 Q185.471 980.857 176.46 980.857 Q172.241 980.857 168.023 981.795 Q163.856 982.732 159.481 984.711 L159.481 945.649 Z" fill="#000000" fill-rule="evenodd" fill-opacity="1" /><path clip-path="url(#clip990)" d="M57.19 595.346 L74.3774 595.346 L74.3774 536.023 L55.6796 539.773 L55.6796 530.19 L74.2733 526.44 L84.794 526.44 L84.794 595.346 L101.981 595.346 L101.981 604.2 L57.19 604.2 L57.19 595.346 Z" fill="#000000" fill-rule="evenodd" fill-opacity="1" /><path clip-path="url(#clip990)" d="M123.231 590.971 L134.221 590.971 L134.221 604.2 L123.231 604.2 L123.231 590.971 Z" fill="#000000" fill-rule="evenodd" fill-opacity="1" /><path clip-path="url(#clip990)" d="M179.637 533.367 Q171.512 533.367 167.398 541.388 Q163.335 549.356 163.335 565.398 Q163.335 581.387 167.398 589.408 Q171.512 597.377 179.637 597.377 Q187.814 597.377 191.877 589.408 Q195.991 581.387 195.991 565.398 Q195.991 549.356 191.877 541.388 Q187.814 533.367 179.637 533.367 M179.637 525.034 Q192.71 525.034 199.585 535.398 Q206.512 545.711 206.512 565.398 Q206.512 585.033 199.585 595.398 Q192.71 605.71 179.637 605.71 Q166.564 605.71 159.637 595.398 Q152.762 585.033 152.762 565.398 Q152.762 545.711 159.637 535.398 Q166.564 525.034 179.637 525.034 Z" fill="#000000" fill-rule="evenodd" fill-opacity="1" /><path clip-path="url(#clip990)" d="M59.4296 176.136 L76.617 176.136 L76.617 116.814 L57.9192 120.564 L57.9192 110.981 L76.5128 107.231 L87.0336 107.231 L87.0336 176.136 L104.221 176.136 L104.221 184.991 L59.4296 184.991 L59.4296 176.136 Z" fill="#000000" fill-rule="evenodd" fill-opacity="1" /><path clip-path="url(#clip990)" d="M125.471 171.761 L136.46 171.761 L136.46 184.991 L125.471 184.991 L125.471 171.761 Z" fill="#000000" fill-rule="evenodd" fill-opacity="1" /><path clip-path="url(#clip990)" d="M159.481 107.231 L200.783 107.231 L200.783 116.085 L169.116 116.085 L169.116 135.147 Q171.408 134.366 173.7 134.001 Q175.991 133.585 178.283 133.585 Q191.304 133.585 198.908 140.72 Q206.512 147.855 206.512 160.043 Q206.512 172.595 198.7 179.574 Q190.887 186.501 176.669 186.501 Q171.773 186.501 166.669 185.668 Q161.617 184.834 156.2 183.168 L156.2 172.595 Q160.887 175.147 165.887 176.397 Q170.887 177.647 176.46 177.647 Q185.471 177.647 190.731 172.907 Q195.991 168.168 195.991 160.043 Q195.991 151.918 190.731 147.178 Q185.471 142.439 176.46 142.439 Q172.241 142.439 168.023 143.376 Q163.856 144.314 159.481 146.293 L159.481 107.231 Z" fill="#000000" fill-rule="evenodd" fill-opacity="1" /><polyline clip-path="url(#clip993)" style="stroke:#009af9; stroke-linecap:butt; stroke-linejoin:round; stroke-width:16; stroke-opacity:1; fill:none" points="
  284.002,1403.74 312.226,1376.87 340.45,1350.02 368.674,1323.23 396.898,1296.52 425.123,1269.93 453.347,1243.47 481.571,1217.17 509.795,1191.07 538.019,1165.19 
  566.243,1139.55 594.468,1114.18 622.692,1089.11 650.916,1064.36 679.14,1039.96 707.364,1015.94 735.589,992.312 763.813,969.108 792.037,946.352 820.261,924.065 
  848.485,902.271 876.709,880.993 904.934,860.252 933.158,840.069 961.382,820.465 989.606,801.461 1017.83,783.076 1046.05,765.328 1074.28,748.236 1102.5,731.818 
  1130.73,716.091 1158.95,701.07 1187.18,686.771 1215.4,673.209 1243.62,660.397 1271.85,648.349 1300.07,637.078 1328.3,626.594 1356.52,616.909 1384.74,608.032 
  1412.97,599.973 1441.19,592.74 1469.42,586.341 1497.64,580.781 1525.87,576.067 1554.09,572.203 1582.31,569.194 1610.54,567.042 1638.76,565.751 1666.99,565.32 
  
  "/>
<polyline clip-path="url(#clip993)" style="stroke:#e26f46; stroke-linecap:butt; stroke-linejoin:round; stroke-width:16; stroke-opacity:1; fill:none" points="
  284.002,1403.74 312.226,1376.86 340.45,1349.98 368.674,1323.11 396.898,1296.23 425.123,1269.35 453.347,1242.47 481.571,1215.6 509.795,1188.72 538.019,1161.84 
  566.243,1134.97 594.468,1108.09 622.692,1081.21 650.916,1054.33 679.14,1027.46 707.364,1000.58 735.589,973.703 763.813,946.825 792.037,919.948 820.261,893.071 
  848.485,866.194 876.709,839.316 904.934,812.439 933.158,785.562 961.382,758.685 989.606,731.807 1017.83,704.93 1046.05,678.053 1074.28,651.176 1102.5,624.298 
  1130.73,597.421 1158.95,570.544 1187.18,543.667 1215.4,516.789 1243.62,489.912 1271.85,463.035 1300.07,436.158 1328.3,409.281 1356.52,382.403 1384.74,355.526 
  1412.97,328.649 1441.19,301.772 1469.42,274.894 1497.64,248.017 1525.87,221.14 1554.09,194.263 1582.31,167.385 1610.54,140.508 1638.76,113.631 1666.99,86.7536 
  
  "/>
<polyline clip-path="url(#clip993)" style="stroke:#3da44d; stroke-linecap:butt; stroke-linejoin:round; stroke-width:16; stroke-opacity:1; fill:none" points="
  284.002,1403.74 312.226,1376.87 340.45,1350.02 368.674,1323.23 396.898,1296.52 425.123,1269.93 453.347,1243.47 481.571,1217.18 509.795,1191.08 538.019,1165.2 
  566.243,1139.57 594.468,1114.22 622.692,1089.17 650.916,1064.45 679.14,1040.09 707.364,1016.12 735.589,992.558 763.813,969.442 792.037,946.795 820.261,924.646 
  848.485,903.021 876.709,881.949 904.934,861.456 933.158,841.572 961.382,822.322 989.606,803.736 1017.83,785.84 1046.05,768.662 1074.28,752.23 1102.5,736.571 
  1130.73,721.714 1158.95,707.685 1187.18,694.512 1215.4,682.223 1243.62,670.845 1271.85,660.407 1300.07,650.935 1328.3,642.458 1356.52,635.002 1384.74,628.597 
  1412.97,623.268 1441.19,619.044 1469.42,615.953 1497.64,614.022 1525.87,613.278 1554.09,613.75 1582.31,615.464 1610.54,618.449 1638.76,622.733 1666.99,628.342 
  
  "/>
<path clip-path="url(#clip990)" d="
M1778.82 1068.92 L2352.76 1068.92 L2352.76 93.7776 L1778.82 93.7776  Z
  " fill="#ffffff" fill-rule="evenodd" fill-opacity="1"/>
<polyline clip-path="url(#clip990)" style="stroke:#000000; stroke-linecap:butt; stroke-linejoin:round; stroke-width:4; stroke-opacity:1; fill:none" points="
  1778.82,1068.92 2352.76,1068.92 2352.76,93.7776 1778.82,93.7776 1778.82,1068.92 
  "/>
<polyline clip-path="url(#clip990)" style="stroke:#009af9; stroke-linecap:butt; stroke-linejoin:round; stroke-width:9; stroke-opacity:1; fill:none" points="
  1802.26,337.562 1942.95,337.562 
  "/>
<path clip-path="url(#clip990)" d="M1966.39 388.769 L1966.39 374.54 Q1966.39 373.328 1966.45 372.906 Q1966.5 372.485 1966.82 372.168 Q1967.13 371.852 1967.77 371.852 Q1968.5 371.852 1968.77 372.168 Q1969.08 372.485 1969.29 373.697 Q1970.93 381.128 1974.41 385.08 Q1977.94 388.98 1984.31 388.98 Q1990.37 388.98 1993.43 386.292 Q1996.49 383.604 1996.49 379.178 Q1996.49 371.273 1985.26 369.27 Q1978.78 367.952 1976.09 367.109 Q1973.4 366.213 1971.03 364.263 Q1966.39 360.469 1966.39 355.094 Q1966.39 349.718 1970.45 345.766 Q1974.56 341.813 1983.63 341.813 Q1989.69 341.813 1993.8 344.87 Q1995.01 343.921 1995.64 343.131 Q1997.07 341.813 1997.8 341.813 Q1998.65 341.813 1998.81 342.393 Q1998.96 342.92 1998.96 344.448 L1998.96 355.304 Q1998.96 356.516 1998.91 356.938 Q1998.86 357.36 1998.54 357.676 Q1998.23 357.939 1997.54 357.939 Q1996.33 357.939 1996.28 356.938 Q1995.43 343.868 1983.63 343.868 Q1977.25 343.868 1974.41 346.345 Q1971.56 348.769 1971.56 352.09 Q1971.56 353.934 1972.4 355.357 Q1973.3 356.727 1974.41 357.57 Q1975.56 358.361 1977.67 359.151 Q1979.78 359.889 1981.05 360.153 Q1982.36 360.416 1984.84 360.943 Q1993.48 362.577 1997.12 366.108 Q2001.65 370.64 2001.65 376.385 Q2001.65 382.761 1997.33 387.083 Q1993.01 391.404 1984.31 391.404 Q1977.3 391.404 1972.4 386.714 Q1971.77 387.346 1971.3 387.926 Q1970.82 388.453 1970.61 388.664 Q1970.45 388.875 1970.4 389.033 Q1970.35 389.138 1970.24 389.243 Q1968.08 391.404 1967.55 391.404 Q1966.71 391.404 1966.55 390.824 Q1966.39 390.297 1966.39 388.769 Z" fill="#000000" fill-rule="evenodd" fill-opacity="1" /><path clip-path="url(#clip990)" d="M2005.87 390.192 L2005.87 386.872 Q2011.61 386.872 2012.93 386.187 Q2014.25 385.449 2014.25 381.971 L2014.25 352.933 Q2014.25 348.928 2012.88 347.979 Q2011.56 347.03 2006.29 347.03 L2006.29 343.658 L2021.36 342.498 L2021.36 382.076 Q2021.36 385.291 2022.52 386.081 Q2023.68 386.872 2028.95 386.872 L2028.95 390.192 Q2017.94 389.876 2017.73 389.876 Q2016.25 389.876 2005.87 390.192 M2010.4 323.684 Q2010.4 321.523 2012.04 319.784 Q2013.72 317.992 2016.09 317.992 Q2018.47 317.992 2020.15 319.626 Q2021.84 321.207 2021.84 323.737 Q2021.84 326.214 2020.15 327.847 Q2018.47 329.428 2016.09 329.428 Q2013.62 329.428 2011.98 327.689 Q2010.4 325.95 2010.4 323.684 Z" fill="#000000" fill-rule="evenodd" fill-opacity="1" /><path clip-path="url(#clip990)" d="M2036.33 390.192 L2036.33 386.872 Q2042.07 386.872 2043.39 386.187 Q2044.71 385.449 2044.71 381.971 L2044.71 353.038 Q2044.71 349.033 2043.28 348.032 Q2041.91 347.03 2036.33 347.03 L2036.33 343.658 L2051.51 342.498 L2051.51 353.829 Q2056.56 342.498 2067.47 342.498 Q2075.59 342.498 2078.8 346.503 Q2081.18 349.191 2081.65 352.195 Q2082.18 355.199 2082.18 362.999 L2082.18 383.604 Q2082.28 385.871 2084.02 386.398 Q2085.76 386.872 2090.61 386.872 L2090.61 390.192 Q2079.59 389.876 2078.49 389.876 Q2077.64 389.876 2066.31 390.192 L2066.31 386.872 Q2072.06 386.872 2073.38 386.187 Q2074.75 385.449 2074.75 381.971 L2074.75 356.833 Q2074.75 351.352 2073.06 348.137 Q2071.37 344.87 2066.74 344.87 Q2061.15 344.87 2056.67 349.56 Q2052.19 354.25 2052.19 362.155 L2052.19 381.971 Q2052.19 385.449 2053.51 386.187 Q2054.88 386.872 2060.57 386.872 L2060.57 390.192 Q2049.56 389.876 2048.5 389.876 Q2047.66 389.876 2036.33 390.192 Z" fill="#000000" fill-rule="evenodd" fill-opacity="1" /><path clip-path="url(#clip990)" d="M2140.2 336.227 Q2140.2 345.08 2137.36 355.041 Q2134.56 364.949 2130.14 372.959 Q2125.71 380.917 2119.91 386.187 Q2114.12 391.404 2108.58 391.404 Q2105.05 391.404 2102.42 389.454 Q2099.83 387.452 2098.41 384.131 Q2096.99 380.759 2096.3 377.07 Q2095.62 373.328 2095.62 369.27 Q2095.62 363.209 2096.94 356.622 Q2098.25 349.982 2100.47 343.974 Q2102.68 337.913 2105.79 332.432 Q2108.9 326.899 2112.32 322.894 Q2115.8 318.836 2119.7 316.464 Q2123.6 314.093 2127.24 314.093 Q2129.87 314.093 2131.98 315.252 Q2134.14 316.359 2135.51 318.309 Q2136.88 320.206 2137.83 322.472 Q2138.83 324.738 2139.31 327.373 Q2139.78 329.955 2139.99 332.116 Q2140.2 334.224 2140.2 336.227 M2133.09 329.534 Q2133.09 326.846 2132.88 324.843 Q2132.67 322.788 2132.09 320.733 Q2131.51 318.677 2130.24 317.571 Q2129.03 316.464 2127.13 316.464 Q2121.6 316.464 2115.38 327.795 Q2113.38 331.326 2111.59 336.121 Q2109.79 340.917 2109.16 343.183 Q2108.53 345.449 2107.05 351.036 L2129.61 351.036 Q2133.09 336.648 2133.09 329.534 M2128.66 354.461 L2106.21 354.461 Q2102.73 367.636 2102.73 375.858 Q2102.73 383.025 2104.21 386.029 Q2105.74 388.98 2108.58 388.98 Q2111.85 388.98 2114.91 385.713 Q2117.96 382.392 2121.07 376.385 Q2125.18 368.585 2128.66 354.461 Z" fill="#000000" fill-rule="evenodd" fill-opacity="1" /><polyline clip-path="url(#clip990)" style="stroke:#e26f46; stroke-linecap:butt; stroke-linejoin:round; stroke-width:9; stroke-opacity:1; fill:none" points="
  1802.26,581.346 1942.95,581.346 
  "/>
<path clip-path="url(#clip990)" d="M2010.98 580.011 Q2010.98 588.865 2008.13 598.825 Q2005.34 608.733 2000.91 616.743 Q1996.49 624.701 1990.69 629.971 Q1984.89 635.189 1979.36 635.189 Q1975.83 635.189 1973.19 633.239 Q1970.61 631.236 1969.19 627.916 Q1967.77 624.543 1967.08 620.854 Q1966.39 617.112 1966.39 613.054 Q1966.39 606.994 1967.71 600.406 Q1969.03 593.766 1971.24 587.758 Q1973.46 581.698 1976.57 576.217 Q1979.68 570.683 1983.1 566.678 Q1986.58 562.62 1990.48 560.248 Q1994.38 557.877 1998.02 557.877 Q2000.65 557.877 2002.76 559.036 Q2004.92 560.143 2006.29 562.093 Q2007.66 563.99 2008.61 566.256 Q2009.61 568.522 2010.08 571.157 Q2010.56 573.74 2010.77 575.9 Q2010.98 578.008 2010.98 580.011 M2003.86 573.318 Q2003.86 570.63 2003.65 568.628 Q2003.44 566.572 2002.86 564.517 Q2002.28 562.462 2001.02 561.355 Q1999.81 560.248 1997.91 560.248 Q1992.38 560.248 1986.16 571.579 Q1984.15 575.11 1982.36 579.906 Q1980.57 584.701 1979.94 586.968 Q1979.31 589.234 1977.83 594.82 L2000.39 594.82 Q2003.86 580.433 2003.86 573.318 M1999.44 598.245 L1976.99 598.245 Q1973.51 611.421 1973.51 619.642 Q1973.51 626.809 1974.98 629.813 Q1976.51 632.764 1979.36 632.764 Q1982.63 632.764 1985.68 629.497 Q1988.74 626.177 1991.85 620.169 Q1995.96 612.369 1999.44 598.245 Z" fill="#000000" fill-rule="evenodd" fill-opacity="1" /><polyline clip-path="url(#clip990)" style="stroke:#3da44d; stroke-linecap:butt; stroke-linejoin:round; stroke-width:9; stroke-opacity:1; fill:none" points="
  1802.26,825.131 1942.95,825.131 
  "/>
<path clip-path="url(#clip990)" d="M2010.98 830.549 Q2010.98 839.403 2008.13 849.363 Q2005.34 859.271 2000.91 867.281 Q1996.49 875.239 1990.69 880.509 Q1984.89 885.726 1979.36 885.726 Q1975.83 885.726 1973.19 883.776 Q1970.61 881.774 1969.19 878.454 Q1967.77 875.081 1967.08 871.392 Q1966.39 867.65 1966.39 863.592 Q1966.39 857.532 1967.71 850.944 Q1969.03 844.304 1971.24 838.296 Q1973.46 832.235 1976.57 826.754 Q1979.68 821.221 1983.1 817.216 Q1986.58 813.158 1990.48 810.786 Q1994.38 808.415 1998.02 808.415 Q2000.65 808.415 2002.76 809.574 Q2004.92 810.681 2006.29 812.631 Q2007.66 814.528 2008.61 816.794 Q2009.61 819.06 2010.08 821.695 Q2010.56 824.278 2010.77 826.438 Q2010.98 828.546 2010.98 830.549 M2003.86 823.856 Q2003.86 821.168 2003.65 819.166 Q2003.44 817.11 2002.86 815.055 Q2002.28 813 2001.02 811.893 Q1999.81 810.786 1997.91 810.786 Q1992.38 810.786 1986.16 822.117 Q1984.15 825.648 1982.36 830.444 Q1980.57 835.239 1979.94 837.505 Q1979.31 839.772 1977.83 845.358 L2000.39 845.358 Q2003.86 830.971 2003.86 823.856 M1999.44 848.783 L1976.99 848.783 Q1973.51 861.958 1973.51 870.18 Q1973.51 877.347 1974.98 880.351 Q1976.51 883.302 1979.36 883.302 Q1982.63 883.302 1985.68 880.035 Q1988.74 876.715 1991.85 870.707 Q1995.96 862.907 1999.44 848.783 Z" fill="#000000" fill-rule="evenodd" fill-opacity="1" /><path clip-path="url(#clip990)" d="M2117.69 856.003 Q2118.33 856.636 2118.33 857.532 Q2118.33 858.427 2117.69 859.06 Q2117.06 859.692 2116.17 859.692 L2048.6 859.692 Q2047.71 859.692 2047.08 859.06 Q2046.44 858.427 2046.44 857.532 Q2046.44 856.636 2047.08 856.003 Q2047.71 855.371 2048.6 855.371 L2116.17 855.371 Q2117.06 855.371 2117.69 856.003 Z" fill="#000000" fill-rule="evenodd" fill-opacity="1" /><path clip-path="url(#clip990)" d="M2228.15 776.707 Q2228.15 785.561 2225.31 795.521 Q2222.51 805.429 2218.09 813.439 Q2213.66 821.397 2207.86 826.667 Q2202.07 831.884 2196.53 831.884 Q2193 831.884 2190.37 829.935 Q2187.78 827.932 2186.36 824.612 Q2184.94 821.239 2184.25 817.55 Q2183.57 813.808 2183.57 809.75 Q2183.57 803.69 2184.89 797.102 Q2186.2 790.462 2188.42 784.454 Q2190.63 778.393 2193.74 772.913 Q2196.85 767.379 2200.27 763.374 Q2203.75 759.316 2207.65 756.944 Q2211.55 754.573 2215.19 754.573 Q2217.82 754.573 2219.93 755.732 Q2222.09 756.839 2223.46 758.789 Q2224.83 760.686 2225.78 762.952 Q2226.78 765.218 2227.26 767.853 Q2227.73 770.436 2227.94 772.596 Q2228.15 774.704 2228.15 776.707 M2221.04 770.014 Q2221.04 767.326 2220.83 765.324 Q2220.62 763.268 2220.04 761.213 Q2219.46 759.158 2218.19 758.051 Q2216.98 756.944 2215.08 756.944 Q2209.55 756.944 2203.33 768.275 Q2201.33 771.806 2199.54 776.602 Q2197.74 781.397 2197.11 783.664 Q2196.48 785.93 2195 791.516 L2217.56 791.516 Q2221.04 777.129 2221.04 770.014 M2216.61 794.941 L2194.16 794.941 Q2190.68 808.117 2190.68 816.338 Q2190.68 823.505 2192.16 826.509 Q2193.69 829.46 2196.53 829.46 Q2199.8 829.46 2202.86 826.193 Q2205.91 822.873 2209.02 816.865 Q2213.13 809.065 2216.61 794.941 Z" fill="#000000" fill-rule="evenodd" fill-opacity="1" /><path clip-path="url(#clip990)" d="M2239.24 758.44 Q2239.24 756.19 2240.54 755.12 Q2241.83 754.05 2243.49 754.05 Q2245.22 754.05 2246.44 755.194 Q2247.69 756.3 2247.69 758.256 Q2247.69 760.358 2246.22 761.539 Q2244.78 762.719 2242.71 762.424 Q2244.52 765.449 2247.84 766.814 Q2251.2 768.179 2254.3 768.179 Q2257.54 768.179 2260.16 765.375 Q2262.82 762.572 2262.82 755.71 Q2262.82 749.881 2260.53 746.524 Q2258.28 743.167 2253.82 743.167 L2250.5 743.167 Q2249.35 743.167 2249.02 743.057 Q2248.69 742.946 2248.69 742.319 Q2248.69 741.581 2249.83 741.434 Q2250.98 741.434 2252.78 741.212 Q2257.17 741.065 2259.5 737.265 Q2261.6 733.723 2261.6 728.669 Q2261.6 724.058 2259.39 722.14 Q2257.21 720.185 2254.37 720.185 Q2251.71 720.185 2248.8 721.291 Q2245.88 722.398 2244.3 724.87 Q2248.98 724.87 2248.98 728.669 Q2248.98 730.33 2247.91 731.436 Q2246.88 732.506 2245.15 732.506 Q2243.49 732.506 2242.38 731.473 Q2241.27 730.403 2241.27 728.596 Q2241.27 724.28 2245.11 721.291 Q2248.98 718.303 2254.66 718.303 Q2260.27 718.303 2264.4 721.255 Q2268.57 724.206 2268.57 728.743 Q2268.57 733.207 2265.62 736.859 Q2262.67 740.511 2257.98 742.024 Q2263.74 743.167 2267.17 747.078 Q2270.6 750.951 2270.6 755.71 Q2270.6 761.613 2265.95 765.966 Q2261.31 770.282 2254.52 770.282 Q2248.25 770.282 2243.75 766.888 Q2239.24 763.494 2239.24 758.44 Z" fill="#000000" fill-rule="evenodd" fill-opacity="1" /><path clip-path="url(#clip990)" d="
M2182.57 860.675 L2294.34 860.675 L2294.34 854.915 L2182.57 854.915  Z
  " fill="#000000" fill-rule="evenodd" fill-opacity="1"/>
<path clip-path="url(#clip990)" d="M2182.57 945.686 Q2182.57 942.471 2184.41 940.943 Q2186.26 939.414 2188.63 939.414 Q2191.11 939.414 2192.85 941.048 Q2194.64 942.629 2194.64 945.422 Q2194.64 948.426 2192.53 950.113 Q2190.47 951.799 2187.52 951.377 Q2190.1 955.699 2194.85 957.649 Q2199.64 959.599 2204.07 959.599 Q2208.71 959.599 2212.45 955.593 Q2216.24 951.588 2216.24 941.786 Q2216.24 933.459 2212.98 928.664 Q2209.76 923.868 2203.39 923.868 L2198.64 923.868 Q2197.01 923.868 2196.53 923.71 Q2196.06 923.552 2196.06 922.656 Q2196.06 921.602 2197.69 921.391 Q2199.33 921.391 2201.91 921.075 Q2208.18 920.864 2211.5 915.436 Q2214.5 910.376 2214.5 903.156 Q2214.5 896.569 2211.34 893.828 Q2208.23 891.035 2204.18 891.035 Q2200.38 891.035 2196.22 892.616 Q2192.05 894.197 2189.79 897.728 Q2196.48 897.728 2196.48 903.156 Q2196.48 905.528 2194.95 907.109 Q2193.48 908.637 2191 908.637 Q2188.63 908.637 2187.05 907.162 Q2185.47 905.633 2185.47 903.051 Q2185.47 896.885 2190.95 892.616 Q2196.48 888.348 2204.6 888.348 Q2212.61 888.348 2218.51 892.564 Q2224.47 896.78 2224.47 903.262 Q2224.47 909.639 2220.25 914.856 Q2216.03 920.073 2209.34 922.234 Q2217.56 923.868 2222.46 929.454 Q2227.36 934.988 2227.36 941.786 Q2227.36 950.218 2220.72 956.437 Q2214.08 962.603 2204.39 962.603 Q2195.43 962.603 2189 957.754 Q2182.57 952.906 2182.57 945.686 Z" fill="#000000" fill-rule="evenodd" fill-opacity="1" /><path clip-path="url(#clip990)" d="M2236.01 954.487 Q2236.01 952.01 2237.75 950.429 Q2239.49 948.795 2241.76 948.795 Q2244.02 948.795 2245.66 950.429 Q2247.34 952.01 2247.34 954.487 Q2247.34 956.858 2245.61 958.492 Q2243.92 960.126 2241.76 960.126 Q2239.28 960.126 2237.65 958.439 Q2236.01 956.753 2236.01 954.487 M2236.01 888.558 Q2236.01 885.976 2237.75 884.5 Q2239.49 882.972 2241.76 882.972 Q2244.02 882.972 2245.71 884.5 Q2247.45 885.976 2247.45 888.558 Q2247.45 888.769 2247.4 889.191 Q2247.34 889.56 2247.34 889.771 L2243.23 937.465 Q2243.02 939.941 2241.65 939.941 Q2240.44 939.941 2240.23 937.043 L2236.12 890.087 Q2236.12 889.876 2236.07 889.349 Q2236.01 888.769 2236.01 888.558 Z" fill="#000000" fill-rule="evenodd" fill-opacity="1" /></svg>
