<?xml version="1.0" encoding="utf-8"?>
<svg xmlns="http://www.w3.org/2000/svg" xmlns:xlink="http://www.w3.org/1999/xlink" width="600" height="400" viewBox="0 0 2400 1600">
<defs>
  <clipPath id="clip870">
    <rect x="0" y="0" width="2400" height="1600"/>
  </clipPath>
</defs>
<path clip-path="url(#clip870)" d="
M0 1600 L2400 1600 L2400 0 L0 0  Z
  " fill="#ffffff" fill-rule="evenodd" fill-opacity="1"/>
<defs>
  <clipPath id="clip871">
    <rect x="480" y="0" width="1681" height="1600"/>
  </clipPath>
</defs>
<path clip-path="url(#clip870)" d="
M387.218 1349.74 L1950.88 1349.74 L1950.88 47.2441 L387.218 47.2441  Z
  " fill="#ffffff" fill-rule="evenodd" fill-opacity="1"/>
<defs>
  <clipPath id="clip872">
    <rect x="387" y="47" width="1565" height="1303"/>
  </clipPath>
</defs>
<polyline clip-path="url(#clip870)" style="stroke:#000000; stroke-linecap:butt; stroke-linejoin:round; stroke-width:4; stroke-opacity:1; fill:none" points="
  387.218,1349.74 1950.88,1349.74 
  "/>
<polyline clip-path="url(#clip870)" style="stroke:#000000; stroke-linecap:butt; stroke-linejoin:round; stroke-width:4; stroke-opacity:1; fill:none" points="
  431.472,1349.74 431.472,1330.84 
  "/>
<polyline clip-path="url(#clip870)" style="stroke:#000000; stroke-linecap:butt; stroke-linejoin:round; stroke-width:4; stroke-opacity:1; fill:none" points="
  799.145,1349.74 799.145,1330.84 
  "/>
<polyline clip-path="url(#clip870)" style="stroke:#000000; stroke-linecap:butt; stroke-linejoin:round; stroke-width:4; stroke-opacity:1; fill:none" points="
  1166.82,1349.74 1166.82,1330.84 
  "/>
<polyline clip-path="url(#clip870)" style="stroke:#000000; stroke-linecap:butt; stroke-linejoin:round; stroke-width:4; stroke-opacity:1; fill:none" points="
  1534.49,1349.74 1534.49,1330.84 
  "/>
<polyline clip-path="url(#clip870)" style="stroke:#000000; stroke-linecap:butt; stroke-linejoin:round; stroke-width:4; stroke-opacity:1; fill:none" points="
  1902.16,1349.74 1902.16,1330.84 
  "/>
<path clip-path="url(#clip870)" d="M380.587 1395.31 Q372.462 1395.31 368.348 1403.33 Q364.285 1411.3 364.285 1427.34 Q364.285 1443.33 368.348 1451.35 Q372.462 1459.32 380.587 1459.32 Q388.764 1459.32 392.827 1451.35 Q396.941 1443.33 396.941 1427.34 Q396.941 1411.3 392.827 1403.33 Q388.764 1395.31 380.587 1395.31 M380.587 1386.97 Q393.66 1386.97 400.535 1397.34 Q407.462 1407.65 407.462 1427.34 Q407.462 1446.97 400.535 1457.34 Q393.66 1467.65 380.587 1467.65 Q367.514 1467.65 360.587 1457.34 Q353.712 1446.97 353.712 1427.34 Q353.712 1407.65 360.587 1397.34 Q367.514 1386.97 380.587 1386.97 Z" fill="#000000" fill-rule="evenodd" fill-opacity="1" /><path clip-path="url(#clip870)" d="M425.951 1452.91 L436.941 1452.91 L436.941 1466.14 L425.951 1466.14 L425.951 1452.91 Z" fill="#000000" fill-rule="evenodd" fill-opacity="1" /><path clip-path="url(#clip870)" d="M482.357 1395.31 Q474.232 1395.31 470.118 1403.33 Q466.055 1411.3 466.055 1427.34 Q466.055 1443.33 470.118 1451.35 Q474.232 1459.32 482.357 1459.32 Q490.534 1459.32 494.597 1451.35 Q498.712 1443.33 498.712 1427.34 Q498.712 1411.3 494.597 1403.33 Q490.534 1395.31 482.357 1395.31 M482.357 1386.97 Q495.43 1386.97 502.305 1397.34 Q509.232 1407.65 509.232 1427.34 Q509.232 1446.97 502.305 1457.34 Q495.43 1467.65 482.357 1467.65 Q469.285 1467.65 462.358 1457.34 Q455.483 1446.97 455.483 1427.34 Q455.483 1407.65 462.358 1397.34 Q469.285 1386.97 482.357 1386.97 Z" fill="#000000" fill-rule="evenodd" fill-opacity="1" /><path clip-path="url(#clip870)" d="M749.379 1395.31 Q741.254 1395.31 737.14 1403.33 Q733.077 1411.3 733.077 1427.34 Q733.077 1443.33 737.14 1451.35 Q741.254 1459.32 749.379 1459.32 Q757.556 1459.32 761.619 1451.35 Q765.733 1443.33 765.733 1427.34 Q765.733 1411.3 761.619 1403.33 Q757.556 1395.31 749.379 1395.31 M749.379 1386.97 Q762.452 1386.97 769.327 1397.34 Q776.254 1407.65 776.254 1427.34 Q776.254 1446.97 769.327 1457.34 Q762.452 1467.65 749.379 1467.65 Q736.306 1467.65 729.379 1457.34 Q722.504 1446.97 722.504 1427.34 Q722.504 1407.65 729.379 1397.34 Q736.306 1386.97 749.379 1386.97 Z" fill="#000000" fill-rule="evenodd" fill-opacity="1" /><path clip-path="url(#clip870)" d="M794.743 1452.91 L805.733 1452.91 L805.733 1466.14 L794.743 1466.14 L794.743 1452.91 Z" fill="#000000" fill-rule="evenodd" fill-opacity="1" /><path clip-path="url(#clip870)" d="M828.754 1388.38 L870.056 1388.38 L870.056 1397.23 L838.389 1397.23 L838.389 1416.3 Q840.681 1415.52 842.972 1415.15 Q845.264 1414.73 847.556 1414.73 Q860.576 1414.73 868.181 1421.87 Q875.785 1429 875.785 1441.19 Q875.785 1453.74 867.972 1460.72 Q860.16 1467.65 845.941 1467.65 Q841.045 1467.65 835.941 1466.82 Q830.889 1465.98 825.472 1464.32 L825.472 1453.74 Q830.16 1456.3 835.16 1457.55 Q840.16 1458.8 845.733 1458.8 Q854.743 1458.8 860.004 1454.06 Q865.264 1449.32 865.264 1441.19 Q865.264 1433.07 860.004 1428.33 Q854.743 1423.59 845.733 1423.59 Q841.514 1423.59 837.295 1424.53 Q833.129 1425.46 828.754 1427.44 L828.754 1388.38 Z" fill="#000000" fill-rule="evenodd" fill-opacity="1" /><path clip-path="url(#clip870)" d="M1092.91 1457.29 L1110.1 1457.29 L1110.1 1397.96 L1091.4 1401.71 L1091.4 1392.13 L1109.99 1388.38 L1120.51 1388.38 L1120.51 1457.29 L1137.7 1457.29 L1137.7 1466.14 L1092.91 1466.14 L1092.91 1457.29 Z" fill="#000000" fill-rule="evenodd" fill-opacity="1" /><path clip-path="url(#clip870)" d="M1158.95 1452.91 L1169.94 1452.91 L1169.94 1466.14 L1158.95 1466.14 L1158.95 1452.91 Z" fill="#000000" fill-rule="evenodd" fill-opacity="1" /><path clip-path="url(#clip870)" d="M1215.36 1395.31 Q1207.23 1395.31 1203.12 1403.33 Q1199.06 1411.3 1199.06 1427.34 Q1199.06 1443.33 1203.12 1451.35 Q1207.23 1459.32 1215.36 1459.32 Q1223.54 1459.32 1227.6 1451.35 Q1231.71 1443.33 1231.71 1427.34 Q1231.71 1411.3 1227.6 1403.33 Q1223.54 1395.31 1215.36 1395.31 M1215.36 1386.97 Q1228.43 1386.97 1235.31 1397.34 Q1242.23 1407.65 1242.23 1427.34 Q1242.23 1446.97 1235.31 1457.34 Q1228.43 1467.65 1215.36 1467.65 Q1202.29 1467.65 1195.36 1457.34 Q1188.48 1446.97 1188.48 1427.34 Q1188.48 1407.65 1195.36 1397.34 Q1202.29 1386.97 1215.36 1386.97 Z" fill="#000000" fill-rule="evenodd" fill-opacity="1" /><path clip-path="url(#clip870)" d="M1461.7 1457.29 L1478.89 1457.29 L1478.89 1397.96 L1460.19 1401.71 L1460.19 1392.13 L1478.79 1388.38 L1489.31 1388.38 L1489.31 1457.29 L1506.49 1457.29 L1506.49 1466.14 L1461.7 1466.14 L1461.7 1457.29 Z" fill="#000000" fill-rule="evenodd" fill-opacity="1" /><path clip-path="url(#clip870)" d="M1527.74 1452.91 L1538.73 1452.91 L1538.73 1466.14 L1527.74 1466.14 L1527.74 1452.91 Z" fill="#000000" fill-rule="evenodd" fill-opacity="1" /><path clip-path="url(#clip870)" d="M1561.75 1388.38 L1603.06 1388.38 L1603.06 1397.23 L1571.39 1397.23 L1571.39 1416.3 Q1573.68 1415.52 1575.97 1415.15 Q1578.26 1414.73 1580.56 1414.73 Q1593.58 1414.73 1601.18 1421.87 Q1608.79 1429 1608.79 1441.19 Q1608.79 1453.74 1600.97 1460.72 Q1593.16 1467.65 1578.94 1467.65 Q1574.05 1467.65 1568.94 1466.82 Q1563.89 1465.98 1558.47 1464.32 L1558.47 1453.74 Q1563.16 1456.3 1568.16 1457.55 Q1573.16 1458.8 1578.73 1458.8 Q1587.74 1458.8 1593 1454.06 Q1598.26 1449.32 1598.26 1441.19 Q1598.26 1433.07 1593 1428.33 Q1587.74 1423.59 1578.73 1423.59 Q1574.51 1423.59 1570.3 1424.53 Q1566.13 1425.46 1561.75 1427.44 L1561.75 1388.38 Z" fill="#000000" fill-rule="evenodd" fill-opacity="1" /><path clip-path="url(#clip870)" d="M1837.45 1457.29 L1874.17 1457.29 L1874.17 1466.14 L1824.79 1466.14 L1824.79 1457.29 Q1830.78 1451.09 1841.09 1440.67 Q1851.46 1430.2 1854.11 1427.18 Q1859.17 1421.5 1861.15 1417.6 Q1863.18 1413.64 1863.18 1409.84 Q1863.18 1403.64 1858.8 1399.73 Q1854.48 1395.83 1847.5 1395.83 Q1842.55 1395.83 1837.03 1397.55 Q1831.56 1399.27 1825.31 1402.75 L1825.31 1392.13 Q1831.67 1389.58 1837.19 1388.28 Q1842.71 1386.97 1847.29 1386.97 Q1859.37 1386.97 1866.56 1393.02 Q1873.75 1399.06 1873.75 1409.16 Q1873.75 1413.95 1871.93 1418.28 Q1870.16 1422.55 1865.42 1428.38 Q1864.11 1429.89 1857.14 1437.13 Q1850.16 1444.32 1837.45 1457.29 Z" fill="#000000" fill-rule="evenodd" fill-opacity="1" /><path clip-path="url(#clip870)" d="M1896.25 1452.91 L1907.24 1452.91 L1907.24 1466.14 L1896.25 1466.14 L1896.25 1452.91 Z" fill="#000000" fill-rule="evenodd" fill-opacity="1" /><path clip-path="url(#clip870)" d="M1952.66 1395.31 Q1944.53 1395.31 1940.42 1403.33 Q1936.35 1411.3 1936.35 1427.34 Q1936.35 1443.33 1940.42 1451.35 Q1944.53 1459.32 1952.66 1459.32 Q1960.83 1459.32 1964.9 1451.35 Q1969.01 1443.33 1969.01 1427.34 Q1969.01 1411.3 1964.9 1403.33 Q1960.83 1395.31 1952.66 1395.31 M1952.66 1386.97 Q1965.73 1386.97 1972.6 1397.34 Q1979.53 1407.65 1979.53 1427.34 Q1979.53 1446.97 1972.6 1457.34 Q1965.73 1467.65 1952.66 1467.65 Q1939.58 1467.65 1932.66 1457.34 Q1925.78 1446.97 1925.78 1427.34 Q1925.78 1407.65 1932.66 1397.34 Q1939.58 1386.97 1952.66 1386.97 Z" fill="#000000" fill-rule="evenodd" fill-opacity="1" /><path clip-path="url(#clip870)" d="M984.882 1520.8 L984.882 1537.36 L1004.62 1537.36 L1004.62 1544.81 L984.882 1544.81 L984.882 1576.47 Q984.882 1583.61 986.809 1585.64 Q988.788 1587.67 994.777 1587.67 L1004.62 1587.67 L1004.62 1595.69 L994.777 1595.69 Q983.684 1595.69 979.465 1591.58 Q975.246 1587.41 975.246 1576.47 L975.246 1544.81 L968.215 1544.81 L968.215 1537.36 L975.246 1537.36 L975.246 1520.8 L984.882 1520.8 Z" fill="#000000" fill-rule="evenodd" fill-opacity="1" /><path clip-path="url(#clip870)" d="M1017.23 1537.36 L1026.81 1537.36 L1026.81 1595.69 L1017.23 1595.69 L1017.23 1537.36 M1017.23 1514.65 L1026.81 1514.65 L1026.81 1526.79 L1017.23 1526.79 L1017.23 1514.65 Z" fill="#000000" fill-rule="evenodd" fill-opacity="1" /><path clip-path="url(#clip870)" d="M1092.28 1548.56 Q1095.87 1542.1 1100.87 1539.03 Q1105.87 1535.95 1112.64 1535.95 Q1121.76 1535.95 1126.7 1542.36 Q1131.65 1548.71 1131.65 1560.48 L1131.65 1595.69 L1122.02 1595.69 L1122.02 1560.8 Q1122.02 1552.41 1119.05 1548.35 Q1116.08 1544.29 1109.99 1544.29 Q1102.54 1544.29 1098.21 1549.23 Q1093.89 1554.18 1093.89 1562.72 L1093.89 1595.69 L1084.26 1595.69 L1084.26 1560.8 Q1084.26 1552.36 1081.29 1548.35 Q1078.32 1544.29 1072.12 1544.29 Q1064.78 1544.29 1060.45 1549.29 Q1056.13 1554.23 1056.13 1562.72 L1056.13 1595.69 L1046.5 1595.69 L1046.5 1537.36 L1056.13 1537.36 L1056.13 1546.42 Q1059.41 1541.06 1064 1538.5 Q1068.58 1535.95 1074.88 1535.95 Q1081.24 1535.95 1085.66 1539.18 Q1090.14 1542.41 1092.28 1548.56 Z" fill="#000000" fill-rule="evenodd" fill-opacity="1" /><path clip-path="url(#clip870)" d="M1200.66 1564.13 L1200.66 1568.82 L1156.6 1568.82 Q1157.22 1578.71 1162.54 1583.92 Q1167.9 1589.08 1177.43 1589.08 Q1182.95 1589.08 1188.11 1587.72 Q1193.32 1586.37 1198.42 1583.66 L1198.42 1592.72 Q1193.27 1594.91 1187.85 1596.06 Q1182.43 1597.2 1176.86 1597.2 Q1162.9 1597.2 1154.72 1589.08 Q1146.6 1580.95 1146.6 1567.1 Q1146.6 1552.78 1154.31 1544.39 Q1162.07 1535.95 1175.19 1535.95 Q1186.96 1535.95 1193.79 1543.56 Q1200.66 1551.11 1200.66 1564.13 M1191.08 1561.32 Q1190.97 1553.45 1186.65 1548.77 Q1182.38 1544.08 1175.3 1544.08 Q1167.28 1544.08 1162.43 1548.61 Q1157.64 1553.14 1156.91 1561.37 L1191.08 1561.32 Z" fill="#000000" fill-rule="evenodd" fill-opacity="1" /><path clip-path="url(#clip870)" d="M1273.32 1514.75 Q1266.34 1526.73 1262.95 1538.45 Q1259.57 1550.17 1259.57 1562.2 Q1259.57 1574.23 1262.95 1586.06 Q1266.39 1597.83 1273.32 1609.75 L1264.98 1609.75 Q1257.17 1597.51 1253.27 1585.69 Q1249.41 1573.87 1249.41 1562.2 Q1249.41 1550.59 1253.27 1538.82 Q1257.12 1527.05 1264.98 1514.75 L1273.32 1514.75 Z" fill="#000000" fill-rule="evenodd" fill-opacity="1" /><path clip-path="url(#clip870)" d="M1329.1 1539.08 L1329.1 1548.14 Q1325.04 1546.06 1320.66 1545.02 Q1316.29 1543.97 1311.6 1543.97 Q1304.46 1543.97 1300.87 1546.16 Q1297.33 1548.35 1297.33 1552.72 Q1297.33 1556.06 1299.88 1557.98 Q1302.43 1559.86 1310.14 1561.58 L1313.42 1562.31 Q1323.63 1564.49 1327.9 1568.5 Q1332.22 1572.46 1332.22 1579.6 Q1332.22 1587.72 1325.77 1592.46 Q1319.36 1597.2 1308.11 1597.2 Q1303.42 1597.2 1298.32 1596.26 Q1293.27 1595.38 1287.64 1593.56 L1287.64 1583.66 Q1292.95 1586.42 1298.11 1587.83 Q1303.27 1589.18 1308.32 1589.18 Q1315.09 1589.18 1318.73 1586.89 Q1322.38 1584.55 1322.38 1580.33 Q1322.38 1576.42 1319.72 1574.34 Q1317.12 1572.25 1308.21 1570.33 L1304.88 1569.55 Q1295.97 1567.67 1292.02 1563.82 Q1288.06 1559.91 1288.06 1553.14 Q1288.06 1544.91 1293.89 1540.43 Q1299.72 1535.95 1310.45 1535.95 Q1315.77 1535.95 1320.45 1536.73 Q1325.14 1537.52 1329.1 1539.08 Z" fill="#000000" fill-rule="evenodd" fill-opacity="1" /><path clip-path="url(#clip870)" d="M1345.97 1514.75 L1354.31 1514.75 Q1362.12 1527.05 1365.97 1538.82 Q1369.88 1550.59 1369.88 1562.2 Q1369.88 1573.87 1365.97 1585.69 Q1362.12 1597.51 1354.31 1609.75 L1345.97 1609.75 Q1352.9 1597.83 1356.29 1586.06 Q1359.72 1574.23 1359.72 1562.2 Q1359.72 1550.17 1356.29 1538.45 Q1352.9 1526.73 1345.97 1514.75 Z" fill="#000000" fill-rule="evenodd" fill-opacity="1" /><polyline clip-path="url(#clip870)" style="stroke:#000000; stroke-linecap:butt; stroke-linejoin:round; stroke-width:4; stroke-opacity:1; fill:none" points="
  387.218,1349.74 387.218,47.2441 
  "/>
<polyline clip-path="url(#clip870)" style="stroke:#000000; stroke-linecap:butt; stroke-linejoin:round; stroke-width:4; stroke-opacity:1; fill:none" points="
  387.218,1210.55 402.252,1210.55 
  "/>
<polyline clip-path="url(#clip870)" style="stroke:#000000; stroke-linecap:butt; stroke-linejoin:round; stroke-width:4; stroke-opacity:1; fill:none" points="
  387.218,1039.88 402.252,1039.88 
  "/>
<polyline clip-path="url(#clip870)" style="stroke:#000000; stroke-linecap:butt; stroke-linejoin:round; stroke-width:4; stroke-opacity:1; fill:none" points="
  387.218,869.203 402.252,869.203 
  "/>
<polyline clip-path="url(#clip870)" style="stroke:#000000; stroke-linecap:butt; stroke-linejoin:round; stroke-width:4; stroke-opacity:1; fill:none" points="
  387.218,698.53 402.252,698.53 
  "/>
<polyline clip-path="url(#clip870)" style="stroke:#000000; stroke-linecap:butt; stroke-linejoin:round; stroke-width:4; stroke-opacity:1; fill:none" points="
  387.218,527.857 402.252,527.857 
  "/>
<polyline clip-path="url(#clip870)" style="stroke:#000000; stroke-linecap:butt; stroke-linejoin:round; stroke-width:4; stroke-opacity:1; fill:none" points="
  387.218,357.184 402.252,357.184 
  "/>
<polyline clip-path="url(#clip870)" style="stroke:#000000; stroke-linecap:butt; stroke-linejoin:round; stroke-width:4; stroke-opacity:1; fill:none" points="
  387.218,186.511 402.252,186.511 
  "/>
<path clip-path="url(#clip870)" d="M146.74 1211.57 L213.51 1211.57 L213.51 1220.42 L146.74 1220.42 L146.74 1211.57 Z" fill="#000000" fill-rule="evenodd" fill-opacity="1" /><path clip-path="url(#clip870)" d="M238.041 1240.58 L255.229 1240.58 L255.229 1181.25 L236.531 1185 L236.531 1175.42 L255.125 1171.67 L265.645 1171.67 L265.645 1240.58 L282.833 1240.58 L282.833 1249.43 L238.041 1249.43 L238.041 1240.58 Z" fill="#000000" fill-rule="evenodd" fill-opacity="1" /><path clip-path="url(#clip870)" d="M304.187 1171.67 L345.489 1171.67 L345.489 1180.52 L313.822 1180.52 L313.822 1199.59 Q316.114 1198.8 318.405 1198.44 Q320.697 1198.02 322.989 1198.02 Q336.01 1198.02 343.614 1205.16 Q351.218 1212.29 351.218 1224.48 Q351.218 1237.03 343.405 1244.01 Q335.593 1250.94 321.374 1250.94 Q316.478 1250.94 311.374 1250.11 Q306.322 1249.27 300.906 1247.61 L300.906 1237.03 Q305.593 1239.59 310.593 1240.84 Q315.593 1242.09 321.166 1242.09 Q330.176 1242.09 335.437 1237.35 Q340.697 1232.61 340.697 1224.48 Q340.697 1216.36 335.437 1211.62 Q330.176 1206.88 321.166 1206.88 Q316.947 1206.88 312.728 1207.82 Q308.562 1208.75 304.187 1210.73 L304.187 1171.67 Z" fill="#000000" fill-rule="evenodd" fill-opacity="1" /><path clip-path="url(#clip870)" d="M144.5 1040.89 L211.271 1040.89 L211.271 1049.75 L144.5 1049.75 L144.5 1040.89 Z" fill="#000000" fill-rule="evenodd" fill-opacity="1" /><path clip-path="url(#clip870)" d="M235.802 1069.9 L252.989 1069.9 L252.989 1010.58 L234.291 1014.33 L234.291 1004.75 L252.885 1001 L263.406 1001 L263.406 1069.9 L280.593 1069.9 L280.593 1078.76 L235.802 1078.76 L235.802 1069.9 Z" fill="#000000" fill-rule="evenodd" fill-opacity="1" /><path clip-path="url(#clip870)" d="M324.343 1007.92 Q316.218 1007.92 312.103 1015.94 Q308.041 1023.91 308.041 1039.95 Q308.041 1055.94 312.103 1063.96 Q316.218 1071.93 324.343 1071.93 Q332.52 1071.93 336.582 1063.96 Q340.697 1055.94 340.697 1039.95 Q340.697 1023.91 336.582 1015.94 Q332.52 1007.92 324.343 1007.92 M324.343 999.59 Q337.416 999.59 344.291 1009.95 Q351.218 1020.27 351.218 1039.95 Q351.218 1059.59 344.291 1069.95 Q337.416 1080.27 324.343 1080.27 Q311.27 1080.27 304.343 1069.95 Q297.468 1059.59 297.468 1039.95 Q297.468 1020.27 304.343 1009.95 Q311.27 999.59 324.343 999.59 Z" fill="#000000" fill-rule="evenodd" fill-opacity="1" /><path clip-path="url(#clip870)" d="M214.604 870.219 L281.374 870.219 L281.374 879.073 L214.604 879.073 L214.604 870.219 Z" fill="#000000" fill-rule="evenodd" fill-opacity="1" /><path clip-path="url(#clip870)" d="M304.187 830.323 L345.489 830.323 L345.489 839.177 L313.822 839.177 L313.822 858.24 Q316.114 857.459 318.405 857.094 Q320.697 856.677 322.989 856.677 Q336.01 856.677 343.614 863.813 Q351.218 870.948 351.218 883.136 Q351.218 895.688 343.405 902.667 Q335.593 909.594 321.374 909.594 Q316.478 909.594 311.374 908.76 Q306.322 907.927 300.906 906.26 L300.906 895.688 Q305.593 898.24 310.593 899.49 Q315.593 900.74 321.166 900.74 Q330.176 900.74 335.437 896 Q340.697 891.26 340.697 883.136 Q340.697 875.011 335.437 870.271 Q330.176 865.531 321.166 865.531 Q316.947 865.531 312.728 866.469 Q308.562 867.406 304.187 869.386 L304.187 830.323 Z" fill="#000000" fill-rule="evenodd" fill-opacity="1" /><path clip-path="url(#clip870)" d="M324.343 666.577 Q316.218 666.577 312.103 674.598 Q308.041 682.567 308.041 698.608 Q308.041 714.598 312.103 722.619 Q316.218 730.587 324.343 730.587 Q332.52 730.587 336.582 722.619 Q340.697 714.598 340.697 698.608 Q340.697 682.567 336.582 674.598 Q332.52 666.577 324.343 666.577 M324.343 658.244 Q337.416 658.244 344.291 668.609 Q351.218 678.921 351.218 698.608 Q351.218 718.244 344.291 728.608 Q337.416 738.921 324.343 738.921 Q311.27 738.921 304.343 728.608 Q297.468 718.244 297.468 698.608 Q297.468 678.921 304.343 668.609 Q311.27 658.244 324.343 658.244 Z" fill="#000000" fill-rule="evenodd" fill-opacity="1" /><path clip-path="url(#clip870)" d="M304.187 488.977 L345.489 488.977 L345.489 497.831 L313.822 497.831 L313.822 516.894 Q316.114 516.112 318.405 515.748 Q320.697 515.331 322.989 515.331 Q336.01 515.331 343.614 522.467 Q351.218 529.602 351.218 541.789 Q351.218 554.341 343.405 561.321 Q335.593 568.248 321.374 568.248 Q316.478 568.248 311.374 567.414 Q306.322 566.581 300.906 564.914 L300.906 554.341 Q305.593 556.893 310.593 558.143 Q315.593 559.393 321.166 559.393 Q330.176 559.393 335.437 554.654 Q340.697 549.914 340.697 541.789 Q340.697 533.664 335.437 528.925 Q330.176 524.185 321.166 524.185 Q316.947 524.185 312.728 525.123 Q308.562 526.06 304.187 528.039 L304.187 488.977 Z" fill="#000000" fill-rule="evenodd" fill-opacity="1" /><path clip-path="url(#clip870)" d="M235.802 387.21 L252.989 387.21 L252.989 327.887 L234.291 331.637 L234.291 322.054 L252.885 318.304 L263.406 318.304 L263.406 387.21 L280.593 387.21 L280.593 396.064 L235.802 396.064 L235.802 387.21 Z" fill="#000000" fill-rule="evenodd" fill-opacity="1" /><path clip-path="url(#clip870)" d="M324.343 325.231 Q316.218 325.231 312.103 333.252 Q308.041 341.221 308.041 357.262 Q308.041 373.252 312.103 381.273 Q316.218 389.241 324.343 389.241 Q332.52 389.241 336.582 381.273 Q340.697 373.252 340.697 357.262 Q340.697 341.221 336.582 333.252 Q332.52 325.231 324.343 325.231 M324.343 316.898 Q337.416 316.898 344.291 327.262 Q351.218 337.575 351.218 357.262 Q351.218 376.898 344.291 387.262 Q337.416 397.575 324.343 397.575 Q311.27 397.575 304.343 387.262 Q297.468 376.898 297.468 357.262 Q297.468 337.575 304.343 327.262 Q311.27 316.898 324.343 316.898 Z" fill="#000000" fill-rule="evenodd" fill-opacity="1" /><path clip-path="url(#clip870)" d="M238.041 216.537 L255.229 216.537 L255.229 157.214 L236.531 160.964 L236.531 151.381 L255.125 147.631 L265.645 147.631 L265.645 216.537 L282.833 216.537 L282.833 225.391 L238.041 225.391 L238.041 216.537 Z" fill="#000000" fill-rule="evenodd" fill-opacity="1" /><path clip-path="url(#clip870)" d="M304.187 147.631 L345.489 147.631 L345.489 156.485 L313.822 156.485 L313.822 175.548 Q316.114 174.766 318.405 174.402 Q320.697 173.985 322.989 173.985 Q336.01 173.985 343.614 181.12 Q351.218 188.256 351.218 200.443 Q351.218 212.995 343.405 219.974 Q335.593 226.901 321.374 226.901 Q316.478 226.901 311.374 226.068 Q306.322 225.235 300.906 223.568 L300.906 212.995 Q305.593 215.547 310.593 216.797 Q315.593 218.047 321.166 218.047 Q330.176 218.047 335.437 213.308 Q340.697 208.568 340.697 200.443 Q340.697 192.318 335.437 187.579 Q330.176 182.839 321.166 182.839 Q316.947 182.839 312.728 183.777 Q308.562 184.714 304.187 186.693 L304.187 147.631 Z" fill="#000000" fill-rule="evenodd" fill-opacity="1" /><path clip-path="url(#clip870)" d="M48.845 833.464 Q57.6987 833.464 67.659 836.31 Q77.5667 839.103 85.5772 843.53 Q93.535 847.957 98.805 853.754 Q104.022 859.551 104.022 865.085 Q104.022 868.615 102.072 871.25 Q100.07 873.833 96.7497 875.256 Q93.3769 876.679 89.6879 877.364 Q85.9461 878.049 81.8882 878.049 Q75.8276 878.049 69.2401 876.731 Q62.5998 875.414 56.5919 873.2 Q50.5314 870.987 45.0505 867.878 Q39.517 864.768 35.5117 861.343 Q31.4538 857.865 29.0823 853.965 Q26.7108 850.065 26.7108 846.429 Q26.7108 843.794 27.8702 841.685 Q28.9769 839.525 30.9268 838.155 Q32.824 836.784 35.0901 835.836 Q37.3563 834.834 39.9913 834.36 Q42.5736 833.886 44.7343 833.675 Q46.8424 833.464 48.845 833.464 M42.152 840.579 Q39.4643 840.579 37.4617 840.79 Q35.4063 841 33.351 841.58 Q31.2957 842.16 30.189 843.425 Q29.0823 844.637 29.0823 846.534 Q29.0823 852.067 40.4129 858.286 Q43.9438 860.289 48.7396 862.081 Q53.5353 863.872 55.8014 864.505 Q58.0676 865.137 63.6538 866.613 L63.6538 844.057 Q49.2666 840.579 42.152 840.579 M67.0793 845.006 L67.0793 867.456 Q80.2545 870.934 88.4757 870.934 Q95.643 870.934 98.6469 869.459 Q101.598 867.93 101.598 865.085 Q101.598 861.817 98.3307 858.76 Q95.0106 855.704 89.0028 852.594 Q81.2031 848.484 67.0793 845.006 Z" fill="#000000" fill-rule="evenodd" fill-opacity="1" /><path clip-path="url(#clip870)" d="M21.8732 760.965 Q33.8523 767.944 45.571 771.33 Q57.2897 774.715 69.3209 774.715 Q81.3521 774.715 93.1749 771.33 Q104.946 767.892 116.873 760.965 L116.873 769.298 Q104.633 777.111 92.8103 781.017 Q80.9875 784.871 69.3209 784.871 Q57.7064 784.871 45.9356 781.017 Q34.1648 777.163 21.8732 769.298 L21.8732 760.965 Z" fill="#000000" fill-rule="evenodd" fill-opacity="1" /><path clip-path="url(#clip870)" d="M53.3314 703.986 L21.7691 703.986 L21.7691 694.403 L102.81 694.403 L102.81 703.986 L94.0603 703.986 Q99.2686 707.007 101.821 711.642 Q104.321 716.226 104.321 722.684 Q104.321 733.257 95.8832 739.923 Q87.4458 746.538 73.6959 746.538 Q59.9459 746.538 51.5085 739.923 Q43.071 733.257 43.071 722.684 Q43.071 716.226 45.6231 711.642 Q48.1231 707.007 53.3314 703.986 M73.6959 736.642 Q84.2687 736.642 90.3103 732.319 Q96.2999 727.944 96.2999 720.34 Q96.2999 712.736 90.3103 708.361 Q84.2687 703.986 73.6959 703.986 Q63.123 703.986 57.1334 708.361 Q51.0918 712.736 51.0918 720.34 Q51.0918 727.944 57.1334 732.319 Q63.123 736.642 73.6959 736.642 Z" fill="#000000" fill-rule="evenodd" fill-opacity="1" /><path clip-path="url(#clip870)" d="M71.248 624.768 L75.9354 624.768 L75.9354 668.83 Q85.8312 668.205 91.0395 662.893 Q96.1957 657.528 96.1957 647.997 Q96.1957 642.476 94.8416 637.32 Q93.4874 632.112 90.7791 627.007 L99.8415 627.007 Q102.029 632.164 103.175 637.58 Q104.321 642.997 104.321 648.57 Q104.321 662.528 96.1957 670.705 Q88.0708 678.83 74.2167 678.83 Q59.8938 678.83 51.5085 671.122 Q43.071 663.361 43.071 650.236 Q43.071 638.466 50.6751 631.643 Q58.2272 624.768 71.248 624.768 M68.4355 634.351 Q60.5709 634.455 55.8835 638.778 Q51.196 643.049 51.196 650.132 Q51.196 658.153 55.7272 662.997 Q60.2584 667.788 68.4875 668.518 L68.4355 634.351 Z" fill="#000000" fill-rule="evenodd" fill-opacity="1" /><path clip-path="url(#clip870)" d="M72.9667 570.654 Q62.5501 570.654 56.8209 574.976 Q51.0918 579.247 51.0918 587.008 Q51.0918 594.716 56.8209 599.039 Q62.5501 603.31 72.9667 603.31 Q83.3312 603.31 89.0604 599.039 Q94.7895 594.716 94.7895 587.008 Q94.7895 579.247 89.0604 574.976 Q83.3312 570.654 72.9667 570.654 M95.5707 561.07 Q110.466 561.07 117.706 567.685 Q124.998 574.299 124.998 587.945 Q124.998 592.997 124.216 597.476 Q123.487 601.955 121.925 606.174 L112.602 606.174 Q114.894 601.955 115.987 597.841 Q117.081 593.726 117.081 589.456 Q117.081 580.029 112.133 575.341 Q107.237 570.654 97.2895 570.654 L92.5499 570.654 Q97.7061 573.622 100.258 578.258 Q102.81 582.893 102.81 589.351 Q102.81 600.08 94.6332 606.643 Q86.4562 613.205 72.9667 613.205 Q59.4251 613.205 51.2481 606.643 Q43.071 600.08 43.071 589.351 Q43.071 582.893 45.6231 578.258 Q48.1752 573.622 53.3314 570.654 L44.4773 570.654 L44.4773 561.07 L95.5707 561.07 Z" fill="#000000" fill-rule="evenodd" fill-opacity="1" /><path clip-path="url(#clip870)" d="M21.8732 542.841 L21.8732 534.508 Q34.1648 526.695 45.9356 522.841 Q57.7064 518.935 69.3209 518.935 Q80.9875 518.935 92.8103 522.841 Q104.633 526.695 116.873 534.508 L116.873 542.841 Q104.946 535.914 93.1749 532.529 Q81.3521 529.091 69.3209 529.091 Q57.2897 529.091 45.571 532.529 Q33.8523 535.914 21.8732 542.841 Z" fill="#000000" fill-rule="evenodd" fill-opacity="1" /><polyline clip-path="url(#clip872)" style="stroke:#009af9; stroke-linecap:butt; stroke-linejoin:round; stroke-width:16; stroke-opacity:1; fill:none" points="
  431.472,84.1072 438.885,85.3318 446.298,89.0008 453.711,95.0996 461.124,103.604 468.536,114.48 475.949,127.684 483.362,143.163 490.775,160.857 498.188,180.693 
  505.6,202.594 513.013,226.472 520.426,252.232 527.839,279.771 535.252,308.979 542.665,339.74 550.077,371.931 557.49,405.424 564.903,440.085 572.316,475.777 
  579.729,512.357 587.141,549.679 594.554,587.594 601.967,625.951 609.38,664.598 616.793,703.38 624.205,742.143 631.618,780.732 639.031,818.993 646.444,856.774 
  653.857,893.924 661.27,930.295 668.682,965.742 676.095,1000.12 683.508,1033.3 690.921,1065.15 698.334,1095.53 705.746,1124.34 713.159,1151.44 720.572,1176.74 
  727.985,1200.13 735.398,1221.52 742.81,1240.83 750.223,1257.98 757.636,1272.89 765.049,1285.52 772.462,1295.81 779.875,1303.71 787.287,1309.21 794.7,1312.26 
  802.113,1312.88 809.526,1311.04 816.939,1306.76 824.351,1300.06 831.764,1290.96 839.177,1279.5 846.59,1265.72 854.003,1249.68 861.415,1231.44 868.828,1211.08 
  876.241,1188.68 883.654,1164.32 891.067,1138.11 898.48,1110.14 905.892,1080.53 913.305,1049.4 920.718,1016.87 928.131,983.075 935.544,948.143 942.956,912.216 
  950.369,875.437 957.782,837.953 965.195,799.913 972.608,761.469 980.021,722.774 987.433,683.982 994.846,645.248 1002.26,606.727 1009.67,568.572 1017.08,530.934 
  1024.5,493.965 1031.91,457.811 1039.32,422.617 1046.74,388.523 1054.15,355.664 1061.56,324.173 1068.97,294.173 1076.39,265.786 1083.8,239.123 1091.21,214.292 
  1098.63,191.391 1106.04,170.512 1113.45,151.737 1120.86,135.143 1128.28,120.794 1135.69,108.748 1143.1,99.053 1150.52,91.7478 1157.93,86.8615 1165.34,84.4134 
  1172.75,84.4134 1180.17,86.8615 1187.58,91.7478 1194.99,99.053 1202.4,108.748 1209.82,120.794 1217.23,135.143 1224.64,151.737 1232.06,170.512 1239.47,191.391 
  1246.88,214.292 1254.29,239.123 1261.71,265.786 1269.12,294.173 1276.53,324.173 1283.95,355.664 1291.36,388.523 1298.77,422.617 1306.18,457.811 1313.6,493.965 
  1321.01,530.934 1328.42,568.572 1335.84,606.727 1343.25,645.248 1350.66,683.982 1358.07,722.774 1365.49,761.469 1372.9,799.913 1380.31,837.953 1387.73,875.437 
  1395.14,912.216 1402.55,948.143 1409.96,983.075 1417.38,1016.87 1424.79,1049.4 1432.2,1080.53 1439.61,1110.14 1447.03,1138.11 1454.44,1164.32 1461.85,1188.68 
  1469.27,1211.08 1476.68,1231.44 1484.09,1249.68 1491.5,1265.72 1498.92,1279.5 1506.33,1290.96 1513.74,1300.06 1521.16,1306.76 1528.57,1311.04 1535.98,1312.88 
  1543.39,1312.26 1550.81,1309.21 1558.22,1303.71 1565.63,1295.81 1573.05,1285.52 1580.46,1272.89 1587.87,1257.98 1595.28,1240.83 1602.7,1221.52 1610.11,1200.13 
  1617.52,1176.74 1624.94,1151.44 1632.35,1124.34 1639.76,1095.53 1647.17,1065.15 1654.59,1033.3 1662,1000.12 1669.41,965.742 1676.83,930.295 1684.24,893.924 
  1691.65,856.774 1699.06,818.993 1706.48,780.732 1713.89,742.143 1721.3,703.38 1728.71,664.598 1736.13,625.951 1743.54,587.594 1750.95,549.679 1758.37,512.357 
  1765.78,475.777 1773.19,440.085 1780.6,405.424 1788.02,371.931 1795.43,339.74 1802.84,308.979 1810.26,279.771 1817.67,252.232 1825.08,226.472 1832.49,202.594 
  1839.91,180.693 1847.32,160.857 1854.73,143.163 1862.15,127.684 1869.56,114.48 1876.97,103.604 1884.38,95.0996 1891.8,89.0008 1899.21,85.3318 1906.62,84.1072 
  
  "/>
<path clip-path="url(#clip870)" d="
M2016.39 323.941 L2352.76 323.941 L2352.76 90.6606 L2016.39 90.6606  Z
  " fill="#ffffff" fill-rule="evenodd" fill-opacity="1"/>
<polyline clip-path="url(#clip870)" style="stroke:#000000; stroke-linecap:butt; stroke-linejoin:round; stroke-width:4; stroke-opacity:1; fill:none" points="
  2016.39,323.941 2352.76,323.941 2352.76,90.6606 2016.39,90.6606 2016.39,323.941 
  "/>
<polyline clip-path="url(#clip870)" style="stroke:#009af9; stroke-linecap:butt; stroke-linejoin:round; stroke-width:9; stroke-opacity:1; fill:none" points="
  2038.23,207.301 2169.27,207.301 
  "/>
<path clip-path="url(#clip870)" d="M2222.25 251.597 Q2218.19 262.014 2214.34 265.191 Q2210.48 268.368 2204.03 268.368 L2196.37 268.368 L2196.37 260.347 L2201.99 260.347 Q2205.95 260.347 2208.14 258.472 Q2210.33 256.597 2212.98 249.618 L2214.7 245.243 L2191.11 187.848 L2201.27 187.848 L2219.49 233.472 L2237.72 187.848 L2247.88 187.848 L2222.25 251.597 Z" fill="#000000" fill-rule="evenodd" fill-opacity="1" /><path clip-path="url(#clip870)" d="M2264.29 237.327 L2281.47 237.327 L2281.47 178.004 L2262.78 181.754 L2262.78 172.171 L2281.37 168.421 L2291.89 168.421 L2291.89 237.327 L2309.08 237.327 L2309.08 246.181 L2264.29 246.181 L2264.29 237.327 Z" fill="#000000" fill-rule="evenodd" fill-opacity="1" /></svg>
