<?xml version="1.0" encoding="utf-8"?>
<svg xmlns="http://www.w3.org/2000/svg" xmlns:xlink="http://www.w3.org/1999/xlink" width="600" height="400" viewBox="0 0 2400 1600">
<defs>
  <clipPath id="clip510">
    <rect x="0" y="0" width="2400" height="1600"/>
  </clipPath>
</defs>
<path clip-path="url(#clip510)" d="
M0 1600 L2400 1600 L2400 0 L0 0  Z
  " fill="#ffffff" fill-rule="evenodd" fill-opacity="1"/>
<defs>
  <clipPath id="clip511">
    <rect x="480" y="0" width="1681" height="1600"/>
  </clipPath>
</defs>
<defs>
  <clipPath id="clip512">
    <rect x="387" y="47" width="1065" height="1303"/>
  </clipPath>
</defs>
<path clip-path="url(#clip510)" d="
M387.218 1349.74 L1451.52 1349.74 L1451.52 47.2441 L387.218 47.2441  Z
  " fill="#ffffff" fill-rule="evenodd" fill-opacity="1"/>
<polyline clip-path="url(#clip510)" style="stroke:#000000; stroke-linecap:butt; stroke-linejoin:round; stroke-width:4; stroke-opacity:1; fill:none" points="
  387.218,1349.74 1451.52,1349.74 
  "/>
<polyline clip-path="url(#clip510)" style="stroke:#000000; stroke-linecap:butt; stroke-linejoin:round; stroke-width:4; stroke-opacity:1; fill:none" points="
  417.34,1349.74 417.34,1330.84 
  "/>
<polyline clip-path="url(#clip510)" style="stroke:#000000; stroke-linecap:butt; stroke-linejoin:round; stroke-width:4; stroke-opacity:1; fill:none" points="
  668.355,1349.74 668.355,1330.84 
  "/>
<polyline clip-path="url(#clip510)" style="stroke:#000000; stroke-linecap:butt; stroke-linejoin:round; stroke-width:4; stroke-opacity:1; fill:none" points="
  919.371,1349.74 919.371,1330.84 
  "/>
<polyline clip-path="url(#clip510)" style="stroke:#000000; stroke-linecap:butt; stroke-linejoin:round; stroke-width:4; stroke-opacity:1; fill:none" points="
  1170.39,1349.74 1170.39,1330.84 
  "/>
<polyline clip-path="url(#clip510)" style="stroke:#000000; stroke-linecap:butt; stroke-linejoin:round; stroke-width:4; stroke-opacity:1; fill:none" points="
  1421.4,1349.74 1421.4,1330.84 
  "/>
<path clip-path="url(#clip510)" d="M417.34 1395.31 Q409.215 1395.31 405.1 1403.33 Q401.038 1411.3 401.038 1427.34 Q401.038 1443.33 405.1 1451.35 Q409.215 1459.32 417.34 1459.32 Q425.517 1459.32 429.579 1451.35 Q433.694 1443.33 433.694 1427.34 Q433.694 1411.3 429.579 1403.33 Q425.517 1395.31 417.34 1395.31 M417.34 1386.97 Q430.413 1386.97 437.287 1397.34 Q444.215 1407.65 444.215 1427.34 Q444.215 1446.97 437.287 1457.34 Q430.413 1467.65 417.34 1467.65 Q404.267 1467.65 397.34 1457.34 Q390.465 1446.97 390.465 1427.34 Q390.465 1407.65 397.34 1397.34 Q404.267 1386.97 417.34 1386.97 Z" fill="#000000" fill-rule="evenodd" fill-opacity="1" /><path clip-path="url(#clip510)" d="M646.481 1388.38 L687.782 1388.38 L687.782 1397.23 L656.116 1397.23 L656.116 1416.3 Q658.408 1415.52 660.699 1415.15 Q662.991 1414.73 665.283 1414.73 Q678.303 1414.73 685.907 1421.87 Q693.512 1429 693.512 1441.19 Q693.512 1453.74 685.699 1460.72 Q677.887 1467.65 663.668 1467.65 Q658.772 1467.65 653.668 1466.82 Q648.616 1465.98 643.199 1464.32 L643.199 1453.74 Q647.887 1456.3 652.887 1457.55 Q657.887 1458.8 663.46 1458.8 Q672.47 1458.8 677.73 1454.06 Q682.991 1449.32 682.991 1441.19 Q682.991 1433.07 677.73 1428.33 Q672.47 1423.59 663.46 1423.59 Q659.241 1423.59 655.022 1424.53 Q650.856 1425.46 646.481 1427.44 L646.481 1388.38 Z" fill="#000000" fill-rule="evenodd" fill-opacity="1" /><path clip-path="url(#clip510)" d="M862.418 1457.29 L879.606 1457.29 L879.606 1397.96 L860.908 1401.71 L860.908 1392.13 L879.502 1388.38 L890.022 1388.38 L890.022 1457.29 L907.21 1457.29 L907.21 1466.14 L862.418 1466.14 L862.418 1457.29 Z" fill="#000000" fill-rule="evenodd" fill-opacity="1" /><path clip-path="url(#clip510)" d="M950.96 1395.31 Q942.835 1395.31 938.72 1403.33 Q934.658 1411.3 934.658 1427.34 Q934.658 1443.33 938.72 1451.35 Q942.835 1459.32 950.96 1459.32 Q959.137 1459.32 963.199 1451.35 Q967.314 1443.33 967.314 1427.34 Q967.314 1411.3 963.199 1403.33 Q959.137 1395.31 950.96 1395.31 M950.96 1386.97 Q964.032 1386.97 970.907 1397.34 Q977.834 1407.65 977.834 1427.34 Q977.834 1446.97 970.907 1457.34 Q964.032 1467.65 950.96 1467.65 Q937.887 1467.65 930.96 1457.34 Q924.085 1446.97 924.085 1427.34 Q924.085 1407.65 930.96 1397.34 Q937.887 1386.97 950.96 1386.97 Z" fill="#000000" fill-rule="evenodd" fill-opacity="1" /><path clip-path="url(#clip510)" d="M1114.55 1457.29 L1131.74 1457.29 L1131.74 1397.96 L1113.04 1401.71 L1113.04 1392.13 L1131.64 1388.38 L1142.16 1388.38 L1142.16 1457.29 L1159.35 1457.29 L1159.35 1466.14 L1114.55 1466.14 L1114.55 1457.29 Z" fill="#000000" fill-rule="evenodd" fill-opacity="1" /><path clip-path="url(#clip510)" d="M1180.7 1388.38 L1222 1388.38 L1222 1397.23 L1190.33 1397.23 L1190.33 1416.3 Q1192.63 1415.52 1194.92 1415.15 Q1197.21 1414.73 1199.5 1414.73 Q1212.52 1414.73 1220.13 1421.87 Q1227.73 1429 1227.73 1441.19 Q1227.73 1453.74 1219.92 1460.72 Q1212.11 1467.65 1197.89 1467.65 Q1192.99 1467.65 1187.89 1466.82 Q1182.83 1465.98 1177.42 1464.32 L1177.42 1453.74 Q1182.11 1456.3 1187.11 1457.55 Q1192.11 1458.8 1197.68 1458.8 Q1206.69 1458.8 1211.95 1454.06 Q1217.21 1449.32 1217.21 1441.19 Q1217.21 1433.07 1211.95 1428.33 Q1206.69 1423.59 1197.68 1423.59 Q1193.46 1423.59 1189.24 1424.53 Q1185.07 1425.46 1180.7 1427.44 L1180.7 1388.38 Z" fill="#000000" fill-rule="evenodd" fill-opacity="1" /><path clip-path="url(#clip510)" d="M1373.64 1457.29 L1410.36 1457.29 L1410.36 1466.14 L1360.99 1466.14 L1360.99 1457.29 Q1366.98 1451.09 1377.29 1440.67 Q1387.65 1430.2 1390.31 1427.18 Q1395.36 1421.5 1397.34 1417.6 Q1399.37 1413.64 1399.37 1409.84 Q1399.37 1403.64 1395 1399.73 Q1390.67 1395.83 1383.69 1395.83 Q1378.75 1395.83 1373.23 1397.55 Q1367.76 1399.27 1361.51 1402.75 L1361.51 1392.13 Q1367.86 1389.58 1373.38 1388.28 Q1378.9 1386.97 1383.49 1386.97 Q1395.57 1386.97 1402.76 1393.02 Q1409.94 1399.06 1409.94 1409.16 Q1409.94 1413.95 1408.12 1418.28 Q1406.35 1422.55 1401.61 1428.38 Q1400.31 1429.89 1393.33 1437.13 Q1386.35 1444.32 1373.64 1457.29 Z" fill="#000000" fill-rule="evenodd" fill-opacity="1" /><path clip-path="url(#clip510)" d="M1454.94 1395.31 Q1446.82 1395.31 1442.7 1403.33 Q1438.64 1411.3 1438.64 1427.34 Q1438.64 1443.33 1442.7 1451.35 Q1446.82 1459.32 1454.94 1459.32 Q1463.12 1459.32 1467.18 1451.35 Q1471.3 1443.33 1471.3 1427.34 Q1471.3 1411.3 1467.18 1403.33 Q1463.12 1395.31 1454.94 1395.31 M1454.94 1386.97 Q1468.02 1386.97 1474.89 1397.34 Q1481.82 1407.65 1481.82 1427.34 Q1481.82 1446.97 1474.89 1457.34 Q1468.02 1467.65 1454.94 1467.65 Q1441.87 1467.65 1434.94 1457.34 Q1428.07 1446.97 1428.07 1427.34 Q1428.07 1407.65 1434.94 1397.34 Q1441.87 1386.97 1454.94 1386.97 Z" fill="#000000" fill-rule="evenodd" fill-opacity="1" /><path clip-path="url(#clip510)" d="M735.205 1520.8 L735.205 1537.36 L754.945 1537.36 L754.945 1544.81 L735.205 1544.81 L735.205 1576.47 Q735.205 1583.61 737.133 1585.64 Q739.112 1587.67 745.101 1587.67 L754.945 1587.67 L754.945 1595.69 L745.101 1595.69 Q734.008 1595.69 729.789 1591.58 Q725.57 1587.41 725.57 1576.47 L725.57 1544.81 L718.539 1544.81 L718.539 1537.36 L725.57 1537.36 L725.57 1520.8 L735.205 1520.8 Z" fill="#000000" fill-rule="evenodd" fill-opacity="1" /><path clip-path="url(#clip510)" d="M767.549 1537.36 L777.132 1537.36 L777.132 1595.69 L767.549 1595.69 L767.549 1537.36 M767.549 1514.65 L777.132 1514.65 L777.132 1526.79 L767.549 1526.79 L767.549 1514.65 Z" fill="#000000" fill-rule="evenodd" fill-opacity="1" /><path clip-path="url(#clip510)" d="M842.601 1548.56 Q846.194 1542.1 851.194 1539.03 Q856.194 1535.95 862.965 1535.95 Q872.08 1535.95 877.028 1542.36 Q881.976 1548.71 881.976 1560.48 L881.976 1595.69 L872.34 1595.69 L872.34 1560.8 Q872.34 1552.41 869.371 1548.35 Q866.403 1544.29 860.309 1544.29 Q852.861 1544.29 848.538 1549.23 Q844.215 1554.18 844.215 1562.72 L844.215 1595.69 L834.58 1595.69 L834.58 1560.8 Q834.58 1552.36 831.611 1548.35 Q828.642 1544.29 822.445 1544.29 Q815.101 1544.29 810.778 1549.29 Q806.455 1554.23 806.455 1562.72 L806.455 1595.69 L796.82 1595.69 L796.82 1537.36 L806.455 1537.36 L806.455 1546.42 Q809.736 1541.06 814.32 1538.5 Q818.903 1535.95 825.205 1535.95 Q831.559 1535.95 835.986 1539.18 Q840.465 1542.41 842.601 1548.56 Z" fill="#000000" fill-rule="evenodd" fill-opacity="1" /><path clip-path="url(#clip510)" d="M950.986 1564.13 L950.986 1568.82 L906.923 1568.82 Q907.548 1578.71 912.861 1583.92 Q918.225 1589.08 927.757 1589.08 Q933.277 1589.08 938.434 1587.72 Q943.642 1586.37 948.746 1583.66 L948.746 1592.72 Q943.59 1594.91 938.173 1596.06 Q932.756 1597.2 927.184 1597.2 Q913.225 1597.2 905.048 1589.08 Q896.923 1580.95 896.923 1567.1 Q896.923 1552.78 904.632 1544.39 Q912.392 1535.95 925.517 1535.95 Q937.288 1535.95 944.111 1543.56 Q950.986 1551.11 950.986 1564.13 M941.402 1561.32 Q941.298 1553.45 936.975 1548.77 Q932.704 1544.08 925.621 1544.08 Q917.6 1544.08 912.757 1548.61 Q907.965 1553.14 907.236 1561.37 L941.402 1561.32 Z" fill="#000000" fill-rule="evenodd" fill-opacity="1" /><path clip-path="url(#clip510)" d="M1023.64 1514.75 Q1016.66 1526.73 1013.28 1538.45 Q1009.89 1550.17 1009.89 1562.2 Q1009.89 1574.23 1013.28 1586.06 Q1016.71 1597.83 1023.64 1609.75 L1015.31 1609.75 Q1007.5 1597.51 1003.59 1585.69 Q999.735 1573.87 999.735 1562.2 Q999.735 1550.59 1003.59 1538.82 Q1007.44 1527.05 1015.31 1514.75 L1023.64 1514.75 Z" fill="#000000" fill-rule="evenodd" fill-opacity="1" /><path clip-path="url(#clip510)" d="M1079.42 1539.08 L1079.42 1548.14 Q1075.36 1546.06 1070.98 1545.02 Q1066.61 1543.97 1061.92 1543.97 Q1054.79 1543.97 1051.19 1546.16 Q1047.65 1548.35 1047.65 1552.72 Q1047.65 1556.06 1050.2 1557.98 Q1052.76 1559.86 1060.46 1561.58 L1063.75 1562.31 Q1073.95 1564.49 1078.22 1568.5 Q1082.55 1572.46 1082.55 1579.6 Q1082.55 1587.72 1076.09 1592.46 Q1069.68 1597.2 1058.43 1597.2 Q1053.75 1597.2 1048.64 1596.26 Q1043.59 1595.38 1037.96 1593.56 L1037.96 1583.66 Q1043.28 1586.42 1048.43 1587.83 Q1053.59 1589.18 1058.64 1589.18 Q1065.41 1589.18 1069.06 1586.89 Q1072.7 1584.55 1072.7 1580.33 Q1072.7 1576.42 1070.05 1574.34 Q1067.44 1572.25 1058.54 1570.33 L1055.2 1569.55 Q1046.3 1567.67 1042.34 1563.82 Q1038.38 1559.91 1038.38 1553.14 Q1038.38 1544.91 1044.21 1540.43 Q1050.05 1535.95 1060.78 1535.95 Q1066.09 1535.95 1070.78 1536.73 Q1075.46 1537.52 1079.42 1539.08 Z" fill="#000000" fill-rule="evenodd" fill-opacity="1" /><path clip-path="url(#clip510)" d="M1096.3 1514.75 L1104.63 1514.75 Q1112.44 1527.05 1116.3 1538.82 Q1120.2 1550.59 1120.2 1562.2 Q1120.2 1573.87 1116.3 1585.69 Q1112.44 1597.51 1104.63 1609.75 L1096.3 1609.75 Q1103.22 1597.83 1106.61 1586.06 Q1110.05 1574.23 1110.05 1562.2 Q1110.05 1550.17 1106.61 1538.45 Q1103.22 1526.73 1096.3 1514.75 Z" fill="#000000" fill-rule="evenodd" fill-opacity="1" /><polyline clip-path="url(#clip510)" style="stroke:#000000; stroke-linecap:butt; stroke-linejoin:round; stroke-width:4; stroke-opacity:1; fill:none" points="
  387.218,1349.74 387.218,47.2441 
  "/>
<polyline clip-path="url(#clip510)" style="stroke:#000000; stroke-linecap:butt; stroke-linejoin:round; stroke-width:4; stroke-opacity:1; fill:none" points="
  387.218,1233.13 397.451,1233.13 
  "/>
<polyline clip-path="url(#clip510)" style="stroke:#000000; stroke-linecap:butt; stroke-linejoin:round; stroke-width:4; stroke-opacity:1; fill:none" points="
  387.218,972.625 397.451,972.625 
  "/>
<polyline clip-path="url(#clip510)" style="stroke:#000000; stroke-linecap:butt; stroke-linejoin:round; stroke-width:4; stroke-opacity:1; fill:none" points="
  387.218,712.117 397.451,712.117 
  "/>
<polyline clip-path="url(#clip510)" style="stroke:#000000; stroke-linecap:butt; stroke-linejoin:round; stroke-width:4; stroke-opacity:1; fill:none" points="
  387.218,451.61 397.451,451.61 
  "/>
<polyline clip-path="url(#clip510)" style="stroke:#000000; stroke-linecap:butt; stroke-linejoin:round; stroke-width:4; stroke-opacity:1; fill:none" points="
  387.218,191.102 397.451,191.102 
  "/>
<path clip-path="url(#clip510)" d="M144.5 1234.15 L211.271 1234.15 L211.271 1243 L144.5 1243 L144.5 1234.15 Z" fill="#000000" fill-rule="evenodd" fill-opacity="1" /><path clip-path="url(#clip510)" d="M243.041 1263.16 L279.76 1263.16 L279.76 1272.01 L230.385 1272.01 L230.385 1263.16 Q236.375 1256.96 246.687 1246.54 Q257.052 1236.08 259.708 1233.05 Q264.76 1227.38 266.739 1223.47 Q268.77 1219.51 268.77 1215.71 Q268.77 1209.51 264.395 1205.61 Q260.072 1201.7 253.093 1201.7 Q248.145 1201.7 242.625 1203.42 Q237.156 1205.14 230.906 1208.63 L230.906 1198 Q237.26 1195.45 242.781 1194.15 Q248.302 1192.85 252.885 1192.85 Q264.968 1192.85 272.156 1198.89 Q279.343 1204.93 279.343 1215.03 Q279.343 1219.83 277.52 1224.15 Q275.749 1228.42 271.01 1234.25 Q269.708 1235.76 262.729 1243 Q255.75 1250.19 243.041 1263.16 Z" fill="#000000" fill-rule="evenodd" fill-opacity="1" /><path clip-path="url(#clip510)" d="M324.343 1201.18 Q316.218 1201.18 312.103 1209.2 Q308.041 1217.17 308.041 1233.21 Q308.041 1249.2 312.103 1257.22 Q316.218 1265.19 324.343 1265.19 Q332.52 1265.19 336.582 1257.22 Q340.697 1249.2 340.697 1233.21 Q340.697 1217.17 336.582 1209.2 Q332.52 1201.18 324.343 1201.18 M324.343 1192.85 Q337.416 1192.85 344.291 1203.21 Q351.218 1213.52 351.218 1233.21 Q351.218 1252.85 344.291 1263.21 Q337.416 1273.52 324.343 1273.52 Q311.27 1273.52 304.343 1263.21 Q297.468 1252.85 297.468 1233.21 Q297.468 1213.52 304.343 1203.21 Q311.27 1192.85 324.343 1192.85 Z" fill="#000000" fill-rule="evenodd" fill-opacity="1" /><path clip-path="url(#clip510)" d="M146.74 973.641 L213.51 973.641 L213.51 982.495 L146.74 982.495 L146.74 973.641 Z" fill="#000000" fill-rule="evenodd" fill-opacity="1" /><path clip-path="url(#clip510)" d="M238.041 1002.65 L255.229 1002.65 L255.229 943.328 L236.531 947.078 L236.531 937.495 L255.125 933.745 L265.645 933.745 L265.645 1002.65 L282.833 1002.65 L282.833 1011.5 L238.041 1011.5 L238.041 1002.65 Z" fill="#000000" fill-rule="evenodd" fill-opacity="1" /><path clip-path="url(#clip510)" d="M304.187 933.745 L345.489 933.745 L345.489 942.599 L313.822 942.599 L313.822 961.661 Q316.114 960.88 318.405 960.516 Q320.697 960.099 322.989 960.099 Q336.01 960.099 343.614 967.234 Q351.218 974.37 351.218 986.557 Q351.218 999.109 343.405 1006.09 Q335.593 1013.02 321.374 1013.02 Q316.478 1013.02 311.374 1012.18 Q306.322 1011.35 300.906 1009.68 L300.906 999.109 Q305.593 1001.66 310.593 1002.91 Q315.593 1004.16 321.166 1004.16 Q330.176 1004.16 335.437 999.422 Q340.697 994.682 340.697 986.557 Q340.697 978.432 335.437 973.693 Q330.176 968.953 321.166 968.953 Q316.947 968.953 312.728 969.891 Q308.562 970.828 304.187 972.807 L304.187 933.745 Z" fill="#000000" fill-rule="evenodd" fill-opacity="1" /><path clip-path="url(#clip510)" d="M144.5 713.133 L211.271 713.133 L211.271 721.987 L144.5 721.987 L144.5 713.133 Z" fill="#000000" fill-rule="evenodd" fill-opacity="1" /><path clip-path="url(#clip510)" d="M235.802 742.143 L252.989 742.143 L252.989 682.821 L234.291 686.571 L234.291 676.987 L252.885 673.237 L263.406 673.237 L263.406 742.143 L280.593 742.143 L280.593 750.997 L235.802 750.997 L235.802 742.143 Z" fill="#000000" fill-rule="evenodd" fill-opacity="1" /><path clip-path="url(#clip510)" d="M324.343 680.164 Q316.218 680.164 312.103 688.185 Q308.041 696.154 308.041 712.196 Q308.041 728.185 312.103 736.206 Q316.218 744.175 324.343 744.175 Q332.52 744.175 336.582 736.206 Q340.697 728.185 340.697 712.196 Q340.697 696.154 336.582 688.185 Q332.52 680.164 324.343 680.164 M324.343 671.831 Q337.416 671.831 344.291 682.196 Q351.218 692.508 351.218 712.196 Q351.218 731.831 344.291 742.195 Q337.416 752.508 324.343 752.508 Q311.27 752.508 304.343 742.195 Q297.468 731.831 297.468 712.196 Q297.468 692.508 304.343 682.196 Q311.27 671.831 324.343 671.831 Z" fill="#000000" fill-rule="evenodd" fill-opacity="1" /><path clip-path="url(#clip510)" d="M214.604 452.626 L281.374 452.626 L281.374 461.48 L214.604 461.48 L214.604 452.626 Z" fill="#000000" fill-rule="evenodd" fill-opacity="1" /><path clip-path="url(#clip510)" d="M304.187 412.73 L345.489 412.73 L345.489 421.584 L313.822 421.584 L313.822 440.646 Q316.114 439.865 318.405 439.501 Q320.697 439.084 322.989 439.084 Q336.01 439.084 343.614 446.219 Q351.218 453.355 351.218 465.542 Q351.218 478.094 343.405 485.073 Q335.593 492 321.374 492 Q316.478 492 311.374 491.167 Q306.322 490.334 300.906 488.667 L300.906 478.094 Q305.593 480.646 310.593 481.896 Q315.593 483.146 321.166 483.146 Q330.176 483.146 335.437 478.407 Q340.697 473.667 340.697 465.542 Q340.697 457.417 335.437 452.678 Q330.176 447.938 321.166 447.938 Q316.947 447.938 312.728 448.876 Q308.562 449.813 304.187 451.792 L304.187 412.73 Z" fill="#000000" fill-rule="evenodd" fill-opacity="1" /><path clip-path="url(#clip510)" d="M324.343 159.149 Q316.218 159.149 312.103 167.17 Q308.041 175.139 308.041 191.18 Q308.041 207.17 312.103 215.191 Q316.218 223.159 324.343 223.159 Q332.52 223.159 336.582 215.191 Q340.697 207.17 340.697 191.18 Q340.697 175.139 336.582 167.17 Q332.52 159.149 324.343 159.149 M324.343 150.816 Q337.416 150.816 344.291 161.181 Q351.218 171.493 351.218 191.18 Q351.218 210.816 344.291 221.18 Q337.416 231.493 324.343 231.493 Q311.27 231.493 304.343 221.18 Q297.468 210.816 297.468 191.18 Q297.468 171.493 304.343 161.181 Q311.27 150.816 324.343 150.816 Z" fill="#000000" fill-rule="evenodd" fill-opacity="1" /><path clip-path="url(#clip510)" d="M33.8956 702.446 Q42.7493 702.446 52.7097 705.292 Q62.6174 708.085 70.6278 712.512 Q78.5856 716.939 83.8557 722.736 Q89.073 728.533 89.073 734.066 Q89.073 737.597 87.1231 740.232 Q85.1205 742.815 81.8003 744.238 Q78.4275 745.661 74.7385 746.346 Q70.9967 747.031 66.9388 747.031 Q60.8783 747.031 54.2907 745.713 Q47.6504 744.396 41.6426 742.182 Q35.582 739.969 30.1012 736.86 Q24.5676 733.75 20.5624 730.325 Q16.5044 726.846 14.1329 722.947 Q11.7614 719.047 11.7614 715.41 Q11.7614 712.775 12.9208 710.667 Q14.0275 708.507 15.9774 707.136 Q17.8746 705.766 20.1408 704.818 Q22.4069 703.816 25.0419 703.342 Q27.6242 702.868 29.785 702.657 Q31.893 702.446 33.8956 702.446 M27.2026 709.561 Q24.5149 709.561 22.5123 709.771 Q20.457 709.982 18.4016 710.562 Q16.3463 711.142 15.2396 712.406 Q14.1329 713.619 14.1329 715.516 Q14.1329 721.049 25.4635 727.268 Q28.9944 729.271 33.7902 731.062 Q38.5859 732.854 40.8521 733.487 Q43.1182 734.119 48.7044 735.595 L48.7044 713.039 Q34.3172 709.561 27.2026 709.561 M52.13 713.988 L52.13 736.438 Q65.3051 739.916 73.5264 739.916 Q80.6936 739.916 83.6976 738.441 Q86.6488 736.912 86.6488 734.066 Q86.6488 730.799 83.3814 727.742 Q80.0612 724.686 74.0534 721.576 Q66.2537 717.466 52.13 713.988 Z" fill="#000000" fill-rule="evenodd" fill-opacity="1" /><path clip-path="url(#clip510)" d="M118.963 691.354 Q117.598 691.354 117.192 691.244 Q116.786 691.096 116.159 690.506 L100.001 676.008 Q91.0737 668.077 83.2898 668.077 Q78.2358 668.077 74.6206 670.733 Q71.0053 673.352 71.0053 678.185 Q71.0053 681.505 73.0343 684.308 Q75.0633 687.112 78.6785 688.403 Q78.6047 688.182 78.6047 687.407 Q78.6047 685.526 79.7852 684.493 Q80.9657 683.423 82.552 683.423 Q84.581 683.423 85.577 684.751 Q86.5362 686.042 86.5362 687.333 Q86.5362 687.85 86.4255 688.551 Q86.3148 689.215 85.2819 690.285 Q84.2121 691.354 82.3307 691.354 Q77.0553 691.354 72.8498 687.37 Q68.6443 683.349 68.6443 677.225 Q68.6443 670.29 72.7761 665.753 Q76.8709 661.178 83.2898 661.178 Q85.5401 661.178 87.606 661.879 Q89.635 662.543 91.2212 663.465 Q92.8075 664.351 95.353 666.785 Q97.8984 669.22 99.706 671.175 Q101.514 673.131 105.35 677.521 L113.134 685.526 L113.134 671.913 Q113.134 665.273 112.544 664.757 Q111.474 664.019 105.83 663.096 L105.83 661.178 L118.963 663.318 L118.963 691.354 Z" fill="#000000" fill-rule="evenodd" fill-opacity="1" /><polyline clip-path="url(#clip512)" style="stroke:#009af9; stroke-linecap:butt; stroke-linejoin:round; stroke-width:16; stroke-opacity:1; fill:none" points="
  417.34,86.8994 419.352,86.8988 421.364,86.892 423.376,86.8704 425.388,86.8468 427.4,86.8941 429.413,87.1913 431.425,88.0469 433.437,89.8801 435.449,93.1555 
  437.461,98.3072 439.473,105.65 441.485,115.315 443.498,127.22 445.51,141.116 447.522,156.717 449.534,173.84 451.546,192.444 453.558,212.185 455.571,231.904 
  457.583,250.419 459.595,267.448 461.607,283.214 463.619,297.931 465.631,311.725 467.643,324.681 469.656,336.881 471.668,348.436 473.68,359.48 475.692,370.169 
  477.704,380.663 479.716,391.102 481.728,401.602 483.741,412.218 485.753,422.94 487.765,433.697 489.777,444.379 491.789,455.031 493.801,465.896 495.814,477.54 
  497.826,490.825 499.838,506.827 501.85,525.401 503.862,543.13 505.874,557.735 507.886,569.965 509.899,580.815 511.911,590.999 513.923,600.979 515.935,610.955 
  517.947,620.935 519.959,630.85 521.971,640.644 523.984,650.326 525.996,659.96 528.008,669.658 530.02,679.557 532.032,689.813 534.044,700.592 536.057,712.039 
  538.069,724.277 540.081,737.411 542.093,751.514 544.105,766.73 546.117,783.222 548.129,801.113 550.142,820.251 552.154,839.697 554.166,858.251 556.178,875.386 
  558.19,890.967 560.202,904.814 562.214,916.666 564.227,926.307 566.239,933.669 568.251,938.903 570.263,942.333 572.275,944.411 574.287,945.601 576.3,946.294 
  578.312,946.794 580.324,947.245 582.336,947.698 584.348,948.15 586.36,948.591 588.372,949.017 590.385,949.435 592.397,949.865 594.409,950.298 596.421,950.666 
  598.433,950.791 600.445,950.365 602.458,948.963 604.47,946.111 606.482,941.387 608.494,934.44 610.506,925.121 612.518,913.511 614.53,899.872 616.543,884.535 
  618.555,867.66 620.567,849.325 622.579,829.644 624.591,809.577 626.603,790.521 628.615,772.988 630.628,756.762 632.64,741.573 634.652,727.247 636.664,713.686 
  638.676,700.803 640.688,688.509 642.701,676.677 644.713,665.165 646.725,653.822 648.737,642.511 650.749,631.133 652.761,619.648 654.773,608.1 656.786,596.634 
  658.798,585.288 660.81,573.953 662.822,562.237 664.834,549.427 666.846,534.535 668.858,516.618 670.871,497.811 672.883,481.741 674.895,468.5 676.907,457.048 
  678.919,446.569 680.931,436.492 682.944,426.497 684.956,416.497 686.968,406.528 688.98,396.652 690.992,386.883 693.004,377.181 695.016,367.454 697.029,357.579 
  699.041,347.414 701.053,336.807 703.065,325.606 705.077,313.676 707.089,300.898 709.101,287.158 711.114,272.354 713.126,256.307 715.138,238.895 717.15,220.31 
  719.162,201.405 721.174,183.276 723.187,166.493 725.199,151.264 727.211,137.82 729.223,126.424 731.235,117.276 733.247,110.4 735.259,105.601 737.272,102.492 
  739.284,100.573 741.296,99.3364 743.308,98.406 745.32,97.5505 747.332,96.6966 749.344,95.854 751.357,95.0652 753.369,94.3654 755.381,93.7675 757.393,93.2589 
  759.405,92.8057 761.417,92.3676 763.43,91.9382 765.442,91.5908 767.454,91.5387 769.466,92.1478 771.478,93.9028 773.49,97.3063 775.502,102.762 777.515,110.55 
  779.527,120.746 781.539,133.17 783.551,147.532 785.563,163.478 787.575,180.949 789.587,199.85 791.6,219.687 793.612,239.154 795.624,257.236 797.636,273.889 
  799.648,289.387 801.66,303.948 803.673,317.707 805.685,330.763 807.697,343.21 809.709,355.168 811.721,366.774 813.733,378.172 815.745,389.507 817.758,400.887 
  819.77,412.374 821.782,423.933 823.794,435.46 825.806,446.887 827.818,458.26 829.83,469.897 831.843,482.368 833.855,496.791 835.867,514.098 837.879,533.218 
  839.891,550.242 841.903,564.257 843.916,576.292 845.928,587.247 847.94,597.741 849.952,608.135 851.964,618.547 853.976,628.942 855.988,639.253 858.001,649.453 
  860.013,659.581 862.025,669.725 864.037,680.009 866.049,690.573 868.061,701.564 870.073,713.13 872.086,725.401 874.098,738.5 876.11,752.55 878.122,767.672 
  880.134,784.073 882.146,801.809 884.159,820.515 886.171,839.182 888.183,856.849 890.195,873.107 892.207,887.751 894.219,900.517 896.231,911.134 898.244,919.432 
  900.256,925.456 902.268,929.48 904.28,931.964 906.292,933.455 908.304,934.466 910.316,935.325 912.329,936.187 914.341,937.063 916.353,937.903 918.365,938.643 
  920.377,939.238 922.389,939.67 924.402,939.95 926.414,940.123 928.426,940.244 930.438,940.358 932.45,940.457 934.462,940.403 936.474,939.881 938.487,938.426 
  940.499,935.5 942.511,930.618 944.523,923.452 946.535,913.876 948.547,902.007 950.559,888.099 952.572,872.49 954.584,855.353 956.596,836.802 958.608,817.309 
  960.62,798.074 962.632,780.115 964.645,763.568 966.657,748.211 968.669,733.838 970.681,720.306 972.693,707.506 974.705,695.334 976.717,683.664 978.73,672.357 
  980.742,661.264 982.754,650.243 984.766,639.182 986.778,628.012 988.79,616.754 990.802,605.482 992.815,594.28 994.827,583.125 996.839,571.75 998.851,559.594 
  1000.86,545.724 1002.88,529.08 1004.89,510.079 1006.9,492.387 1008.91,477.763 1010.92,465.301 1012.94,454.029 1014.95,443.265 1016.96,432.605 1018.97,421.91 
  1020.98,411.21 1023,400.586 1025.01,390.074 1027.02,379.643 1029.03,369.207 1031.05,358.641 1033.06,347.808 1035.07,336.555 1037.08,324.739 1039.09,312.236 
  1041.11,298.928 1043.12,284.704 1045.13,269.405 1047.14,252.837 1049.15,234.9 1051.17,215.958 1053.18,197.063 1055.19,179.209 1057.2,162.776 1059.22,147.94 
  1061.23,134.954 1063.24,124.107 1065.25,115.594 1067.26,109.412 1069.28,105.318 1071.29,102.882 1073.3,101.555 1075.31,100.821 1077.32,100.31 1079.34,99.8187 
  1081.35,99.3141 1083.36,98.8372 1085.37,98.4538 1087.39,98.2147 1089.4,98.1446 1091.41,98.2404 1093.42,98.4644 1095.43,98.7591 1097.45,99.0682 1099.46,99.3678 
  1101.47,99.7438 1103.48,100.449 1105.5,101.925 1107.51,104.689 1109.52,109.274 1111.53,116.069 1113.54,125.233 1115.56,136.696 1117.57,150.216 1119.58,165.554 
  1121.59,182.445 1123.6,200.724 1125.62,219.851 1127.63,238.771 1129.64,256.508 1131.65,272.856 1133.67,287.999 1135.68,302.118 1137.69,315.355 1139.7,327.821 
  1141.71,339.634 1143.73,350.92 1145.74,361.822 1147.75,372.492 1149.76,383.066 1151.77,393.664 1153.79,404.356 1155.8,415.154 1157.81,426.009 1159.82,436.827 
  1161.84,447.616 1163.85,458.584 1165.86,470.201 1167.87,483.29 1169.88,498.87 1171.9,517.356 1173.91,535.881 1175.92,551.48 1177.93,564.616 1179.94,576.363 
  1181.96,587.495 1183.97,598.495 1185.98,609.556 1187.99,620.661 1190.01,631.722 1192.02,642.676 1194.03,653.538 1196.04,664.389 1198.05,675.35 1200.07,686.562 
  1202.08,698.173 1204.09,710.326 1206.1,723.137 1208.11,736.714 1210.13,751.166 1212.14,766.638 1214.15,783.365 1216.16,801.515 1218.18,820.793 1220.19,840.1 
  1222.2,858.337 1224.21,875.136 1226.22,890.396 1228.24,903.886 1230.25,915.3 1232.26,924.389 1234.27,931.097 1236.28,935.585 1238.3,938.23 1240.31,939.523 
  1242.32,940.002 1244.33,940.102 1246.35,940.088 1248.36,940.071 1250.37,940.042 1252.38,939.952 1254.39,939.746 1256.41,939.394 1258.42,938.887 1260.43,938.258 
  1262.44,937.559 1264.45,936.839 1266.47,936.134 1268.48,935.383 1270.49,934.367 1272.5,932.669 1274.52,929.776 1276.53,925.204 1278.54,918.508 1280.55,909.475 
  1282.56,898.157 1284.58,884.781 1286.59,869.634 1288.6,852.883 1290.61,834.797 1292.63,815.91 1294.64,797.301 1296.65,779.854 1298.66,763.764 1300.67,748.884 
  1302.69,735.049 1304.7,722.127 1306.71,710 1308.72,698.551 1310.73,687.644 1312.75,677.135 1314.76,666.875 1316.77,656.724 1318.78,646.567 1320.8,636.323 
  1322.81,625.971 1324.82,615.56 1326.83,605.145 1328.84,594.742 1330.86,584.174 1332.87,573.033 1334.88,560.613 1336.89,545.919 1338.9,528.126 1340.92,509.217 
  1342.93,492.761 1344.94,478.997 1346.95,466.819 1348.97,455.362 1350.98,444.074 1352.99,432.705 1355,421.246 1357.01,409.79 1359.03,398.421 1361.04,387.141 
  1363.05,375.882 1365.06,364.523 1367.07,352.922 1369.09,340.937 1371.1,328.425 1373.11,315.283 1375.12,301.418 1377.14,286.734 1379.15,271.091 1381.16,254.24 
  1383.17,235.932 1385.18,216.329 1387.2,196.541 1389.21,177.832 1391.22,160.57 1393.23,144.781 1395.24,130.625 1397.26,118.408 1399.27,108.42 1401.28,100.813 
  1403.29,95.5046 1405.31,92.2142 1407.32,90.5086 1409.33,89.9059 1411.34,89.9627 1413.35,90.3029 1415.37,90.7283 1417.38,91.1616 1419.39,91.6037 1421.4,92.0813 
  
  "/>
<polyline clip-path="url(#clip512)" style="stroke:#e26f46; stroke-linecap:butt; stroke-linejoin:round; stroke-width:16; stroke-opacity:1; fill:none" points="
  417.34,84.2943 419.352,84.2826 421.364,84.2442 423.376,84.1776 425.388,84.1072 427.4,84.1225 429.413,84.419 431.425,85.317 433.437,87.2377 435.449,90.6417 
  437.461,95.9555 439.473,103.486 441.485,113.353 443.498,125.458 445.51,139.549 447.522,155.319 449.534,172.608 451.546,191.403 453.558,211.36 455.571,231.334 
  457.583,250.06 459.595,267.285 461.607,283.247 463.619,298.172 465.631,312.185 467.643,325.366 469.656,337.791 471.668,349.567 473.68,360.828 475.692,371.732 
  477.704,382.442 479.716,393.104 481.728,403.837 483.741,414.696 485.753,425.667 487.765,436.666 489.777,447.572 491.789,458.408 493.801,469.415 495.814,481.168 
  497.826,494.553 499.838,510.667 501.85,529.289 503.862,546.852 505.874,561.21 507.886,573.146 509.899,583.628 511.911,593.365 513.923,602.832 515.935,612.257 
  517.947,621.674 519.959,631.023 521.971,640.249 523.984,649.348 525.996,658.371 528.008,667.414 530.02,676.604 532.032,686.094 534.044,696.058 536.057,706.659 
  538.069,718.044 540.081,730.341 542.093,743.63 544.105,758.028 546.117,773.655 548.129,790.605 550.142,808.973 552.154,828.345 554.166,847.587 556.178,865.69 
  558.19,882.295 560.202,897.265 562.214,910.385 564.227,921.417 566.239,930.218 568.251,936.828 570.263,941.485 572.275,944.569 574.287,946.537 576.3,947.824 
  578.312,948.765 580.324,949.585 582.336,950.386 584.348,951.204 586.36,952.04 588.372,952.898 590.385,953.786 592.397,954.708 594.409,955.653 596.421,956.547 
  598.433,957.217 600.445,957.365 602.458,956.595 604.47,954.463 606.482,950.494 608.494,944.313 610.506,935.732 612.518,924.763 614.53,911.666 616.543,896.774 
  618.555,880.398 620.567,862.745 622.579,843.586 624.591,823.12 626.603,802.684 628.615,783.669 630.628,766.225 632.64,749.929 634.652,734.452 636.664,719.611 
  638.676,705.309 640.688,691.464 642.701,677.983 644.713,664.747 646.725,651.626 648.737,638.507 650.749,625.332 652.761,612.136 654.773,599.024 656.786,586.122 
  658.798,573.389 660.81,560.523 662.822,546.771 664.834,531.073 666.846,512.512 668.858,493.232 670.871,476.628 672.883,462.788 674.895,450.671 676.907,439.467 
  678.919,428.634 680.931,417.873 682.944,407.109 684.956,396.379 686.968,385.728 688.98,375.152 690.992,364.593 693.004,353.953 695.016,343.111 697.029,331.932 
  699.041,320.278 701.053,308.008 703.065,294.964 705.077,280.99 707.089,265.94 709.101,249.717 711.114,232.52 713.126,214.976 715.138,197.955 717.15,182.046 
  719.162,167.585 721.174,154.892 723.187,144.26 725.199,135.878 727.211,129.696 729.223,125.38 731.235,122.339 733.247,119.952 735.259,117.672 737.272,115.232 
  739.284,112.614 741.296,109.903 743.308,107.215 745.32,104.642 747.332,102.247 749.344,100.057 751.357,98.0554 753.369,96.1973 755.381,94.4189 757.393,92.6569 
  759.405,90.9072 761.417,89.3033 763.43,88.1244 765.442,87.8207 767.454,88.9178 769.466,91.9069 771.478,97.2293 773.49,105.108 775.502,115.517 777.515,128.197 
  779.527,142.705 781.539,158.716 783.551,176.037 785.563,194.701 787.575,214.711 789.587,234.998 791.6,254 793.612,271.394 795.624,287.605 797.636,303.009 
  799.648,317.855 801.66,332.294 803.673,346.435 805.685,360.376 807.697,374.226 809.709,388.07 811.721,401.961 813.733,415.847 815.745,429.635 817.758,443.24 
  819.77,456.751 821.782,470.548 823.794,485.415 825.806,502.553 827.818,522.34 829.83,541.955 831.843,558.733 833.855,573.31 835.867,586.772 837.879,599.85 
  839.891,612.942 841.903,626.155 843.916,639.421 845.928,652.65 847.94,665.813 849.952,678.956 851.964,692.177 853.976,705.595 855.988,719.338 858.001,733.556 
  860.013,748.44 862.025,764.264 864.037,781.341 866.049,799.829 868.061,819.128 870.073,837.94 872.086,855.502 874.098,871.729 876.11,886.471 878.122,899.403 
  880.134,910.085 882.146,918.178 884.159,923.583 886.171,926.484 888.183,927.374 890.195,926.95 892.207,925.982 894.219,924.996 896.231,924.204 898.244,923.559 
  900.256,922.912 902.268,922.103 904.28,920.994 906.292,919.484 908.304,917.507 910.316,915.028 912.329,912.054 914.341,908.626 916.353,904.83 918.365,900.808 
  920.377,896.76 922.389,892.971 924.402,889.81 926.414,887.614 928.426,886.625 930.438,886.588 932.45,886.451 934.462,884.748 936.474,880.486 938.487,873.405 
  940.499,863.762 942.511,852.076 944.523,838.869 946.535,824.557 948.547,809.332 950.559,793.361 952.572,777.104 954.584,761.368 956.596,746.663 958.608,733.028 
  960.62,720.248 962.632,708.101 964.645,696.403 966.657,685.015 968.669,673.83 970.681,662.773 972.693,651.752 974.705,640.621 976.717,629.155 978.73,617.031 
  980.742,603.822 982.754,588.934 984.766,571.671 986.778,552.59 988.79,533.957 990.802,517.116 992.815,501.326 994.827,485.847 996.839,470.361 998.851,454.958 
  1000.86,440.01 1002.88,426.024 1004.89,413.559 1006.9,403.126 1008.91,395.076 1010.92,389.573 1012.94,386.485 1014.95,385.472 1016.96,386.099 1018.97,387.92 
  1020.98,390.538 1023,393.615 1025.01,396.885 1027.02,400.189 1029.03,403.441 1031.05,406.62 1033.06,409.734 1035.07,412.798 1037.08,415.859 1039.09,418.999 
  1041.11,422.341 1043.12,426.101 1045.13,430.579 1047.14,436.138 1049.15,443.15 1051.17,451.904 1053.18,462.553 1055.19,475.088 1057.2,489.356 1059.22,505.181 
  1061.23,522.228 1063.24,539.915 1065.25,557.385 1067.26,573.901 1069.28,589.134 1071.29,603.023 1073.3,615.611 1075.31,626.976 1077.32,637.236 1079.34,646.544 
  1081.35,655.07 1083.36,662.997 1085.37,670.5 1087.39,677.724 1089.4,684.787 1091.41,691.775 1093.42,698.725 1095.43,705.631 1097.45,712.454 1099.46,719.126 
  1101.47,725.564 1103.48,731.8 1105.5,738.056 1107.51,744.781 1109.52,752.541 1111.53,761.875 1113.54,773.298 1115.56,787.375 1117.57,804.342 1119.58,822.041 
  1121.59,837.799 1123.6,851.853 1125.62,865.19 1127.63,878.527 1129.64,892.23 1131.65,906.363 1133.67,920.758 1135.68,935.188 1137.69,949.452 1139.7,963.397 
  1141.71,976.878 1143.73,989.732 1145.74,1001.78 1147.75,1012.86 1149.76,1022.85 1151.77,1031.77 1153.79,1039.7 1155.8,1046.86 1157.81,1053.49 1159.82,1059.8 
  1161.84,1066.03 1163.85,1072.33 1165.86,1078.81 1167.87,1085.55 1169.88,1092.54 1171.9,1099.75 1173.91,1107.01 1175.92,1114.24 1177.93,1121.46 1179.94,1128.83 
  1181.96,1136.73 1183.97,1145.78 1185.98,1156.75 1187.99,1170.8 1190.01,1187.52 1192.02,1203 1194.03,1214.97 1196.04,1223.97 1198.05,1230.85 1200.07,1236.31 
  1202.08,1240.97 1204.09,1245.3 1206.1,1249.58 1208.11,1253.85 1210.13,1258.05 1212.14,1262.08 1214.15,1265.85 1216.16,1269.3 1218.18,1272.45 1220.19,1275.33 
  1222.2,1278.05 1224.21,1280.74 1226.22,1283.61 1228.24,1286.87 1230.25,1290.72 1232.26,1295.22 1234.27,1300.21 1236.28,1305.24 1238.3,1309.49 1240.31,1312.21 
  1242.32,1312.88 1244.33,1311.39 1246.35,1307.95 1248.36,1302.89 1250.37,1296.53 1252.38,1289.18 1254.39,1281.12 1256.41,1272.65 1258.42,1264.03 1260.43,1255.41 
  1262.44,1246.85 1264.45,1238.32 1266.47,1229.84 1268.48,1221.51 1270.49,1213.46 1272.5,1206 1274.52,1199.72 1276.53,1194.94 1278.54,1191.73 1280.55,1189.79 
  1282.56,1187.79 1284.58,1184.33 1286.59,1178.61 1288.6,1170.65 1290.61,1160.84 1292.63,1149.68 1294.64,1137.57 1296.65,1124.8 1298.66,1111.54 1300.67,1097.98 
  1302.69,1084.51 1304.7,1071.57 1306.71,1059.4 1308.72,1048.07 1310.73,1037.52 1312.75,1027.67 1314.76,1018.51 1316.77,1010.04 1318.78,1002.19 1320.8,994.731 
  1322.81,987.258 1324.82,979.275 1326.83,970.372 1328.84,960.288 1330.86,948.795 1332.87,935.644 1334.88,920.619 1336.89,904.228 1338.9,887.965 1340.92,872.73 
  1342.93,858.253 1344.94,844.102 1346.95,830.14 1348.97,816.575 1350.98,803.94 1352.99,792.957 1355,784.424 1357.01,779.008 1359.03,777.078 1361.04,778.663 
  1363.05,783.267 1365.06,789.553 1367.07,795.593 1369.09,800.356 1371.1,803.943 1373.11,806.79 1375.12,809.304 1377.14,811.808 1379.15,814.548 1381.16,817.704 
  1383.17,821.391 1385.18,825.683 1387.2,830.611 1389.21,836.164 1391.22,842.294 1393.23,848.924 1395.24,855.958 1397.26,863.286 1399.27,870.814 1401.28,878.467 
  1403.29,886.183 1405.31,893.914 1407.32,901.655 1409.33,909.35 1411.34,916.833 1413.35,923.826 1415.37,929.711 1417.38,933.775 1419.39,935.327 1421.4,933.858 
  
  "/>
<path clip-path="url(#clip510)" d="
M1517.04 440.581 L2352.76 440.581 L2352.76 90.6606 L1517.04 90.6606  Z
  " fill="#ffffff" fill-rule="evenodd" fill-opacity="1"/>
<polyline clip-path="url(#clip510)" style="stroke:#000000; stroke-linecap:butt; stroke-linejoin:round; stroke-width:4; stroke-opacity:1; fill:none" points="
  1517.04,440.581 2352.76,440.581 2352.76,90.6606 1517.04,90.6606 1517.04,440.581 
  "/>
<polyline clip-path="url(#clip510)" style="stroke:#009af9; stroke-linecap:butt; stroke-linejoin:round; stroke-width:9; stroke-opacity:1; fill:none" points="
  1538.88,207.301 1669.92,207.301 
  "/>
<path clip-path="url(#clip510)" d="M1736.34 193.422 Q1736.34 202.276 1733.5 212.236 Q1730.7 222.144 1726.28 230.155 Q1721.85 238.112 1716.05 243.382 Q1710.25 248.6 1704.72 248.6 Q1701.19 248.6 1698.56 246.65 Q1695.97 244.647 1694.55 241.327 Q1693.13 237.954 1692.44 234.265 Q1691.76 230.523 1691.76 226.466 Q1691.76 220.405 1693.07 213.817 Q1694.39 207.177 1696.61 201.169 Q1698.82 195.109 1701.93 189.628 Q1705.04 184.094 1708.46 180.089 Q1711.94 176.031 1715.84 173.66 Q1719.74 171.288 1723.38 171.288 Q1726.01 171.288 1728.12 172.448 Q1730.28 173.554 1731.65 175.504 Q1733.02 177.401 1733.97 179.667 Q1734.97 181.934 1735.45 184.569 Q1735.92 187.151 1736.13 189.312 Q1736.34 191.42 1736.34 193.422 M1729.23 186.729 Q1729.23 184.042 1729.02 182.039 Q1728.81 179.984 1728.23 177.928 Q1727.65 175.873 1726.38 174.766 Q1725.17 173.66 1723.27 173.66 Q1717.74 173.66 1711.52 184.99 Q1709.52 188.521 1707.73 193.317 Q1705.93 198.113 1705.3 200.379 Q1704.67 202.645 1703.19 208.231 L1725.75 208.231 Q1729.23 193.844 1729.23 186.729 M1724.8 211.657 L1702.35 211.657 Q1698.87 224.832 1698.87 233.053 Q1698.87 240.22 1700.35 243.224 Q1701.88 246.176 1704.72 246.176 Q1707.99 246.176 1711.05 242.908 Q1714.1 239.588 1717.21 233.58 Q1721.32 225.78 1724.8 211.657 Z" fill="#000000" fill-rule="evenodd" fill-opacity="1" /><path clip-path="url(#clip510)" d="M1747.43 278.489 Q1747.43 277.125 1747.54 276.719 Q1747.69 276.313 1748.28 275.686 L1762.78 259.528 Q1770.71 250.6 1770.71 242.817 Q1770.71 237.763 1768.05 234.147 Q1765.44 230.532 1760.6 230.532 Q1757.28 230.532 1754.48 232.561 Q1751.68 234.59 1750.38 238.205 Q1750.61 238.131 1751.38 238.131 Q1753.26 238.131 1754.29 239.312 Q1755.36 240.492 1755.36 242.079 Q1755.36 244.108 1754.04 245.104 Q1752.75 246.063 1751.45 246.063 Q1750.94 246.063 1750.24 245.952 Q1749.57 245.842 1748.5 244.809 Q1747.43 243.739 1747.43 241.857 Q1747.43 236.582 1751.42 232.377 Q1755.44 228.171 1761.56 228.171 Q1768.5 228.171 1773.04 232.303 Q1777.61 236.398 1777.61 242.817 Q1777.61 245.067 1776.91 247.133 Q1776.24 249.162 1775.32 250.748 Q1774.44 252.334 1772 254.88 Q1769.57 257.425 1767.61 259.233 Q1765.66 261.04 1761.27 264.877 L1753.26 272.661 L1766.87 272.661 Q1773.51 272.661 1774.03 272.071 Q1774.77 271.001 1775.69 265.357 L1777.61 265.357 L1775.47 278.489 L1747.43 278.489 Z" fill="#000000" fill-rule="evenodd" fill-opacity="1" /><path clip-path="url(#clip510)" d="M1788.83 220.405 Q1788.83 202.171 1795.63 187.467 Q1798.53 181.301 1802.59 176.137 Q1806.65 170.972 1809.33 168.706 Q1812.02 166.44 1812.76 166.44 Q1813.81 166.44 1813.87 167.494 Q1813.87 168.021 1812.44 169.338 Q1795.05 187.046 1795.11 220.405 Q1795.11 253.87 1812.02 270.892 Q1813.87 272.737 1813.87 273.316 Q1813.87 274.37 1812.76 274.37 Q1812.02 274.37 1809.44 272.21 Q1806.86 270.049 1802.85 265.095 Q1798.85 260.141 1795.95 254.081 Q1788.83 239.377 1788.83 220.405 Z" fill="#000000" fill-rule="evenodd" fill-opacity="1" /><path clip-path="url(#clip510)" d="M1824.23 212.869 Q1824.23 197.006 1828.23 188.363 Q1833.82 175.504 1846.99 175.504 Q1849.79 175.504 1852.69 176.295 Q1855.64 177.032 1859.33 179.931 Q1863.07 182.83 1865.33 187.573 Q1869.66 196.742 1869.66 212.869 Q1869.66 228.626 1865.65 237.216 Q1859.8 249.759 1846.89 249.759 Q1842.04 249.759 1837.09 247.282 Q1832.19 244.805 1829.08 238.85 Q1824.23 229.944 1824.23 212.869 M1833.19 211.551 Q1833.19 227.836 1834.35 234.318 Q1835.66 241.327 1839.25 244.384 Q1842.88 247.388 1846.89 247.388 Q1851.21 247.388 1854.79 244.173 Q1858.43 240.905 1859.54 233.896 Q1860.75 226.993 1860.7 211.551 Q1860.7 196.532 1859.64 190.524 Q1858.22 183.515 1854.42 180.721 Q1850.68 177.876 1846.89 177.876 Q1845.47 177.876 1843.94 178.297 Q1842.46 178.719 1840.3 179.931 Q1838.14 181.143 1836.45 184.147 Q1834.82 187.151 1834.03 191.683 Q1833.19 197.533 1833.19 211.551 Z" fill="#000000" fill-rule="evenodd" fill-opacity="1" /><path clip-path="url(#clip510)" d="M1880.26 273.316 Q1880.26 272.789 1881.63 271.472 Q1899.03 253.764 1899.03 220.405 Q1899.03 186.94 1882.32 170.023 Q1880.26 168.073 1880.26 167.494 Q1880.26 166.44 1881.32 166.44 Q1882.06 166.44 1884.64 168.6 Q1887.27 170.761 1891.23 175.715 Q1895.23 180.669 1898.18 186.729 Q1905.3 201.433 1905.3 220.405 Q1905.3 238.639 1898.5 253.343 Q1895.6 259.509 1891.54 264.673 Q1887.48 269.838 1884.8 272.104 Q1882.11 274.37 1881.32 274.37 Q1880.26 274.37 1880.26 273.316 Z" fill="#000000" fill-rule="evenodd" fill-opacity="1" /><path clip-path="url(#clip510)" d="M1951.65 230.998 Q1951.75 229.68 1953.81 229.68 L2019.95 229.68 Q2023.06 229.68 2023.11 230.892 Q2023.11 232.21 2020.16 232.157 L1954.55 232.157 Q1951.65 232.21 1951.65 230.998 M1951.65 209.918 Q1951.65 208.6 1953.91 208.653 L2019.84 208.653 Q2023.06 208.653 2023.11 209.918 Q2023.11 211.13 2020.37 211.13 L1953.81 211.13 Q1951.65 211.13 1951.65 209.918 Z" fill="#000000" fill-rule="evenodd" fill-opacity="1" /><path clip-path="url(#clip510)" d="M2064.73 247.388 Q2064.73 245.438 2064.89 244.858 Q2065.1 244.278 2065.95 243.382 L2086.66 220.3 Q2097.99 207.546 2097.99 196.426 Q2097.99 189.206 2094.19 184.042 Q2090.45 178.877 2083.55 178.877 Q2078.81 178.877 2074.8 181.775 Q2070.79 184.674 2068.95 189.839 Q2069.27 189.733 2070.37 189.733 Q2073.06 189.733 2074.54 191.42 Q2076.07 193.106 2076.07 195.372 Q2076.07 198.271 2074.17 199.694 Q2072.32 201.064 2070.48 201.064 Q2069.74 201.064 2068.74 200.906 Q2067.79 200.748 2066.26 199.272 Q2064.73 197.744 2064.73 195.056 Q2064.73 187.52 2070.43 181.512 Q2076.17 175.504 2084.92 175.504 Q2094.83 175.504 2101.31 181.407 Q2107.84 187.256 2107.84 196.426 Q2107.84 199.641 2106.84 202.592 Q2105.89 205.491 2104.58 207.757 Q2103.31 210.023 2099.83 213.659 Q2096.35 217.296 2093.56 219.878 Q2090.77 222.46 2084.5 227.941 L2073.06 239.061 L2092.51 239.061 Q2101.99 239.061 2102.73 238.218 Q2103.79 236.689 2105.1 228.626 L2107.84 228.626 L2104.79 247.388 L2064.73 247.388 Z" fill="#000000" fill-rule="evenodd" fill-opacity="1" /><path clip-path="url(#clip510)" d="M2119.81 245.649 Q2118.18 243.909 2118.18 241.643 Q2118.18 239.377 2119.81 237.743 Q2121.45 236.057 2123.92 236.057 Q2126.3 236.057 2127.88 237.638 Q2129.51 239.166 2129.51 241.696 Q2129.51 244.173 2127.77 245.807 Q2126.08 247.388 2123.92 247.388 Q2121.45 247.388 2119.81 245.649 Z" fill="#000000" fill-rule="evenodd" fill-opacity="1" /><path clip-path="url(#clip510)" d="M2147.88 212.869 Q2147.88 197.006 2151.88 188.363 Q2157.47 175.504 2170.64 175.504 Q2173.44 175.504 2176.34 176.295 Q2179.29 177.032 2182.98 179.931 Q2186.72 182.83 2188.98 187.573 Q2193.31 196.742 2193.31 212.869 Q2193.31 228.626 2189.3 237.216 Q2183.45 249.759 2170.54 249.759 Q2165.69 249.759 2160.74 247.282 Q2155.84 244.805 2152.73 238.85 Q2147.88 229.944 2147.88 212.869 M2156.84 211.551 Q2156.84 227.836 2158 234.318 Q2159.31 241.327 2162.9 244.384 Q2166.53 247.388 2170.54 247.388 Q2174.86 247.388 2178.44 244.173 Q2182.08 240.905 2183.19 233.896 Q2184.4 226.993 2184.35 211.551 Q2184.35 196.532 2183.29 190.524 Q2181.87 183.515 2178.07 180.721 Q2174.33 177.876 2170.54 177.876 Q2169.12 177.876 2167.59 178.297 Q2166.11 178.719 2163.95 179.931 Q2161.79 181.143 2160.1 184.147 Q2158.47 187.151 2157.68 191.683 Q2156.84 197.533 2156.84 211.551 Z" fill="#000000" fill-rule="evenodd" fill-opacity="1" /><path clip-path="url(#clip510)" d="M2201.75 212.869 Q2201.75 197.006 2205.76 188.363 Q2211.35 175.504 2224.52 175.504 Q2227.31 175.504 2230.21 176.295 Q2233.16 177.032 2236.85 179.931 Q2240.59 182.83 2242.86 187.573 Q2247.18 196.742 2247.18 212.869 Q2247.18 228.626 2243.18 237.216 Q2237.33 249.759 2224.42 249.759 Q2219.57 249.759 2214.61 247.282 Q2209.71 244.805 2206.6 238.85 Q2201.75 229.944 2201.75 212.869 M2210.71 211.551 Q2210.71 227.836 2211.87 234.318 Q2213.19 241.327 2216.77 244.384 Q2220.41 247.388 2224.42 247.388 Q2228.74 247.388 2232.32 244.173 Q2235.96 240.905 2237.06 233.896 Q2238.28 226.993 2238.22 211.551 Q2238.22 196.532 2237.17 190.524 Q2235.75 183.515 2231.95 180.721 Q2228.21 177.876 2224.42 177.876 Q2222.99 177.876 2221.46 178.297 Q2219.99 178.719 2217.83 179.931 Q2215.67 181.143 2213.98 184.147 Q2212.35 187.151 2211.56 191.683 Q2210.71 197.533 2210.71 211.551 Z" fill="#000000" fill-rule="evenodd" fill-opacity="1" /><path clip-path="url(#clip510)" d="M2255.63 212.869 Q2255.63 197.006 2259.64 188.363 Q2265.22 175.504 2278.4 175.504 Q2281.19 175.504 2284.09 176.295 Q2287.04 177.032 2290.73 179.931 Q2294.47 182.83 2296.74 187.573 Q2301.06 196.742 2301.06 212.869 Q2301.06 228.626 2297.05 237.216 Q2291.2 249.759 2278.29 249.759 Q2273.44 249.759 2268.49 247.282 Q2263.59 244.805 2260.48 238.85 Q2255.63 229.944 2255.63 212.869 M2264.59 211.551 Q2264.59 227.836 2265.75 234.318 Q2267.07 241.327 2270.65 244.384 Q2274.29 247.388 2278.29 247.388 Q2282.61 247.388 2286.2 244.173 Q2289.83 240.905 2290.94 233.896 Q2292.15 226.993 2292.1 211.551 Q2292.1 196.532 2291.05 190.524 Q2289.62 183.515 2285.83 180.721 Q2282.09 177.876 2278.29 177.876 Q2276.87 177.876 2275.34 178.297 Q2273.87 178.719 2271.71 179.931 Q2269.54 181.143 2267.86 184.147 Q2266.22 187.151 2265.43 191.683 Q2264.59 197.533 2264.59 211.551 Z" fill="#000000" fill-rule="evenodd" fill-opacity="1" /><polyline clip-path="url(#clip510)" style="stroke:#e26f46; stroke-linecap:butt; stroke-linejoin:round; stroke-width:9; stroke-opacity:1; fill:none" points="
  1538.88,323.941 1669.92,323.941 
  "/>
<path clip-path="url(#clip510)" d="M1736.34 310.062 Q1736.34 318.916 1733.5 328.876 Q1730.7 338.784 1726.28 346.795 Q1721.85 354.752 1716.05 360.022 Q1710.25 365.24 1704.72 365.24 Q1701.19 365.24 1698.56 363.29 Q1695.97 361.287 1694.55 357.967 Q1693.13 354.594 1692.44 350.905 Q1691.76 347.163 1691.76 343.106 Q1691.76 337.045 1693.07 330.457 Q1694.39 323.817 1696.61 317.809 Q1698.82 311.749 1701.93 306.268 Q1705.04 300.734 1708.46 296.729 Q1711.94 292.671 1715.84 290.3 Q1719.74 287.928 1723.38 287.928 Q1726.01 287.928 1728.12 289.088 Q1730.28 290.194 1731.65 292.144 Q1733.02 294.041 1733.97 296.307 Q1734.97 298.574 1735.45 301.209 Q1735.92 303.791 1736.13 305.952 Q1736.34 308.06 1736.34 310.062 M1729.23 303.369 Q1729.23 300.682 1729.02 298.679 Q1728.81 296.624 1728.23 294.568 Q1727.65 292.513 1726.38 291.406 Q1725.17 290.3 1723.27 290.3 Q1717.74 290.3 1711.52 301.63 Q1709.52 305.161 1707.73 309.957 Q1705.93 314.753 1705.3 317.019 Q1704.67 319.285 1703.19 324.871 L1725.75 324.871 Q1729.23 310.484 1729.23 303.369 M1724.8 328.297 L1702.35 328.297 Q1698.87 341.472 1698.87 349.693 Q1698.87 356.86 1700.35 359.864 Q1701.88 362.816 1704.72 362.816 Q1707.99 362.816 1711.05 359.548 Q1714.1 356.228 1717.21 350.22 Q1721.32 342.42 1724.8 328.297 Z" fill="#000000" fill-rule="evenodd" fill-opacity="1" /><path clip-path="url(#clip510)" d="M1747.43 395.129 Q1747.43 393.765 1747.54 393.359 Q1747.69 392.953 1748.28 392.326 L1762.78 376.168 Q1770.71 367.24 1770.71 359.457 Q1770.71 354.403 1768.05 350.787 Q1765.44 347.172 1760.6 347.172 Q1757.28 347.172 1754.48 349.201 Q1751.68 351.23 1750.38 354.845 Q1750.61 354.771 1751.38 354.771 Q1753.26 354.771 1754.29 355.952 Q1755.36 357.132 1755.36 358.719 Q1755.36 360.748 1754.04 361.744 Q1752.75 362.703 1751.45 362.703 Q1750.94 362.703 1750.24 362.592 Q1749.57 362.482 1748.5 361.449 Q1747.43 360.379 1747.43 358.497 Q1747.43 353.222 1751.42 349.017 Q1755.44 344.811 1761.56 344.811 Q1768.5 344.811 1773.04 348.943 Q1777.61 353.038 1777.61 359.457 Q1777.61 361.707 1776.91 363.773 Q1776.24 365.802 1775.32 367.388 Q1774.44 368.974 1772 371.52 Q1769.57 374.065 1767.61 375.873 Q1765.66 377.68 1761.27 381.517 L1753.26 389.301 L1766.87 389.301 Q1773.51 389.301 1774.03 388.711 Q1774.77 387.641 1775.69 381.997 L1777.61 381.997 L1775.47 395.129 L1747.43 395.129 Z" fill="#000000" fill-rule="evenodd" fill-opacity="1" /><path clip-path="url(#clip510)" d="M1788.83 337.045 Q1788.83 318.811 1795.63 304.107 Q1798.53 297.941 1802.59 292.777 Q1806.65 287.612 1809.33 285.346 Q1812.02 283.08 1812.76 283.08 Q1813.81 283.08 1813.87 284.134 Q1813.87 284.661 1812.44 285.978 Q1795.05 303.686 1795.11 337.045 Q1795.11 370.51 1812.02 387.532 Q1813.87 389.377 1813.87 389.956 Q1813.87 391.01 1812.76 391.01 Q1812.02 391.01 1809.44 388.85 Q1806.86 386.689 1802.85 381.735 Q1798.85 376.781 1795.95 370.721 Q1788.83 356.017 1788.83 337.045 Z" fill="#000000" fill-rule="evenodd" fill-opacity="1" /><path clip-path="url(#clip510)" d="M1824.23 329.509 Q1824.23 313.646 1828.23 305.003 Q1833.82 292.144 1846.99 292.144 Q1849.79 292.144 1852.69 292.935 Q1855.64 293.672 1859.33 296.571 Q1863.07 299.47 1865.33 304.213 Q1869.66 313.382 1869.66 329.509 Q1869.66 345.266 1865.65 353.856 Q1859.8 366.399 1846.89 366.399 Q1842.04 366.399 1837.09 363.922 Q1832.19 361.445 1829.08 355.49 Q1824.23 346.584 1824.23 329.509 M1833.19 328.191 Q1833.19 344.476 1834.35 350.958 Q1835.66 357.967 1839.25 361.024 Q1842.88 364.028 1846.89 364.028 Q1851.21 364.028 1854.79 360.813 Q1858.43 357.545 1859.54 350.536 Q1860.75 343.633 1860.7 328.191 Q1860.7 313.172 1859.64 307.164 Q1858.22 300.155 1854.42 297.361 Q1850.68 294.516 1846.89 294.516 Q1845.47 294.516 1843.94 294.937 Q1842.46 295.359 1840.3 296.571 Q1838.14 297.783 1836.45 300.787 Q1834.82 303.791 1834.03 308.323 Q1833.19 314.173 1833.19 328.191 Z" fill="#000000" fill-rule="evenodd" fill-opacity="1" /><path clip-path="url(#clip510)" d="M1880.26 389.956 Q1880.26 389.429 1881.63 388.112 Q1899.03 370.404 1899.03 337.045 Q1899.03 303.58 1882.32 286.663 Q1880.26 284.713 1880.26 284.134 Q1880.26 283.08 1881.32 283.08 Q1882.06 283.08 1884.64 285.24 Q1887.27 287.401 1891.23 292.355 Q1895.23 297.309 1898.18 303.369 Q1905.3 318.073 1905.3 337.045 Q1905.3 355.279 1898.5 369.983 Q1895.6 376.149 1891.54 381.313 Q1887.48 386.478 1884.8 388.744 Q1882.11 391.01 1881.32 391.01 Q1880.26 391.01 1880.26 389.956 Z" fill="#000000" fill-rule="evenodd" fill-opacity="1" /><path clip-path="url(#clip510)" d="M1951.65 347.638 Q1951.75 346.32 1953.81 346.32 L2019.95 346.32 Q2023.06 346.32 2023.11 347.532 Q2023.11 348.85 2020.16 348.797 L1954.55 348.797 Q1951.65 348.85 1951.65 347.638 M1951.65 326.558 Q1951.65 325.24 1953.91 325.293 L2019.84 325.293 Q2023.06 325.293 2023.11 326.558 Q2023.11 327.77 2020.37 327.77 L1953.81 327.77 Q1951.65 327.77 1951.65 326.558 Z" fill="#000000" fill-rule="evenodd" fill-opacity="1" /><path clip-path="url(#clip510)" d="M2064.73 364.028 Q2064.73 362.078 2064.89 361.498 Q2065.1 360.918 2065.95 360.022 L2086.66 336.94 Q2097.99 324.186 2097.99 313.066 Q2097.99 305.846 2094.19 300.682 Q2090.45 295.517 2083.55 295.517 Q2078.81 295.517 2074.8 298.415 Q2070.79 301.314 2068.95 306.479 Q2069.27 306.373 2070.37 306.373 Q2073.06 306.373 2074.54 308.06 Q2076.07 309.746 2076.07 312.012 Q2076.07 314.911 2074.17 316.334 Q2072.32 317.704 2070.48 317.704 Q2069.74 317.704 2068.74 317.546 Q2067.79 317.388 2066.26 315.912 Q2064.73 314.384 2064.73 311.696 Q2064.73 304.16 2070.43 298.152 Q2076.17 292.144 2084.92 292.144 Q2094.83 292.144 2101.31 298.047 Q2107.84 303.896 2107.84 313.066 Q2107.84 316.281 2106.84 319.232 Q2105.89 322.131 2104.58 324.397 Q2103.31 326.663 2099.83 330.299 Q2096.35 333.936 2093.56 336.518 Q2090.77 339.1 2084.5 344.581 L2073.06 355.701 L2092.51 355.701 Q2101.99 355.701 2102.73 354.858 Q2103.79 353.329 2105.1 345.266 L2107.84 345.266 L2104.79 364.028 L2064.73 364.028 Z" fill="#000000" fill-rule="evenodd" fill-opacity="1" /><path clip-path="url(#clip510)" d="M2119.81 362.289 Q2118.18 360.549 2118.18 358.283 Q2118.18 356.017 2119.81 354.383 Q2121.45 352.697 2123.92 352.697 Q2126.3 352.697 2127.88 354.278 Q2129.51 355.806 2129.51 358.336 Q2129.51 360.813 2127.77 362.447 Q2126.08 364.028 2123.92 364.028 Q2121.45 364.028 2119.81 362.289 Z" fill="#000000" fill-rule="evenodd" fill-opacity="1" /><path clip-path="url(#clip510)" d="M2147.88 329.509 Q2147.88 313.646 2151.88 305.003 Q2157.47 292.144 2170.64 292.144 Q2173.44 292.144 2176.34 292.935 Q2179.29 293.672 2182.98 296.571 Q2186.72 299.47 2188.98 304.213 Q2193.31 313.382 2193.31 329.509 Q2193.31 345.266 2189.3 353.856 Q2183.45 366.399 2170.54 366.399 Q2165.69 366.399 2160.74 363.922 Q2155.84 361.445 2152.73 355.49 Q2147.88 346.584 2147.88 329.509 M2156.84 328.191 Q2156.84 344.476 2158 350.958 Q2159.31 357.967 2162.9 361.024 Q2166.53 364.028 2170.54 364.028 Q2174.86 364.028 2178.44 360.813 Q2182.08 357.545 2183.19 350.536 Q2184.4 343.633 2184.35 328.191 Q2184.35 313.172 2183.29 307.164 Q2181.87 300.155 2178.07 297.361 Q2174.33 294.516 2170.54 294.516 Q2169.12 294.516 2167.59 294.937 Q2166.11 295.359 2163.95 296.571 Q2161.79 297.783 2160.1 300.787 Q2158.47 303.791 2157.68 308.323 Q2156.84 314.173 2156.84 328.191 Z" fill="#000000" fill-rule="evenodd" fill-opacity="1" /><path clip-path="url(#clip510)" d="M2201.75 329.509 Q2201.75 313.646 2205.76 305.003 Q2211.35 292.144 2224.52 292.144 Q2227.31 292.144 2230.21 292.935 Q2233.16 293.672 2236.85 296.571 Q2240.59 299.47 2242.86 304.213 Q2247.18 313.382 2247.18 329.509 Q2247.18 345.266 2243.18 353.856 Q2237.33 366.399 2224.42 366.399 Q2219.57 366.399 2214.61 363.922 Q2209.71 361.445 2206.6 355.49 Q2201.75 346.584 2201.75 329.509 M2210.71 328.191 Q2210.71 344.476 2211.87 350.958 Q2213.19 357.967 2216.77 361.024 Q2220.41 364.028 2224.42 364.028 Q2228.74 364.028 2232.32 360.813 Q2235.96 357.545 2237.06 350.536 Q2238.28 343.633 2238.22 328.191 Q2238.22 313.172 2237.17 307.164 Q2235.75 300.155 2231.95 297.361 Q2228.21 294.516 2224.42 294.516 Q2222.99 294.516 2221.46 294.937 Q2219.99 295.359 2217.83 296.571 Q2215.67 297.783 2213.98 300.787 Q2212.35 303.791 2211.56 308.323 Q2210.71 314.173 2210.71 328.191 Z" fill="#000000" fill-rule="evenodd" fill-opacity="1" /><path clip-path="url(#clip510)" d="M2252.02 302.421 L2252.02 299.048 Q2264.98 299.048 2271.68 292.144 Q2273.52 292.144 2273.84 292.566 Q2274.15 292.987 2274.15 294.937 L2274.15 355.49 Q2274.15 358.705 2275.74 359.706 Q2277.32 360.707 2284.22 360.707 L2287.65 360.707 L2287.65 364.028 Q2283.85 363.711 2270.15 363.711 Q2256.45 363.711 2252.71 364.028 L2252.71 360.707 L2256.13 360.707 Q2262.93 360.707 2264.56 359.759 Q2266.2 358.758 2266.2 355.49 L2266.2 299.575 Q2260.56 302.421 2252.02 302.421 Z" fill="#000000" fill-rule="evenodd" fill-opacity="1" /></svg>
