<?xml version="1.0" encoding="utf-8"?>
<svg xmlns="http://www.w3.org/2000/svg" xmlns:xlink="http://www.w3.org/1999/xlink" width="600" height="400" viewBox="0 0 2400 1600">
<defs>
  <clipPath id="clip390">
    <rect x="0" y="0" width="2400" height="1600"/>
  </clipPath>
</defs>
<path clip-path="url(#clip390)" d="
M0 1600 L2400 1600 L2400 0 L0 0  Z
  " fill="#ffffff" fill-rule="evenodd" fill-opacity="1"/>
<defs>
  <clipPath id="clip391">
    <rect x="480" y="0" width="1681" height="1600"/>
  </clipPath>
</defs>
<path clip-path="url(#clip390)" d="
M140.696 1486.45 L2352.76 1486.45 L2352.76 47.2441 L140.696 47.2441  Z
  " fill="#ffffff" fill-rule="evenodd" fill-opacity="1"/>
<defs>
  <clipPath id="clip392">
    <rect x="140" y="47" width="2213" height="1440"/>
  </clipPath>
</defs>
<polyline clip-path="url(#clip392)" style="stroke:#000000; stroke-linecap:butt; stroke-linejoin:round; stroke-width:2; stroke-opacity:0.1; fill:none" points="
  411.986,1486.45 411.986,47.2441 
  "/>
<polyline clip-path="url(#clip392)" style="stroke:#000000; stroke-linecap:butt; stroke-linejoin:round; stroke-width:2; stroke-opacity:0.1; fill:none" points="
  829.356,1486.45 829.356,47.2441 
  "/>
<polyline clip-path="url(#clip392)" style="stroke:#000000; stroke-linecap:butt; stroke-linejoin:round; stroke-width:2; stroke-opacity:0.1; fill:none" points="
  1246.73,1486.45 1246.73,47.2441 
  "/>
<polyline clip-path="url(#clip392)" style="stroke:#000000; stroke-linecap:butt; stroke-linejoin:round; stroke-width:2; stroke-opacity:0.1; fill:none" points="
  1664.1,1486.45 1664.1,47.2441 
  "/>
<polyline clip-path="url(#clip392)" style="stroke:#000000; stroke-linecap:butt; stroke-linejoin:round; stroke-width:2; stroke-opacity:0.1; fill:none" points="
  2081.47,1486.45 2081.47,47.2441 
  "/>
<polyline clip-path="url(#clip390)" style="stroke:#000000; stroke-linecap:butt; stroke-linejoin:round; stroke-width:4; stroke-opacity:1; fill:none" points="
  140.696,1486.45 2352.76,1486.45 
  "/>
<polyline clip-path="url(#clip390)" style="stroke:#000000; stroke-linecap:butt; stroke-linejoin:round; stroke-width:4; stroke-opacity:1; fill:none" points="
  411.986,1486.45 411.986,1467.55 
  "/>
<polyline clip-path="url(#clip390)" style="stroke:#000000; stroke-linecap:butt; stroke-linejoin:round; stroke-width:4; stroke-opacity:1; fill:none" points="
  829.356,1486.45 829.356,1467.55 
  "/>
<polyline clip-path="url(#clip390)" style="stroke:#000000; stroke-linecap:butt; stroke-linejoin:round; stroke-width:4; stroke-opacity:1; fill:none" points="
  1246.73,1486.45 1246.73,1467.55 
  "/>
<polyline clip-path="url(#clip390)" style="stroke:#000000; stroke-linecap:butt; stroke-linejoin:round; stroke-width:4; stroke-opacity:1; fill:none" points="
  1664.1,1486.45 1664.1,1467.55 
  "/>
<polyline clip-path="url(#clip390)" style="stroke:#000000; stroke-linecap:butt; stroke-linejoin:round; stroke-width:4; stroke-opacity:1; fill:none" points="
  2081.47,1486.45 2081.47,1467.55 
  "/>
<path clip-path="url(#clip390)" d="M380.887 1532.02 L410.562 1532.02 L410.562 1535.95 L380.887 1535.95 L380.887 1532.02 Z" fill="#000000" fill-rule="evenodd" fill-opacity="1" /><path clip-path="url(#clip390)" d="M433.502 1518.36 L421.697 1536.81 L433.502 1536.81 L433.502 1518.36 M432.275 1514.29 L438.155 1514.29 L438.155 1536.81 L443.085 1536.81 L443.085 1540.7 L438.155 1540.7 L438.155 1548.85 L433.502 1548.85 L433.502 1540.7 L417.9 1540.7 L417.9 1536.19 L432.275 1514.29 Z" fill="#000000" fill-rule="evenodd" fill-opacity="1" /><path clip-path="url(#clip390)" d="M799.298 1532.02 L828.974 1532.02 L828.974 1535.95 L799.298 1535.95 L799.298 1532.02 Z" fill="#000000" fill-rule="evenodd" fill-opacity="1" /><path clip-path="url(#clip390)" d="M843.094 1544.91 L859.414 1544.91 L859.414 1548.85 L837.469 1548.85 L837.469 1544.91 Q840.131 1542.16 844.715 1537.53 Q849.321 1532.88 850.502 1531.53 Q852.747 1529.01 853.627 1527.27 Q854.529 1525.51 854.529 1523.82 Q854.529 1521.07 852.585 1519.33 Q850.664 1517.6 847.562 1517.6 Q845.363 1517.6 842.909 1518.36 Q840.478 1519.13 837.701 1520.68 L837.701 1515.95 Q840.525 1514.82 842.978 1514.24 Q845.432 1513.66 847.469 1513.66 Q852.84 1513.66 856.034 1516.35 Q859.228 1519.03 859.228 1523.52 Q859.228 1525.65 858.418 1527.57 Q857.631 1529.47 855.525 1532.07 Q854.946 1532.74 851.844 1535.95 Q848.742 1539.15 843.094 1544.91 Z" fill="#000000" fill-rule="evenodd" fill-opacity="1" /><path clip-path="url(#clip390)" d="M1246.73 1517.37 Q1243.11 1517.37 1241.29 1520.93 Q1239.48 1524.47 1239.48 1531.6 Q1239.48 1538.71 1241.29 1542.27 Q1243.11 1545.82 1246.73 1545.82 Q1250.36 1545.82 1252.17 1542.27 Q1253.99 1538.71 1253.99 1531.6 Q1253.99 1524.47 1252.17 1520.93 Q1250.36 1517.37 1246.73 1517.37 M1246.73 1513.66 Q1252.54 1513.66 1255.59 1518.27 Q1258.67 1522.85 1258.67 1531.6 Q1258.67 1540.33 1255.59 1544.94 Q1252.54 1549.52 1246.73 1549.52 Q1240.92 1549.52 1237.84 1544.94 Q1234.78 1540.33 1234.78 1531.6 Q1234.78 1522.85 1237.84 1518.27 Q1240.92 1513.66 1246.73 1513.66 Z" fill="#000000" fill-rule="evenodd" fill-opacity="1" /><path clip-path="url(#clip390)" d="M1658.75 1544.91 L1675.07 1544.91 L1675.07 1548.85 L1653.12 1548.85 L1653.12 1544.91 Q1655.79 1542.16 1660.37 1537.53 Q1664.98 1532.88 1666.16 1531.53 Q1668.4 1529.01 1669.28 1527.27 Q1670.18 1525.51 1670.18 1523.82 Q1670.18 1521.07 1668.24 1519.33 Q1666.32 1517.6 1663.22 1517.6 Q1661.02 1517.6 1658.56 1518.36 Q1656.13 1519.13 1653.35 1520.68 L1653.35 1515.95 Q1656.18 1514.82 1658.63 1514.24 Q1661.09 1513.66 1663.12 1513.66 Q1668.49 1513.66 1671.69 1516.35 Q1674.88 1519.03 1674.88 1523.52 Q1674.88 1525.65 1674.07 1527.57 Q1673.29 1529.47 1671.18 1532.07 Q1670.6 1532.74 1667.5 1535.95 Q1664.4 1539.15 1658.75 1544.91 Z" fill="#000000" fill-rule="evenodd" fill-opacity="1" /><path clip-path="url(#clip390)" d="M2084.47 1518.36 L2072.67 1536.81 L2084.47 1536.81 L2084.47 1518.36 M2083.25 1514.29 L2089.13 1514.29 L2089.13 1536.81 L2094.06 1536.81 L2094.06 1540.7 L2089.13 1540.7 L2089.13 1548.85 L2084.47 1548.85 L2084.47 1540.7 L2068.87 1540.7 L2068.87 1536.19 L2083.25 1514.29 Z" fill="#000000" fill-rule="evenodd" fill-opacity="1" /><polyline clip-path="url(#clip392)" style="stroke:#000000; stroke-linecap:butt; stroke-linejoin:round; stroke-width:2; stroke-opacity:0.1; fill:none" points="
  140.696,1446.28 2352.76,1446.28 
  "/>
<polyline clip-path="url(#clip392)" style="stroke:#000000; stroke-linecap:butt; stroke-linejoin:round; stroke-width:2; stroke-opacity:0.1; fill:none" points="
  140.696,1174.62 2352.76,1174.62 
  "/>
<polyline clip-path="url(#clip392)" style="stroke:#000000; stroke-linecap:butt; stroke-linejoin:round; stroke-width:2; stroke-opacity:0.1; fill:none" points="
  140.696,902.959 2352.76,902.959 
  "/>
<polyline clip-path="url(#clip392)" style="stroke:#000000; stroke-linecap:butt; stroke-linejoin:round; stroke-width:2; stroke-opacity:0.1; fill:none" points="
  140.696,631.298 2352.76,631.298 
  "/>
<polyline clip-path="url(#clip392)" style="stroke:#000000; stroke-linecap:butt; stroke-linejoin:round; stroke-width:2; stroke-opacity:0.1; fill:none" points="
  140.696,359.637 2352.76,359.637 
  "/>
<polyline clip-path="url(#clip392)" style="stroke:#000000; stroke-linecap:butt; stroke-linejoin:round; stroke-width:2; stroke-opacity:0.1; fill:none" points="
  140.696,87.9763 2352.76,87.9763 
  "/>
<polyline clip-path="url(#clip390)" style="stroke:#000000; stroke-linecap:butt; stroke-linejoin:round; stroke-width:4; stroke-opacity:1; fill:none" points="
  140.696,1486.45 140.696,47.2441 
  "/>
<polyline clip-path="url(#clip390)" style="stroke:#000000; stroke-linecap:butt; stroke-linejoin:round; stroke-width:4; stroke-opacity:1; fill:none" points="
  140.696,1446.28 159.593,1446.28 
  "/>
<polyline clip-path="url(#clip390)" style="stroke:#000000; stroke-linecap:butt; stroke-linejoin:round; stroke-width:4; stroke-opacity:1; fill:none" points="
  140.696,1174.62 159.593,1174.62 
  "/>
<polyline clip-path="url(#clip390)" style="stroke:#000000; stroke-linecap:butt; stroke-linejoin:round; stroke-width:4; stroke-opacity:1; fill:none" points="
  140.696,902.959 159.593,902.959 
  "/>
<polyline clip-path="url(#clip390)" style="stroke:#000000; stroke-linecap:butt; stroke-linejoin:round; stroke-width:4; stroke-opacity:1; fill:none" points="
  140.696,631.298 159.593,631.298 
  "/>
<polyline clip-path="url(#clip390)" style="stroke:#000000; stroke-linecap:butt; stroke-linejoin:round; stroke-width:4; stroke-opacity:1; fill:none" points="
  140.696,359.637 159.593,359.637 
  "/>
<polyline clip-path="url(#clip390)" style="stroke:#000000; stroke-linecap:butt; stroke-linejoin:round; stroke-width:4; stroke-opacity:1; fill:none" points="
  140.696,87.9763 159.593,87.9763 
  "/>
<path clip-path="url(#clip390)" d="M92.7512 1432.08 Q89.1401 1432.08 87.3114 1435.64 Q85.5058 1439.19 85.5058 1446.32 Q85.5058 1453.42 87.3114 1456.99 Q89.1401 1460.53 92.7512 1460.53 Q96.3854 1460.53 98.1909 1456.99 Q100.02 1453.42 100.02 1446.32 Q100.02 1439.19 98.1909 1435.64 Q96.3854 1432.08 92.7512 1432.08 M92.7512 1428.38 Q98.5613 1428.38 101.617 1432.98 Q104.696 1437.57 104.696 1446.32 Q104.696 1455.04 101.617 1459.65 Q98.5613 1464.23 92.7512 1464.23 Q86.941 1464.23 83.8623 1459.65 Q80.8068 1455.04 80.8068 1446.32 Q80.8068 1437.57 83.8623 1432.98 Q86.941 1428.38 92.7512 1428.38 Z" fill="#000000" fill-rule="evenodd" fill-opacity="1" /><path clip-path="url(#clip390)" d="M83.7929 1157.34 L102.149 1157.34 L102.149 1161.28 L88.0753 1161.28 L88.0753 1169.75 Q89.0938 1169.4 90.1123 1169.24 Q91.1308 1169.05 92.1493 1169.05 Q97.9363 1169.05 101.316 1172.22 Q104.696 1175.4 104.696 1180.81 Q104.696 1186.39 101.223 1189.49 Q97.7511 1192.57 91.4317 1192.57 Q89.2558 1192.57 86.9873 1192.2 Q84.7419 1191.83 82.3346 1191.09 L82.3346 1186.39 Q84.4179 1187.53 86.6401 1188.08 Q88.8623 1188.64 91.3391 1188.64 Q95.3437 1188.64 97.6817 1186.53 Q100.02 1184.42 100.02 1180.81 Q100.02 1177.2 97.6817 1175.09 Q95.3437 1172.99 91.3391 1172.99 Q89.4641 1172.99 87.5892 1173.41 Q85.7373 1173.82 83.7929 1174.7 L83.7929 1157.34 Z" fill="#000000" fill-rule="evenodd" fill-opacity="1" /><path clip-path="url(#clip390)" d="M53.3995 916.304 L61.0384 916.304 L61.0384 889.939 L52.7282 891.605 L52.7282 887.346 L60.9921 885.679 L65.668 885.679 L65.668 916.304 L73.3068 916.304 L73.3068 920.239 L53.3995 920.239 L53.3995 916.304 Z" fill="#000000" fill-rule="evenodd" fill-opacity="1" /><path clip-path="url(#clip390)" d="M92.7512 888.758 Q89.1401 888.758 87.3114 892.323 Q85.5058 895.864 85.5058 902.994 Q85.5058 910.101 87.3114 913.665 Q89.1401 917.207 92.7512 917.207 Q96.3854 917.207 98.1909 913.665 Q100.02 910.101 100.02 902.994 Q100.02 895.864 98.1909 892.323 Q96.3854 888.758 92.7512 888.758 M92.7512 885.054 Q98.5613 885.054 101.617 889.661 Q104.696 894.244 104.696 902.994 Q104.696 911.721 101.617 916.327 Q98.5613 920.911 92.7512 920.911 Q86.941 920.911 83.8623 916.327 Q80.8068 911.721 80.8068 902.994 Q80.8068 894.244 83.8623 889.661 Q86.941 885.054 92.7512 885.054 Z" fill="#000000" fill-rule="evenodd" fill-opacity="1" /><path clip-path="url(#clip390)" d="M54.3949 644.643 L62.0337 644.643 L62.0337 618.278 L53.7236 619.944 L53.7236 615.685 L61.9874 614.018 L66.6633 614.018 L66.6633 644.643 L74.3022 644.643 L74.3022 648.578 L54.3949 648.578 L54.3949 644.643 Z" fill="#000000" fill-rule="evenodd" fill-opacity="1" /><path clip-path="url(#clip390)" d="M83.7929 614.018 L102.149 614.018 L102.149 617.953 L88.0753 617.953 L88.0753 626.426 Q89.0938 626.078 90.1123 625.916 Q91.1308 625.731 92.1493 625.731 Q97.9363 625.731 101.316 628.903 Q104.696 632.074 104.696 637.49 Q104.696 643.069 101.223 646.171 Q97.7511 649.25 91.4317 649.25 Q89.2558 649.25 86.9873 648.879 Q84.7419 648.509 82.3346 647.768 L82.3346 643.069 Q84.4179 644.203 86.6401 644.759 Q88.8623 645.314 91.3391 645.314 Q95.3437 645.314 97.6817 643.208 Q100.02 641.102 100.02 637.49 Q100.02 633.879 97.6817 631.773 Q95.3437 629.666 91.3391 629.666 Q89.4641 629.666 87.5892 630.083 Q85.7373 630.5 83.7929 631.379 L83.7929 614.018 Z" fill="#000000" fill-rule="evenodd" fill-opacity="1" /><path clip-path="url(#clip390)" d="M56.6171 372.982 L72.9365 372.982 L72.9365 376.917 L50.9921 376.917 L50.9921 372.982 Q53.6541 370.228 58.2375 365.598 Q62.8439 360.945 64.0245 359.603 Q66.2698 357.079 67.1494 355.343 Q68.0522 353.584 68.0522 351.894 Q68.0522 349.14 66.1078 347.404 Q64.1865 345.667 61.0847 345.667 Q58.8856 345.667 56.4319 346.431 Q54.0014 347.195 51.2236 348.746 L51.2236 344.024 Q54.0477 342.89 56.5014 342.311 Q58.955 341.732 60.9921 341.732 Q66.3624 341.732 69.5568 344.417 Q72.7513 347.103 72.7513 351.593 Q72.7513 353.723 71.9411 355.644 Q71.1541 357.542 69.0476 360.135 Q68.4689 360.806 65.367 364.024 Q62.2652 367.218 56.6171 372.982 Z" fill="#000000" fill-rule="evenodd" fill-opacity="1" /><path clip-path="url(#clip390)" d="M92.7512 345.436 Q89.1401 345.436 87.3114 349.001 Q85.5058 352.542 85.5058 359.672 Q85.5058 366.778 87.3114 370.343 Q89.1401 373.885 92.7512 373.885 Q96.3854 373.885 98.1909 370.343 Q100.02 366.778 100.02 359.672 Q100.02 352.542 98.1909 349.001 Q96.3854 345.436 92.7512 345.436 M92.7512 341.732 Q98.5613 341.732 101.617 346.339 Q104.696 350.922 104.696 359.672 Q104.696 368.399 101.617 373.005 Q98.5613 377.589 92.7512 377.589 Q86.941 377.589 83.8623 373.005 Q80.8068 368.399 80.8068 359.672 Q80.8068 350.922 83.8623 346.339 Q86.941 341.732 92.7512 341.732 Z" fill="#000000" fill-rule="evenodd" fill-opacity="1" /><path clip-path="url(#clip390)" d="M57.6125 101.321 L73.9318 101.321 L73.9318 105.256 L51.9875 105.256 L51.9875 101.321 Q54.6495 98.5665 59.2328 93.9369 Q63.8393 89.2841 65.0198 87.9416 Q67.2652 85.4184 68.1448 83.6823 Q69.0476 81.9231 69.0476 80.2333 Q69.0476 77.4786 67.1032 75.7425 Q65.1819 74.0064 62.08 74.0064 Q59.881 74.0064 57.4273 74.7703 Q54.9967 75.5342 52.219 77.0851 L52.219 72.3629 Q55.043 71.2287 57.4967 70.65 Q59.9504 70.0713 61.9874 70.0713 Q67.3578 70.0713 70.5522 72.7565 Q73.7466 75.4416 73.7466 79.9323 Q73.7466 82.062 72.9365 83.9832 Q72.1494 85.8814 70.0429 88.474 Q69.4642 89.1453 66.3624 92.3628 Q63.2606 95.5573 57.6125 101.321 Z" fill="#000000" fill-rule="evenodd" fill-opacity="1" /><path clip-path="url(#clip390)" d="M83.7929 70.6963 L102.149 70.6963 L102.149 74.6314 L88.0753 74.6314 L88.0753 83.1036 Q89.0938 82.7564 90.1123 82.5944 Q91.1308 82.4092 92.1493 82.4092 Q97.9363 82.4092 101.316 85.5805 Q104.696 88.7517 104.696 94.1684 Q104.696 99.747 101.223 102.849 Q97.7511 105.928 91.4317 105.928 Q89.2558 105.928 86.9873 105.557 Q84.7419 105.187 82.3346 104.446 L82.3346 99.747 Q84.4179 100.881 86.6401 101.437 Q88.8623 101.992 91.3391 101.992 Q95.3437 101.992 97.6817 99.8859 Q100.02 97.7795 100.02 94.1684 Q100.02 90.5573 97.6817 88.4508 Q95.3437 86.3443 91.3391 86.3443 Q89.4641 86.3443 87.5892 86.761 Q85.7373 87.1777 83.7929 88.0573 L83.7929 70.6963 Z" fill="#000000" fill-rule="evenodd" fill-opacity="1" /><polyline clip-path="url(#clip392)" style="stroke:#009af9; stroke-linecap:butt; stroke-linejoin:round; stroke-width:4; stroke-opacity:1; fill:none" points="
  203.301,87.9763 245.89,196.595 288.479,300.689 331.067,400.256 373.656,495.298 416.245,585.814 458.834,671.804 501.422,753.269 544.011,830.207 586.6,902.62 
  629.189,970.507 671.777,1033.87 714.366,1092.7 756.955,1147.01 799.544,1196.8 842.132,1242.05 884.721,1282.79 927.31,1318.99 969.899,1350.67 1012.49,1377.83 
  1055.08,1400.46 1097.67,1418.56 1140.25,1432.14 1182.84,1441.19 1225.43,1445.72 1268.02,1445.72 1310.61,1441.19 1353.2,1432.14 1395.79,1418.56 1438.38,1400.46 
  1480.96,1377.83 1523.55,1350.67 1566.14,1318.99 1608.73,1282.79 1651.32,1242.05 1693.91,1196.8 1736.5,1147.01 1779.09,1092.7 1821.67,1033.87 1864.26,970.507 
  1906.85,902.62 1949.44,830.207 1992.03,753.269 2034.62,671.804 2077.21,585.814 2119.8,495.298 2162.38,400.256 2204.97,300.689 2247.56,196.595 2290.15,87.9763 
  
  "/>
<path clip-path="url(#clip390)" d="
M1980.81 198.898 L2279.02 198.898 L2279.02 95.2176 L1980.81 95.2176  Z
  " fill="#ffffff" fill-rule="evenodd" fill-opacity="1"/>
<polyline clip-path="url(#clip390)" style="stroke:#000000; stroke-linecap:butt; stroke-linejoin:round; stroke-width:4; stroke-opacity:1; fill:none" points="
  1980.81,198.898 2279.02,198.898 2279.02,95.2176 1980.81,95.2176 1980.81,198.898 
  "/>
<polyline clip-path="url(#clip390)" style="stroke:#009af9; stroke-linecap:butt; stroke-linejoin:round; stroke-width:4; stroke-opacity:1; fill:none" points="
  2005.38,147.058 2152.85,147.058 
  "/>
<path clip-path="url(#clip390)" d="M2191.28 166.745 Q2189.47 171.375 2187.76 172.787 Q2186.04 174.199 2183.17 174.199 L2179.77 174.199 L2179.77 170.634 L2182.27 170.634 Q2184.03 170.634 2185 169.8 Q2185.98 168.967 2187.16 165.865 L2187.92 163.921 L2177.43 138.412 L2181.95 138.412 L2190.05 158.689 L2198.15 138.412 L2202.66 138.412 L2191.28 166.745 Z" fill="#000000" fill-rule="evenodd" fill-opacity="1" /><path clip-path="url(#clip390)" d="M2209.96 160.402 L2217.6 160.402 L2217.6 134.037 L2209.29 135.703 L2209.29 131.444 L2217.55 129.778 L2222.22 129.778 L2222.22 160.402 L2229.86 160.402 L2229.86 164.338 L2209.96 164.338 L2209.96 160.402 Z" fill="#000000" fill-rule="evenodd" fill-opacity="1" /></svg>
