<?xml version="1.0" encoding="utf-8"?>
<svg xmlns="http://www.w3.org/2000/svg" xmlns:xlink="http://www.w3.org/1999/xlink" width="600" height="400" viewBox="0 0 2400 1600">
<defs>
  <clipPath id="clip150">
    <rect x="0" y="0" width="2400" height="1600"/>
  </clipPath>
</defs>
<path clip-path="url(#clip150)" d="
M0 1600 L2400 1600 L2400 0 L0 0  Z
  " fill="#ffffff" fill-rule="evenodd" fill-opacity="1"/>
<defs>
  <clipPath id="clip151">
    <rect x="480" y="0" width="1681" height="1600"/>
  </clipPath>
</defs>
<path clip-path="url(#clip150)" d="
M193.936 686.448 L2352.76 686.448 L2352.76 47.2441 L193.936 47.2441  Z
  " fill="#ffffff" fill-rule="evenodd" fill-opacity="1"/>
<defs>
  <clipPath id="clip152">
    <rect x="193" y="47" width="2160" height="640"/>
  </clipPath>
</defs>
<polyline clip-path="url(#clip152)" style="stroke:#000000; stroke-linecap:butt; stroke-linejoin:round; stroke-width:2; stroke-opacity:0.1; fill:none" points="
  255.035,686.448 255.035,47.2441 
  "/>
<polyline clip-path="url(#clip152)" style="stroke:#000000; stroke-linecap:butt; stroke-linejoin:round; stroke-width:2; stroke-opacity:0.1; fill:none" points="
  579.173,686.448 579.173,47.2441 
  "/>
<polyline clip-path="url(#clip152)" style="stroke:#000000; stroke-linecap:butt; stroke-linejoin:round; stroke-width:2; stroke-opacity:0.1; fill:none" points="
  903.312,686.448 903.312,47.2441 
  "/>
<polyline clip-path="url(#clip152)" style="stroke:#000000; stroke-linecap:butt; stroke-linejoin:round; stroke-width:2; stroke-opacity:0.1; fill:none" points="
  1227.45,686.448 1227.45,47.2441 
  "/>
<polyline clip-path="url(#clip152)" style="stroke:#000000; stroke-linecap:butt; stroke-linejoin:round; stroke-width:2; stroke-opacity:0.1; fill:none" points="
  1551.59,686.448 1551.59,47.2441 
  "/>
<polyline clip-path="url(#clip152)" style="stroke:#000000; stroke-linecap:butt; stroke-linejoin:round; stroke-width:2; stroke-opacity:0.1; fill:none" points="
  1875.73,686.448 1875.73,47.2441 
  "/>
<polyline clip-path="url(#clip152)" style="stroke:#000000; stroke-linecap:butt; stroke-linejoin:round; stroke-width:2; stroke-opacity:0.1; fill:none" points="
  2199.87,686.448 2199.87,47.2441 
  "/>
<polyline clip-path="url(#clip150)" style="stroke:#000000; stroke-linecap:butt; stroke-linejoin:round; stroke-width:4; stroke-opacity:1; fill:none" points="
  193.936,686.448 2352.76,686.448 
  "/>
<polyline clip-path="url(#clip150)" style="stroke:#000000; stroke-linecap:butt; stroke-linejoin:round; stroke-width:4; stroke-opacity:1; fill:none" points="
  255.035,686.448 255.035,667.55 
  "/>
<polyline clip-path="url(#clip150)" style="stroke:#000000; stroke-linecap:butt; stroke-linejoin:round; stroke-width:4; stroke-opacity:1; fill:none" points="
  579.173,686.448 579.173,667.55 
  "/>
<polyline clip-path="url(#clip150)" style="stroke:#000000; stroke-linecap:butt; stroke-linejoin:round; stroke-width:4; stroke-opacity:1; fill:none" points="
  903.312,686.448 903.312,667.55 
  "/>
<polyline clip-path="url(#clip150)" style="stroke:#000000; stroke-linecap:butt; stroke-linejoin:round; stroke-width:4; stroke-opacity:1; fill:none" points="
  1227.45,686.448 1227.45,667.55 
  "/>
<polyline clip-path="url(#clip150)" style="stroke:#000000; stroke-linecap:butt; stroke-linejoin:round; stroke-width:4; stroke-opacity:1; fill:none" points="
  1551.59,686.448 1551.59,667.55 
  "/>
<polyline clip-path="url(#clip150)" style="stroke:#000000; stroke-linecap:butt; stroke-linejoin:round; stroke-width:4; stroke-opacity:1; fill:none" points="
  1875.73,686.448 1875.73,667.55 
  "/>
<polyline clip-path="url(#clip150)" style="stroke:#000000; stroke-linecap:butt; stroke-linejoin:round; stroke-width:4; stroke-opacity:1; fill:none" points="
  2199.87,686.448 2199.87,667.55 
  "/>
<path clip-path="url(#clip150)" d="M255.035 717.367 Q251.424 717.367 249.595 720.931 Q247.789 724.473 247.789 731.603 Q247.789 738.709 249.595 742.274 Q251.424 745.815 255.035 745.815 Q258.669 745.815 260.474 742.274 Q262.303 738.709 262.303 731.603 Q262.303 724.473 260.474 720.931 Q258.669 717.367 255.035 717.367 M255.035 713.663 Q260.845 713.663 263.9 718.269 Q266.979 722.853 266.979 731.603 Q266.979 740.329 263.9 744.936 Q260.845 749.519 255.035 749.519 Q249.225 749.519 246.146 744.936 Q243.09 740.329 243.09 731.603 Q243.09 722.853 246.146 718.269 Q249.225 713.663 255.035 713.663 Z" fill="#000000" fill-rule="evenodd" fill-opacity="1" /><path clip-path="url(#clip150)" d="M569.555 744.913 L577.194 744.913 L577.194 718.547 L568.884 720.214 L568.884 715.955 L577.148 714.288 L581.824 714.288 L581.824 744.913 L589.463 744.913 L589.463 748.848 L569.555 748.848 L569.555 744.913 Z" fill="#000000" fill-rule="evenodd" fill-opacity="1" /><path clip-path="url(#clip150)" d="M897.965 744.913 L914.284 744.913 L914.284 748.848 L892.34 748.848 L892.34 744.913 Q895.002 742.158 899.585 737.528 Q904.191 732.876 905.372 731.533 Q907.617 729.01 908.497 727.274 Q909.4 725.515 909.4 723.825 Q909.4 721.07 907.455 719.334 Q905.534 717.598 902.432 717.598 Q900.233 717.598 897.779 718.362 Q895.349 719.126 892.571 720.677 L892.571 715.955 Q895.395 714.82 897.849 714.242 Q900.303 713.663 902.34 713.663 Q907.71 713.663 910.904 716.348 Q914.099 719.033 914.099 723.524 Q914.099 725.654 913.289 727.575 Q912.502 729.473 910.395 732.066 Q909.816 732.737 906.715 735.954 Q903.613 739.149 897.965 744.913 Z" fill="#000000" fill-rule="evenodd" fill-opacity="1" /><path clip-path="url(#clip150)" d="M1231.7 730.214 Q1235.05 730.931 1236.93 733.2 Q1238.83 735.468 1238.83 738.802 Q1238.83 743.917 1235.31 746.718 Q1231.79 749.519 1225.31 749.519 Q1223.13 749.519 1220.82 749.079 Q1218.53 748.663 1216.07 747.806 L1216.07 743.292 Q1218.02 744.427 1220.33 745.005 Q1222.65 745.584 1225.17 745.584 Q1229.57 745.584 1231.86 743.848 Q1234.17 742.112 1234.17 738.802 Q1234.17 735.746 1232.02 734.033 Q1229.89 732.297 1226.07 732.297 L1222.05 732.297 L1222.05 728.454 L1226.26 728.454 Q1229.71 728.454 1231.54 727.089 Q1233.36 725.7 1233.36 723.107 Q1233.36 720.445 1231.47 719.033 Q1229.59 717.598 1226.07 717.598 Q1224.15 717.598 1221.95 718.015 Q1219.75 718.431 1217.11 719.311 L1217.11 715.144 Q1219.78 714.404 1222.09 714.033 Q1224.43 713.663 1226.49 713.663 Q1231.81 713.663 1234.92 716.093 Q1238.02 718.501 1238.02 722.621 Q1238.02 725.492 1236.37 727.482 Q1234.73 729.45 1231.7 730.214 Z" fill="#000000" fill-rule="evenodd" fill-opacity="1" /><path clip-path="url(#clip150)" d="M1554.6 718.362 L1542.79 736.811 L1554.6 736.811 L1554.6 718.362 M1553.37 714.288 L1559.25 714.288 L1559.25 736.811 L1564.18 736.811 L1564.18 740.7 L1559.25 740.7 L1559.25 748.848 L1554.6 748.848 L1554.6 740.7 L1539 740.7 L1539 736.186 L1553.37 714.288 Z" fill="#000000" fill-rule="evenodd" fill-opacity="1" /><path clip-path="url(#clip150)" d="M1866.01 714.288 L1884.36 714.288 L1884.36 718.223 L1870.29 718.223 L1870.29 726.695 Q1871.31 726.348 1872.32 726.186 Q1873.34 726.001 1874.36 726.001 Q1880.15 726.001 1883.53 729.172 Q1886.91 732.343 1886.91 737.76 Q1886.91 743.339 1883.44 746.44 Q1879.96 749.519 1873.64 749.519 Q1871.47 749.519 1869.2 749.149 Q1866.95 748.778 1864.55 748.038 L1864.55 743.339 Q1866.63 744.473 1868.85 745.028 Q1871.07 745.584 1873.55 745.584 Q1877.56 745.584 1879.89 743.478 Q1882.23 741.371 1882.23 737.76 Q1882.23 734.149 1879.89 732.042 Q1877.56 729.936 1873.55 729.936 Q1871.68 729.936 1869.8 730.353 Q1867.95 730.769 1866.01 731.649 L1866.01 714.288 Z" fill="#000000" fill-rule="evenodd" fill-opacity="1" /><path clip-path="url(#clip150)" d="M2200.27 729.704 Q2197.12 729.704 2195.27 731.857 Q2193.44 734.01 2193.44 737.76 Q2193.44 741.487 2195.27 743.663 Q2197.12 745.815 2200.27 745.815 Q2203.42 745.815 2205.25 743.663 Q2207.1 741.487 2207.1 737.76 Q2207.1 734.01 2205.25 731.857 Q2203.42 729.704 2200.27 729.704 M2209.55 715.052 L2209.55 719.311 Q2207.79 718.478 2205.99 718.038 Q2204.21 717.598 2202.45 717.598 Q2197.82 717.598 2195.36 720.723 Q2192.93 723.848 2192.59 730.167 Q2193.95 728.154 2196.01 727.089 Q2198.07 726.001 2200.55 726.001 Q2205.76 726.001 2208.77 729.172 Q2211.8 732.32 2211.8 737.76 Q2211.8 743.084 2208.65 746.302 Q2205.5 749.519 2200.27 749.519 Q2194.28 749.519 2191.1 744.936 Q2187.93 740.329 2187.93 731.603 Q2187.93 723.408 2191.82 718.547 Q2195.71 713.663 2202.26 713.663 Q2204.02 713.663 2205.8 714.01 Q2207.61 714.357 2209.55 715.052 Z" fill="#000000" fill-rule="evenodd" fill-opacity="1" /><polyline clip-path="url(#clip152)" style="stroke:#000000; stroke-linecap:butt; stroke-linejoin:round; stroke-width:2; stroke-opacity:0.1; fill:none" points="
  193.936,668.358 2352.76,668.358 
  "/>
<polyline clip-path="url(#clip152)" style="stroke:#000000; stroke-linecap:butt; stroke-linejoin:round; stroke-width:2; stroke-opacity:0.1; fill:none" points="
  193.936,517.602 2352.76,517.602 
  "/>
<polyline clip-path="url(#clip152)" style="stroke:#000000; stroke-linecap:butt; stroke-linejoin:round; stroke-width:2; stroke-opacity:0.1; fill:none" points="
  193.936,366.846 2352.76,366.846 
  "/>
<polyline clip-path="url(#clip152)" style="stroke:#000000; stroke-linecap:butt; stroke-linejoin:round; stroke-width:2; stroke-opacity:0.1; fill:none" points="
  193.936,216.09 2352.76,216.09 
  "/>
<polyline clip-path="url(#clip152)" style="stroke:#000000; stroke-linecap:butt; stroke-linejoin:round; stroke-width:2; stroke-opacity:0.1; fill:none" points="
  193.936,65.3338 2352.76,65.3338 
  "/>
<polyline clip-path="url(#clip150)" style="stroke:#000000; stroke-linecap:butt; stroke-linejoin:round; stroke-width:4; stroke-opacity:1; fill:none" points="
  193.936,686.448 193.936,47.2441 
  "/>
<polyline clip-path="url(#clip150)" style="stroke:#000000; stroke-linecap:butt; stroke-linejoin:round; stroke-width:4; stroke-opacity:1; fill:none" points="
  193.936,668.358 212.834,668.358 
  "/>
<polyline clip-path="url(#clip150)" style="stroke:#000000; stroke-linecap:butt; stroke-linejoin:round; stroke-width:4; stroke-opacity:1; fill:none" points="
  193.936,517.602 212.834,517.602 
  "/>
<polyline clip-path="url(#clip150)" style="stroke:#000000; stroke-linecap:butt; stroke-linejoin:round; stroke-width:4; stroke-opacity:1; fill:none" points="
  193.936,366.846 212.834,366.846 
  "/>
<polyline clip-path="url(#clip150)" style="stroke:#000000; stroke-linecap:butt; stroke-linejoin:round; stroke-width:4; stroke-opacity:1; fill:none" points="
  193.936,216.09 212.834,216.09 
  "/>
<polyline clip-path="url(#clip150)" style="stroke:#000000; stroke-linecap:butt; stroke-linejoin:round; stroke-width:4; stroke-opacity:1; fill:none" points="
  193.936,65.3338 212.834,65.3338 
  "/>
<path clip-path="url(#clip150)" d="M50.9921 668.81 L80.6679 668.81 L80.6679 672.745 L50.9921 672.745 L50.9921 668.81 Z" fill="#000000" fill-rule="evenodd" fill-opacity="1" /><path clip-path="url(#clip150)" d="M91.5706 681.703 L99.2095 681.703 L99.2095 655.338 L90.8993 657.004 L90.8993 652.745 L99.1632 651.078 L103.839 651.078 L103.839 681.703 L111.478 681.703 L111.478 685.638 L91.5706 685.638 L91.5706 681.703 Z" fill="#000000" fill-rule="evenodd" fill-opacity="1" /><path clip-path="url(#clip150)" d="M120.922 679.759 L125.807 679.759 L125.807 685.638 L120.922 685.638 L120.922 679.759 Z" fill="#000000" fill-rule="evenodd" fill-opacity="1" /><path clip-path="url(#clip150)" d="M145.992 654.157 Q142.381 654.157 140.552 657.722 Q138.746 661.263 138.746 668.393 Q138.746 675.499 140.552 679.064 Q142.381 682.606 145.992 682.606 Q149.626 682.606 151.431 679.064 Q153.26 675.499 153.26 668.393 Q153.26 661.263 151.431 657.722 Q149.626 654.157 145.992 654.157 M145.992 650.453 Q151.802 650.453 154.857 655.06 Q157.936 659.643 157.936 668.393 Q157.936 677.12 154.857 681.726 Q151.802 686.31 145.992 686.31 Q140.181 686.31 137.103 681.726 Q134.047 677.12 134.047 668.393 Q134.047 659.643 137.103 655.06 Q140.181 650.453 145.992 650.453 Z" fill="#000000" fill-rule="evenodd" fill-opacity="1" /><path clip-path="url(#clip150)" d="M51.9875 518.054 L81.6633 518.054 L81.6633 521.989 L51.9875 521.989 L51.9875 518.054 Z" fill="#000000" fill-rule="evenodd" fill-opacity="1" /><path clip-path="url(#clip150)" d="M101.756 503.401 Q98.1447 503.401 96.316 506.966 Q94.5104 510.507 94.5104 517.637 Q94.5104 524.743 96.316 528.308 Q98.1447 531.85 101.756 531.85 Q105.39 531.85 107.196 528.308 Q109.024 524.743 109.024 517.637 Q109.024 510.507 107.196 506.966 Q105.39 503.401 101.756 503.401 M101.756 499.697 Q107.566 499.697 110.621 504.304 Q113.7 508.887 113.7 517.637 Q113.7 526.364 110.621 530.97 Q107.566 535.553 101.756 535.553 Q95.9456 535.553 92.8669 530.97 Q89.8114 526.364 89.8114 517.637 Q89.8114 508.887 92.8669 504.304 Q95.9456 499.697 101.756 499.697 Z" fill="#000000" fill-rule="evenodd" fill-opacity="1" /><path clip-path="url(#clip150)" d="M121.918 529.003 L126.802 529.003 L126.802 534.882 L121.918 534.882 L121.918 529.003 Z" fill="#000000" fill-rule="evenodd" fill-opacity="1" /><path clip-path="url(#clip150)" d="M137.033 500.322 L155.39 500.322 L155.39 504.257 L141.316 504.257 L141.316 512.729 Q142.334 512.382 143.353 512.22 Q144.371 512.035 145.39 512.035 Q151.177 512.035 154.556 515.206 Q157.936 518.378 157.936 523.794 Q157.936 529.373 154.464 532.475 Q150.992 535.553 144.672 535.553 Q142.496 535.553 140.228 535.183 Q137.982 534.813 135.575 534.072 L135.575 529.373 Q137.658 530.507 139.881 531.063 Q142.103 531.618 144.58 531.618 Q148.584 531.618 150.922 529.512 Q153.26 527.405 153.26 523.794 Q153.26 520.183 150.922 518.077 Q148.584 515.97 144.58 515.97 Q142.705 515.97 140.83 516.387 Q138.978 516.804 137.033 517.683 L137.033 500.322 Z" fill="#000000" fill-rule="evenodd" fill-opacity="1" /><path clip-path="url(#clip150)" d="M100.76 352.645 Q97.1493 352.645 95.3206 356.21 Q93.515 359.751 93.515 366.881 Q93.515 373.987 95.3206 377.552 Q97.1493 381.094 100.76 381.094 Q104.395 381.094 106.2 377.552 Q108.029 373.987 108.029 366.881 Q108.029 359.751 106.2 356.21 Q104.395 352.645 100.76 352.645 M100.76 348.941 Q106.571 348.941 109.626 353.547 Q112.705 358.131 112.705 366.881 Q112.705 375.608 109.626 380.214 Q106.571 384.797 100.76 384.797 Q94.9502 384.797 91.8715 380.214 Q88.816 375.608 88.816 366.881 Q88.816 358.131 91.8715 353.547 Q94.9502 348.941 100.76 348.941 Z" fill="#000000" fill-rule="evenodd" fill-opacity="1" /><path clip-path="url(#clip150)" d="M120.922 378.246 L125.807 378.246 L125.807 384.126 L120.922 384.126 L120.922 378.246 Z" fill="#000000" fill-rule="evenodd" fill-opacity="1" /><path clip-path="url(#clip150)" d="M145.992 352.645 Q142.381 352.645 140.552 356.21 Q138.746 359.751 138.746 366.881 Q138.746 373.987 140.552 377.552 Q142.381 381.094 145.992 381.094 Q149.626 381.094 151.431 377.552 Q153.26 373.987 153.26 366.881 Q153.26 359.751 151.431 356.21 Q149.626 352.645 145.992 352.645 M145.992 348.941 Q151.802 348.941 154.857 353.547 Q157.936 358.131 157.936 366.881 Q157.936 375.608 154.857 380.214 Q151.802 384.797 145.992 384.797 Q140.181 384.797 137.103 380.214 Q134.047 375.608 134.047 366.881 Q134.047 358.131 137.103 353.547 Q140.181 348.941 145.992 348.941 Z" fill="#000000" fill-rule="evenodd" fill-opacity="1" /><path clip-path="url(#clip150)" d="M101.756 201.889 Q98.1447 201.889 96.316 205.453 Q94.5104 208.995 94.5104 216.125 Q94.5104 223.231 96.316 226.796 Q98.1447 230.338 101.756 230.338 Q105.39 230.338 107.196 226.796 Q109.024 223.231 109.024 216.125 Q109.024 208.995 107.196 205.453 Q105.39 201.889 101.756 201.889 M101.756 198.185 Q107.566 198.185 110.621 202.791 Q113.7 207.375 113.7 216.125 Q113.7 224.851 110.621 229.458 Q107.566 234.041 101.756 234.041 Q95.9456 234.041 92.8669 229.458 Q89.8114 224.851 89.8114 216.125 Q89.8114 207.375 92.8669 202.791 Q95.9456 198.185 101.756 198.185 Z" fill="#000000" fill-rule="evenodd" fill-opacity="1" /><path clip-path="url(#clip150)" d="M121.918 227.49 L126.802 227.49 L126.802 233.37 L121.918 233.37 L121.918 227.49 Z" fill="#000000" fill-rule="evenodd" fill-opacity="1" /><path clip-path="url(#clip150)" d="M137.033 198.81 L155.39 198.81 L155.39 202.745 L141.316 202.745 L141.316 211.217 Q142.334 210.87 143.353 210.708 Q144.371 210.523 145.39 210.523 Q151.177 210.523 154.556 213.694 Q157.936 216.865 157.936 222.282 Q157.936 227.861 154.464 230.963 Q150.992 234.041 144.672 234.041 Q142.496 234.041 140.228 233.671 Q137.982 233.3 135.575 232.56 L135.575 227.861 Q137.658 228.995 139.881 229.55 Q142.103 230.106 144.58 230.106 Q148.584 230.106 150.922 228 Q153.26 225.893 153.26 222.282 Q153.26 218.671 150.922 216.564 Q148.584 214.458 144.58 214.458 Q142.705 214.458 140.83 214.875 Q138.978 215.291 137.033 216.171 L137.033 198.81 Z" fill="#000000" fill-rule="evenodd" fill-opacity="1" /><path clip-path="url(#clip150)" d="M91.5706 78.6786 L99.2095 78.6786 L99.2095 52.313 L90.8993 53.9797 L90.8993 49.7204 L99.1632 48.0538 L103.839 48.0538 L103.839 78.6786 L111.478 78.6786 L111.478 82.6138 L91.5706 82.6138 L91.5706 78.6786 Z" fill="#000000" fill-rule="evenodd" fill-opacity="1" /><path clip-path="url(#clip150)" d="M120.922 76.7342 L125.807 76.7342 L125.807 82.6138 L120.922 82.6138 L120.922 76.7342 Z" fill="#000000" fill-rule="evenodd" fill-opacity="1" /><path clip-path="url(#clip150)" d="M145.992 51.1325 Q142.381 51.1325 140.552 54.6973 Q138.746 58.2389 138.746 65.3685 Q138.746 72.4749 140.552 76.0397 Q142.381 79.5814 145.992 79.5814 Q149.626 79.5814 151.431 76.0397 Q153.26 72.4749 153.26 65.3685 Q153.26 58.2389 151.431 54.6973 Q149.626 51.1325 145.992 51.1325 M145.992 47.4288 Q151.802 47.4288 154.857 52.0352 Q157.936 56.6185 157.936 65.3685 Q157.936 74.0953 154.857 78.7018 Q151.802 83.2851 145.992 83.2851 Q140.181 83.2851 137.103 78.7018 Q134.047 74.0953 134.047 65.3685 Q134.047 56.6185 137.103 52.0352 Q140.181 47.4288 145.992 47.4288 Z" fill="#000000" fill-rule="evenodd" fill-opacity="1" /><polyline clip-path="url(#clip152)" style="stroke:#009af9; stroke-linecap:butt; stroke-linejoin:round; stroke-width:4; stroke-opacity:1; fill:none" points="
  255.035,366.846 265.269,357.328 275.503,347.819 285.738,338.329 295.972,328.868 306.206,319.444 316.44,310.068 326.675,300.748 336.909,291.494 347.143,282.315 
  357.378,273.221 367.612,264.22 377.846,255.321 388.08,246.533 398.315,237.866 408.549,229.327 418.783,220.924 429.018,212.668 439.252,204.565 449.486,196.624 
  459.72,188.852 469.955,181.258 480.189,173.849 490.423,166.633 500.657,159.615 510.892,152.805 521.126,146.208 531.36,139.83 541.595,133.68 551.829,127.761 
  562.063,122.081 572.297,116.645 582.532,111.458 592.766,106.526 603,101.853 613.235,97.4444 623.469,93.3044 633.703,89.437 643.937,85.8462 654.172,82.5355 
  664.406,79.5082 674.64,76.7673 684.875,74.3156 695.109,72.1555 705.343,70.2891 715.577,68.7183 725.812,67.4448 736.046,66.4696 746.28,65.7939 756.515,65.4183 
  766.749,65.3432 776.983,65.5686 787.217,66.0943 797.452,66.9198 807.686,68.0443 817.92,69.4667 828.155,71.1854 838.389,73.1989 848.623,75.5051 858.857,78.1018 
  869.092,80.9862 879.326,84.1556 889.56,87.6068 899.795,91.3364 910.029,95.3406 920.263,99.6154 930.497,104.157 940.732,108.96 950.966,114.02 961.2,119.332 
  971.435,124.891 981.669,130.691 991.903,136.726 1002.14,142.991 1012.37,149.479 1022.61,156.184 1032.84,163.099 1043.07,170.216 1053.31,177.53 1063.54,185.033 
  1073.78,192.716 1084.01,200.574 1094.25,208.597 1104.48,216.777 1114.71,225.108 1124.95,233.58 1135.18,242.184 1145.42,250.913 1155.65,259.757 1165.89,268.708 
  1176.12,277.757 1186.35,286.895 1196.59,296.112 1206.82,305.4 1217.06,314.749 1227.29,324.151 1237.53,333.594 1247.76,343.071 1257.99,352.572 1268.23,362.086 
  1278.46,371.606 1288.7,381.121 1298.93,390.621 1309.17,400.098 1319.4,409.542 1329.63,418.943 1339.87,428.292 1350.1,437.58 1360.34,446.797 1370.57,455.935 
  1380.81,464.984 1391.04,473.935 1401.27,482.779 1411.51,491.508 1421.74,500.113 1431.98,508.584 1442.21,516.915 1452.45,525.095 1462.68,533.118 1472.91,540.976 
  1483.15,548.659 1493.38,556.162 1503.62,563.476 1513.85,570.593 1524.09,577.508 1534.32,584.213 1544.55,590.701 1554.79,596.966 1565.02,603.001 1575.26,608.801 
  1585.49,614.36 1595.73,619.672 1605.96,624.732 1616.19,629.535 1626.43,634.077 1636.66,638.351 1646.9,642.356 1657.13,646.085 1667.37,649.536 1677.6,652.706 
  1687.83,655.59 1698.07,658.187 1708.3,660.493 1718.54,662.507 1728.77,664.225 1739.01,665.648 1749.24,666.772 1759.47,667.598 1769.71,668.123 1779.94,668.349 
  1790.18,668.274 1800.41,667.898 1810.65,667.222 1820.88,666.247 1831.11,664.974 1841.35,663.403 1851.58,661.537 1861.82,659.376 1872.05,656.925 1882.29,654.184 
  1892.52,651.157 1902.75,647.846 1912.99,644.255 1923.22,640.388 1933.46,636.248 1943.69,631.839 1953.93,627.166 1964.16,622.234 1974.39,617.047 1984.63,611.611 
  1994.86,605.931 2005.1,600.012 2015.33,593.862 2025.57,587.484 2035.8,580.887 2046.03,574.077 2056.27,567.06 2066.5,559.843 2076.74,552.434 2086.97,544.84 
  2097.21,537.068 2107.44,529.127 2117.67,521.024 2127.91,512.768 2138.14,504.366 2148.38,495.826 2158.61,487.159 2168.85,478.371 2179.08,469.472 2189.31,460.471 
  2199.55,451.377 2209.78,442.198 2220.02,432.944 2230.25,423.624 2240.49,414.248 2250.72,404.824 2260.95,395.363 2271.19,385.873 2281.42,376.364 2291.66,366.846 
  
  "/>
<polyline clip-path="url(#clip152)" style="stroke:#e26f46; stroke-linecap:butt; stroke-linejoin:round; stroke-width:4; stroke-opacity:1; fill:none" points="
  255.035,306.945 265.269,297.646 275.503,288.416 285.738,279.265 295.972,270.201 306.206,261.233 316.44,252.37 326.675,243.621 336.909,234.996 347.143,226.501 
  357.378,218.147 367.612,209.941 377.846,201.891 388.08,194.006 398.315,186.293 408.549,178.76 418.783,171.414 429.018,164.264 439.252,157.315 449.486,150.575 
  459.72,144.051 469.955,137.748 480.189,131.674 490.423,125.835 500.657,120.236 510.892,114.882 521.126,109.78 531.36,104.934 541.595,100.349 551.829,96.03 
  562.063,91.9807 572.297,88.2054 582.532,84.7079 592.766,81.4916 603,78.5597 613.235,75.9152 623.469,73.5607 633.703,71.4986 643.937,69.7309 654.172,68.2593 
  664.406,67.0854 674.64,66.2103 684.875,65.6349 695.109,65.3597 705.343,65.3851 715.577,65.711 725.812,66.337 736.046,67.2626 746.28,68.4868 756.515,70.0084 
  766.749,71.826 776.983,73.9376 787.217,76.3412 797.452,79.0343 807.686,82.0144 817.92,85.2784 828.155,88.8231 838.389,92.6449 848.623,96.74 858.857,101.104 
  869.092,105.734 879.326,110.623 889.56,115.768 899.795,121.163 910.029,126.804 920.263,132.683 930.497,138.796 940.732,145.136 950.966,151.697 961.2,158.473 
  971.435,165.456 981.669,172.64 991.903,180.018 1002.14,187.582 1012.37,195.325 1022.61,203.238 1032.84,211.315 1043.07,219.547 1053.31,227.925 1063.54,236.442 
  1073.78,245.089 1084.01,253.858 1094.25,262.739 1104.48,271.723 1114.71,280.803 1124.95,289.968 1135.18,299.21 1145.42,308.52 1155.65,317.888 1165.89,327.304 
  1176.12,336.76 1186.35,346.246 1196.59,355.752 1206.82,365.269 1217.06,374.788 1227.29,384.299 1237.53,393.793 1247.76,403.26 1257.99,412.69 1268.23,422.075 
  1278.46,431.405 1288.7,440.67 1298.93,449.862 1309.17,458.971 1319.4,467.988 1329.63,476.904 1339.87,485.711 1350.1,494.399 1360.34,502.96 1370.57,511.386 
  1380.81,519.667 1391.04,527.796 1401.27,535.764 1411.51,543.565 1421.74,551.189 1431.98,558.629 1442.21,565.878 1452.45,572.928 1462.68,579.774 1472.91,586.407 
  1483.15,592.821 1493.38,599.01 1503.62,604.967 1513.85,610.687 1524.09,616.164 1534.32,621.392 1544.55,626.367 1554.79,631.083 1565.02,635.536 1575.26,639.721 
  1585.49,643.633 1595.73,647.27 1605.96,650.628 1616.19,653.702 1626.43,656.491 1636.66,658.99 1646.9,661.199 1657.13,663.114 1667.37,664.734 1677.6,666.057 
  1687.83,667.082 1698.07,667.807 1708.3,668.232 1718.54,668.357 1728.77,668.182 1739.01,667.706 1749.24,666.93 1759.47,665.855 1769.71,664.482 1779.94,662.812 
  1790.18,660.847 1800.41,658.589 1810.65,656.04 1820.88,653.203 1831.11,650.081 1841.35,646.676 1851.58,642.992 1861.82,639.034 1872.05,634.803 1882.29,630.306 
  1892.52,625.546 1902.75,620.528 1912.99,615.257 1923.22,609.739 1933.46,603.978 1943.69,597.981 1953.93,591.754 1964.16,585.303 1974.39,578.633 1984.63,571.753 
  1994.86,564.668 2005.1,557.387 2015.33,549.915 2025.57,542.261 2035.8,534.432 2046.03,526.435 2056.27,518.28 2066.5,509.974 2076.74,501.525 2086.97,492.942 
  2097.21,484.233 2107.44,475.407 2117.67,466.473 2127.91,457.44 2138.14,448.316 2148.38,439.112 2158.61,429.835 2168.85,420.495 2179.08,411.102 2189.31,401.665 
  2199.55,392.193 2209.78,382.695 2220.02,373.182 2230.25,363.663 2240.49,354.147 2250.72,344.643 2260.95,335.162 2271.19,325.712 2281.42,316.303 2291.66,306.945 
  
  "/>
<polyline clip-path="url(#clip152)" style="stroke:#3da44d; stroke-linecap:butt; stroke-linejoin:round; stroke-width:4; stroke-opacity:1; fill:none" points="
  255.035,249.432 265.269,240.723 275.503,232.141 285.738,223.692 295.972,215.386 306.206,207.232 316.44,199.236 326.675,191.407 336.909,183.754 347.143,176.283 
  357.378,169.001 367.612,161.917 377.846,155.038 388.08,148.369 398.315,141.918 408.549,135.692 418.783,129.696 429.018,123.936 439.252,118.418 449.486,113.148 
  459.72,108.131 469.955,103.372 480.189,98.8753 490.423,94.6458 500.657,90.6877 510.892,87.0049 521.126,83.601 531.36,80.4795 541.595,77.6434 551.829,75.0956 
  562.063,72.8386 572.297,70.8747 582.532,69.2058 592.766,67.8336 603,66.7595 613.235,65.9845 623.469,65.5095 633.703,65.3348 643.937,65.4606 654.172,65.8869 
  664.406,66.6132 674.64,67.6387 684.875,68.9626 695.109,70.5833 705.343,72.4994 715.577,74.7089 725.812,77.2096 736.046,79.999 746.28,83.0743 756.515,86.4326 
  766.749,90.0703 776.983,93.9839 787.217,98.1696 797.452,102.623 807.686,107.34 817.92,112.315 828.155,117.545 838.389,123.022 848.623,128.743 858.857,134.701 
  869.092,140.891 879.326,147.306 889.56,153.939 899.795,160.785 910.029,167.836 920.263,175.086 930.497,182.527 940.732,190.151 950.966,197.952 961.2,205.921 
  971.435,214.05 981.669,222.332 991.903,230.758 1002.14,239.319 1012.37,248.008 1022.61,256.815 1032.84,265.732 1043.07,274.749 1053.31,283.859 1063.54,293.051 
  1073.78,302.316 1084.01,311.646 1094.25,321.031 1104.48,330.462 1114.71,339.929 1124.95,349.422 1135.18,358.933 1145.42,368.452 1155.65,377.97 1165.89,387.476 
  1176.12,396.962 1186.35,406.417 1196.59,415.834 1206.82,425.201 1217.06,434.51 1227.29,443.752 1237.53,452.917 1247.76,461.997 1257.99,470.981 1268.23,479.862 
  1278.46,488.63 1288.7,497.276 1298.93,505.793 1309.17,514.171 1319.4,522.402 1329.63,530.479 1339.87,538.392 1350.1,546.134 1360.34,553.697 1370.57,561.074 
  1380.81,568.258 1391.04,575.24 1401.27,582.015 1411.51,588.576 1421.74,594.915 1431.98,601.028 1442.21,606.906 1452.45,612.546 1462.68,617.94 1472.91,623.084 
  1483.15,627.973 1493.38,632.602 1503.62,636.965 1513.85,641.059 1524.09,644.88 1534.32,648.424 1544.55,651.687 1554.79,654.666 1565.02,657.359 1575.26,659.761 
  1585.49,661.872 1595.73,663.689 1605.96,665.209 1616.19,666.433 1626.43,667.357 1636.66,667.983 1646.9,668.307 1657.13,668.332 1667.37,668.056 1677.6,667.479 
  1687.83,666.603 1698.07,665.429 1708.3,663.956 1718.54,662.187 1728.77,660.124 1739.01,657.769 1749.24,655.124 1759.47,652.191 1769.71,648.974 1779.94,645.475 
  1790.18,641.699 1800.41,637.649 1810.65,633.329 1820.88,628.743 1831.11,623.896 1841.35,618.793 1851.58,613.439 1861.82,607.839 1872.05,601.999 1882.29,595.925 
  1892.52,589.622 1902.75,583.097 1912.99,576.356 1923.22,569.407 1933.46,562.255 1943.69,554.909 1953.93,547.375 1964.16,539.662 1974.39,531.776 1984.63,523.726 
  1994.86,515.519 2005.1,507.164 2015.33,498.67 2025.57,490.044 2035.8,481.295 2046.03,472.432 2056.27,463.464 2066.5,454.399 2076.74,445.247 2086.97,436.017 
  2097.21,426.718 2107.44,417.36 2117.67,407.951 2127.91,398.501 2138.14,389.019 2148.38,379.516 2158.61,370 2168.85,360.48 2179.08,350.967 2189.31,341.47 
  2199.55,331.998 2209.78,322.561 2220.02,313.168 2230.25,303.828 2240.49,294.552 2250.72,285.347 2260.95,276.224 2271.19,267.191 2281.42,258.257 2291.66,249.432 
  
  "/>
<polyline clip-path="url(#clip152)" style="stroke:#c271d2; stroke-linecap:butt; stroke-linejoin:round; stroke-width:4; stroke-opacity:1; fill:none" points="
  255.035,196.599 265.269,188.828 275.503,181.235 285.738,173.826 295.972,166.61 306.206,159.594 316.44,152.784 326.675,146.188 336.909,139.811 347.143,133.661 
  357.378,127.743 367.612,122.064 377.846,116.628 388.08,111.442 398.315,106.511 408.549,101.839 418.783,97.4312 429.018,93.292 439.252,89.4255 449.486,85.8355 
  459.72,82.5257 469.955,79.4993 480.189,76.7593 490.423,74.3084 500.657,72.1492 510.892,70.2838 521.126,68.7139 531.36,67.4413 541.595,66.4671 551.829,65.7923 
  562.063,65.4176 572.297,65.3434 582.532,65.5697 592.766,66.0964 603,66.9228 613.235,68.0483 623.469,69.4715 633.703,71.1912 643.937,73.2056 654.172,75.5127 
  664.406,78.1103 674.64,80.9956 684.875,84.1659 695.109,87.618 705.343,91.3484 715.577,95.3534 725.812,99.6291 736.046,104.171 746.28,108.975 756.515,114.036 
  766.749,119.349 776.983,124.908 787.217,130.709 797.452,136.745 807.686,143.011 817.92,149.5 828.155,156.205 838.389,163.12 848.623,170.239 858.857,177.553 
  869.092,185.056 879.326,192.74 889.56,200.598 899.795,208.622 910.029,216.803 920.263,225.134 930.497,233.606 940.732,242.211 950.966,250.94 961.2,259.785 
  971.435,268.736 981.669,277.785 991.903,286.923 1002.14,296.141 1012.37,305.429 1022.61,314.778 1032.84,324.18 1043.07,333.624 1053.31,343.1 1063.54,352.601 
  1073.78,362.116 1084.01,371.635 1094.25,381.15 1104.48,390.65 1114.71,400.127 1124.95,409.571 1135.18,418.972 1145.42,428.321 1155.65,437.608 1165.89,446.826 
  1176.12,455.963 1186.35,465.012 1196.59,473.962 1206.82,482.806 1217.06,491.535 1227.29,500.139 1237.53,508.61 1247.76,516.94 1257.99,525.12 1268.23,533.143 
  1278.46,541 1288.7,548.683 1298.93,556.185 1309.17,563.498 1319.4,570.615 1329.63,577.529 1339.87,584.233 1350.1,590.721 1360.34,596.985 1370.57,603.02 
  1380.81,608.819 1391.04,614.377 1401.27,619.688 1411.51,624.748 1421.74,629.55 1431.98,634.09 1442.21,638.364 1452.45,642.368 1462.68,646.096 1472.91,649.547 
  1483.15,652.715 1493.38,655.599 1503.62,658.195 1513.85,660.5 1524.09,662.512 1534.32,664.23 1544.55,665.652 1554.79,666.775 1565.02,667.6 1575.26,668.125 
  1585.49,668.349 1595.73,668.273 1605.96,667.896 1616.19,667.22 1626.43,666.244 1636.66,664.969 1646.9,663.398 1657.13,661.53 1667.37,659.369 1677.6,656.917 
  1687.83,654.175 1698.07,651.147 1708.3,647.835 1718.54,644.243 1728.77,640.375 1739.01,636.234 1749.24,631.825 1759.47,627.151 1769.71,622.218 1779.94,617.031 
  1790.18,611.594 1800.41,605.913 1810.65,599.994 1820.88,593.842 1831.11,587.464 1841.35,580.866 1851.58,574.055 1861.82,567.037 1872.05,559.82 1882.29,552.411 
  1892.52,544.816 1902.75,537.044 1912.99,529.102 1923.22,520.999 1933.46,512.742 1943.69,504.339 1953.93,495.8 1964.16,487.132 1974.39,478.344 1984.63,469.444 
  1994.86,460.443 2005.1,451.348 2015.33,442.169 2025.57,432.915 2035.8,423.595 2046.03,414.219 2056.27,404.795 2066.5,395.334 2076.74,385.844 2086.97,376.335 
  2097.21,366.817 2107.44,357.298 2117.67,347.789 2127.91,338.3 2138.14,328.838 2148.38,319.415 2158.61,310.039 2168.85,300.719 2179.08,291.466 2189.31,282.287 
  2199.55,273.193 2209.78,264.192 2220.02,255.294 2230.25,246.506 2240.49,237.839 2250.72,229.3 2260.95,220.899 2271.19,212.642 2281.42,204.54 2291.66,196.599 
  
  "/>
<path clip-path="url(#clip150)" d="
M1966.88 327.751 L2280.8 327.751 L2280.8 68.5509 L1966.88 68.5509  Z
  " fill="#ffffff" fill-rule="evenodd" fill-opacity="1"/>
<polyline clip-path="url(#clip150)" style="stroke:#000000; stroke-linecap:butt; stroke-linejoin:round; stroke-width:4; stroke-opacity:1; fill:none" points="
  1966.88,327.751 2280.8,327.751 2280.8,68.5509 1966.88,68.5509 1966.88,327.751 
  "/>
<polyline clip-path="url(#clip150)" style="stroke:#009af9; stroke-linecap:butt; stroke-linejoin:round; stroke-width:4; stroke-opacity:1; fill:none" points="
  1990.86,120.391 2134.78,120.391 
  "/>
<path clip-path="url(#clip150)" d="M2159.35 111.745 L2179.58 111.745 L2179.58 115.634 L2163.56 134.268 L2179.58 134.268 L2179.58 137.671 L2158.77 137.671 L2158.77 133.782 L2174.79 115.148 L2159.35 115.148 L2159.35 111.745 Z" fill="#000000" fill-rule="evenodd" fill-opacity="1" /><path clip-path="url(#clip150)" d="M2205.78 145.541 L2205.78 148.851 L2181.16 148.851 L2181.16 145.541 L2205.78 145.541 Z" fill="#000000" fill-rule="evenodd" fill-opacity="1" /><path clip-path="url(#clip150)" d="M2211.2 133.736 L2218.84 133.736 L2218.84 107.37 L2210.53 109.037 L2210.53 104.778 L2218.79 103.111 L2223.47 103.111 L2223.47 133.736 L2231.11 133.736 L2231.11 137.671 L2211.2 137.671 L2211.2 133.736 Z" fill="#000000" fill-rule="evenodd" fill-opacity="1" /><polyline clip-path="url(#clip150)" style="stroke:#e26f46; stroke-linecap:butt; stroke-linejoin:round; stroke-width:4; stroke-opacity:1; fill:none" points="
  1990.86,172.231 2134.78,172.231 
  "/>
<path clip-path="url(#clip150)" d="M2159.35 163.585 L2179.58 163.585 L2179.58 167.474 L2163.56 186.108 L2179.58 186.108 L2179.58 189.511 L2158.77 189.511 L2158.77 185.622 L2174.79 166.988 L2159.35 166.988 L2159.35 163.585 Z" fill="#000000" fill-rule="evenodd" fill-opacity="1" /><path clip-path="url(#clip150)" d="M2205.78 197.381 L2205.78 200.691 L2181.16 200.691 L2181.16 197.381 L2205.78 197.381 Z" fill="#000000" fill-rule="evenodd" fill-opacity="1" /><path clip-path="url(#clip150)" d="M2214.42 185.576 L2230.74 185.576 L2230.74 189.511 L2208.79 189.511 L2208.79 185.576 Q2211.46 182.821 2216.04 178.192 Q2220.65 173.539 2221.83 172.196 Q2224.07 169.673 2224.95 167.937 Q2225.85 166.178 2225.85 164.488 Q2225.85 161.733 2223.91 159.997 Q2221.99 158.261 2218.89 158.261 Q2216.69 158.261 2214.23 159.025 Q2211.8 159.789 2209.03 161.34 L2209.03 156.618 Q2211.85 155.483 2214.3 154.905 Q2216.76 154.326 2218.79 154.326 Q2224.16 154.326 2227.36 157.011 Q2230.55 159.696 2230.55 164.187 Q2230.55 166.317 2229.74 168.238 Q2228.96 170.136 2226.85 172.729 Q2226.27 173.4 2223.17 176.617 Q2220.07 179.812 2214.42 185.576 Z" fill="#000000" fill-rule="evenodd" fill-opacity="1" /><polyline clip-path="url(#clip150)" style="stroke:#3da44d; stroke-linecap:butt; stroke-linejoin:round; stroke-width:4; stroke-opacity:1; fill:none" points="
  1990.86,224.071 2134.78,224.071 
  "/>
<path clip-path="url(#clip150)" d="M2159.35 215.425 L2179.58 215.425 L2179.58 219.314 L2163.56 237.948 L2179.58 237.948 L2179.58 241.351 L2158.77 241.351 L2158.77 237.462 L2174.79 218.828 L2159.35 218.828 L2159.35 215.425 Z" fill="#000000" fill-rule="evenodd" fill-opacity="1" /><path clip-path="url(#clip150)" d="M2205.78 249.221 L2205.78 252.531 L2181.16 252.531 L2181.16 249.221 L2205.78 249.221 Z" fill="#000000" fill-rule="evenodd" fill-opacity="1" /><path clip-path="url(#clip150)" d="M2224.56 222.717 Q2227.91 223.434 2229.79 225.703 Q2231.69 227.971 2231.69 231.305 Q2231.69 236.42 2228.17 239.221 Q2224.65 242.022 2218.17 242.022 Q2215.99 242.022 2213.68 241.582 Q2211.39 241.166 2208.93 240.309 L2208.93 235.795 Q2210.88 236.93 2213.19 237.508 Q2215.51 238.087 2218.03 238.087 Q2222.43 238.087 2224.72 236.351 Q2227.03 234.615 2227.03 231.305 Q2227.03 228.249 2224.88 226.536 Q2222.75 224.8 2218.93 224.8 L2214.9 224.8 L2214.9 220.957 L2219.12 220.957 Q2222.57 220.957 2224.4 219.592 Q2226.22 218.203 2226.22 215.61 Q2226.22 212.948 2224.33 211.536 Q2222.45 210.101 2218.93 210.101 Q2217.01 210.101 2214.81 210.518 Q2212.61 210.934 2209.97 211.814 L2209.97 207.647 Q2212.64 206.907 2214.95 206.536 Q2217.29 206.166 2219.35 206.166 Q2224.67 206.166 2227.78 208.596 Q2230.88 211.004 2230.88 215.124 Q2230.88 217.995 2229.23 219.985 Q2227.59 221.953 2224.56 222.717 Z" fill="#000000" fill-rule="evenodd" fill-opacity="1" /><polyline clip-path="url(#clip150)" style="stroke:#c271d2; stroke-linecap:butt; stroke-linejoin:round; stroke-width:4; stroke-opacity:1; fill:none" points="
  1990.86,275.911 2134.78,275.911 
  "/>
<path clip-path="url(#clip150)" d="M2159.35 267.265 L2179.58 267.265 L2179.58 271.154 L2163.56 289.788 L2179.58 289.788 L2179.58 293.191 L2158.77 293.191 L2158.77 289.302 L2174.79 270.668 L2159.35 270.668 L2159.35 267.265 Z" fill="#000000" fill-rule="evenodd" fill-opacity="1" /><path clip-path="url(#clip150)" d="M2205.78 301.061 L2205.78 304.371 L2181.16 304.371 L2181.16 301.061 L2205.78 301.061 Z" fill="#000000" fill-rule="evenodd" fill-opacity="1" /><path clip-path="url(#clip150)" d="M2223.24 262.705 L2211.43 281.154 L2223.24 281.154 L2223.24 262.705 M2222.01 258.631 L2227.89 258.631 L2227.89 281.154 L2232.82 281.154 L2232.82 285.043 L2227.89 285.043 L2227.89 293.191 L2223.24 293.191 L2223.24 285.043 L2207.64 285.043 L2207.64 280.529 L2222.01 258.631 Z" fill="#000000" fill-rule="evenodd" fill-opacity="1" /><path clip-path="url(#clip150)" d="
M193.936 1486.45 L2352.76 1486.45 L2352.76 847.244 L193.936 847.244  Z
  " fill="#ffffff" fill-rule="evenodd" fill-opacity="1"/>
<defs>
  <clipPath id="clip153">
    <rect x="193" y="847" width="2160" height="640"/>
  </clipPath>
</defs>
<polyline clip-path="url(#clip153)" style="stroke:#000000; stroke-linecap:butt; stroke-linejoin:round; stroke-width:2; stroke-opacity:0.1; fill:none" points="
  255.035,1486.45 255.035,847.244 
  "/>
<polyline clip-path="url(#clip153)" style="stroke:#000000; stroke-linecap:butt; stroke-linejoin:round; stroke-width:2; stroke-opacity:0.1; fill:none" points="
  579.173,1486.45 579.173,847.244 
  "/>
<polyline clip-path="url(#clip153)" style="stroke:#000000; stroke-linecap:butt; stroke-linejoin:round; stroke-width:2; stroke-opacity:0.1; fill:none" points="
  903.312,1486.45 903.312,847.244 
  "/>
<polyline clip-path="url(#clip153)" style="stroke:#000000; stroke-linecap:butt; stroke-linejoin:round; stroke-width:2; stroke-opacity:0.1; fill:none" points="
  1227.45,1486.45 1227.45,847.244 
  "/>
<polyline clip-path="url(#clip153)" style="stroke:#000000; stroke-linecap:butt; stroke-linejoin:round; stroke-width:2; stroke-opacity:0.1; fill:none" points="
  1551.59,1486.45 1551.59,847.244 
  "/>
<polyline clip-path="url(#clip153)" style="stroke:#000000; stroke-linecap:butt; stroke-linejoin:round; stroke-width:2; stroke-opacity:0.1; fill:none" points="
  1875.73,1486.45 1875.73,847.244 
  "/>
<polyline clip-path="url(#clip153)" style="stroke:#000000; stroke-linecap:butt; stroke-linejoin:round; stroke-width:2; stroke-opacity:0.1; fill:none" points="
  2199.87,1486.45 2199.87,847.244 
  "/>
<polyline clip-path="url(#clip150)" style="stroke:#000000; stroke-linecap:butt; stroke-linejoin:round; stroke-width:4; stroke-opacity:1; fill:none" points="
  193.936,1486.45 2352.76,1486.45 
  "/>
<polyline clip-path="url(#clip150)" style="stroke:#000000; stroke-linecap:butt; stroke-linejoin:round; stroke-width:4; stroke-opacity:1; fill:none" points="
  255.035,1486.45 255.035,1467.55 
  "/>
<polyline clip-path="url(#clip150)" style="stroke:#000000; stroke-linecap:butt; stroke-linejoin:round; stroke-width:4; stroke-opacity:1; fill:none" points="
  579.173,1486.45 579.173,1467.55 
  "/>
<polyline clip-path="url(#clip150)" style="stroke:#000000; stroke-linecap:butt; stroke-linejoin:round; stroke-width:4; stroke-opacity:1; fill:none" points="
  903.312,1486.45 903.312,1467.55 
  "/>
<polyline clip-path="url(#clip150)" style="stroke:#000000; stroke-linecap:butt; stroke-linejoin:round; stroke-width:4; stroke-opacity:1; fill:none" points="
  1227.45,1486.45 1227.45,1467.55 
  "/>
<polyline clip-path="url(#clip150)" style="stroke:#000000; stroke-linecap:butt; stroke-linejoin:round; stroke-width:4; stroke-opacity:1; fill:none" points="
  1551.59,1486.45 1551.59,1467.55 
  "/>
<polyline clip-path="url(#clip150)" style="stroke:#000000; stroke-linecap:butt; stroke-linejoin:round; stroke-width:4; stroke-opacity:1; fill:none" points="
  1875.73,1486.45 1875.73,1467.55 
  "/>
<polyline clip-path="url(#clip150)" style="stroke:#000000; stroke-linecap:butt; stroke-linejoin:round; stroke-width:4; stroke-opacity:1; fill:none" points="
  2199.87,1486.45 2199.87,1467.55 
  "/>
<path clip-path="url(#clip150)" d="M255.035 1517.37 Q251.424 1517.37 249.595 1520.93 Q247.789 1524.47 247.789 1531.6 Q247.789 1538.71 249.595 1542.27 Q251.424 1545.82 255.035 1545.82 Q258.669 1545.82 260.474 1542.27 Q262.303 1538.71 262.303 1531.6 Q262.303 1524.47 260.474 1520.93 Q258.669 1517.37 255.035 1517.37 M255.035 1513.66 Q260.845 1513.66 263.9 1518.27 Q266.979 1522.85 266.979 1531.6 Q266.979 1540.33 263.9 1544.94 Q260.845 1549.52 255.035 1549.52 Q249.225 1549.52 246.146 1544.94 Q243.09 1540.33 243.09 1531.6 Q243.09 1522.85 246.146 1518.27 Q249.225 1513.66 255.035 1513.66 Z" fill="#000000" fill-rule="evenodd" fill-opacity="1" /><path clip-path="url(#clip150)" d="M569.555 1544.91 L577.194 1544.91 L577.194 1518.55 L568.884 1520.21 L568.884 1515.95 L577.148 1514.29 L581.824 1514.29 L581.824 1544.91 L589.463 1544.91 L589.463 1548.85 L569.555 1548.85 L569.555 1544.91 Z" fill="#000000" fill-rule="evenodd" fill-opacity="1" /><path clip-path="url(#clip150)" d="M897.965 1544.91 L914.284 1544.91 L914.284 1548.85 L892.34 1548.85 L892.34 1544.91 Q895.002 1542.16 899.585 1537.53 Q904.191 1532.88 905.372 1531.53 Q907.617 1529.01 908.497 1527.27 Q909.4 1525.51 909.4 1523.82 Q909.4 1521.07 907.455 1519.33 Q905.534 1517.6 902.432 1517.6 Q900.233 1517.6 897.779 1518.36 Q895.349 1519.13 892.571 1520.68 L892.571 1515.95 Q895.395 1514.82 897.849 1514.24 Q900.303 1513.66 902.34 1513.66 Q907.71 1513.66 910.904 1516.35 Q914.099 1519.03 914.099 1523.52 Q914.099 1525.65 913.289 1527.57 Q912.502 1529.47 910.395 1532.07 Q909.816 1532.74 906.715 1535.95 Q903.613 1539.15 897.965 1544.91 Z" fill="#000000" fill-rule="evenodd" fill-opacity="1" /><path clip-path="url(#clip150)" d="M1231.7 1530.21 Q1235.05 1530.93 1236.93 1533.2 Q1238.83 1535.47 1238.83 1538.8 Q1238.83 1543.92 1235.31 1546.72 Q1231.79 1549.52 1225.31 1549.52 Q1223.13 1549.52 1220.82 1549.08 Q1218.53 1548.66 1216.07 1547.81 L1216.07 1543.29 Q1218.02 1544.43 1220.33 1545.01 Q1222.65 1545.58 1225.17 1545.58 Q1229.57 1545.58 1231.86 1543.85 Q1234.17 1542.11 1234.17 1538.8 Q1234.17 1535.75 1232.02 1534.03 Q1229.89 1532.3 1226.07 1532.3 L1222.05 1532.3 L1222.05 1528.45 L1226.26 1528.45 Q1229.71 1528.45 1231.54 1527.09 Q1233.36 1525.7 1233.36 1523.11 Q1233.36 1520.45 1231.47 1519.03 Q1229.59 1517.6 1226.07 1517.6 Q1224.15 1517.6 1221.95 1518.01 Q1219.75 1518.43 1217.11 1519.31 L1217.11 1515.14 Q1219.78 1514.4 1222.09 1514.03 Q1224.43 1513.66 1226.49 1513.66 Q1231.81 1513.66 1234.92 1516.09 Q1238.02 1518.5 1238.02 1522.62 Q1238.02 1525.49 1236.37 1527.48 Q1234.73 1529.45 1231.7 1530.21 Z" fill="#000000" fill-rule="evenodd" fill-opacity="1" /><path clip-path="url(#clip150)" d="M1554.6 1518.36 L1542.79 1536.81 L1554.6 1536.81 L1554.6 1518.36 M1553.37 1514.29 L1559.25 1514.29 L1559.25 1536.81 L1564.18 1536.81 L1564.18 1540.7 L1559.25 1540.7 L1559.25 1548.85 L1554.6 1548.85 L1554.6 1540.7 L1539 1540.7 L1539 1536.19 L1553.37 1514.29 Z" fill="#000000" fill-rule="evenodd" fill-opacity="1" /><path clip-path="url(#clip150)" d="M1866.01 1514.29 L1884.36 1514.29 L1884.36 1518.22 L1870.29 1518.22 L1870.29 1526.7 Q1871.31 1526.35 1872.32 1526.19 Q1873.34 1526 1874.36 1526 Q1880.15 1526 1883.53 1529.17 Q1886.91 1532.34 1886.91 1537.76 Q1886.91 1543.34 1883.44 1546.44 Q1879.96 1549.52 1873.64 1549.52 Q1871.47 1549.52 1869.2 1549.15 Q1866.95 1548.78 1864.55 1548.04 L1864.55 1543.34 Q1866.63 1544.47 1868.85 1545.03 Q1871.07 1545.58 1873.55 1545.58 Q1877.56 1545.58 1879.89 1543.48 Q1882.23 1541.37 1882.23 1537.76 Q1882.23 1534.15 1879.89 1532.04 Q1877.56 1529.94 1873.55 1529.94 Q1871.68 1529.94 1869.8 1530.35 Q1867.95 1530.77 1866.01 1531.65 L1866.01 1514.29 Z" fill="#000000" fill-rule="evenodd" fill-opacity="1" /><path clip-path="url(#clip150)" d="M2200.27 1529.7 Q2197.12 1529.7 2195.27 1531.86 Q2193.44 1534.01 2193.44 1537.76 Q2193.44 1541.49 2195.27 1543.66 Q2197.12 1545.82 2200.27 1545.82 Q2203.42 1545.82 2205.25 1543.66 Q2207.1 1541.49 2207.1 1537.76 Q2207.1 1534.01 2205.25 1531.86 Q2203.42 1529.7 2200.27 1529.7 M2209.55 1515.05 L2209.55 1519.31 Q2207.79 1518.48 2205.99 1518.04 Q2204.21 1517.6 2202.45 1517.6 Q2197.82 1517.6 2195.36 1520.72 Q2192.93 1523.85 2192.59 1530.17 Q2193.95 1528.15 2196.01 1527.09 Q2198.07 1526 2200.55 1526 Q2205.76 1526 2208.77 1529.17 Q2211.8 1532.32 2211.8 1537.76 Q2211.8 1543.08 2208.65 1546.3 Q2205.5 1549.52 2200.27 1549.52 Q2194.28 1549.52 2191.1 1544.94 Q2187.93 1540.33 2187.93 1531.6 Q2187.93 1523.41 2191.82 1518.55 Q2195.71 1513.66 2202.26 1513.66 Q2204.02 1513.66 2205.8 1514.01 Q2207.61 1514.36 2209.55 1515.05 Z" fill="#000000" fill-rule="evenodd" fill-opacity="1" /><polyline clip-path="url(#clip153)" style="stroke:#000000; stroke-linecap:butt; stroke-linejoin:round; stroke-width:2; stroke-opacity:0.1; fill:none" points="
  193.936,1468.36 2352.76,1468.36 
  "/>
<polyline clip-path="url(#clip153)" style="stroke:#000000; stroke-linecap:butt; stroke-linejoin:round; stroke-width:2; stroke-opacity:0.1; fill:none" points="
  193.936,1317.6 2352.76,1317.6 
  "/>
<polyline clip-path="url(#clip153)" style="stroke:#000000; stroke-linecap:butt; stroke-linejoin:round; stroke-width:2; stroke-opacity:0.1; fill:none" points="
  193.936,1166.85 2352.76,1166.85 
  "/>
<polyline clip-path="url(#clip153)" style="stroke:#000000; stroke-linecap:butt; stroke-linejoin:round; stroke-width:2; stroke-opacity:0.1; fill:none" points="
  193.936,1016.09 2352.76,1016.09 
  "/>
<polyline clip-path="url(#clip153)" style="stroke:#000000; stroke-linecap:butt; stroke-linejoin:round; stroke-width:2; stroke-opacity:0.1; fill:none" points="
  193.936,865.335 2352.76,865.335 
  "/>
<polyline clip-path="url(#clip150)" style="stroke:#000000; stroke-linecap:butt; stroke-linejoin:round; stroke-width:4; stroke-opacity:1; fill:none" points="
  193.936,1486.45 193.936,847.244 
  "/>
<polyline clip-path="url(#clip150)" style="stroke:#000000; stroke-linecap:butt; stroke-linejoin:round; stroke-width:4; stroke-opacity:1; fill:none" points="
  193.936,1468.36 212.834,1468.36 
  "/>
<polyline clip-path="url(#clip150)" style="stroke:#000000; stroke-linecap:butt; stroke-linejoin:round; stroke-width:4; stroke-opacity:1; fill:none" points="
  193.936,1317.6 212.834,1317.6 
  "/>
<polyline clip-path="url(#clip150)" style="stroke:#000000; stroke-linecap:butt; stroke-linejoin:round; stroke-width:4; stroke-opacity:1; fill:none" points="
  193.936,1166.85 212.834,1166.85 
  "/>
<polyline clip-path="url(#clip150)" style="stroke:#000000; stroke-linecap:butt; stroke-linejoin:round; stroke-width:4; stroke-opacity:1; fill:none" points="
  193.936,1016.09 212.834,1016.09 
  "/>
<polyline clip-path="url(#clip150)" style="stroke:#000000; stroke-linecap:butt; stroke-linejoin:round; stroke-width:4; stroke-opacity:1; fill:none" points="
  193.936,865.335 212.834,865.335 
  "/>
<path clip-path="url(#clip150)" d="M50.9921 1468.81 L80.6679 1468.81 L80.6679 1472.75 L50.9921 1472.75 L50.9921 1468.81 Z" fill="#000000" fill-rule="evenodd" fill-opacity="1" /><path clip-path="url(#clip150)" d="M91.5706 1481.71 L99.2095 1481.71 L99.2095 1455.34 L90.8993 1457.01 L90.8993 1452.75 L99.1632 1451.08 L103.839 1451.08 L103.839 1481.71 L111.478 1481.71 L111.478 1485.64 L91.5706 1485.64 L91.5706 1481.71 Z" fill="#000000" fill-rule="evenodd" fill-opacity="1" /><path clip-path="url(#clip150)" d="M120.922 1479.76 L125.807 1479.76 L125.807 1485.64 L120.922 1485.64 L120.922 1479.76 Z" fill="#000000" fill-rule="evenodd" fill-opacity="1" /><path clip-path="url(#clip150)" d="M145.992 1454.16 Q142.381 1454.16 140.552 1457.72 Q138.746 1461.27 138.746 1468.4 Q138.746 1475.5 140.552 1479.07 Q142.381 1482.61 145.992 1482.61 Q149.626 1482.61 151.431 1479.07 Q153.26 1475.5 153.26 1468.4 Q153.26 1461.27 151.431 1457.72 Q149.626 1454.16 145.992 1454.16 M145.992 1450.46 Q151.802 1450.46 154.857 1455.06 Q157.936 1459.65 157.936 1468.4 Q157.936 1477.12 154.857 1481.73 Q151.802 1486.31 145.992 1486.31 Q140.181 1486.31 137.103 1481.73 Q134.047 1477.12 134.047 1468.4 Q134.047 1459.65 137.103 1455.06 Q140.181 1450.46 145.992 1450.46 Z" fill="#000000" fill-rule="evenodd" fill-opacity="1" /><path clip-path="url(#clip150)" d="M51.9875 1318.06 L81.6633 1318.06 L81.6633 1321.99 L51.9875 1321.99 L51.9875 1318.06 Z" fill="#000000" fill-rule="evenodd" fill-opacity="1" /><path clip-path="url(#clip150)" d="M101.756 1303.4 Q98.1447 1303.4 96.316 1306.97 Q94.5104 1310.51 94.5104 1317.64 Q94.5104 1324.75 96.316 1328.31 Q98.1447 1331.85 101.756 1331.85 Q105.39 1331.85 107.196 1328.31 Q109.024 1324.75 109.024 1317.64 Q109.024 1310.51 107.196 1306.97 Q105.39 1303.4 101.756 1303.4 M101.756 1299.7 Q107.566 1299.7 110.621 1304.31 Q113.7 1308.89 113.7 1317.64 Q113.7 1326.37 110.621 1330.97 Q107.566 1335.56 101.756 1335.56 Q95.9456 1335.56 92.8669 1330.97 Q89.8114 1326.37 89.8114 1317.64 Q89.8114 1308.89 92.8669 1304.31 Q95.9456 1299.7 101.756 1299.7 Z" fill="#000000" fill-rule="evenodd" fill-opacity="1" /><path clip-path="url(#clip150)" d="M121.918 1329.01 L126.802 1329.01 L126.802 1334.88 L121.918 1334.88 L121.918 1329.01 Z" fill="#000000" fill-rule="evenodd" fill-opacity="1" /><path clip-path="url(#clip150)" d="M137.033 1300.32 L155.39 1300.32 L155.39 1304.26 L141.316 1304.26 L141.316 1312.73 Q142.334 1312.38 143.353 1312.22 Q144.371 1312.04 145.39 1312.04 Q151.177 1312.04 154.556 1315.21 Q157.936 1318.38 157.936 1323.8 Q157.936 1329.38 154.464 1332.48 Q150.992 1335.56 144.672 1335.56 Q142.496 1335.56 140.228 1335.19 Q137.982 1334.82 135.575 1334.07 L135.575 1329.38 Q137.658 1330.51 139.881 1331.07 Q142.103 1331.62 144.58 1331.62 Q148.584 1331.62 150.922 1329.51 Q153.26 1327.41 153.26 1323.8 Q153.26 1320.19 150.922 1318.08 Q148.584 1315.97 144.58 1315.97 Q142.705 1315.97 140.83 1316.39 Q138.978 1316.81 137.033 1317.69 L137.033 1300.32 Z" fill="#000000" fill-rule="evenodd" fill-opacity="1" /><path clip-path="url(#clip150)" d="M100.76 1152.65 Q97.1493 1152.65 95.3206 1156.21 Q93.515 1159.75 93.515 1166.88 Q93.515 1173.99 95.3206 1177.55 Q97.1493 1181.1 100.76 1181.1 Q104.395 1181.1 106.2 1177.55 Q108.029 1173.99 108.029 1166.88 Q108.029 1159.75 106.2 1156.21 Q104.395 1152.65 100.76 1152.65 M100.76 1148.94 Q106.571 1148.94 109.626 1153.55 Q112.705 1158.13 112.705 1166.88 Q112.705 1175.61 109.626 1180.22 Q106.571 1184.8 100.76 1184.8 Q94.9502 1184.8 91.8715 1180.22 Q88.816 1175.61 88.816 1166.88 Q88.816 1158.13 91.8715 1153.55 Q94.9502 1148.94 100.76 1148.94 Z" fill="#000000" fill-rule="evenodd" fill-opacity="1" /><path clip-path="url(#clip150)" d="M120.922 1178.25 L125.807 1178.25 L125.807 1184.13 L120.922 1184.13 L120.922 1178.25 Z" fill="#000000" fill-rule="evenodd" fill-opacity="1" /><path clip-path="url(#clip150)" d="M145.992 1152.65 Q142.381 1152.65 140.552 1156.21 Q138.746 1159.75 138.746 1166.88 Q138.746 1173.99 140.552 1177.55 Q142.381 1181.1 145.992 1181.1 Q149.626 1181.1 151.431 1177.55 Q153.26 1173.99 153.26 1166.88 Q153.26 1159.75 151.431 1156.21 Q149.626 1152.65 145.992 1152.65 M145.992 1148.94 Q151.802 1148.94 154.857 1153.55 Q157.936 1158.13 157.936 1166.88 Q157.936 1175.61 154.857 1180.22 Q151.802 1184.8 145.992 1184.8 Q140.181 1184.8 137.103 1180.22 Q134.047 1175.61 134.047 1166.88 Q134.047 1158.13 137.103 1153.55 Q140.181 1148.94 145.992 1148.94 Z" fill="#000000" fill-rule="evenodd" fill-opacity="1" /><path clip-path="url(#clip150)" d="M101.756 1001.89 Q98.1447 1001.89 96.316 1005.45 Q94.5104 1009 94.5104 1016.13 Q94.5104 1023.23 96.316 1026.8 Q98.1447 1030.34 101.756 1030.34 Q105.39 1030.34 107.196 1026.8 Q109.024 1023.23 109.024 1016.13 Q109.024 1009 107.196 1005.45 Q105.39 1001.89 101.756 1001.89 M101.756 998.186 Q107.566 998.186 110.621 1002.79 Q113.7 1007.38 113.7 1016.13 Q113.7 1024.85 110.621 1029.46 Q107.566 1034.04 101.756 1034.04 Q95.9456 1034.04 92.8669 1029.46 Q89.8114 1024.85 89.8114 1016.13 Q89.8114 1007.38 92.8669 1002.79 Q95.9456 998.186 101.756 998.186 Z" fill="#000000" fill-rule="evenodd" fill-opacity="1" /><path clip-path="url(#clip150)" d="M121.918 1027.49 L126.802 1027.49 L126.802 1033.37 L121.918 1033.37 L121.918 1027.49 Z" fill="#000000" fill-rule="evenodd" fill-opacity="1" /><path clip-path="url(#clip150)" d="M137.033 998.811 L155.39 998.811 L155.39 1002.75 L141.316 1002.75 L141.316 1011.22 Q142.334 1010.87 143.353 1010.71 Q144.371 1010.52 145.39 1010.52 Q151.177 1010.52 154.556 1013.7 Q157.936 1016.87 157.936 1022.28 Q157.936 1027.86 154.464 1030.96 Q150.992 1034.04 144.672 1034.04 Q142.496 1034.04 140.228 1033.67 Q137.982 1033.3 135.575 1032.56 L135.575 1027.86 Q137.658 1029 139.881 1029.55 Q142.103 1030.11 144.58 1030.11 Q148.584 1030.11 150.922 1028 Q153.26 1025.89 153.26 1022.28 Q153.26 1018.67 150.922 1016.57 Q148.584 1014.46 144.58 1014.46 Q142.705 1014.46 140.83 1014.88 Q138.978 1015.29 137.033 1016.17 L137.033 998.811 Z" fill="#000000" fill-rule="evenodd" fill-opacity="1" /><path clip-path="url(#clip150)" d="M91.5706 878.68 L99.2095 878.68 L99.2095 852.314 L90.8993 853.981 L90.8993 849.721 L99.1632 848.055 L103.839 848.055 L103.839 878.68 L111.478 878.68 L111.478 882.615 L91.5706 882.615 L91.5706 878.68 Z" fill="#000000" fill-rule="evenodd" fill-opacity="1" /><path clip-path="url(#clip150)" d="M120.922 876.735 L125.807 876.735 L125.807 882.615 L120.922 882.615 L120.922 876.735 Z" fill="#000000" fill-rule="evenodd" fill-opacity="1" /><path clip-path="url(#clip150)" d="M145.992 851.133 Q142.381 851.133 140.552 854.698 Q138.746 858.24 138.746 865.369 Q138.746 872.476 140.552 876.041 Q142.381 879.582 145.992 879.582 Q149.626 879.582 151.431 876.041 Q153.26 872.476 153.26 865.369 Q153.26 858.24 151.431 854.698 Q149.626 851.133 145.992 851.133 M145.992 847.43 Q151.802 847.43 154.857 852.036 Q157.936 856.62 157.936 865.369 Q157.936 874.096 154.857 878.703 Q151.802 883.286 145.992 883.286 Q140.181 883.286 137.103 878.703 Q134.047 874.096 134.047 865.369 Q134.047 856.62 137.103 852.036 Q140.181 847.43 145.992 847.43 Z" fill="#000000" fill-rule="evenodd" fill-opacity="1" /><polyline clip-path="url(#clip153)" style="stroke:#009af9; stroke-linecap:butt; stroke-linejoin:round; stroke-width:4; stroke-opacity:1; fill:none" points="
  255.035,865.335 265.269,865.485 275.503,865.936 285.738,866.686 295.972,867.736 306.206,869.084 316.44,870.729 326.675,872.669 336.909,874.902 347.143,877.427 
  357.378,880.239 367.612,883.338 377.846,886.719 388.08,890.379 398.315,894.315 408.549,898.523 418.783,902.998 429.018,907.736 439.252,912.732 449.486,917.982 
  459.72,923.479 469.955,929.22 480.189,935.197 490.423,941.405 500.657,947.838 510.892,954.489 521.126,961.352 531.36,968.42 541.595,975.685 551.829,983.141 
  562.063,990.78 572.297,998.595 582.532,1006.58 592.766,1014.72 603,1023.01 613.235,1031.45 623.469,1040.02 633.703,1048.72 643.937,1057.54 654.172,1066.46 
  664.406,1075.49 674.64,1084.6 684.875,1093.8 695.109,1103.07 705.343,1112.41 715.577,1121.8 725.812,1131.23 736.046,1140.7 746.28,1150.2 756.515,1159.71 
  766.749,1169.23 776.983,1178.74 787.217,1188.25 797.452,1197.73 807.686,1207.19 817.92,1216.6 828.155,1225.96 838.389,1235.27 848.623,1244.5 858.857,1253.66 
  869.092,1262.73 879.326,1271.71 889.56,1280.58 899.795,1289.34 910.029,1297.98 920.263,1306.48 930.497,1314.85 940.732,1323.07 950.966,1331.13 961.2,1339.03 
  971.435,1346.76 981.669,1354.31 991.903,1361.67 1002.14,1368.84 1012.37,1375.8 1022.61,1382.56 1032.84,1389.1 1043.07,1395.42 1053.31,1401.52 1063.54,1407.38 
  1073.78,1413 1084.01,1418.37 1094.25,1423.49 1104.48,1428.36 1114.71,1432.97 1124.95,1437.31 1135.18,1441.38 1145.42,1445.18 1155.65,1448.7 1165.89,1451.94 
  1176.12,1454.9 1186.35,1457.57 1196.59,1459.95 1206.82,1462.03 1217.06,1463.83 1227.29,1465.32 1237.53,1466.52 1247.76,1467.42 1257.99,1468.02 1268.23,1468.32 
  1278.46,1468.32 1288.7,1468.02 1298.93,1467.42 1309.17,1466.52 1319.4,1465.32 1329.63,1463.83 1339.87,1462.03 1350.1,1459.95 1360.34,1457.57 1370.57,1454.9 
  1380.81,1451.94 1391.04,1448.7 1401.27,1445.18 1411.51,1441.38 1421.74,1437.31 1431.98,1432.97 1442.21,1428.36 1452.45,1423.49 1462.68,1418.37 1472.91,1413 
  1483.15,1407.38 1493.38,1401.52 1503.62,1395.42 1513.85,1389.1 1524.09,1382.56 1534.32,1375.8 1544.55,1368.84 1554.79,1361.67 1565.02,1354.31 1575.26,1346.76 
  1585.49,1339.03 1595.73,1331.13 1605.96,1323.07 1616.19,1314.85 1626.43,1306.48 1636.66,1297.98 1646.9,1289.34 1657.13,1280.58 1667.37,1271.71 1677.6,1262.73 
  1687.83,1253.66 1698.07,1244.5 1708.3,1235.27 1718.54,1225.96 1728.77,1216.6 1739.01,1207.19 1749.24,1197.73 1759.47,1188.25 1769.71,1178.74 1779.94,1169.23 
  1790.18,1159.71 1800.41,1150.2 1810.65,1140.7 1820.88,1131.23 1831.11,1121.8 1841.35,1112.41 1851.58,1103.07 1861.82,1093.8 1872.05,1084.6 1882.29,1075.49 
  1892.52,1066.46 1902.75,1057.54 1912.99,1048.72 1923.22,1040.02 1933.46,1031.45 1943.69,1023.01 1953.93,1014.72 1964.16,1006.58 1974.39,998.595 1984.63,990.78 
  1994.86,983.141 2005.1,975.685 2015.33,968.42 2025.57,961.352 2035.8,954.489 2046.03,947.838 2056.27,941.405 2066.5,935.197 2076.74,929.22 2086.97,923.479 
  2097.21,917.982 2107.44,912.732 2117.67,907.736 2127.91,902.998 2138.14,898.523 2148.38,894.315 2158.61,890.379 2168.85,886.719 2179.08,883.338 2189.31,880.239 
  2199.55,877.427 2209.78,874.902 2220.02,872.669 2230.25,870.729 2240.49,869.084 2250.72,867.736 2260.95,866.686 2271.19,865.936 2281.42,865.485 2291.66,865.335 
  
  "/>
<polyline clip-path="url(#clip153)" style="stroke:#e26f46; stroke-linecap:butt; stroke-linejoin:round; stroke-width:4; stroke-opacity:1; fill:none" points="
  255.035,871.345 265.269,873.383 275.503,875.714 285.738,878.335 295.972,881.244 306.206,884.437 316.44,887.912 326.675,891.665 336.909,895.692 347.143,899.989 
  357.378,904.553 367.612,909.378 377.846,914.459 388.08,919.793 398.315,925.372 408.549,931.192 418.783,937.247 429.018,943.531 439.252,950.038 449.486,956.761 
  459.72,963.693 469.955,970.827 480.189,978.157 490.423,985.675 500.657,993.374 510.892,1001.25 521.126,1009.28 531.36,1017.48 541.595,1025.82 551.829,1034.3 
  562.063,1042.92 572.297,1051.66 582.532,1060.51 592.766,1069.47 603,1078.53 613.235,1087.67 623.469,1096.9 633.703,1106.19 643.937,1115.54 654.172,1124.95 
  664.406,1134.39 674.64,1143.87 684.875,1153.38 695.109,1162.89 705.343,1172.41 715.577,1181.92 725.812,1191.42 736.046,1200.9 746.28,1210.34 756.515,1219.74 
  766.749,1229.08 776.983,1238.36 787.217,1247.57 797.452,1256.7 807.686,1265.75 817.92,1274.69 828.155,1283.52 838.389,1292.24 848.623,1300.83 858.857,1309.3 
  869.092,1317.61 879.326,1325.78 889.56,1333.79 899.795,1341.63 910.029,1349.3 920.263,1356.79 930.497,1364.09 940.732,1371.19 950.966,1378.08 961.2,1384.77 
  971.435,1391.24 981.669,1397.49 991.903,1403.5 1002.14,1409.28 1012.37,1414.82 1022.61,1420.11 1032.84,1425.15 1043.07,1429.93 1053.31,1434.45 1063.54,1438.7 
  1073.78,1442.68 1084.01,1446.39 1094.25,1449.82 1104.48,1452.96 1114.71,1455.82 1124.95,1458.4 1135.18,1460.68 1145.42,1462.67 1155.65,1464.36 1165.89,1465.76 
  1176.12,1466.86 1186.35,1467.66 1196.59,1468.16 1206.82,1468.36 1217.06,1468.26 1227.29,1467.86 1237.53,1467.15 1247.76,1466.15 1257.99,1464.86 1268.23,1463.26 
  1278.46,1461.37 1288.7,1459.18 1298.93,1456.71 1309.17,1453.94 1319.4,1450.89 1329.63,1447.56 1339.87,1443.94 1350.1,1440.05 1360.34,1435.89 1370.57,1431.46 
  1380.81,1426.76 1391.04,1421.81 1401.27,1416.6 1411.51,1411.14 1421.74,1405.44 1431.98,1399.51 1442.21,1393.33 1452.45,1386.94 1462.68,1380.32 1472.91,1373.5 
  1483.15,1366.46 1493.38,1359.23 1503.62,1351.8 1513.85,1344.19 1524.09,1336.41 1534.32,1328.45 1544.55,1320.34 1554.79,1312.07 1565.02,1303.65 1575.26,1295.1 
  1585.49,1286.42 1595.73,1277.63 1605.96,1268.72 1616.19,1259.71 1626.43,1250.61 1636.66,1241.42 1646.9,1232.16 1657.13,1222.84 1667.37,1213.46 1677.6,1204.03 
  1687.83,1194.57 1698.07,1185.07 1708.3,1175.56 1718.54,1166.04 1728.77,1156.53 1739.01,1147.02 1749.24,1137.53 1759.47,1128.07 1769.71,1118.65 1779.94,1109.28 
  1790.18,1099.97 1800.41,1090.72 1810.65,1081.55 1820.88,1072.46 1831.11,1063.47 1841.35,1054.58 1851.58,1045.8 1861.82,1037.14 1872.05,1028.61 1882.29,1020.22 
  1892.52,1011.98 1902.75,1003.89 1912.99,995.963 1923.22,988.206 1933.46,980.627 1943.69,973.234 1953.93,966.034 1964.16,959.034 1974.39,952.241 1984.63,945.662 
  1994.86,939.304 2005.1,933.172 2015.33,927.274 2025.57,921.614 2035.8,916.199 2046.03,911.033 2056.27,906.123 2066.5,901.472 2076.74,897.086 2086.97,892.969 
  2097.21,889.124 2107.44,885.557 2117.67,882.27 2127.91,879.267 2138.14,876.55 2148.38,874.123 2158.61,871.988 2168.85,870.146 2179.08,868.6 2189.31,867.352 
  2199.55,866.402 2209.78,865.752 2220.02,865.401 2230.25,865.352 2240.49,865.602 2250.72,866.153 2260.95,867.004 2271.19,868.154 2281.42,869.601 2291.66,871.345 
  
  "/>
<polyline clip-path="url(#clip153)" style="stroke:#3da44d; stroke-linecap:butt; stroke-linejoin:round; stroke-width:4; stroke-opacity:1; fill:none" points="
  255.035,889.136 265.269,892.981 275.503,897.099 285.738,901.486 295.972,906.137 306.206,911.049 316.44,916.215 326.675,921.631 336.909,927.292 347.143,933.191 
  357.378,939.323 367.612,945.682 377.846,952.262 388.08,959.055 398.315,966.056 408.549,973.257 418.783,980.65 429.018,988.23 439.252,995.987 449.486,1003.91 
  459.72,1012.01 469.955,1020.25 480.189,1028.64 490.423,1037.17 500.657,1045.83 510.892,1054.6 521.126,1063.49 531.36,1072.49 541.595,1081.57 551.829,1090.75 
  562.063,1100 572.297,1109.31 582.532,1118.68 592.766,1128.1 603,1137.56 613.235,1147.05 623.469,1156.56 633.703,1166.07 643.937,1175.59 654.172,1185.1 
  664.406,1194.59 674.64,1204.06 684.875,1213.49 695.109,1222.87 705.343,1232.19 715.577,1241.45 725.812,1250.64 736.046,1259.74 746.28,1268.75 756.515,1277.65 
  766.749,1286.45 776.983,1295.13 787.217,1303.68 797.452,1312.09 807.686,1320.36 817.92,1328.48 828.155,1336.43 838.389,1344.22 848.623,1351.83 858.857,1359.25 
  869.092,1366.48 879.326,1373.52 889.56,1380.34 899.795,1386.96 910.029,1393.35 920.263,1399.52 930.497,1405.46 940.732,1411.16 950.966,1416.62 961.2,1421.82 
  971.435,1426.78 981.669,1431.47 991.903,1435.9 1002.14,1440.06 1012.37,1443.95 1022.61,1447.57 1032.84,1450.9 1043.07,1453.95 1053.31,1456.72 1063.54,1459.19 
  1073.78,1461.38 1084.01,1463.27 1094.25,1464.86 1104.48,1466.16 1114.71,1467.16 1124.95,1467.86 1135.18,1468.26 1145.42,1468.36 1155.65,1468.16 1165.89,1467.65 
  1176.12,1466.85 1186.35,1465.75 1196.59,1464.36 1206.82,1462.66 1217.06,1460.67 1227.29,1458.39 1237.53,1455.82 1247.76,1452.95 1257.99,1449.81 1268.23,1446.38 
  1278.46,1442.67 1288.7,1438.69 1298.93,1434.44 1309.17,1429.92 1319.4,1425.14 1329.63,1420.1 1339.87,1414.8 1350.1,1409.26 1360.34,1403.48 1370.57,1397.47 
  1380.81,1391.22 1391.04,1384.75 1401.27,1378.06 1411.51,1371.17 1421.74,1364.06 1431.98,1356.77 1442.21,1349.28 1452.45,1341.61 1462.68,1333.77 1472.91,1325.76 
  1483.15,1317.59 1493.38,1309.27 1503.62,1300.81 1513.85,1292.21 1524.09,1283.5 1534.32,1274.66 1544.55,1265.72 1554.79,1256.68 1565.02,1247.55 1575.26,1238.33 
  1585.49,1229.05 1595.73,1219.71 1605.96,1210.31 1616.19,1200.87 1626.43,1191.39 1636.66,1181.9 1646.9,1172.38 1657.13,1162.86 1667.37,1153.35 1677.6,1143.84 
  1687.83,1134.37 1698.07,1124.92 1708.3,1115.51 1718.54,1106.16 1728.77,1096.87 1739.01,1087.64 1749.24,1078.5 1759.47,1069.44 1769.71,1060.48 1779.94,1051.63 
  1790.18,1042.89 1800.41,1034.28 1810.65,1025.79 1820.88,1017.45 1831.11,1009.26 1841.35,1001.22 1851.58,993.35 1861.82,985.652 1872.05,978.134 1882.29,970.805 
  1892.52,963.671 1902.75,956.739 1912.99,950.017 1923.22,943.511 1933.46,937.228 1943.69,931.174 1953.93,925.354 1964.16,919.776 1974.39,914.443 1984.63,909.362 
  1994.86,904.538 2005.1,899.976 2015.33,895.679 2025.57,891.653 2035.8,887.901 2046.03,884.427 2056.27,881.234 2066.5,878.327 2076.74,875.706 2086.97,873.376 
  2097.21,871.339 2107.44,869.596 2117.67,868.15 2127.91,867.001 2138.14,866.151 2148.38,865.601 2158.61,865.351 2168.85,865.402 2179.08,865.753 2189.31,866.405 
  2199.55,867.355 2209.78,868.605 2220.02,870.151 2230.25,871.994 2240.49,874.13 2250.72,876.558 2260.95,879.276 2271.19,882.28 2281.42,885.568 2291.66,889.136 
  
  "/>
<polyline clip-path="url(#clip153)" style="stroke:#c271d2; stroke-linecap:butt; stroke-linejoin:round; stroke-width:4; stroke-opacity:1; fill:none" points="
  255.035,917.998 265.269,923.497 275.503,929.238 285.738,935.216 295.972,941.425 306.206,947.858 316.44,954.51 326.675,961.374 336.909,968.442 347.143,975.708 
  357.378,983.164 367.612,990.804 377.846,998.619 388.08,1006.6 398.315,1014.74 408.549,1023.04 418.783,1031.48 429.018,1040.05 439.252,1048.75 449.486,1057.56 
  459.72,1066.49 469.955,1075.52 480.189,1084.63 490.423,1093.83 500.657,1103.1 510.892,1112.44 521.126,1121.83 531.36,1131.26 541.595,1140.73 551.829,1150.23 
  562.063,1159.74 572.297,1169.26 582.532,1178.77 592.766,1188.28 603,1197.76 613.235,1207.22 623.469,1216.63 633.703,1225.99 643.937,1235.3 654.172,1244.53 
  664.406,1253.69 674.64,1262.76 684.875,1271.74 695.109,1280.61 705.343,1289.37 715.577,1298 725.812,1306.51 736.046,1314.87 746.28,1323.09 756.515,1331.16 
  766.749,1339.05 776.983,1346.78 787.217,1354.33 797.452,1361.69 807.686,1368.86 817.92,1375.82 828.155,1382.58 838.389,1389.12 848.623,1395.44 858.857,1401.54 
  869.092,1407.39 879.326,1413.01 889.56,1418.39 899.795,1423.51 910.029,1428.38 920.263,1432.98 930.497,1437.32 940.732,1441.4 950.966,1445.19 961.2,1448.71 
  971.435,1451.95 981.669,1454.91 991.903,1457.58 1002.14,1459.95 1012.37,1462.04 1022.61,1463.83 1032.84,1465.33 1043.07,1466.53 1053.31,1467.42 1063.54,1468.02 
  1073.78,1468.32 1084.01,1468.32 1094.25,1468.02 1104.48,1467.42 1114.71,1466.52 1124.95,1465.32 1135.18,1463.82 1145.42,1462.03 1155.65,1459.94 1165.89,1457.56 
  1176.12,1454.89 1186.35,1451.93 1196.59,1448.69 1206.82,1445.17 1217.06,1441.37 1227.29,1437.3 1237.53,1432.96 1247.76,1428.35 1257.99,1423.48 1268.23,1418.35 
  1278.46,1412.98 1288.7,1407.36 1298.93,1401.5 1309.17,1395.4 1319.4,1389.08 1329.63,1382.54 1339.87,1375.78 1350.1,1368.81 1360.34,1361.65 1370.57,1354.28 
  1380.81,1346.73 1391.04,1339.01 1401.27,1331.11 1411.51,1323.04 1421.74,1314.82 1431.98,1306.46 1442.21,1297.95 1452.45,1289.31 1462.68,1280.55 1472.91,1271.68 
  1483.15,1262.7 1493.38,1253.63 1503.62,1244.47 1513.85,1235.24 1524.09,1225.93 1534.32,1216.57 1544.55,1207.16 1554.79,1197.7 1565.02,1188.22 1575.26,1178.72 
  1585.49,1169.2 1595.73,1159.68 1605.96,1150.17 1616.19,1140.67 1626.43,1131.2 1636.66,1121.77 1646.9,1112.38 1657.13,1103.05 1667.37,1093.77 1677.6,1084.58 
  1687.83,1075.46 1698.07,1066.43 1708.3,1057.51 1718.54,1048.69 1728.77,1040 1739.01,1031.42 1749.24,1022.99 1759.47,1014.69 1769.71,1006.55 1779.94,998.57 
  1790.18,990.756 1800.41,983.118 1810.65,975.662 1820.88,968.397 1831.11,961.33 1841.35,954.468 1851.58,947.818 1861.82,941.385 1872.05,935.178 1882.29,929.202 
  1892.52,923.462 1902.75,917.965 1912.99,912.716 1923.22,907.721 1933.46,902.983 1943.69,898.509 1953.93,894.302 1964.16,890.367 1974.39,886.708 1984.63,883.328 
  1994.86,880.23 2005.1,877.418 2015.33,874.895 2025.57,872.663 2035.8,870.723 2046.03,869.08 2056.27,867.732 2066.5,866.684 2076.74,865.934 2086.97,865.484 
  2097.21,865.335 2107.44,865.486 2117.67,865.938 2127.91,866.689 2138.14,867.74 2148.38,869.089 2158.61,870.735 2168.85,872.676 2179.08,874.91 2189.31,877.435 
  2199.55,880.248 2209.78,883.348 2220.02,886.73 2230.25,890.391 2240.49,894.328 2250.72,898.536 2260.95,903.012 2271.19,907.751 2281.42,912.748 2291.66,917.998 
  
  "/>
<path clip-path="url(#clip150)" d="
M1871.18 1127.75 L2280.8 1127.75 L2280.8 868.551 L1871.18 868.551  Z
  " fill="#ffffff" fill-rule="evenodd" fill-opacity="1"/>
<polyline clip-path="url(#clip150)" style="stroke:#000000; stroke-linecap:butt; stroke-linejoin:round; stroke-width:4; stroke-opacity:1; fill:none" points="
  1871.18,1127.75 2280.8,1127.75 2280.8,868.551 1871.18,868.551 1871.18,1127.75 
  "/>
<polyline clip-path="url(#clip150)" style="stroke:#009af9; stroke-linecap:butt; stroke-linejoin:round; stroke-width:4; stroke-opacity:1; fill:none" points="
  1895.17,920.391 2039.09,920.391 
  "/>
<path clip-path="url(#clip150)" d="M2081.99 915.68 L2081.99 901.653 L2086.25 901.653 L2086.25 937.671 L2081.99 937.671 L2081.99 933.782 Q2080.65 936.097 2078.59 937.231 Q2076.55 938.342 2073.68 938.342 Q2068.98 938.342 2066.02 934.592 Q2063.08 930.842 2063.08 924.731 Q2063.08 918.62 2066.02 914.87 Q2068.98 911.12 2073.68 911.12 Q2076.55 911.12 2078.59 912.254 Q2080.65 913.365 2081.99 915.68 M2067.48 924.731 Q2067.48 929.43 2069.4 932.115 Q2071.34 934.777 2074.72 934.777 Q2078.1 934.777 2080.04 932.115 Q2081.99 929.43 2081.99 924.731 Q2081.99 920.032 2080.04 917.37 Q2078.1 914.685 2074.72 914.685 Q2071.34 914.685 2069.4 917.37 Q2067.48 920.032 2067.48 924.731 Z" fill="#000000" fill-rule="evenodd" fill-opacity="1" /><path clip-path="url(#clip150)" d="M2093.17 911.745 L2113.4 911.745 L2113.4 915.634 L2097.38 934.268 L2113.4 934.268 L2113.4 937.671 L2092.59 937.671 L2092.59 933.782 L2108.61 915.148 L2093.17 915.148 L2093.17 911.745 Z" fill="#000000" fill-rule="evenodd" fill-opacity="1" /><path clip-path="url(#clip150)" d="M2139.6 945.541 L2139.6 948.851 L2114.97 948.851 L2114.97 945.541 L2139.6 945.541 Z" fill="#000000" fill-rule="evenodd" fill-opacity="1" /><path clip-path="url(#clip150)" d="M2145.02 933.736 L2152.66 933.736 L2152.66 907.37 L2144.35 909.037 L2144.35 904.778 L2152.61 903.111 L2157.29 903.111 L2157.29 933.736 L2164.93 933.736 L2164.93 937.671 L2145.02 937.671 L2145.02 933.736 Z" fill="#000000" fill-rule="evenodd" fill-opacity="1" /><path clip-path="url(#clip150)" d="M2181.34 903.111 L2185.28 903.111 L2173.24 942.069 L2169.3 942.069 L2181.34 903.111 Z" fill="#000000" fill-rule="evenodd" fill-opacity="1" /><path clip-path="url(#clip150)" d="M2206.8 915.68 L2206.8 901.653 L2211.06 901.653 L2211.06 937.671 L2206.8 937.671 L2206.8 933.782 Q2205.46 936.097 2203.4 937.231 Q2201.36 938.342 2198.49 938.342 Q2193.79 938.342 2190.83 934.592 Q2187.89 930.842 2187.89 924.731 Q2187.89 918.62 2190.83 914.87 Q2193.79 911.12 2198.49 911.12 Q2201.36 911.12 2203.4 912.254 Q2205.46 913.365 2206.8 915.68 M2192.29 924.731 Q2192.29 929.43 2194.21 932.115 Q2196.15 934.777 2199.53 934.777 Q2202.91 934.777 2204.86 932.115 Q2206.8 929.43 2206.8 924.731 Q2206.8 920.032 2204.86 917.37 Q2202.91 914.685 2199.53 914.685 Q2196.15 914.685 2194.21 917.37 Q2192.29 920.032 2192.29 924.731 Z" fill="#000000" fill-rule="evenodd" fill-opacity="1" /><path clip-path="url(#clip150)" d="M2224.05 904.384 L2224.05 911.745 L2232.82 911.745 L2232.82 915.055 L2224.05 915.055 L2224.05 929.129 Q2224.05 932.301 2224.9 933.203 Q2225.78 934.106 2228.45 934.106 L2232.82 934.106 L2232.82 937.671 L2228.45 937.671 Q2223.52 937.671 2221.64 935.842 Q2219.77 933.99 2219.77 929.129 L2219.77 915.055 L2216.64 915.055 L2216.64 911.745 L2219.77 911.745 L2219.77 904.384 L2224.05 904.384 Z" fill="#000000" fill-rule="evenodd" fill-opacity="1" /><polyline clip-path="url(#clip150)" style="stroke:#e26f46; stroke-linecap:butt; stroke-linejoin:round; stroke-width:4; stroke-opacity:1; fill:none" points="
  1895.17,972.231 2039.09,972.231 
  "/>
<path clip-path="url(#clip150)" d="M2081.99 967.52 L2081.99 953.493 L2086.25 953.493 L2086.25 989.511 L2081.99 989.511 L2081.99 985.622 Q2080.65 987.937 2078.59 989.071 Q2076.55 990.182 2073.68 990.182 Q2068.98 990.182 2066.02 986.432 Q2063.08 982.682 2063.08 976.571 Q2063.08 970.46 2066.02 966.71 Q2068.98 962.96 2073.68 962.96 Q2076.55 962.96 2078.59 964.094 Q2080.65 965.205 2081.99 967.52 M2067.48 976.571 Q2067.48 981.27 2069.4 983.955 Q2071.34 986.617 2074.72 986.617 Q2078.1 986.617 2080.04 983.955 Q2081.99 981.27 2081.99 976.571 Q2081.99 971.872 2080.04 969.21 Q2078.1 966.525 2074.72 966.525 Q2071.34 966.525 2069.4 969.21 Q2067.48 971.872 2067.48 976.571 Z" fill="#000000" fill-rule="evenodd" fill-opacity="1" /><path clip-path="url(#clip150)" d="M2093.17 963.585 L2113.4 963.585 L2113.4 967.474 L2097.38 986.108 L2113.4 986.108 L2113.4 989.511 L2092.59 989.511 L2092.59 985.622 L2108.61 966.988 L2093.17 966.988 L2093.17 963.585 Z" fill="#000000" fill-rule="evenodd" fill-opacity="1" /><path clip-path="url(#clip150)" d="M2139.6 997.381 L2139.6 1000.69 L2114.97 1000.69 L2114.97 997.381 L2139.6 997.381 Z" fill="#000000" fill-rule="evenodd" fill-opacity="1" /><path clip-path="url(#clip150)" d="M2148.24 985.576 L2164.56 985.576 L2164.56 989.511 L2142.61 989.511 L2142.61 985.576 Q2145.28 982.821 2149.86 978.192 Q2154.47 973.539 2155.65 972.196 Q2157.89 969.673 2158.77 967.937 Q2159.67 966.178 2159.67 964.488 Q2159.67 961.733 2157.73 959.997 Q2155.81 958.261 2152.71 958.261 Q2150.51 958.261 2148.05 959.025 Q2145.62 959.789 2142.85 961.34 L2142.85 956.618 Q2145.67 955.483 2148.12 954.905 Q2150.58 954.326 2152.61 954.326 Q2157.98 954.326 2161.18 957.011 Q2164.37 959.696 2164.37 964.187 Q2164.37 966.317 2163.56 968.238 Q2162.78 970.136 2160.67 972.729 Q2160.09 973.4 2156.99 976.617 Q2153.89 979.812 2148.24 985.576 Z" fill="#000000" fill-rule="evenodd" fill-opacity="1" /><path clip-path="url(#clip150)" d="M2181.34 954.951 L2185.28 954.951 L2173.24 993.909 L2169.3 993.909 L2181.34 954.951 Z" fill="#000000" fill-rule="evenodd" fill-opacity="1" /><path clip-path="url(#clip150)" d="M2206.8 967.52 L2206.8 953.493 L2211.06 953.493 L2211.06 989.511 L2206.8 989.511 L2206.8 985.622 Q2205.46 987.937 2203.4 989.071 Q2201.36 990.182 2198.49 990.182 Q2193.79 990.182 2190.83 986.432 Q2187.89 982.682 2187.89 976.571 Q2187.89 970.46 2190.83 966.71 Q2193.79 962.96 2198.49 962.96 Q2201.36 962.96 2203.4 964.094 Q2205.46 965.205 2206.8 967.52 M2192.29 976.571 Q2192.29 981.27 2194.21 983.955 Q2196.15 986.617 2199.53 986.617 Q2202.91 986.617 2204.86 983.955 Q2206.8 981.27 2206.8 976.571 Q2206.8 971.872 2204.86 969.21 Q2202.91 966.525 2199.53 966.525 Q2196.15 966.525 2194.21 969.21 Q2192.29 971.872 2192.29 976.571 Z" fill="#000000" fill-rule="evenodd" fill-opacity="1" /><path clip-path="url(#clip150)" d="M2224.05 956.224 L2224.05 963.585 L2232.82 963.585 L2232.82 966.895 L2224.05 966.895 L2224.05 980.969 Q2224.05 984.141 2224.9 985.043 Q2225.78 985.946 2228.45 985.946 L2232.82 985.946 L2232.82 989.511 L2228.45 989.511 Q2223.52 989.511 2221.64 987.682 Q2219.77 985.83 2219.77 980.969 L2219.77 966.895 L2216.64 966.895 L2216.64 963.585 L2219.77 963.585 L2219.77 956.224 L2224.05 956.224 Z" fill="#000000" fill-rule="evenodd" fill-opacity="1" /><polyline clip-path="url(#clip150)" style="stroke:#3da44d; stroke-linecap:butt; stroke-linejoin:round; stroke-width:4; stroke-opacity:1; fill:none" points="
  1895.17,1024.07 2039.09,1024.07 
  "/>
<path clip-path="url(#clip150)" d="M2081.99 1019.36 L2081.99 1005.33 L2086.25 1005.33 L2086.25 1041.35 L2081.99 1041.35 L2081.99 1037.46 Q2080.65 1039.78 2078.59 1040.91 Q2076.55 1042.02 2073.68 1042.02 Q2068.98 1042.02 2066.02 1038.27 Q2063.08 1034.52 2063.08 1028.41 Q2063.08 1022.3 2066.02 1018.55 Q2068.98 1014.8 2073.68 1014.8 Q2076.55 1014.8 2078.59 1015.93 Q2080.65 1017.05 2081.99 1019.36 M2067.48 1028.41 Q2067.48 1033.11 2069.4 1035.8 Q2071.34 1038.46 2074.72 1038.46 Q2078.1 1038.46 2080.04 1035.8 Q2081.99 1033.11 2081.99 1028.41 Q2081.99 1023.71 2080.04 1021.05 Q2078.1 1018.36 2074.72 1018.36 Q2071.34 1018.36 2069.4 1021.05 Q2067.48 1023.71 2067.48 1028.41 Z" fill="#000000" fill-rule="evenodd" fill-opacity="1" /><path clip-path="url(#clip150)" d="M2093.17 1015.43 L2113.4 1015.43 L2113.4 1019.31 L2097.38 1037.95 L2113.4 1037.95 L2113.4 1041.35 L2092.59 1041.35 L2092.59 1037.46 L2108.61 1018.83 L2093.17 1018.83 L2093.17 1015.43 Z" fill="#000000" fill-rule="evenodd" fill-opacity="1" /><path clip-path="url(#clip150)" d="M2139.6 1049.22 L2139.6 1052.53 L2114.97 1052.53 L2114.97 1049.22 L2139.6 1049.22 Z" fill="#000000" fill-rule="evenodd" fill-opacity="1" /><path clip-path="url(#clip150)" d="M2158.38 1022.72 Q2161.73 1023.43 2163.61 1025.7 Q2165.51 1027.97 2165.51 1031.3 Q2165.51 1036.42 2161.99 1039.22 Q2158.47 1042.02 2151.99 1042.02 Q2149.81 1042.02 2147.5 1041.58 Q2145.21 1041.17 2142.75 1040.31 L2142.75 1035.8 Q2144.7 1036.93 2147.01 1037.51 Q2149.33 1038.09 2151.85 1038.09 Q2156.25 1038.09 2158.54 1036.35 Q2160.85 1034.61 2160.85 1031.3 Q2160.85 1028.25 2158.7 1026.54 Q2156.57 1024.8 2152.75 1024.8 L2148.72 1024.8 L2148.72 1020.96 L2152.94 1020.96 Q2156.39 1020.96 2158.22 1019.59 Q2160.04 1018.2 2160.04 1015.61 Q2160.04 1012.95 2158.15 1011.54 Q2156.27 1010.1 2152.75 1010.1 Q2150.83 1010.1 2148.63 1010.52 Q2146.43 1010.93 2143.79 1011.81 L2143.79 1007.65 Q2146.46 1006.91 2148.77 1006.54 Q2151.11 1006.17 2153.17 1006.17 Q2158.49 1006.17 2161.59 1008.6 Q2164.7 1011 2164.7 1015.12 Q2164.7 1017.99 2163.05 1019.99 Q2161.41 1021.95 2158.38 1022.72 Z" fill="#000000" fill-rule="evenodd" fill-opacity="1" /><path clip-path="url(#clip150)" d="M2181.34 1006.79 L2185.28 1006.79 L2173.24 1045.75 L2169.3 1045.75 L2181.34 1006.79 Z" fill="#000000" fill-rule="evenodd" fill-opacity="1" /><path clip-path="url(#clip150)" d="M2206.8 1019.36 L2206.8 1005.33 L2211.06 1005.33 L2211.06 1041.35 L2206.8 1041.35 L2206.8 1037.46 Q2205.46 1039.78 2203.4 1040.91 Q2201.36 1042.02 2198.49 1042.02 Q2193.79 1042.02 2190.83 1038.27 Q2187.89 1034.52 2187.89 1028.41 Q2187.89 1022.3 2190.83 1018.55 Q2193.79 1014.8 2198.49 1014.8 Q2201.36 1014.8 2203.4 1015.93 Q2205.46 1017.05 2206.8 1019.36 M2192.29 1028.41 Q2192.29 1033.11 2194.21 1035.8 Q2196.15 1038.46 2199.53 1038.46 Q2202.91 1038.46 2204.86 1035.8 Q2206.8 1033.11 2206.8 1028.41 Q2206.8 1023.71 2204.86 1021.05 Q2202.91 1018.36 2199.53 1018.36 Q2196.15 1018.36 2194.21 1021.05 Q2192.29 1023.71 2192.29 1028.41 Z" fill="#000000" fill-rule="evenodd" fill-opacity="1" /><path clip-path="url(#clip150)" d="M2224.05 1008.06 L2224.05 1015.43 L2232.82 1015.43 L2232.82 1018.74 L2224.05 1018.74 L2224.05 1032.81 Q2224.05 1035.98 2224.9 1036.88 Q2225.78 1037.79 2228.45 1037.79 L2232.82 1037.79 L2232.82 1041.35 L2228.45 1041.35 Q2223.52 1041.35 2221.64 1039.52 Q2219.77 1037.67 2219.77 1032.81 L2219.77 1018.74 L2216.64 1018.74 L2216.64 1015.43 L2219.77 1015.43 L2219.77 1008.06 L2224.05 1008.06 Z" fill="#000000" fill-rule="evenodd" fill-opacity="1" /><polyline clip-path="url(#clip150)" style="stroke:#c271d2; stroke-linecap:butt; stroke-linejoin:round; stroke-width:4; stroke-opacity:1; fill:none" points="
  1895.17,1075.91 2039.09,1075.91 
  "/>
<path clip-path="url(#clip150)" d="M2081.99 1071.2 L2081.99 1057.17 L2086.25 1057.17 L2086.25 1093.19 L2081.99 1093.19 L2081.99 1089.3 Q2080.65 1091.62 2078.59 1092.75 Q2076.55 1093.86 2073.68 1093.86 Q2068.98 1093.86 2066.02 1090.11 Q2063.08 1086.36 2063.08 1080.25 Q2063.08 1074.14 2066.02 1070.39 Q2068.98 1066.64 2073.68 1066.64 Q2076.55 1066.64 2078.59 1067.77 Q2080.65 1068.89 2081.99 1071.2 M2067.48 1080.25 Q2067.48 1084.95 2069.4 1087.64 Q2071.34 1090.3 2074.72 1090.3 Q2078.1 1090.3 2080.04 1087.64 Q2081.99 1084.95 2081.99 1080.25 Q2081.99 1075.55 2080.04 1072.89 Q2078.1 1070.2 2074.72 1070.2 Q2071.34 1070.2 2069.4 1072.89 Q2067.48 1075.55 2067.48 1080.25 Z" fill="#000000" fill-rule="evenodd" fill-opacity="1" /><path clip-path="url(#clip150)" d="M2093.17 1067.27 L2113.4 1067.27 L2113.4 1071.15 L2097.38 1089.79 L2113.4 1089.79 L2113.4 1093.19 L2092.59 1093.19 L2092.59 1089.3 L2108.61 1070.67 L2093.17 1070.67 L2093.17 1067.27 Z" fill="#000000" fill-rule="evenodd" fill-opacity="1" /><path clip-path="url(#clip150)" d="M2139.6 1101.06 L2139.6 1104.37 L2114.97 1104.37 L2114.97 1101.06 L2139.6 1101.06 Z" fill="#000000" fill-rule="evenodd" fill-opacity="1" /><path clip-path="url(#clip150)" d="M2157.06 1062.7 L2145.25 1081.15 L2157.06 1081.15 L2157.06 1062.7 M2155.83 1058.63 L2161.71 1058.63 L2161.71 1081.15 L2166.64 1081.15 L2166.64 1085.04 L2161.71 1085.04 L2161.71 1093.19 L2157.06 1093.19 L2157.06 1085.04 L2141.46 1085.04 L2141.46 1080.53 L2155.83 1058.63 Z" fill="#000000" fill-rule="evenodd" fill-opacity="1" /><path clip-path="url(#clip150)" d="M2181.34 1058.63 L2185.28 1058.63 L2173.24 1097.59 L2169.3 1097.59 L2181.34 1058.63 Z" fill="#000000" fill-rule="evenodd" fill-opacity="1" /><path clip-path="url(#clip150)" d="M2206.8 1071.2 L2206.8 1057.17 L2211.06 1057.17 L2211.06 1093.19 L2206.8 1093.19 L2206.8 1089.3 Q2205.46 1091.62 2203.4 1092.75 Q2201.36 1093.86 2198.49 1093.86 Q2193.79 1093.86 2190.83 1090.11 Q2187.89 1086.36 2187.89 1080.25 Q2187.89 1074.14 2190.83 1070.39 Q2193.79 1066.64 2198.49 1066.64 Q2201.36 1066.64 2203.4 1067.77 Q2205.46 1068.89 2206.8 1071.2 M2192.29 1080.25 Q2192.29 1084.95 2194.21 1087.64 Q2196.15 1090.3 2199.53 1090.3 Q2202.91 1090.3 2204.86 1087.64 Q2206.8 1084.95 2206.8 1080.25 Q2206.8 1075.55 2204.86 1072.89 Q2202.91 1070.2 2199.53 1070.2 Q2196.15 1070.2 2194.21 1072.89 Q2192.29 1075.55 2192.29 1080.25 Z" fill="#000000" fill-rule="evenodd" fill-opacity="1" /><path clip-path="url(#clip150)" d="M2224.05 1059.9 L2224.05 1067.27 L2232.82 1067.27 L2232.82 1070.58 L2224.05 1070.58 L2224.05 1084.65 Q2224.05 1087.82 2224.9 1088.72 Q2225.78 1089.63 2228.45 1089.63 L2232.82 1089.63 L2232.82 1093.19 L2228.45 1093.19 Q2223.52 1093.19 2221.64 1091.36 Q2219.77 1089.51 2219.77 1084.65 L2219.77 1070.58 L2216.64 1070.58 L2216.64 1067.27 L2219.77 1067.27 L2219.77 1059.9 L2224.05 1059.9 Z" fill="#000000" fill-rule="evenodd" fill-opacity="1" /></svg>
