<?xml version="1.0" encoding="utf-8"?>
<svg xmlns="http://www.w3.org/2000/svg" xmlns:xlink="http://www.w3.org/1999/xlink" width="600" height="400" viewBox="0 0 2400 1600">
<defs>
  <clipPath id="clip070">
    <rect x="0" y="0" width="2400" height="1600"/>
  </clipPath>
</defs>
<path clip-path="url(#clip070)" d="
M0 1600 L2400 1600 L2400 0 L0 0  Z
  " fill="#ffffff" fill-rule="evenodd" fill-opacity="1"/>
<defs>
  <clipPath id="clip071">
    <rect x="480" y="0" width="1681" height="1600"/>
  </clipPath>
</defs>
<path clip-path="url(#clip070)" d="
M336.385 1349.74 L1429.58 1349.74 L1429.58 47.2441 L336.385 47.2441  Z
  " fill="#ffffff" fill-rule="evenodd" fill-opacity="1"/>
<defs>
  <clipPath id="clip072">
    <rect x="336" y="47" width="1094" height="1303"/>
  </clipPath>
</defs>
<polyline clip-path="url(#clip070)" style="stroke:#000000; stroke-linecap:butt; stroke-linejoin:round; stroke-width:4; stroke-opacity:1; fill:none" points="
  336.385,1349.74 1429.58,1349.74 
  "/>
<polyline clip-path="url(#clip070)" style="stroke:#000000; stroke-linecap:butt; stroke-linejoin:round; stroke-width:4; stroke-opacity:1; fill:none" points="
  367.324,1349.74 367.324,1330.84 
  "/>
<polyline clip-path="url(#clip070)" style="stroke:#000000; stroke-linecap:butt; stroke-linejoin:round; stroke-width:4; stroke-opacity:1; fill:none" points="
  625.153,1349.74 625.153,1330.84 
  "/>
<polyline clip-path="url(#clip070)" style="stroke:#000000; stroke-linecap:butt; stroke-linejoin:round; stroke-width:4; stroke-opacity:1; fill:none" points="
  882.982,1349.74 882.982,1330.84 
  "/>
<polyline clip-path="url(#clip070)" style="stroke:#000000; stroke-linecap:butt; stroke-linejoin:round; stroke-width:4; stroke-opacity:1; fill:none" points="
  1140.81,1349.74 1140.81,1330.84 
  "/>
<polyline clip-path="url(#clip070)" style="stroke:#000000; stroke-linecap:butt; stroke-linejoin:round; stroke-width:4; stroke-opacity:1; fill:none" points="
  1398.64,1349.74 1398.64,1330.84 
  "/>
<path clip-path="url(#clip070)" d="M282.507 1395.31 Q274.382 1395.31 270.267 1403.33 Q266.205 1411.3 266.205 1427.34 Q266.205 1443.33 270.267 1451.35 Q274.382 1459.32 282.507 1459.32 Q290.684 1459.32 294.746 1451.35 Q298.861 1443.33 298.861 1427.34 Q298.861 1411.3 294.746 1403.33 Q290.684 1395.31 282.507 1395.31 M282.507 1386.97 Q295.58 1386.97 302.455 1397.34 Q309.382 1407.65 309.382 1427.34 Q309.382 1446.97 302.455 1457.34 Q295.58 1467.65 282.507 1467.65 Q269.434 1467.65 262.507 1457.34 Q255.632 1446.97 255.632 1427.34 Q255.632 1407.65 262.507 1397.34 Q269.434 1386.97 282.507 1386.97 Z" fill="#000000" fill-rule="evenodd" fill-opacity="1" /><path clip-path="url(#clip070)" d="M327.871 1452.91 L338.861 1452.91 L338.861 1466.14 L327.871 1466.14 L327.871 1452.91 Z" fill="#000000" fill-rule="evenodd" fill-opacity="1" /><path clip-path="url(#clip070)" d="M384.277 1395.31 Q376.152 1395.31 372.038 1403.33 Q367.975 1411.3 367.975 1427.34 Q367.975 1443.33 372.038 1451.35 Q376.152 1459.32 384.277 1459.32 Q392.454 1459.32 396.517 1451.35 Q400.631 1443.33 400.631 1427.34 Q400.631 1411.3 396.517 1403.33 Q392.454 1395.31 384.277 1395.31 M384.277 1386.97 Q397.35 1386.97 404.225 1397.34 Q411.152 1407.65 411.152 1427.34 Q411.152 1446.97 404.225 1457.34 Q397.35 1467.65 384.277 1467.65 Q371.204 1467.65 364.277 1457.34 Q357.402 1446.97 357.402 1427.34 Q357.402 1407.65 364.277 1397.34 Q371.204 1386.97 384.277 1386.97 Z" fill="#000000" fill-rule="evenodd" fill-opacity="1" /><path clip-path="url(#clip070)" d="M452.141 1395.31 Q444.016 1395.31 439.902 1403.33 Q435.839 1411.3 435.839 1427.34 Q435.839 1443.33 439.902 1451.35 Q444.016 1459.32 452.141 1459.32 Q460.318 1459.32 464.381 1451.35 Q468.496 1443.33 468.496 1427.34 Q468.496 1411.3 464.381 1403.33 Q460.318 1395.31 452.141 1395.31 M452.141 1386.97 Q465.214 1386.97 472.089 1397.34 Q479.016 1407.65 479.016 1427.34 Q479.016 1446.97 472.089 1457.34 Q465.214 1467.65 452.141 1467.65 Q439.069 1467.65 432.142 1457.34 Q425.267 1446.97 425.267 1427.34 Q425.267 1407.65 432.142 1397.34 Q439.069 1386.97 452.141 1386.97 Z" fill="#000000" fill-rule="evenodd" fill-opacity="1" /><path clip-path="url(#clip070)" d="M541.455 1395.31 Q533.331 1395.31 529.216 1403.33 Q525.153 1411.3 525.153 1427.34 Q525.153 1443.33 529.216 1451.35 Q533.331 1459.32 541.455 1459.32 Q549.632 1459.32 553.695 1451.35 Q557.81 1443.33 557.81 1427.34 Q557.81 1411.3 553.695 1403.33 Q549.632 1395.31 541.455 1395.31 M541.455 1386.97 Q554.528 1386.97 561.403 1397.34 Q568.33 1407.65 568.33 1427.34 Q568.33 1446.97 561.403 1457.34 Q554.528 1467.65 541.455 1467.65 Q528.383 1467.65 521.456 1457.34 Q514.581 1446.97 514.581 1427.34 Q514.581 1407.65 521.456 1397.34 Q528.383 1386.97 541.455 1386.97 Z" fill="#000000" fill-rule="evenodd" fill-opacity="1" /><path clip-path="url(#clip070)" d="M586.82 1452.91 L597.809 1452.91 L597.809 1466.14 L586.82 1466.14 L586.82 1452.91 Z" fill="#000000" fill-rule="evenodd" fill-opacity="1" /><path clip-path="url(#clip070)" d="M629.788 1457.29 L666.507 1457.29 L666.507 1466.14 L617.132 1466.14 L617.132 1457.29 Q623.122 1451.09 633.434 1440.67 Q643.799 1430.2 646.455 1427.18 Q651.507 1421.5 653.486 1417.6 Q655.517 1413.64 655.517 1409.84 Q655.517 1403.64 651.142 1399.73 Q646.819 1395.83 639.84 1395.83 Q634.892 1395.83 629.372 1397.55 Q623.903 1399.27 617.653 1402.75 L617.653 1392.13 Q624.007 1389.58 629.528 1388.28 Q635.049 1386.97 639.632 1386.97 Q651.715 1386.97 658.903 1393.02 Q666.09 1399.06 666.09 1409.16 Q666.09 1413.95 664.267 1418.28 Q662.496 1422.55 657.757 1428.38 Q656.455 1429.89 649.476 1437.13 Q642.497 1444.32 629.788 1457.29 Z" fill="#000000" fill-rule="evenodd" fill-opacity="1" /><path clip-path="url(#clip070)" d="M688.694 1388.38 L729.996 1388.38 L729.996 1397.23 L698.33 1397.23 L698.33 1416.3 Q700.621 1415.52 702.913 1415.15 Q705.205 1414.73 707.496 1414.73 Q720.517 1414.73 728.121 1421.87 Q735.725 1429 735.725 1441.19 Q735.725 1453.74 727.913 1460.72 Q720.1 1467.65 705.882 1467.65 Q700.986 1467.65 695.882 1466.82 Q690.83 1465.98 685.413 1464.32 L685.413 1453.74 Q690.1 1456.3 695.1 1457.55 Q700.1 1458.8 705.673 1458.8 Q714.684 1458.8 719.944 1454.06 Q725.204 1449.32 725.204 1441.19 Q725.204 1433.07 719.944 1428.33 Q714.684 1423.59 705.673 1423.59 Q701.455 1423.59 697.236 1424.53 Q693.069 1425.46 688.694 1427.44 L688.694 1388.38 Z" fill="#000000" fill-rule="evenodd" fill-opacity="1" /><path clip-path="url(#clip070)" d="M798.164 1395.31 Q790.039 1395.31 785.925 1403.33 Q781.862 1411.3 781.862 1427.34 Q781.862 1443.33 785.925 1451.35 Q790.039 1459.32 798.164 1459.32 Q806.341 1459.32 810.404 1451.35 Q814.518 1443.33 814.518 1427.34 Q814.518 1411.3 810.404 1403.33 Q806.341 1395.31 798.164 1395.31 M798.164 1386.97 Q811.237 1386.97 818.112 1397.34 Q825.039 1407.65 825.039 1427.34 Q825.039 1446.97 818.112 1457.34 Q811.237 1467.65 798.164 1467.65 Q785.092 1467.65 778.165 1457.34 Q771.29 1446.97 771.29 1427.34 Q771.29 1407.65 778.165 1397.34 Q785.092 1386.97 798.164 1386.97 Z" fill="#000000" fill-rule="evenodd" fill-opacity="1" /><path clip-path="url(#clip070)" d="M843.529 1452.91 L854.518 1452.91 L854.518 1466.14 L843.529 1466.14 L843.529 1452.91 Z" fill="#000000" fill-rule="evenodd" fill-opacity="1" /><path clip-path="url(#clip070)" d="M877.539 1388.38 L918.841 1388.38 L918.841 1397.23 L887.174 1397.23 L887.174 1416.3 Q889.466 1415.52 891.758 1415.15 Q894.049 1414.73 896.341 1414.73 Q909.362 1414.73 916.966 1421.87 Q924.57 1429 924.57 1441.19 Q924.57 1453.74 916.758 1460.72 Q908.945 1467.65 894.726 1467.65 Q889.831 1467.65 884.726 1466.82 Q879.674 1465.98 874.258 1464.32 L874.258 1453.74 Q878.945 1456.3 883.945 1457.55 Q888.945 1458.8 894.518 1458.8 Q903.528 1458.8 908.789 1454.06 Q914.049 1449.32 914.049 1441.19 Q914.049 1433.07 908.789 1428.33 Q903.528 1423.59 894.518 1423.59 Q890.299 1423.59 886.081 1424.53 Q881.914 1425.46 877.539 1427.44 L877.539 1388.38 Z" fill="#000000" fill-rule="evenodd" fill-opacity="1" /><path clip-path="url(#clip070)" d="M967.799 1395.31 Q959.674 1395.31 955.559 1403.33 Q951.497 1411.3 951.497 1427.34 Q951.497 1443.33 955.559 1451.35 Q959.674 1459.32 967.799 1459.32 Q975.976 1459.32 980.038 1451.35 Q984.153 1443.33 984.153 1427.34 Q984.153 1411.3 980.038 1403.33 Q975.976 1395.31 967.799 1395.31 M967.799 1386.97 Q980.872 1386.97 987.747 1397.34 Q994.674 1407.65 994.674 1427.34 Q994.674 1446.97 987.747 1457.34 Q980.872 1467.65 967.799 1467.65 Q954.726 1467.65 947.799 1457.34 Q940.924 1446.97 940.924 1427.34 Q940.924 1407.65 947.799 1397.34 Q954.726 1386.97 967.799 1386.97 Z" fill="#000000" fill-rule="evenodd" fill-opacity="1" /><path clip-path="url(#clip070)" d="M1057.11 1395.31 Q1048.99 1395.31 1044.87 1403.33 Q1040.81 1411.3 1040.81 1427.34 Q1040.81 1443.33 1044.87 1451.35 Q1048.99 1459.32 1057.11 1459.32 Q1065.29 1459.32 1069.35 1451.35 Q1073.47 1443.33 1073.47 1427.34 Q1073.47 1411.3 1069.35 1403.33 Q1065.29 1395.31 1057.11 1395.31 M1057.11 1386.97 Q1070.19 1386.97 1077.06 1397.34 Q1083.99 1407.65 1083.99 1427.34 Q1083.99 1446.97 1077.06 1457.34 Q1070.19 1467.65 1057.11 1467.65 Q1044.04 1467.65 1037.11 1457.34 Q1030.24 1446.97 1030.24 1427.34 Q1030.24 1407.65 1037.11 1397.34 Q1044.04 1386.97 1057.11 1386.97 Z" fill="#000000" fill-rule="evenodd" fill-opacity="1" /><path clip-path="url(#clip070)" d="M1102.48 1452.91 L1113.47 1452.91 L1113.47 1466.14 L1102.48 1466.14 L1102.48 1452.91 Z" fill="#000000" fill-rule="evenodd" fill-opacity="1" /><path clip-path="url(#clip070)" d="M1133.73 1388.38 L1183.73 1388.38 L1183.73 1392.86 L1155.5 1466.14 L1144.51 1466.14 L1171.07 1397.23 L1133.73 1397.23 L1133.73 1388.38 Z" fill="#000000" fill-rule="evenodd" fill-opacity="1" /><path clip-path="url(#clip070)" d="M1204.35 1388.38 L1245.65 1388.38 L1245.65 1397.23 L1213.99 1397.23 L1213.99 1416.3 Q1216.28 1415.52 1218.57 1415.15 Q1220.86 1414.73 1223.15 1414.73 Q1236.17 1414.73 1243.78 1421.87 Q1251.38 1429 1251.38 1441.19 Q1251.38 1453.74 1243.57 1460.72 Q1235.76 1467.65 1221.54 1467.65 Q1216.64 1467.65 1211.54 1466.82 Q1206.49 1465.98 1201.07 1464.32 L1201.07 1453.74 Q1205.76 1456.3 1210.76 1457.55 Q1215.76 1458.8 1221.33 1458.8 Q1230.34 1458.8 1235.6 1454.06 Q1240.86 1449.32 1240.86 1441.19 Q1240.86 1433.07 1235.6 1428.33 Q1230.34 1423.59 1221.33 1423.59 Q1217.11 1423.59 1212.89 1424.53 Q1208.73 1425.46 1204.35 1427.44 L1204.35 1388.38 Z" fill="#000000" fill-rule="evenodd" fill-opacity="1" /><path clip-path="url(#clip070)" d="M1290.8 1457.29 L1307.99 1457.29 L1307.99 1397.96 L1289.29 1401.71 L1289.29 1392.13 L1307.88 1388.38 L1318.41 1388.38 L1318.41 1457.29 L1335.59 1457.29 L1335.59 1466.14 L1290.8 1466.14 L1290.8 1457.29 Z" fill="#000000" fill-rule="evenodd" fill-opacity="1" /><path clip-path="url(#clip070)" d="M1356.84 1452.91 L1367.83 1452.91 L1367.83 1466.14 L1356.84 1466.14 L1356.84 1452.91 Z" fill="#000000" fill-rule="evenodd" fill-opacity="1" /><path clip-path="url(#clip070)" d="M1413.25 1395.31 Q1405.12 1395.31 1401.01 1403.33 Q1396.95 1411.3 1396.95 1427.34 Q1396.95 1443.33 1401.01 1451.35 Q1405.12 1459.32 1413.25 1459.32 Q1421.43 1459.32 1425.49 1451.35 Q1429.6 1443.33 1429.6 1427.34 Q1429.6 1411.3 1425.49 1403.33 Q1421.43 1395.31 1413.25 1395.31 M1413.25 1386.97 Q1426.32 1386.97 1433.2 1397.34 Q1440.12 1407.65 1440.12 1427.34 Q1440.12 1446.97 1433.2 1457.34 Q1426.32 1467.65 1413.25 1467.65 Q1400.18 1467.65 1393.25 1457.34 Q1386.37 1446.97 1386.37 1427.34 Q1386.37 1407.65 1393.25 1397.34 Q1400.18 1386.97 1413.25 1386.97 Z" fill="#000000" fill-rule="evenodd" fill-opacity="1" /><path clip-path="url(#clip070)" d="M1481.11 1395.31 Q1472.99 1395.31 1468.87 1403.33 Q1464.81 1411.3 1464.81 1427.34 Q1464.81 1443.33 1468.87 1451.35 Q1472.99 1459.32 1481.11 1459.32 Q1489.29 1459.32 1493.35 1451.35 Q1497.47 1443.33 1497.47 1427.34 Q1497.47 1411.3 1493.35 1403.33 Q1489.29 1395.31 1481.11 1395.31 M1481.11 1386.97 Q1494.19 1386.97 1501.06 1397.34 Q1507.99 1407.65 1507.99 1427.34 Q1507.99 1446.97 1501.06 1457.34 Q1494.19 1467.65 1481.11 1467.65 Q1468.04 1467.65 1461.11 1457.34 Q1454.24 1446.97 1454.24 1427.34 Q1454.24 1407.65 1461.11 1397.34 Q1468.04 1386.97 1481.11 1386.97 Z" fill="#000000" fill-rule="evenodd" fill-opacity="1" /><path clip-path="url(#clip070)" d="M771.55 1601.11 Q767.487 1611.53 763.633 1614.7 Q759.779 1617.88 753.321 1617.88 L745.665 1617.88 L745.665 1609.86 L751.29 1609.86 Q755.248 1609.86 757.435 1607.98 Q759.623 1606.11 762.279 1599.13 L763.998 1594.75 L740.404 1537.36 L750.561 1537.36 L768.79 1582.98 L787.019 1537.36 L797.175 1537.36 L771.55 1601.11 Z" fill="#000000" fill-rule="evenodd" fill-opacity="1" /><path clip-path="url(#clip070)" d="M860.299 1564.13 L860.299 1568.82 L816.237 1568.82 Q816.862 1578.71 822.175 1583.92 Q827.539 1589.08 837.07 1589.08 Q842.591 1589.08 847.747 1587.72 Q852.956 1586.37 858.06 1583.66 L858.06 1592.72 Q852.904 1594.91 847.487 1596.06 Q842.07 1597.2 836.498 1597.2 Q822.539 1597.2 814.362 1589.08 Q806.237 1580.95 806.237 1567.1 Q806.237 1552.78 813.946 1544.39 Q821.706 1535.95 834.831 1535.95 Q846.602 1535.95 853.425 1543.56 Q860.299 1551.11 860.299 1564.13 M850.716 1561.32 Q850.612 1553.45 846.289 1548.77 Q842.018 1544.08 834.935 1544.08 Q826.914 1544.08 822.071 1548.61 Q817.279 1553.14 816.55 1561.37 L850.716 1561.32 Z" fill="#000000" fill-rule="evenodd" fill-opacity="1" /><path clip-path="url(#clip070)" d="M902.539 1566.37 Q890.924 1566.37 886.445 1569.03 Q881.966 1571.68 881.966 1578.09 Q881.966 1583.19 885.299 1586.21 Q888.685 1589.18 894.466 1589.18 Q902.435 1589.18 907.226 1583.56 Q912.07 1577.88 912.07 1568.5 L912.07 1566.37 L902.539 1566.37 M921.653 1562.41 L921.653 1595.69 L912.07 1595.69 L912.07 1586.84 Q908.789 1592.15 903.893 1594.7 Q898.997 1597.2 891.914 1597.2 Q882.956 1597.2 877.643 1592.2 Q872.383 1587.15 872.383 1578.71 Q872.383 1568.87 878.945 1563.87 Q885.56 1558.87 898.633 1558.87 L912.07 1558.87 L912.07 1557.93 Q912.07 1551.32 907.695 1547.72 Q903.372 1544.08 895.508 1544.08 Q890.508 1544.08 885.768 1545.28 Q881.029 1546.47 876.654 1548.87 L876.654 1540.02 Q881.914 1537.98 886.862 1536.99 Q891.81 1535.95 896.497 1535.95 Q909.153 1535.95 915.403 1542.52 Q921.653 1549.08 921.653 1562.41 Z" fill="#000000" fill-rule="evenodd" fill-opacity="1" /><path clip-path="url(#clip070)" d="M975.195 1546.32 Q973.58 1545.38 971.653 1544.96 Q969.778 1544.49 967.486 1544.49 Q959.361 1544.49 954.986 1549.81 Q950.664 1555.07 950.664 1564.96 L950.664 1595.69 L941.028 1595.69 L941.028 1537.36 L950.664 1537.36 L950.664 1546.42 Q953.684 1541.11 958.528 1538.56 Q963.372 1535.95 970.299 1535.95 Q971.288 1535.95 972.486 1536.11 Q973.684 1536.21 975.143 1536.47 L975.195 1546.32 Z" fill="#000000" fill-rule="evenodd" fill-opacity="1" /><path clip-path="url(#clip070)" d="M1022.43 1539.08 L1022.43 1548.14 Q1018.37 1546.06 1014 1545.02 Q1009.62 1543.97 1004.93 1543.97 Q997.799 1543.97 994.205 1546.16 Q990.663 1548.35 990.663 1552.72 Q990.663 1556.06 993.215 1557.98 Q995.768 1559.86 1003.48 1561.58 L1006.76 1562.31 Q1016.97 1564.49 1021.24 1568.5 Q1025.56 1572.46 1025.56 1579.6 Q1025.56 1587.72 1019.1 1592.46 Q1012.69 1597.2 1001.44 1597.2 Q996.757 1597.2 991.653 1596.26 Q986.601 1595.38 980.976 1593.56 L980.976 1583.66 Q986.288 1586.42 991.445 1587.83 Q996.601 1589.18 1001.65 1589.18 Q1008.42 1589.18 1012.07 1586.89 Q1015.72 1584.55 1015.72 1580.33 Q1015.72 1576.42 1013.06 1574.34 Q1010.45 1572.25 1001.55 1570.33 L998.215 1569.55 Q989.309 1567.67 985.351 1563.82 Q981.393 1559.91 981.393 1553.14 Q981.393 1544.91 987.226 1540.43 Q993.059 1535.95 1003.79 1535.95 Q1009.1 1535.95 1013.79 1536.73 Q1018.48 1537.52 1022.43 1539.08 Z" fill="#000000" fill-rule="evenodd" fill-opacity="1" /><polyline clip-path="url(#clip070)" style="stroke:#000000; stroke-linecap:butt; stroke-linejoin:round; stroke-width:4; stroke-opacity:1; fill:none" points="
  336.385,1349.74 336.385,47.2441 
  "/>
<polyline clip-path="url(#clip070)" style="stroke:#000000; stroke-linecap:butt; stroke-linejoin:round; stroke-width:4; stroke-opacity:1; fill:none" points="
  336.385,1172.09 346.63,1172.09 
  "/>
<polyline clip-path="url(#clip070)" style="stroke:#000000; stroke-linecap:butt; stroke-linejoin:round; stroke-width:4; stroke-opacity:1; fill:none" points="
  336.385,890.523 346.63,890.523 
  "/>
<polyline clip-path="url(#clip070)" style="stroke:#000000; stroke-linecap:butt; stroke-linejoin:round; stroke-width:4; stroke-opacity:1; fill:none" points="
  336.385,608.953 346.63,608.953 
  "/>
<polyline clip-path="url(#clip070)" style="stroke:#000000; stroke-linecap:butt; stroke-linejoin:round; stroke-width:4; stroke-opacity:1; fill:none" points="
  336.385,327.384 346.63,327.384 
  "/>
<path clip-path="url(#clip070)" d="M171.375 1140.14 Q163.25 1140.14 159.135 1148.16 Q155.073 1156.13 155.073 1172.17 Q155.073 1188.16 159.135 1196.18 Q163.25 1204.15 171.375 1204.15 Q179.552 1204.15 183.615 1196.18 Q187.729 1188.16 187.729 1172.17 Q187.729 1156.13 183.615 1148.16 Q179.552 1140.14 171.375 1140.14 M171.375 1131.81 Q184.448 1131.81 191.323 1142.17 Q198.25 1152.48 198.25 1172.17 Q198.25 1191.81 191.323 1202.17 Q184.448 1212.48 171.375 1212.48 Q158.302 1212.48 151.375 1202.17 Q144.5 1191.81 144.5 1172.17 Q144.5 1152.48 151.375 1142.17 Q158.302 1131.81 171.375 1131.81 Z" fill="#000000" fill-rule="evenodd" fill-opacity="1" /><path clip-path="url(#clip070)" d="M216.739 1197.74 L227.729 1197.74 L227.729 1210.97 L216.739 1210.97 L216.739 1197.74 Z" fill="#000000" fill-rule="evenodd" fill-opacity="1" /><path clip-path="url(#clip070)" d="M274.447 1167.9 Q267.364 1167.9 263.197 1172.74 Q259.083 1177.59 259.083 1186.02 Q259.083 1194.41 263.197 1199.31 Q267.364 1204.15 274.447 1204.15 Q281.531 1204.15 285.645 1199.31 Q289.812 1194.41 289.812 1186.02 Q289.812 1177.59 285.645 1172.74 Q281.531 1167.9 274.447 1167.9 M295.333 1134.93 L295.333 1144.51 Q291.374 1142.64 287.312 1141.65 Q283.301 1140.66 279.343 1140.66 Q268.927 1140.66 263.406 1147.69 Q257.937 1154.72 257.156 1168.94 Q260.229 1164.41 264.864 1162.01 Q269.499 1159.57 275.072 1159.57 Q286.791 1159.57 293.562 1166.7 Q300.385 1173.78 300.385 1186.02 Q300.385 1198 293.301 1205.24 Q286.218 1212.48 274.447 1212.48 Q260.958 1212.48 253.822 1202.17 Q246.687 1191.81 246.687 1172.17 Q246.687 1153.73 255.437 1142.8 Q264.187 1131.81 278.927 1131.81 Q282.885 1131.81 286.895 1132.59 Q290.958 1133.37 295.333 1134.93 Z" fill="#000000" fill-rule="evenodd" fill-opacity="1" /><path clip-path="url(#clip070)" d="M171.948 858.57 Q163.823 858.57 159.708 866.59 Q155.646 874.559 155.646 890.601 Q155.646 906.59 159.708 914.611 Q163.823 922.58 171.948 922.58 Q180.125 922.58 184.187 914.611 Q188.302 906.59 188.302 890.601 Q188.302 874.559 184.187 866.59 Q180.125 858.57 171.948 858.57 M171.948 850.236 Q185.021 850.236 191.896 860.601 Q198.823 870.913 198.823 890.601 Q198.823 910.236 191.896 920.601 Q185.021 930.913 171.948 930.913 Q158.875 930.913 151.948 920.601 Q145.073 910.236 145.073 890.601 Q145.073 870.913 151.948 860.601 Q158.875 850.236 171.948 850.236 Z" fill="#000000" fill-rule="evenodd" fill-opacity="1" /><path clip-path="url(#clip070)" d="M217.312 916.174 L228.302 916.174 L228.302 929.403 L217.312 929.403 L217.312 916.174 Z" fill="#000000" fill-rule="evenodd" fill-opacity="1" /><path clip-path="url(#clip070)" d="M273.718 892.476 Q266.218 892.476 261.895 896.486 Q257.625 900.497 257.625 907.528 Q257.625 914.559 261.895 918.569 Q266.218 922.58 273.718 922.58 Q281.218 922.58 285.541 918.569 Q289.864 914.507 289.864 907.528 Q289.864 900.497 285.541 896.486 Q281.27 892.476 273.718 892.476 M263.197 887.997 Q256.427 886.33 252.625 881.695 Q248.875 877.059 248.875 870.393 Q248.875 861.07 255.489 855.653 Q262.156 850.236 273.718 850.236 Q285.333 850.236 291.947 855.653 Q298.562 861.07 298.562 870.393 Q298.562 877.059 294.76 881.695 Q291.01 886.33 284.291 887.997 Q291.895 889.767 296.114 894.924 Q300.385 900.08 300.385 907.528 Q300.385 918.83 293.458 924.871 Q286.583 930.913 273.718 930.913 Q260.854 930.913 253.927 924.871 Q247.052 918.83 247.052 907.528 Q247.052 900.08 251.323 894.924 Q255.593 889.767 263.197 887.997 M259.343 871.382 Q259.343 877.424 263.093 880.809 Q266.895 884.195 273.718 884.195 Q280.489 884.195 284.291 880.809 Q288.145 877.424 288.145 871.382 Q288.145 865.34 284.291 861.955 Q280.489 858.57 273.718 858.57 Q266.895 858.57 263.093 861.955 Q259.343 865.34 259.343 871.382 Z" fill="#000000" fill-rule="evenodd" fill-opacity="1" /><path clip-path="url(#clip070)" d="M151.063 638.979 L168.25 638.979 L168.25 579.656 L149.552 583.406 L149.552 573.823 L168.146 570.073 L178.667 570.073 L178.667 638.979 L195.854 638.979 L195.854 647.833 L151.063 647.833 L151.063 638.979 Z" fill="#000000" fill-rule="evenodd" fill-opacity="1" /><path clip-path="url(#clip070)" d="M217.104 634.604 L228.093 634.604 L228.093 647.833 L217.104 647.833 L217.104 634.604 Z" fill="#000000" fill-rule="evenodd" fill-opacity="1" /><path clip-path="url(#clip070)" d="M273.51 577 Q265.385 577 261.27 585.021 Q257.208 592.99 257.208 609.031 Q257.208 625.021 261.27 633.042 Q265.385 641.01 273.51 641.01 Q281.687 641.01 285.749 633.042 Q289.864 625.021 289.864 609.031 Q289.864 592.99 285.749 585.021 Q281.687 577 273.51 577 M273.51 568.667 Q286.583 568.667 293.458 579.031 Q300.385 589.344 300.385 609.031 Q300.385 628.667 293.458 639.031 Q286.583 649.344 273.51 649.344 Q260.437 649.344 253.51 639.031 Q246.635 628.667 246.635 609.031 Q246.635 589.344 253.51 579.031 Q260.437 568.667 273.51 568.667 Z" fill="#000000" fill-rule="evenodd" fill-opacity="1" /><path clip-path="url(#clip070)" d="M154.656 357.41 L171.844 357.41 L171.844 298.087 L153.146 301.837 L153.146 292.254 L171.74 288.504 L182.26 288.504 L182.26 357.41 L199.448 357.41 L199.448 366.264 L154.656 366.264 L154.656 357.41 Z" fill="#000000" fill-rule="evenodd" fill-opacity="1" /><path clip-path="url(#clip070)" d="M220.698 353.035 L231.687 353.035 L231.687 366.264 L220.698 366.264 L220.698 353.035 Z" fill="#000000" fill-rule="evenodd" fill-opacity="1" /><path clip-path="url(#clip070)" d="M263.666 357.41 L300.385 357.41 L300.385 366.264 L251.01 366.264 L251.01 357.41 Q257 351.212 267.312 340.795 Q277.677 330.326 280.333 327.306 Q285.385 321.629 287.364 317.722 Q289.395 313.764 289.395 309.962 Q289.395 303.764 285.02 299.858 Q280.697 295.952 273.718 295.952 Q268.77 295.952 263.25 297.67 Q257.781 299.389 251.531 302.879 L251.531 292.254 Q257.885 289.702 263.406 288.4 Q268.927 287.098 273.51 287.098 Q285.593 287.098 292.781 293.139 Q299.968 299.181 299.968 309.285 Q299.968 314.077 298.145 318.399 Q296.374 322.67 291.635 328.504 Q290.333 330.014 283.354 337.254 Q276.374 344.441 263.666 357.41 Z" fill="#000000" fill-rule="evenodd" fill-opacity="1" /><path clip-path="url(#clip070)" d="M29.0787 1001.59 L38.037 1001.59 Q35.7974 1005.65 34.7037 1009.77 Q33.5579 1013.83 33.5579 1018 Q33.5579 1027.32 39.4953 1032.47 Q45.3807 1037.63 56.0577 1037.63 Q66.7348 1037.63 72.6722 1032.47 Q78.5576 1027.32 78.5576 1018 Q78.5576 1013.83 77.4639 1009.77 Q76.318 1005.65 74.0785 1001.59 L82.9326 1001.59 Q84.8076 1005.6 85.7451 1009.92 Q86.6826 1014.19 86.6826 1019.04 Q86.6826 1032.21 78.4014 1039.97 Q70.1202 1047.73 56.0577 1047.73 Q41.787 1047.73 33.6099 1039.92 Q25.4329 1032.06 25.4329 1018.41 Q25.4329 1013.99 26.3704 1009.77 Q27.2558 1005.55 29.0787 1001.59 Z" fill="#000000" fill-rule="evenodd" fill-opacity="1" /><path clip-path="url(#clip070)" d="M62.1514 985.912 L26.8391 985.912 L26.8391 976.329 L61.7869 976.329 Q70.0681 976.329 74.2347 973.1 Q78.3493 969.871 78.3493 963.412 Q78.3493 955.652 73.4014 951.173 Q68.4535 946.642 59.9119 946.642 L26.8391 946.642 L26.8391 937.058 L85.1722 937.058 L85.1722 946.642 L76.2139 946.642 Q81.5263 950.131 84.1305 954.767 Q86.6826 959.35 86.6826 965.444 Q86.6826 975.496 80.4326 980.704 Q74.1826 985.912 62.1514 985.912 M25.4329 961.798 L25.4329 961.798 Z" fill="#000000" fill-rule="evenodd" fill-opacity="1" /><path clip-path="url(#clip070)" d="M35.7974 883.517 Q34.8599 885.132 34.4433 887.059 Q33.9745 888.934 33.9745 891.225 Q33.9745 899.35 39.287 903.725 Q44.5474 908.048 54.4432 908.048 L85.1722 908.048 L85.1722 917.684 L26.8391 917.684 L26.8391 908.048 L35.9016 908.048 Q30.5891 905.027 28.037 900.184 Q25.4329 895.34 25.4329 888.413 Q25.4329 887.423 25.5891 886.225 Q25.6933 885.027 25.9537 883.569 L35.7974 883.517 Z" fill="#000000" fill-rule="evenodd" fill-opacity="1" /><path clip-path="url(#clip070)" d="M35.7974 841.538 Q34.8599 843.153 34.4433 845.08 Q33.9745 846.955 33.9745 849.246 Q33.9745 857.371 39.287 861.746 Q44.5474 866.069 54.4432 866.069 L85.1722 866.069 L85.1722 875.705 L26.8391 875.705 L26.8391 866.069 L35.9016 866.069 Q30.5891 863.048 28.037 858.205 Q25.4329 853.361 25.4329 846.434 Q25.4329 845.444 25.5891 844.246 Q25.6933 843.048 25.9537 841.59 L35.7974 841.538 Z" fill="#000000" fill-rule="evenodd" fill-opacity="1" /><path clip-path="url(#clip070)" d="M53.6098 783.934 L58.2973 783.934 L58.2973 827.996 Q68.1931 827.371 73.4014 822.059 Q78.5576 816.694 78.5576 807.163 Q78.5576 801.642 77.2035 796.486 Q75.8493 791.278 73.141 786.174 L82.2034 786.174 Q84.3909 791.33 85.5367 796.747 Q86.6826 802.163 86.6826 807.736 Q86.6826 821.694 78.5576 829.871 Q70.4327 837.996 56.5786 837.996 Q42.2557 837.996 33.8703 830.288 Q25.4329 822.528 25.4329 809.403 Q25.4329 797.632 33.037 790.809 Q40.5891 783.934 53.6098 783.934 M50.7973 793.518 Q42.9328 793.622 38.2453 797.945 Q33.5579 802.215 33.5579 809.299 Q33.5579 817.319 38.0891 822.163 Q42.6203 826.955 50.8494 827.684 L50.7973 793.518 Z" fill="#000000" fill-rule="evenodd" fill-opacity="1" /><path clip-path="url(#clip070)" d="M49.964 719.716 L85.1722 719.716 L85.1722 729.299 L50.2765 729.299 Q41.9953 729.299 37.8807 732.528 Q33.7662 735.757 33.7662 742.216 Q33.7662 749.976 38.7141 754.455 Q43.662 758.934 52.2036 758.934 L85.1722 758.934 L85.1722 768.57 L26.8391 768.57 L26.8391 758.934 L35.9016 758.934 Q30.6412 755.497 28.037 750.861 Q25.4329 746.174 25.4329 740.08 Q25.4329 730.028 31.6829 724.872 Q37.8807 719.716 49.964 719.716 Z" fill="#000000" fill-rule="evenodd" fill-opacity="1" /><path clip-path="url(#clip070)" d="M10.2767 691.122 L26.8391 691.122 L26.8391 671.383 L34.287 671.383 L34.287 691.122 L65.9535 691.122 Q73.0889 691.122 75.1201 689.195 Q77.1514 687.216 77.1514 681.226 L77.1514 671.383 L85.1722 671.383 L85.1722 681.226 Q85.1722 692.32 81.0576 696.539 Q76.891 700.758 65.9535 700.758 L34.287 700.758 L34.287 707.789 L26.8391 707.789 L26.8391 700.758 L10.2767 700.758 L10.2767 691.122 Z" fill="#000000" fill-rule="evenodd" fill-opacity="1" /><path clip-path="url(#clip070)" d="M26.8391 631.748 L26.8391 621.591 L75.7972 603.362 L26.8391 585.133 L26.8391 574.977 L85.1722 596.852 L85.1722 609.873 L26.8391 631.748 Z" fill="#000000" fill-rule="evenodd" fill-opacity="1" /><path clip-path="url(#clip070)" d="M55.8494 535.238 Q55.8494 546.852 58.5056 551.331 Q61.1619 555.81 67.5681 555.81 Q72.6722 555.81 75.693 552.477 Q78.6618 549.092 78.6618 543.311 Q78.6618 535.342 73.0368 530.55 Q67.3598 525.706 57.9848 525.706 L55.8494 525.706 L55.8494 535.238 M51.8911 516.123 L85.1722 516.123 L85.1722 525.706 L76.318 525.706 Q81.6305 528.988 84.1826 533.883 Q86.6826 538.779 86.6826 545.863 Q86.6826 554.821 81.6826 560.133 Q76.6305 565.394 68.1931 565.394 Q58.3494 565.394 53.3494 558.831 Q48.3494 552.217 48.3494 539.144 L48.3494 525.706 L47.4119 525.706 Q40.7974 525.706 37.2037 530.081 Q33.5579 534.404 33.5579 542.269 Q33.5579 547.269 34.7558 552.008 Q35.9537 556.748 38.3495 561.123 L29.4954 561.123 Q27.4641 555.863 26.4746 550.915 Q25.4329 545.967 25.4329 541.279 Q25.4329 528.623 31.9954 522.373 Q38.5578 516.123 51.8911 516.123 Z" fill="#000000" fill-rule="evenodd" fill-opacity="1" /><path clip-path="url(#clip070)" d="M4.13093 496.384 L4.13093 486.8 L85.1722 486.8 L85.1722 496.384 L4.13093 496.384 Z" fill="#000000" fill-rule="evenodd" fill-opacity="1" /><path clip-path="url(#clip070)" d="M62.1514 467.738 L26.8391 467.738 L26.8391 458.155 L61.7869 458.155 Q70.0681 458.155 74.2347 454.926 Q78.3493 451.696 78.3493 445.238 Q78.3493 437.478 73.4014 432.999 Q68.4535 428.467 59.9119 428.467 L26.8391 428.467 L26.8391 418.884 L85.1722 418.884 L85.1722 428.467 L76.2139 428.467 Q81.5263 431.957 84.1305 436.592 Q86.6826 441.176 86.6826 447.269 Q86.6826 457.321 80.4326 462.53 Q74.1826 467.738 62.1514 467.738 M25.4329 443.624 L25.4329 443.624 Z" fill="#000000" fill-rule="evenodd" fill-opacity="1" /><path clip-path="url(#clip070)" d="M53.6098 349.249 L58.2973 349.249 L58.2973 393.311 Q68.1931 392.686 73.4014 387.374 Q78.5576 382.009 78.5576 372.478 Q78.5576 366.957 77.2035 361.801 Q75.8493 356.593 73.141 351.489 L82.2034 351.489 Q84.3909 356.645 85.5367 362.061 Q86.6826 367.478 86.6826 373.051 Q86.6826 387.009 78.5576 395.186 Q70.4327 403.311 56.5786 403.311 Q42.2557 403.311 33.8703 395.603 Q25.4329 387.843 25.4329 374.718 Q25.4329 362.947 33.037 356.124 Q40.5891 349.249 53.6098 349.249 M50.7973 358.832 Q42.9328 358.936 38.2453 363.259 Q33.5579 367.53 33.5579 374.613 Q33.5579 382.634 38.0891 387.478 Q42.6203 392.27 50.8494 392.999 L50.7973 358.832 Z" fill="#000000" fill-rule="evenodd" fill-opacity="1" /><polyline clip-path="url(#clip072)" style="stroke:#009af9; stroke-linecap:butt; stroke-linejoin:round; stroke-width:16; stroke-opacity:1; fill:none" points="
  367.324,1312.88 470.087,1238.35 723.852,1018.72 1066.24,621.118 1398.64,84.1072 
  "/>
<path clip-path="url(#clip072)" d="M367.324 1272.88 L327.324 1352.88 L407.324 1352.88 L367.324 1272.88 Z" fill="#009af9" fill-rule="evenodd" fill-opacity="1" stroke="#000000" stroke-opacity="1" stroke-width="3.2"/>
<path clip-path="url(#clip072)" d="M470.087 1198.35 L430.087 1278.35 L510.087 1278.35 L470.087 1198.35 Z" fill="#009af9" fill-rule="evenodd" fill-opacity="1" stroke="#000000" stroke-opacity="1" stroke-width="3.2"/>
<path clip-path="url(#clip072)" d="M723.852 978.725 L683.852 1058.72 L763.852 1058.72 L723.852 978.725 Z" fill="#009af9" fill-rule="evenodd" fill-opacity="1" stroke="#000000" stroke-opacity="1" stroke-width="3.2"/>
<path clip-path="url(#clip072)" d="M1066.24 581.118 L1026.24 661.118 L1106.24 661.118 L1066.24 581.118 Z" fill="#009af9" fill-rule="evenodd" fill-opacity="1" stroke="#000000" stroke-opacity="1" stroke-width="3.2"/>
<path clip-path="url(#clip072)" d="M1398.64 44.1072 L1358.64 124.107 L1438.64 124.107 L1398.64 44.1072 Z" fill="#009af9" fill-rule="evenodd" fill-opacity="1" stroke="#000000" stroke-opacity="1" stroke-width="3.2"/>
<path clip-path="url(#clip072)" d="M842.982 810.409 L842.982 890.409 L922.982 890.409 L922.982 810.409 L842.982 810.409 Z" fill="#e26f46" fill-rule="evenodd" fill-opacity="1" stroke="#000000" stroke-opacity="1" stroke-width="3.2"/>
<path clip-path="url(#clip070)" d="
M1496.79 440.581 L2352.76 440.581 L2352.76 90.6606 L1496.79 90.6606  Z
  " fill="#ffffff" fill-rule="evenodd" fill-opacity="1"/>
<polyline clip-path="url(#clip070)" style="stroke:#000000; stroke-linecap:butt; stroke-linejoin:round; stroke-width:4; stroke-opacity:1; fill:none" points="
  1496.79,440.581 2352.76,440.581 2352.76,90.6606 1496.79,90.6606 1496.79,440.581 
  "/>
<polyline clip-path="url(#clip070)" style="stroke:#009af9; stroke-linecap:butt; stroke-linejoin:round; stroke-width:9; stroke-opacity:1; fill:none" points="
  1519.2,207.301 1653.62,207.301 
  "/>
<path clip-path="url(#clip070)" d="M1586.41 149.701 L1528.81 264.901 L1644.01 264.901 L1586.41 149.701 Z" fill="#009af9" fill-rule="evenodd" fill-opacity="1" stroke="#000000" stroke-opacity="1" stroke-width="4.608"/>
<path clip-path="url(#clip070)" d="M1717.48 189.566 L1717.48 198.629 Q1713.42 196.545 1709.04 195.504 Q1704.67 194.462 1699.98 194.462 Q1692.85 194.462 1689.25 196.65 Q1685.71 198.837 1685.71 203.212 Q1685.71 206.545 1688.26 208.472 Q1690.82 210.347 1698.52 212.066 L1701.81 212.795 Q1712.01 214.983 1716.28 218.993 Q1720.61 222.952 1720.61 230.087 Q1720.61 238.212 1714.15 242.951 Q1707.74 247.691 1696.49 247.691 Q1691.81 247.691 1686.7 246.754 Q1681.65 245.868 1676.02 244.045 L1676.02 234.149 Q1681.34 236.91 1686.49 238.316 Q1691.65 239.67 1696.7 239.67 Q1703.47 239.67 1707.12 237.379 Q1710.76 235.035 1710.76 230.816 Q1710.76 226.91 1708.11 224.827 Q1705.5 222.743 1696.6 220.816 L1693.26 220.035 Q1684.36 218.16 1680.4 214.306 Q1676.44 210.4 1676.44 203.629 Q1676.44 195.4 1682.27 190.92 Q1688.11 186.441 1698.84 186.441 Q1704.15 186.441 1708.84 187.223 Q1713.52 188.004 1717.48 189.566 Z" fill="#000000" fill-rule="evenodd" fill-opacity="1" /><path clip-path="url(#clip070)" d="M1758.47 194.566 Q1750.76 194.566 1746.28 200.608 Q1741.8 206.597 1741.8 217.066 Q1741.8 227.535 1746.23 233.577 Q1750.71 239.566 1758.47 239.566 Q1766.13 239.566 1770.61 233.524 Q1775.09 227.483 1775.09 217.066 Q1775.09 206.702 1770.61 200.66 Q1766.13 194.566 1758.47 194.566 M1758.47 186.441 Q1770.97 186.441 1778.11 194.566 Q1785.24 202.691 1785.24 217.066 Q1785.24 231.389 1778.11 239.566 Q1770.97 247.691 1758.47 247.691 Q1745.92 247.691 1738.78 239.566 Q1731.7 231.389 1731.7 217.066 Q1731.7 202.691 1738.78 194.566 Q1745.92 186.441 1758.47 186.441 Z" fill="#000000" fill-rule="evenodd" fill-opacity="1" /><path clip-path="url(#clip070)" d="M1801.13 165.139 L1810.71 165.139 L1810.71 246.181 L1801.13 246.181 L1801.13 165.139 Z" fill="#000000" fill-rule="evenodd" fill-opacity="1" /><path clip-path="url(#clip070)" d="M1829.77 223.16 L1829.77 187.848 L1839.36 187.848 L1839.36 222.795 Q1839.36 231.077 1842.59 235.243 Q1845.81 239.358 1852.27 239.358 Q1860.03 239.358 1864.51 234.41 Q1869.04 229.462 1869.04 220.92 L1869.04 187.848 L1878.63 187.848 L1878.63 246.181 L1869.04 246.181 L1869.04 237.222 Q1865.55 242.535 1860.92 245.139 Q1856.34 247.691 1850.24 247.691 Q1840.19 247.691 1834.98 241.441 Q1829.77 235.191 1829.77 223.16 M1853.89 186.441 L1853.89 186.441 Z" fill="#000000" fill-rule="evenodd" fill-opacity="1" /><path clip-path="url(#clip070)" d="M1907.85 171.285 L1907.85 187.848 L1927.59 187.848 L1927.59 195.295 L1907.85 195.295 L1907.85 226.962 Q1907.85 234.097 1909.77 236.129 Q1911.75 238.16 1917.74 238.16 L1927.59 238.16 L1927.59 246.181 L1917.74 246.181 Q1906.65 246.181 1902.43 242.066 Q1898.21 237.899 1898.21 226.962 L1898.21 195.295 L1891.18 195.295 L1891.18 187.848 L1898.21 187.848 L1898.21 171.285 L1907.85 171.285 Z" fill="#000000" fill-rule="evenodd" fill-opacity="1" /><path clip-path="url(#clip070)" d="M1940.19 187.848 L1949.77 187.848 L1949.77 246.181 L1940.19 246.181 L1940.19 187.848 M1940.19 165.139 L1949.77 165.139 L1949.77 177.275 L1940.19 177.275 L1940.19 165.139 Z" fill="#000000" fill-rule="evenodd" fill-opacity="1" /><path clip-path="url(#clip070)" d="M1992.43 194.566 Q1984.72 194.566 1980.24 200.608 Q1975.76 206.597 1975.76 217.066 Q1975.76 227.535 1980.19 233.577 Q1984.67 239.566 1992.43 239.566 Q2000.08 239.566 2004.56 233.524 Q2009.04 227.483 2009.04 217.066 Q2009.04 206.702 2004.56 200.66 Q2000.08 194.566 1992.43 194.566 M1992.43 186.441 Q2004.93 186.441 2012.06 194.566 Q2019.2 202.691 2019.2 217.066 Q2019.2 231.389 2012.06 239.566 Q2004.93 247.691 1992.43 247.691 Q1979.88 247.691 1972.74 239.566 Q1965.66 231.389 1965.66 217.066 Q1965.66 202.691 1972.74 194.566 Q1979.88 186.441 1992.43 186.441 Z" fill="#000000" fill-rule="evenodd" fill-opacity="1" /><path clip-path="url(#clip070)" d="M2083.57 210.972 L2083.57 246.181 L2073.99 246.181 L2073.99 211.285 Q2073.99 203.004 2070.76 198.889 Q2067.53 194.775 2061.07 194.775 Q2053.31 194.775 2048.83 199.723 Q2044.36 204.67 2044.36 213.212 L2044.36 246.181 L2034.72 246.181 L2034.72 187.848 L2044.36 187.848 L2044.36 196.91 Q2047.79 191.65 2052.43 189.046 Q2057.12 186.441 2063.21 186.441 Q2073.26 186.441 2078.42 192.691 Q2083.57 198.889 2083.57 210.972 Z" fill="#000000" fill-rule="evenodd" fill-opacity="1" /><path clip-path="url(#clip070)" d="M2139.88 189.566 L2139.88 198.629 Q2135.81 196.545 2131.44 195.504 Q2127.06 194.462 2122.38 194.462 Q2115.24 194.462 2111.65 196.65 Q2108.1 198.837 2108.1 203.212 Q2108.1 206.545 2110.66 208.472 Q2113.21 210.347 2120.92 212.066 L2124.2 212.795 Q2134.41 214.983 2138.68 218.993 Q2143 222.952 2143 230.087 Q2143 238.212 2136.54 242.951 Q2130.14 247.691 2118.89 247.691 Q2114.2 247.691 2109.09 246.754 Q2104.04 245.868 2098.42 244.045 L2098.42 234.149 Q2103.73 236.91 2108.89 238.316 Q2114.04 239.67 2119.09 239.67 Q2125.87 239.67 2129.51 237.379 Q2133.16 235.035 2133.16 230.816 Q2133.16 226.91 2130.5 224.827 Q2127.9 222.743 2118.99 220.816 L2115.66 220.035 Q2106.75 218.16 2102.79 214.306 Q2098.83 210.4 2098.83 203.629 Q2098.83 195.4 2104.67 190.92 Q2110.5 186.441 2121.23 186.441 Q2126.54 186.441 2131.23 187.223 Q2135.92 188.004 2139.88 189.566 Z" fill="#000000" fill-rule="evenodd" fill-opacity="1" /><path clip-path="url(#clip070)" d="M1528.81 266.341 L1528.81 381.541 L1644.01 381.541 L1644.01 266.341 L1528.81 266.341 Z" fill="#e26f46" fill-rule="evenodd" fill-opacity="1" stroke="#000000" stroke-opacity="1" stroke-width="4.608"/>
<path clip-path="url(#clip070)" d="M1676.02 304.488 L1685.61 304.488 L1685.61 362.821 L1676.02 362.821 L1676.02 304.488 M1676.02 281.779 L1685.61 281.779 L1685.61 293.915 L1676.02 293.915 L1676.02 281.779 Z" fill="#000000" fill-rule="evenodd" fill-opacity="1" /><path clip-path="url(#clip070)" d="M1754.15 327.612 L1754.15 362.821 L1744.57 362.821 L1744.57 327.925 Q1744.57 319.644 1741.34 315.529 Q1738.11 311.415 1731.65 311.415 Q1723.89 311.415 1719.41 316.363 Q1714.93 321.31 1714.93 329.852 L1714.93 362.821 L1705.29 362.821 L1705.29 304.488 L1714.93 304.488 L1714.93 313.55 Q1718.37 308.29 1723 305.686 Q1727.69 303.081 1733.78 303.081 Q1743.84 303.081 1748.99 309.331 Q1754.15 315.529 1754.15 327.612 Z" fill="#000000" fill-rule="evenodd" fill-opacity="1" /><path clip-path="url(#clip070)" d="M1782.74 287.925 L1782.74 304.488 L1802.48 304.488 L1802.48 311.935 L1782.74 311.935 L1782.74 343.602 Q1782.74 350.737 1784.67 352.769 Q1786.65 354.8 1792.64 354.8 L1802.48 354.8 L1802.48 362.821 L1792.64 362.821 Q1781.54 362.821 1777.33 358.706 Q1773.11 354.539 1773.11 343.602 L1773.11 311.935 L1766.08 311.935 L1766.08 304.488 L1773.11 304.488 L1773.11 287.925 L1782.74 287.925 Z" fill="#000000" fill-rule="evenodd" fill-opacity="1" /><path clip-path="url(#clip070)" d="M1864.98 331.258 L1864.98 335.946 L1820.92 335.946 Q1821.54 345.842 1826.86 351.05 Q1832.22 356.206 1841.75 356.206 Q1847.27 356.206 1852.43 354.852 Q1857.64 353.498 1862.74 350.789 L1862.74 359.852 Q1857.59 362.039 1852.17 363.185 Q1846.75 364.331 1841.18 364.331 Q1827.22 364.331 1819.04 356.206 Q1810.92 348.081 1810.92 334.227 Q1810.92 319.904 1818.63 311.519 Q1826.39 303.081 1839.51 303.081 Q1851.28 303.081 1858.11 310.685 Q1864.98 318.238 1864.98 331.258 M1855.4 328.446 Q1855.29 320.581 1850.97 315.894 Q1846.7 311.206 1839.62 311.206 Q1831.6 311.206 1826.75 315.738 Q1821.96 320.269 1821.23 328.498 L1855.4 328.446 Z" fill="#000000" fill-rule="evenodd" fill-opacity="1" /><path clip-path="url(#clip070)" d="M1914.51 313.446 Q1912.9 312.508 1910.97 312.092 Q1909.1 311.623 1906.8 311.623 Q1898.68 311.623 1894.3 316.935 Q1889.98 322.196 1889.98 332.092 L1889.98 362.821 L1880.35 362.821 L1880.35 304.488 L1889.98 304.488 L1889.98 313.55 Q1893 308.238 1897.85 305.686 Q1902.69 303.081 1909.62 303.081 Q1910.61 303.081 1911.8 303.238 Q1913 303.342 1914.46 303.602 L1914.51 313.446 Z" fill="#000000" fill-rule="evenodd" fill-opacity="1" /><path clip-path="url(#clip070)" d="M1933.84 354.071 L1933.84 385.008 L1924.2 385.008 L1924.2 304.488 L1933.84 304.488 L1933.84 313.342 Q1936.86 308.133 1941.44 305.633 Q1946.07 303.081 1952.48 303.081 Q1963.11 303.081 1969.72 311.519 Q1976.39 319.956 1976.39 333.706 Q1976.39 347.456 1969.72 355.894 Q1963.11 364.331 1952.48 364.331 Q1946.07 364.331 1941.44 361.831 Q1936.86 359.279 1933.84 354.071 M1966.44 333.706 Q1966.44 323.133 1962.06 317.144 Q1957.74 311.102 1950.14 311.102 Q1942.53 311.102 1938.16 317.144 Q1933.84 323.133 1933.84 333.706 Q1933.84 344.279 1938.16 350.321 Q1942.53 356.31 1950.14 356.31 Q1957.74 356.31 1962.06 350.321 Q1966.44 344.279 1966.44 333.706 Z" fill="#000000" fill-rule="evenodd" fill-opacity="1" /><path clip-path="url(#clip070)" d="M2014.88 311.206 Q2007.17 311.206 2002.69 317.248 Q1998.21 323.237 1998.21 333.706 Q1998.21 344.175 2002.64 350.217 Q2007.12 356.206 2014.88 356.206 Q2022.53 356.206 2027.01 350.164 Q2031.49 344.123 2031.49 333.706 Q2031.49 323.342 2027.01 317.3 Q2022.53 311.206 2014.88 311.206 M2014.88 303.081 Q2027.38 303.081 2034.51 311.206 Q2041.65 319.331 2041.65 333.706 Q2041.65 348.029 2034.51 356.206 Q2027.38 364.331 2014.88 364.331 Q2002.32 364.331 1995.19 356.206 Q1988.11 348.029 1988.11 333.706 Q1988.11 319.331 1995.19 311.206 Q2002.32 303.081 2014.88 303.081 Z" fill="#000000" fill-rule="evenodd" fill-opacity="1" /><path clip-path="url(#clip070)" d="M2057.53 281.779 L2067.12 281.779 L2067.12 362.821 L2057.53 362.821 L2057.53 281.779 Z" fill="#000000" fill-rule="evenodd" fill-opacity="1" /><path clip-path="url(#clip070)" d="M2113.68 333.498 Q2102.06 333.498 2097.58 336.154 Q2093.11 338.81 2093.11 345.217 Q2093.11 350.321 2096.44 353.342 Q2099.82 356.31 2105.6 356.31 Q2113.57 356.31 2118.37 350.685 Q2123.21 345.008 2123.21 335.633 L2123.21 333.498 L2113.68 333.498 M2132.79 329.54 L2132.79 362.821 L2123.21 362.821 L2123.21 353.967 Q2119.93 359.279 2115.03 361.831 Q2110.14 364.331 2103.05 364.331 Q2094.09 364.331 2088.78 359.331 Q2083.52 354.279 2083.52 345.842 Q2083.52 335.998 2090.08 330.998 Q2096.7 325.998 2109.77 325.998 L2123.21 325.998 L2123.21 325.06 Q2123.21 318.446 2118.83 314.852 Q2114.51 311.206 2106.65 311.206 Q2101.65 311.206 2096.91 312.404 Q2092.17 313.602 2087.79 315.998 L2087.79 307.144 Q2093.05 305.113 2098 304.123 Q2102.95 303.081 2107.64 303.081 Q2120.29 303.081 2126.54 309.644 Q2132.79 316.206 2132.79 329.54 Z" fill="#000000" fill-rule="evenodd" fill-opacity="1" /><path clip-path="url(#clip070)" d="M2162.01 287.925 L2162.01 304.488 L2181.75 304.488 L2181.75 311.935 L2162.01 311.935 L2162.01 343.602 Q2162.01 350.737 2163.94 352.769 Q2165.92 354.8 2171.91 354.8 L2181.75 354.8 L2181.75 362.821 L2171.91 362.821 Q2160.81 362.821 2156.59 358.706 Q2152.38 354.539 2152.38 343.602 L2152.38 311.935 L2145.34 311.935 L2145.34 304.488 L2152.38 304.488 L2152.38 287.925 L2162.01 287.925 Z" fill="#000000" fill-rule="evenodd" fill-opacity="1" /><path clip-path="url(#clip070)" d="M2244.25 331.258 L2244.25 335.946 L2200.19 335.946 Q2200.81 345.842 2206.13 351.05 Q2211.49 356.206 2221.02 356.206 Q2226.54 356.206 2231.7 354.852 Q2236.91 353.498 2242.01 350.789 L2242.01 359.852 Q2236.85 362.039 2231.44 363.185 Q2226.02 364.331 2220.45 364.331 Q2206.49 364.331 2198.31 356.206 Q2190.19 348.081 2190.19 334.227 Q2190.19 319.904 2197.9 311.519 Q2205.66 303.081 2218.78 303.081 Q2230.55 303.081 2237.38 310.685 Q2244.25 318.238 2244.25 331.258 M2234.67 328.446 Q2234.56 320.581 2230.24 315.894 Q2225.97 311.206 2218.89 311.206 Q2210.86 311.206 2206.02 315.738 Q2201.23 320.269 2200.5 328.498 L2234.67 328.446 Z" fill="#000000" fill-rule="evenodd" fill-opacity="1" /><path clip-path="url(#clip070)" d="M2298.36 313.342 L2298.36 281.779 L2307.95 281.779 L2307.95 362.821 L2298.36 362.821 L2298.36 354.071 Q2295.34 359.279 2290.71 361.831 Q2286.12 364.331 2279.67 364.331 Q2269.09 364.331 2262.43 355.894 Q2255.81 347.456 2255.81 333.706 Q2255.81 319.956 2262.43 311.519 Q2269.09 303.081 2279.67 303.081 Q2286.12 303.081 2290.71 305.633 Q2295.34 308.133 2298.36 313.342 M2265.71 333.706 Q2265.71 344.279 2270.03 350.321 Q2274.41 356.31 2282.01 356.31 Q2289.61 356.31 2293.99 350.321 Q2298.36 344.279 2298.36 333.706 Q2298.36 323.133 2293.99 317.144 Q2289.61 311.102 2282.01 311.102 Q2274.41 311.102 2270.03 317.144 Q2265.71 323.133 2265.71 333.706 Z" fill="#000000" fill-rule="evenodd" fill-opacity="1" /></svg>
