<?xml version="1.0" encoding="utf-8"?>
<svg xmlns="http://www.w3.org/2000/svg" xmlns:xlink="http://www.w3.org/1999/xlink" width="600" height="400" viewBox="0 0 2400 1600">
<defs>
  <clipPath id="clip000">
    <rect x="0" y="0" width="2400" height="1600"/>
  </clipPath>
</defs>
<path clip-path="url(#clip000)" d="
M0 1600 L2400 1600 L2400 0 L0 0  Z
  " fill="#ffffff" fill-rule="evenodd" fill-opacity="1"/>
<defs>
  <clipPath id="clip001">
    <rect x="480" y="0" width="1681" height="1600"/>
  </clipPath>
</defs>
<path clip-path="url(#clip000)" d="
M278.293 1443.25 L2053.11 1443.25 L2053.11 47.2441 L278.293 47.2441  Z
  " fill="#ffffff" fill-rule="evenodd" fill-opacity="1"/>
<defs>
  <clipPath id="clip002">
    <rect x="278" y="47" width="1776" height="1397"/>
  </clipPath>
</defs>
<polyline clip-path="url(#clip000)" style="stroke:#000000; stroke-linecap:butt; stroke-linejoin:round; stroke-width:4; stroke-opacity:1; fill:none" points="
  278.293,1443.25 2053.11,1443.25 
  "/>
<polyline clip-path="url(#clip000)" style="stroke:#000000; stroke-linecap:butt; stroke-linejoin:round; stroke-width:4; stroke-opacity:1; fill:none" points="
  443.997,1443.25 443.997,1424.35 
  "/>
<polyline clip-path="url(#clip000)" style="stroke:#000000; stroke-linecap:butt; stroke-linejoin:round; stroke-width:4; stroke-opacity:1; fill:none" points="
  732.679,1443.25 732.679,1424.35 
  "/>
<polyline clip-path="url(#clip000)" style="stroke:#000000; stroke-linecap:butt; stroke-linejoin:round; stroke-width:4; stroke-opacity:1; fill:none" points="
  1021.36,1443.25 1021.36,1424.35 
  "/>
<polyline clip-path="url(#clip000)" style="stroke:#000000; stroke-linecap:butt; stroke-linejoin:round; stroke-width:4; stroke-opacity:1; fill:none" points="
  1310.04,1443.25 1310.04,1424.35 
  "/>
<polyline clip-path="url(#clip000)" style="stroke:#000000; stroke-linecap:butt; stroke-linejoin:round; stroke-width:4; stroke-opacity:1; fill:none" points="
  1598.73,1443.25 1598.73,1424.35 
  "/>
<polyline clip-path="url(#clip000)" style="stroke:#000000; stroke-linecap:butt; stroke-linejoin:round; stroke-width:4; stroke-opacity:1; fill:none" points="
  1887.41,1443.25 1887.41,1424.35 
  "/>
<path clip-path="url(#clip000)" d="M327.305 1481.89 L393.086 1481.89 L393.086 1490.74 L365.482 1490.74 L365.482 1559.65 L354.909 1559.65 L354.909 1490.74 L327.305 1490.74 L327.305 1481.89 Z" fill="#000000" fill-rule="evenodd" fill-opacity="1" /><path clip-path="url(#clip000)" d="M422.356 1503.03 L422.356 1512.1 Q418.294 1510.01 413.919 1508.97 Q409.544 1507.93 404.856 1507.93 Q397.721 1507.93 394.127 1510.12 Q390.586 1512.3 390.586 1516.68 Q390.586 1520.01 393.138 1521.94 Q395.69 1523.81 403.398 1525.53 L406.679 1526.26 Q416.888 1528.45 421.158 1532.46 Q425.481 1536.42 425.481 1543.55 Q425.481 1551.68 419.023 1556.42 Q412.617 1561.16 401.367 1561.16 Q396.679 1561.16 391.575 1560.22 Q386.523 1559.34 380.898 1557.51 L380.898 1547.62 Q386.211 1550.38 391.367 1551.78 Q396.523 1553.14 401.575 1553.14 Q408.346 1553.14 411.992 1550.85 Q415.638 1548.5 415.638 1544.28 Q415.638 1540.38 412.981 1538.29 Q410.377 1536.21 401.471 1534.28 L398.138 1533.5 Q389.231 1531.63 385.273 1527.77 Q381.315 1523.87 381.315 1517.1 Q381.315 1508.87 387.148 1504.39 Q392.981 1499.91 403.711 1499.91 Q409.023 1499.91 413.71 1500.69 Q418.398 1501.47 422.356 1503.03 Z" fill="#000000" fill-rule="evenodd" fill-opacity="1" /><path clip-path="url(#clip000)" d="M440.742 1501.31 L450.325 1501.31 L450.325 1559.65 L440.742 1559.65 L440.742 1501.31 M440.742 1478.61 L450.325 1478.61 L450.325 1490.74 L440.742 1490.74 L440.742 1478.61 Z" fill="#000000" fill-rule="evenodd" fill-opacity="1" /><path clip-path="url(#clip000)" d="M479.856 1484.75 L479.856 1501.31 L499.595 1501.31 L499.595 1508.76 L479.856 1508.76 L479.856 1540.43 Q479.856 1547.56 481.783 1549.6 Q483.762 1551.63 489.752 1551.63 L499.595 1551.63 L499.595 1559.65 L489.752 1559.65 Q478.658 1559.65 474.439 1555.53 Q470.221 1551.37 470.221 1540.43 L470.221 1508.76 L463.189 1508.76 L463.189 1501.31 L470.221 1501.31 L470.221 1484.75 L479.856 1484.75 Z" fill="#000000" fill-rule="evenodd" fill-opacity="1" /><path clip-path="url(#clip000)" d="M513.658 1481.89 L554.96 1481.89 L554.96 1490.74 L523.293 1490.74 L523.293 1509.8 Q525.585 1509.02 527.877 1508.66 Q530.168 1508.24 532.46 1508.24 Q545.481 1508.24 553.085 1515.38 Q560.689 1522.51 560.689 1534.7 Q560.689 1547.25 552.876 1554.23 Q545.064 1561.16 530.845 1561.16 Q525.949 1561.16 520.845 1560.32 Q515.793 1559.49 510.377 1557.82 L510.377 1547.25 Q515.064 1549.8 520.064 1551.05 Q525.064 1552.3 530.637 1552.3 Q539.647 1552.3 544.908 1547.56 Q550.168 1542.83 550.168 1534.7 Q550.168 1526.58 544.908 1521.84 Q539.647 1517.1 530.637 1517.1 Q526.418 1517.1 522.199 1518.03 Q518.033 1518.97 513.658 1520.95 L513.658 1481.89 Z" fill="#000000" fill-rule="evenodd" fill-opacity="1" /><path clip-path="url(#clip000)" d="M649.268 1522.51 L649.268 1551 L666.143 1551 Q674.632 1551 678.695 1547.51 Q682.809 1543.97 682.809 1536.73 Q682.809 1529.44 678.695 1526 Q674.632 1522.51 666.143 1522.51 L649.268 1522.51 M649.268 1490.53 L649.268 1513.97 L664.841 1513.97 Q672.549 1513.97 676.299 1511.11 Q680.101 1508.19 680.101 1502.25 Q680.101 1496.37 676.299 1493.45 Q672.549 1490.53 664.841 1490.53 L649.268 1490.53 M638.747 1481.89 L665.622 1481.89 Q677.653 1481.89 684.164 1486.89 Q690.674 1491.89 690.674 1501.11 Q690.674 1508.24 687.341 1512.46 Q684.007 1516.68 677.549 1517.72 Q685.309 1519.39 689.58 1524.7 Q693.903 1529.96 693.903 1537.88 Q693.903 1548.29 686.82 1553.97 Q679.737 1559.65 666.664 1559.65 L638.747 1559.65 L638.747 1481.89 Z" fill="#000000" fill-rule="evenodd" fill-opacity="1" /><path clip-path="url(#clip000)" d="M756.663 1484.44 L756.663 1494.7 Q750.674 1491.84 745.361 1490.43 Q740.049 1489.02 735.101 1489.02 Q726.507 1489.02 721.82 1492.36 Q717.184 1495.69 717.184 1501.84 Q717.184 1506.99 720.257 1509.65 Q723.382 1512.25 732.028 1513.87 L738.382 1515.17 Q750.153 1517.41 755.726 1523.09 Q761.351 1528.71 761.351 1538.19 Q761.351 1549.49 753.747 1555.32 Q746.195 1561.16 731.559 1561.16 Q726.038 1561.16 719.788 1559.91 Q713.591 1558.66 706.924 1556.21 L706.924 1545.38 Q713.33 1548.97 719.476 1550.79 Q725.622 1552.62 731.559 1552.62 Q740.57 1552.62 745.465 1549.08 Q750.361 1545.53 750.361 1538.97 Q750.361 1533.24 746.82 1530.01 Q743.33 1526.78 735.309 1525.17 L728.903 1523.92 Q717.132 1521.58 711.872 1516.58 Q706.611 1511.58 706.611 1502.67 Q706.611 1492.36 713.851 1486.42 Q721.143 1480.48 733.903 1480.48 Q739.372 1480.48 745.049 1481.47 Q750.726 1482.46 756.663 1484.44 Z" fill="#000000" fill-rule="evenodd" fill-opacity="1" /><path clip-path="url(#clip000)" d="M810.569 1517.72 Q818.121 1519.34 822.34 1524.44 Q826.611 1529.54 826.611 1537.04 Q826.611 1548.55 818.694 1554.86 Q810.777 1561.16 796.194 1561.16 Q791.298 1561.16 786.09 1560.17 Q780.934 1559.23 775.413 1557.3 L775.413 1547.15 Q779.788 1549.7 784.996 1551 Q790.205 1552.3 795.882 1552.3 Q805.778 1552.3 810.934 1548.4 Q816.142 1544.49 816.142 1537.04 Q816.142 1530.17 811.298 1526.31 Q806.507 1522.41 797.913 1522.41 L788.851 1522.41 L788.851 1513.76 L798.33 1513.76 Q806.09 1513.76 810.205 1510.69 Q814.319 1507.56 814.319 1501.73 Q814.319 1495.74 810.048 1492.56 Q805.83 1489.34 797.913 1489.34 Q793.59 1489.34 788.642 1490.27 Q783.694 1491.21 777.757 1493.19 L777.757 1483.81 Q783.746 1482.15 788.955 1481.31 Q794.215 1480.48 798.85 1480.48 Q810.83 1480.48 817.809 1485.95 Q824.788 1491.37 824.788 1500.64 Q824.788 1507.1 821.09 1511.58 Q817.392 1516 810.569 1517.72 Z" fill="#000000" fill-rule="evenodd" fill-opacity="1" /><path clip-path="url(#clip000)" d="M938.341 1522.51 L938.341 1551 L955.216 1551 Q963.705 1551 967.768 1547.51 Q971.882 1543.97 971.882 1536.73 Q971.882 1529.44 967.768 1526 Q963.705 1522.51 955.216 1522.51 L938.341 1522.51 M938.341 1490.53 L938.341 1513.97 L953.914 1513.97 Q961.622 1513.97 965.372 1511.11 Q969.174 1508.19 969.174 1502.25 Q969.174 1496.37 965.372 1493.45 Q961.622 1490.53 953.914 1490.53 L938.341 1490.53 M927.82 1481.89 L954.695 1481.89 Q966.726 1481.89 973.236 1486.89 Q979.747 1491.89 979.747 1501.11 Q979.747 1508.24 976.413 1512.46 Q973.08 1516.68 966.622 1517.72 Q974.382 1519.39 978.653 1524.7 Q982.976 1529.96 982.976 1537.88 Q982.976 1548.29 975.893 1553.97 Q968.809 1559.65 955.736 1559.65 L927.82 1559.65 L927.82 1481.89 Z" fill="#000000" fill-rule="evenodd" fill-opacity="1" /><path clip-path="url(#clip000)" d="M1045.74 1484.44 L1045.74 1494.7 Q1039.75 1491.84 1034.43 1490.43 Q1029.12 1489.02 1024.17 1489.02 Q1015.58 1489.02 1010.89 1492.36 Q1006.26 1495.69 1006.26 1501.84 Q1006.26 1506.99 1009.33 1509.65 Q1012.45 1512.25 1021.1 1513.87 L1027.45 1515.17 Q1039.23 1517.41 1044.8 1523.09 Q1050.42 1528.71 1050.42 1538.19 Q1050.42 1549.49 1042.82 1555.32 Q1035.27 1561.16 1020.63 1561.16 Q1015.11 1561.16 1008.86 1559.91 Q1002.66 1558.66 995.997 1556.21 L995.997 1545.38 Q1002.4 1548.97 1008.55 1550.79 Q1014.69 1552.62 1020.63 1552.62 Q1029.64 1552.62 1034.54 1549.08 Q1039.43 1545.53 1039.43 1538.97 Q1039.43 1533.24 1035.89 1530.01 Q1032.4 1526.78 1024.38 1525.17 L1017.98 1523.92 Q1006.2 1521.58 1000.94 1516.58 Q995.684 1511.58 995.684 1502.67 Q995.684 1492.36 1002.92 1486.42 Q1010.22 1480.48 1022.98 1480.48 Q1028.44 1480.48 1034.12 1481.47 Q1039.8 1482.46 1045.74 1484.44 Z" fill="#000000" fill-rule="evenodd" fill-opacity="1" /><path clip-path="url(#clip000)" d="M1067.87 1481.89 L1109.17 1481.89 L1109.17 1490.74 L1077.51 1490.74 L1077.51 1509.8 Q1079.8 1509.02 1082.09 1508.66 Q1084.38 1508.24 1086.67 1508.24 Q1099.69 1508.24 1107.3 1515.38 Q1114.9 1522.51 1114.9 1534.7 Q1114.9 1547.25 1107.09 1554.23 Q1099.28 1561.16 1085.06 1561.16 Q1080.16 1561.16 1075.06 1560.32 Q1070.01 1559.49 1064.59 1557.82 L1064.59 1547.25 Q1069.28 1549.8 1074.28 1551.05 Q1079.28 1552.3 1084.85 1552.3 Q1093.86 1552.3 1099.12 1547.56 Q1104.38 1542.83 1104.38 1534.7 Q1104.38 1526.58 1099.12 1521.84 Q1093.86 1517.1 1084.85 1517.1 Q1080.63 1517.1 1076.41 1518.03 Q1072.25 1518.97 1067.87 1520.95 L1067.87 1481.89 Z" fill="#000000" fill-rule="evenodd" fill-opacity="1" /><path clip-path="url(#clip000)" d="M1189.63 1559.65 L1159.94 1481.89 L1170.93 1481.89 L1195.56 1547.36 L1220.25 1481.89 L1231.19 1481.89 L1201.55 1559.65 L1189.63 1559.65 Z" fill="#000000" fill-rule="evenodd" fill-opacity="1" /><path clip-path="url(#clip000)" d="M1283.74 1528.09 L1283.74 1532.77 L1239.68 1532.77 Q1240.3 1542.67 1245.62 1547.88 Q1250.98 1553.03 1260.51 1553.03 Q1266.03 1553.03 1271.19 1551.68 Q1276.4 1550.33 1281.5 1547.62 L1281.5 1556.68 Q1276.35 1558.87 1270.93 1560.01 Q1265.51 1561.16 1259.94 1561.16 Q1245.98 1561.16 1237.8 1553.03 Q1229.68 1544.91 1229.68 1531.05 Q1229.68 1516.73 1237.39 1508.35 Q1245.15 1499.91 1258.27 1499.91 Q1270.04 1499.91 1276.87 1507.51 Q1283.74 1515.06 1283.74 1528.09 M1274.16 1525.27 Q1274.05 1517.41 1269.73 1512.72 Q1265.46 1508.03 1258.38 1508.03 Q1250.36 1508.03 1245.51 1512.56 Q1240.72 1517.1 1239.99 1525.33 L1274.16 1525.27 Z" fill="#000000" fill-rule="evenodd" fill-opacity="1" /><path clip-path="url(#clip000)" d="M1333.27 1510.27 Q1331.66 1509.34 1329.73 1508.92 Q1327.86 1508.45 1325.56 1508.45 Q1317.44 1508.45 1313.06 1513.76 Q1308.74 1519.02 1308.74 1528.92 L1308.74 1559.65 L1299.11 1559.65 L1299.11 1501.31 L1308.74 1501.31 L1308.74 1510.38 Q1311.76 1505.06 1316.61 1502.51 Q1321.45 1499.91 1328.38 1499.91 Q1329.37 1499.91 1330.56 1500.06 Q1331.76 1500.17 1333.22 1500.43 L1333.27 1510.27 Z" fill="#000000" fill-rule="evenodd" fill-opacity="1" /><path clip-path="url(#clip000)" d="M1389.94 1524.44 L1389.94 1559.65 L1380.36 1559.65 L1380.36 1524.75 Q1380.36 1516.47 1377.13 1512.36 Q1373.9 1508.24 1367.44 1508.24 Q1359.68 1508.24 1355.2 1513.19 Q1350.72 1518.14 1350.72 1526.68 L1350.72 1559.65 L1341.08 1559.65 L1341.08 1501.31 L1350.72 1501.31 L1350.72 1510.38 Q1354.16 1505.12 1358.79 1502.51 Q1363.48 1499.91 1369.57 1499.91 Q1379.63 1499.91 1384.78 1506.16 Q1389.94 1512.36 1389.94 1524.44 Z" fill="#000000" fill-rule="evenodd" fill-opacity="1" /><path clip-path="url(#clip000)" d="M1434.21 1516.58 Q1427.13 1516.58 1422.96 1521.42 Q1418.84 1526.26 1418.84 1534.7 Q1418.84 1543.09 1422.96 1547.98 Q1427.13 1552.82 1434.21 1552.82 Q1441.29 1552.82 1445.41 1547.98 Q1449.57 1543.09 1449.57 1534.7 Q1449.57 1526.26 1445.41 1521.42 Q1441.29 1516.58 1434.21 1516.58 M1455.09 1483.61 L1455.09 1493.19 Q1451.14 1491.31 1447.07 1490.33 Q1443.06 1489.34 1439.11 1489.34 Q1428.69 1489.34 1423.17 1496.37 Q1417.7 1503.4 1416.92 1517.62 Q1419.99 1513.09 1424.63 1510.69 Q1429.26 1508.24 1434.83 1508.24 Q1446.55 1508.24 1453.32 1515.38 Q1460.15 1522.46 1460.15 1534.7 Q1460.15 1546.68 1453.06 1553.92 Q1445.98 1561.16 1434.21 1561.16 Q1420.72 1561.16 1413.58 1550.85 Q1406.45 1540.48 1406.45 1520.85 Q1406.45 1502.41 1415.2 1491.47 Q1423.95 1480.48 1438.69 1480.48 Q1442.65 1480.48 1446.66 1481.26 Q1450.72 1482.04 1455.09 1483.61 Z" fill="#000000" fill-rule="evenodd" fill-opacity="1" /><path clip-path="url(#clip000)" d="M1478.7 1559.65 L1449.01 1481.89 L1460 1481.89 L1484.64 1547.36 L1509.32 1481.89 L1520.26 1481.89 L1490.63 1559.65 L1478.7 1559.65 Z" fill="#000000" fill-rule="evenodd" fill-opacity="1" /><path clip-path="url(#clip000)" d="M1572.81 1528.09 L1572.81 1532.77 L1528.75 1532.77 Q1529.38 1542.67 1534.69 1547.88 Q1540.05 1553.03 1549.59 1553.03 Q1555.11 1553.03 1560.26 1551.68 Q1565.47 1550.33 1570.57 1547.62 L1570.57 1556.68 Q1565.42 1558.87 1560 1560.01 Q1554.59 1561.16 1549.01 1561.16 Q1535.05 1561.16 1526.88 1553.03 Q1518.75 1544.91 1518.75 1531.05 Q1518.75 1516.73 1526.46 1508.35 Q1534.22 1499.91 1547.35 1499.91 Q1559.12 1499.91 1565.94 1507.51 Q1572.81 1515.06 1572.81 1528.09 M1563.23 1525.27 Q1563.13 1517.41 1558.8 1512.72 Q1554.53 1508.03 1547.45 1508.03 Q1539.43 1508.03 1534.59 1512.56 Q1529.79 1517.1 1529.06 1525.33 L1563.23 1525.27 Z" fill="#000000" fill-rule="evenodd" fill-opacity="1" /><path clip-path="url(#clip000)" d="M1622.35 1510.27 Q1620.73 1509.34 1618.8 1508.92 Q1616.93 1508.45 1614.64 1508.45 Q1606.51 1508.45 1602.14 1513.76 Q1597.81 1519.02 1597.81 1528.92 L1597.81 1559.65 L1588.18 1559.65 L1588.18 1501.31 L1597.81 1501.31 L1597.81 1510.38 Q1600.83 1505.06 1605.68 1502.51 Q1610.52 1499.91 1617.45 1499.91 Q1618.44 1499.91 1619.64 1500.06 Q1620.83 1500.17 1622.29 1500.43 L1622.35 1510.27 Z" fill="#000000" fill-rule="evenodd" fill-opacity="1" /><path clip-path="url(#clip000)" d="M1679.01 1524.44 L1679.01 1559.65 L1669.43 1559.65 L1669.43 1524.75 Q1669.43 1516.47 1666.2 1512.36 Q1662.97 1508.24 1656.51 1508.24 Q1648.75 1508.24 1644.27 1513.19 Q1639.79 1518.14 1639.79 1526.68 L1639.79 1559.65 L1630.16 1559.65 L1630.16 1501.31 L1639.79 1501.31 L1639.79 1510.38 Q1643.23 1505.12 1647.87 1502.51 Q1652.55 1499.91 1658.65 1499.91 Q1668.7 1499.91 1673.86 1506.16 Q1679.01 1512.36 1679.01 1524.44 Z" fill="#000000" fill-rule="evenodd" fill-opacity="1" /><path clip-path="url(#clip000)" d="M1699.79 1558.03 L1699.79 1548.45 Q1703.75 1550.33 1707.81 1551.31 Q1711.88 1552.3 1715.78 1552.3 Q1726.2 1552.3 1731.67 1545.33 Q1737.19 1538.29 1737.97 1524.02 Q1734.95 1528.5 1730.31 1530.9 Q1725.68 1533.29 1720.05 1533.29 Q1708.39 1533.29 1701.56 1526.26 Q1694.79 1519.18 1694.79 1506.94 Q1694.79 1494.96 1701.88 1487.72 Q1708.96 1480.48 1720.73 1480.48 Q1734.22 1480.48 1741.3 1490.85 Q1748.44 1501.16 1748.44 1520.85 Q1748.44 1539.23 1739.69 1550.22 Q1730.99 1561.16 1716.25 1561.16 Q1712.29 1561.16 1708.23 1560.38 Q1704.17 1559.6 1699.79 1558.03 M1720.73 1525.06 Q1727.81 1525.06 1731.93 1520.22 Q1736.09 1515.38 1736.09 1506.94 Q1736.09 1498.55 1731.93 1493.71 Q1727.81 1488.81 1720.73 1488.81 Q1713.65 1488.81 1709.48 1493.71 Q1705.37 1498.55 1705.37 1506.94 Q1705.37 1515.38 1709.48 1520.22 Q1713.65 1525.06 1720.73 1525.06 Z" fill="#000000" fill-rule="evenodd" fill-opacity="1" /><path clip-path="url(#clip000)" d="M1800.66 1490.53 L1800.66 1551 L1813.37 1551 Q1829.47 1551 1836.91 1543.71 Q1844.41 1536.42 1844.41 1520.69 Q1844.41 1505.06 1836.91 1497.83 Q1829.47 1490.53 1813.37 1490.53 L1800.66 1490.53 M1790.14 1481.89 L1811.76 1481.89 Q1834.36 1481.89 1844.93 1491.31 Q1855.51 1500.69 1855.51 1520.69 Q1855.51 1540.79 1844.88 1550.22 Q1834.26 1559.65 1811.76 1559.65 L1790.14 1559.65 L1790.14 1481.89 Z" fill="#000000" fill-rule="evenodd" fill-opacity="1" /><path clip-path="url(#clip000)" d="M1882.8 1490.53 L1882.8 1519.75 L1896.03 1519.75 Q1903.37 1519.75 1907.38 1515.95 Q1911.39 1512.15 1911.39 1505.12 Q1911.39 1498.14 1907.38 1494.34 Q1903.37 1490.53 1896.03 1490.53 L1882.8 1490.53 M1872.28 1481.89 L1896.03 1481.89 Q1909.1 1481.89 1915.77 1487.83 Q1922.49 1493.71 1922.49 1505.12 Q1922.49 1516.63 1915.77 1522.51 Q1909.1 1528.4 1896.03 1528.4 L1882.8 1528.4 L1882.8 1559.65 L1872.28 1559.65 L1872.28 1481.89 Z" fill="#000000" fill-rule="evenodd" fill-opacity="1" /><path clip-path="url(#clip000)" d="M1937.64 1481.89 L1978.94 1481.89 L1978.94 1490.74 L1947.28 1490.74 L1947.28 1509.8 Q1949.57 1509.02 1951.86 1508.66 Q1954.15 1508.24 1956.44 1508.24 Q1969.46 1508.24 1977.07 1515.38 Q1984.67 1522.51 1984.67 1534.7 Q1984.67 1547.25 1976.86 1554.23 Q1969.05 1561.16 1954.83 1561.16 Q1949.93 1561.16 1944.83 1560.32 Q1939.78 1559.49 1934.36 1557.82 L1934.36 1547.25 Q1939.05 1549.8 1944.05 1551.05 Q1949.05 1552.3 1954.62 1552.3 Q1963.63 1552.3 1968.89 1547.56 Q1974.15 1542.83 1974.15 1534.7 Q1974.15 1526.58 1968.89 1521.84 Q1963.63 1517.1 1954.62 1517.1 Q1950.4 1517.1 1946.18 1518.03 Q1942.02 1518.97 1937.64 1520.95 L1937.64 1481.89 Z" fill="#000000" fill-rule="evenodd" fill-opacity="1" /><polyline clip-path="url(#clip000)" style="stroke:#000000; stroke-linecap:butt; stroke-linejoin:round; stroke-width:4; stroke-opacity:1; fill:none" points="
  278.293,1443.25 278.293,47.2441 
  "/>
<polyline clip-path="url(#clip000)" style="stroke:#000000; stroke-linecap:butt; stroke-linejoin:round; stroke-width:4; stroke-opacity:1; fill:none" points="
  278.293,1443.25 294.461,1443.25 
  "/>
<polyline clip-path="url(#clip000)" style="stroke:#000000; stroke-linecap:butt; stroke-linejoin:round; stroke-width:4; stroke-opacity:1; fill:none" points="
  278.293,1234.78 294.461,1234.78 
  "/>
<polyline clip-path="url(#clip000)" style="stroke:#000000; stroke-linecap:butt; stroke-linejoin:round; stroke-width:4; stroke-opacity:1; fill:none" points="
  278.293,1026.32 294.461,1026.32 
  "/>
<polyline clip-path="url(#clip000)" style="stroke:#000000; stroke-linecap:butt; stroke-linejoin:round; stroke-width:4; stroke-opacity:1; fill:none" points="
  278.293,817.858 294.461,817.858 
  "/>
<polyline clip-path="url(#clip000)" style="stroke:#000000; stroke-linecap:butt; stroke-linejoin:round; stroke-width:4; stroke-opacity:1; fill:none" points="
  278.293,609.395 294.461,609.395 
  "/>
<polyline clip-path="url(#clip000)" style="stroke:#000000; stroke-linecap:butt; stroke-linejoin:round; stroke-width:4; stroke-opacity:1; fill:none" points="
  278.293,400.932 294.461,400.932 
  "/>
<polyline clip-path="url(#clip000)" style="stroke:#000000; stroke-linecap:butt; stroke-linejoin:round; stroke-width:4; stroke-opacity:1; fill:none" points="
  278.293,192.468 294.461,192.468 
  "/>
<path clip-path="url(#clip000)" d="M215.418 1411.29 Q207.293 1411.29 203.179 1419.32 Q199.116 1427.28 199.116 1443.33 Q199.116 1459.32 203.179 1467.34 Q207.293 1475.3 215.418 1475.3 Q223.595 1475.3 227.658 1467.34 Q231.772 1459.32 231.772 1443.33 Q231.772 1427.28 227.658 1419.32 Q223.595 1411.29 215.418 1411.29 M215.418 1402.96 Q228.491 1402.96 235.366 1413.33 Q242.293 1423.64 242.293 1443.33 Q242.293 1462.96 235.366 1473.33 Q228.491 1483.64 215.418 1483.64 Q202.345 1483.64 195.418 1473.33 Q188.543 1462.96 188.543 1443.33 Q188.543 1423.64 195.418 1413.33 Q202.345 1402.96 215.418 1402.96 Z" fill="#000000" fill-rule="evenodd" fill-opacity="1" /><path clip-path="url(#clip000)" d="M59.0129 1264.81 L76.2003 1264.81 L76.2003 1205.49 L57.5025 1209.24 L57.5025 1199.65 L76.0962 1195.9 L86.6169 1195.9 L86.6169 1264.81 L103.804 1264.81 L103.804 1273.66 L59.0129 1273.66 L59.0129 1264.81 Z" fill="#000000" fill-rule="evenodd" fill-opacity="1" /><path clip-path="url(#clip000)" d="M147.554 1202.83 Q139.429 1202.83 135.315 1210.85 Q131.252 1218.82 131.252 1234.86 Q131.252 1250.85 135.315 1258.87 Q139.429 1266.84 147.554 1266.84 Q155.731 1266.84 159.794 1258.87 Q163.908 1250.85 163.908 1234.86 Q163.908 1218.82 159.794 1210.85 Q155.731 1202.83 147.554 1202.83 M147.554 1194.5 Q160.627 1194.5 167.502 1204.86 Q174.429 1215.18 174.429 1234.86 Q174.429 1254.5 167.502 1264.86 Q160.627 1275.18 147.554 1275.18 Q134.481 1275.18 127.554 1264.86 Q120.679 1254.5 120.679 1234.86 Q120.679 1215.18 127.554 1204.86 Q134.481 1194.5 147.554 1194.5 Z" fill="#000000" fill-rule="evenodd" fill-opacity="1" /><path clip-path="url(#clip000)" d="M215.418 1202.83 Q207.293 1202.83 203.179 1210.85 Q199.116 1218.82 199.116 1234.86 Q199.116 1250.85 203.179 1258.87 Q207.293 1266.84 215.418 1266.84 Q223.595 1266.84 227.658 1258.87 Q231.772 1250.85 231.772 1234.86 Q231.772 1218.82 227.658 1210.85 Q223.595 1202.83 215.418 1202.83 M215.418 1194.5 Q228.491 1194.5 235.366 1204.86 Q242.293 1215.18 242.293 1234.86 Q242.293 1254.5 235.366 1264.86 Q228.491 1275.18 215.418 1275.18 Q202.345 1275.18 195.418 1264.86 Q188.543 1254.5 188.543 1234.86 Q188.543 1215.18 195.418 1204.86 Q202.345 1194.5 215.418 1194.5 Z" fill="#000000" fill-rule="evenodd" fill-opacity="1" /><path clip-path="url(#clip000)" d="M66.2525 1056.35 L102.971 1056.35 L102.971 1065.2 L53.5963 1065.2 L53.5963 1056.35 Q59.5858 1050.15 69.8983 1039.73 Q80.2628 1029.26 82.919 1026.24 Q87.9711 1020.57 89.9503 1016.66 Q91.9815 1012.7 91.9815 1008.9 Q91.9815 1002.7 87.6065 998.795 Q83.2836 994.889 76.3045 994.889 Q71.3566 994.889 65.8358 996.608 Q60.3671 998.327 54.1171 1001.82 L54.1171 991.191 Q60.4712 988.639 65.992 987.337 Q71.5128 986.035 76.0962 986.035 Q88.1794 986.035 95.3669 992.077 Q102.554 998.118 102.554 1008.22 Q102.554 1013.01 100.731 1017.34 Q98.9606 1021.61 94.2211 1027.44 Q92.919 1028.95 85.9399 1036.19 Q78.9607 1043.38 66.2525 1056.35 Z" fill="#000000" fill-rule="evenodd" fill-opacity="1" /><path clip-path="url(#clip000)" d="M147.554 994.368 Q139.429 994.368 135.315 1002.39 Q131.252 1010.36 131.252 1026.4 Q131.252 1042.39 135.315 1050.41 Q139.429 1058.38 147.554 1058.38 Q155.731 1058.38 159.794 1050.41 Q163.908 1042.39 163.908 1026.4 Q163.908 1010.36 159.794 1002.39 Q155.731 994.368 147.554 994.368 M147.554 986.035 Q160.627 986.035 167.502 996.4 Q174.429 1006.71 174.429 1026.4 Q174.429 1046.03 167.502 1056.4 Q160.627 1066.71 147.554 1066.71 Q134.481 1066.71 127.554 1056.4 Q120.679 1046.03 120.679 1026.4 Q120.679 1006.71 127.554 996.4 Q134.481 986.035 147.554 986.035 Z" fill="#000000" fill-rule="evenodd" fill-opacity="1" /><path clip-path="url(#clip000)" d="M215.418 994.368 Q207.293 994.368 203.179 1002.39 Q199.116 1010.36 199.116 1026.4 Q199.116 1042.39 203.179 1050.41 Q207.293 1058.38 215.418 1058.38 Q223.595 1058.38 227.658 1050.41 Q231.772 1042.39 231.772 1026.4 Q231.772 1010.36 227.658 1002.39 Q223.595 994.368 215.418 994.368 M215.418 986.035 Q228.491 986.035 235.366 996.4 Q242.293 1006.71 242.293 1026.4 Q242.293 1046.03 235.366 1056.4 Q228.491 1066.71 215.418 1066.71 Q202.345 1066.71 195.418 1056.4 Q188.543 1046.03 188.543 1026.4 Q188.543 1006.71 195.418 996.4 Q202.345 986.035 215.418 986.035 Z" fill="#000000" fill-rule="evenodd" fill-opacity="1" /><path clip-path="url(#clip000)" d="M89.0648 814.811 Q96.6169 816.426 100.836 821.53 Q105.106 826.634 105.106 834.134 Q105.106 845.644 97.1898 851.946 Q89.2732 858.248 74.6899 858.248 Q69.7941 858.248 64.5858 857.259 Q59.4296 856.321 53.9088 854.394 L53.9088 844.238 Q58.2838 846.79 63.4921 848.092 Q68.7004 849.394 74.3774 849.394 Q84.2732 849.394 89.4294 845.488 Q94.6377 841.582 94.6377 834.134 Q94.6377 827.259 89.794 823.405 Q85.0024 819.499 76.4087 819.499 L67.3462 819.499 L67.3462 810.853 L76.8253 810.853 Q84.5857 810.853 88.7003 807.78 Q92.8148 804.655 92.8148 798.822 Q92.8148 792.832 88.544 789.655 Q84.3253 786.426 76.4087 786.426 Q72.0858 786.426 67.1379 787.363 Q62.19 788.301 56.2525 790.28 L56.2525 780.905 Q62.2421 779.238 67.4504 778.405 Q72.7108 777.572 77.3462 777.572 Q89.3253 777.572 96.3044 783.041 Q103.284 788.457 103.284 797.728 Q103.284 804.186 99.5856 808.665 Q95.8877 813.092 89.0648 814.811 Z" fill="#000000" fill-rule="evenodd" fill-opacity="1" /><path clip-path="url(#clip000)" d="M147.554 785.905 Q139.429 785.905 135.315 793.926 Q131.252 801.895 131.252 817.936 Q131.252 833.926 135.315 841.946 Q139.429 849.915 147.554 849.915 Q155.731 849.915 159.794 841.946 Q163.908 833.926 163.908 817.936 Q163.908 801.895 159.794 793.926 Q155.731 785.905 147.554 785.905 M147.554 777.572 Q160.627 777.572 167.502 787.936 Q174.429 798.249 174.429 817.936 Q174.429 837.571 167.502 847.936 Q160.627 858.248 147.554 858.248 Q134.481 858.248 127.554 847.936 Q120.679 837.571 120.679 817.936 Q120.679 798.249 127.554 787.936 Q134.481 777.572 147.554 777.572 Z" fill="#000000" fill-rule="evenodd" fill-opacity="1" /><path clip-path="url(#clip000)" d="M215.418 785.905 Q207.293 785.905 203.179 793.926 Q199.116 801.895 199.116 817.936 Q199.116 833.926 203.179 841.946 Q207.293 849.915 215.418 849.915 Q223.595 849.915 227.658 841.946 Q231.772 833.926 231.772 817.936 Q231.772 801.895 227.658 793.926 Q223.595 785.905 215.418 785.905 M215.418 777.572 Q228.491 777.572 235.366 787.936 Q242.293 798.249 242.293 817.936 Q242.293 837.571 235.366 847.936 Q228.491 858.248 215.418 858.248 Q202.345 858.248 195.418 847.936 Q188.543 837.571 188.543 817.936 Q188.543 798.249 195.418 787.936 Q202.345 777.572 215.418 777.572 Z" fill="#000000" fill-rule="evenodd" fill-opacity="1" /><path clip-path="url(#clip000)" d="M86.0961 579.681 L59.5337 621.192 L86.0961 621.192 L86.0961 579.681 M83.3357 570.515 L96.5648 570.515 L96.5648 621.192 L107.658 621.192 L107.658 629.942 L96.5648 629.942 L96.5648 648.275 L86.0961 648.275 L86.0961 629.942 L50.9921 629.942 L50.9921 619.785 L83.3357 570.515 Z" fill="#000000" fill-rule="evenodd" fill-opacity="1" /><path clip-path="url(#clip000)" d="M147.554 577.442 Q139.429 577.442 135.315 585.463 Q131.252 593.431 131.252 609.473 Q131.252 625.462 135.315 633.483 Q139.429 641.452 147.554 641.452 Q155.731 641.452 159.794 633.483 Q163.908 625.462 163.908 609.473 Q163.908 593.431 159.794 585.463 Q155.731 577.442 147.554 577.442 M147.554 569.109 Q160.627 569.109 167.502 579.473 Q174.429 589.786 174.429 609.473 Q174.429 629.108 167.502 639.473 Q160.627 649.785 147.554 649.785 Q134.481 649.785 127.554 639.473 Q120.679 629.108 120.679 609.473 Q120.679 589.786 127.554 579.473 Q134.481 569.109 147.554 569.109 Z" fill="#000000" fill-rule="evenodd" fill-opacity="1" /><path clip-path="url(#clip000)" d="M215.418 577.442 Q207.293 577.442 203.179 585.463 Q199.116 593.431 199.116 609.473 Q199.116 625.462 203.179 633.483 Q207.293 641.452 215.418 641.452 Q223.595 641.452 227.658 633.483 Q231.772 625.462 231.772 609.473 Q231.772 593.431 227.658 585.463 Q223.595 577.442 215.418 577.442 M215.418 569.109 Q228.491 569.109 235.366 579.473 Q242.293 589.786 242.293 609.473 Q242.293 629.108 235.366 639.473 Q228.491 649.785 215.418 649.785 Q202.345 649.785 195.418 639.473 Q188.543 629.108 188.543 609.473 Q188.543 589.786 195.418 579.473 Q202.345 569.109 215.418 569.109 Z" fill="#000000" fill-rule="evenodd" fill-opacity="1" /><path clip-path="url(#clip000)" d="M57.2942 362.052 L98.596 362.052 L98.596 370.906 L66.9295 370.906 L66.9295 389.968 Q69.2212 389.187 71.5128 388.822 Q73.8045 388.406 76.0962 388.406 Q89.1169 388.406 96.721 395.541 Q104.325 402.676 104.325 414.864 Q104.325 427.416 96.5127 434.395 Q88.7003 441.322 74.4816 441.322 Q69.5858 441.322 64.4816 440.489 Q59.4296 439.655 54.0129 437.989 L54.0129 427.416 Q58.7004 429.968 63.7004 431.218 Q68.7004 432.468 74.2733 432.468 Q83.2836 432.468 88.544 427.728 Q93.8044 422.989 93.8044 414.864 Q93.8044 406.739 88.544 401.999 Q83.2836 397.26 74.2733 397.26 Q70.0545 397.26 65.8358 398.197 Q61.6692 399.135 57.2942 401.114 L57.2942 362.052 Z" fill="#000000" fill-rule="evenodd" fill-opacity="1" /><path clip-path="url(#clip000)" d="M147.554 368.979 Q139.429 368.979 135.315 376.999 Q131.252 384.968 131.252 401.01 Q131.252 416.999 135.315 425.02 Q139.429 432.989 147.554 432.989 Q155.731 432.989 159.794 425.02 Q163.908 416.999 163.908 401.01 Q163.908 384.968 159.794 376.999 Q155.731 368.979 147.554 368.979 M147.554 360.645 Q160.627 360.645 167.502 371.01 Q174.429 381.322 174.429 401.01 Q174.429 420.645 167.502 431.009 Q160.627 441.322 147.554 441.322 Q134.481 441.322 127.554 431.009 Q120.679 420.645 120.679 401.01 Q120.679 381.322 127.554 371.01 Q134.481 360.645 147.554 360.645 Z" fill="#000000" fill-rule="evenodd" fill-opacity="1" /><path clip-path="url(#clip000)" d="M215.418 368.979 Q207.293 368.979 203.179 376.999 Q199.116 384.968 199.116 401.01 Q199.116 416.999 203.179 425.02 Q207.293 432.989 215.418 432.989 Q223.595 432.989 227.658 425.02 Q231.772 416.999 231.772 401.01 Q231.772 384.968 227.658 376.999 Q223.595 368.979 215.418 368.979 M215.418 360.645 Q228.491 360.645 235.366 371.01 Q242.293 381.322 242.293 401.01 Q242.293 420.645 235.366 431.009 Q228.491 441.322 215.418 441.322 Q202.345 441.322 195.418 431.009 Q188.543 420.645 188.543 401.01 Q188.543 381.322 195.418 371.01 Q202.345 360.645 215.418 360.645 Z" fill="#000000" fill-rule="evenodd" fill-opacity="1" /><path clip-path="url(#clip000)" d="M80.992 188.276 Q73.9087 188.276 69.742 193.119 Q65.6275 197.963 65.6275 206.4 Q65.6275 214.786 69.742 219.682 Q73.9087 224.525 80.992 224.525 Q88.0753 224.525 92.1898 219.682 Q96.3565 214.786 96.3565 206.4 Q96.3565 197.963 92.1898 193.119 Q88.0753 188.276 80.992 188.276 M101.877 155.307 L101.877 164.89 Q97.919 163.015 93.8565 162.026 Q89.8461 161.036 85.8878 161.036 Q75.4712 161.036 69.9504 168.067 Q64.4816 175.099 63.7004 189.317 Q66.7733 184.786 71.4087 182.39 Q76.0441 179.942 81.617 179.942 Q93.3356 179.942 100.106 187.078 Q106.929 194.161 106.929 206.4 Q106.929 218.38 99.846 225.619 Q92.7627 232.859 80.992 232.859 Q67.5025 232.859 60.3671 222.546 Q53.2317 212.182 53.2317 192.546 Q53.2317 174.109 61.9817 163.172 Q70.7316 152.182 85.4711 152.182 Q89.4294 152.182 93.4398 152.963 Q97.5023 153.744 101.877 155.307 Z" fill="#000000" fill-rule="evenodd" fill-opacity="1" /><path clip-path="url(#clip000)" d="M147.554 160.515 Q139.429 160.515 135.315 168.536 Q131.252 176.505 131.252 192.546 Q131.252 208.536 135.315 216.557 Q139.429 224.525 147.554 224.525 Q155.731 224.525 159.794 216.557 Q163.908 208.536 163.908 192.546 Q163.908 176.505 159.794 168.536 Q155.731 160.515 147.554 160.515 M147.554 152.182 Q160.627 152.182 167.502 162.547 Q174.429 172.859 174.429 192.546 Q174.429 212.182 167.502 222.546 Q160.627 232.859 147.554 232.859 Q134.481 232.859 127.554 222.546 Q120.679 212.182 120.679 192.546 Q120.679 172.859 127.554 162.547 Q134.481 152.182 147.554 152.182 Z" fill="#000000" fill-rule="evenodd" fill-opacity="1" /><path clip-path="url(#clip000)" d="M215.418 160.515 Q207.293 160.515 203.179 168.536 Q199.116 176.505 199.116 192.546 Q199.116 208.536 203.179 216.557 Q207.293 224.525 215.418 224.525 Q223.595 224.525 227.658 216.557 Q231.772 208.536 231.772 192.546 Q231.772 176.505 227.658 168.536 Q223.595 160.515 215.418 160.515 M215.418 152.182 Q228.491 152.182 235.366 162.547 Q242.293 172.859 242.293 192.546 Q242.293 212.182 235.366 222.546 Q228.491 232.859 215.418 232.859 Q202.345 232.859 195.418 222.546 Q188.543 212.182 188.543 192.546 Q188.543 172.859 195.418 162.547 Q202.345 152.182 215.418 152.182 Z" fill="#000000" fill-rule="evenodd" fill-opacity="1" /><path clip-path="url(#clip002)" d="
M443.997 1437.52 L386.26 1437.52 L501.733 1437.52 L443.997 1437.52 L443.997 1437.52 L443.997 1437.52  Z
  " fill="#009af9" fill-rule="evenodd" fill-opacity="1"/>
<polyline clip-path="url(#clip002)" style="stroke:#000000; stroke-linecap:butt; stroke-linejoin:round; stroke-width:16; stroke-opacity:1; fill:none" points="
  443.997,1437.52 386.26,1437.52 501.733,1437.52 443.997,1437.52 
  "/>
<path clip-path="url(#clip002)" d="
M559.47 1437.52 L559.47 1437.52 L328.524 1437.52 L328.524 1437.52 L559.47 1437.52 L559.47 1437.52 L559.47 1437.52  Z
  " fill="#009af9" fill-rule="evenodd" fill-opacity="1"/>
<polyline clip-path="url(#clip002)" style="stroke:#000000; stroke-linecap:butt; stroke-linejoin:round; stroke-width:16; stroke-opacity:1; fill:none" points="
  559.47,1437.52 559.47,1437.52 328.524,1437.52 559.47,1437.52 
  "/>
<path clip-path="url(#clip002)" d="
M559.47 1437.52 L328.524 1437.52 L328.524 1437.52 L559.47 1437.52 L559.47 1437.52 L443.997 1437.52 L559.47 1437.52  Z
  " fill="#009af9" fill-rule="evenodd" fill-opacity="1"/>
<polyline clip-path="url(#clip002)" style="stroke:#000000; stroke-linecap:butt; stroke-linejoin:round; stroke-width:16; stroke-opacity:1; fill:none" points="
  559.47,1437.52 328.524,1437.52 559.47,1437.52 443.997,1437.52 559.47,1437.52 
  "/>
<path clip-path="url(#clip002)" d="
M443.997 1437.52 L386.26 1437.52 L501.733 1437.52 L443.997 1437.52 L443.997 1437.52 L443.997 1437.52  Z
  " fill="#009af9" fill-rule="evenodd" fill-opacity="1"/>
<polyline clip-path="url(#clip002)" style="stroke:#000000; stroke-linecap:butt; stroke-linejoin:round; stroke-width:16; stroke-opacity:1; fill:none" points="
  443.997,1437.52 386.26,1437.52 501.733,1437.52 443.997,1437.52 
  "/>
<polyline clip-path="url(#clip002)" style="stroke:#009af9; stroke-linecap:butt; stroke-linejoin:round; stroke-width:0; stroke-opacity:1; fill:none" points="
  443.997,1437.52 386.26,1437.52 501.733,1437.52 443.997,1437.52 
  "/>
<polyline clip-path="url(#clip002)" style="stroke:#009af9; stroke-linecap:butt; stroke-linejoin:round; stroke-width:0; stroke-opacity:1; fill:none" points="
  559.47,1437.52 559.47,1437.52 328.524,1437.52 559.47,1437.52 
  "/>
<polyline clip-path="url(#clip002)" style="stroke:#009af9; stroke-linecap:butt; stroke-linejoin:round; stroke-width:0; stroke-opacity:1; fill:none" points="
  559.47,1437.52 328.524,1437.52 559.47,1437.52 443.997,1437.52 
  "/>
<polyline clip-path="url(#clip002)" style="stroke:#009af9; stroke-linecap:butt; stroke-linejoin:round; stroke-width:0; stroke-opacity:1; fill:none" points="
  443.997,1437.52 386.26,1437.52 501.733,1437.52 443.997,1437.52 
  "/>
<path clip-path="url(#clip002)" d="
M732.679 1436.59 L674.943 1436.59 L790.415 1436.59 L732.679 1436.59 L732.679 1436.59 L732.679 1436.59  Z
  " fill="#e26f46" fill-rule="evenodd" fill-opacity="1"/>
<polyline clip-path="url(#clip002)" style="stroke:#000000; stroke-linecap:butt; stroke-linejoin:round; stroke-width:16; stroke-opacity:1; fill:none" points="
  732.679,1436.59 674.943,1436.59 790.415,1436.59 732.679,1436.59 
  "/>
<path clip-path="url(#clip002)" d="
M848.152 1436.59 L848.152 1436.59 L617.206 1436.59 L617.206 1436.59 L848.152 1436.59 L848.152 1436.59 L848.152 1436.59  Z
  " fill="#e26f46" fill-rule="evenodd" fill-opacity="1"/>
<polyline clip-path="url(#clip002)" style="stroke:#000000; stroke-linecap:butt; stroke-linejoin:round; stroke-width:16; stroke-opacity:1; fill:none" points="
  848.152,1436.59 848.152,1436.59 617.206,1436.59 848.152,1436.59 
  "/>
<path clip-path="url(#clip002)" d="
M848.152 1436.59 L617.206 1436.59 L617.206 1436.59 L848.152 1436.59 L848.152 1436.59 L732.679 1436.59 L848.152 1436.59  Z
  " fill="#e26f46" fill-rule="evenodd" fill-opacity="1"/>
<polyline clip-path="url(#clip002)" style="stroke:#000000; stroke-linecap:butt; stroke-linejoin:round; stroke-width:16; stroke-opacity:1; fill:none" points="
  848.152,1436.59 617.206,1436.59 848.152,1436.59 732.679,1436.59 848.152,1436.59 
  "/>
<path clip-path="url(#clip002)" d="
M732.679 1436.59 L674.943 1436.59 L790.415 1436.59 L732.679 1436.59 L732.679 1436.59 L732.679 1436.59  Z
  " fill="#e26f46" fill-rule="evenodd" fill-opacity="1"/>
<polyline clip-path="url(#clip002)" style="stroke:#000000; stroke-linecap:butt; stroke-linejoin:round; stroke-width:16; stroke-opacity:1; fill:none" points="
  732.679,1436.59 674.943,1436.59 790.415,1436.59 732.679,1436.59 
  "/>
<circle clip-path="url(#clip002)" cx="732.679" cy="47.2441" r="36" fill="#e26f46" fill-rule="evenodd" fill-opacity="1" stroke="#000000" stroke-opacity="1" stroke-width="3.2"/>
<polyline clip-path="url(#clip002)" style="stroke:#e26f46; stroke-linecap:butt; stroke-linejoin:round; stroke-width:0; stroke-opacity:1; fill:none" points="
  732.679,1436.59 674.943,1436.59 790.415,1436.59 732.679,1436.59 
  "/>
<polyline clip-path="url(#clip002)" style="stroke:#e26f46; stroke-linecap:butt; stroke-linejoin:round; stroke-width:0; stroke-opacity:1; fill:none" points="
  848.152,1436.59 848.152,1436.59 617.206,1436.59 848.152,1436.59 
  "/>
<polyline clip-path="url(#clip002)" style="stroke:#e26f46; stroke-linecap:butt; stroke-linejoin:round; stroke-width:0; stroke-opacity:1; fill:none" points="
  848.152,1436.59 617.206,1436.59 848.152,1436.59 732.679,1436.59 
  "/>
<polyline clip-path="url(#clip002)" style="stroke:#e26f46; stroke-linecap:butt; stroke-linejoin:round; stroke-width:0; stroke-opacity:1; fill:none" points="
  732.679,1436.59 674.943,1436.59 790.415,1436.59 732.679,1436.59 
  "/>
<path clip-path="url(#clip002)" d="
M1021.36 1438 L963.625 1438 L1079.1 1438 L1021.36 1438 L1021.36 1438 L1021.36 1438  Z
  " fill="#3da44d" fill-rule="evenodd" fill-opacity="1"/>
<polyline clip-path="url(#clip002)" style="stroke:#000000; stroke-linecap:butt; stroke-linejoin:round; stroke-width:16; stroke-opacity:1; fill:none" points="
  1021.36,1438 963.625,1438 1079.1,1438 1021.36,1438 
  "/>
<path clip-path="url(#clip002)" d="
M1136.83 1438 L1136.83 1438 L905.888 1438 L905.888 1438 L1136.83 1438 L1136.83 1438 L1136.83 1438  Z
  " fill="#3da44d" fill-rule="evenodd" fill-opacity="1"/>
<polyline clip-path="url(#clip002)" style="stroke:#000000; stroke-linecap:butt; stroke-linejoin:round; stroke-width:16; stroke-opacity:1; fill:none" points="
  1136.83,1438 1136.83,1438 905.888,1438 1136.83,1438 
  "/>
<path clip-path="url(#clip002)" d="
M1136.83 1438 L905.888 1438 L905.888 1438 L1136.83 1438 L1136.83 1438 L1021.36 1438 L1136.83 1438  Z
  " fill="#3da44d" fill-rule="evenodd" fill-opacity="1"/>
<polyline clip-path="url(#clip002)" style="stroke:#000000; stroke-linecap:butt; stroke-linejoin:round; stroke-width:16; stroke-opacity:1; fill:none" points="
  1136.83,1438 905.888,1438 1136.83,1438 1021.36,1438 1136.83,1438 
  "/>
<path clip-path="url(#clip002)" d="
M1021.36 1438 L963.625 1438 L1079.1 1438 L1021.36 1438 L1021.36 1438 L1021.36 1438  Z
  " fill="#3da44d" fill-rule="evenodd" fill-opacity="1"/>
<polyline clip-path="url(#clip002)" style="stroke:#000000; stroke-linecap:butt; stroke-linejoin:round; stroke-width:16; stroke-opacity:1; fill:none" points="
  1021.36,1438 963.625,1438 1079.1,1438 1021.36,1438 
  "/>
<polyline clip-path="url(#clip002)" style="stroke:#3da44d; stroke-linecap:butt; stroke-linejoin:round; stroke-width:0; stroke-opacity:1; fill:none" points="
  1021.36,1438 963.625,1438 1079.1,1438 1021.36,1438 
  "/>
<polyline clip-path="url(#clip002)" style="stroke:#3da44d; stroke-linecap:butt; stroke-linejoin:round; stroke-width:0; stroke-opacity:1; fill:none" points="
  1136.83,1438 1136.83,1438 905.888,1438 1136.83,1438 
  "/>
<polyline clip-path="url(#clip002)" style="stroke:#3da44d; stroke-linecap:butt; stroke-linejoin:round; stroke-width:0; stroke-opacity:1; fill:none" points="
  1136.83,1438 905.888,1438 1136.83,1438 1021.36,1438 
  "/>
<polyline clip-path="url(#clip002)" style="stroke:#3da44d; stroke-linecap:butt; stroke-linejoin:round; stroke-width:0; stroke-opacity:1; fill:none" points="
  1021.36,1438 963.625,1438 1079.1,1438 1021.36,1438 
  "/>
<path clip-path="url(#clip002)" d="
M1310.04 1435.66 L1252.31 1435.66 L1367.78 1435.66 L1310.04 1435.66 L1310.04 1435.66 L1310.04 1435.66  Z
  " fill="#c271d2" fill-rule="evenodd" fill-opacity="1"/>
<polyline clip-path="url(#clip002)" style="stroke:#000000; stroke-linecap:butt; stroke-linejoin:round; stroke-width:16; stroke-opacity:1; fill:none" points="
  1310.04,1435.66 1252.31,1435.66 1367.78,1435.66 1310.04,1435.66 
  "/>
<path clip-path="url(#clip002)" d="
M1425.52 1435.66 L1425.52 1435.66 L1194.57 1435.66 L1194.57 1435.66 L1425.52 1435.66 L1425.52 1435.66 L1425.52 1435.66  Z
  " fill="#c271d2" fill-rule="evenodd" fill-opacity="1"/>
<polyline clip-path="url(#clip002)" style="stroke:#000000; stroke-linecap:butt; stroke-linejoin:round; stroke-width:16; stroke-opacity:1; fill:none" points="
  1425.52,1435.66 1425.52,1435.66 1194.57,1435.66 1425.52,1435.66 
  "/>
<path clip-path="url(#clip002)" d="
M1425.52 1435.66 L1194.57 1435.66 L1194.57 1435.66 L1425.52 1435.66 L1425.52 1435.66 L1310.04 1435.66 L1425.52 1435.66  Z
  " fill="#c271d2" fill-rule="evenodd" fill-opacity="1"/>
<polyline clip-path="url(#clip002)" style="stroke:#000000; stroke-linecap:butt; stroke-linejoin:round; stroke-width:16; stroke-opacity:1; fill:none" points="
  1425.52,1435.66 1194.57,1435.66 1425.52,1435.66 1310.04,1435.66 1425.52,1435.66 
  "/>
<path clip-path="url(#clip002)" d="
M1310.04 1435.66 L1252.31 1435.66 L1367.78 1435.66 L1310.04 1435.66 L1310.04 1435.66 L1310.04 1435.66  Z
  " fill="#c271d2" fill-rule="evenodd" fill-opacity="1"/>
<polyline clip-path="url(#clip002)" style="stroke:#000000; stroke-linecap:butt; stroke-linejoin:round; stroke-width:16; stroke-opacity:1; fill:none" points="
  1310.04,1435.66 1252.31,1435.66 1367.78,1435.66 1310.04,1435.66 
  "/>
<polyline clip-path="url(#clip002)" style="stroke:#c271d2; stroke-linecap:butt; stroke-linejoin:round; stroke-width:0; stroke-opacity:1; fill:none" points="
  1310.04,1435.66 1252.31,1435.66 1367.78,1435.66 1310.04,1435.66 
  "/>
<polyline clip-path="url(#clip002)" style="stroke:#c271d2; stroke-linecap:butt; stroke-linejoin:round; stroke-width:0; stroke-opacity:1; fill:none" points="
  1425.52,1435.66 1425.52,1435.66 1194.57,1435.66 1425.52,1435.66 
  "/>
<polyline clip-path="url(#clip002)" style="stroke:#c271d2; stroke-linecap:butt; stroke-linejoin:round; stroke-width:0; stroke-opacity:1; fill:none" points="
  1425.52,1435.66 1194.57,1435.66 1425.52,1435.66 1310.04,1435.66 
  "/>
<polyline clip-path="url(#clip002)" style="stroke:#c271d2; stroke-linecap:butt; stroke-linejoin:round; stroke-width:0; stroke-opacity:1; fill:none" points="
  1310.04,1435.66 1252.31,1435.66 1367.78,1435.66 1310.04,1435.66 
  "/>
<path clip-path="url(#clip002)" d="
M1598.73 1432.24 L1540.99 1432.24 L1656.46 1432.24 L1598.73 1432.24 L1598.73 1432.24 L1598.73 1432.24  Z
  " fill="#ac8d18" fill-rule="evenodd" fill-opacity="1"/>
<polyline clip-path="url(#clip002)" style="stroke:#000000; stroke-linecap:butt; stroke-linejoin:round; stroke-width:16; stroke-opacity:1; fill:none" points="
  1598.73,1432.24 1540.99,1432.24 1656.46,1432.24 1598.73,1432.24 
  "/>
<path clip-path="url(#clip002)" d="
M1714.2 1432.24 L1714.2 1432.24 L1483.25 1432.24 L1483.25 1432.24 L1714.2 1432.24 L1714.2 1432.24 L1714.2 1432.24  Z
  " fill="#ac8d18" fill-rule="evenodd" fill-opacity="1"/>
<polyline clip-path="url(#clip002)" style="stroke:#000000; stroke-linecap:butt; stroke-linejoin:round; stroke-width:16; stroke-opacity:1; fill:none" points="
  1714.2,1432.24 1714.2,1432.24 1483.25,1432.24 1714.2,1432.24 
  "/>
<path clip-path="url(#clip002)" d="
M1714.2 1432.24 L1483.25 1432.24 L1483.25 1432.24 L1714.2 1432.24 L1714.2 1432.24 L1598.73 1432.24 L1714.2 1432.24  Z
  " fill="#ac8d18" fill-rule="evenodd" fill-opacity="1"/>
<polyline clip-path="url(#clip002)" style="stroke:#000000; stroke-linecap:butt; stroke-linejoin:round; stroke-width:16; stroke-opacity:1; fill:none" points="
  1714.2,1432.24 1483.25,1432.24 1714.2,1432.24 1598.73,1432.24 1714.2,1432.24 
  "/>
<path clip-path="url(#clip002)" d="
M1598.73 1432.24 L1540.99 1432.24 L1656.46 1432.24 L1598.73 1432.24 L1598.73 1432.24 L1598.73 1432.24  Z
  " fill="#ac8d18" fill-rule="evenodd" fill-opacity="1"/>
<polyline clip-path="url(#clip002)" style="stroke:#000000; stroke-linecap:butt; stroke-linejoin:round; stroke-width:16; stroke-opacity:1; fill:none" points="
  1598.73,1432.24 1540.99,1432.24 1656.46,1432.24 1598.73,1432.24 
  "/>
<polyline clip-path="url(#clip002)" style="stroke:#ac8d18; stroke-linecap:butt; stroke-linejoin:round; stroke-width:0; stroke-opacity:1; fill:none" points="
  1598.73,1432.24 1540.99,1432.24 1656.46,1432.24 1598.73,1432.24 
  "/>
<polyline clip-path="url(#clip002)" style="stroke:#ac8d18; stroke-linecap:butt; stroke-linejoin:round; stroke-width:0; stroke-opacity:1; fill:none" points="
  1714.2,1432.24 1714.2,1432.24 1483.25,1432.24 1714.2,1432.24 
  "/>
<polyline clip-path="url(#clip002)" style="stroke:#ac8d18; stroke-linecap:butt; stroke-linejoin:round; stroke-width:0; stroke-opacity:1; fill:none" points="
  1714.2,1432.24 1483.25,1432.24 1714.2,1432.24 1598.73,1432.24 
  "/>
<polyline clip-path="url(#clip002)" style="stroke:#ac8d18; stroke-linecap:butt; stroke-linejoin:round; stroke-width:0; stroke-opacity:1; fill:none" points="
  1598.73,1432.24 1540.99,1432.24 1656.46,1432.24 1598.73,1432.24 
  "/>
<path clip-path="url(#clip002)" d="
M1887.41 1438.17 L1829.67 1438.17 L1945.14 1438.17 L1887.41 1438.17 L1887.41 1438.17 L1887.41 1438.17  Z
  " fill="#00a9ad" fill-rule="evenodd" fill-opacity="1"/>
<polyline clip-path="url(#clip002)" style="stroke:#000000; stroke-linecap:butt; stroke-linejoin:round; stroke-width:16; stroke-opacity:1; fill:none" points="
  1887.41,1438.17 1829.67,1438.17 1945.14,1438.17 1887.41,1438.17 
  "/>
<path clip-path="url(#clip002)" d="
M2002.88 1438.17 L2002.88 1438.17 L1771.93 1438.17 L1771.93 1438.17 L2002.88 1438.17 L2002.88 1438.17 L2002.88 1438.17  Z
  " fill="#00a9ad" fill-rule="evenodd" fill-opacity="1"/>
<polyline clip-path="url(#clip002)" style="stroke:#000000; stroke-linecap:butt; stroke-linejoin:round; stroke-width:16; stroke-opacity:1; fill:none" points="
  2002.88,1438.17 2002.88,1438.17 1771.93,1438.17 2002.88,1438.17 
  "/>
<path clip-path="url(#clip002)" d="
M2002.88 1438.17 L1771.93 1438.17 L1771.93 1438.17 L2002.88 1438.17 L2002.88 1438.17 L1887.41 1438.17 L2002.88 1438.17  Z
  " fill="#00a9ad" fill-rule="evenodd" fill-opacity="1"/>
<polyline clip-path="url(#clip002)" style="stroke:#000000; stroke-linecap:butt; stroke-linejoin:round; stroke-width:16; stroke-opacity:1; fill:none" points="
  2002.88,1438.17 1771.93,1438.17 2002.88,1438.17 1887.41,1438.17 2002.88,1438.17 
  "/>
<path clip-path="url(#clip002)" d="
M1887.41 1438.17 L1829.67 1438.17 L1945.14 1438.17 L1887.41 1438.17 L1887.41 1438.17 L1887.41 1438.17  Z
  " fill="#00a9ad" fill-rule="evenodd" fill-opacity="1"/>
<polyline clip-path="url(#clip002)" style="stroke:#000000; stroke-linecap:butt; stroke-linejoin:round; stroke-width:16; stroke-opacity:1; fill:none" points="
  1887.41,1438.17 1829.67,1438.17 1945.14,1438.17 1887.41,1438.17 
  "/>
<polyline clip-path="url(#clip002)" style="stroke:#00a9ad; stroke-linecap:butt; stroke-linejoin:round; stroke-width:0; stroke-opacity:1; fill:none" points="
  1887.41,1438.17 1829.67,1438.17 1945.14,1438.17 1887.41,1438.17 
  "/>
<polyline clip-path="url(#clip002)" style="stroke:#00a9ad; stroke-linecap:butt; stroke-linejoin:round; stroke-width:0; stroke-opacity:1; fill:none" points="
  2002.88,1438.17 2002.88,1438.17 1771.93,1438.17 2002.88,1438.17 
  "/>
<polyline clip-path="url(#clip002)" style="stroke:#00a9ad; stroke-linecap:butt; stroke-linejoin:round; stroke-width:0; stroke-opacity:1; fill:none" points="
  2002.88,1438.17 1771.93,1438.17 2002.88,1438.17 1887.41,1438.17 
  "/>
<polyline clip-path="url(#clip002)" style="stroke:#00a9ad; stroke-linecap:butt; stroke-linejoin:round; stroke-width:0; stroke-opacity:1; fill:none" points="
  1887.41,1438.17 1829.67,1438.17 1945.14,1438.17 1887.41,1438.17 
  "/>
</svg>
